<?xml version="1.0" standalone="no"?>
<!DOCTYPE svg PUBLIC "-//W3C//DTD SVG 1.1//EN" "http://www.w3.org/Graphics/SVG/1.1/DTD/svg11.dtd" >
<svg xmlns="http://www.w3.org/2000/svg">
<metadata>
Created by FontPrep 20130207 at Sat Nov 14 17:19:54 2015
 By quqjp
</metadata>
<defs>
<font id="e0f8492fe90b3ec5f418810f010fd54e" horiz-adv-x='1024' >
  <font-face 
    font-family="NotoSansCJKJPBlack"
    font-weight="900"
    font-stretch="normal"
    units-per-em="2048"
    panose-1="2 0 10 3 0 0 0 0 0 0"
    ascent="1638"
    descent="-410"
    x-height="1165"
    cap-height="1524"
    bbox="-123 -586 2161 2026"
    underline-thickness="102"
    underline-position="-205"
    unicode-range="U+0020-FFE5"
  />
<missing-glyph 
 />
    <glyph glyph-name=".notdef" 
 />
    <glyph glyph-name=".null" horiz-adv-x="0" 
 />
    <glyph glyph-name="nonmarkingreturn" horiz-adv-x="681" 
 />
    <glyph glyph-name="Identity.1" unicode=" " horiz-adv-x="468" 
 />
    <glyph glyph-name="Identity.2" unicode="!" horiz-adv-x="813" 
d="M407 -29q-93 0 -155 66t-62 161q0 94 62 160t154 66q94 0 155 -66t61 -160t-60 -161q-62 -66 -155 -66zM289 553l-53 692l-13 324h367l-12 -324l-54 -692h-235z" />
    <glyph glyph-name="Identity.3" unicode="#" horiz-adv-x="1247" 
d="M487 664h234l31 247h-234zM80 432v232h199l28 247h-180v232h213l47 379h207l-45 -379h233l47 379h207l-43 -379h183v-232h-211l-33 -247h196v-232h-223l-51 -432h-211l51 432h-231l-53 -432h-209l51 432h-172z" />
    <glyph glyph-name="Identity.4" unicode="$" horiz-adv-x="1247" 
d="M657 1221q-166 0 -165 -142q0 -55 63 -101t153 -87t181 -92q90 -51 153 -143t64 -214q0 -174 -93 -295t-272 -159v-244h-239v231q-250 31 -416 181l160 245q178 -135 329 -135q182 0 183 150q0 61 -64 111q-64 51 -153 95t-179 96t-153 140t-64 205q1 174 95 290t262 150
v242h239v-238q195 -28 349 -192l-181 -209q-127 115 -252 115z" />
    <glyph glyph-name="Identity.5" unicode="%" horiz-adv-x="2017" 
d="M1442 456q0 -282 133 -282t133 283t-131 282q-135 -1 -135 -283zM1577 -29q-170 0 -278 131q-107 132 -107 356t107 354q108 130 278 130q169 0 277 -130t108 -354t-108 -356t-277 -131zM496 -29l821 1581h209l-824 -1581h-206zM442 784q133 0 133 284t-133 284
t-133 -284t133 -284zM442 584q-170 0 -278 131t-107 356t107 353t278 128t280 -129t108 -353t-110 -355q-108 -131 -278 -131z" />
    <glyph glyph-name="Identity.6" unicode="&#x26;" horiz-adv-x="1581" 
d="M586 -29q-260 0 -395 127q-136 127 -136 312q0 256 277 428q-92 172 -92 326t116 272q116 116 300 116t288 -95t104 -243t-82 -244q-83 -97 -233 -198q119 -133 293 -260q115 154 172 356h332q-86 -285 -254 -510q156 -78 260 -92l-86 -295q-182 33 -397 152
q-207 -152 -467 -152zM539 1147q0 -78 47 -168q90 53 137 104t47 119q0 111 -100 111q-55 0 -93 -44t-38 -122zM401 432q1 -82 59 -132t150 -50t185 51q-166 131 -303 299q-91 -86 -91 -168z" />
    <glyph glyph-name="Identity.7" unicode="'" horiz-adv-x="718" 
d="M260 805l-72 477l-12 324h367l-13 -324l-71 -477h-199z" />
    <glyph glyph-name="Identity.8" unicode="(" horiz-adv-x="819" 
d="M166 651q0 565 309 1071l227 -94q-244 -434 -244 -977t244 -977l-227 -94q-309 506 -309 1071z" />
    <glyph glyph-name="Identity.9" unicode=")" horiz-adv-x="819" 
d="M653 651q0 -565 -309 -1071l-227 94q244 434 243 977q0 543 -243 977l227 94q309 -506 309 -1071z" />
    <glyph glyph-name="Identity.10" unicode="*" horiz-adv-x="1083" 
d="M350 795l-151 110l139 244l-256 119l59 178l275 -60l30 283h191l29 -283l276 60l57 -178l-258 -119l142 -244l-150 -110l-192 211z" />
    <glyph glyph-name="Identity.11" unicode="+" horiz-adv-x="1247" 
d="M489 215v430h-409v256h409v428h267v-428h411v-256h-411v-430h-267z" />
    <glyph glyph-name="Identity.12" unicode="," horiz-adv-x="718" 
d="M379 14h-19q-90 0 -153 56t-63 147t65 149t173 58t172 -89t64 -269t-112 -324q-112 -143 -324 -207l-73 195q129 44 199 120t71 164z" />
    <glyph glyph-name="Identity.13" unicode="-" horiz-adv-x="784" 
d="M102 465v256h580v-256h-580z" />
    <glyph glyph-name="Identity.14" unicode="." horiz-adv-x="718" 
d="M359 -29q-93 0 -154 66t-61 161q0 94 60 160q62 66 155 66t155 -66t64 -160q0 -94 -63 -161q-63 -66 -156 -66z" />
    <glyph glyph-name="Identity.15" unicode="/" horiz-adv-x="788" 
d="M31 -375l450 2038h238l-451 -2038h-237z" />
    <glyph glyph-name="Identity.16" unicode="0" horiz-adv-x="1247" 
d="M428 724q0 -470 195 -470q92 0 144 113t52 403q0 409 -119 481q-32 21 -84 21t-92 -37q-96 -87 -96 -511zM623 -29q-248 0 -394 207q-145 207 -145 591t145 584q145 199 393 199t395 -200q146 -200 146 -584q0 -383 -146 -590t-394 -207z" />
    <glyph glyph-name="Identity.17" unicode="1" horiz-adv-x="1247" 
d="M160 0v295h323v866h-280v225q221 41 377 138h268v-1229h274v-295h-962z" />
    <glyph glyph-name="Identity.18" unicode="2" horiz-adv-x="1247" 
d="M86 0v209q317 289 477 489t160 355q0 102 -53 158t-146 57q-123 0 -258 -148l-198 197q116 123 232 179t273 56q223 0 361 -131t139 -348q0 -324 -459 -786q152 20 248 20h281v-307h-1057z" />
    <glyph glyph-name="Identity.19" unicode="3" horiz-adv-x="1247" 
d="M535 266q233 0 233 185q0 95 -82 147t-307 51v256q186 0 264 52t78 149q0 162 -174 162q-125 0 -273 -127l-184 223q223 188 469 188t386 -110t140 -309q0 -238 -245 -336v-11q135 -41 215 -135t80 -235q0 -205 -163 -325t-401 -120q-340 0 -522 213l168 230
q154 -147 318 -148z" />
    <glyph glyph-name="Identity.20" unicode="4" horiz-adv-x="1247" 
d="M1194 657v-276h-170v-381h-340v381h-639v252l530 891h449v-867h170zM684 657v224l14 338h-8q-68 -152 -123 -261l-174 -301h291z" />
    <glyph glyph-name="Identity.21" unicode="5" horiz-adv-x="1247" 
d="M584 -29q-317 0 -533 211l166 230q154 -145 313 -146q112 0 176 60t64 176q0 115 -61 176t-162 61q-61 0 -103 -14t-112 -59l-160 104l39 754h856v-303h-543l-22 -258q76 31 157 30q207 0 341 -123q134 -122 134 -364t-160 -388q-161 -146 -390 -147z" />
    <glyph glyph-name="Identity.22" unicode="6" horiz-adv-x="1247" 
d="M725 1262q-279 0 -297 -445q53 68 137 109t154 41q201 0 323 -121t123 -358q0 -236 -144 -376t-364 -140t-385 180q-82 90 -130 244t-48 354q0 391 175 597q175 205 437 205t439 -182l-193 -215q-40 43 -104 75t-123 32zM655 244q78 0 127 60t49 183q0 223 -182 224
q-131 0 -215 -138q39 -329 221 -329z" />
    <glyph glyph-name="Identity.23" unicode="7" horiz-adv-x="1247" 
d="M104 1221v303h1045v-221q-196 -236 -282 -442q-85 -206 -114 -534q-11 -124 -20 -327h-366q23 398 105 666t288 555h-656z" />
    <glyph glyph-name="Identity.24" unicode="8" horiz-adv-x="1247" 
d="M410 422q0 -90 64 -144t151 -53q88 0 139 44t51 133q0 90 -70 144t-233 124q-102 -98 -102 -248zM795 1120q0 84 -46 132t-119 48t-117 -40t-44 -123q0 -82 60 -138q61 -55 184 -104q82 100 82 225zM628 -29q-232 0 -381 114q-148 114 -149 294q0 252 250 385v10
q-199 147 -198 367q0 188 134 300q134 111 345 111t336 -112t125 -295q0 -101 -54 -191t-139 -147v-10q256 -133 256 -412q0 -178 -147 -296q-146 -118 -378 -118z" />
    <glyph glyph-name="Identity.25" unicode="9" horiz-adv-x="1247" 
d="M522 266q274 0 293 445q-53 -70 -137 -112t-154 -42q-202 0 -324 122q-122 121 -122 357t144 376t371 140t391 -192t165 -582q0 -389 -175 -598q-174 -208 -434 -208t-442 182l191 217q41 -43 105 -74t128 -31zM594 813q133 0 215 143q-39 324 -221 324q-78 0 -128 -59
t-50 -181t50 -174q50 -53 134 -53z" />
    <glyph glyph-name="Identity.26" unicode=":" horiz-adv-x="718" 
d="M359 -29q-93 0 -154 66t-61 161q0 94 60 160q62 66 155 66t155 -66t64 -160q0 -94 -63 -161q-63 -66 -156 -66zM360 721q-94 1 -155 65t-62 160t61 161t156 65t156 -65t62 -161t-62 -160t-156 -65z" />
    <glyph glyph-name="Identity.27" unicode=";" horiz-adv-x="718" 
d="M379 14h-19q-90 0 -153 56t-63 147t65 149t173 58t172 -89t64 -269t-112 -324q-112 -143 -324 -207l-73 195q129 44 199 120t71 164zM360 721q-94 1 -155 65t-62 160t61 161t156 65t156 -65t62 -161t-62 -160t-156 -65z" />
    <glyph glyph-name="Identity.28" unicode="&#x3c;" horiz-adv-x="1247" 
d="M1167 236l-1087 417v248l1087 418v-299l-399 -127l-319 -111v-10l319 -108l399 -129v-299z" />
    <glyph glyph-name="Identity.29" unicode="=" horiz-adv-x="1247" 
d="M80 369v256h1087v-256h-1087zM80 920v256h1087v-256h-1087z" />
    <glyph glyph-name="Identity.30" unicode="&#x3e;" horiz-adv-x="1247" 
d="M80 236v299l399 129l320 108v10l-320 111l-399 127v299l1087 -418v-248z" />
    <glyph glyph-name="Identity.31" unicode="?" horiz-adv-x="1097" 
d="M301 198q0 94 61 160q60 66 154 66t156 -66t63 -160q-1 -94 -63 -161q-62 -66 -155 -66t-155 66q-61 66 -61 161zM651 1178q0 56 -41 91q-41 36 -106 36q-100 0 -207 -107l-201 184q188 215 453 215q203 0 328 -101t124 -304q0 -146 -121 -272q-50 -54 -100 -106
q-119 -126 -102 -261h-318q-14 88 12 168t70 138q44 57 92 109t82 103t35 107z" />
    <glyph glyph-name="Identity.32" unicode="@" horiz-adv-x="2131" 
d="M877 485q-1 -151 125 -151q62 0 139 102l57 309q-37 66 -104 66q-92 0 -154 -106t-63 -220zM1012 -408q-368 0 -626 217q-126 105 -200 279t-73 393q0 319 146 573t389 387q243 134 534 134q379 1 607 -233t228 -609q0 -157 -49 -283t-128 -203q-165 -161 -363 -161
q-104 0 -180 47q-75 47 -93 131h-6q-47 -70 -128 -112t-155 -43q-139 0 -225 97t-86 259q0 223 140 400t337 177q121 0 176 -116h5l36 98h222l-109 -522q-47 -193 102 -193q111 0 194 117t83 297q0 273 -157 453t-482 180q-150 0 -293 -62q-307 -134 -434 -448
q-68 -166 -68 -357q0 -329 197 -503t487 -174q184 0 353 88l77 -197q-202 -111 -458 -111z" />
    <glyph glyph-name="Identity.33" unicode="A" horiz-adv-x="1351" 
d="M983 0l-88 350h-451l-88 -350h-372l473 1524h438l473 -1524h-385zM514 633h311q-103 415 -153 618h-8q-80 -344 -117 -489z" />
    <glyph glyph-name="Identity.34" unicode="B" horiz-adv-x="1423" 
d="M543 281h182q266 0 266 194q0 92 -65 133q-66 41 -201 41h-182v-368zM543 920h151q225 0 226 172q0 80 -54 116t-172 37h-151v-325zM176 0v1524h533q567 0 567 -377q0 -103 -54 -199t-145 -131v-8q123 -33 197 -123t74 -235q0 -223 -166 -337t-430 -114h-576z" />
    <glyph glyph-name="Identity.35" unicode="C" horiz-adv-x="1366" 
d="M820 -29q-304 0 -509 206t-205 575q0 368 212 584t516 216q268 0 462 -198l-192 -234q-130 119 -274 119t-246 -128t-102 -349t94 -348q96 -127 259 -127t291 139l193 -229q-195 -226 -499 -226z" />
    <glyph glyph-name="Identity.36" unicode="D" horiz-adv-x="1492" 
d="M543 295h49q200 -1 310 109t110 366t-110 359t-310 104h-49v-938zM176 0v1524h438q365 0 569 -184q203 -184 203 -570t-202 -578t-549 -192h-459z" />
    <glyph glyph-name="Identity.37" unicode="E" horiz-adv-x="1290" 
d="M176 0v1524h967v-303h-600v-283h510v-307h-510v-324h622v-307h-989z" />
    <glyph glyph-name="Identity.38" unicode="F" horiz-adv-x="1236" 
d="M176 0v1524h973v-303h-606v-334h520v-305h-520v-582h-367z" />
    <glyph glyph-name="Identity.39" unicode="G" horiz-adv-x="1501" 
d="M862 -29q-332 0 -544 205t-212 576q0 372 216 586t520 214q303 0 501 -198l-194 -234q-129 119 -291 119t-270 -127t-107 -352t105 -349t313 -124q94 0 145 39v245h-241v299h567v-712q-84 -82 -219 -134t-289 -53z" />
    <glyph glyph-name="Identity.40" unicode="H" horiz-adv-x="1585" 
d="M176 0v1524h367v-580h501v580h363v-1524h-363v627h-501v-627h-367z" />
    <glyph glyph-name="Identity.41" unicode="I" horiz-adv-x="716" 
d="M176 0v1524h367v-1524h-367z" />
    <glyph glyph-name="Identity.42" unicode="J" horiz-adv-x="1200" 
d="M535 -29q-340 0 -504 281l250 186q78 -152 204 -151q94 0 139 57q44 57 44 201v979h366v-1008q0 -238 -126 -392t-373 -153z" />
    <glyph glyph-name="Identity.43" unicode="K" horiz-adv-x="1449" 
d="M176 0v1524h367v-602h6l432 602h401l-460 -611l546 -913h-401l-358 625l-166 -226v-399h-367z" />
    <glyph glyph-name="Identity.44" unicode="L" horiz-adv-x="1222" 
d="M176 0v1524h367v-1217h592v-307h-959z" />
    <glyph glyph-name="Identity.45" unicode="M" horiz-adv-x="1796" 
d="M176 0v1524h395l242 -658q40 -114 84 -278h10q16 47 43 141t41 137l234 658h397v-1524h-334v522q0 145 47 529h-8l-127 -365l-205 -557h-200l-207 557l-123 365h-8q47 -383 47 -529v-522h-328z" />
    <glyph glyph-name="Identity.46" unicode="N" horiz-adv-x="1564" 
d="M176 0v1524h373l379 -729l149 -338h10q-49 389 -49 563v504h348v-1524h-372l-377 735l-150 334h-10q3 -37 25 -228t22 -335v-506h-348z" />
    <glyph glyph-name="Identity.47" unicode="O" horiz-adv-x="1609" 
d="M805 287q149 0 237 130t88 351t-87 346t-239 125t-237 -124q-86 -124 -86 -346t87 -352t237 -130zM805 -29q-315 0 -507 214t-192 584t190 577q190 206 508 206t509 -207q190 -208 190 -577q1 -369 -191 -583t-507 -214z" />
    <glyph glyph-name="Identity.48" unicode="P" horiz-adv-x="1406" 
d="M543 795h159q264 0 265 233q0 111 -69 159t-206 48h-149v-440zM176 0v1524h535q260 0 436 -111t176 -377t-171 -398t-431 -132h-178v-506h-367z" />
    <glyph glyph-name="Identity.49" unicode="Q" horiz-adv-x="1609" 
d="M1313 -430q-240 0 -414 114t-260 304q-246 55 -389 260t-144 522q0 369 190 576q190 206 508 206t509 -207q190 -208 190 -575q0 -299 -128 -500t-351 -268q96 -143 330 -143q90 -1 172 28l63 -266q-96 -51 -276 -51zM481 762q0 -230 86 -361t238 -131q153 0 239 132
t86 360t-87 352q-87 125 -239 125t-237 -124q-86 -123 -86 -353z" />
    <glyph glyph-name="Identity.50" unicode="R" horiz-adv-x="1449" 
d="M543 537v-537h-367v1524h559q596 0 596 -480q0 -317 -262 -440l340 -604h-410l-280 537h-176zM543 1235v-410h164q266 0 266 219q0 104 -66 148t-200 43h-164z" />
    <glyph glyph-name="Identity.51" unicode="S" horiz-adv-x="1308" 
d="M649 -29q-155 1 -305 57t-264 162l207 252q185 -156 377 -156t192 134q0 55 -43 87q-43 33 -103 57t-69 28l-195 82q-135 52 -222 158t-87 260q0 196 157 328t396 132q135 0 266 -51t230 -149l-182 -230q-154 117 -314 117q-86 0 -134 -33t-48 -90t49 -90q49 -34 111 -58
t71 -26l191 -76q301 -121 301 -417q0 -199 -158 -339t-424 -139z" />
    <glyph glyph-name="Identity.52" unicode="T" horiz-adv-x="1310" 
d="M471 0v1221h-412v303h1192v-303h-413v-1221h-367z" />
    <glyph glyph-name="Identity.53" unicode="U" horiz-adv-x="1562" 
d="M1397 717q0 -383 -152 -565t-460 -181q-309 1 -463 183t-154 563v807h364v-846q0 -211 62 -301t192 -90q129 0 194 91t64 300v846h353v-807z" />
    <glyph glyph-name="Identity.54" unicode="V" horiz-adv-x="1316" 
d="M438 0l-456 1524h387l174 -695q23 -85 59 -245t60 -242h10q20 80 58 242t61 245l172 695h372l-458 -1524h-439z" />
    <glyph glyph-name="Identity.55" unicode="W" horiz-adv-x="1914" 
d="M307 0l-278 1524h374l97 -695l61 -483h8q41 229 90 483l156 695h307l160 -695q16 -87 46 -253t42 -230h10q24 225 58 483l98 695h348l-264 -1524h-461l-137 664q-37 176 -59 354h-11q-45 -279 -59 -354l-133 -664h-453z" />
    <glyph glyph-name="Identity.56" unicode="X" horiz-adv-x="1345" 
d="M25 0l419 784l-395 740h408l123 -273q31 -66 110 -250h8q41 119 99 250l110 273h387l-393 -756l420 -768h-408l-141 297q-39 84 -113 254h-8q-55 -139 -104 -254l-131 -297h-391z" />
    <glyph glyph-name="Identity.57" unicode="Y" horiz-adv-x="1245" 
d="M440 0v539l-458 985h389l127 -338q16 -43 123 -340h8q14 39 127 340l127 338h383l-461 -985v-539h-365z" />
    <glyph glyph-name="Identity.58" unicode="Z" horiz-adv-x="1267" 
d="M80 0v221l657 1000h-594v303h1045v-219l-658 -998h664v-307h-1114z" />
    <glyph glyph-name="Identity.59" unicode="[" horiz-adv-x="819" 
d="M203 -356v2015h504v-193h-234v-1630h234v-192h-504z" />
    <glyph glyph-name="Identity.60" unicode="\" horiz-adv-x="788" 
d="M522 -375l-450 2038h235l451 -2038h-236z" />
    <glyph glyph-name="Identity.61" unicode="]" horiz-adv-x="819" 
d="M113 -356v192h233v1630h-233v193h503v-2015h-503z" />
    <glyph glyph-name="Identity.62" unicode="^" horiz-adv-x="1247" 
d="M115 637l362 932h293l363 -932h-299l-101 287l-104 317h-11l-104 -317l-100 -287h-299z" />
    <glyph glyph-name="Identity.63" unicode="_" horiz-adv-x="1171" 
d="M29 -334v203h1114v-203h-1114z" />
    <glyph glyph-name="Identity.64" unicode="`" horiz-adv-x="1304" 
d="M621 1341l-433 367l248 244l363 -434z" />
    <glyph glyph-name="Identity.65" unicode="a" horiz-adv-x="1241" 
d="M567 254q90 0 176 92v186q-301 -41 -301 -178q0 -100 125 -100zM449 -29q-165 -1 -259 101t-94 254q0 186 154 288t493 140q-12 150 -176 149q-123 0 -305 -102l-127 239q256 154 502 154q471 0 471 -532v-662h-297l-27 117h-8q-162 -146 -327 -146z" />
    <glyph glyph-name="Identity.66" unicode="b" horiz-adv-x="1347" 
d="M680 270q94 0 149 80t56 246q0 301 -189 301q-94 0 -186 -98v-461q76 -68 170 -68zM770 -29q-164 0 -301 154h-8l-29 -125h-285v1636h363v-393l-8 -174q137 125 301 125q209 0 333 -161t124 -439t-146 -451q-146 -172 -344 -172z" />
    <glyph glyph-name="Identity.67" unicode="c" horiz-adv-x="1099" 
d="M650 -29q-240 0 -404 164t-164 446q0 281 178 447t434 166q195 0 340 -125l-170 -233q-76 63 -149 63q-119 0 -190 -86t-71 -230t70 -231q70 -86 174 -86t207 82l139 -239q-154 -138 -394 -138z" />
    <glyph glyph-name="Identity.68" unicode="d" horiz-adv-x="1347" 
d="M662 270q111 0 174 99v458q-76 70 -170 70t-148 -79q-55 -79 -55 -230q0 -318 199 -318zM565 -29q-219 0 -348 164q-129 165 -129 443t144 447t337 169q156 0 281 -121l-14 174v389h366v-1636h-297l-26 113h-9q-141 -142 -305 -142z" />
    <glyph glyph-name="Identity.69" unicode="e" horiz-adv-x="1220" 
d="M825 713q0 203 -184 202q-79 0 -137 -51t-76 -151h397zM660 -29q-244 0 -411 164q-167 163 -167 441t165 448t399 170t361 -157q128 -157 128 -406q0 -102 -17 -156h-684q47 -225 291 -225q119 0 246 74l121 -220q-188 -133 -432 -133z" />
    <glyph glyph-name="Identity.70" unicode="f" horiz-adv-x="815" 
d="M573 1221v-56h207v-284h-207v-881h-364v881h-156v270l156 12v47q0 203 106 329t334 126q132 0 238 -41l-66 -268q-63 25 -119 24q-129 0 -129 -159z" />
    <glyph glyph-name="Identity.71" unicode="g" horiz-adv-x="1261" 
d="M375 -141q1 -57 67 -89t179 -32t185 37t71 89q0 52 -41 69t-129 18h-111q-115 0 -166 14q-55 -49 -55 -106zM595 588q67 0 107 47t39 134q0 87 -40 134q-41 47 -107 47t-107 -47t-41 -134t41 -134t108 -47zM565 -489q-217 1 -353 73t-136 218t166 231v10
q-106 72 -106 200t128 218v8q-68 47 -112 126q-45 79 -46 175q0 204 142 314t346 110q102 0 184 -29h428v-264h-180q33 -57 33 -141q0 -195 -129 -293t-336 -98q-63 0 -137 20q-37 -35 -37 -82q0 -78 172 -78h184q449 0 449 -299q0 -186 -179 -303q-180 -116 -481 -116z" />
    <glyph glyph-name="Identity.72" unicode="h" horiz-adv-x="1347" 
d="M147 0v1636h363v-393l-16 -207q170 158 356 158q362 0 362 -473v-721h-364v676q0 117 -32 162t-96 45t-108 -24t-102 -81v-778h-363z" />
    <glyph glyph-name="Identity.73" unicode="i" horiz-adv-x="657" 
d="M329 1327q-91 0 -150 52q-58 52 -58 135q0 84 58 136q57 52 149 52t150 -53t58 -135t-58 -135q-58 -52 -149 -52zM147 0v1165h363v-1165h-363z" />
    <glyph glyph-name="Identity.74" unicode="j" horiz-adv-x="659" 
d="M333 1327q-91 0 -151 52q-59 52 -59 134q0 81 59 135q58 54 150 54t150 -53t58 -135t-58 -135q-58 -52 -149 -52zM86 -453q-121 0 -209 33l64 268q49 -16 101 -16q108 0 108 182v1151h366v-1138q0 -215 -100 -348q-101 -132 -330 -132z" />
    <glyph glyph-name="Identity.75" unicode="k" horiz-adv-x="1298" 
d="M147 0v1636h355v-913h8l354 442h396l-412 -481l440 -684h-395l-252 442l-139 -157v-285h-355z" />
    <glyph glyph-name="Identity.76" unicode="l" horiz-adv-x="679" 
d="M479 -29q-178 1 -255 107t-77 301v1257h363v-1271q0 -51 19 -75t43 -24t44 4l43 -268q-74 -31 -180 -31z" />
    <glyph glyph-name="Identity.77" unicode="m" horiz-adv-x="2017" 
d="M147 0v1165h297l25 -147h8q86 86 166 131t188 45q227 0 320 -193q90 93 174 143t191 50q184 0 274 -124t90 -349v-721h-364v676q0 117 -31 162t-109 45t-180 -105v-778h-367v676q0 117 -30 162q-31 45 -109 45t-180 -105v-778h-363z" />
    <glyph glyph-name="Identity.78" unicode="n" horiz-adv-x="1347" 
d="M147 0v1165h297l25 -145h8q178 174 373 174q362 0 362 -473v-721h-364v676q0 117 -32 162t-96 45t-108 -24t-102 -81v-778h-363z" />
    <glyph glyph-name="Identity.79" unicode="o" horiz-adv-x="1304" 
d="M652 266q198 0 198 316t-198 317q-198 -1 -198 -317t198 -316zM653 -29q-233 0 -402 167t-169 445q0 279 169 445t402 166t401 -167t169 -444q0 -277 -168 -445q-169 -167 -402 -167z" />
    <glyph glyph-name="Identity.80" unicode="p" horiz-adv-x="1347" 
d="M680 270q94 0 149 80t56 246q0 301 -189 301q-94 0 -186 -98v-461q76 -68 170 -68zM147 -424v1589h297l25 -112h8q160 141 328 141q209 0 332 -161t123 -439t-146 -451q-146 -172 -344 -172q-150 0 -270 121l10 -182v-334h-363z" />
    <glyph glyph-name="Identity.81" unicode="q" horiz-adv-x="1347" 
d="M662 270q111 0 174 99v458q-76 70 -170 70t-148 -79q-55 -79 -55 -230q0 -318 199 -318zM836 -424v346l14 174q-125 -125 -285 -125q-219 0 -348 164q-129 165 -129 443t144 447t332 169t313 -145h10l31 116h284v-1589h-366z" />
    <glyph glyph-name="Identity.82" unicode="r" horiz-adv-x="950" 
d="M147 0v1165h297l25 -202h8q61 113 151 172t178 59q89 0 144 -25l-61 -313q-75 18 -137 18t-130 -51t-112 -157v-666h-363z" />
    <glyph glyph-name="Identity.83" unicode="s" horiz-adv-x="1044" 
d="M496 -29q-115 0 -238 45t-211 119l162 227q160 -122 296 -122t136 92q-1 30 -21 47q-47 38 -86 53l-75 30q-35 13 -49 19q-303 121 -304 342q0 167 124 269t333 102t412 -150l-164 -217q-141 99 -253 99t-112 -84q0 -26 12 -38l20 -20q10 -8 24 -15t33 -17t72 -26
q188 -60 281 -147t93 -241t-127 -260t-358 -107z" />
    <glyph glyph-name="Identity.84" unicode="t" horiz-adv-x="911" 
d="M606 -29q-211 0 -311 122t-100 339v449h-158v270l178 14l41 308h303v-308h275v-284h-275v-445q0 -180 148 -180q35 0 106 20l57 -262q-143 -43 -264 -43z" />
    <glyph glyph-name="Identity.85" unicode="u" horiz-adv-x="1339" 
d="M498 -29q-362 0 -363 473v721h365v-676q0 -117 32 -161t98 -45q66 1 109 27t90 91v764h365v-1165h-297l-27 160h-8q-157 -189 -364 -189z" />
    <glyph glyph-name="Identity.86" unicode="v" horiz-adv-x="1243" 
d="M416 0l-387 1165h366l142 -536q14 -57 43 -177t45 -182h10q23 106 86 359l143 536h350l-376 -1165h-422z" />
    <glyph glyph-name="Identity.87" unicode="w" horiz-adv-x="1837" 
d="M344 0l-287 1165h361l104 -522q10 -59 26 -175t23 -173h11q47 266 67 348l119 522h315l125 -522q35 -144 72 -348h10q6 37 23 160q16 123 28 188l101 522h338l-275 -1165h-426l-98 444q-29 135 -61 342h-11q-31 -213 -55 -342l-94 -444h-416z" />
    <glyph glyph-name="Identity.88" unicode="x" horiz-adv-x="1224" 
d="M33 0l356 606l-336 559h391l97 -180q47 -98 96 -199h10q12 39 41 110t35 89l72 180h376l-335 -600l356 -565h-391l-107 182q-80 154 -106 201h-10q-39 -84 -86 -201l-80 -182h-379z" />
    <glyph glyph-name="Identity.89" unicode="y" horiz-adv-x="1236" 
d="M293 -449q-94 0 -172 23l65 276q72 -14 78 -14q150 0 195 139l16 60l-446 1130h366l156 -483q10 -31 90 -330h10q20 96 76 330l135 483h346l-399 -1167q-89 -238 -203 -342t-313 -105z" />
    <glyph glyph-name="Identity.90" unicode="z" horiz-adv-x="1089" 
d="M90 0v195l473 686h-420v284h875v-194l-473 -686h487v-285h-942z" />
    <glyph glyph-name="Identity.91" unicode="{" horiz-adv-x="819" 
d="M666 -164h41v-192h-154q-159 0 -231 74t-72 262q0 86 11 204t11 188q0 71 -48 121t-152 52v213q104 2 152 52t48 121t-11 189t-11 201q0 188 71 263t232 75h154v-193h-41q-72 0 -97 -32t-24 -125l8 -377q0 -130 -42 -192t-136 -85v-10q94 -19 136 -81t42 -195l-8 -375
q1 -94 25 -126t96 -32z" />
    <glyph glyph-name="Identity.92" unicode="|" horiz-adv-x="636" 
d="M201 -586v2343h235v-2343h-235z" />
    <glyph glyph-name="Identity.93" unicode="}" horiz-adv-x="819" 
d="M113 1466v193h153q162 0 233 -75t70 -263q0 -84 -11 -202q-11 -119 -11 -189t47 -120t151 -52v-213q-104 -2 -151 -52t-47 -121t11 -189t11 -203q0 -186 -71 -262q-72 -75 -232 -74h-153v192h41q72 0 96 32t24 126l-8 375q0 133 42 194t136 82v10q-94 23 -136 84t-42 193
l8 377q0 94 -24 126q-25 32 -96 31h-41z" />
    <glyph glyph-name="Identity.94" unicode="~" horiz-adv-x="1247" 
d="M821 557q-81 0 -155 44t-134 88t-110 44q-92 0 -168 -135l-188 145q162 246 360 246q82 0 155 -44t133 -87t111 -43q92 0 168 131l189 -143q-162 -246 -361 -246z" />
    <glyph glyph-name="Identity.95" unicode="&#xa1;" horiz-adv-x="813" 
d="M407 741q-93 0 -155 65t-62 162q0 98 60 162t156 64q94 0 155 -65t61 -161t-60 -162q-62 -65 -155 -65zM223 -403l13 323l53 692h235l54 -692l12 -323h-367z" />
    <glyph glyph-name="Identity.96" unicode="&#xa2;" horiz-adv-x="1247" 
d="M848 -98h-199v221q-235 31 -371 187t-136 404q0 246 140 402t367 195v225h199v-215q174 -18 289 -129l-168 -225q-61 49 -121 59v-614q66 9 158 77l147 -229q-133 -115 -305 -139v-219zM493 718q0 -208 156 -280v557q-156 -69 -156 -277z" />
    <glyph glyph-name="Identity.97" unicode="&#xa3;" horiz-adv-x="1247" 
d="M580 307h598v-307h-1067v225q109 47 179 141t70 209q0 18 -4 56h-233v211l158 12h12q-35 113 -35 174q0 223 142 355q142 133 378 133t400 -195l-197 -197q-80 96 -174 96q-93 0 -147 -52q-54 -54 -54 -162q0 -57 23 -152h344v-223h-297l2 -58q0 -145 -98 -258v-8z" />
    <glyph glyph-name="Identity.98" unicode="&#xa4;" horiz-adv-x="1247" 
d="M623 555q84 0 139 59q55 60 55 158t-55 158t-138 61q-82 0 -138 -60q-56 -61 -56 -159t54 -158q55 -59 139 -59zM624 1243q124 0 234 -53l164 162l180 -181l-143 -143q80 -104 80 -250t-80 -264l143 -143l-180 -183l-166 166q-108 -51 -234 -51t-231 51l-166 -166
l-180 183l141 143q-78 108 -78 258t76 256l-139 143l180 181l164 -162q111 53 235 53z" />
    <glyph glyph-name="Identity.99" unicode="&#xa5;" horiz-adv-x="1247" 
d="M442 0v340h-358v172h358v125h-358v174h278l-337 676h374l111 -299q84 -233 113 -307h10q57 160 115 307l108 299h367l-340 -676h280v-174h-358v-125h358v-172h-358v-340h-363z" />
    <glyph glyph-name="Identity.100" unicode="&#xa6;" horiz-adv-x="636" 
d="M201 -586v1061h235v-1061h-235zM201 737v1020h235v-1020h-235z" />
    <glyph glyph-name="Identity.101" unicode="&#xa7;" 
d="M758 807q0 -104 196 -172q54 -20 150 -53t119 -45q66 39 65 114q0 51 -51 94t-113 68t-154 59q-91 34 -132 52q-80 -39 -80 -117zM1078 1382q-192 0 -191 -104q0 -47 54 -81t183 -75q221 -68 334 -158t113 -261q0 -172 -162 -285q103 -82 103 -232q0 -87 -50 -164
q-84 -131 -297 -181q-86 -19 -176 -19q-276 0 -440 100l69 228q178 -96 363 -97q92 0 147 30q56 30 56 82t-56 89t-176 75q-118 39 -190 69q-194 82 -251 191q-36 67 -36 151t50 163q50 80 141 125q-39 33 -67 93t-28 124q-1 173 145 271t367 98t373 -68l-55 -227
q-131 63 -323 63z" />
    <glyph glyph-name="Identity.102" unicode="&#xa8;" horiz-adv-x="1304" 
d="M911 1327q-76 0 -125 50t-49 124t49 124t125 50t125 -50t49 -124t-49 -124t-125 -50zM393 1327q-76 0 -125 50t-49 124t49 124t125 50t125 -50t49 -124t-49 -124t-125 -50z" />
    <glyph glyph-name="Identity.103" unicode="&#xa9;" horiz-adv-x="1759" 
d="M909 299q-203 0 -329 126t-127 330q0 205 135 331t314 126t319 -139l-136 -153q-77 80 -167 80t-148 -68q-57 -68 -57 -178t55 -176q55 -68 150 -68q53 0 90 17t92 59l117 -166q-152 -121 -308 -121zM879 129q262 0 436 176t174 457q0 282 -174 454t-436 172
q-261 0 -435 -172q-174 -174 -174 -456t174 -456q174 -175 435 -175zM879 1536q325 0 549 -212t224 -563t-224 -565q-225 -214 -548 -214t-548 214t-226 566q0 352 224 563t549 211z" />
    <glyph glyph-name="Identity.104" unicode="&#xaa;" horiz-adv-x="845" 
d="M389 1047q49 0 111 57v121q-190 -20 -191 -113q0 -65 80 -65zM308 854q-112 0 -177 69q-66 69 -65 167q0 124 103 192t331 88q-8 94 -111 94q-78 0 -209 -67l-90 168q174 100 336 100q330 0 330 -352v-441h-205l-23 78h-8q-100 -96 -212 -96z" />
    <glyph glyph-name="Identity.105" unicode="&#xab;" horiz-adv-x="1140" 
d="M881 129l-316 334v256l316 334l133 -109l-256 -354l256 -354zM430 129l-315 334v256l315 334l133 -109l-256 -354l256 -354z" />
    <glyph glyph-name="Identity.106" unicode="&#xac;" horiz-adv-x="1247" 
d="M901 215v430h-821v256h1087v-686h-266z" />
    <glyph glyph-name="Identity.107" unicode="&#xae;" horiz-adv-x="1095" 
d="M496 1208h43q33 0 51 18t18 44q0 59 -67 59h-45v-121zM354 975v459h213q85 0 137 -39t52 -122t-80 -122l96 -176h-145l-70 137h-61v-137h-142zM547 846q150 0 243 97t93 259t-93 258t-243 96t-243 -96t-93 -258t93 -259t243 -97zM547 727q-197 0 -333 135t-136 339
t136 339t333 135t332 -135t135 -339t-135 -339t-332 -135z" />
    <glyph glyph-name="Identity.108" unicode="&#xaf;" horiz-adv-x="1304" 
d="M301 1382v232h703v-232h-703z" />
    <glyph glyph-name="Identity.109" unicode="&#xb0;" horiz-adv-x="866" 
d="M590 1264q0 76 -43 122t-112 48q-69 0 -111 -48t-43 -122q1 -76 43 -122t111 -46t112 46t43 122zM434 924q-145 0 -245 96q-99 96 -99 244t99 245q99 99 245 99t244 -98q100 -98 100 -246q0 -147 -99 -244q-100 -96 -245 -96z" />
    <glyph glyph-name="Identity.110" unicode="&#xb1;" 
d="M307 254h1454v-246h-1454v246zM1741 1180v-246h-594v-492h-246v492h-594v246h594v491h246v-491h594z" />
    <glyph glyph-name="Identity.111" unicode="&#xb2;" horiz-adv-x="884" 
d="M102 872v144q203 164 300 265q98 101 98 172t-34 108t-93 36q-82 0 -162 -108l-152 137q143 188 355 189q156 0 249 -82t93 -230q0 -69 -36 -143t-77 -125t-117 -139h262v-224h-686z" />
    <glyph glyph-name="Identity.112" unicode="&#xb3;" horiz-adv-x="884" 
d="M436 844q-248 0 -375 186l160 127q78 -111 189 -110q53 -1 89 27t36 75q0 115 -209 115v151q174 0 174 107q0 92 -107 92q-74 0 -145 -90l-150 133q78 84 157 121t199 37t214 -70q94 -71 94 -193t-129 -200q164 -74 164 -222q0 -126 -107 -206t-254 -80z" />
    <glyph glyph-name="Identity.113" unicode="&#xb4;" horiz-adv-x="1304" 
d="M684 1341l-180 177l364 434l246 -244z" />
    <glyph glyph-name="Identity.114" unicode="&#xb5;" horiz-adv-x="1400" 
d="M864 162q-81 -178 -247 -178q-82 0 -128 47q2 -240 27 -445h-369v1579h363v-676q0 -117 32 -161t103 -45q111 0 184 143v739h369l-27 -800q0 -98 109 -99q39 0 74 15l43 -269q-92 -41 -211 -41q-254 0 -316 191h-6z" />
    <glyph glyph-name="Identity.115" unicode="&#xb6;" 
d="M866 -113v734h-14q-98 0 -225 100q-61 49 -105 138q-43 89 -45 185q-3 96 15 168t65 144q157 242 625 240q186 0 297 -25v-1684h-226v1485h-161v-1485h-226z" />
    <glyph glyph-name="Identity.116" unicode="&#xb7;" horiz-adv-x="1249" 
d="M623 545q-92 0 -155 65q-62 66 -62 161t62 161t154 66t155 -66t63 -161t-62 -161t-155 -65z" />
    <glyph glyph-name="Identity.117" unicode="&#xb8;" horiz-adv-x="1304" 
d="M883 -317q0 -232 -471 -248l-27 145q135 8 186 30t52 73q0 72 -179 96l115 231h211l-65 -151q90 -23 134 -64t44 -112z" />
    <glyph glyph-name="Identity.118" unicode="&#xb9;" horiz-adv-x="884" 
d="M383 872v652h-207v162q150 20 266 102h211v-916h-270z" />
    <glyph glyph-name="Identity.119" unicode="&#xba;" horiz-adv-x="874" 
d="M437 1057q122 -1 122 203t-122 204t-122 -204t122 -203zM437 854q-157 0 -271 111t-113 293q0 182 114 295q115 112 271 112t270 -112t114 -295q0 -184 -114 -294t-271 -110z" />
    <glyph glyph-name="Identity.120" unicode="&#xbb;" horiz-adv-x="1140" 
d="M711 129l-133 107l256 354l-256 354l133 109l315 -334v-256zM260 129l-133 107l256 354l-256 354l133 109l315 -334v-256z" />
    <glyph glyph-name="Identity.121" unicode="&#xbc;" horiz-adv-x="1904" 
d="M1890 371v-172h-135v-199h-235v199h-420v131l323 583h332v-542h135zM1520 371v86l14 276h-10l-181 -362h177zM1257 1552h209l-821 -1581h-209zM580 612h-269v648h-207v163q90 12 144 34t123 67h209v-912z" />
    <glyph glyph-name="Identity.122" unicode="&#xbd;" horiz-adv-x="1992" 
d="M1210 0v143q203 163 300 265q98 102 98 173t-34 107t-93 35q-82 0 -164 -109l-150 138q143 190 355 190q156 0 248 -83t94 -228q0 -68 -36 -144t-77 -128t-117 -136h262v-223h-686zM401 -29l822 1581h209l-824 -1581h-207zM311 612v648h-207v163q90 12 144 34t123 67h209
v-912h-269z" />
    <glyph glyph-name="Identity.123" unicode="&#xbe;" horiz-adv-x="1923" 
d="M1909 371v-172h-137v-199h-234v199h-420v131l320 583h334v-542h137zM1538 371v86l14 276h-10l-184 -362h180zM1307 1552h206l-821 -1581h-207zM430 584q-256 0 -377 186l160 125q82 -111 186 -111q55 0 91 29t36 76q0 115 -211 115v149q178 0 179 107q0 44 -30 68t-77 24
q-75 0 -145 -88l-152 133q80 82 158 119q78 36 198 36t213 -70q95 -70 95 -192q0 -123 -129 -200q162 -72 161 -224q0 -122 -105 -202t-251 -80z" />
    <glyph glyph-name="Identity.124" unicode="&#xbf;" horiz-adv-x="1097" 
d="M580 741q-94 0 -156 65q-61 65 -62 161q0 95 62 161t156 66t155 -66t61 -162t-60 -160q-62 -65 -156 -65zM549 -432q-205 0 -329 100t-124 305q0 144 122 273q50 53 99 106q116 125 101 260h319q23 -169 -82 -304q-45 -58 -92 -109q-117 -127 -117 -197t41 -106t107 -35
q98 0 205 106l200 -184q-188 -215 -450 -215z" />
    <glyph glyph-name="Identity.125" unicode="&#xd7;" 
d="M1708 274l-174 -174l-508 508l-508 -508l-174 174l508 508l-508 508l174 174l508 -508l508 508l174 -174l-508 -508z" />
    <glyph glyph-name="Identity.126" unicode="&#xf7;" 
d="M829 268q-1 80 57 138t138 57q80 0 137 -57q57 -58 57 -138t-56 -137q-58 -57 -138 -57t-138 57t-57 137zM307 903h1434v-246h-1434v246zM829 1292q-1 80 57 138t138 57q80 0 137 -57q57 -58 57 -138t-56 -137q-58 -57 -138 -57t-138 57t-57 137z" />
    <glyph glyph-name="Identity.127" unicode="&#x391;" horiz-adv-x="1351" 
d="M983 0l-88 350h-451l-88 -350h-372l473 1524h438l473 -1524h-385zM514 633h311q-103 415 -153 618h-8q-80 -344 -117 -489z" />
    <glyph glyph-name="Identity.128" unicode="&#x392;" horiz-adv-x="1423" 
d="M543 281h182q266 0 266 194q0 92 -65 133q-66 41 -201 41h-182v-368zM543 920h151q225 0 226 172q0 80 -54 116t-172 37h-151v-325zM176 0v1524h533q567 0 567 -377q0 -103 -54 -199t-145 -131v-8q123 -33 197 -123t74 -235q0 -223 -166 -337t-430 -114h-576z" />
    <glyph glyph-name="Identity.129" unicode="&#x393;" horiz-adv-x="1226" 
d="M176 0v1524h973v-303h-606v-1221h-367z" />
    <glyph glyph-name="Identity.130" unicode="&#x394;" horiz-adv-x="1515" 
d="M473 307h561l-151 492l-129 448h-9l-124 -448zM82 0v221l457 1303h438l457 -1303v-221h-1352z" />
    <glyph glyph-name="Identity.131" unicode="&#x395;" horiz-adv-x="1290" 
d="M176 0v1524h967v-303h-600v-283h510v-307h-510v-324h622v-307h-989z" />
    <glyph glyph-name="Identity.132" unicode="&#x396;" horiz-adv-x="1267" 
d="M80 0v221l657 1000h-594v303h1045v-219l-658 -998h664v-307h-1114z" />
    <glyph glyph-name="Identity.133" unicode="&#x397;" horiz-adv-x="1585" 
d="M176 0v1524h367v-580h501v580h363v-1524h-363v627h-501v-627h-367z" />
    <glyph glyph-name="Identity.134" unicode="&#x398;" horiz-adv-x="1609" 
d="M805 287q149 0 237 130t88 351t-87 346t-239 125t-237 -124q-86 -124 -86 -346t87 -352t237 -130zM805 -29q-315 0 -507 214t-192 584t190 577q190 206 508 206t509 -207q190 -208 190 -577q1 -369 -191 -583t-507 -214zM580 627v317h450v-317h-450z" />
    <glyph glyph-name="Identity.135" unicode="&#x399;" horiz-adv-x="716" 
d="M176 0v1524h367v-1524h-367z" />
    <glyph glyph-name="Identity.136" unicode="&#x39a;" horiz-adv-x="1449" 
d="M176 0v1524h367v-602h6l432 602h401l-460 -611l546 -913h-401l-358 625l-166 -226v-399h-367z" />
    <glyph glyph-name="Identity.137" unicode="&#x39b;" horiz-adv-x="1316" 
d="M-18 0l454 1524h441l458 -1524h-387l-174 696q-25 90 -62 252q-38 162 -57 234h-10q-27 -96 -67 -266t-52 -220l-172 -696h-372z" />
    <glyph glyph-name="Identity.138" unicode="&#x39c;" horiz-adv-x="1796" 
d="M176 0v1524h395l242 -658q40 -114 84 -278h10q16 47 43 141t41 137l234 658h397v-1524h-334v522q0 145 47 529h-8l-127 -365l-205 -557h-200l-207 557l-123 365h-8q47 -383 47 -529v-522h-328z" />
    <glyph glyph-name="Identity.139" unicode="&#x39d;" horiz-adv-x="1564" 
d="M176 0v1524h373l379 -729l149 -338h10q-49 389 -49 563v504h348v-1524h-372l-377 735l-150 334h-10q3 -37 25 -228t22 -335v-506h-348z" />
    <glyph glyph-name="Identity.140" unicode="&#x39e;" horiz-adv-x="1349" 
d="M150 1221v303h1052v-303h-1052zM283 631v307h784v-307h-784zM125 0v307h1102v-307h-1102z" />
    <glyph glyph-name="Identity.141" unicode="&#x39f;" horiz-adv-x="1609" 
d="M805 287q149 0 237 130t88 351t-87 346t-239 125t-237 -124q-86 -124 -86 -346t87 -352t237 -130zM805 -29q-315 0 -507 214t-192 584t190 577q190 206 508 206t509 -207q190 -208 190 -577q1 -369 -191 -583t-507 -214z" />
    <glyph glyph-name="Identity.142" unicode="&#x3a0;" horiz-adv-x="1558" 
d="M176 0v1524h1206v-1524h-364v1221h-475v-1221h-367z" />
    <glyph glyph-name="Identity.143" unicode="&#x3a1;" horiz-adv-x="1406" 
d="M543 795h159q264 0 265 233q0 111 -69 159t-206 48h-149v-440zM176 0v1524h535q260 0 436 -111t176 -377t-171 -398t-431 -132h-178v-506h-367z" />
    <glyph glyph-name="Identity.144" unicode="&#x3a3;" horiz-adv-x="1290" 
d="M86 0v221l465 549l-457 535v219h1053v-303h-598l369 -441l-375 -473h667v-307h-1124z" />
    <glyph glyph-name="Identity.145" unicode="&#x3a4;" horiz-adv-x="1310" 
d="M471 0v1221h-412v303h1192v-303h-413v-1221h-367z" />
    <glyph glyph-name="Identity.146" unicode="&#x3a5;" horiz-adv-x="1245" 
d="M440 0v539l-458 985h389l127 -338q16 -43 123 -340h8q14 39 127 340l127 338h383l-461 -985v-539h-365z" />
    <glyph glyph-name="Identity.147" unicode="&#x3a6;" horiz-adv-x="1794" 
d="M1059 1577v-197q289 -24 455 -182t167 -429q0 -271 -168 -433t-454 -186v-201h-324v201q-287 24 -455 186t-167 433q0 271 167 429t455 182v197h324zM735 426v680q-129 -23 -204 -112t-75 -225t76 -228t203 -115zM1059 1106v-680q127 23 203 115t76 228t-75 225t-204 112
z" />
    <glyph glyph-name="Identity.148" unicode="&#x3a7;" horiz-adv-x="1345" 
d="M25 0l419 784l-395 740h408l123 -273q31 -66 110 -250h8q41 119 99 250l110 273h387l-393 -756l420 -768h-408l-141 297q-39 84 -113 254h-8q-55 -139 -104 -254l-131 -297h-391z" />
    <glyph glyph-name="Identity.149" unicode="&#x3a8;" horiz-adv-x="1777" 
d="M1300 1524h359v-375q0 -598 -600 -643v-506h-340v506q-600 45 -600 643v375h356v-353q-1 -188 59 -274t185 -102v729h340v-729q123 18 182 104t59 272v353z" />
    <glyph glyph-name="Identity.150" unicode="&#x3a9;" horiz-adv-x="1677" 
d="M104 0v295h250v8q-88 90 -151 229t-64 308q0 317 193 515q193 197 506 197t507 -198t193 -514q0 -168 -63 -308t-152 -229v-8h250v-295h-635v264q225 213 225 539q0 195 -88 315q-87 120 -237 121q-150 0 -237 -121t-87 -315q0 -322 225 -539v-264h-635z" />
    <glyph glyph-name="Identity.151" unicode="&#x3b1;" horiz-adv-x="1402" 
d="M639 270q74 0 133 70t66 168l14 199q-72 190 -199 190q-82 0 -140 -79t-58 -234q0 -314 184 -314zM1190 -29q-129 0 -204 43t-107 146h-11q-114 -189 -323 -189t-336 163t-127 443q0 281 152 449t362 168q211 0 317 -223h9l36 194h361q-152 -609 -154 -794
q0 -104 113 -105q39 0 76 15l43 -269q-78 -41 -207 -41z" />
    <glyph glyph-name="Identity.152" unicode="&#x3b2;" horiz-adv-x="1417" 
d="M762 270q94 0 156 58t63 156q0 100 -53 159t-150 59q-45 0 -92 -14l-43 264q225 33 225 250q0 86 -49 132t-121 46q-190 0 -201 -324t-12 -650q105 -136 277 -136zM145 -414v1497q-1 260 139 421t414 161q215 0 367 -110q152 -109 152 -325t-191 -337v-10
q131 -29 221 -143t90 -254q0 -265 -146 -390t-323 -125q-236 0 -381 156q10 -197 27 -541h-369z" />
    <glyph glyph-name="Identity.153" unicode="&#x3b3;" horiz-adv-x="1263" 
d="M446 -81q0 211 -133 573t-319 622l375 80q73 -115 155 -328t146 -454h10q160 324 184 753h361q-55 -323 -145 -561t-304 -571q31 -184 31 -447h-379q18 123 18 333z" />
    <glyph glyph-name="Identity.154" unicode="&#x3b4;" horiz-adv-x="1288" 
d="M635 1397q-96 0 -96 -56q0 -47 60 -94t143 -104q83 -56 122 -84q174 -125 255 -243t81 -292q0 -250 -150 -402t-396 -151t-405 147t-159 390q0 168 96 287t252 190q-238 178 -237 391q0 125 111 207q112 82 335 82t504 -92l-80 -268q-272 92 -436 92zM649 266
q197 0 197 260q0 158 -170 293q-240 -63 -240 -307q0 -118 60 -182t153 -64z" />
    <glyph glyph-name="Identity.155" unicode="&#x3b5;" horiz-adv-x="1112" 
d="M636 -29q-242 1 -398 95t-156 268q0 217 223 272v10q-84 27 -130 97t-46 145q0 166 145 251q146 85 366 85t402 -119l-133 -233q-115 74 -252 73q-78 1 -125 -29t-47 -79q0 -94 152 -94q33 0 166 10v-258q-169 10 -229 10q-136 0 -136 -104q0 -121 232 -121q139 0 252 86
l143 -230q-188 -135 -429 -135z" />
    <glyph glyph-name="Identity.156" unicode="&#x3b6;" horiz-adv-x="1103" 
d="M743 -135q0 37 -44 63q-45 26 -155 50t-180 58q-177 86 -234 258q-36 103 -36 241q0 197 148 421t399 418q-21 -2 -207 -8t-268 -14v284h874v-284h-12q-227 -133 -394 -377t-167 -418q0 -135 56 -197t223 -95q167 -35 242 -105t75 -205q1 -71 -35 -179t-108 -214l-285 92
q47 61 61 82q47 67 47 129z" />
    <glyph glyph-name="Identity.157" unicode="&#x3b7;" horiz-adv-x="1323" 
d="M844 676q0 119 -28 163t-101 44q-100 0 -205 -158v-725h-363v803q0 195 -26 362h323l25 -196h8q84 109 170 167t197 58q342 0 342 -473v-1135h-369q27 674 27 1090z" />
    <glyph glyph-name="Identity.158" unicode="&#x3b8;" horiz-adv-x="1296" 
d="M647 1665q250 0 394 -213q145 -213 145 -629t-146 -634t-393 -218q-248 0 -392 218t-144 635t143 629t393 212zM647 1372q-80 0 -127 -90t-57 -338h368q-6 170 -33 268q-28 98 -63 129t-88 31zM648 266q79 0 126 96t57 343h-368q10 -247 58 -343t127 -96z" />
    <glyph glyph-name="Identity.159" unicode="&#x3b9;" horiz-adv-x="716" 
d="M494 -29q-190 1 -268 105t-79 303v786h369q-27 -699 -27 -777t24 -100t71 -22t78 15l43 -269q-92 -41 -211 -41z" />
    <glyph glyph-name="Identity.160" unicode="&#x3ba;" horiz-adv-x="1296" 
d="M489 72v-72h-342v803q0 203 -28 362h360q23 -92 23 -291v-196h8q145 221 303 356t350 160l27 -340q-172 -35 -338 -176q92 -176 218 -364t239 -314l-412 -27q-143 188 -283 480q-125 -125 -125 -381z" />
    <glyph glyph-name="Identity.161" unicode="&#x3bb;" horiz-adv-x="1310" 
d="M317 1360q-77 0 -165 -39l-78 295q127 49 291 49q205 0 329 -115t199 -372l412 -1178h-394l-215 762h-10l-262 -789l-393 27l499 1167l-6 31q-16 76 -73 119t-134 43z" />
    <glyph glyph-name="Identity.162" unicode="&#x3bc;" horiz-adv-x="1400" 
d="M864 162q-81 -178 -247 -178q-82 0 -128 47q2 -240 27 -445h-369v1579h363v-676q0 -117 32 -161t103 -45q111 0 184 143v739h369l-27 -800q0 -98 109 -99q39 0 74 15l43 -269q-92 -41 -211 -41q-254 0 -316 191h-6z" />
    <glyph glyph-name="Identity.163" unicode="&#x3bd;" horiz-adv-x="1239" 
d="M424 0q-47 307 -163 596t-267 518l375 80q86 -150 169 -392t117 -431h11q137 328 174 794h362q-57 -328 -152 -591t-282 -574h-344z" />
    <glyph glyph-name="Identity.164" unicode="&#x3be;" horiz-adv-x="1112" 
d="M414 862q-211 82 -211 320q0 118 98 192q-190 -14 -266 -22v284h1012v-284h-277q-92 0 -147 -54t-55 -138q0 -85 52 -145q52 -61 146 -61t166 23v-285q-88 23 -199 23q-111 1 -187 -63t-75 -166t63 -146q62 -43 237 -76t238 -100q62 -68 62 -209q-1 -67 -37 -177
t-108 -216l-285 92l21 28q14 19 20 26q6 8 17 24t16 23l12 21q25 41 25 83q0 43 -45 69t-175 54q-206 43 -320 145t-114 305q0 143 90 258t226 162v10z" />
    <glyph glyph-name="Identity.165" unicode="&#x3bf;" horiz-adv-x="1300" 
d="M651 266q197 0 197 316t-197 317q-197 -1 -197 -317t197 -316zM651 -29q-233 0 -401 167t-168 445q0 279 168 445t401 166t401 -167t169 -444q0 -277 -168 -445q-169 -167 -402 -167z" />
    <glyph glyph-name="Identity.166" unicode="&#x3c0;" horiz-adv-x="1503" 
d="M631 881q0 -336 -58 -901l-366 20q84 440 84 881h-252v270l176 14h1235v-284h-217q-14 -199 -14 -512q1 -57 25 -80t60 -23t103 8l43 -266q-90 -37 -217 -37q-358 0 -359 412l11 498h-254z" />
    <glyph glyph-name="Identity.167" unicode="&#x3c1;" horiz-adv-x="1337" 
d="M678 270q86 0 142 80t57 246q0 301 -191 301q-92 0 -149 -85t-58 -224v-232q82 -86 199 -86zM137 -414v967q0 319 154 480q153 161 409 161t402 -156t147 -440q0 -284 -143 -455q-142 -172 -332 -172t-295 127q10 -176 27 -512h-369z" />
    <glyph glyph-name="Identity.168" unicode="&#x3c3;" horiz-adv-x="1351" 
d="M642 266q89 0 138 74t49 211t-50 228t-138 91q-186 0 -186 -301q0 -145 49 -224t138 -79zM637 -29q-239 0 -397 159q-158 160 -158 442t167 438t404 155h672v-299q-195 23 -328 29v-10q84 -49 131 -147t48 -228q0 -246 -150 -392t-389 -147z" />
    <glyph glyph-name="Identity.169" unicode="&#x3c4;" horiz-adv-x="1163" 
d="M735 -29q-336 0 -336 412v498h-338v270l175 14h866v-284h-346q-14 -272 -15 -512q0 -102 90 -103q66 0 134 19l47 -273q-146 -41 -277 -41z" />
    <glyph glyph-name="Identity.170" unicode="&#x3c5;" horiz-adv-x="1251" 
d="M612 266q178 0 179 332q0 238 -74 518l352 78q86 -313 86 -598q1 -285 -139 -455t-400 -170q-260 1 -382 137t-121 365l8 330q0 211 -27 362h352q23 -98 23 -291l-14 -432q0 -82 44 -129t113 -47z" />
    <glyph glyph-name="Identity.171" unicode="&#x3c6;" horiz-adv-x="1746" 
d="M1040 1473v-291q260 -12 442 -173t183 -426q0 -265 -182 -425t-443 -174v-398h-333v398q-260 14 -443 174q-182 160 -182 425t182 426t443 173v291h333zM707 254v659q-119 -8 -186 -93q-67 -84 -67 -238t68 -238q66 -84 185 -90zM1040 913v-659q117 6 185 91
q67 85 67 238t-66 237t-186 93z" />
    <glyph glyph-name="Identity.172" unicode="&#x3c7;" horiz-adv-x="1247" 
d="M395 -440l-377 26l441 801l-443 727l361 80l260 -487h8l195 458h379l-400 -770l463 -760l-362 -75l-275 538h-8z" />
    <glyph glyph-name="Identity.173" unicode="&#x3c8;" horiz-adv-x="1779" 
d="M719 1473h334v-1217q133 4 195 92t62 301t-73 467l352 78q86 -264 86 -530q1 -332 -157 -510t-465 -183v-385h-334v385q-313 8 -455 170q-141 162 -141 418v244q0 221 -25 362h353q23 -98 22 -291l-4 -344q0 -116 57 -194t193 -80v1217z" />
    <glyph glyph-name="Identity.174" unicode="&#x3c9;" horiz-adv-x="1763" 
d="M561 -29q-223 0 -347 164t-124 465q0 135 50 300t126 294l342 -129q-172 -293 -172 -546t135 -253q145 0 146 207q0 90 -33 309h383q-29 -240 -29 -331q0 -185 133 -185q61 0 99 83q37 83 37 229t-31 252q-31 108 -113 243l334 121q174 -285 174 -587t-117 -469
t-333 -167q-252 0 -340 224h-9q-88 -224 -311 -224z" />
    <glyph glyph-name="Identity.175" unicode="&#x401;" horiz-adv-x="1290" 
d="M940 1634q-74 0 -122 49t-48 122t48 121t122 48t122 -48t48 -121t-48 -122t-122 -49zM415 1634q-75 0 -122 49t-47 122t47 121t121 48t123 -48t49 -121t-48 -122t-123 -49zM176 0v1524h967v-303h-600v-283h510v-307h-510v-324h622v-307h-989z" />
    <glyph glyph-name="Identity.176" unicode="&#x410;" horiz-adv-x="1351" 
d="M983 0l-88 350h-451l-88 -350h-372l473 1524h438l473 -1524h-385zM514 633h311q-103 415 -153 618h-8q-80 -344 -117 -489z" />
    <glyph glyph-name="Identity.177" unicode="&#x411;" horiz-adv-x="1413" 
d="M543 281h170q260 0 260 200q0 99 -65 143t-195 44h-170v-387zM176 0v1524h1055v-303h-688v-283h198q264 0 426 -106t162 -352q0 -244 -160 -362t-417 -118h-576z" />
    <glyph glyph-name="Identity.178" unicode="&#x412;" horiz-adv-x="1423" 
d="M543 281h182q266 0 266 194q0 92 -65 133q-66 41 -201 41h-182v-368zM543 920h151q225 0 226 172q0 80 -54 116t-172 37h-151v-325zM176 0v1524h533q567 0 567 -377q0 -103 -54 -199t-145 -131v-8q123 -33 197 -123t74 -235q0 -223 -166 -337t-430 -114h-576z" />
    <glyph glyph-name="Identity.179" unicode="&#x413;" horiz-adv-x="1226" 
d="M176 0v1524h973v-303h-606v-1221h-367z" />
    <glyph glyph-name="Identity.180" unicode="&#x414;" horiz-adv-x="1579" 
d="M1364 307h188v-229l-30 -518h-326v440h-813v-440h-326l-30 518v229h69q125 41 219 524q38 189 127 693h922v-1217zM999 1221h-278q-61 -354 -78 -437q-61 -307 -158 -477h514v914z" />
    <glyph glyph-name="Identity.181" unicode="&#x415;" horiz-adv-x="1290" 
d="M176 0v1524h967v-303h-600v-283h510v-307h-510v-324h622v-307h-989z" />
    <glyph glyph-name="Identity.182" unicode="&#x416;" horiz-adv-x="2052" 
d="M1200 639v-639h-348v639h-147l-310 -639h-393l440 801l-127 280q-35 74 -73 103q-40 28 -88 28t-74 -8l-60 328q47 20 132 20q141 0 238 -60t173 -212l164 -348h125v592h348v-592h125l164 348q78 152 176 212t238 60q86 0 129 -20l-60 -328q-26 8 -74 8t-87 -28
q-38 -29 -72 -103l-127 -280l438 -801h-391l-309 639h-150z" />
    <glyph glyph-name="Identity.183" unicode="&#x417;" horiz-adv-x="1325" 
d="M643 -29q-338 0 -563 209l190 252q164 -145 369 -145q115 0 185 51t69 141t-63 130t-197 40h-207v271h160q236 0 235 161q0 158 -205 158q-147 0 -307 -115l-184 242q215 186 493 186t418 -108q141 -108 142 -303q0 -109 -50 -197t-139 -131v-10q115 -31 189 -126
t73 -226q0 -229 -170 -355t-438 -125z" />
    <glyph glyph-name="Identity.184" unicode="&#x418;" horiz-adv-x="1591" 
d="M176 0v1524h361v-504q0 -119 -45 -563h8l149 336l379 731h387v-1524h-362v506q0 129 47 563h-8l-150 -334l-379 -735h-387z" />
    <glyph glyph-name="Identity.185" unicode="&#x419;" horiz-adv-x="1591" 
d="M804 1653q-409 0 -423 323h305q10 -145 120 -145t116 145h307q-16 -323 -425 -323zM176 0v1524h361v-504q0 -119 -45 -563h8l149 336l379 731h387v-1524h-362v506q0 129 47 563h-8l-150 -334l-379 -735h-387z" />
    <glyph glyph-name="Identity.186" unicode="&#x41a;" horiz-adv-x="1470" 
d="M543 639v-639h-367v1524h367v-592h155l195 348q155 272 389 272q111 0 154 -20l-62 -328q-26 8 -72 8t-82 -28t-77 -103l-160 -272l494 -809h-383l-398 639h-153z" />
    <glyph glyph-name="Identity.187" unicode="&#x41b;" horiz-adv-x="1548" 
d="M158 -29q-119 0 -185 25l64 328q31 -12 67 -13q63 0 107 68q43 68 91 289t163 856h907v-1524h-364v1221h-260q-47 -265 -115 -617t-174 -492t-301 -141z" />
    <glyph glyph-name="Identity.188" unicode="&#x41c;" horiz-adv-x="1796" 
d="M176 0v1524h395l242 -658q40 -114 84 -278h10q16 47 43 141t41 137l234 658h397v-1524h-334v522q0 145 47 529h-8l-127 -365l-205 -557h-200l-207 557l-123 365h-8q47 -383 47 -529v-522h-328z" />
    <glyph glyph-name="Identity.189" unicode="&#x41d;" horiz-adv-x="1585" 
d="M176 0v1524h367v-580h501v580h363v-1524h-363v627h-501v-627h-367z" />
    <glyph glyph-name="Identity.190" unicode="&#x41e;" horiz-adv-x="1609" 
d="M805 287q149 0 237 130t88 351t-87 346t-239 125t-237 -124q-86 -124 -86 -346t87 -352t237 -130zM805 -29q-315 0 -507 214t-192 584t190 577q190 206 508 206t509 -207q190 -208 190 -577q1 -369 -191 -583t-507 -214z" />
    <glyph glyph-name="Identity.191" unicode="&#x41f;" horiz-adv-x="1558" 
d="M176 0v1524h1206v-1524h-364v1221h-475v-1221h-367z" />
    <glyph glyph-name="Identity.192" unicode="&#x420;" horiz-adv-x="1406" 
d="M543 795h159q264 0 265 233q0 111 -69 159t-206 48h-149v-440zM176 0v1524h535q260 0 436 -111t176 -377t-171 -398t-431 -132h-178v-506h-367z" />
    <glyph glyph-name="Identity.193" unicode="&#x421;" horiz-adv-x="1366" 
d="M820 -29q-304 0 -509 206t-205 575q0 368 212 584t516 216q268 0 462 -198l-192 -234q-130 119 -274 119t-246 -128t-102 -349t94 -348q96 -127 259 -127t291 139l193 -229q-195 -226 -499 -226z" />
    <glyph glyph-name="Identity.194" unicode="&#x422;" horiz-adv-x="1310" 
d="M471 0v1221h-412v303h1192v-303h-413v-1221h-367z" />
    <glyph glyph-name="Identity.195" unicode="&#x423;" horiz-adv-x="1310" 
d="M377 -29q-117 0 -201 31l66 315q59 -18 116 -18q102 0 140 63l20 44l-516 1118h385l166 -412l127 -373h10l123 373l148 412h366l-469 -1168q-74 -188 -190 -286t-291 -99z" />
    <glyph glyph-name="Identity.196" unicode="&#x424;" horiz-adv-x="1798" 
d="M1057 1552v-198q303 -18 471 -164t168 -420t-168 -425t-471 -169v-205h-316v205q-301 18 -469 169t-168 424t167 419t470 166v198h316zM446 766q0 -292 295 -322v641q-295 -27 -295 -319zM1354 766q0 292 -297 319v-641q297 30 297 322z" />
    <glyph glyph-name="Identity.197" unicode="&#x425;" horiz-adv-x="1345" 
d="M25 0l419 784l-395 740h408l123 -273q31 -66 110 -250h8q41 119 99 250l110 273h387l-393 -756l420 -768h-408l-141 297q-39 84 -113 254h-8q-55 -139 -104 -254l-131 -297h-391z" />
    <glyph glyph-name="Identity.198" unicode="&#x426;" horiz-adv-x="1576" 
d="M1362 307h188v-229l-30 -518h-326v440h-1018v1524h367v-1217h454v1217h365v-1217z" />
    <glyph glyph-name="Identity.199" unicode="&#x427;" horiz-adv-x="1484" 
d="M944 0v608q-109 -16 -223 -16q-285 0 -433 133t-149 434v365h357v-365q0 -152 61 -214t183 -62t204 14v627h365v-1524h-365z" />
    <glyph glyph-name="Identity.200" unicode="&#x428;" horiz-adv-x="2146" 
d="M176 0v1524h356v-1217h367v1217h348v-1217h367v1217h356v-1524h-1794z" />
    <glyph glyph-name="Identity.201" unicode="&#x429;" horiz-adv-x="2185" 
d="M1970 307h191v-229l-31 -518h-328v440h-1626v1524h356v-1217h367v1217h348v-1217h367v1217h356v-1217z" />
    <glyph glyph-name="Identity.202" unicode="&#x42a;" horiz-adv-x="1714" 
d="M866 289h144q264 0 264 209q0 190 -275 190h-133v-399zM500 0v1221h-441v303h807v-545h152q264 0 438 -120q174 -119 174 -369t-165 -370t-435 -120h-530z" />
    <glyph glyph-name="Identity.203" unicode="&#x42b;" horiz-adv-x="2015" 
d="M1473 0v1524h366v-1524h-366zM543 289h110q272 0 273 209q0 190 -275 190h-108v-399zM176 0v1524h367v-545h137q276 0 439 -116q163 -115 163 -369t-166 -374t-444 -120h-496z" />
    <glyph glyph-name="Identity.204" unicode="&#x42c;" horiz-adv-x="1413" 
d="M543 289h155q274 0 275 209q0 190 -275 190h-155v-399zM176 0v1524h367v-545h184q274 0 438 -116q164 -115 164 -369t-166 -374t-444 -120h-543z" />
    <glyph glyph-name="Identity.205" unicode="&#x42d;" horiz-adv-x="1366" 
d="M567 1552q307 0 500 -204t193 -593q0 -390 -197 -587t-502 -197t-512 226l191 229q143 -139 315 -139q293 0 336 344h-516v307h510q-55 301 -338 301q-146 0 -285 -119l-192 234q92 86 223 142t274 56z" />
    <glyph glyph-name="Identity.206" unicode="&#x42e;" horiz-adv-x="2238" 
d="M543 944h254q39 293 212 451t445 157q313 0 496 -206q182 -207 182 -578t-183 -584t-479 -213t-469 172q-174 172 -208 484h-250v-627h-367v1524h367v-580zM1453 287q146 0 225 129t79 353t-79 347t-225 123t-225 -123t-79 -347t79 -353t225 -129z" />
    <glyph glyph-name="Identity.207" unicode="&#x42f;" horiz-adv-x="1454" 
d="M721 1524h559v-1524h-367v537h-155l-316 -537h-417l387 592q-287 125 -287 452q0 480 596 480zM913 825v410h-163q-137 0 -203 -43t-66 -148q0 -219 269 -219h163z" />
    <glyph glyph-name="Identity.208" unicode="&#x430;" horiz-adv-x="1241" 
d="M567 254q90 0 176 92v186q-301 -41 -301 -178q0 -100 125 -100zM449 -29q-165 -1 -259 101t-94 254q0 186 154 288t493 140q-12 150 -176 149q-123 0 -305 -102l-127 239q256 154 502 154q471 0 471 -532v-662h-297l-27 117h-8q-162 -146 -327 -146z" />
    <glyph glyph-name="Identity.209" unicode="&#x431;" horiz-adv-x="1320" 
d="M772 1104q198 0 326 -140t129 -402q0 -262 -156 -426q-156 -165 -395 -165q-280 0 -430 200t-150 575q0 554 292 748q98 64 200 96q104 32 262 52t266 68l68 -315q-78 -63 -277 -90l-91 -13t-78 -11t-102 -25q-53 -17 -66 -29q-14 -13 -36 -31t-31 -40t-25 -58t-25 -133
q121 139 319 139zM442 643q0 -377 230 -377q90 0 136 79t46 220q0 272 -184 273q-136 -1 -228 -138v-57z" />
    <glyph glyph-name="Identity.210" unicode="&#x432;" horiz-adv-x="1243" 
d="M502 240h157q154 0 154 120q0 51 -39 83t-117 32h-155v-235zM502 713h127q145 0 145 104q0 109 -145 109h-127v-213zM147 0v1165h500q475 0 475 -309q0 -80 -48 -146t-148 -94v-10q242 -57 241 -270q0 -170 -137 -253t-352 -83h-531z" />
    <glyph glyph-name="Identity.211" unicode="&#x433;" horiz-adv-x="1017" 
d="M147 0v1165h809v-284h-446v-881h-363z" />
    <glyph glyph-name="Identity.212" unicode="&#x434;" horiz-adv-x="1384" 
d="M1171 285h189v-240l-35 -448h-313v403h-639v-403h-314l-36 448v240h75q45 25 76 111t57 313l54 456h886v-880zM807 285v596h-234l-26 -256q-25 -209 -94 -340h354z" />
    <glyph glyph-name="Identity.213" unicode="&#x435;" horiz-adv-x="1220" 
d="M825 713q0 203 -184 202q-79 0 -137 -51t-76 -151h397zM660 -29q-244 0 -411 164q-167 163 -167 441t165 448t399 170t361 -157q128 -157 128 -406q0 -102 -17 -156h-684q47 -225 291 -225q119 0 246 74l121 -220q-188 -133 -432 -133z" />
    <glyph glyph-name="Identity.214" unicode="&#x436;" horiz-adv-x="1808" 
d="M1065 457v-457h-322v457h-100l-240 -457h-389l369 602l-59 135q-49 111 -146 111q-16 0 -45 -8l-57 338q49 16 98 16q133 0 222 -54t153 -190l98 -207h96v422h322v-422h94l101 207q63 136 151 190t223 54q49 0 99 -16l-58 -338q-29 8 -45 8q-96 0 -143 -111l-62 -137
l369 -600h-389l-240 457h-100z" />
    <glyph glyph-name="Identity.215" unicode="&#x437;" horiz-adv-x="1122" 
d="M516 -29q-260 0 -455 138l142 229q131 -88 276 -88q92 0 151 32q58 32 58 89q0 104 -166 104h-188v238h170q147 0 147 104q0 98 -158 98t-278 -73l-133 233q182 119 410 119t367 -85q140 -85 140 -251q0 -78 -46 -146t-138 -96v-10q229 -55 229 -272q0 -168 -158 -266
t-370 -97z" />
    <glyph glyph-name="Identity.216" unicode="&#x438;" horiz-adv-x="1370" 
d="M147 0v1165h353v-303q0 -88 -33 -411h8q15 31 65 119t68 124l285 471h332v-1165h-353v303q0 84 33 412h-8q-19 -33 -67 -122t-66 -122l-287 -471h-330z" />
    <glyph glyph-name="Identity.217" unicode="&#x439;" horiz-adv-x="1370" 
d="M698 1341q-199 -1 -301 101t-108 287h282q4 -103 32 -149q27 -46 95 -46t96 47t31 148h281q-4 -184 -106 -286t-302 -102zM147 0v1165h353v-303q0 -88 -33 -411h8q15 31 65 119t68 124l285 471h332v-1165h-353v303q0 84 33 412h-8q-19 -33 -67 -122t-66 -122l-287 -471
h-330z" />
    <glyph glyph-name="Identity.218" unicode="&#x43a;" horiz-adv-x="1294" 
d="M510 457v-457h-363v1165h363v-422h106l101 207q66 141 151 193q86 51 226 51q51 0 96 -16l-55 -338q-29 8 -61 8q-81 0 -130 -111l-57 -125l393 -612h-397l-262 457h-111z" />
    <glyph glyph-name="Identity.219" unicode="&#x43b;" horiz-adv-x="1355" 
d="M156 -29q-70 0 -144 27l60 328q45 -10 59 -11q100 0 123 166q36 290 78 684h878v-1165h-364v881h-225q-55 -444 -64 -502q-61 -408 -401 -408z" />
    <glyph glyph-name="Identity.220" unicode="&#x43c;" horiz-adv-x="1552" 
d="M147 0v1165h414l137 -381q14 -45 41 -129t39 -127h10q8 31 37 117t43 139l127 381h414v-1165h-324v270q0 156 39 516h-10q-30 -95 -115 -333l-125 -353h-196l-127 353q-16 51 -57 167t-58 166h-10q39 -422 39 -516v-270h-318z" />
    <glyph glyph-name="Identity.221" unicode="&#x43d;" horiz-adv-x="1370" 
d="M147 0v1165h363v-413h350v413h365v-1165h-365v434h-350v-434h-363z" />
    <glyph glyph-name="Identity.222" unicode="&#x43e;" horiz-adv-x="1304" 
d="M652 266q198 0 198 316t-198 317q-198 -1 -198 -317t198 -316zM653 -29q-233 0 -402 167t-169 445q0 279 169 445t402 166t401 -167t169 -444q0 -277 -168 -445q-169 -167 -402 -167z" />
    <glyph glyph-name="Identity.223" unicode="&#x43f;" horiz-adv-x="1351" 
d="M147 0v1165h1059v-1165h-364v881h-332v-881h-363z" />
    <glyph glyph-name="Identity.224" unicode="&#x440;" horiz-adv-x="1347" 
d="M680 270q94 0 149 80t56 246q0 301 -189 301q-94 0 -186 -98v-461q76 -68 170 -68zM147 -424v1589h297l25 -112h8q160 141 328 141q209 0 332 -161t123 -439t-146 -451q-146 -172 -344 -172q-150 0 -270 121l10 -182v-334h-363z" />
    <glyph glyph-name="Identity.225" unicode="&#x441;" horiz-adv-x="1099" 
d="M650 -29q-240 0 -404 164t-164 446q0 281 178 447t434 166q195 0 340 -125l-170 -233q-76 63 -149 63q-119 0 -190 -86t-71 -230t70 -231q70 -86 174 -86t207 82l139 -239q-154 -138 -394 -138z" />
    <glyph glyph-name="Identity.226" unicode="&#x442;" horiz-adv-x="1163" 
d="M399 0v881h-338v284h1041v-284h-338v-881h-365z" />
    <glyph glyph-name="Identity.227" unicode="&#x443;" horiz-adv-x="1236" 
d="M293 -449q-94 0 -172 23l65 276q72 -14 78 -14q150 0 195 139l16 60l-446 1130h366l156 -483q10 -31 90 -330h10q20 96 76 330l135 483h346l-399 -1167q-89 -238 -203 -342t-313 -105z" />
    <glyph glyph-name="Identity.228" unicode="&#x444;" horiz-adv-x="1837" 
d="M1207 270q75 0 122 80t47 246q0 301 -162 301q-70 0 -131 -47v-541q49 -39 124 -39zM635 270q74 0 119 45v541q-55 41 -127 41t-118 -78t-46 -231q0 -318 172 -318zM741 -424v289l13 174q-119 -68 -215 -68q-205 0 -328 164q-123 165 -123 443t135 447t316 169
q117 0 215 -61l-13 167v336h357v-336l-15 -178q129 72 238 72q195 0 311 -162t117 -440q0 -278 -135 -450q-135 -171 -324 -171q-111 0 -207 62l15 -168v-289h-357z" />
    <glyph glyph-name="Identity.229" unicode="&#x445;" horiz-adv-x="1224" 
d="M33 0l356 606l-336 559h391l97 -180q47 -98 96 -199h10q12 39 41 110t35 89l72 180h376l-335 -600l356 -565h-391l-107 182q-80 154 -106 201h-10q-39 -84 -86 -201l-80 -182h-379z" />
    <glyph glyph-name="Identity.230" unicode="&#x446;" horiz-adv-x="1404" 
d="M1194 285h186v-240l-32 -448h-314v403h-887v1165h363v-880h319v880h365v-880z" />
    <glyph glyph-name="Identity.231" unicode="&#x447;" horiz-adv-x="1300" 
d="M473 827q1 -172 177 -172q84 0 138 15v495h365v-1165h-365v387q-82 -16 -202 -16q-219 1 -347 111t-128 345v338h362v-338z" />
    <glyph glyph-name="Identity.232" unicode="&#x448;" horiz-adv-x="1898" 
d="M147 0v1165h359v-880h268v880h348v-880h269v880h362v-1165h-1606z" />
    <glyph glyph-name="Identity.233" unicode="&#x449;" horiz-adv-x="1961" 
d="M1753 285h186v-240l-32 -448h-314v403h-1446v1165h359v-880h268v880h348v-880h269v880h362v-880z" />
    <glyph glyph-name="Identity.234" unicode="&#x44a;" horiz-adv-x="1468" 
d="M768 276h98q170 0 170 132q0 127 -170 127h-98v-259zM403 0v881h-342v284h707v-364h115q231 0 367 -93t136 -302q0 -406 -503 -406h-480z" />
    <glyph glyph-name="Identity.235" unicode="&#x44b;" horiz-adv-x="1753" 
d="M1241 0v1165h365v-1165h-365zM510 276h61q170 0 170 132q0 127 -170 127h-61v-259zM147 0v1165h363v-364h76q231 0 367 -93t137 -302q0 -406 -504 -406h-439z" />
    <glyph glyph-name="Identity.236" unicode="&#x44c;" horiz-adv-x="1216" 
d="M510 276h104q170 0 170 132q0 127 -170 127h-104v-259zM147 0v1165h363v-364h121q231 0 367 -93t137 -302q0 -406 -504 -406h-484z" />
    <glyph glyph-name="Identity.237" unicode="&#x44d;" horiz-adv-x="1099" 
d="M434 1194q256 0 420 -158t164 -454t-161 -453q-161 -158 -413 -158t-395 138l131 215q94 -74 217 -74q233 0 273 225h-391v238h387q-43 203 -254 202q-107 0 -193 -63l-156 209q63 59 163 96t208 37z" />
    <glyph glyph-name="Identity.238" unicode="&#x44e;" horiz-adv-x="1828" 
d="M510 750h172q43 208 186 326t359 118t369 -165t153 -447t-153 -446q-153 -165 -371 -165t-363 123t-184 338h-168v-432h-363v1165h363v-415zM1192 266q182 0 182 316t-182 317q-88 0 -137 -85t-49 -231q0 -145 50 -231t136 -86z" />
    <glyph glyph-name="Identity.239" unicode="&#x44f;" horiz-adv-x="1284" 
d="M631 1165h508v-1165h-365v369h-117l-223 -369h-405l307 446q-195 111 -195 323t133 304q134 92 357 92zM774 616v283h-98q-176 0 -176 -135q0 -68 45 -108t131 -40h98z" />
    <glyph glyph-name="Identity.240" unicode="&#x451;" horiz-adv-x="1220" 
d="M894 1327q-75 0 -125 50t-50 124t49 124t125 50t126 -50t50 -124t-50 -124t-125 -50zM375 1327q-76 0 -125 50t-49 124t49 124t125 50t125 -50t49 -124t-49 -124t-125 -50zM825 713q0 203 -184 202q-79 0 -137 -51t-76 -151h397zM660 -29q-244 0 -411 164
q-167 163 -167 441t165 448t399 170t361 -157q128 -157 128 -406q0 -102 -17 -156h-684q47 -225 291 -225q119 0 246 74l121 -220q-188 -133 -432 -133z" />
    <glyph glyph-name="Identity.241" unicode="&#x2010;" 
d="M768 829h512v-102h-512v102z" />
    <glyph glyph-name="Identity.242" unicode="&#x2015;" 
d="M154 829h1740v-102h-1740v102z" />
    <glyph glyph-name="Identity.243" unicode="&#x2018;" horiz-adv-x="718" 
d="M358 1145q80 0 134 -49t53 -135q0 -87 -52 -141t-135 -54q-115 0 -173 83t-58 234q0 344 344 514l80 -159q-215 -100 -217 -295q8 2 24 2z" />
    <glyph glyph-name="Identity.244" unicode="&#x2019;" horiz-adv-x="718" 
d="M362 1253q-80 -1 -134 49t-54 136t52 139t150 53t156 -83q59 -83 60 -234q0 -344 -346 -512l-78 157q213 102 215 297q-6 -2 -21 -2z" />
    <glyph glyph-name="Identity.245" unicode="&#x201c;" horiz-adv-x="1292" 
d="M932 1145q80 0 133 -49t53 -135q0 -87 -52 -141t-134 -54q-115 0 -173 83t-59 234q0 344 344 514l80 -159q-215 -100 -217 -295q8 2 25 2zM358 1145q80 0 134 -49t53 -135q0 -87 -52 -141t-135 -54q-115 0 -173 83t-58 234q0 344 344 514l80 -159q-215 -100 -217 -295
q8 2 24 2z" />
    <glyph glyph-name="Identity.246" unicode="&#x201d;" horiz-adv-x="1292" 
d="M936 1253q-80 -1 -134 49t-54 136t52 139t150 53t156 -83q59 -83 59 -234q0 -344 -346 -512l-78 157q213 102 215 297q-6 -2 -20 -2zM362 1253q-80 -1 -134 49t-54 136t52 139t150 53t156 -83q59 -83 60 -234q0 -344 -346 -512l-78 157q213 102 215 297q-6 -2 -21 -2z
" />
    <glyph glyph-name="Identity.247" unicode="&#x2020;" 
d="M1190 1589l-27 -465l379 25v-287l-379 25l27 -1004h-332l27 1004l-379 -25v287l379 -25l-27 465h332z" />
    <glyph glyph-name="Identity.248" unicode="&#x2021;" 
d="M1190 1589l-27 -430l379 25v-287l-379 25v-361l379 25v-287l-379 25l27 -441h-332l27 441l-379 -25v287l379 -25v361l-379 -25v287l379 -25l-27 430h332z" />
    <glyph glyph-name="Identity.249" unicode="&#x2025;" 
d="M1352 778q0 78 53 131t131 53t131 -52q53 -54 53 -132t-53 -131t-131 -53t-131 53t-53 131zM328 778q0 78 53 131t131 53t131 -52q53 -54 53 -132t-53 -131t-131 -53t-131 53t-53 131z" />
    <glyph glyph-name="Identity.250" unicode="&#x2026;" 
d="M1522 778q0 78 54 131t130 53t130 -52q54 -54 54 -132t-54 -131t-130 -53t-130 53t-54 131zM840 778q0 78 53 131t131 53t131 -52q53 -54 53 -132t-53 -131t-131 -53t-131 53t-53 131zM158 778q0 78 54 131t130 53t130 -52q54 -54 54 -132t-54 -131t-130 -53t-130 53
t-54 131z" />
    <glyph glyph-name="Identity.251" unicode="&#x2030;" 
d="M1794 458q0 160 -15 236t-57 74q-72 0 -71 -305q0 -166 17 -238t58 -71q40 0 54 72t14 232zM1167 458q0 160 -15 236t-56 74q-72 0 -72 -305q0 -166 17 -238t59 -71q39 0 53 72t14 232zM1731 930q254 0 260 -467q0 -229 -77 -350t-185 -121q-208 0 -262 306
q-13 76 -13 178t29 207t93 176q65 71 155 71zM827 476q0 102 29 207t93 176q65 71 150 71q163 0 219 -167q46 -136 46 -300q0 -229 -77 -350t-185 -121q-78 0 -134 43t-85 116t-43 147q-14 76 -13 178zM254 1083q0 -165 17 -237t57 -72t55 72q14 72 14 232q0 161 -15 237
t-56 74q-72 0 -72 -306zM57 1096q0 102 29 208t93 176q65 70 150 70t139 -45q88 -74 116 -270q10 -72 10 -152q0 -229 -77 -350t-185 -121q-78 0 -134 43t-85 116t-43 147q-14 76 -13 178zM225 -25l811 1575h156l-809 -1575h-158z" />
    <glyph glyph-name="Identity.252" unicode="&#x2032;" horiz-adv-x="718" 
d="M193 891l43 715h364l-55 -308l-115 -409z" />
    <glyph glyph-name="Identity.253" unicode="&#x2033;" horiz-adv-x="1292" 
d="M766 891l43 715h365l-56 -308l-114 -409zM193 891l43 715h364l-55 -308l-115 -409z" />
    <glyph glyph-name="Identity.254" unicode="&#x203b;" 
d="M870 195q0 63 45 108t109 45t108 -45q46 -45 46 -108t-45 -109t-109 -45q-64 0 -109 45q-45 46 -45 109zM1608 625q-63 0 -109 45q-45 45 -45 108q0 62 45 108t109 46t108 -45q45 -45 45 -109t-45 -108q-45 -45 -108 -45zM440 932q62 0 108 -45t46 -109t-45 -108
q-45 -45 -109 -45t-108 45q-45 45 -45 108q0 62 45 108t108 46zM348 1513l676 -675l676 675l59 -59l-676 -676l676 -676l-59 -59l-676 676l-678 -678l-59 59l678 678l-676 676zM1178 1362q0 -62 -45 -108t-109 -46t-109 45t-45 109t45 108q45 46 109 46t108 -46
q46 -46 46 -108z" />
    <glyph glyph-name="Identity.255" unicode="&#x2103;" 
d="M1529 -29q-306 0 -513 206t-207 578q0 373 214 589t523 217q133 -1 253 -57t204 -142l-199 -227q-116 111 -264 111t-252 -130q-104 -129 -104 -351t97 -350t259 -128t285 133l203 -221q-193 -228 -499 -228zM381 1102q70 0 114 47t44 123t-44 123t-114 47t-113 -47
t-43 -123t43 -123t113 -47zM381 928q-147 0 -247 98q-99 98 -99 246t99 246q98 98 246 98t248 -98t99 -246q0 -148 -99 -246q-100 -98 -247 -98z" />
    <glyph glyph-name="Identity.256" unicode="&#x212b;" 
d="M655 1711q-1 147 99 231t262 84t262 -84t100 -228t-118 -229l462 -1485h-387l-88 352h-456l-89 -352h-374l458 1477q-131 86 -131 234zM1161 1699q0 67 -41 109t-103 41q-63 0 -103 -41q-40 -40 -40 -108t40 -109t102 -41t104 41q41 41 41 108zM862 635h314l-33 133
q-23 82 -63 252t-58 237h-10q-94 -401 -117 -489z" />
    <glyph glyph-name="Identity.257" unicode="&#x2190;" 
d="M1966 655h-1372q123 -90 235 -252l-219 -118q-104 133 -250 266t-288 227q141 94 287 228t251 266l219 -119q-113 -162 -235 -252h1372v-246z" />
    <glyph glyph-name="Identity.258" unicode="&#x2191;" 
d="M901 -164v1372q-90 -123 -252 -235l-119 219q132 104 266 250t228 289q94 -141 227 -287t267 -252l-119 -219q-162 113 -252 235v-1372h-246z" />
    <glyph glyph-name="Identity.259" unicode="&#x2192;" 
d="M82 655v246h1372q-123 90 -235 252l219 119q104 -133 250 -266t288 -228q-141 -94 -287 -227t-251 -266l-219 118q113 162 235 252h-1372z" />
    <glyph glyph-name="Identity.260" unicode="&#x2193;" 
d="M1147 1720v-1372q90 123 252 236l119 -219q-132 -105 -266 -251t-228 -288q-94 142 -227 288t-267 251l119 219q162 -113 252 -236v1372h246z" />
    <glyph glyph-name="Identity.261" unicode="&#x21d2;" 
d="M82 940v246h1145q-84 109 -135 200l211 119q125 -207 319 -405t385 -320q-193 -122 -387 -320t-317 -405l-211 119q51 92 135 201h-1145v246h1354q86 96 170 159q-84 63 -170 160h-1354z" />
    <glyph glyph-name="Identity.262" unicode="&#x21d4;" 
d="M1503 940h-958q-74 -98 -142 -160q68 -61 142 -159h958q74 98 142 159q-68 62 -142 160zM627 1505l213 -119q-45 -98 -115 -200h598q-70 102 -115 200l213 119q103 -209 265 -405t321 -320q-161 -124 -321 -320t-265 -405l-213 119q45 98 115 201h-598q70 -102 115 -201
l-213 -119q-103 209 -265 406t-321 319q160 124 321 320t265 405z" />
    <glyph glyph-name="Identity.263" unicode="&#x2200;" 
d="M803 899l217 -412h8l217 412h-442zM1608 1589l217 -114l-797 -1508h-8l-797 1508l217 114l234 -444h700z" />
    <glyph glyph-name="Identity.264" unicode="&#x2202;" 
d="M950 784q-106 0 -192 -72t-86 -198t70 -194t178 -68q262 0 354 293q-47 123 -132 181t-192 58zM1382 965q0 166 -84 264t-227 98q-178 0 -315 -137l-174 215q129 98 253 137t281 39q242 0 409 -168t167 -465q0 -248 -108 -494q-58 -132 -144 -236t-222 -172
q-136 -67 -303 -66q-260 0 -401 140t-141 374t168 385q168 152 389 151q268 0 438 -196h4q10 63 10 131z" />
    <glyph glyph-name="Identity.265" unicode="&#x2203;" 
d="M379 1540h1286v-1520h-1286v246h1040v393h-1040v246h1040v389h-1040v246z" />
    <glyph glyph-name="Identity.266" unicode="&#x2207;" 
d="M1176 702l184 492h-682l178 -492l154 -448h10zM272 1501h1504v-221l-523 -1303h-458l-523 1303v221z" />
    <glyph glyph-name="Identity.267" unicode="&#x2208;" 
d="M1784 1192h-860q-147 0 -261 -80t-155 -209h1276v-246h-1276q41 -129 155 -209t261 -79h860v-246h-860q-285 0 -483 188t-197 469q0 281 197 469q198 188 483 189h860v-246z" />
    <glyph glyph-name="Identity.268" unicode="&#x220b;" 
d="M1124 1192h-860v246h860q285 0 483 -188q197 -188 197 -470q0 -281 -198 -469t-482 -188h-860v246h860q147 0 261 80t155 208h-1276v246h1276q-41 129 -155 209t-261 80z" />
    <glyph glyph-name="Identity.269" unicode="&#x221a;" 
d="M2048 1802v-102h-850l-659 -1895h-66l-225 568l-139 -193l-58 45l307 430l195 -495l571 1642h924z" />
    <glyph glyph-name="Identity.270" unicode="&#x221d;" 
d="M862 780q-182 195 -364 195q-100 -1 -150 -55q-51 -54 -51 -140t51 -140q50 -54 150 -54q182 0 364 194zM1567 586q55 0 104 18l92 -227q-88 -37 -202 -37q-291 0 -537 254q-244 -254 -537 -254q-170 0 -303 117t-133 323t133 324q133 117 303 117q293 0 537 -254
q246 254 537 254q115 0 202 -37l-92 -228q-49 18 -104 19q-117 1 -205 -51t-174 -144q86 -92 174 -143t205 -51z" />
    <glyph glyph-name="Identity.271" unicode="&#x221e;" 
d="M1550 586q100 0 150 54q51 54 51 140t-51 140q-50 54 -150 55q-179 0 -362 -195q182 -194 362 -194zM862 780q-182 195 -364 195q-100 -1 -150 -55q-51 -54 -51 -140t51 -140q50 -54 150 -54q182 0 364 194zM1561 1221q170 0 303 -117t133 -324q0 -208 -133 -324
t-303 -116q-291 0 -537 254q-244 -254 -537 -254q-170 0 -303 117t-133 323t133 324q133 117 303 117q293 0 537 -254q246 254 537 254z" />
    <glyph glyph-name="Identity.272" unicode="&#x2220;" 
d="M772 307h1053v-246h-1635v9l1336 1343l174 -174l-928 -926v-6z" />
    <glyph glyph-name="Identity.273" unicode="&#x2225;" 
d="M1032 -29l-219 111l641 1282l221 -109zM373 301l643 1284l219 -110l-641 -1282z" />
    <glyph glyph-name="Identity.274" unicode="&#x2227;" 
d="M223 94l797 1508h8l797 -1508l-217 -114l-580 1101h-8l-580 -1101z" />
    <glyph glyph-name="Identity.275" unicode="&#x2228;" 
d="M1825 1466l-797 -1507h-8l-797 1507l217 115l580 -1102h8l580 1102z" />
    <glyph glyph-name="Identity.276" unicode="&#x2229;" 
d="M367 881q0 285 188 483t469 197q281 0 469 -198t188 -482v-861h-245v861q0 184 -118 309t-294 125t-294 -125t-118 -309v-861h-245v861z" />
    <glyph glyph-name="Identity.277" unicode="&#x222a;" 
d="M1681 680q0 -284 -188 -482t-469 -198t-469 198t-188 482v860h245v-860q0 -184 118 -309t294 -125t294 125t118 309v860h245v-860z" />
    <glyph glyph-name="Identity.278" unicode="&#x222b;" 
d="M870 412v796q0 543 414 543q76 0 152 -16l-27 -285q-43 10 -94 10q-84 0 -111 -66t-26 -249v-797q0 -543 -414 -543q-76 0 -152 17l27 284q43 -10 94 -10q84 0 111 67q26 67 26 249z" />
    <glyph glyph-name="Identity.279" unicode="&#x222c;" 
d="M1280 412v796q0 543 414 543q76 0 151 -16l-26 -285q-43 10 -95 10q-84 0 -110 -66t-27 -249v-797q0 -543 -413 -543q-76 0 -152 17l27 284q43 -10 94 -10q85 0 111 67t26 249zM461 412v796q0 543 413 543q76 0 152 -16l-27 -285q-43 10 -94 10q-85 0 -111 -66t-26 -249
v-797q0 -543 -414 -543q-76 0 -151 17l26 284q43 -10 95 -10q84 0 110 67t27 249z" />
    <glyph glyph-name="Identity.280" unicode="&#x2234;" 
d="M1307 332q0 80 57 137t137 57t137 -57q58 -57 58 -137t-58 -137t-137 -57q-80 0 -137 56q-57 58 -57 138zM352 332q0 80 58 137t137 57q80 0 137 -57t57 -137t-57 -137t-137 -57q-79 0 -137 56q-58 58 -58 138zM829 1229q-1 80 57 137t138 57t137 -57t57 -137t-56 -137
q-58 -58 -138 -58t-138 58t-57 137z" />
    <glyph glyph-name="Identity.281" unicode="&#x2235;" 
d="M829 332q-1 80 57 137t138 57t137 -57t57 -137t-56 -137q-58 -57 -138 -57t-138 56q-58 58 -57 138zM1307 1229q0 80 57 137t137 57t137 -57q58 -57 58 -137t-58 -137q-58 -58 -137 -58q-80 0 -137 58t-57 137zM352 1229q0 80 58 137t137 57q80 0 137 -57t57 -137
t-57 -137q-57 -58 -137 -58q-79 0 -137 58t-58 137z" />
    <glyph glyph-name="Identity.282" unicode="&#x223d;" 
d="M1997 779q0 -207 -133 -323t-314 -116q-113 0 -202 37l92 227q50 -18 128 -18t131 53q52 53 52 140t-51 141t-142 55q-92 0 -182 -46t-140 -96t-126 -143q-136 -166 -282 -258t-328 -92t-316 117q-133 117 -133 325t133 323q133 116 314 116q113 0 202 -37l-92 -228
q-50 18 -128 18t-130 -52t-53 -140q0 -88 51 -142t131 -54t146 22q139 45 313 260q136 166 282 259t328 93t316 -116q133 -117 133 -325z" />
    <glyph glyph-name="Identity.283" unicode="&#x2252;" 
d="M1188 174q0 80 57 137t137 57t138 -56q58 -58 57 -138q0 -80 -57 -137q-58 -57 -138 -57t-137 57t-57 137zM307 688h1434v-205h-1434v205zM307 1077h1434v-205h-1434v205zM471 1386q0 80 57 138q58 58 138 57q80 0 137 -57q57 -58 57 -138t-57 -137t-137 -57t-138 57
q-57 57 -57 137z" />
    <glyph glyph-name="Identity.284" unicode="&#x2260;" 
d="M1741 903h-541l-90 -246h631v-245h-721l-125 -346l-231 84l96 262h-453v245h541l90 246h-631v246h721l125 346l231 -84l-96 -262h453v-246z" />
    <glyph glyph-name="Identity.285" unicode="&#x2261;" 
d="M307 442h1434v-225h-1434v225zM307 893h1434v-225h-1434v225zM307 1343h1434v-225h-1434v225z" />
    <glyph glyph-name="Identity.286" unicode="&#x2266;" 
d="M264 113h1520v-226h-1520v226zM264 518h1520v-225h-1520v225zM1741 1751l84 -231l-920 -342v-7l920 -344l-84 -231l-1538 575v7z" />
    <glyph glyph-name="Identity.287" unicode="&#x2267;" 
d="M264 113h1520v-226h-1520v226zM264 518h1520v-225h-1520v225zM307 1751l1538 -573v-7l-1538 -575l-84 231l920 344v7l-920 342z" />
    <glyph glyph-name="Identity.288" unicode="&#x226a;" 
d="M1890 1581l117 -168l-901 -629v-8l901 -629l-117 -167l-1138 796v8zM1178 1581l116 -168l-901 -629v-8l901 -629l-116 -167l-1139 796v8z" />
    <glyph glyph-name="Identity.289" unicode="&#x226b;" 
d="M870 1581l1139 -797v-8l-1139 -796l-116 167l901 629v8l-901 629zM158 1581l1138 -797v-8l-1138 -796l-117 167l901 629v8l-901 629z" />
    <glyph glyph-name="Identity.290" unicode="&#x2282;" 
d="M924 123q-285 0 -483 188t-197 469q0 281 197 469q198 188 483 189h860v-246h-860q-184 0 -310 -118t-125 -294q0 -176 125 -294t310 -117h860v-246h-860z" />
    <glyph glyph-name="Identity.291" unicode="&#x2283;" 
d="M1124 1438q285 0 483 -188q197 -188 197 -470q0 -281 -198 -469t-482 -188h-860v246h860q184 0 310 117q125 118 125 294t-125 294t-310 118h-860v246h860z" />
    <glyph glyph-name="Identity.292" unicode="&#x2286;" 
d="M264 225h1520v-245h-1520v245zM829 1335q-145 0 -242 -91t-97 -228q0 -136 96 -228q98 -92 243 -92h955v-245h-955q-245 -1 -415 163t-170 402t170 402t415 163h955v-246h-955z" />
    <glyph glyph-name="Identity.293" unicode="&#x2287;" 
d="M264 225h1520v-245h-1520v245zM1219 696q145 0 242 91t97 229t-96 228q-98 91 -243 91h-955v246h955q245 0 415 -164q170 -163 170 -401t-170 -402t-415 -163h-955v245h955z" />
    <glyph glyph-name="Identity.294" unicode="&#x22a5;" 
d="M1147 301h719v-246h-1684v246h719v1204h246v-1204z" />
    <glyph glyph-name="Identity.295" unicode="&#x2312;" 
d="M1024 1749q319 0 569 -113t420 -288l-100 -236q-393 358 -889 358t-889 -358l-100 236q170 176 420 288t569 113z" />
    <glyph glyph-name="Identity.296" unicode="&#x2500;" 
d="M0 737v82h2048v-82h-2048z" />
    <glyph glyph-name="Identity.297" unicode="&#x2501;" 
d="M0 655v246h2048v-246h-2048z" />
    <glyph glyph-name="Identity.298" unicode="&#x2502;" 
d="M983 -246v2048h82v-2048h-82z" />
    <glyph glyph-name="Identity.299" unicode="&#x2503;" 
d="M901 -246v2048h246v-2048h-246z" />
    <glyph glyph-name="Identity.300" unicode="&#x250c;" 
d="M2048 737h-983v-983h-82v1065h1065v-82z" />
    <glyph glyph-name="Identity.301" unicode="&#x250f;" 
d="M2048 655h-901v-901h-246v1147h1147v-246z" />
    <glyph glyph-name="Identity.302" unicode="&#x2510;" 
d="M1065 -246h-82v983h-983v82h1065v-1065z" />
    <glyph glyph-name="Identity.303" unicode="&#x2513;" 
d="M1147 -246h-246v901h-901v246h1147v-1147z" />
    <glyph glyph-name="Identity.304" unicode="&#x2514;" 
d="M2048 737h-1065v1065h82v-983h983v-82z" />
    <glyph glyph-name="Identity.305" unicode="&#x2517;" 
d="M901 655v1147h246v-901h901v-246h-1147z" />
    <glyph glyph-name="Identity.306" unicode="&#x2518;" 
d="M1065 737h-1065v82h983v983h82v-1065z" />
    <glyph glyph-name="Identity.307" unicode="&#x251b;" 
d="M0 655v246h901v901h246v-1147h-1147z" />
    <glyph glyph-name="Identity.308" unicode="&#x251c;" 
d="M2048 737h-983v-983h-82v2048h82v-983h983v-82z" />
    <glyph glyph-name="Identity.309" unicode="&#x251d;" 
d="M2048 655h-983v-901h-82v2048h82v-901h983v-246z" />
    <glyph glyph-name="Identity.310" unicode="&#x2520;" 
d="M2048 737h-901v-983h-246v2048h246v-983h901v-82z" />
    <glyph glyph-name="Identity.311" unicode="&#x2523;" 
d="M2048 655h-901v-901h-246v2048h246v-901h901v-246z" />
    <glyph glyph-name="Identity.312" unicode="&#x2524;" 
d="M1065 -246h-82v983h-983v82h983v983h82v-2048z" />
    <glyph glyph-name="Identity.313" unicode="&#x2525;" 
d="M1065 -246h-82v901h-983v246h983v901h82v-2048z" />
    <glyph glyph-name="Identity.314" unicode="&#x2528;" 
d="M1147 -246h-246v983h-901v82h901v983h246v-2048z" />
    <glyph glyph-name="Identity.315" unicode="&#x252b;" 
d="M1147 -246h-246v901h-901v246h901v901h246v-2048z" />
    <glyph glyph-name="Identity.316" unicode="&#x252c;" 
d="M2048 737h-983v-983h-82v983h-983v82h2048v-82z" />
    <glyph glyph-name="Identity.317" unicode="&#x252f;" 
d="M2048 655h-983v-901h-82v901h-983v246h2048v-246z" />
    <glyph glyph-name="Identity.318" unicode="&#x2530;" 
d="M2048 737h-901v-983h-246v983h-901v82h2048v-82z" />
    <glyph glyph-name="Identity.319" unicode="&#x2533;" 
d="M2048 655h-901v-901h-246v901h-901v246h2048v-246z" />
    <glyph glyph-name="Identity.320" unicode="&#x2534;" 
d="M2048 737h-2048v82h983v983h82v-983h983v-82z" />
    <glyph glyph-name="Identity.321" unicode="&#x2537;" 
d="M2048 655h-2048v246h983v901h82v-901h983v-246z" />
    <glyph glyph-name="Identity.322" unicode="&#x2538;" 
d="M2048 737h-2048v82h901v983h246v-983h901v-82z" />
    <glyph glyph-name="Identity.323" unicode="&#x253b;" 
d="M2048 655h-2048v246h901v901h246v-901h901v-246z" />
    <glyph glyph-name="Identity.324" unicode="&#x253c;" 
d="M2048 737h-983v-983h-82v983h-983v82h983v983h82v-983h983v-82z" />
    <glyph glyph-name="Identity.325" unicode="&#x253f;" 
d="M2048 655h-983v-901h-82v901h-983v246h983v901h82v-901h983v-246z" />
    <glyph glyph-name="Identity.326" unicode="&#x2542;" 
d="M2048 737h-901v-983h-246v983h-901v82h901v983h246v-983h901v-82z" />
    <glyph glyph-name="Identity.327" unicode="&#x254b;" 
d="M2048 655h-901v-901h-246v901h-901v246h901v901h246v-901h901v-246z" />
    <glyph glyph-name="Identity.328" unicode="&#x25a0;" 
d="M205 1597h1638v-1638h-1638v1638z" />
    <glyph glyph-name="Identity.329" unicode="&#x25a1;" 
d="M303 1499v-1442h1442v1442h-1442zM205 1597h1638v-1638h-1638v1638z" />
    <glyph glyph-name="Identity.330" unicode="&#x25b2;" 
d="M1024 1692l963 -1667h-1926z" />
    <glyph glyph-name="Identity.331" unicode="&#x25b3;" 
d="M1024 1495l-793 -1372h1586zM1024 1692l963 -1667h-1926z" />
    <glyph glyph-name="Identity.332" unicode="&#x25bc;" 
d="M61 1532h1926l-963 -1667z" />
    <glyph glyph-name="Identity.333" unicode="&#x25bd;" 
d="M1817 1434h-1586l793 -1373zM61 1532h1926l-963 -1667z" />
    <glyph glyph-name="Identity.334" unicode="&#x25c6;" 
d="M1024 1778l999 -1000l-999 -999l-999 999z" />
    <glyph glyph-name="Identity.335" unicode="&#x25c7;" 
d="M1024 1638l-860 -860l860 -860l860 860zM1024 1778l999 -1000l-999 -999l-999 999z" />
    <glyph glyph-name="Identity.336" unicode="&#x25cb;" 
d="M201 778q-1 -340 241 -582t582 -241q340 0 582 242q242 241 242 581t-242 582t-582 242t-582 -242t-241 -582zM1024 -143q-250 0 -463 123q-213 124 -336 336t-123 462t123 463t336 336t463 123t463 -123t336 -336t123 -463t-123 -463t-336 -335t-463 -123z" />
    <glyph glyph-name="Identity.337" unicode="&#x25ce;" 
d="M1540 778q0 213 -151 365q-152 151 -365 151t-365 -152q-151 -152 -151 -364t152 -364t364 -152t364 152t152 364zM424 778q0 250 175 425t425 175t425 -175t175 -425t-175 -425t-425 -175t-425 175t-175 425zM1847 778q0 340 -241 582q-242 242 -582 242t-582 -242
t-242 -582t242 -582t582 -241q340 -1 582 241t241 582zM102 778q0 250 123 463t336 336t463 123t463 -123t336 -336t123 -463t-123 -463t-336 -335t-463 -123q-250 0 -463 123q-213 124 -336 336t-123 462z" />
    <glyph glyph-name="Identity.338" unicode="&#x25cf;" 
d="M1024 -143q-250 0 -463 123q-213 124 -336 336t-123 462t123 463t336 336t463 123t463 -123t336 -336t123 -463t-123 -463t-336 -335t-463 -123z" />
    <glyph glyph-name="Identity.339" unicode="&#x25ef;" 
d="M1915 778q0 369 -261 630t-630 261t-630 -261t-261 -630t261 -630t630 -261t630 261t261 630zM1024 1751q401 0 687 -286t286 -687t-286 -687t-687 -286t-687 286t-286 687t286 687t687 286z" />
    <glyph glyph-name="Identity.340" unicode="&#x2605;" 
d="M1970 995v-14l-575 -418l227 -690l-10 -6l-588 428l-588 -428l-10 6l227 690l-575 418v14h715l225 686h12l225 -686h715z" />
    <glyph glyph-name="Identity.341" unicode="&#x2606;" 
d="M862 897h-287l-260 16v-4l217 -139l238 -170l-94 -274l-101 -250l5 -4l211 174l233 170l233 -170l211 -174l5 4l-101 250l-94 274l238 170l217 139v4l-260 -16h-287l-96 289l-64 246h-4l-66 -246zM793 995l221 686h20l221 -686h713l6 -20l-579 -412l231 -686l-16 -12
l-586 430l-586 -430l-16 12l231 686l-579 412l6 20h713z" />
    <glyph glyph-name="Identity.342" unicode="&#x2640;" 
d="M1270 1188q0 102 -72 174t-174 72t-174 -72t-72 -174t72 -174t174 -72t174 72t72 174zM532 1188q0 205 144 348t348 143q205 0 348 -143q144 -142 144 -330t-104 -320t-265 -173v-140h545v-245h-545v-451h-246v451h-545v245h545v140q-161 41 -265 173t-104 302z" />
    <glyph glyph-name="Identity.343" unicode="&#x2642;" 
d="M469 469q0 -100 73 -173t173 -73t173 73t73 173t-73 173t-173 73t-173 -73t-73 -173zM1206 469q0 -205 -143 -348t-348 -143t-348 142q-143 144 -144 349t143 348t349 144q135 0 243 -66l431 430h-392v246h820v-819h-246v409l-436 -436q71 -121 71 -256z" />
    <glyph glyph-name="Identity.344" unicode="&#x266a;" 
d="M995 1720h52q0 -244 237 -450q264 -228 264 -456t-172 -505h-53q129 270 129 438q0 169 -106 299t-269 166v-1028q1 -154 -111 -251t-264 -97q-76 0 -133 40t-57 112q0 106 113 194t241 88q80 0 129 -26v1476z" />
    <glyph glyph-name="Identity.345" unicode="&#x266d;" 
d="M1204 625q0 168 -133 168q-143 0 -289 -232v-573q43 53 134 145q90 93 144 151t99 151t45 190zM1224 944q136 0 224 -79t88 -186q0 -203 -139 -325t-348 -245q-210 -122 -332 -263h-17v1866h82v-1046q74 130 190 204t252 74z" />
    <glyph glyph-name="Identity.346" unicode="&#x266f;" 
d="M1167 598v412l-303 -45v-412zM1249 -102h-82v434l-303 -45v-449h-82v436l-278 -43v267l278 43v411l-278 -43v267l278 43v430h82v-418l303 45v432h82v-420l277 43v-266l-277 -43v-412l277 43v-266l-277 -43v-446z" />
    <glyph glyph-name="Identity.347" unicode="&#x3001;" 
d="M766 72l-264 -228q-193 236 -434 449l260 223q104 -86 236 -221t202 -223z" />
    <glyph glyph-name="Identity.348" unicode="&#x3002;" 
d="M396 0q71 0 120 49t49 121t-49 121t-120 49t-121 -50t-50 -120t50 -120t121 -50zM396 512q142 0 242 -100t99 -242q0 -142 -99 -242q-100 -100 -242 -100t-242 100t-100 242t100 242t242 100z" />
    <glyph glyph-name="Identity.349" unicode="&#x3003;" 
d="M1354 1264l336 -150l-490 -899l-186 84zM696 1264l336 -150l-489 -899l-187 84z" />
    <glyph glyph-name="Identity.350" unicode="&#x3005;" 
d="M1589 1280l228 -123q-127 -375 -398 -770q141 -88 221 -166l-204 -287q-109 117 -330 255t-438 237l182 250q141 -57 291 -131q141 207 237 426h-528q-197 -381 -418 -592q-129 94 -287 164q215 188 380 494t247 610l330 -74q-47 -143 -115 -305h547z" />
    <glyph glyph-name="Identity.351" unicode="&#x3006;" 
d="M293 41q0 315 -47 555l303 45q6 -61 12 -170l4 -106q78 98 350 452q-229 164 -428 266l230 273q256 -158 413 -262q373 481 449 579l289 -182q-170 -195 -471 -582q260 -184 438 -329l-250 -306q-125 133 -407 349q-441 -582 -598 -826l-301 99q14 86 14 145z" />
    <glyph glyph-name="Identity.352" unicode="&#x3007;" 
d="M1667 778q0 266 -188 454q-189 188 -455 189q-266 0 -454 -188q-188 -189 -189 -455q0 -266 188 -454q189 -188 455 -188t454 188t189 454zM74 778q0 393 278 672q279 279 672 279t672 -279q278 -279 278 -672t-278 -672q-278 -278 -672 -278q-393 0 -672 278
q-278 279 -278 672z" />
    <glyph glyph-name="Identity.353" unicode="&#x3008;" 
d="M1421 778l514 -870l-243 -103l-576 973l576 973l243 -102z" />
    <glyph glyph-name="Identity.354" unicode="&#x3009;" 
d="M356 -195l-243 103l514 870l-514 871l243 102l576 -973z" />
    <glyph glyph-name="Identity.355" unicode="&#x300a;" 
d="M1645 778l358 -911l-205 -62l-379 973l379 973l205 -61zM1274 778l358 -911l-205 -62l-378 973l378 973l205 -61z" />
    <glyph glyph-name="Identity.356" unicode="&#x300b;" 
d="M250 -195l-205 62l358 911l-358 912l205 61l379 -973zM621 -195l-205 62l358 911l-358 912l205 61l378 -973z" />
    <glyph glyph-name="Identity.357" unicode="&#x300c;" 
d="M1300 451v1300h697v-266h-404v-1034h-293z" />
    <glyph glyph-name="Identity.358" unicode="&#x300d;" 
d="M748 1106v-1301h-697v267h404v1034h293z" />
    <glyph glyph-name="Identity.359" unicode="&#x300e;" 
d="M1894 1649h-563v-1147h215v962h348v185zM1997 1362h-348v-963h-420v1352h768v-389z" />
    <glyph glyph-name="Identity.360" unicode="&#x300f;" 
d="M154 -92h563v1147h-215v-963h-348v-184zM51 195h348v962h420v-1352h-768v390z" />
    <glyph glyph-name="Identity.361" unicode="&#x3010;" 
d="M1346 1751h651v-10q-178 -154 -292 -407t-114 -556t114 -556t292 -406v-11h-651v1946z" />
    <glyph glyph-name="Identity.362" unicode="&#x3011;" 
d="M702 1751v-1946h-651v11q178 154 292 406t114 556q0 303 -114 556t-292 407v10h651z" />
    <glyph glyph-name="Identity.363" unicode="&#x3012;" 
d="M338 1022h1372v-246h-553v-756h-266v756h-553v246zM338 1495h1372v-246h-1372v246z" />
    <glyph glyph-name="Identity.364" unicode="&#x3013;" 
d="M1843 573v-614h-1638v614h1638zM1843 1597v-614h-1638v614h1638z" />
    <glyph glyph-name="Identity.365" unicode="&#x3014;" 
d="M1896 -221l-499 319v1360l499 320l115 -193l-344 -221v-1171l344 -222z" />
    <glyph glyph-name="Identity.366" unicode="&#x3015;" 
d="M651 98l-499 -319l-115 192l344 222v1171l-344 221l115 193l499 -320v-1360z" />
    <glyph glyph-name="Identity.367" unicode="&#x301c;" 
d="M1409 442q-293 0 -498 232q-63 70 -123 102t-155 31q-170 0 -293 -229l-268 147q104 195 250 292t317 97q293 0 498 -231q61 -70 121 -102t157 -31q170 0 293 229l268 -148q-104 -195 -250 -292t-317 -97z" />
    <glyph glyph-name="Identity.368" unicode="&#x3041;" 
d="M1780 434q0 -194 -134 -344t-425 -203l-146 230q233 29 331 124q97 95 97 221t-125 187q-121 -307 -336 -481q6 -25 37 -123l-254 -72q-10 31 -16 54q-119 -51 -227 -52q-262 0 -263 267q0 166 115 318t291 241q4 96 12 182h-24q-121 0 -307 14l-9 246q172 -25 316 -24
h49l8 67q8 61 4 117l295 -6q-19 -60 -39 -170q324 16 551 73l2 -249q-209 -37 -588 -60q-2 -18 -5 -53t-5 -51q100 20 217 20h10q13 66 15 84l252 -61q0 -2 -25 -64q152 -55 239 -168t87 -264zM635 229q49 0 119 33q-20 127 -31 277q-152 -123 -152 -244q1 -66 64 -66z
M989 451q98 109 156 237q-82 -6 -168 -26q2 -115 12 -211z" />
    <glyph glyph-name="Identity.369" unicode="&#x3042;" 
d="M1602 532q0 168 -166 246q-154 -375 -412 -590q25 -86 45 -143l-283 -84l-22 70q-158 -70 -291 -70t-216 80q-83 79 -83 257t139 365t355 291q6 119 18 228h-33q-27 0 -377 14l-8 281q201 -29 396 -29h49l8 82q8 84 6 135l317 -8q-35 -120 -47 -203q356 12 674 88l2 -280
q-299 -55 -715 -72l-12 -148q135 31 283 31h12q12 70 16 115l297 -70l-34 -94q176 -62 281 -196t106 -310q0 -229 -142 -404q-74 -91 -209 -157t-319 -92l-162 256q396 44 500 283q27 62 27 128zM543 260q70 0 159 47q-27 162 -36 350q-92 -71 -148 -157t-55 -154
q0 -86 80 -86zM956 510q131 145 205 313q-111 -6 -223 -37q2 -149 18 -276z" />
    <glyph glyph-name="Identity.370" unicode="&#x3043;" 
d="M1501 1163q129 -152 220 -425t106 -478l-301 -115q-19 211 -70 407q-96 369 -239 517zM664 979q0 -305 10 -395q33 -330 135 -330q88 0 156 336l227 -266q-84 -224 -171 -322t-227 -98t-256 143t-153 481q-20 195 -20 398t-17 274l336 -2q-20 -129 -20 -219z" />
    <glyph glyph-name="Identity.371" unicode="&#x3044;" 
d="M1569 1440q141 -166 253 -495t124 -564l-326 -125q-29 295 -117 601t-248 480zM549 1132q0 -464 73 -669q40 -115 121 -115q61 0 113 124q51 124 82 267l248 -303q-104 -264 -208 -375t-241 -110q-193 0 -323 182t-172 578q-23 211 -23 445t-18 327l377 -4
q-29 -151 -29 -347z" />
    <glyph glyph-name="Identity.372" unicode="&#x3045;" 
d="M688 1364q344 -66 799 -78l-43 -268q-500 31 -797 86zM1327 514q0 74 -54 124t-165 50q-182 0 -434 -86q-90 -29 -164 -63l-82 309q92 6 137 15t143 29t206 40q107 18 229 18q227 0 359 -116t132 -322q0 -260 -214 -437t-621 -237l-158 277q338 39 512 132t174 267z" />
    <glyph glyph-name="Identity.373" unicode="&#x3046;" 
d="M592 1675q174 -37 468 -63t472 -27l-49 -301q-627 43 -938 96zM1358 668q0 90 -68 152t-196 63q-190 0 -514 -99q-35 -10 -120 -42t-91 -33l-90 348q109 7 179 23t128 28t82 17q25 5 81 17q197 40 388 40q259 0 415 -140t156 -387q0 -317 -271 -525t-722 -265l-176 307
q819 88 819 496z" />
    <glyph glyph-name="Identity.374" unicode="&#x3047;" 
d="M977 242q-31 0 -110 -85t-261 -315l-266 183q35 27 111 96q397 373 532 536q-225 -15 -298 -20q-72 -6 -183 -27l-25 303q76 -8 374 0q297 7 375 17t136 26l151 -172q-57 -39 -120 -90q-186 -158 -242 -223q45 -8 83 -35t64 -108q9 -23 41 -129q23 -57 103 -58
q158 0 325 33l-16 -289q-121 -23 -305 -23t-249 37q-65 36 -93 105q-12 29 -29 87q-16 58 -16 61q-29 90 -82 90zM721 1356q209 -49 723 -84l-37 -260q-432 37 -727 88z" />
    <glyph glyph-name="Identity.375" unicode="&#x3048;" 
d="M1485 213q217 0 405 33l-20 -322q-156 -26 -362 -26t-290 39t-122 135q-20 51 -56 188q-29 92 -100 92q-39 0 -121 -86q-143 -152 -334 -393l-288 201q86 70 161 145q477 477 631 645q-139 -2 -323 -18t-289 -37l-29 338q94 -8 198 -8t431 14q326 14 418 47l178 -201
q-135 -96 -279 -227q-143 -131 -168 -158q33 0 78 -22q68 -33 105 -133q10 -27 26 -82t25 -78q25 -86 125 -86zM643 1679q381 -63 842 -94l-39 -287q-436 33 -850 97z" />
    <glyph glyph-name="Identity.376" unicode="&#x3049;" 
d="M731 -152q-90 0 -191 43t-178 126q-76 83 -76 188t107 217q106 112 279 188v195q-25 -2 -115 -2t-213 12l-4 283q204 -27 332 -17v66q0 106 -10 174h307q-14 -94 -19 -176l-2 -43q144 18 277 51l4 -272q-117 -27 -291 -52q-2 -45 -2 -133q147 31 285 31q217 0 355 -111
q138 -110 138 -284t-102 -293t-328 -162q-49 -10 -194 -22l-95 288q127 1 210 13t149 57t65 113q0 158 -207 157q-150 0 -272 -30l6 -316q0 -289 -215 -289zM637 141q45 0 45 62q0 23 -4 149q-121 -74 -121 -143q1 -23 27 -45t53 -23zM1853 963l-141 -240q-53 43 -193 124
t-227 120l129 231q266 -124 432 -235z" />
    <glyph glyph-name="Identity.377" unicode="&#x304a;" 
d="M1339 1217l134 239q332 -156 518 -280l-146 -250q-68 52 -236 148t-270 143zM887 948v-78q195 43 356 43q250 1 418 -123t168 -341q0 -406 -457 -521q-106 -23 -274 -34l-113 317q173 0 275 17q102 16 176 74t74 148t-73 142q-73 51 -221 51t-323 -45q8 -307 8 -356
q0 -201 -63 -279t-185 -78q-176 0 -342 123t-166 289q0 133 130 265t329 218q-2 53 -2 158v117q-33 -2 -161 -2t-222 10l-6 295q123 -14 239 -14t150 2v129q0 109 -14 198h336q-10 -66 -21 -196l-6 -105q197 27 350 70l6 -305q-145 -33 -364 -58q-2 -43 -2 -131zM553 221
q61 0 61 67q0 36 -4 204q-162 -92 -161 -183q1 -33 37 -61t67 -27z" />
    <glyph glyph-name="Identity.378" unicode="&#x304b;" 
d="M1376 1325l297 123q87 -129 193 -370t155 -402l-313 -146q-40 194 -134 428t-198 367zM1032 1270q387 0 387 -414q0 -508 -112 -743q-94 -197 -355 -197q-121 0 -245 29l-54 323q156 -43 252 -43t133 78q76 150 76 520q0 104 -42 135t-146 31q-20 0 -95 -4
q-190 -733 -405 -1081l-322 129q236 319 400 915q-27 -4 -153 -20t-224 -35l-27 330q121 -8 469 14q45 246 39 424l365 -39q-15 -70 -35 -166t-43 -192q80 6 137 6z" />
    <glyph glyph-name="Identity.379" unicode="&#x304c;" 
d="M1761 1417l-73 -31q88 -139 186 -360t141 -369l-313 -145q-41 193 -134 422t-198 362l178 74q-94 182 -139 250l193 78q65 -97 159 -281zM1026 1251q387 0 387 -413q0 -508 -113 -744q-94 -197 -354 -196q-121 0 -246 28l-53 324q156 -43 252 -43t133 78q76 150 76 520
q0 104 -42 135t-146 31q-20 0 -95 -4q-190 -733 -405 -1082l-322 129q236 319 400 916q-27 -4 -153 -20t-224 -36l-27 330q127 -9 469 15q45 245 39 423l365 -38q-15 -70 -35 -166t-43 -193q80 6 137 6zM2015 1518l-192 -82q-86 176 -162 282l192 78q84 -122 162 -278z" />
    <glyph glyph-name="Identity.380" unicode="&#x304d;" 
d="M1735 1196l57 -276q-100 -37 -295 -76q98 -203 160 -322l-144 -184q-209 43 -469 74l27 233q119 -10 193 -16q-18 43 -70 164q-403 -43 -883 -11l-12 281q428 -41 784 -8l-65 153q-342 -25 -688 11l-17 278q326 -37 584 -27q-35 72 -92 160l350 66q20 -94 55 -191
q213 37 379 92l51 -272q-174 -51 -327 -80q8 -18 22 -52t17 -38l24 -57q193 39 359 98zM625 371q0 -189 318 -189t558 45l-10 -313q-231 -41 -537 -41q-306 1 -471 107q-166 106 -166 323q1 125 52 287l303 -27q-47 -117 -47 -192z" />
    <glyph glyph-name="Identity.381" unicode="&#x304e;" 
d="M1655 1710l176 80q96 -133 170 -266l-180 -86q-76 151 -166 272zM1421 1618l178 74q94 -139 160 -275l-182 -80q-80 172 -156 281zM1657 1174l57 -277q-100 -37 -295 -76q98 -203 160 -321l-143 -185q-207 43 -469 74l26 234q119 -10 193 -17q-18 43 -70 164
q-403 -43 -883 -10l-12 280q428 -41 785 -8l-66 154q-342 -25 -688 10l-16 279q326 -37 583 -27q-35 72 -92 160l350 65q14 -63 56 -192q141 23 292 71l52 -272q-123 -37 -242 -57q8 -19 22 -53t17 -37l24 -58q193 40 359 99zM547 348q0 -188 318 -188t558 45l-10 -314
q-231 -41 -537 -41t-470 106q-166 106 -166 325q0 124 51 286l303 -26q-47 -117 -47 -193z" />
    <glyph glyph-name="Identity.382" unicode="&#x304f;" 
d="M1247 1706l287 -254q-509 -379 -709 -553q-75 -65 -73 -95t52 -74t345 -286t414 -354l-287 -266q-66 74 -192 204t-595 531q-153 135 -147 239t168 238q630 511 737 670z" />
    <glyph glyph-name="Identity.383" unicode="&#x3050;" 
d="M1212 1706l287 -254q-512 -381 -708 -553q-74 -65 -73 -95q2 -30 52 -74t344 -286t414 -354l-287 -266q-66 74 -192 204t-594 531q-154 135 -148 239t168 238q630 511 737 670zM1612 1296q53 -78 170 -307l-197 -84q-135 258 -172 309zM1360 1196q55 -78 170 -307
l-201 -84q-45 90 -80 162t-84 151z" />
    <glyph glyph-name="Identity.384" unicode="&#x3051;" 
d="M1593 858q0 -199 -15 -330q-35 -310 -198 -490q-90 -101 -233 -198l-283 223q170 76 260 185t128 244t38 368v78q-72 -2 -159 -2t-357 10v311q152 -20 258 -20t254 4q0 284 -33 399h355q-15 -88 -15 -383q178 13 289 31l-2 -319q-98 -8 -287 -19v-92zM170 631
q0 432 61 811q11 57 15 196l362 -34q-77 -212 -127 -620q-29 -237 -2 -372l90 193l150 -96q-80 -238 -141 -521q-14 -57 -14 -94t3 -102l-274 -27q-43 113 -83 304t-40 362z" />
    <glyph glyph-name="Identity.385" unicode="&#x3052;" 
d="M1761 1679l162 52q63 -137 109 -289l-162 -51q-66 198 -109 288zM1530 821q0 -199 -16 -329t-61 -260q-46 -130 -136 -231t-234 -198l-282 224q170 76 260 182q90 111 128 246t38 368v54q-168 -5 -496 8v311q152 -20 253 -20t241 4q-8 299 -35 399h354q-14 -82 -14 -385
q168 12 309 33l-2 -320q-197 -14 -307 -20v-66zM127 594q0 408 61 786q11 58 15 197l362 -35q-37 -102 -55 -184q-121 -549 -74 -783l90 193l150 -96q-80 -238 -141 -520q-15 -56 -15 -94t4 -103l-274 -27q-43 113 -83 304t-40 362zM1812 1374l-163 -53q-74 236 -103 293
l162 49q65 -142 104 -289z" />
    <glyph glyph-name="Identity.386" unicode="&#x3053;" 
d="M1001 238q408 0 723 79l2 -348q-305 -67 -691 -67q-744 1 -744 458q0 98 39 299l323 -28q-31 -131 -30 -193q0 -92 91 -146t287 -54zM1028 1163q-289 0 -596 23v327q227 -25 559 -25t613 30v-330q-287 -25 -576 -25z" />
    <glyph glyph-name="Identity.387" unicode="&#x3054;" 
d="M1671 1720l193 78q84 -123 161 -278l-192 -82q-86 176 -162 282zM909 1468q299 0 588 23q-43 84 -78 131l193 78q66 -96 160 -281l-195 -82l-23 45v-215q-541 -47 -1171 -2v328q227 -25 526 -25zM573 418q-1 -92 91 -146t288 -55q408 0 723 80l2 -348q-305 -68 -691 -68
q-744 0 -744 459q0 98 39 299l323 -29q-31 -131 -31 -192z" />
    <glyph glyph-name="Identity.388" unicode="&#x3055;" 
d="M1292 752q-10 10 -151 309q-371 -37 -852 2l-10 313q399 -51 733 -24l-31 67q-53 119 -109 207l349 68q27 -94 108 -297q180 34 389 102l58 -307q-170 -49 -324 -80q113 -246 256 -491l-170 -185q-252 51 -485 80l26 252q143 -14 213 -16zM961 195q298 0 563 59l-6 -324
q-266 -51 -571 -51t-471 116q-165 116 -165 339q1 125 58 346l319 -25q-55 -152 -55 -249q-1 -97 67 -154t261 -57z" />
    <glyph glyph-name="Identity.389" unicode="&#x3056;" 
d="M1671 1720l193 78q84 -123 161 -278l-192 -82q-86 176 -162 282zM1249 735q-6 6 -151 309q-371 -37 -852 3l-10 313q399 -51 733 -25l-31 68q-53 119 -109 207l349 67q27 -94 108 -297q127 25 242 58q-70 131 -111 190l193 78q66 -96 159 -281l-77 -32l41 -217
q-170 -49 -324 -80q113 -246 256 -492l-170 -184q-252 51 -485 80l26 252q143 -14 213 -17zM590 390q0 -98 68 -154t238 -58q170 0 258 8t135 17q48 8 102 15t90 20l-6 -324q-266 -51 -571 -51t-471 115q-165 116 -165 339q1 126 58 347l319 -25q-55 -151 -55 -249z" />
    <glyph glyph-name="Identity.390" unicode="&#x3057;" 
d="M743 453q0 -256 250 -256q410 0 676 411l223 -274q-108 -168 -317 -308q-111 -75 -263 -120t-321 -45q-274 0 -425 128t-150 386l18 952q0 172 -31 311l396 -4q-25 -160 -41 -490t-15 -691z" />
    <glyph glyph-name="Identity.391" unicode="&#x3058;" 
d="M958 186q410 0 676 412l224 -274q-107 -165 -318 -309q-112 -75 -264 -119t-320 -46q-274 0 -425 128t-150 387l18 952q1 174 -30 311l395 -4q-24 -160 -40 -490t-15 -692q0 -256 249 -256zM1548 1583q127 -176 199 -319l-213 -103q-96 188 -197 326zM1268 1466
q117 -176 192 -329l-219 -95q-98 211 -186 336z" />
    <glyph glyph-name="Identity.392" unicode="&#x3059;" 
d="M918 274q-129 0 -245 104t-116 284t125 288t307 109q35 0 51 -2l-2 102q-375 -4 -852 -29l-8 295q129 -2 856 11l-2 22q-12 154 -22 203h354q-8 -51 -16 -201v-22l567 2l-4 -291q-180 8 -568 12q2 -96 3 -282q80 -123 79 -293q0 -213 -146 -419q-75 -105 -211 -193
t-318 -138l-261 262q319 63 465 178q-12 -2 -36 -2zM852 675q0 -58 40 -94t93 -36t88 48t19 155q-38 53 -100 53t-101 -34t-39 -92z" />
    <glyph glyph-name="Identity.393" unicode="&#x305a;" 
d="M1366 553q0 -210 -146 -419q-75 -105 -211 -193t-319 -138l-260 263q319 63 465 178q-12 -2 -37 -2q-129 0 -245 104q-115 104 -115 284t125 288q125 109 307 108q35 0 51 -2l-2 102q-375 -4 -852 -28l-8 295q129 -2 856 10l-2 22q-12 154 -23 203h355q-8 -51 -17 -201
v-22l197 2q-66 131 -123 217l201 82q78 -115 137 -238l-152 -61h307l-4 -291q-180 8 -567 12q2 -96 2 -282q80 -123 80 -293zM933 768q-62 0 -101 -34t-39 -92t40 -94t93 -36t88 48t18 155q-37 53 -99 53zM1991 1532l-203 -84q-74 147 -139 238l202 81q95 -145 140 -235z
" />
    <glyph glyph-name="Identity.394" unicode="&#x305b;" 
d="M1208 696q49 0 54 41q8 72 12 197q-281 -25 -498 -47q-7 -469 9 -551q7 -37 42 -63q35 -25 91 -31t165 -6q317 0 609 55l-13 -338q-274 -33 -528 -33t-377 22q-124 22 -192 83t-88 143t-24 200t-3 486l-92 -10q-72 -8 -266 -39l-31 311q111 0 276 14l113 11v162
q0 117 -18 253h346q-15 -109 -15 -216t-2 -169q416 39 500 46v194q0 96 -16 205h329q-10 -47 -14 -191l-4 -184l113 8q188 14 215 17v-299q-53 2 -336 -11q-9 -289 -27 -384t-60 -125q-42 -29 -142 -29t-314 33l6 268q131 -23 180 -23z" />
    <glyph glyph-name="Identity.395" unicode="&#x305c;" 
d="M1759 1595l162 52q61 -133 104 -277l-161 -51q-62 188 -105 276zM1862 932q-6 0 -336 -10q-8 -288 -26 -384t-61 -126t-143 -29q-100 0 -313 33l6 268q131 -22 180 -22t54 40q8 72 12 197q-281 -25 -498 -47q-7 -469 9 -551q7 -37 42 -63q34 -26 90 -31q56 -6 166 -6
q317 0 609 55l-13 -338q-274 -33 -528 -33t-377 22t-191 83t-89 143q-19 82 -23 200t-4 486l-92 -10q-72 -8 -266 -39l-31 311q111 0 276 15l113 10v162q0 117 -18 254h346q-14 -108 -14 -216t-3 -169q418 37 500 45v194q0 96 -16 205h329q-2 -18 -6 -59l160 51
q63 -137 100 -277l-164 -53q-74 227 -96 277q-2 -23 -8 -129l-4 -185l113 8q188 14 215 17v-299z" />
    <glyph glyph-name="Identity.396" unicode="&#x305d;" 
d="M678 1575q92 0 371 15t381 46l192 -227q-135 -86 -188 -131q-76 -59 -216 -173t-198 -159q440 43 792 43l3 -289q-344 24 -504 2t-248 -102t-88 -190q0 -184 285 -213q170 -16 317 -4l-64 -324q-409 -17 -631 105t-223 382q0 162 97 285q-219 -16 -551 -76l-29 299
q18 2 359 41q188 115 516 412q-20 -2 -179 -12t-368 -33l-15 311q97 -8 189 -8z" />
    <glyph glyph-name="Identity.397" unicode="&#x305e;" 
d="M616 1575q92 0 372 15q279 15 380 46l193 -227q-135 -86 -200 -138t-205 -166t-198 -159q440 43 793 43l2 -289q-343 24 -503 2t-248 -102t-89 -190q0 -184 285 -213q170 -16 318 -4l-64 -324q-408 -17 -631 105t-223 382q0 162 96 285q-219 -16 -551 -76l-28 299
q18 2 358 41q188 115 516 412q-20 -2 -177 -12t-370 -33l-14 311q96 -8 188 -8zM1769 1407q86 -117 142 -227l-180 -82q-68 137 -138 229zM1538 1309q66 -98 131 -232l-182 -80q-63 141 -127 238z" />
    <glyph glyph-name="Identity.398" unicode="&#x305f;" 
d="M1476 213q154 0 406 43l-12 -313q-233 -29 -424 -29q-260 0 -396 89t-137 247q0 119 37 289l293 -27q-27 -98 -27 -164t53 -100t207 -35zM426 1061q-90 0 -229 8l-9 305q146 -16 232 -16t192 4q35 166 19 309l375 -29q-10 -41 -48 -208l-8 -35q160 24 312 61v-307
q-182 -43 -377 -63q-55 -229 -62 -256q-145 -555 -323 -945l-342 115q86 142 191 416t153 452t49 191q-35 -2 -125 -2zM1480 1053q182 0 365 -19l-6 -295q-217 27 -397 27t-357 -23v287q213 23 395 23z" />
    <glyph glyph-name="Identity.399" unicode="&#x3060;" 
d="M1155 328q0 -66 52 -101q113 -76 614 9l-13 -314q-233 -29 -424 -28q-260 0 -396 89t-136 246q0 119 37 289l293 -26q-27 -98 -27 -164zM364 1040q-90 0 -229 9l-8 305q197 -21 424 -13q10 47 12 82q16 139 6 228l375 -29q-10 -41 -47 -209l-8 -35q159 25 311 62v-307
q-182 -43 -377 -64q-55 -229 -61 -256q-145 -555 -324 -944l-342 115q86 143 192 416q104 274 152 452t49 190q-35 -2 -125 -2zM1382 746q-180 0 -358 -23v287q382 41 760 4l-6 -295q-216 27 -396 27zM1735 1290l-195 -82q-113 219 -158 285l193 78q66 -97 160 -281z
M1989 1391l-193 -82q-86 176 -162 282l193 78q84 -122 162 -278z" />
    <glyph glyph-name="Identity.400" unicode="&#x3061;" 
d="M1798 467q0 -344 -298 -485t-824 -84l-88 317q352 -61 600 -12q127 25 202 91q74 66 74 156q0 91 -71 148t-221 57t-291 -61t-226 -174q-25 -33 -53 -86l-291 102q127 246 228 660q-229 8 -328 18v303q215 -35 385 -41q4 16 14 100t4 181l347 -15q-10 -35 -54 -227
l-6 -31q381 21 727 95l6 -293q-428 -68 -796 -84q-37 -160 -72 -283q221 101 469 101q247 0 405 -125t158 -328z" />
    <glyph glyph-name="Identity.401" unicode="&#x3062;" 
d="M1669 1716l193 78q84 -123 161 -278l-192 -82q-86 176 -162 282zM1417 1618l193 78q66 -96 159 -281l-194 -82q-113 219 -158 285zM1153 897q248 0 406 -125t157 -328q0 -344 -298 -485t-824 -84l-88 318q350 -60 600 -13q127 24 202 90q74 66 74 157t-71 148t-221 57
t-291 -60q-141 -62 -226 -175q-25 -33 -53 -86l-291 103q125 238 224 641q-209 4 -324 16v303q211 -35 383 -41q8 67 17 135t3 166l347 -14q-10 -35 -54 -227l-12 -54q372 21 696 91l7 -293q-406 -63 -764 -80q-25 -104 -68 -260q221 100 469 100z" />
    <glyph glyph-name="Identity.402" unicode="&#x3063;" 
d="M1243 1108q256 0 408 -141t151 -385q0 -281 -244 -463t-747 -213l-131 303q369 10 582 105t213 274q0 104 -72 169t-191 64q-244 0 -806 -243l-125 319q125 22 233 56t134 41q26 6 86 24t100 28q266 62 409 62z" />
    <glyph glyph-name="Identity.403" unicode="&#x3064;" 
d="M1229 1403q297 0 491 -164t193 -451q0 -342 -308 -562t-870 -246l-143 327q438 8 702 132t265 356q1 139 -89 225t-256 86q-313 0 -978 -299l-138 344q123 20 266 64q142 45 185 57t124 36t253 59q173 36 303 36z" />
    <glyph glyph-name="Identity.404" unicode="&#x3065;" 
d="M1188 1376q296 0 490 -164t194 -450q0 -342 -308 -562t-870 -247l-143 328q438 8 702 132t265 355q0 139 -90 225t-254 86q-313 0 -979 -299l-138 344q107 17 258 63q150 45 193 57t130 39q87 26 251 59q164 34 299 34zM1843 1767q84 -123 162 -278l-193 -82
q-86 176 -161 283zM1591 1669q66 -96 160 -280l-195 -82q-113 219 -157 284z" />
    <glyph glyph-name="Identity.405" unicode="&#x3066;" 
d="M1012 684q0 -211 172 -315t458 -121l-114 -342q-360 29 -600 216t-240 496q0 188 78 346t178 246q-502 -53 -774 -112l-31 334q145 4 191 8q1037 91 1476 110l2 -315q-295 -6 -389 -25q-167 -36 -287 -192t-120 -334z" />
    <glyph glyph-name="Identity.406" unicode="&#x3067;" 
d="M1012 684q0 -211 172 -315t458 -121l-114 -342q-360 29 -600 216t-240 496q0 188 78 346t178 246q-502 -53 -774 -112l-31 334q145 4 191 8q1037 91 1476 110l2 -315q-295 -6 -389 -25q-167 -36 -287 -192t-120 -334zM1757 1163q96 -133 170 -266l-180 -86
q-76 152 -166 272zM1526 1065q94 -139 160 -274l-183 -80q-80 172 -155 280z" />
    <glyph glyph-name="Identity.407" unicode="&#x3068;" 
d="M1036 231q322 0 670 78l-4 -354q-307 -51 -658 -51q-739 0 -739 487q0 289 330 539q-125 231 -279 594l310 125q88 -248 243 -541q80 47 216 121t228 127t158 106l170 -284q-101 -60 -265 -141q-381 -186 -498 -265q-270 -176 -271 -344q0 -197 389 -197z" />
    <glyph glyph-name="Identity.408" unicode="&#x3069;" 
d="M1657 1679l192 78q84 -123 162 -278l-192 -82q-86 176 -162 282zM1405 1581l192 78q66 -96 160 -281l-194 -82q-113 219 -158 285zM1004 -129q-739 0 -740 487q0 289 330 539q-125 231 -279 594l310 125q88 -248 243 -541q76 45 198 112t204 115t149 101l154 -289
q-91 -55 -323 -170t-373 -205q-270 -176 -271 -344q0 -197 389 -196q322 0 670 77l-4 -354q-307 -51 -657 -51z" />
    <glyph glyph-name="Identity.409" unicode="&#x306a;" 
d="M1075 -135q-209 0 -343 95t-134 261t124 274t349 107q55 0 107 -6q-16 347 -23 426h309q-9 -137 11 -496q233 -90 419 -264l-161 -264q-150 141 -246 207q-10 -340 -412 -340zM1188 330v10q-76 14 -144 14t-111 -28q-44 -28 -44 -73q0 -46 39 -77q40 -31 114 -31
q146 0 146 185zM399 1075q-90 0 -215 8l-22 283q132 -14 246 -14t194 6q45 174 51 332l336 -33q-29 -125 -65 -258q145 28 247 59l9 -282q-154 -41 -344 -70q-72 -215 -190 -456t-240 -417l-297 150q236 293 403 694q-23 -2 -113 -2zM1954 1143l-174 -258q-88 69 -240 157
t-260 136l158 243q112 -49 274 -136t242 -142z" />
    <glyph glyph-name="Identity.410" unicode="&#x306b;" 
d="M555 23q0 -59 2 -93l-283 -18q-82 274 -81 668q0 260 51 607t53 421l342 -29q-53 -129 -103 -468q-51 -339 -51 -420t2 -89q14 29 40 78t38 78l150 -117q-160 -481 -160 -618zM1098 408q0 -68 61 -97t189 -28q246 0 512 53l6 -332q-211 -39 -503 -39t-427 92t-135 256
q0 117 37 279l280 -25q-20 -91 -20 -159zM909 1456q215 -22 461 -20t432 22v-317q-463 -35 -891 0z" />
    <glyph glyph-name="Identity.411" unicode="&#x306c;" 
d="M1327 -72q-170 0 -270 82q-101 82 -101 222t102 246q102 105 257 106q113 0 223 -33q12 80 12 164q0 191 -91 291t-247 112q-43 -229 -97 -399q-53 -170 -159 -344t-250 -294t-284 -120t-235 99t-95 280q0 328 191 580q33 41 51 63l-43 121q-72 209 -90 254l288 123
q23 -133 74 -293q174 121 383 168q14 132 0 289l338 -9q-12 -66 -27 -194l-6 -64q271 -20 439 -198t168 -457q0 -174 -33 -317q108 -82 198 -191l-182 -231q-96 115 -129 147q-137 -203 -385 -203zM903 1075q-133 -49 -241 -149q60 -127 120 -244q79 184 121 393zM444 285
q59 0 158 114q-63 96 -145 269q-82 -154 -82 -271q0 -47 17 -79t52 -33zM1314 203q89 0 152 116q-76 31 -130 31t-83 -22t-28 -52q0 -73 89 -73z" />
    <glyph glyph-name="Identity.412" unicode="&#x306d;" 
d="M776 614q0 -472 31 -720h-336q6 78 8 228t6 298q-23 -33 -103 -152t-112 -162l-190 271q252 311 426 561l6 109q-121 -14 -354 -46l-31 314q234 -5 405 24q15 235 -4 334l357 -10q-20 -92 -47 -289l77 -102q-2 -4 -77 -111q293 242 522 242t358 -168t129 -459
q0 -178 -20 -315q100 -72 201 -182l-158 -254q-49 61 -131 143q-123 -231 -406 -231q-193 0 -307 89q-114 90 -115 250q0 160 117 255t311 96q104 0 197 -25q8 76 8 208t-62 222q-62 92 -171 92q-227 0 -531 -348q-4 -115 -4 -162zM1315 213q104 0 164 133q-83 37 -153 37
q-148 0 -148 -80q0 -90 137 -90z" />
    <glyph glyph-name="Identity.413" unicode="&#x306e;" 
d="M1575 738q0 196 -93 328t-268 173q-114 -716 -350 -1026q-137 -180 -317 -180t-308 179t-128 428t125 454q125 204 346 326t487 122q381 0 612 -232t231 -572t-196 -559q-196 -218 -583 -281l-187 290q98 12 199 37q199 49 315 183t115 330zM430 684q0 -127 38 -198
q38 -70 95 -70t107 87q49 87 109 277t102 453q-211 -57 -331 -221t-120 -328z" />
    <glyph glyph-name="Identity.414" unicode="&#x306f;" 
d="M1188 -100q-217 0 -345 92t-128 261t128 270t341 102q37 0 102 -4q-12 207 -14 358q-39 -2 -168 -2t-309 12l-2 293q178 -18 308 -18t169 2l-4 207q0 53 -17 139h350q-11 -73 -18 -326q139 14 295 45v-305q-168 -23 -297 -33q2 -92 20 -448q193 -80 390 -262l-166 -258
q-117 111 -217 184q-43 -309 -418 -309zM1296 354v15q-68 18 -138 18t-114 -27q-43 -27 -43 -73q0 -96 158 -97q72 0 105 40q32 40 32 124zM535 4q0 -59 2 -92l-277 -18q-84 268 -84 614t80 876q21 154 23 230l337 -29q-57 -139 -103 -492t-46 -437t2 -91q14 33 39 83t37 75
l149 -119q-159 -470 -159 -600z" />
    <glyph glyph-name="Identity.415" unicode="&#x3070;" 
d="M1126 -125q-217 0 -345 92t-128 261q0 168 128 270t341 102q37 0 103 -4q-12 207 -15 358q-40 -2 -168 -2t-309 13l-2 292q179 -18 309 -18t168 2l-4 207q0 53 -16 139h350q-11 -73 -18 -325q139 14 295 45v-306q-168 -23 -297 -32q2 -92 20 -449q193 -80 389 -262
l-166 -258q-117 111 -217 184q-43 -309 -418 -309zM1235 330v14q-69 18 -139 18t-113 -26t-43 -74q0 -96 158 -96q72 0 104 40t33 124zM473 -20q0 -59 2 -93l-276 -18q-84 268 -84 614t80 877q20 153 22 229l338 -28q-56 -137 -110 -545q-54 -407 -37 -475q14 33 38 83
l37 74l150 -118q-160 -473 -160 -600zM1806 1407l-164 -53q-72 223 -98 280l162 49q63 -137 100 -276zM2025 1475l-161 -52q-61 188 -105 277l162 51q61 -133 104 -276z" />
    <glyph glyph-name="Identity.416" unicode="&#x3071;" 
d="M1802 1784q94 0 160 -66t66 -160t-66 -158q-66 -65 -160 -65t-158 65t-65 159q1 93 65 159t158 66zM1802 1473q37 1 63 25q25 24 25 62t-26 62t-62 25q-38 0 -62 -26q-24 -27 -24 -63t24 -60t62 -25zM1126 -125q-217 0 -345 92t-128 261q0 168 128 270t341 102
q37 0 103 -4q-12 207 -15 358q-40 -2 -168 -2t-309 13l-2 292q179 -18 309 -18t168 2l-4 207q0 53 -16 139h350q-11 -73 -18 -325q139 14 295 45v-306q-168 -23 -297 -32q2 -92 20 -449q193 -80 389 -262l-166 -258q-117 111 -217 184q-43 -309 -418 -309zM1235 330v14
q-69 18 -139 18t-113 -26t-43 -74q0 -96 158 -96q72 0 104 40t33 124zM473 -20q0 -59 2 -93l-276 -18q-84 268 -84 614t80 877q20 153 22 229l338 -28q-56 -137 -110 -545q-54 -407 -37 -475q14 33 38 83l37 74l150 -118q-160 -473 -160 -600z" />
    <glyph glyph-name="Identity.417" unicode="&#x3072;" 
d="M852 -133q-264 0 -428 158t-164 424q0 203 83 411t210 357q-157 -15 -344 -64l-43 315q172 0 447 46q274 46 378 79l92 -270q-61 -25 -98 -49q-137 -111 -273 -338t-137 -444q0 -140 82 -216t209 -75q190 0 316 144q126 145 156 409t-56 637q-8 20 -22 58t-19 48l297 92
q119 -517 438 -841l-227 -244q-74 98 -147 215q4 -349 -175 -590q-88 -121 -236 -191t-339 -71z" />
    <glyph glyph-name="Identity.418" unicode="&#x3073;" 
d="M524 459q0 -139 82 -215t209 -76q190 0 315 144t156 408t-55 638q-8 20 -23 58q-14 38 -18 48l297 92q119 -518 438 -841l-227 -244q-74 98 -148 215q4 -345 -174 -590q-88 -122 -236 -192t-339 -70q-264 0 -428 158t-164 424q0 202 83 410t210 358q-157 -15 -344 -64
l-43 316q177 0 449 45t376 80l92 -271q-61 -25 -98 -49q-138 -111 -274 -338t-136 -444zM1786 1374l-178 -57q-66 217 -109 303l180 55q74 -182 107 -301zM2021 1450l-180 -57q-57 190 -110 301l174 57q53 -108 116 -301z" />
    <glyph glyph-name="Identity.419" unicode="&#x3074;" 
d="M1788 1741q100 0 172 -72t72 -172t-72 -172t-172 -72t-172 72t-72 172t72 172t172 72zM1788 1397q41 -1 71 29t29 71q0 41 -29 71q-30 30 -71 30t-71 -30q-29 -30 -29 -71t29 -71q30 -29 71 -29zM524 459q0 -139 82 -215t209 -76q190 0 315 144t156 408t-55 638
q-8 20 -23 58q-14 38 -18 48l297 92q119 -518 438 -841l-227 -244q-74 98 -148 215q4 -345 -174 -590q-88 -122 -236 -192t-339 -70q-264 0 -428 158t-164 424q0 202 83 410t210 358q-157 -15 -344 -64l-43 316q177 0 449 45t376 80l92 -271q-61 -25 -98 -49
q-138 -111 -274 -338t-136 -444z" />
    <glyph glyph-name="Identity.420" unicode="&#x3075;" 
d="M754 426q-225 -244 -514 -422l-187 266q133 72 277 184t237 214zM1997 207l-299 -160q-35 161 -123 357t-186 327l268 141q87 -114 191 -316t149 -349zM905 199q158 0 158 110q0 78 -73 192q-121 189 -343 343l242 200q35 -35 91 -88t83 -79q178 -173 261 -317t83 -286
q0 -379 -434 -378q-166 -1 -326 28l-47 324q176 -49 305 -49zM1118 985l-198 178q78 57 118 88q-168 100 -389 176l182 228q358 -127 535 -230l74 -188q-216 -176 -322 -252z" />
    <glyph glyph-name="Identity.421" unicode="&#x3076;" 
d="M733 412q-225 -244 -514 -422l-186 266q133 72 277 184t237 213zM1976 193l-299 -160q-35 161 -123 357t-186 327l268 141q88 -114 192 -316t148 -349zM885 184q158 0 157 111q0 77 -72 191q-121 189 -343 343l241 201q35 -35 91 -88q252 -238 340 -389t87 -293
q0 -379 -434 -379q-165 0 -325 29l-47 323q174 -49 305 -49zM1098 971l-199 178q78 57 119 88q-168 100 -389 176l182 227q358 -127 535 -229l73 -188q-215 -176 -321 -252zM1868 1509q84 -123 162 -278l-193 -82q-86 176 -162 283zM1616 1411q66 -96 160 -281l-195 -81
q-113 219 -158 284z" />
    <glyph glyph-name="Identity.422" unicode="&#x3077;" 
d="M733 412q-225 -244 -514 -422l-186 266q133 72 277 184t237 213zM1976 193l-299 -160q-35 161 -123 357t-186 327l268 141q88 -114 192 -316t148 -349zM885 184q158 0 157 111q0 77 -72 191q-121 189 -343 343l241 201q35 -35 91 -88q252 -238 340 -389t87 -293
q0 -379 -434 -379q-165 0 -325 29l-47 323q174 -49 305 -49zM1098 971l-199 178q78 57 119 88q-168 100 -389 176l182 227q358 -127 535 -229l73 -188q-215 -176 -321 -252zM1516 1276q0 104 74 179q75 75 179 75q103 0 179 -75t76 -179t-76 -179q-74 -75 -178 -75t-180 75
q-74 75 -74 179zM1661 1276q0 -45 32 -77q33 -32 77 -32t76 32t32 77t-32 77q-32 31 -77 31t-77 -32t-31 -76z" />
    <glyph glyph-name="Identity.423" unicode="&#x3078;" 
d="M66 641q94 77 162 149t199 232q130 160 187 225q225 256 457 37q86 -82 244 -267t182 -212q246 -268 490 -490l-254 -295q-190 178 -430 472q-41 49 -178 218q-136 169 -187 225t-84 53t-74 -54q-55 -72 -182 -252t-174 -256t-59 -94z" />
    <glyph glyph-name="Identity.424" unicode="&#x3079;" 
d="M51 606q96 78 164 150t198 231q130 160 187 225q225 256 457 37q85 -82 243 -267t183 -212q246 -268 489 -489l-258 -293q-125 119 -424 481q-294 362 -368 446q-47 51 -81 49t-75 -55q-248 -317 -358 -507q-46 -79 -62 -103zM1753 1544q127 -176 199 -319l-213 -103
q-96 188 -197 326zM1473 1427q117 -176 192 -329l-219 -94q-98 211 -186 335z" />
    <glyph glyph-name="Identity.425" unicode="&#x307a;" 
d="M51 606q96 78 164 150t198 231q130 160 187 225q225 256 457 37q85 -82 243 -267t183 -212q246 -268 489 -489l-258 -293q-125 119 -424 481q-294 362 -368 446q-47 51 -81 49t-75 -55q-248 -317 -358 -507q-46 -79 -62 -103zM1335 1247q0 115 80 196t195 81
q116 0 196 -81t80 -196t-81 -195t-195 -79q-114 -1 -195 79q-80 80 -80 195zM1491 1247q0 -49 35 -84t84 -35t84 35t35 84t-35 84t-84 35t-84 -35t-35 -84z" />
    <glyph glyph-name="Identity.426" unicode="&#x307b;" 
d="M1174 -92q-193 0 -319 87t-126 247t115 255t317 95q39 0 109 -4q-2 59 -6 186q-180 -2 -445 8l-2 283q219 -18 445 -14v211q-217 0 -414 8v270q528 -39 983 27v-271q-127 -14 -285 -24v-209q172 13 326 31v-283q-125 -16 -324 -27q0 -41 13 -264q211 -78 409 -252
l-160 -266q-111 111 -237 203q-16 -297 -399 -297zM1278 319v29q-70 16 -127 17q-143 0 -143 -93q0 -44 34 -68t88 -24q148 0 148 139zM535 4q0 -59 2 -92l-281 -18q-84 268 -84 632t76 867q20 147 22 229l340 -29q-59 -145 -102 -498t-43 -441t2 -97q14 33 41 87t37 79
l149 -119q-159 -470 -159 -600z" />
    <glyph glyph-name="Identity.427" unicode="&#x307c;" 
d="M1120 -121q-192 0 -318 87t-126 247t115 255t317 95q39 0 109 -4q-2 59 -7 186q-180 -2 -444 9l-2 282q219 -18 444 -14v211q-193 -4 -413 8v270q442 -31 800 7q-29 82 -47 118l162 50q63 -137 100 -277l-120 -39v-110q-127 -12 -197 -17v-209q172 13 326 31v-283
q-125 -16 -324 -26q0 -41 12 -264q211 -78 410 -252l-160 -267q-111 111 -237 203q-16 -297 -400 -297zM1225 291v28q-70 16 -127 17q-143 0 -144 -92q0 -43 34 -68t89 -24q148 0 148 139zM119 496q0 364 76 868q20 147 22 229l340 -28q-59 -145 -103 -498
q-57 -464 -40 -539q14 33 41 87t37 79l149 -119q-157 -463 -160 -600q0 -59 2 -92l-280 -18q-84 267 -84 631zM2030 1477l-162 -52q-61 188 -105 277l162 51q62 -133 105 -276z" />
    <glyph glyph-name="Identity.428" unicode="&#x307d;" 
d="M1688 1260q-6 0 -195 -19v-207q172 12 326 31v-283q-125 -16 -324 -26q0 -41 12 -264q211 -78 410 -252l-160 -267q-111 111 -237 203q-16 -297 -400 -297q-192 0 -318 87t-126 247t115 255t317 95q39 0 109 -4q-2 59 -7 186q-180 -2 -444 9l-2 282q219 -18 444 -14v209
q-213 0 -413 10v270q467 -33 798 7q-6 25 -6 51q0 94 65 160q64 65 158 65t160 -66t66 -159q0 -94 -66 -159t-148 -65t-134 37v-122zM1225 291v28q-70 16 -127 17q-143 0 -144 -92q0 -43 34 -68t89 -24q148 0 148 139zM1810 1657q-38 0 -62 -26q-24 -27 -24 -63t25 -61
t61 -25t63 26q26 24 25 61q0 37 -26 63t-62 25zM119 496q0 364 76 868q20 147 22 229l340 -28q-59 -145 -103 -498q-57 -464 -40 -539q14 33 41 87t37 79l149 -119q-157 -463 -160 -600q0 -59 2 -92l-280 -18q-84 267 -84 631z" />
    <glyph glyph-name="Identity.429" unicode="&#x307e;" 
d="M1262 195q0 -145 -112 -233t-338 -87q-226 0 -359 94q-133 93 -133 263t138 272q140 102 380 102q33 0 98 -4l-6 135h-99q-266 0 -475 27l2 289q72 -15 231 -27t247 -12h90l2 166h-97q-225 0 -419 30l-2 279q207 -39 419 -39h101v70q0 80 -12 147h331q-12 -80 -14 -147
l-2 -62q221 12 463 49l6 -280q-285 -29 -473 -37l-2 -168q219 10 526 47l2 -289q-283 -29 -522 -37l12 -196q299 -88 555 -301l-176 -275q-174 168 -362 265v-41zM950 285q0 33 -2 57q-74 12 -154 12t-127 -28q-48 -28 -49 -72q0 -102 173 -102q83 0 121 28t38 105z" />
    <glyph glyph-name="Identity.430" unicode="&#x307f;" 
d="M88 385q0 240 198 407t505 185q121 281 135 311q-348 -10 -482 -31l-12 314q96 -10 255 -10q369 0 491 49l194 -152q-55 -58 -95 -126t-165 -376q186 -35 371 -110l2 22q10 143 -2 242l321 -37q-10 -199 -37 -366q84 -49 201 -125l-141 -342q-102 90 -156 129
q-139 -326 -500 -516l-262 213q377 162 506 473q-207 113 -418 149q-160 -362 -221 -461q-129 -199 -350 -198q-150 0 -244 95t-94 261zM432 360q49 0 96 70q53 84 136 260q-133 -30 -210 -102t-77 -152q0 -32 16 -54t39 -22z" />
    <glyph glyph-name="Identity.431" unicode="&#x3080;" 
d="M485 197v14h-14q-135 0 -228 97q-93 98 -93 288t107 310q108 120 275 126v103h-24q-147 0 -336 16l-18 287q201 -27 331 -27h47q0 158 -22 258h342q-20 -119 -23 -235q174 23 347 69v-295q-139 -33 -347 -55v-240q63 -84 64 -219q0 -215 -105 -344v-53q0 -63 41 -91
t200 -28t280 37q137 43 137 191t-16 264l339 -103q0 -193 -4 -250q-10 -153 -73 -243t-246 -148q-137 -45 -423 -45t-388 52q-53 28 -86 54q-64 50 -64 210zM406 634q0 -64 28 -96t68 -32q111 0 110 176q0 108 -90 106q-44 0 -80 -46q-36 -44 -36 -108zM1962 1098l-221 -228
q-90 109 -217 232t-213 186l207 205q92 -57 231 -182t213 -213z" />
    <glyph glyph-name="Identity.432" unicode="&#x3081;" 
d="M1919 635q0 -319 -202 -513t-531 -245l-189 285q334 28 468 171t133 307q-2 164 -74 272t-203 151q-115 -385 -260 -614q57 -68 102 -111l-248 -197l-53 62q-104 -109 -194 -153t-217 -44t-230 115q-102 115 -102 301t78 360t213 299q-16 49 -50 153t-90 224l322 101
q18 -114 76 -310q201 94 426 111q4 25 18 106t10 179l340 -33q-29 -100 -55 -232l-10 -45q238 -61 380 -247t142 -453zM1020 1079q-137 -23 -264 -94q61 -170 114 -266q87 163 150 360zM502 326q80 0 180 116q-86 143 -164 344q-111 -156 -110 -327q0 -61 24 -98
q25 -35 70 -35z" />
    <glyph glyph-name="Identity.433" unicode="&#x3082;" 
d="M866 815q180 0 398 25l-9 -291q-180 -18 -335 -19h-84q-6 -72 -7 -116q0 -225 279 -226q193 0 297 78t104 193q1 180 -200 381l344 73q100 -137 145 -253t45 -242q0 -238 -202 -394t-543 -155q-270 0 -422 121t-152 370q0 72 13 189q-207 20 -367 63l16 297
q180 -59 383 -80l29 228q-193 20 -385 71l14 283q160 -55 404 -76q25 241 16 336l344 -18q-41 -184 -48 -245t-11 -83q211 4 348 27l-10 -291q-188 -20 -377 -21q-18 -131 -29 -225h2z" />
    <glyph glyph-name="Identity.434" unicode="&#x3083;" 
d="M1327 1114q217 0 333 -115t116 -266q0 -209 -115 -323t-346 -113q-127 0 -256 49l6 283q119 -53 214 -53q191 -1 191 155q0 45 -43 77t-112 32q-135 0 -438 -129q152 -346 297 -822l-308 -73q-66 283 -221 676q-6 12 -18 44t-21 50l-293 -146l-135 293q166 42 311 107
q-47 88 -79 145t-84 119l305 115q45 -81 133 -265q186 72 229 86q-121 121 -211 185l217 157q45 -29 118 -92t108 -102l-183 -129q180 55 285 55z" />
    <glyph glyph-name="Identity.435" unicode="&#x3084;" 
d="M1398 1399q239 0 384 -131t145 -322q0 -229 -146 -360t-382 -131q-166 0 -318 57l9 307q164 -69 267 -69t173 52t69 154q0 72 -59 118t-154 46q-184 0 -559 -172l45 -102q70 -162 174 -448t152 -451l-338 -84q-119 492 -270 848l-41 100q-297 -154 -344 -174l-142 309
q133 32 203 62t168 71q-101 202 -207 340l318 123q61 -129 85 -174t49 -97q25 -51 36 -69q444 197 683 197zM1255 1493l-233 -166q-174 180 -264 246l227 158q166 -132 270 -238z" />
    <glyph glyph-name="Identity.436" unicode="&#x3085;" 
d="M1792 610q0 -222 -151 -383q-151 -162 -418 -161h-31q-80 -150 -217 -256l-266 151q125 80 198 193q-135 82 -205 225l154 225q74 -131 158 -188q24 119 24 223t-4 203q-166 -51 -282 -193t-117 -317q0 -92 16 -182l-264 -35q-63 205 -63 447t38 538q8 70 5 114l313 -22
q-8 -18 -14 -42t-14 -48q-52 -163 -58 -277q154 205 416 271q-15 118 -47 211l301 4q23 -180 24 -191q232 -16 368 -152t136 -358zM1501 627q0 190 -190 229q6 -92 6 -225t-25 -266q209 35 209 262z" />
    <glyph glyph-name="Identity.437" unicode="&#x3086;" 
d="M1903 796q1 -264 -175 -439t-497 -175h-21q-102 -211 -272 -342l-297 174q158 90 254 254q-182 100 -266 277l174 221q90 -164 196 -225q35 157 35 307t-6 266q-207 -66 -335 -238q-156 -210 -161 -425q0 -94 23 -203l-281 -37q-74 238 -73 584q1 179 29 421t24 302
l334 -27q-96 -255 -96 -469q197 279 512 358q-2 28 -23 138t-33 139l324 6q18 -115 33 -254q270 -16 434 -183q164 -166 164 -430zM1305 492q141 20 214 103t72 212q0 129 -64 218q-65 89 -200 112q27 -385 -22 -645z" />
    <glyph glyph-name="Identity.438" unicode="&#x3087;" 
d="M1212 137q0 -135 -88 -220t-292 -85t-338 88t-134 250t126 256t352 94q41 0 61 -2q-12 217 -12 307v267q0 143 -19 221h330q-18 -100 -18 -217v-68q290 9 446 27l8 -273q-133 -10 -454 -20q0 -18 16 -305q266 -94 479 -295l-168 -264q-168 168 -295 247v-8zM909 238v30
q-61 10 -110 11q-158 0 -158 -89q0 -38 43 -62t107 -24q118 1 118 134z" />
    <glyph glyph-name="Identity.439" unicode="&#x3088;" 
d="M858 1092q0 453 -29 563h369q-22 -150 -22 -373q354 8 548 29l13 -293q-201 -18 -557 -27q4 -133 20 -383q362 -108 610 -346l-188 -293q-190 190 -403 305v-28q0 -375 -467 -375q-246 0 -399 94t-152 303q0 180 150 293q151 113 427 113q33 0 94 -4q-14 272 -14 422z
M883 352v37q-74 12 -162 12q-88 -1 -144 -31t-57 -85q0 -115 207 -115q88 0 122 41t34 141z" />
    <glyph glyph-name="Identity.440" unicode="&#x3089;" 
d="M1204 979q289 0 447 -143t157 -342q0 -237 -155 -398q-155 -162 -550 -210q-198 -24 -464 3l-96 322q434 -66 677 16t242 273q0 86 -76 143t-215 57t-278 -57t-227 -164q-57 -70 -84 -127l-281 70q76 408 100 862l330 -45q-49 -184 -72 -424q256 164 545 164zM608 1372
l78 295q137 -43 401 -91t426 -67l-73 -303q-150 20 -424 76t-408 90z" />
    <glyph glyph-name="Identity.441" unicode="&#x308a;" 
d="M1167 1567q225 0 375 -201t150 -537q0 -803 -908 -968l-186 284q465 73 625 256q133 157 133 428q0 223 -67 337t-179 114t-212 -100t-158 -244t-58 -256q0 -111 12 -217l-303 -21q-27 168 -27 389t54 605q16 127 16 233l334 -14q-55 -193 -74 -340q207 252 473 252z" />
    <glyph glyph-name="Identity.442" unicode="&#x308b;" 
d="M643 1571q675 0 815 41l152 -217q-117 -72 -159 -101t-400 -307q63 12 141 12q262 -1 442 -151t181 -377q-1 -256 -191 -425t-563 -169q-223 0 -374 97t-150 259q0 137 112 241q113 104 287 104t292 -94t144 -242q119 82 119 221t-115 217t-304 78t-356 -109t-331 -307
l-223 231q103 80 313 256q209 175 363 299t211 175q-410 -7 -603 -37l-10 317q96 -12 207 -12zM941 344q-56 0 -85 -24t-29 -63q0 -41 47 -71q46 -30 102 -30t114 4q-8 84 -50 134t-99 50z" />
    <glyph glyph-name="Identity.443" unicode="&#x308c;" 
d="M1714 1088q0 -122 -32 -365q-32 -242 -31 -348q0 -70 63 -70q105 0 236 131l39 -346q-162 -143 -387 -143q-123 0 -197 89q-74 88 -74 224t36 374t36 312q0 76 -33 112t-90 36q-96 0 -231 -102t-271 -251q-2 -43 -2 -127q0 -472 31 -720h-336q6 78 8 228t6 298
q-23 -33 -103 -152t-112 -162l-190 271q252 311 426 561l6 109q-121 -14 -354 -46l-31 314q234 -5 405 24q15 235 -4 334l357 -10q-20 -92 -47 -289l77 -102q-30 -40 -110 -160v-6q336 281 569 280q168 0 254 -88t86 -210z" />
    <glyph glyph-name="Identity.444" unicode="&#x308d;" 
d="M459 1569q82 -10 461 -10t507 36l158 -213q-35 -18 -125 -73q-264 -176 -422 -310q61 12 150 13q274 0 447 -142t173 -360q0 -309 -243 -482q-125 -89 -340 -127t-504 -16l-90 320q413 -55 625 27t212 278q0 106 -96 174t-236 68t-248 -37q-175 -60 -360 -245
q-61 -62 -145 -161l-227 244q118 106 448 391t402 350q-25 0 -244 -15t-291 -28z" />
    <glyph glyph-name="Identity.445" unicode="&#x308e;" 
d="M1338 1042q218 0 354 -135t135 -338q0 -549 -647 -663l-136 266q494 63 494 403q0 91 -69 151t-179 60q-203 0 -416 -178q-2 -35 -2 -214t33 -500h-299q6 131 12 460q-154 -238 -190 -288l-164 231q66 68 178 214q113 146 191 261l4 59q-166 -18 -311 -51l-23 254
q159 0 348 33l6 129q6 72 -6 162l303 -6q-18 -88 -41 -279l56 -65q-49 -60 -74 -95v-14q225 143 443 143z" />
    <glyph glyph-name="Identity.446" unicode="&#x308f;" 
d="M776 614q0 -472 31 -720h-336q6 78 8 228t6 298q-23 -33 -103 -152t-112 -162l-190 271q252 311 426 561l6 109q-121 -14 -354 -46l-31 314q234 -5 405 24q15 235 -4 334l357 -10q-20 -92 -47 -289l77 -102q-12 -16 -30 -43t-43 -63t-37 -54l-2 -22q266 186 569 186
q248 0 411 -159t163 -406q0 -313 -188 -508t-584 -275l-146 297q288 45 438 161t150 331q0 119 -85 195t-210 75q-272 0 -543 -239q-2 -47 -2 -134z" />
    <glyph glyph-name="Identity.447" unicode="&#x3090;" 
d="M1878 541q0 -285 -154 -472t-442 -188q-172 0 -282 83q-110 84 -110 228t99 239q98 95 248 95q207 0 311 -139q23 84 23 162q0 179 -115 285t-305 106q-37 0 -55 -2l-74 -221q-162 -473 -322 -658q-102 -119 -294 -118q-113 0 -197 87t-84 236q0 303 214 557t538 340
q29 94 49 180q-84 0 -510 -32l-17 299q82 -10 154 -11q203 -10 430 9q95 12 150 28l178 -137q-57 -98 -82 -166t-47 -133q308 -10 502 -191t194 -466zM449 287q51 0 86 51q104 143 237 506q-168 -94 -268 -245t-101 -247q-1 -31 13 -48t33 -17zM1237 309q-41 1 -69 -21
t-28 -59t32 -61q30 -24 88 -25q58 0 112 25q-29 141 -135 141z" />
    <glyph glyph-name="Identity.448" unicode="&#x3091;" 
d="M1235 709q178 54 178 190q0 70 -89 127t-222 57q-201 1 -365 -79t-375 -271l-182 225q387 242 727 435q-346 -18 -436 -29l-10 248q99 -6 367 -6t370 11t186 34l160 -211q-233 -61 -434 -170q37 4 109 4q229 -4 367 -116t138 -264t-97 -259q-180 -197 -574 -197
q-74 0 -129 8l-115 -86q135 -16 211 -137q162 193 391 193q183 0 319 -118t218 -314l-314 -117q-82 289 -250 289q-133 0 -204 -179q-20 -55 -21 -90l-317 2q-15 162 -82 220q-47 41 -118 41q-70 0 -138 -72t-154 -213l-266 151q23 23 225 228t330 317q-76 71 -76 175
q1 104 103 174t252 69q150 0 238 -60q87 -60 87 -153q0 -33 -8 -57zM981 751q0 64 -85 64q-38 0 -65 -15t-26 -40q0 -59 133 -74q43 31 43 65z" />
    <glyph glyph-name="Identity.449" unicode="&#x3092;" 
d="M1862 856q-236 -68 -559 -213q8 -252 8 -338h-293q8 90 10 203q-182 -106 -182 -221q0 -65 56 -93t198 -28q299 0 590 63l-11 -317q-266 -35 -585 -35q-573 0 -574 356q0 177 130 311t337 242q-41 41 -113 41t-156 -40q-86 -39 -148 -103t-181 -221l-262 196
q297 262 434 523q-188 0 -338 14v285q152 -25 365 -25h80q31 127 34 221l324 -26q-14 -84 -45 -185q334 18 547 58l-2 -285q-291 -37 -656 -51q-37 -82 -77 -144q68 20 200 21q188 0 271 -143l477 217z" />
    <glyph glyph-name="Identity.450" unicode="&#x3093;" 
d="M1032 918q110 0 176 -72t74 -205q0 -261 10 -317q10 -90 111 -91q199 0 305 472l266 -218q-172 -594 -624 -593q-164 0 -259 84t-104 210q-4 54 -8 182t-6 158q-10 98 -101 99q-164 0 -286 -295q-31 -72 -142 -447l-348 117q100 272 312 723t329 674t142 282l348 -141
q-12 -16 -36 -50t-30 -42q-82 -115 -332 -557q92 27 203 27z" />
    <glyph glyph-name="Identity.451" unicode="&#x309b;" 
d="M502 1759q80 -119 198 -344l-213 -88q-150 274 -200 342zM227 1649q61 -86 199 -342l-217 -90q-162 305 -193 348z" />
    <glyph glyph-name="Identity.452" unicode="&#x309c;" 
d="M201 1450q-1 -45 31 -78t77 -33t76 33t31 78t-31 76q-31 30 -76 30t-77 -30q-31 -31 -31 -76zM61 1450q0 102 74 175t174 73t174 -73t74 -175t-74 -175t-174 -73t-174 73t-74 175z" />
    <glyph glyph-name="Identity.453" unicode="&#x309d;" 
d="M1544 297q-238 -82 -674 -260l-155 307q272 102 477 184q-70 106 -270 320q-201 213 -344 338l274 203q186 -169 432 -435t342 -401z" />
    <glyph glyph-name="Identity.454" unicode="&#x309e;" 
d="M1466 254q-238 -82 -673 -260l-156 307q272 102 477 184q-70 106 -270 320q-201 213 -344 338l274 203q186 -170 432 -436t342 -400zM1522 1583q90 -131 184 -315l-207 -86q-125 233 -186 315zM1237 1493q74 -106 184 -315l-211 -86q-145 270 -178 319z" />
    <glyph glyph-name="Identity.455" unicode="&#x30a1;" 
d="M813 639q0 76 -18 160h342q-4 -131 -9 -197q76 57 152 138t109 139h-836q-100 0 -227 -13v316q125 -18 227 -19h913q140 1 199 17l182 -166q-39 -41 -89 -122t-175 -236t-211 -226l-244 168q-6 -100 -17 -177q-28 -195 -135 -355t-337 -285l-260 207q104 43 182 98
q147 102 200 226q52 124 52 327z" />
    <glyph glyph-name="Identity.456" unicode="&#x30a2;" 
d="M477 1245q-90 0 -260 -16v342q154 -23 260 -23h1063q174 1 246 21l196 -183q-70 -88 -92 -122q-90 -150 -223 -310t-260 -252l-256 205q106 68 204 168q97 100 134 170h-1012zM1139 1108v-25q1 -354 -15 -432q-16 -79 -35 -165t-47 -141q-92 -181 -159 -246
q-143 -142 -312 -236l-288 235q127 43 233 125q164 125 221 273t58 407q-1 107 -17 205h361z" />
    <glyph glyph-name="Identity.457" unicode="&#x30a3;" 
d="M1245 53q0 -195 17 -246h-369q12 90 12 246v475q-303 -145 -540 -204l-166 284q188 39 395 120q208 81 352 166t289 202t221 217l248 -232q-152 -168 -459 -366v-662z" />
    <glyph glyph-name="Identity.458" unicode="&#x30a4;" 
d="M1303 190q0 -225 20 -296h-393q16 111 16 296v617q-348 -172 -670 -258l-176 301q735 153 1242 594q146 127 233 242l266 -240q-274 -268 -538 -438v-818z" />
    <glyph glyph-name="Identity.459" unicode="&#x30a5;" 
d="M627 791v-213q0 -80 6 -136h-314q8 94 9 154v319q0 72 -15 172q102 -10 211 -10h338v88q0 59 -16 166h346q-12 -96 -12 -166v-88h229q115 1 158 17l217 -115q-23 -61 -38 -169q-14 -108 -66 -255t-109 -254q-102 -186 -299 -319t-426 -189l-244 281q170 29 283 76
q227 88 353 252t148 389h-759z" />
    <glyph glyph-name="Identity.460" unicode="&#x30a6;" 
d="M530 1053v-262q0 -109 9 -168h-342q10 98 10 194v352q0 123 -10 187q94 -10 219 -10h428v137q0 94 -19 209h383q-16 -137 -16 -209v-137h299q116 -1 186 24l215 -131q-18 -55 -45 -184q-61 -321 -185 -559t-349 -402t-502 -235l-258 299q513 90 747 407q127 176 175 488
h-945z" />
    <glyph glyph-name="Identity.461" unicode="&#x30a7;" 
d="M1182 231h417q66 0 166 15v-324q-57 10 -166 10h-1130q-109 0 -180 -10v324q96 -14 180 -15h385v607h-285q-84 0 -174 -9v310q68 -12 174 -13h934q88 0 168 13v-310q-111 8 -168 9h-321v-607z" />
    <glyph glyph-name="Identity.462" unicode="&#x30a8;" 
d="M1192 358h512q82 0 203 19v-359q-74 10 -203 11h-1350q-123 0 -213 -11v359q100 -18 213 -19h490v777h-361q-119 0 -207 -11v340q92 -14 207 -14h1110q90 0 201 14v-340q-109 10 -201 11h-401v-777z" />
    <glyph glyph-name="Identity.463" unicode="&#x30a9;" 
d="M1608 997q94 0 184 15v-299q-111 4 -170 4h-217q14 -581 16 -685t-60 -161t-165 -57q-166 0 -330 10l-18 280q131 -16 225 -16q53 0 53 66q0 193 -2 311q-112 -133 -290 -275t-345 -229l-215 248q202 92 392 232t301 276h-373q-86 0 -213 -8v303q86 -14 205 -15h524
l-4 101q-4 100 -19 188h318q-10 -66 -10 -188l2 -101h211z" />
    <glyph glyph-name="Identity.464" unicode="&#x30aa;" 
d="M1636 1315q115 0 234 18v-325q-147 4 -215 4h-228q18 -860 19 -887q2 -111 -62 -171t-192 -60q-184 0 -371 12l-28 321q141 -23 264 -22q68 0 67 86q0 276 -2 448q-139 -176 -359 -354t-444 -297l-227 258q283 133 515 312t360 354h-490q-104 0 -256 -8v327
q115 -16 248 -16h639l-6 119q-8 139 -23 229h351q-16 -109 -13 -229l2 -119h217z" />
    <glyph glyph-name="Identity.465" unicode="&#x30ab;" 
d="M1382 -84q-129 0 -346 18l-39 332q291 -56 354 -11q64 45 94 349q22 213 21 400h-399q-55 -388 -205 -650t-434 -467l-289 234q182 100 303 227q244 252 301 656h-231q-172 0 -289 -11v324q152 -16 289 -17h256q2 54 2 158t-16 203h364q-10 -76 -14 -192t-8 -169h327
q78 1 170 17l211 -103q-14 -76 -14 -112q-27 -774 -121 -1010q-70 -176 -287 -176z" />
    <glyph glyph-name="Identity.466" unicode="&#x30ac;" 
d="M1653 1679l192 78q84 -123 162 -278l-192 -82q-86 176 -162 282zM1382 1280q78 0 170 16l211 -102q-14 -76 -14 -113q-27 -774 -121 -1009q-70 -176 -287 -176q-129 0 -346 18l-39 332q160 -31 244 -31t108 17q66 47 96 352q22 213 21 399h-399q-55 -389 -205 -650
t-434 -466l-289 233q182 100 303 228q244 252 301 655h-231q-172 0 -289 -10v323q152 -16 289 -16h256q2 54 2 158t-16 202h364q-10 -76 -14 -192t-8 -168h327zM1753 1378l-194 -82q-113 219 -158 285l192 78q66 -97 160 -281z" />
    <glyph glyph-name="Identity.467" unicode="&#x30ad;" 
d="M1182 770q457 77 635 125l65 -326q-62 -3 -304 -43q-242 -41 -339 -55q49 -260 61 -313t60 -242l-356 -61q-2 16 -11 97q-8 81 -14 114t-66 352q-551 -91 -671 -123l-70 328q117 3 686 96l-53 280q-267 -41 -363 -59t-211 -49l-65 338q227 14 582 71l-33 170
q-20 86 -45 164l350 56l22 -168q0 -4 31 -172q430 69 580 110l59 -323q-46 -4 -119 -14q-73 -11 -94 -13l-371 -59z" />
    <glyph glyph-name="Identity.468" unicode="&#x30ae;" 
d="M1155 733q438 74 635 125l65 -326q-62 -3 -304 -43q-242 -41 -339 -55q48 -260 60 -313t61 -242l-356 -61q-2 16 -10 97q-9 81 -15 114t-65 352q-553 -92 -672 -123l-70 328q117 3 686 96l-53 281q-394 -61 -573 -109l-66 338q232 14 582 72l-33 170q-20 86 -45 163
l350 56l23 -168q0 -4 31 -172q364 58 460 82q-78 152 -129 227l193 78q66 -96 160 -281l-97 -41l52 -278l-213 -27l-371 -59zM1985 1520l-193 -82q-86 176 -162 282l193 78q84 -122 162 -278z" />
    <glyph glyph-name="Identity.469" unicode="&#x30af;" 
d="M1622 1425l252 -155q-55 -92 -80 -168q-129 -393 -354 -672q-305 -375 -832 -590l-295 262q305 94 493 215t337 289q92 102 171 255t99 257h-510q-233 -293 -516 -489l-278 207q168 102 304 231t198 212t134 196t109 245l363 -118q-51 -70 -127 -203h329q117 -1 203 26z
" />
    <glyph glyph-name="Identity.470" unicode="&#x30b0;" 
d="M1671 1720l193 78q84 -123 161 -278l-192 -82q-86 176 -162 282zM1368 1354q104 0 188 22q-80 162 -137 246l193 78q66 -97 160 -281l-158 -65l209 -129q-55 -92 -80 -168q-129 -393 -354 -672q-305 -375 -832 -590l-295 262q304 94 492 215t338 289q92 102 171 255
t99 257h-510q-233 -293 -516 -489l-279 207q168 102 304 231t199 212q62 83 134 196t109 245l362 -119q-51 -70 -127 -202h330z" />
    <glyph glyph-name="Identity.471" unicode="&#x30b1;" 
d="M1675 1319q129 0 226 16v-338q-84 8 -226 9h-254q-59 -784 -622 -1137l-334 223q133 57 209 123q354 274 401 791h-381q-147 -262 -325 -426l-312 188q176 135 351 412q59 96 111 248t59 264l383 -76q-14 -29 -65 -156q-50 -127 -56 -141h835z" />
    <glyph glyph-name="Identity.472" unicode="&#x30b2;" 
d="M1663 1268q129 0 225 16v-338q-84 8 -225 8h-254q-59 -784 -623 -1136l-333 223q133 57 209 123q354 274 401 790h-381q-147 -262 -326 -426l-311 189q176 135 350 411q59 96 111 249t59 263l383 -75q-19 -38 -67 -161q-48 -122 -54 -136h836zM1753 1397l-194 -82
q-113 219 -158 284l192 78q66 -96 160 -280zM2007 1497l-192 -82q-86 176 -162 283l192 78q84 -123 162 -279z" />
    <glyph glyph-name="Identity.473" unicode="&#x30b3;" 
d="M559 41q-152 0 -280 -14v354q160 -12 270 -12h911v778h-887q-143 0 -270 -8v344q143 -14 270 -15h1045q102 0 194 7q-6 -147 -6 -207v-1063q1 -133 11 -266h-361l2 102h-899z" />
    <glyph glyph-name="Identity.474" unicode="&#x30b4;" 
d="M1628 1710l203 82q78 -113 162 -272l-203 -86q-96 186 -162 276zM1753 1200v-1063q0 -133 10 -266h-360l2 102h-899q-152 0 -281 -14v354q160 -12 271 -12h911v778h-887q-143 0 -270 -8v344q143 -14 270 -14h961q-59 127 -138 239l201 82q88 -129 158 -276l-109 -45
q147 4 166 6q-6 -148 -6 -207z" />
    <glyph glyph-name="Identity.475" unicode="&#x30b5;" 
d="M1565 1255h108q152 0 248 17v-328q-57 6 -246 6h-110v-65q0 -389 -135 -632t-500 -403l-266 250q317 104 446 272t129 505v73h-430v-248q0 -104 10 -231h-346q12 102 12 231v248h-147q-113 0 -232 -8v336q129 -23 232 -23h147v170q0 90 -14 205h352q-14 -115 -14 -207
v-168h430v193q0 125 -12 203h352q-14 -125 -14 -203v-193z" />
    <glyph glyph-name="Identity.476" unicode="&#x30b6;" 
d="M1532 1227h108q152 0 248 16v-328q-57 6 -246 7h-110v-66q0 -389 -135 -632t-500 -402l-266 250q317 104 446 271t129 505v74h-430v-248q0 -104 10 -232h-346q12 102 13 232v248h-148q-113 0 -231 -9v336q129 -23 231 -22h148v170q0 90 -15 205h353q-14 -115 -15 -207
v-168h430v192q0 125 -12 203h352l-6 -61l158 49q63 -137 100 -277l-164 -53q-6 18 -36 116t-60 156q-6 -57 -6 -133v-192zM2017 1401l-162 -51q-61 188 -104 276l162 51q61 -133 104 -276z" />
    <glyph glyph-name="Identity.477" unicode="&#x30b7;" 
d="M322 1178q229 -121 479 -295l-183 -279q-285 197 -477 299zM221 201q414 70 703 225q262 145 474 350t335 428l190 -340q-295 -434 -829 -739q-154 -86 -353 -158t-333 -94zM641 1649q233 -127 479 -295l-184 -275q-276 184 -475 295z" />
    <glyph glyph-name="Identity.478" unicode="&#x30b8;" 
d="M293 1171q229 -121 479 -294l-182 -279q-285 197 -477 299zM193 195q414 70 702 225q262 145 474 350t335 428l190 -340q-295 -434 -829 -739q-155 -86 -353 -158t-333 -94zM612 1642q233 -127 480 -294l-185 -275q-276 184 -475 295zM1800 1698q78 -102 191 -303
l-209 -92q-82 162 -191 309zM1509 1597q113 -170 185 -315l-211 -90q-94 203 -178 321z" />
    <glyph glyph-name="Identity.479" unicode="&#x30b9;" 
d="M614 1198q-33 0 -262 -16v352q115 -16 262 -16h684q158 -1 246 30l203 -149q-49 -72 -84 -150q-131 -295 -309 -540q141 -123 303 -291t254 -281l-285 -248q-193 274 -489 562q-354 -369 -752 -560l-258 269q233 86 461 248t377 327q215 246 286 463h-637z" />
    <glyph glyph-name="Identity.480" unicode="&#x30ba;" 
d="M573 1141q-33 0 -262 -17v353q115 -16 262 -17h684q137 0 230 27q-47 90 -92 160l192 77q94 -143 160 -280l-115 -49l74 -54q-49 -72 -84 -149q-131 -295 -309 -541q141 -123 303 -291t254 -280l-285 -248q-193 274 -489 561q-354 -369 -752 -559l-258 268
q232 86 460 248t378 328q215 246 286 463h-637zM2021 1518l-192 -82q-78 162 -162 282l193 78q83 -122 161 -278z" />
    <glyph glyph-name="Identity.481" unicode="&#x30bb;" 
d="M881 367q0 -96 44 -130t195 -34q297 0 652 71l-11 -335q-325 -45 -555 -45t-334 15t-167 42q-116 50 -143 184q-11 55 -11 144v524q-315 -66 -408 -86l-59 323q143 18 467 76v258q0 147 -19 262h369q-20 -127 -20 -262v-196q675 124 776 178l239 -187q-61 -98 -103 -181
q-42 -82 -171 -266t-227 -278l-273 160q88 78 174 186t131 189l-546 -109v-503z" />
    <glyph glyph-name="Identity.482" unicode="&#x30bc;" 
d="M850 326q0 -96 44 -130t196 -34q297 0 651 71l-10 -335q-325 -45 -555 -45t-334 15t-168 42q-114 48 -143 184q-11 55 -11 144v524q-315 -66 -407 -86l-60 323q143 18 467 76v258q0 147 -18 262h368q-20 -127 -20 -262v-196q668 123 776 178l240 -187q-61 -98 -76 -127
q-70 -137 -199 -320t-227 -278l-272 160q88 78 174 186t131 189l-547 -109v-503zM1757 1419l-194 -82q-113 219 -158 285l192 78q66 -97 160 -281zM2011 1520l-192 -82q-86 176 -162 282l192 78q84 -122 162 -278z" />
    <glyph glyph-name="Identity.483" unicode="&#x30bd;" 
d="M160 1401l321 166q154 -217 359 -613l-330 -186q-182 400 -350 633zM475 145q438 184 688 539q160 225 236 592q35 164 31 291l403 -56q-35 -117 -72 -282q-98 -424 -286 -713q-264 -406 -703 -627z" />
    <glyph glyph-name="Identity.484" unicode="&#x30be;" 
d="M1649 1710l202 82q78 -113 162 -272l-203 -86q-95 186 -161 276zM1722 1446l-163 -68l213 -41q-20 -71 -62 -231t-82 -270q-39 -110 -115 -256t-173 -266t-253 -248t-350 -234l-297 256q199 84 355 199q155 115 245 217t157 230t94 210t59 222t28 247l129 -24
q-66 139 -143 251l201 82q87 -129 157 -276zM805 897l-330 -186q-182 399 -350 632l321 166q154 -217 359 -612z" />
    <glyph glyph-name="Identity.485" unicode="&#x30bf;" 
d="M1622 1460l250 -155q-49 -82 -80 -168q-100 -281 -272 -531q127 -82 194 -131l-225 -293q-66 57 -191 148q-305 -326 -727 -490l-288 250q446 139 737 430q-188 123 -344 213l211 238q201 -106 348 -193q145 215 184 375h-526q-250 -324 -539 -524l-268 207
q264 164 424 354q268 315 334 551l358 -111q-51 -72 -123 -196h340q117 -1 203 26z" />
    <glyph glyph-name="Identity.486" unicode="&#x30c0;" 
d="M1671 1720l193 78q84 -123 161 -278l-192 -82q-86 176 -162 282zM1380 1384q86 0 164 17q-74 150 -125 221l193 78q66 -97 160 -281l-121 -51l182 -113q-49 -82 -80 -168q-100 -281 -272 -530q127 -82 194 -131l-225 -293q-66 57 -190 148q-305 -326 -728 -490l-288 250
q446 139 737 430q-188 123 -344 213l211 238q201 -106 348 -193q145 215 184 375h-526q-250 -324 -539 -524l-268 206q266 165 424 355q268 315 334 551l358 -111q-51 -72 -123 -197h340z" />
    <glyph glyph-name="Identity.487" unicode="&#x30c1;" 
d="M1223 993h489q57 0 199 13v-318q-123 8 -193 8h-506q-66 -553 -524 -833l-317 213q434 197 510 620h-537q-86 0 -197 -8v318q123 -12 195 -13h553v244q-274 -20 -520 -25l-78 285q453 -6 759 41t455 119l203 -273q-57 -13 -190 -47q-133 -35 -301 -59v-285z" />
    <glyph glyph-name="Identity.488" unicode="&#x30c2;" 
d="M1176 969h489q57 0 199 12v-317q-123 8 -193 8h-506q-66 -553 -524 -834l-317 213q434 197 510 621h-537q-86 0 -197 -8v317q123 -12 195 -12h553v243q-274 -20 -520 -24l-78 285q454 -5 760 41t454 118l203 -272q-35 -8 -98 -24t-144 -38q-81 -20 -249 -45v-284z
M1456 1241l178 74q78 -115 140 -242l-183 -80q-76 162 -135 248zM2017 1171l-180 -81q-70 135 -145 239l176 80q75 -105 149 -238z" />
    <glyph glyph-name="Identity.489" unicode="&#x30c3;" 
d="M584 1126q96 -195 192 -471l-303 -112q-102 324 -188 477zM1473 1182l350 -113q-29 -80 -58 -178q-94 -346 -274 -582q-137 -180 -319 -314t-375 -208l-260 266q179 45 373 160t304 254t177 331q68 192 82 384zM1059 1237q92 -203 172 -453l-297 -102q-72 254 -170 459z
" />
    <glyph glyph-name="Identity.490" unicode="&#x30c4;" 
d="M420 1499q53 -109 130 -294t112 -287l-320 -117q-37 111 -116 307t-124 281zM1567 1550l370 -104q-31 -72 -61 -184q-133 -492 -344 -773q-313 -412 -807 -606l-279 281q222 61 442 196q220 136 354 304t218 416t107 470zM989 1628q41 -80 116 -266t105 -289l-313 -110
q-84 279 -219 563z" />
    <glyph glyph-name="Identity.491" unicode="&#x30c5;" 
d="M1860 1794q78 -113 161 -272l-202 -86q-96 186 -162 276zM1573 1724q88 -129 158 -276l-203 -84q-66 147 -156 278zM389 1434q53 -109 130 -294t112 -288l-320 -117q-37 111 -115 307t-124 281zM1513 1350l363 -84q-10 -20 -59 -185q-119 -395 -316 -657
q-313 -412 -807 -606l-278 280q221 60 441 196t370 322q210 265 286 734zM958 1563q41 -81 116 -267t106 -288l-314 -111q-84 279 -219 563z" />
    <glyph glyph-name="Identity.492" unicode="&#x30c6;" 
d="M369 1059h1341q123 0 203 14v-321q-84 6 -203 6h-459q-18 -274 -135 -506q-53 -112 -167 -224t-249 -182l-290 209q100 37 199 116t163 167q111 166 131 420h-534q-92 0 -207 -8v323q111 -14 207 -14zM1454 1292h-819q-102 0 -238 -8v318q111 -16 238 -17h819
q117 0 238 17v-318q-152 8 -238 8z" />
    <glyph glyph-name="Identity.493" unicode="&#x30c7;" 
d="M340 1030h1341q123 0 203 14v-321q-82 6 -203 6h-458q-18 -274 -136 -506q-53 -113 -167 -225t-248 -180l-291 209q100 37 200 115q99 79 162 167q111 166 131 420h-534q-92 0 -207 -8v323q111 -14 207 -14zM1253 1264h-649q-102 0 -237 -9v318q111 -16 237 -17h649
q106 0 209 13q-4 8 -32 53l192 78q66 -96 160 -281l-195 -82q-49 100 -96 185v-267q-152 9 -238 9zM2036 1520l-193 -82q-86 176 -162 282l193 78q84 -122 162 -278z" />
    <glyph glyph-name="Identity.494" unicode="&#x30c8;" 
d="M958 205q0 -106 23 -309h-389q25 152 24 309v1169q0 150 -24 266h387q-20 -195 -21 -266v-280q207 -59 462 -153t384 -157l-141 -346q-258 133 -705 293v-526z" />
    <glyph glyph-name="Identity.495" unicode="&#x30c9;" 
d="M897 1343v-280q207 -59 462 -153t384 -156l-141 -346q-258 133 -705 292v-526q0 -106 23 -309h-390q25 152 25 309v1169q0 150 -25 267h388q-21 -195 -21 -267zM1612 1241l-211 -92q-84 182 -180 317l204 86q130 -192 187 -311zM1898 1368l-204 -100q-80 156 -191 307
l203 94q137 -190 192 -301z" />
    <glyph glyph-name="Identity.496" unicode="&#x30ca;" 
d="M1251 1184h414q135 0 250 14v-340q-123 10 -252 10h-414q-14 -324 -144 -568t-448 -437l-309 229q294 132 414 330q121 198 141 446h-479q-106 0 -258 -12v344q147 -16 250 -16h491v196q0 154 -30 260h393q-18 -100 -19 -262v-194z" />
    <glyph glyph-name="Identity.497" unicode="&#x30cb;" 
d="M602 1071q-117 0 -264 -8v360q113 -14 262 -14h832q137 0 241 14v-360l-241 8h-830zM449 414h1146q115 0 248 14v-379q-139 14 -248 14h-1146q-138 0 -281 -14v379q201 -14 281 -14z" />
    <glyph glyph-name="Identity.498" unicode="&#x30cc;" 
d="M627 1202q-137 0 -291 -10v334q143 -14 291 -15h739q92 0 176 37l238 -178q-39 -66 -72 -149q-154 -412 -313 -652q244 -178 377 -297l-234 -276q-125 121 -362 307q-311 -311 -727 -463l-275 281q436 139 717 391q-274 195 -479 307l204 246q236 -127 496 -299
q150 219 207 436h-692z" />
    <glyph glyph-name="Identity.499" unicode="&#x30cd;" 
d="M1294 526l203 238q283 -152 492 -295l-207 -274q-201 163 -488 331zM1192 147q0 -133 14 -280h-354q16 111 16 280v297q-270 -135 -592 -233l-190 293q459 96 838 340q213 137 305 266h-680q-168 0 -277 -10v321q98 -14 271 -14h327v90q0 115 -12 195h352
q-14 -119 -14 -195v-90h195q106 0 192 23l205 -199q-94 -96 -182 -197q-199 -221 -414 -387v-500z" />
    <glyph glyph-name="Identity.500" unicode="&#x30ce;" 
d="M1745 1513q-33 -66 -103 -256q-186 -504 -391 -755q-147 -182 -350 -347t-430 -255l-283 290q469 162 781 529q141 169 241 411t146 484z" />
    <glyph glyph-name="Identity.501" unicode="&#x30cf;" 
d="M1405 713q-57 165 -145 367t-152 321l332 106q148 -274 292 -649t246 -758l-370 -120q-103 454 -203 733zM393 690q156 401 191 789l362 -76q-37 -133 -55 -236q-49 -266 -167 -600t-302 -600l-350 148q200 262 321 575z" />
    <glyph glyph-name="Identity.502" unicode="&#x30d0;" 
d="M1376 672q-57 164 -145 366t-152 322l332 106q147 -274 291 -649t248 -758l-371 -120q-103 454 -203 733zM365 649q156 401 190 789l363 -76q-37 -133 -56 -236q-49 -266 -167 -600t-302 -600l-350 148q201 262 322 575zM1866 1753q84 -123 162 -278l-193 -82
q-86 176 -162 282zM1614 1655q66 -96 160 -281l-195 -82q-113 219 -158 285z" />
    <glyph glyph-name="Identity.503" unicode="&#x30d1;" 
d="M1376 672q-57 164 -145 366t-152 322l332 106q147 -274 291 -649t248 -758l-371 -120q-103 454 -203 733zM365 649q156 401 190 789l363 -76q-37 -133 -56 -236q-49 -266 -167 -600t-302 -600l-350 148q201 262 322 575zM1518 1499q0 104 74 179q76 75 180 75t179 -75
t75 -179t-76 -179q-74 -75 -178 -75t-180 75q-74 75 -74 179zM1663 1499q0 -45 32 -77t77 -32q44 0 76 32t32 77t-32 77t-76 32t-77 -32q-32 -32 -32 -77z" />
    <glyph glyph-name="Identity.504" unicode="&#x30d2;" 
d="M723 389q0 -57 29 -81q28 -24 100 -35t228 -11t372 20q215 20 336 54v-363q-289 -41 -741 -41q-201 0 -349 26t-228 110q-79 84 -79 219v1108q0 129 -16 239h364q-16 -111 -16 -239v-344q601 153 915 335l131 -313q-221 -90 -264 -106q-352 -131 -782 -240v-338z" />
    <glyph glyph-name="Identity.505" unicode="&#x30d3;" 
d="M1583 1710l193 78q84 -123 161 -279l-192 -82q-86 177 -162 283zM643 344q0 -57 29 -81q28 -24 100 -35t228 -11q156 1 372 21q215 20 336 53v-363q-289 -41 -741 -41q-201 0 -349 26t-228 110q-79 84 -79 219v1108q0 129 -16 239h364q-16 -111 -16 -239v-344
q598 152 916 335l131 -313q-221 -90 -265 -106q-352 -134 -782 -240v-338zM1683 1409l-194 -82q-113 219 -158 285l193 78q65 -97 159 -281z" />
    <glyph glyph-name="Identity.506" unicode="&#x30d4;" 
d="M643 1350v-344q377 96 668 215q94 35 198 92q-53 71 -53 165t75 170t179 74q104 0 179 -74t75 -180q0 -104 -75 -179t-179 -75q-59 0 -108 25l88 -211q-221 -90 -265 -106q-352 -133 -782 -240v-338q0 -57 29 -81q28 -24 100 -35t228 -11q156 1 372 21q215 20 336 53
v-363q-289 -41 -741 -41q-201 0 -349 26t-228 110q-79 84 -79 219v1108q0 129 -16 239h364q-16 -110 -16 -239zM1710 1360q45 0 77 32t32 76t-32 77q-32 32 -77 32t-77 -32q-31 -32 -31 -77q0 -44 32 -76t76 -32z" />
    <glyph glyph-name="Identity.507" unicode="&#x30d5;" 
d="M516 1182q-133 0 -266 -11v351q143 -18 266 -19h903q117 1 189 19l245 -158q-18 -37 -53 -164q-127 -494 -309 -741q-141 -190 -355 -340t-479 -236l-270 297q516 115 805 473q174 215 225 529h-901z" />
    <glyph glyph-name="Identity.508" unicode="&#x30d6;" 
d="M1655 1710l203 82q78 -113 161 -272l-202 -86q-96 186 -162 276zM449 1161q-133 0 -267 -10v350q143 -18 267 -18h903q66 0 104 4q-49 92 -98 170l201 82q85 -128 153 -271l-74 -30l148 -95q-18 -37 -53 -163q-127 -494 -310 -742q-141 -190 -355 -340t-478 -235
l-271 297q516 115 805 473q174 215 226 528h-901z" />
    <glyph glyph-name="Identity.509" unicode="&#x30d7;" 
d="M449 1483h903q78 0 147 10q-2 8 -2 27q0 104 75 179t179 75t179 -75t75 -178t-73 -177t-175 -78q-12 -37 -24 -86q-127 -494 -310 -742q-141 -190 -355 -340t-478 -235l-271 297q516 115 805 473q174 215 226 528h-901q-133 0 -267 -10v350q144 -18 267 -18zM1751 1411
q45 0 77 32t32 77q0 44 -32 76t-77 32t-77 -32t-32 -76t32 -77q32 -32 77 -32z" />
    <glyph glyph-name="Identity.510" unicode="&#x30d8;" 
d="M66 641q76 61 154 139t415 482q99 116 199 122t248 -118t472 -472q324 -350 439 -483l-269 -291q-206 266 -440 545t-346 379q-88 80 -150 -2q-31 -41 -284 -401q-53 -78 -139 -209z" />
    <glyph glyph-name="Identity.511" unicode="&#x30d9;" 
d="M53 606q76 61 154 139t416 482q98 117 198 123t249 -118t403 -401q393 -422 507 -555l-268 -290q-332 424 -424 534q-244 293 -364 400q-47 43 -83 41t-84 -66q-190 -253 -411 -590zM1753 1554q127 -176 199 -319l-213 -102q-96 188 -197 325zM1473 1438
q117 -176 192 -330l-219 -94q-98 211 -186 336z" />
    <glyph glyph-name="Identity.512" unicode="&#x30da;" 
d="M53 606q76 61 154 139t416 482q98 117 198 123t249 -118t403 -401q393 -422 507 -555l-268 -290q-332 424 -424 534q-244 293 -364 400q-47 43 -83 41t-84 -66q-190 -253 -411 -590zM1346 1268q0 116 80 196t194 80q115 0 196 -81q80 -81 80 -195t-80 -195
q-80 -80 -196 -80q-115 0 -195 80q-79 80 -79 195zM1501 1268q0 -49 35 -84t84 -35t84 35t35 84t-35 84q-35 34 -84 34t-84 -34t-35 -84z" />
    <glyph glyph-name="Identity.513" unicode="&#x30db;" 
d="M1360 743l270 148q174 -223 348 -541l-290 -160q-176 352 -328 553zM1657 1026h-443v-930q0 -96 -60 -152t-175 -57q-209 0 -356 19l-31 305q118 -23 190 -23t87 16t17 63q2 48 3 759h-492q-131 0 -211 -8v325q127 -16 211 -16h492v137q0 109 -19 197h367
q-23 -104 -23 -199v-135h441q121 0 221 14v-323q-92 8 -219 8zM455 881l282 -133q-73 -138 -193 -312t-202 -264l-268 182q104 100 211 247t170 280z" />
    <glyph glyph-name="Identity.514" unicode="&#x30dc;" 
d="M1343 721l271 147q174 -223 348 -540l-291 -160q-176 352 -328 553zM1640 1004h-442v-930q0 -96 -60 -152t-175 -57q-209 0 -357 18l-31 305q119 -22 191 -22t87 15t17 63t2 760h-491q-131 0 -211 -9v326q127 -16 211 -16h491v137q0 109 -18 196h367q-23 -104 -23 -198
v-135h440q121 0 222 14v-324q-93 9 -220 9zM438 858l283 -133q-74 -137 -194 -311t-201 -264l-269 182q104 100 211 246t170 280zM1735 1413l-195 -82q-102 201 -149 268l192 78q66 -96 152 -264zM2017 1475l-192 -82q-78 160 -154 266l193 78q83 -123 153 -262z" />
    <glyph glyph-name="Identity.515" unicode="&#x30dd;" 
d="M1343 721l271 147q174 -223 348 -540l-291 -160q-176 352 -328 553zM1640 1004h-442v-930q0 -96 -60 -152t-175 -57q-209 0 -357 18l-31 305q119 -22 191 -22t87 15t17 63t2 760h-491q-131 0 -211 -9v326q127 -16 211 -16h491v137q0 109 -18 196h367q-23 -104 -23 -198
v-135h492q-94 10 -158 79q-64 70 -64 168t71 169t173 71t173 -71t71 -166t-55 -162t-141 -84q11 2 47 5t53 5v-324q-93 9 -220 9zM1612 1548q0 -40 30 -70t70 -30q41 0 71 30q29 30 29 70t-29 71q-30 30 -71 30q-40 0 -70 -30t-30 -71zM438 858l283 -133q-74 -137 -194 -311
t-201 -264l-269 182q104 100 211 246t170 280z" />
    <glyph glyph-name="Identity.516" unicode="&#x30de;" 
d="M420 1155q-117 0 -252 -18v348q117 -23 252 -23h1087q142 0 226 27l245 -203q-70 -84 -80 -98q-115 -188 -299 -406t-372 -379q154 -154 301 -327l-293 -234q-152 203 -401 457q-254 254 -441 387l262 213q174 -133 326 -266q283 233 453 522h-1014z" />
    <glyph glyph-name="Identity.517" unicode="&#x30df;" 
d="M385 496q271 -40 675 -136t613 -170l-137 -311q-193 78 -595 170t-681 133zM487 1077q242 -39 576 -115t516 -137l-121 -311q-166 63 -500 142t-585 120zM580 1634q220 -26 590 -104t552 -141l-127 -310q-171 63 -539 147t-591 113z" />
    <glyph glyph-name="Identity.518" unicode="&#x30e0;" 
d="M1974 45l-336 -149q-39 106 -90 227q-66 -8 -642 -70t-736 -84l-57 363q174 0 243 2l31 2q176 455 340 1040q35 125 53 258l394 -80q-39 -88 -75 -190t-159 -472t-180 -530q238 23 651 72q-111 231 -194 346l311 127q106 -164 237 -420t209 -442z" />
    <glyph glyph-name="Identity.519" unicode="&#x30e1;" 
d="M1389 1645l383 -134q-45 -76 -97 -202q-117 -301 -258 -531q266 -215 479 -440l-258 -289q-188 221 -434 438q-313 -377 -739 -616l-289 258q457 219 760 582q-266 213 -535 374l215 256q250 -154 521 -348q111 184 198 443q34 96 54 209z" />
    <glyph glyph-name="Identity.520" unicode="&#x30e2;" 
d="M1087 631v-258q1 -84 51 -115t169 -31q246 0 522 29l-23 -338q-238 -12 -545 -12t-411 90t-105 278v357h-299q-78 0 -241 -10v323q178 -12 241 -12h299v301h-198q-113 0 -207 -6v307q160 -10 207 -10h993q111 0 193 10v-307q-166 6 -193 6h-453v-301h578q72 0 215 10
l2 -317q-47 6 -209 6h-586z" />
    <glyph glyph-name="Identity.521" unicode="&#x30e3;" 
d="M995 721q204 -744 250 -866l-336 -82q-15 111 -37 185t-87 326t-97 371q-285 -63 -362 -80l-76 295q151 13 366 54q-27 106 -46 171t-64 154l332 78q6 -47 34 -168l50 -178q514 99 580 113t118 39l201 -142q-69 -143 -201 -345t-236 -318l-272 135q70 66 155 169t119 169
q-74 -12 -391 -80z" />
    <glyph glyph-name="Identity.522" unicode="&#x30e4;" 
d="M524 1219q-85 319 -131 397l363 82q28 -150 60 -259q32 -108 44 -157q553 104 725 143q68 12 139 43l228 -165q-70 -155 -226 -391t-286 -390l-320 150q100 84 199 208q98 124 151 214q-33 -4 -528 -105q197 -713 236 -848q45 -141 71 -211l-368 -86q-35 170 -51 230
t-52 190q-35 131 -87 329t-87 325q-340 -72 -438 -97l-86 334q150 15 214 25t230 39z" />
    <glyph glyph-name="Identity.523" unicode="&#x30e5;" 
d="M1550 248q125 0 224 10v-319q-135 6 -220 6h-1054q-90 0 -219 -6v321q115 -12 219 -12h618q61 360 74 518h-500q-70 0 -227 -10v325q100 -14 225 -14h471q131 0 180 27l238 -117q-13 -37 -25 -120t-96 -609h92z" />
    <glyph glyph-name="Identity.524" unicode="&#x30e6;" 
d="M1708 391q82 0 203 19v-361q-90 12 -203 12h-1356q-106 0 -215 -12v361q102 -18 215 -19h803q100 596 107 723h-652q-123 0 -252 -10v348q139 -16 250 -16h586q158 0 225 30l258 -129q-19 -59 -39 -213t-118 -733h188z" />
    <glyph glyph-name="Identity.525" unicode="&#x30e7;" 
d="M584 -94q-76 0 -181 -6v301q70 -8 183 -8h747v219h-604q-195 0 -248 -4v290q92 -6 248 -6h604v195h-631q-164 0 -278 -8v297q102 -10 278 -11h766q104 0 174 4q-2 -30 -2 -157v-1030l2 -156h-311l2 80h-749z" />
    <glyph glyph-name="Identity.526" unicode="&#x30e8;" 
d="M680 926h741v276h-774q-190 0 -338 -8v322q156 -12 338 -13h920q133 0 196 6q-2 -36 -2 -190v-1239l2 -170h-344l2 100h-925q-123 0 -213 -8v328q86 -8 215 -8h923v303h-741l-297 -2v313q129 -10 297 -10z" />
    <glyph glyph-name="Identity.527" unicode="&#x30e9;" 
d="M678 1585h776q152 0 242 12v-319q-115 8 -246 8h-772q-147 0 -229 -8v319q86 -12 229 -12zM516 788q-145 0 -260 -10v320q164 -14 260 -15h975q117 0 172 25l219 -137q-33 -61 -45 -99q-121 -352 -305 -559q-291 -326 -731 -452l-248 280q449 94 704 351q129 129 191 296
h-932z" />
    <glyph glyph-name="Identity.528" unicode="&#x30ea;" 
d="M1667 1389v-447q0 -293 -62 -470q-62 -176 -173 -292t-251 -194t-268 -119l-260 274q334 74 504 250q98 105 132 229t34 345v424q0 115 -14 221h366q-8 -123 -8 -221zM377 1430q0 93 -8 161h366q-8 -102 -8 -161v-697q0 -84 8 -190h-368l10 192v695z" />
    <glyph glyph-name="Identity.529" unicode="&#x30eb;" 
d="M1024 217v1176q0 91 -12 163l-6 27h368q-16 -92 -16 -192v-1008q116 47 238 153t216 238l191 -274q-121 -152 -317 -308t-375 -247q-15 -7 -99 -68l-206 170q18 78 18 170zM354 -113l-303 201q240 166 344 483q59 174 60 801q0 125 -23 211h365q-16 -109 -17 -207
q0 -655 -59 -887q-95 -356 -367 -602z" />
    <glyph glyph-name="Identity.530" unicode="&#x30ec;" 
d="M399 1319q0 133 -26 258h389q-23 -147 -23 -258v-1010q244 76 535 259t479 407l176 -283q-397 -465 -1184 -741q-88 -29 -141 -66l-235 205q31 66 30 152v1077z" />
    <glyph glyph-name="Identity.531" unicode="&#x30ed;" 
d="M1825 1257v-999l4 -305h-344l4 108h-914v-108h-342q6 197 7 309v995q0 160 -4 224q168 -4 235 -4h1143q133 0 215 2q-4 -68 -4 -222zM1491 1159h-918v-780h918v780z" />
    <glyph glyph-name="Identity.532" unicode="&#x30ee;" 
d="M666 864v-219q0 -109 6 -170h-340q10 98 10 170v354q0 66 -8 160q86 -6 225 -6h815q130 0 193 16l223 -139q-23 -37 -47 -141q-98 -487 -250 -676q-229 -289 -633 -449l-258 265q387 98 586 333q166 197 198 502h-720z" />
    <glyph glyph-name="Identity.533" unicode="&#x30ef;" 
d="M557 1202v-303q0 -117 8 -188h-366q12 139 12 188v430q0 92 -10 191q139 -8 268 -9h938q143 1 231 17l240 -152q-25 -63 -43 -162q-63 -338 -127 -509q-55 -137 -125 -248q-127 -199 -328 -351t-450 -241l-279 285q217 51 427 176t321 301q150 246 182 575h-899z" />
    <glyph glyph-name="Identity.534" unicode="&#x30f0;" 
d="M1505 592h199q96 0 203 16v-329q-59 8 -203 8h-199v-221q0 -72 8 -195h-339q8 119 8 190v226h-811q-141 0 -213 -8v329q90 -16 213 -16h170v452h-97q-143 0 -215 -8v320q90 -16 215 -17h738v136q0 61 -8 167h337q-6 -94 -6 -167v-136h154q92 0 203 17v-320q-61 8 -203 8
h-154v-452zM854 592h328v452h-328v-452z" />
    <glyph glyph-name="Identity.535" unicode="&#x30f1;" 
d="M1163 344h553q82 0 207 18v-364q-92 12 -207 12h-1351q-109 0 -220 -12v364q104 -18 220 -18h454v420q0 193 -12 276h373q-16 -133 -17 -278v-418zM485 1479h1069q100 0 181 24l204 -139q-47 -74 -57 -94q-57 -129 -177 -301t-226 -271l-271 179q164 142 254 292h-952
l-256 -12v336q125 -14 231 -14z" />
    <glyph glyph-name="Identity.536" unicode="&#x30f2;" 
d="M555 684q-121 0 -221 -10v311q106 -10 209 -10h872q29 104 51 248h-938q-129 0 -247 -13v336q184 -18 245 -18h887q141 -1 221 22l246 -153q-27 -63 -37 -103q-119 -538 -257 -760t-348 -392t-542 -285l-258 272q262 61 484 197t342 309l30 49h-739z" />
    <glyph glyph-name="Identity.537" unicode="&#x30f3;" 
d="M207 229q750 101 1236 623q204 219 312 446l193 -350q-123 -219 -332 -423t-465 -353q-358 -211 -733 -270zM510 1589q117 -80 282 -214t250 -226l-254 -260q-82 90 -242 230t-272 218z" />
    <glyph glyph-name="Identity.538" unicode="&#x30f4;" 
d="M1145 1319h299q117 0 186 24l215 -131q-18 -55 -45 -184q-61 -322 -185 -560t-349 -400q-225 -164 -502 -236l-258 299q513 90 747 408q127 176 174 487h-944v-262q0 -109 9 -168h-342q10 98 10 195v352q0 123 -10 186q94 -10 219 -10h428v137q0 94 -19 209h383
q-16 -137 -16 -209v-137zM1733 1430l-195 -82q-113 219 -158 284l193 78q66 -96 160 -280zM2003 1513l-193 -81q-86 176 -161 282l192 78q84 -123 162 -279z" />
    <glyph glyph-name="Identity.539" unicode="&#x30f5;" 
d="M1305 -147q-41 0 -287 12l-33 301q168 -27 220 -27q51 1 71 13q56 36 76 229t20 354h-311q-47 -305 -174 -521t-371 -388l-264 211q137 66 242 170q215 215 268 528h-199q-129 0 -233 -8v299q117 -12 233 -12h225q9 184 -10 295h328q-6 -33 -12 -162t-7 -133h269
q67 0 135 12l192 -90q-12 -53 -12 -90q-14 -635 -106 -856q-57 -137 -260 -137z" />
    <glyph glyph-name="Identity.540" unicode="&#x30f6;" 
d="M1587 997q123 0 193 13v-301q-68 8 -193 8h-221q-57 -647 -530 -936l-306 203q111 49 197 116q276 227 324 617h-314q-147 -238 -280 -355l-289 168q180 141 302 329t159 441l344 -71q-39 -93 -54 -133t-40 -99h708z" />
    <glyph glyph-name="Identity.541" unicode="&#x30fb;" 
d="M737 778q0 119 84 203t203 84t203 -84t84 -203t-84 -203q-84 -83 -203 -83t-203 84t-84 202z" />
    <glyph glyph-name="Identity.542" unicode="&#x30fc;" 
d="M530 604q-186 0 -354 -12v391q190 -14 354 -14h1088q45 0 252 14v-391l-252 12h-1088z" />
    <glyph glyph-name="Identity.543" unicode="&#x30fd;" 
d="M784 1272q180 -150 447 -430q266 -281 395 -463l-305 -242q-131 207 -375 476t-448 436z" />
    <glyph glyph-name="Identity.544" unicode="&#x30fe;" 
d="M733 1255q180 -150 447 -430q266 -281 395 -463l-305 -241q-131 207 -375 476t-449 435zM1526 1513q90 -131 184 -315l-207 -86q-125 233 -186 315zM1241 1423q74 -106 184 -315l-211 -86q-145 270 -178 319z" />
    <glyph glyph-name="Identity.545" unicode="&#x4e00;" 
d="M72 961h1908v-326h-1908v326z" />
    <glyph glyph-name="Identity.546" unicode="&#x4e01;" 
d="M1948 1614v-311h-682v-1094q0 -145 -38 -219t-132 -113q-147 -61 -516 -61q-35 166 -146 352q186 -10 402 -10q39 2 55 14t16 43v1088h-805v311h1846z" />
    <glyph glyph-name="Identity.547" unicode="&#x4e03;" 
d="M1120 164h346q102 0 135 82q32 82 52 370q57 -40 147 -82t156 -59q-29 -346 -123 -478t-340 -132h-403q-258 0 -351 96q-92 96 -92 365v434l-524 -76l-47 303l571 84v633h328v-586l975 144l47 -310l-1022 -145v-483q0 -109 23 -135q24 -25 122 -25z" />
    <glyph glyph-name="Identity.548" unicode="&#x4e07;" 
d="M1933 1327h-1065q-2 -92 -14 -287h926q-2 -90 -6 -127q-23 -469 -54 -680t-85 -275t-110 -89q-57 -25 -147 -37t-350 -4q-12 158 -106 293q137 -12 335 -12q66 0 99 28q72 66 100 617h-637q-53 -305 -187 -542t-394 -400q-36 61 -96 131t-119 114q145 83 269 222
q72 80 155 268q40 87 66 248t31 290t9 242h-436v291h1816v-291z" />
    <glyph glyph-name="Identity.549" unicode="&#x4e08;" 
d="M1944 1108h-553q-37 -524 -244 -793q303 -168 813 -217q-45 -47 -97 -133t-83 -153q-549 70 -869 280q-240 -166 -649 -262q-20 59 -72 137q-51 78 -100 127q365 78 578 209q-221 244 -365 688l285 68q100 -348 303 -553q152 207 174 602h-956v291h966q2 100 2 317h330
q0 -113 -4 -317h541v-291z" />
    <glyph glyph-name="Identity.550" unicode="&#x4e09;" 
d="M125 219h1790v-305h-1790v305zM387 903h1255v-303h-1255v303zM240 1556h1568v-305h-1568v305z" />
    <glyph glyph-name="Identity.551" unicode="&#x4e0a;" 
d="M1120 209h850v-301h-1890v301h719v1520h321v-566h705v-301h-705v-653z" />
    <glyph glyph-name="Identity.552" unicode="&#x4e0b;" 
d="M1948 1300h-807v-301l51 60q492 -248 684 -410l-223 -274q-141 135 -512 356v-919h-322v1488h-717v302h1846v-302z" />
    <glyph glyph-name="Identity.553" unicode="&#x4e0d;" 
d="M1190 -190h-328v925q-276 -285 -602 -454q-86 145 -205 272q258 119 479 321q220 203 365 439h-772v305h1798v-305h-631q-53 -92 -104 -170v-195l151 127q16 -12 198 -154q342 -266 474 -413l-256 -229q-135 172 -567 534v-1003z" />
    <glyph glyph-name="Identity.554" unicode="&#x4e0e;" 
d="M1962 602v-285h-406q-47 -301 -124 -389q-48 -57 -102 -81q-54 -23 -140 -35t-334 -5q-12 160 -106 299q131 -12 321 -12q63 0 103 33t71 190h-1155v285h1196q6 59 14 172h-632l-17 -78l-315 25q117 451 194 1032l312 -29q-8 -51 -35 -215h924v-284h-973
q-10 -47 -33 -176h899q-10 -230 -35 -447h373z" />
    <glyph glyph-name="Identity.555" unicode="&#x4e11;" 
d="M1968 645h-362q-23 -322 -39 -493h381v-287h-1846v287h361q41 229 78 493h-463v295h500q25 184 45 416h-353v291h1383q-10 -360 -31 -707h346v-295zM1333 1356h-405q-16 -156 -47 -416h434q12 207 18 416zM772 152h481q25 215 43 493h-452q-39 -282 -72 -493z" />
    <glyph glyph-name="Identity.556" unicode="&#x4e14;" 
d="M1700 178h258v-291h-1864v291h301v1469h1305v-1469zM1389 678v205h-697v-205h697zM1389 1360h-697v-203h697v203zM692 391v-213h697v213h-697z" />
    <glyph glyph-name="Identity.557" unicode="&#x4e16;" 
d="M1692 365h-301v75h-211v-75h-301v616h-222v-770h1260v-287h-1260v-119h-307v1176h-287v287h287v418h307v-418h222v461h301v-461h211v442h301v-442h299v-287h-299v-616zM1180 717h211v264h-211v-264z" />
    <glyph glyph-name="Identity.558" unicode="&#x4e18;" 
d="M1520 170h460v-293h-1908v293h305v1446l272 -55q526 70 875 182l219 -258q-453 -129 -1059 -195v-227h1174v-291h-338v-602zM684 772v-602h528v602h-528z" />
    <glyph glyph-name="Identity.559" unicode="&#x4e19;" 
d="M1919 1346h-737v-207h702v-998q0 -115 -30 -178t-103 -96q-109 -49 -422 -49q-23 152 -96 293q80 -6 297 -7q29 0 41 10t12 33v261l-180 -211q-100 113 -371 313q-133 -217 -385 -360q-57 82 -176 190v-530h-299v1329h684v207h-735v292h1798v-292zM471 860v-452
q303 160 365 452h-365zM1583 860h-418q-12 -57 -20 -88q305 -194 438 -315v403z" />
    <glyph glyph-name="Identity.560" unicode="&#x4e1e;" 
d="M1178 461q0 -103 -27 -159t-94 -87q-104 -43 -377 -43q-16 125 -86 264q86 -4 240 -4q45 0 45 37v838h157q66 55 125 118h-794v258h1032l63 15l197 -152q-174 -193 -348 -336q41 -90 100 -186q182 145 293 276l268 -194q-260 -195 -405 -285q201 -215 461 -321
q-50 -45 -112 -122t-99 -140q-397 207 -639 673v-450zM125 -129v264h1798v-264h-1798zM115 952v258h487l51 11l189 -82q-76 -313 -228 -543t-352 -358q-36 48 -108 114t-121 97q301 164 448 503h-366z" />
    <glyph glyph-name="Identity.561" unicode="&#x4e21;" 
d="M1589 94v807h-428v-436h90v356h260v-700h-260v88h-467v-143h-245v755h245v-356h86v436h-415v-1100h-289v1377h704v151h-780v287h1872v-287h-801v-151h721v-1088q0 -100 -25 -156q-26 -55 -90 -86q-98 -49 -358 -45q-23 129 -94 256q162 -11 229 -4q45 0 45 39z" />
    <glyph glyph-name="Identity.562" unicode="&#x4e26;" 
d="M201 924l268 67q131 -313 168 -614l-289 -76q-8 125 -50 301t-97 322zM1397 182h561v-309h-1864v309h561v938h-526v293h387q-55 133 -123 234l269 100q121 -166 167 -315l-45 -19h447q113 182 164 342l336 -86q-78 -135 -160 -256h348v-293h-522v-729q111 285 166 613
l323 -72q-115 -381 -223 -627l-266 68v-191zM952 1120v-938h146v938h-146z" />
    <glyph glyph-name="Identity.563" unicode="&#x4e2d;" 
d="M1178 1401h708v-1065h-313v96h-395v-627h-316v627h-393v-106h-299v1075h692v350h316v-350zM469 725h393v383h-393v-383zM1178 725h395v383h-395v-383z" />
    <glyph glyph-name="Identity.564" unicode="&#x4e32;" 
d="M1180 786h712v-753h-327v78h-385v-308h-324v308h-373v-78h-311v753h684v99h-598v643h598v221h324v-221h624v-643h-624v-99zM1477 1272h-297v-131h297v131zM565 1141h291v131h-291v-131zM483 373h373v143h-373v-143zM1180 373h385v143h-385v-143z" />
    <glyph glyph-name="Identity.565" unicode="&#x4e38;" 
d="M694 1745h322q-6 -412 -6 -418h592v-1094q0 -72 6 -90t30 -18h68q29 0 39 71t14 300q49 -39 132 -78t147 -56q-16 -296 -81 -412t-218 -116h-160q-164 0 -226 85t-63 314v799h-301q-25 -238 -76 -409q197 -139 295 -238l-225 -246q-80 86 -192 178q-178 -322 -539 -514
q-33 59 -94 129t-121 113q346 170 500 469q-154 113 -312 213l203 211q6 -4 211 -131q25 125 35 225h-516v295h532q4 156 4 418z" />
    <glyph glyph-name="Identity.566" unicode="&#x4e39;" 
d="M1962 883v-285h-246v-463q0 -121 -30 -185t-107 -97q-111 -51 -461 -52q-27 152 -104 289q102 -8 340 -8q35 2 48 14t13 43v459h-774q-70 -539 -375 -791q-35 45 -106 113q-72 68 -119 96q242 201 301 582h-252v285h272v792h1354v-792h246zM662 883h753v518h-753v-518z
M752 1212l209 166q242 -190 337 -301l-225 -186q-73 100 -321 321z" />
    <glyph glyph-name="Identity.567" unicode="&#x4e3b;" 
d="M1190 160h764v-293h-1854v293h760v336h-559v286h559v303h-676v291h764q-127 111 -274 211l248 174q276 -168 405 -303l-113 -82h639v-291h-663v-303h559v-286h-559v-336z" />
    <glyph glyph-name="Identity.568" unicode="&#x4e43;" 
d="M829 1352v-82q0 -1036 -567 -1473q-37 57 -106 137q-70 80 -121 119q485 360 485 1221v78h-368v290h1355q-18 -229 -51 -530h510q-4 -94 -8 -133q-27 -492 -64 -720t-104 -306q-92 -104 -256 -123q-100 -14 -369 -6q-4 68 -36 156t-76 151q145 -12 356 -12q70 0 102 28
q82 74 121 678h-213q-14 -111 -20 -145l-316 27q47 268 80 645h-334z" />
    <glyph glyph-name="Identity.569" unicode="&#x4e45;" 
d="M1284 1466l219 -98q-76 -305 -203 -561q104 -242 288 -432t427 -293q-53 -45 -117 -126t-100 -144q-424 211 -680 686q-332 -473 -831 -693q-37 61 -109 145t-125 124q371 143 640 416t407 661h-373q-188 -350 -426 -561q-41 45 -126 116t-142 109q201 147 351 393
q151 246 232 543l328 -76q-29 -98 -78 -223h363z" />
    <glyph glyph-name="Identity.570" unicode="&#x4e4b;" 
d="M1446 -160q-326 0 -549 71t-377 255q-98 -205 -198 -359l-293 185q109 122 213 318t161 376l302 -108q-6 -14 -52 -121q27 -53 66 -99q197 150 384 347t322 389h-1239v290h680v367h308v-367h452l60 17l227 -144q-166 -285 -414 -569t-516 -498q178 -59 485 -59
q240 -4 533 4q-31 -49 -61 -138t-42 -157h-452z" />
    <glyph glyph-name="Identity.571" unicode="&#x4e4d;" 
d="M1960 1141h-905v-183h770v-284h-770v-187h819v-290h-819v-392h-316v1336h-125q-137 -250 -284 -422q-113 98 -277 188q147 143 277 371t211 471l315 -82q-43 -115 -96 -235h1200v-291z" />
    <glyph glyph-name="Identity.572" unicode="&#x4e4e;" 
d="M1608 815l-248 90q115 221 170 447l323 -101q-173 -327 -245 -436zM1968 803v-307h-758v-334q0 -129 -34 -197t-117 -100q-133 -55 -475 -55q-33 156 -125 309q139 -8 362 -8q35 0 50 12t16 43v330h-801v307h336q-31 158 -156 405l254 95q133 -225 174 -392l-272 -108
h465v545q-274 -23 -619 -29q-10 125 -71 270q911 33 1480 162l146 -274q-246 -57 -613 -99v-575h758z" />
    <glyph glyph-name="Identity.573" unicode="&#x4e4f;" 
d="M1384 -164q-324 0 -536 60t-359 221q-100 -176 -186 -289l-260 178q96 94 191 246t153 293l279 -94l-39 -78q27 -43 57 -74q375 219 649 520h-1089v283h622v260q-283 -23 -637 -29q-14 131 -71 266q946 23 1489 152l225 -248q-293 -72 -698 -114v-287h391l55 14l223 -145
q-152 -221 -380 -436t-482 -383q160 -37 422 -37q317 -6 608 6q-31 -47 -61 -133t-39 -152h-527z" />
    <glyph glyph-name="Identity.574" unicode="&#x4e57;" 
d="M1870 362h-506q260 -188 633 -280q-53 -47 -118 -129t-101 -148q-340 117 -611 359v-352h-301v352q-264 -240 -606 -361q-92 152 -205 254q371 100 631 305h-496v252h238v101h-319v254h319v96h-199v252h637v72q-324 -20 -598 -23q-10 127 -67 252q897 23 1429 133
l191 -244q-276 -57 -654 -94v-96h658v-252h-215v-96h334v-254h-334v-101h260v-252zM1319 614v101h-152v-101h152zM1319 1065h-152v-96h152v96zM717 1065v-96h149v96h-149zM717 715v-101h149v101h-149z" />
    <glyph glyph-name="Identity.575" unicode="&#x4e59;" 
d="M725 211h754q67 0 103 30q80 67 91 408q143 -76 303 -110q-18 -257 -80 -397t-168 -191t-290 -51h-688q-295 0 -443 109q-147 110 -147 304q0 66 11 113t57 128q127 224 780 744h-811v312h1265l70 14l213 -156q-25 -25 -51 -38q-816 -599 -1034 -821q-112 -114 -144 -166
t-31 -101q0 -131 240 -131z" />
    <glyph glyph-name="Identity.576" unicode="&#x4e5d;" 
d="M1597 123h97q35 0 46 59t17 262q111 -86 279 -129q-20 -270 -88 -375t-222 -106h-188q-170 0 -236 84t-65 313v730h-315q-63 -620 -380 -937q-124 -124 -296 -221q-33 59 -95 131t-118 113q283 150 409 372t160 542h-461v301h480q2 143 2 458h327q-4 -381 -8 -458h606
v-1031q0 -74 8 -91t41 -17z" />
    <glyph glyph-name="Identity.577" unicode="&#x4e5e;" 
d="M782 160h742q80 0 114 48t43 208q123 -70 287 -103q-18 -186 -72 -284t-147 -133q-92 -35 -256 -35h-686q-256 0 -387 91t-131 253q0 59 14 103q39 122 226 258q114 83 296 190h-372v245q-66 -74 -142 -143q-117 121 -258 219q154 115 293 296t223 376l314 -98
q-41 -84 -74 -144h1124v-293h-1310q-68 -94 -138 -174h914l63 11l217 -160q-25 -25 -55 -41q-449 -215 -682 -345q-234 -130 -284 -178t-50 -91q0 -76 174 -76z" />
    <glyph glyph-name="Identity.578" unicode="&#x4e5f;" 
d="M893 113h567q135 0 178 54t66 247q123 -80 276 -111q-35 -262 -135 -359t-356 -98h-602q-299 0 -403 90t-105 351v481l-260 -84l-80 272l340 107v543h291v-451l258 82v510h295v-416l311 99l37 22l57 39l211 -90l-12 -51q-10 -604 -57 -750t-171 -188q-98 -33 -266 -29
q-4 57 -25 141q-22 84 -44 131q51 -6 157 -6q61 0 83 80t30 412l-311 -101v-759h-295v663l-258 -82v-577q0 -115 36 -143t187 -29z" />
    <glyph glyph-name="Identity.579" unicode="&#x4e71;" 
d="M1544 96h119q39 0 52 73t22 302q51 -39 130 -76t138 -51q-20 -291 -87 -409t-224 -117h-201q-174 0 -237 86q-62 86 -62 321v1487h295v-1489q0 -83 9 -105t46 -22zM758 1188h389v-264h-389v-230h346v-815h-291v29h-403v-53h-277v839h334v230h-418v264h418v201
q-158 -18 -311 -31q-25 127 -82 235q526 53 846 158l213 -231q-164 -49 -375 -86v-246zM813 168v266h-403v-266h403z" />
    <glyph glyph-name="Identity.580" unicode="&#x4e73;" 
d="M1538 94h119q41 0 54 78t22 328q53 -41 135 -81t143 -57q-18 -305 -87 -429t-236 -123h-205q-180 0 -246 90t-66 329v1475h310v-1477q0 -89 9 -111t48 -22zM739 86q1 -100 -23 -156t-87 -88q-94 -45 -332 -45q-18 129 -90 271q74 -4 201 -5q37 2 36 31v209
q-150 -11 -368 -29l-27 283l395 23v129h68q25 25 74 82h-447v260h2q-18 119 -84 276l222 57q68 -143 96 -282l-180 -51h608l-101 39q105 168 166 358l273 -98q-143 -252 -205 -336l121 -105q-193 -197 -318 -299v-10q71 4 353 25v-269q-166 -17 -353 -30v-240zM692 1126
l-248 -41q0 115 -43 291l236 33q49 -148 55 -283zM934 1745l174 -246q-393 -88 -979 -110q-12 113 -74 241q531 31 879 115z" />
    <glyph glyph-name="Identity.581" unicode="&#x4e7e;" 
d="M1456 111h227q45 0 63 47q17 47 21 213q125 -68 250 -92q-18 -267 -95 -361t-247 -94h-225q-195 0 -291 79t-96 214q0 98 59 224t275 411h-250v161q-41 45 -146 136v-574h-307v-86h334v-264h-334v-320h-288v320h-347v264h347v86h-287v758h287v86h-322v258h322v174h288
v-174h322v-258h-322v-86h307v-16q150 209 213 532l295 -59q-33 -139 -65 -230h534v-272h-647q-55 -104 -102 -172h424l65 4l191 -76q-16 -43 -27 -57q-422 -487 -491 -627q-27 -53 -27 -94q0 -55 92 -55zM727 684v74h-346v-74h346zM727 952v72h-346v-72h346z" />
    <glyph glyph-name="Identity.582" unicode="&#x4e80;" 
d="M1819 729v-524q90 -45 182 -66q-23 -190 -97 -259t-270 -68h-381q-209 0 -293 58t-96 214h-348v-102h-285v747h631v53h-538v373l-33 -18q-35 51 -98 115t-113 96q342 156 500 413l315 -61q-4 -6 -41 -60h326l41 11l192 -123q-43 -72 -104 -152h405v-594h-557v-53h662z
M1419 944v60h-262v-60h262zM1419 1155v59h-262v-59h262zM862 1155v59h-258v-59h258zM1032 1436h-346q-41 -41 -61 -60h366q23 31 41 60zM604 944h258v60h-258v-60zM1530 549h-373v-64h373v64zM1530 326h-373v-60h373v60zM862 549h-346v-64h346v64zM516 326v-60h346v60h-346z
M1290 18h318q88 0 116 66h-563q9 -42 35 -54t94 -12z" />
    <glyph glyph-name="Identity.583" unicode="&#x4e86;" 
d="M1200 139q0 -121 -35 -187t-118 -97q-129 -49 -457 -50q-31 150 -121 306q131 -8 352 -9q35 0 48 10t14 35v902h157q141 109 291 274h-1122v295h1372l70 18l235 -174q-352 -434 -686 -659v-664z" />
    <glyph glyph-name="Identity.584" unicode="&#x4e88;" 
d="M1194 676v-561q0 -115 -31 -174t-112 -91q-119 -45 -424 -45q-27 139 -109 287q111 -6 311 -6q31 2 42 9t12 30v551h-795v282h842q-182 70 -350 127l147 226q109 -33 291 -92q90 59 192 143h-919v272h1204l68 17l213 -170q-217 -213 -441 -371q55 -18 148 -55l-60 -97
h273l51 21l246 -105q-125 -311 -310 -557l-256 148q51 74 119 211h-352z" />
    <glyph glyph-name="Identity.585" unicode="&#x4e89;" 
d="M1995 870v-268h-221v-448h-304v75h-305v-114q1 -115 -27 -174t-102 -91q-113 -49 -399 -49q-23 129 -105 285q102 -6 277 -6q29 2 40 10t11 31v108h-555v269h555v104h-803v268h803v99h-477v96q-59 -45 -111 -78q-37 51 -101 115q-65 63 -116 94q379 211 563 553l318 -61
q-20 -35 -66 -105h404l49 12l213 -147q-63 -88 -186 -221h424v-357h221zM1073 1329h-401q-51 -57 -99 -102h412q63 71 88 102zM1165 969v-99h305v99h-305zM1470 498v104h-305v-104h305z" />
    <glyph glyph-name="Identity.586" unicode="&#x4e8b;" 
d="M1985 594v-223h-216v-357h-303v84h-299v-24q0 -100 -26 -152q-27 -51 -92 -82q-98 -41 -377 -41q-25 113 -97 230q84 -4 238 -4q29 2 40 12t11 37v24h-600v211h600v62h-798v223h798v55h-585v197h585v61h-540v434h540v62h-747v231h747v117h303v-117h766v-231h-766v-62h566
v-434h-566v-61h602v-252h216zM1427 1159h-260v-69h260v69zM608 1090h256v69h-256v-69zM1167 649v-55h299v55h-299zM1466 309v62h-299v-62h299z" />
    <glyph glyph-name="Identity.587" unicode="&#x4e8c;" 
d="M109 301h1835v-344h-1835v344zM279 1475h1495v-330h-1495v330z" />
    <glyph glyph-name="Identity.588" unicode="&#x4e91;" 
d="M90 739v310h1872v-310h-938q-106 -262 -236 -512q223 6 639 23q-80 127 -182 252l291 139q134 -151 256 -337t190 -333l-311 -168q-29 78 -74 164q-836 -49 -1423 -76l-20 316q199 4 286 8q117 254 193 524h-543zM1749 1632v-307h-1421v307h1421z" />
    <glyph glyph-name="Identity.589" unicode="&#x4e92;" 
d="M1974 164v-277h-1890v277h1092q16 98 36 225h-532l-25 -94l-327 24q145 489 243 1059h-424v277h1772v-277h-1024q-25 -127 -39 -192h774q-59 -578 -129 -1022h473zM741 653h508q10 68 33 269h-481q-25 -117 -60 -269z" />
    <glyph glyph-name="Identity.590" unicode="&#x4e94;" 
d="M1640 190h312v-294h-1846v294h429q57 244 106 490h-360v293h415q4 27 22 137t27 166h-526v295h1606v-295h-744q-12 -78 -53 -303h612v-783zM1331 680h-360q-57 -287 -103 -490h463v490z" />
    <glyph glyph-name="Identity.591" unicode="&#x4e95;" 
d="M1962 737v-303h-414v-629h-317v629h-434q-94 -418 -408 -645q-45 51 -128 119t-144 102q248 164 338 424h-365v303h426q8 104 8 234v108h-379v299h379v367h318v-367h389v373h317v-373h359v-299h-359v-342h414zM1231 737v342h-389v-110q0 -115 -6 -232h395z" />
    <glyph glyph-name="Identity.592" unicode="&#x4e98;" 
d="M401 1266h1272v-1012h-1272v1012zM696 1004v-121h666v121h-666zM696 641v-125h666v125h-666zM96 143h1864v-274h-1864v274zM162 1649h1753v-275h-1753v275z" />
    <glyph glyph-name="Identity.593" unicode="&#x4e99;" 
d="M1284 784l-174 -221q-102 96 -324 207l164 201q221 -99 334 -187zM1212 408l-188 -232q-98 104 -328 238l176 209q225 -113 340 -215zM1966 162v-273h-1882v273h1141q55 334 100 825h-530q-88 -440 -152 -694l-334 16q137 485 234 1067h-406v275h1780v-275h-1049
l-24 -131h813q-47 -600 -117 -1083h426z" />
    <glyph glyph-name="Identity.594" unicode="&#x4e9b;" 
d="M84 -156v297h1882v-297h-1882zM158 1548h272v-653l82 6v850h295v-287h219v-264h-219v-272l237 22l7 -270q-312 -39 -967 -109l-31 293l105 8v676zM326 274v285h1411v-285h-1411zM1655 637h-238q-195 0 -261 78t-66 293v743h299v-334q178 63 325 137l219 -237
q-229 -90 -544 -170v-137q0 -62 12 -78t63 -17h162q45 0 60 42q14 42 22 190q43 -33 123 -67t145 -48q-25 -227 -94 -311t-227 -84z" />
    <glyph glyph-name="Identity.595" unicode="&#x4e9c;" 
d="M1372 141h613v-270h-1919v270h573v244h-150v-41h-282v858h432v182h-522v271h1816v-271h-561v-182h457v-858h-297v41h-160v-244zM1532 942h-160v-297h160v297zM1083 645v297h-155v-297h155zM928 1384v-182h155v182h-155zM489 645h150v297h-150v-297zM928 385v-244h155v244
h-155z" />
    <glyph glyph-name="Identity.596" unicode="&#x4ea1;" 
d="M1970 1069h-1362v-727q0 -102 39 -141t156 -39h686q227 0 373 26q14 -174 36 -299q-94 -25 -419 -24h-643q-295 0 -417 104t-122 387v713h-217v303h780v377h307v-377h803v-303z" />
    <glyph glyph-name="Identity.597" unicode="&#x4ea4;" 
d="M111 1241v291h755v223h308v-223h763v-291h-440q344 -240 477 -387l-268 -205q-55 72 -150 156q-115 -258 -296 -457q295 -195 741 -260q-109 -109 -195 -285q-492 94 -788 334q-311 -221 -778 -336q-27 55 -85 143t-104 138q457 82 748 272q-141 174 -258 432
q-125 -100 -217 -157q-129 143 -252 231q141 68 278 170t223 211h-462zM608 1241l283 -108q-113 -145 -313 -318l243 72q78 -195 207 -338q133 152 209 348l317 -90q-150 139 -360 293l192 141h-778z" />
    <glyph glyph-name="Identity.598" unicode="&#x4ea5;" 
d="M1956 33l-297 -226q-133 119 -471 328q-387 -209 -944 -328q-63 156 -176 289q1112 201 1505 766l285 -160q-156 -209 -373 -374q338 -191 471 -295zM96 1266v278h760v207h315v-207h779v-278h-871l64 -29q-168 -168 -357 -319q51 -31 117 -82q276 161 432 376l275 -143
q-428 -553 -1344 -807q-68 145 -180 268q281 66 489 148q-156 121 -391 262l232 199q100 -55 133 -74q90 82 194 201h-647z" />
    <glyph glyph-name="Identity.599" unicode="&#x4ea6;" 
d="M1942 1155h-510v-258l272 119q244 -403 309 -680l-301 -139q-53 287 -280 700v-754q0 -119 -27 -183t-96 -99q-111 -55 -389 -56q-16 135 -95 310q92 -6 246 -6q47 2 47 38v1008h-127v-188q0 -575 -242 -915q-110 -153 -274 -271q-35 51 -104 120q-70 69 -125 105
q114 78 198 179t130 197q114 237 114 591v182h-582v293h768v305h312v-305h756v-293zM324 995l313 -65q-53 -203 -145 -389t-201 -308q-109 96 -271 181q102 98 182 252t122 329z" />
    <glyph glyph-name="Identity.600" unicode="&#x4ea8;" 
d="M1171 1593h777v-254h-1846v254h754v158h315v-158zM1679 1274v-463h-1294v463h1294zM1362 1001v82h-678v-82h678zM1186 90q0 -113 -37 -169t-149 -89t-443 -29q-27 127 -104 269q231 -12 356 -6q59 0 59 36v332h219q74 33 111 51h-1018v248h1405l68 15l202 -181
q-340 -217 -669 -344v-133z" />
    <glyph glyph-name="Identity.601" unicode="&#x4eab;" 
d="M1956 414v-250h-778v-98q0 -104 -35 -156t-119 -78q-111 -31 -432 -31q-29 121 -100 244q104 -6 313 -6q31 2 43 10t12 31v84h-768v250h768v65h127q80 29 135 56h-825v227h1206l68 12l182 -162q-190 -117 -385 -198h588zM1712 821h-1360v473h1360v-473zM649 1096v-76h746
v76h-746zM1917 1614v-248h-1790v248h729v137h315v-137h746z" />
    <glyph glyph-name="Identity.602" unicode="&#x4eac;" 
d="M1352 303l274 131q270 -285 363 -432l-297 -147q-88 165 -340 448zM1729 487h-551v-381q0 -112 -28 -170t-116 -94t-368 -37q-18 135 -93 285q261 -12 282 2q9 6 9 25v370h-532v689h1397v-689zM629 922v-181h782v181h-782zM371 430l303 -96q-180 -287 -393 -459
q-106 94 -244 174q99 69 191 177t143 204zM1935 1577v-285h-1826v285h749v174h320v-174h757z" />
    <glyph glyph-name="Identity.603" unicode="&#x4ead;" 
d="M1171 1608h779v-242h-1846v242h752v143h315v-143zM375 1307h1304v-461h-1304v461zM1362 1036v82h-690v-82h690zM92 348v449h1854v-449h-275v227h-1317v-227h-262zM428 264v238h1182v-238h-402v-170q0 -113 -36 -170t-140 -88t-438 -31q-27 129 -105 271q109 -6 334 -6
q33 2 45 9t13 30v155h-453z" />
    <glyph glyph-name="Identity.604" unicode="&#x4eae;" 
d="M1483 78h143q41 0 55 36t21 158q100 -74 276 -112q-24 -201 -92 -274t-227 -72h-232q-205 0 -275 72t-69 264v376h328v-374q0 -49 12 -62q13 -12 60 -12zM590 535h311q-13 -196 -38 -283q-25 -88 -57 -139t-83 -103q-142 -144 -522 -211q-18 57 -65 135q-46 78 -89 123
q256 33 362 94q58 35 92 65q58 52 79 190q6 45 10 129zM354 563v-227h-262v448h1854v-448h-275v227h-1317zM1679 844h-1304v461h1304v-461zM672 1116v-82h690v82h-690zM1950 1608v-242h-1846v242h752v143h315v-143h779z" />
    <glyph glyph-name="Identity.605" unicode="&#x4eba;" 
d="M815 1710h344q-4 -59 -6 -135q23 -461 217 -849q68 -134 155 -247t217 -221t286 -180q-152 -113 -230 -254q-555 283 -788 960q-213 -629 -725 -962q-88 129 -254 239q222 131 393 327q127 146 231 380q143 322 156 844q2 78 4 98z" />
    <glyph glyph-name="Identity.606" unicode="&#x4ec0;" 
d="M1976 1087v-292h-479v-990h-311v990h-502v292h502v627h311v-627h479zM600 -193h-291v1006q-51 -68 -114 -135q-63 174 -156 313q133 135 253 337q119 202 193 415l281 -88q-68 -184 -166 -375v-1473z" />
    <glyph glyph-name="Identity.607" unicode="&#x4ec1;" 
d="M729 233h1274v-319h-1274v319zM618 -190h-299v993q-63 -78 -135 -150q-25 59 -79 161t-93 159q150 137 284 342t216 426l297 -96q-90 -221 -191 -398v-1437zM1927 1434v-318h-1089v318h1089z" />
    <glyph glyph-name="Identity.608" unicode="&#x4ec7;" 
d="M1702 111h37q16 0 25 9t16 64q6 123 6 246q92 -82 233 -127q-7 -211 -31 -299t-90 -129q-53 -37 -145 -37h-141q-182 0 -227 159q-15 56 -15 179v846h-172q-23 -430 -119 -728t-313 -501q-33 55 -92 120t-113 103v-209h-295v981q-37 -49 -88 -102q-63 174 -155 313
q133 133 251 333q119 200 193 411l281 -88q-80 -211 -187 -412v-1206q176 165 251 401t91 584h-256v289h264v430h301q0 -293 -4 -430h465v-1118q1 -61 7 -71t22 -11z" />
    <glyph glyph-name="Identity.609" unicode="&#x4eca;" 
d="M1446 860h-858v170q-170 -141 -365 -258q-72 129 -188 238q248 134 474 348t343 411h303q166 -243 394 -437t472 -300q-88 -86 -196 -262q-195 113 -379 266v-176zM709 1135h622q-199 180 -315 342q-119 -170 -307 -342zM297 420v280h1149l51 13l240 -68
q-127 -332 -371 -846l-319 86q139 276 251 535h-1001z" />
    <glyph glyph-name="Identity.610" unicode="&#x4ecb;" 
d="M1520 -195h-312v1180h260q-305 231 -452 469q-154 -250 -459 -481h266v-236q0 -131 -14 -236t-55 -237q-85 -274 -369 -459q-39 49 -116 114t-136 99q250 154 323 362q60 168 60 365v197q-150 -106 -301 -184q-68 135 -184 248q260 118 480 330t331 423h323
q158 -262 380 -447t480 -276q-86 -92 -196 -274q-154 76 -309 186v-1143z" />
    <glyph glyph-name="Identity.611" unicode="&#x4ecf;" 
d="M2028 -68l-312 -129q-12 96 -37 205q-430 -51 -977 -104l-63 307l172 12q217 721 301 1463l344 -52q-125 -723 -334 -1386q78 8 482 43q-80 262 -174 497l278 105q261 -584 320 -961zM614 -190h-295v993q-63 -78 -135 -150q-25 59 -79 161t-93 159q150 137 284 342
t216 426l297 -96q-86 -215 -195 -406v-1429z" />
    <glyph glyph-name="Identity.612" unicode="&#x4ed4;" 
d="M2013 885v-287h-502v-463q-1 -119 -29 -183t-104 -97q-113 -53 -426 -54q-20 141 -98 303q117 -6 303 -6q53 0 53 41v459h-516v287h516v274h127q84 78 166 176h-676v275h893l58 16l198 -141q-199 -295 -465 -527v-73h502zM614 -190h-295v993q-63 -78 -135 -150
q-25 59 -79 161t-93 159q150 137 284 342t216 426l297 -96q-86 -215 -195 -406v-1429z" />
    <glyph glyph-name="Identity.613" unicode="&#x4ed5;" 
d="M1995 858h-482v-692h445v-287h-1219v287h467v692h-522v289h522v561h307v-561h482v-289zM614 -190h-295v995q-68 -78 -122 -133q-70 172 -168 309q150 137 282 343q133 206 217 425l289 -92q-82 -209 -203 -420v-1427z" />
    <glyph glyph-name="Identity.614" unicode="&#x4ed6;" 
d="M1233 104h352q86 0 115 50t43 225q115 -80 270 -115q-29 -244 -111 -335t-288 -91h-410q-240 0 -324 85t-85 323v502l-129 -52l-107 240v-1129h-293v990q-61 -76 -90 -105q-63 166 -153 307q133 133 251 333q119 200 193 411l274 -88q-70 -186 -182 -404v-288l236 92v452
h295v-336l139 54v514h278v-404l138 54l96 65l203 -76l-11 -45q-4 -563 -12 -659q-8 -156 -111 -209q-80 -41 -247 -37q-8 150 -56 260v-379h-278v611l-139 -56v-618q0 -94 24 -118t119 -24zM1610 696q35 0 39 39q6 36 8 355l-150 -60v-330q74 -4 103 -4z" />
    <glyph glyph-name="Identity.615" unicode="&#x4ed8;" 
d="M1327 442l-285 -143q-41 109 -245 483l264 123q20 -35 111 -183q91 -149 155 -280zM1999 1315v-301h-209v-862q0 -133 -33 -199t-117 -100q-129 -53 -505 -50q-25 141 -113 295q408 -21 442 8q16 14 17 48v860h-756v301h756v414h309v-414h209zM623 -190h-304v976
q-51 -66 -108 -120q-25 59 -80 161t-92 154q141 135 268 339t205 421l295 -94q-86 -217 -184 -400v-1437z" />
    <glyph glyph-name="Identity.616" unicode="&#x4ed9;" 
d="M1626 1227h289v-1346h-289v144h-631v-144h-278v1346h278v-926h164v1380h295v-1380h172v926zM590 -188h-283v1038q-59 -76 -139 -156q-18 56 -68 156t-84 154q140 136 270 334t210 409l276 -90q-84 -203 -182 -381v-1464z" />
    <glyph glyph-name="Identity.617" unicode="&#x4edd;" 
d="M1180 547v-371h643v-301h-1606v301h637v371h-405v246q-76 -57 -193 -131q-31 57 -90 134t-111 126q244 133 458 360t318 440h330q156 -264 371 -467t455 -307q-88 -94 -207 -289q-84 49 -205 138v-250h-395zM520 848h989q-328 264 -499 545q-175 -289 -490 -545z" />
    <glyph glyph-name="Identity.618" unicode="&#x4ee3;" 
d="M1989 954l-582 -82q80 -666 276 -698q39 -4 59 131q9 68 15 180q72 -80 244 -172q-39 -291 -119 -401t-184 -100q-256 28 -393 280t-195 737l-352 -49l-43 287l368 51q-18 231 -28 600h303q4 -317 20 -559l570 78zM657 -190h-309v1026q-102 -119 -178 -191
q-68 168 -164 307q160 140 306 350t237 435l285 -95q-78 -184 -177 -354v-1478zM1962 1419l-242 -151q-63 141 -252 346l226 137q194 -191 268 -332z" />
    <glyph glyph-name="Identity.619" unicode="&#x4ee4;" 
d="M1448 883h-850v147q-193 -156 -377 -260q-76 135 -192 242q248 128 476 338t345 403h307q166 -238 395 -427t473 -292q-86 -86 -200 -266q-195 111 -377 260v-145zM737 1151h568q-180 162 -289 307q-113 -153 -279 -307zM1759 745v-505q0 -106 -28 -167q-29 -60 -101 -93
q-109 -47 -377 -48q-25 143 -100 289q59 -4 252 -4q47 0 47 31v229h-434v-672h-316v672h-450v268h1507z" />
    <glyph glyph-name="Identity.620" unicode="&#x4ee5;" 
d="M2019 55l-254 -250q-86 156 -344 465q-219 -295 -579 -467q-31 47 -107 132t-131 135q446 172 645 540t252 1016l332 -29q-63 -641 -242 -1034q340 -365 428 -508zM872 674l70 -293q-307 -137 -799 -338l-102 319q139 43 270 93l-47 1163l316 12l41 -1057q40 17 251 101z
M1298 1020l-292 -158q-37 106 -124 252t-182 266l277 133q215 -245 321 -493z" />
    <glyph glyph-name="Identity.621" unicode="&#x4eee;" 
d="M590 -190h-283v1042q-76 -92 -137 -152q-18 54 -68 156t-86 158q144 132 272 328t208 405l278 -92q-80 -197 -184 -383v-1276q139 201 183 472t44 597v584h1127v-281h-832v-246h592l51 8l182 -65q-76 -477 -280 -799q158 -135 368 -211q-115 -104 -198 -256
q-203 86 -363 228q-143 -143 -321 -230q-31 55 -89 128t-102 110q-55 -137 -129 -238q-37 43 -111 105t-122 86v-178zM1606 850h-330q68 -201 182 -365q93 160 148 365zM954 41q182 82 314 207q-100 139 -183 338q-39 -312 -131 -545z" />
    <glyph glyph-name="Identity.622" unicode="&#x4ef0;" 
d="M1952 1526v-1094q0 -98 -18 -156t-68 -94q-78 -53 -264 -53q-12 154 -72 285q43 -2 112 -2q25 0 25 28v826h-168v-1461h-278v435q-57 -18 -537 -164l-111 270q68 14 148 37v1143l104 -27q168 123 269 256l276 -162q-53 -45 -82 -67h664zM1186 510l35 -205v1170
q-90 -68 -226 -148v-870zM557 -188h-283v1022q-45 -59 -114 -134q-18 56 -66 154t-84 150q135 136 256 334t197 409l270 -86q-74 -195 -176 -389v-1460z" />
    <glyph glyph-name="Identity.623" unicode="&#x4ef2;" 
d="M1444 1346h493v-996h-295v103h-198v-646h-297v646h-195v-121h-280v1014h475v378h297v-378zM952 727h195v344h-195v-344zM1444 727h198v344h-198v-344zM549 -193h-283v981q-37 -49 -88 -102q-63 174 -155 313q133 133 251 333q119 200 193 411l281 -88q-84 -225 -199 -434
v-1414z" />
    <glyph glyph-name="Identity.624" unicode="&#x4ef6;" 
d="M1995 776v-291h-510v-678h-301v678h-537v291h537v299h-209q-55 -139 -115 -241q-100 74 -260 141q158 231 238 657l286 -59q-25 -117 -51 -207h111v358h301v-358h407v-291h-407v-299h510zM549 -193h-283v981q-37 -49 -88 -102q-63 174 -155 313q133 133 251 333
q119 200 193 411l281 -88q-84 -225 -199 -434v-1414z" />
    <glyph glyph-name="Identity.625" unicode="&#x4efb;" 
d="M1980 621h-477v-465h461v-285h-1208v285h444v465h-530v286h530v406q-188 -29 -389 -49q-14 86 -72 221q-72 -152 -125 -248v-1427h-295v987q-57 -72 -126 -142q-23 55 -78 159t-95 159q147 137 279 342q131 205 213 426l295 -94q-33 -82 -51 -123q600 74 977 211
l217 -252q-207 -68 -447 -115v-461h477v-286z" />
    <glyph glyph-name="Identity.626" unicode="&#x4f01;" 
d="M1194 481v-354h707v-268h-1754v268h203v690h293v-690h234v1034h317v-416h524v-264h-524zM846 1763h311q168 -246 398 -434t483 -287q-94 -96 -201 -268q-238 129 -467 322t-356 372q-129 -184 -345 -369t-464 -323q-29 53 -85 125t-106 117q256 124 484 334t348 411z" />
    <glyph glyph-name="Identity.627" unicode="&#x4f0a;" 
d="M1989 1169v-274h-111v-551h-289v90h-266q-106 -432 -489 -641q-32 49 -94 118t-111 107q289 131 389 416h-256v275h305q4 43 4 129v57h-412v274h412v183h-297v274h1104v-457h111zM1366 1352v-183h223v183h-223zM1589 709v186h-223v-59q0 -41 -4 -127h227zM590 -190h-283
v1040q-59 -76 -139 -156q-18 56 -68 156t-84 154q140 136 270 334t210 409l276 -90q-84 -203 -182 -381v-1466z" />
    <glyph glyph-name="Identity.628" unicode="&#x4f0d;" 
d="M1837 152h174v-277h-1329v277h221q37 195 88 534h-225v277h262q25 188 43 368h-305v277h1135v-277h-525q-16 -139 -47 -368h508v-811zM1536 686h-246q-37 -272 -82 -534h328v534zM590 -195h-289v1045q-78 -102 -143 -170q-16 54 -64 156t-84 159q135 135 257 337t198 415
l274 -88q-74 -188 -149 -338v-1516z" />
    <glyph glyph-name="Identity.629" unicode="&#x4f0e;" 
d="M721 721v268h465v217h-488v275h488v256h301v-256h504v-275h-504v-217h199l51 10l196 -96q-117 -383 -364 -651q209 -121 467 -178q-48 -47 -106 -127t-91 -144q-289 80 -510 242q-231 -162 -518 -246q-27 55 -84 136t-102 124q274 66 479 193q-156 176 -262 410l194 59
h-315zM1546 721h-426q78 -160 215 -293q129 129 211 293zM590 -195h-289v1041q-76 -96 -137 -158q-55 156 -152 307q141 135 268 337q125 202 203 415l275 -88q-68 -174 -168 -365v-1489z" />
    <glyph glyph-name="Identity.630" unicode="&#x4f0f;" 
d="M1956 905h-510q182 -590 555 -831q-53 -45 -120 -123t-103 -139q-289 219 -467 659q-131 -401 -437 -670q-86 94 -245 195q395 352 465 909h-439v295h455v547h303v-547h543v-295zM580 -195h-299v973q-37 -49 -88 -102q-19 56 -71 160t-87 159q133 137 253 340
q119 203 193 420l285 -90q-78 -209 -186 -422v-1438zM1925 1374l-244 -143q-51 137 -202 366l227 127q162 -221 219 -350z" />
    <glyph glyph-name="Identity.631" unicode="&#x4f10;" 
d="M1677 109q61 0 80 372q115 -115 258 -168q-33 -303 -111 -406t-249 -104q-233 0 -385 324q-213 -150 -443 -250q-84 145 -194 260q303 109 534 283q-59 221 -96 534l-379 -36l-24 280l376 37q-16 258 -16 491h313q-6 -223 11 -462l581 55l23 -277l-580 -57
q25 -199 51 -330q138 154 222 324l288 -102q-164 -307 -421 -549q78 -219 161 -219zM621 -190h-302v1007q-51 -63 -122 -139q-23 56 -76 156t-90 151q143 137 272 343t209 425l287 -90q-72 -184 -178 -385v-1468zM1894 1491l-206 -182q-51 59 -302 282l197 162
q18 -16 138 -112q120 -97 173 -150z" />
    <glyph glyph-name="Identity.632" unicode="&#x4f11;" 
d="M1968 977h-389q178 -455 455 -698q-55 -41 -120 -111t-102 -129q-195 201 -350 549v-783h-295v756q-172 -330 -383 -532q-80 111 -180 200v-419h-295v981q-49 -61 -125 -138q-25 59 -79 161t-93 159q150 137 284 342t216 426l297 -96q-86 -217 -205 -424v-924
q276 250 457 680h-385v289h491v448h295v-448h506v-289z" />
    <glyph glyph-name="Identity.633" unicode="&#x4f1a;" 
d="M1884 471h-424q129 -117 247 -252t185 -246l-278 -168q-20 41 -74 121q-403 -23 -1317 -65l-39 291q68 2 314 10q70 147 120 309h-440v277h1706v-277zM1384 471h-399q-104 -207 -156 -299q109 4 500 18q-80 90 -162 168zM551 870v152q-170 -117 -336 -193q-27 55 -79 129
t-97 121q250 107 475 295t342 373h315q162 -221 383 -381t469 -242q-80 -82 -192 -272q-152 68 -330 186v-168h-950zM713 1143h641q-215 166 -328 319q-118 -159 -313 -319z" />
    <glyph glyph-name="Identity.634" unicode="&#x4f1d;" 
d="M674 733v287h1329v-287h-645q-102 -303 -199 -528q334 25 420 33q-66 135 -137 256l266 110q259 -398 322 -672l-293 -127q-10 59 -45 162q-465 -49 -979 -96l-51 299q67 0 184 12q98 242 170 551h-342zM590 -188h-283v1038q-59 -76 -139 -156q-18 56 -68 156t-84 154
q140 136 270 334t210 409l276 -90q-84 -203 -182 -381v-1464zM1898 1622v-285h-1079v285h1079z" />
    <glyph glyph-name="Identity.635" unicode="&#x4f2f;" 
d="M1874 1391v-1565h-311v84h-504v-98h-297v1579h311q61 182 94 362l355 -53q-57 -153 -129 -309h481zM1563 805v305h-504v-305h504zM1059 209h504v303h-504v-303zM602 -197h-295v916q-57 -68 -100 -109q-76 150 -176 275q157 143 277 369t188 493l284 -68
q-74 -262 -178 -481v-1395z" />
    <glyph glyph-name="Identity.636" unicode="&#x4f34;" 
d="M2003 606v-274h-516v-527h-301v527h-512v274h512v228h-430v274h430v614h301v-614h432v-274h-432v-228h516zM590 -188h-283v1038q-59 -76 -139 -156q-18 56 -68 156t-84 154q140 136 270 334t210 409l276 -90q-12 -33 -41 -98l248 92q125 -246 160 -426l-269 -105
q-25 178 -141 436q-59 -137 -139 -280v-1464zM1686 1665l307 -102q-154 -319 -215 -428l-244 94q105 223 152 436z" />
    <glyph glyph-name="Identity.637" unicode="&#x4f36;" 
d="M1894 770v-516q0 -100 -24 -158t-88 -90q-96 -47 -334 -47q-20 135 -90 277q72 -4 203 -5q39 2 38 29v242h-284v-692h-295v692h-307v268h1181zM938 909v115q-106 -96 -207 -160q-53 117 -141 230v-1282h-283v1038q-59 -76 -139 -156q-18 56 -68 156t-84 154
q140 136 270 334t210 409l276 -90q-84 -203 -182 -381v-150q164 102 316 276t237 333h282q125 -195 285 -357t324 -241q-84 -102 -172 -273q-96 61 -203 158v-113h-721zM1087 1171h420q-137 150 -213 271q-84 -136 -207 -271z" />
    <glyph glyph-name="Identity.638" unicode="&#x4f38;" 
d="M1450 1427h512v-1130h-293v80h-219v-570h-293v570h-215v-103h-278v1153h493v316h293v-316zM1669 1159h-219v-129h219v129zM1157 1159h-215v-129h215v129zM942 645h215v129h-215v-129zM1450 645h219v129h-219v-129zM549 -193h-283v996q-31 -39 -100 -117q-63 174 -156 313
q133 133 252 333t193 411l280 -88q-80 -211 -186 -412v-1436z" />
    <glyph glyph-name="Identity.639" unicode="&#x4f3a;" 
d="M1939 1651v-1506q-1 -117 -27 -183t-93 -101q-104 -55 -398 -56q-25 166 -96 304q76 -6 266 -7q27 0 38 10t11 38v1234h-915v267h1214zM1477 207h-478v-139h-272v847h750v-708zM1204 668h-205v-213h205v213zM1544 1278v-256h-850v256h850zM545 -193h-287v981
q-47 -61 -86 -102q-18 56 -66 158t-83 155q129 135 244 334q116 199 186 410l272 -88q-76 -211 -180 -412v-1436z" />
    <glyph glyph-name="Identity.640" unicode="&#x4f3c;" 
d="M2025 16l-237 -215q-57 117 -246 363q-199 -236 -549 -375q-20 45 -81 127q-60 82 -107 131q340 110 514 319q90 108 149 232q112 235 144 645q14 180 18 420l299 -8q-23 -829 -217 -1231q250 -302 313 -408zM1280 680l57 -260q-395 -176 -639 -277l-116 291
q90 29 202 68l-10 1130l289 2l10 -1030zM549 -193h-283v996q-31 -39 -100 -117q-63 174 -156 313q133 133 252 333t193 411l280 -88q-80 -211 -186 -412v-1436zM1540 1022l-270 -117q-35 197 -172 492l250 100q149 -278 192 -475z" />
    <glyph glyph-name="Identity.641" unicode="&#x4f3d;" 
d="M1356 1526h608v-1659h-262v172h-96v-189h-250v1676zM1606 299h96v967h-96v-967zM1311 1360q-1 -724 -15 -1038t-48 -371t-66 -81t-86 -38q-55 -14 -205 -10q-8 135 -68 256q-51 -156 -135 -287q-29 45 -81 101t-99 90v-175h-266v1004q-45 -68 -97 -127q-14 52 -55 150
t-74 151q119 143 222 348q102 205 165 422l252 -76q-66 -201 -147 -387v-1267q104 178 144 432t46 643h-127v260h129v371h261q-1 -252 -3 -371h353zM952 82q39 0 61 39t28 233t10 746h-97q-16 -668 -127 -1012q51 -6 125 -6z" />
    <glyph glyph-name="Identity.642" unicode="&#x4f43;" 
d="M1915 1630v-1806h-297v110h-627v-127h-282v1784q-76 -193 -177 -374v-1410h-284v979q-25 -31 -82 -92q-18 52 -68 152t-84 153q133 137 252 335t193 409l274 -88l-10 -25h1192zM1618 930v411h-172v-411h172zM1157 1341h-166v-411h166v411zM991 643v-420h166v420h-166z
M1446 223h172v420h-172v-420z" />
    <glyph glyph-name="Identity.643" unicode="&#x4f46;" 
d="M662 143h1337v-276h-1337v276zM580 -193h-295v984q-70 -82 -103 -115q-20 58 -71 164t-88 161q137 133 262 332q124 199 200 410l289 -94q-82 -213 -194 -416v-1426zM1866 1628v-1319h-1075v1319h1075zM1540 584v252h-440v-252h440zM1540 1110v244h-440v-244h440z" />
    <glyph glyph-name="Identity.644" unicode="&#x4f4d;" 
d="M2005 168v-281h-1319v281h660q121 430 163 891l324 -51q-78 -437 -201 -840h373zM590 -188h-283v1040q-76 -92 -137 -152q-18 54 -68 156t-86 158q144 132 272 328t208 405l278 -92q-80 -197 -184 -383v-1460zM1251 274l-293 -61q-8 348 -108 788l268 48
q117 -449 133 -775zM723 1399h455v323h301v-323h489v-281h-1245v281z" />
    <glyph glyph-name="Identity.645" unicode="&#x4f4e;" 
d="M1995 1073v-266h-381q29 -277 72 -463q42 -186 80 -186t44 274q100 -104 230 -158q-26 -242 -94 -324t-214 -83q-146 0 -249 223v-252h-795v260h791q-106 238 -158 709h-293v-332q111 17 309 41l15 -266q-293 -43 -688 -96l-56 274q104 10 129 14v1143l191 -61
q481 66 776 170l217 -226q-129 -41 -334 -88q-2 -102 6 -307h402zM1028 1073h272q-10 127 -12 252q-188 -27 -260 -35v-217zM549 -193h-283v996q-31 -39 -100 -117q-63 174 -156 313q133 133 252 333t193 411l280 -88q-80 -211 -186 -412v-1436z" />
    <glyph glyph-name="Identity.646" unicode="&#x4f4f;" 
d="M1499 150h506v-283h-1329v283h520v346h-412v280h412v303h-477v283h508q-164 113 -285 180l197 213q326 -164 473 -293l-90 -100h452v-283h-475v-303h420v-280h-420v-346zM590 -188h-283v1038q-59 -76 -139 -156q-18 56 -68 156t-84 154q140 136 270 334t210 409l276 -90
q-84 -203 -182 -381v-1464z" />
    <glyph glyph-name="Identity.647" unicode="&#x4f50;" 
d="M1632 150h369v-281h-1079v281h415v393h-237v53q-141 -375 -344 -606q-53 74 -166 176v-354h-283v1038q-59 -76 -139 -156q-18 56 -68 156t-84 154q140 136 270 334t210 409l276 -90q-84 -203 -182 -381v-973q221 276 348 780h-276v281h335q27 156 52 360l305 -32
q-25 -188 -51 -328h696v-281h-754q-23 -100 -69 -266h774v-274h-318v-393z" />
    <glyph glyph-name="Identity.648" unicode="&#x4f51;" 
d="M2005 1075h-686q-53 -162 -109 -284h725v-953h-301v88h-389v-106h-287v553q-80 -96 -176 -176q-92 139 -192 235v-620h-283v1038q-59 -76 -139 -156q-18 56 -68 156t-84 154q140 136 270 334t210 409l276 -90q-84 -203 -182 -381v-840q264 209 414 639h-347v287h428
q41 178 64 377l313 -43q-27 -156 -65 -334h608v-287zM1634 516h-389v-315h389v315z" />
    <glyph glyph-name="Identity.649" unicode="&#x4f53;" 
d="M1974 1130h-405q84 -231 209 -446t262 -354q-53 -39 -119 -107t-102 -125q-74 90 -142 203v-170h-243v-309h-291v309h-232v186q-74 -123 -168 -225q-86 121 -196 211v-496h-283v1000q-55 -72 -98 -121q-23 58 -73 160t-85 153q125 135 235 334t177 410l280 -86
q-66 -188 -153 -373v-950q141 137 264 349t205 447h-361v283h488v326h291v-326h540v-283zM1143 395v404q-79 -211 -185 -404h185zM1434 395h190q-102 186 -190 432v-432z" />
    <glyph glyph-name="Identity.650" unicode="&#x4f55;" 
d="M1997 1587v-284h-109v-1164q0 -121 -28 -185t-99 -99q-121 -57 -422 -54q-16 133 -98 301q117 -6 295 -6q31 0 42 10t11 37v1160h-856v282q-51 -127 -129 -276v-1497h-297v1034q-61 -78 -119 -135q-18 55 -67 156t-86 157q133 131 255 328t197 405l279 -90l-31 -80h1262z
M1446 352h-430v-129h-279v895h709v-766zM1171 864h-155v-258h155v258z" />
    <glyph glyph-name="Identity.651" unicode="&#x4f59;" 
d="M1264 266l245 154q326 -236 455 -383l-266 -174q-121 157 -434 403zM1849 446h-675v-331q0 -109 -28 -168t-97 -92q-111 -53 -357 -54q-27 135 -119 287q88 -4 238 -4q45 2 45 37v325h-631v279h631v145h-371v144q-139 -88 -270 -152q-82 147 -182 244q246 106 471 286
t348 355h305q168 -213 393 -374t471 -247q-90 -90 -194 -266q-154 78 -289 166v-156h-364v-145h675v-279zM659 1137h721q-238 178 -364 333q-130 -161 -357 -333zM465 403l278 -98q-88 -123 -220 -245t-261 -203q-109 123 -223 204q125 61 241 153t185 189z" />
    <glyph glyph-name="Identity.652" unicode="&#x4f5c;" 
d="M2003 1139h-555v-170h500v-271h-500v-184h526v-276h-526v-433h-307v1334h-39q-129 -231 -260 -381q-96 113 -226 209q131 133 245 339t183 429l287 -76q-41 -123 -92 -238h764v-282zM575 -193h-301v967q-29 -35 -86 -96q-82 211 -159 321q133 133 253 333
q119 200 193 411l289 -92q-80 -213 -189 -416v-1428z" />
    <glyph glyph-name="Identity.653" unicode="&#x4f73;" 
d="M1466 152h531v-287h-1374v287h540v190h-432v281h432v149h303v-149h447v-281h-447v-190zM561 -193h-295v984q-47 -57 -90 -103q-68 182 -153 311q133 133 251 333q119 200 193 411l278 -88q-84 -219 -184 -408v-1440zM1163 1100v170h-391v276h391v205h303v-205h404v-276
h-404v-170h496v-281h-1282v281h483z" />
    <glyph glyph-name="Identity.654" unicode="&#x4f75;" 
d="M2009 778v-284h-272v-687h-295v687h-228q-63 -469 -372 -707q-34 47 -96 112t-111 101q238 156 287 494h-269v284h285v266h-238v281h277q-49 150 -146 322l256 100q131 -201 175 -348l-181 -74h498l-156 64q102 180 160 366l315 -108q-186 -287 -210 -322h276v-281h-227
v-266h272zM1231 778h211v266h-211v-266zM590 -188h-283v1038q-59 -76 -139 -156q-18 56 -68 156t-84 154q140 136 270 334t210 409l276 -90q-84 -203 -182 -381v-1464z" />
    <glyph glyph-name="Identity.655" unicode="&#x4f7c;" 
d="M590 -195h-289v1045q-78 -102 -143 -170q-16 54 -64 156t-84 159q135 135 257 337t198 415l274 -88q-74 -188 -149 -338v-477q111 68 210 171t158 214l287 -90q-96 -170 -239 -324l157 43q63 -176 162 -315q90 143 139 327l203 -43q-115 143 -254 279l209 127h-924v272
h486v246h301v-246h514v-272h-342q269 -248 371 -408l-248 -157q-6 12 -37 59q-84 -225 -217 -408q211 -182 502 -266q-46 -45 -106 -124t-93 -140q-297 109 -508 309q-227 -199 -563 -305q-55 123 -152 246q317 86 531 276q-127 182 -217 414q-55 -51 -99 -84
q-39 43 -111 105t-120 94v-1039z" />
    <glyph glyph-name="Identity.656" unicode="&#x4f7f;" 
d="M1946 561h-486q-27 -197 -102 -334q264 -117 674 -151q-46 -45 -96 -123t-78 -141q-408 53 -674 202q-154 -131 -398 -204q-27 51 -84 127t-102 120q211 45 342 133q-125 117 -227 289l241 72q59 -94 152 -172q37 74 57 182h-438v623h453v112h-488v185q-39 -86 -102 -199
v-1479h-283v1055q-72 -90 -137 -153q-18 57 -68 156q-49 99 -84 153q141 135 271 334q129 199 209 409l276 -90q-27 -60 -43 -102h449v170h295v-170h518v-269h-518v-112h471v-623zM1661 944h-186v-143h186v143zM995 944v-143h185v143h-185z" />
    <glyph glyph-name="Identity.657" unicode="&#x4f83;" 
d="M1776 115q0 -64 12 -64h10q6 0 11 6t12 54q2 39 6 186q74 -68 194 -107q-7 -180 -29 -246q-43 -132 -190 -130h-102q-98 0 -150 60t-53 239v618h279v-616zM1149 -123v848h268v-848h-268zM799 496v237h274v-246q0 -352 -150 -552q-67 -87 -167 -154q-31 47 -88 110
t-105 99v-185h-282v994q-47 -57 -93 -111q-18 54 -68 154t-85 153q127 137 238 338q112 201 182 414l276 -86q-70 -197 -168 -395v-1270q98 66 154 159q55 93 68 169q14 76 14 172zM1837 1657v-836h-1077v836h1077zM1536 1092v297h-494v-297h494z" />
    <glyph glyph-name="Identity.658" unicode="&#x4f8b;" 
d="M1663 1708h274v-1577q1 -113 -23 -174t-85 -96q-100 -57 -369 -58q-18 145 -88 291q104 -6 246 -6q45 2 45 45v1575zM1595 301h-260v887q-51 -500 -203 -852t-393 -529q-29 53 -85 125t-97 105q205 141 332 407q-45 57 -131 136q-53 -88 -109 -154q-53 86 -135 174v-793
h-272v959q-43 -57 -86 -111q-18 59 -62 165t-78 163q117 139 221 344q103 205 166 424l275 -82h686v-160h231v-1208zM1042 973h-118q-31 -98 -54 -156q68 -49 117 -96q32 113 55 252zM643 1411v156q-45 -127 -129 -320v-561q164 242 234 725h-105zM1335 1411h-307
q-16 -92 -37 -182h127l47 8l170 -49v223z" />
    <glyph glyph-name="Identity.659" unicode="&#x4f8d;" 
d="M1448 111v360h-434q174 -203 229 -332l-276 -143q-53 147 -224 362l224 113h-316v268h797v125h-815v271h530v133h-415v268h415v207h305v-207h441v-268h-441v-133h535v-271h-250v-125h229v-268h-229v-367q0 -110 -26 -166q-25 -56 -111 -96t-359 -39q-20 141 -90 279
q170 -12 238 -4q25 0 34 6t9 27zM549 -193h-283v981q-37 -49 -88 -102q-63 174 -155 313q133 133 251 333q119 200 193 411l281 -88q-84 -225 -199 -434v-1414z" />
    <glyph glyph-name="Identity.660" unicode="&#x4f9b;" 
d="M1729 733h264v-291h-1338v291h254v354h-204v285h204v367h291v-367h238v371h291v-371h249v-285h-249v-354zM1200 1087v-354h238v354h-238zM1411 252l238 131q213 -209 338 -414l-250 -157q-45 88 -138 213q-92 125 -188 227zM971 379l278 -88q-75 -131 -191 -259
t-231 -216q-111 111 -231 186q110 68 212 170t163 207zM559 -193h-293v988q-37 -49 -88 -103q-63 174 -155 314q133 132 251 332t193 411l281 -88q-72 -193 -189 -416v-1438z" />
    <glyph glyph-name="Identity.661" unicode="&#x4f9d;" 
d="M567 -188h-282v1022q-68 -82 -119 -134q-23 60 -71 160t-83 154q137 132 260 328t201 405l279 -90q-45 -115 -99 -225h488v290h301v-290h510v-277h-451q27 -180 74 -350q127 119 213 225l221 -211q-297 -233 -344 -266q141 -324 375 -473q-121 -100 -211 -256
q-229 168 -363 448t-206 680q-68 -90 -144 -168v-577l344 69l29 -266q-350 -84 -782 -174l-82 283q119 20 209 37v381q-76 -55 -136 -91q-51 82 -131 183v-817zM623 1155v213l-56 -104v-531q299 166 482 422h-426z" />
    </font>
</defs>
</svg>
