<?xml version="1.0" standalone="no"?>
<!DOCTYPE svg PUBLIC "-//W3C//DTD SVG 1.1//EN" "http://www.w3.org/Graphics/SVG/1.1/DTD/svg11.dtd" >
<svg xmlns="http://www.w3.org/2000/svg">
<metadata>
Created by FontPrep 20130207 at Sat Nov 14 17:28:31 2015
 By quqjp
</metadata>
<defs>
<font id="65fac04f619f9b30f6e3d5ba4f93afd9" horiz-adv-x='1024' >
  <font-face 
    font-family="NotoSansCJKJPThin"
    font-weight="100"
    font-stretch="normal"
    units-per-em="2048"
    panose-1="2 0 2 3 0 0 0 0 0 0"
    ascent="1638"
    descent="-410"
    x-height="1079"
    cap-height="1487"
    bbox="-68 -563 2048 1926"
    underline-thickness="102"
    underline-position="-205"
    unicode-range="U+0020-FFE5"
  />
<missing-glyph 
 />
    <glyph glyph-name=".notdef" 
 />
    <glyph glyph-name=".null" horiz-adv-x="0" 
 />
    <glyph glyph-name="nonmarkingreturn" horiz-adv-x="681" 
 />
    <glyph glyph-name="Identity.1" unicode=" " horiz-adv-x="450" 
 />
    <glyph glyph-name="Identity.2" unicode="!" horiz-adv-x="563" 
d="M282 154q34 0 58 -25t25 -66q-1 -41 -25 -65t-58 -25q-34 0 -59 25q-25 26 -25 66t25 65t59 25zM244 1509h75v-141l-8 -979h-59l-8 979v141z" />
    <glyph glyph-name="Identity.3" unicode="#" horiz-adv-x="1067" 
d="M344 557h350l49 397h-350zM82 492v65h197l51 397h-203v66h207l57 444h66l-58 -444h349l59 444h65l-57 -444h184v-66h-190l-49 -397h192v-65h-202l-58 -492h-65l57 492h-348l-60 -492h-65l59 492h-188z" />
    <glyph glyph-name="Identity.4" unicode="$" horiz-adv-x="1067" 
d="M538 1401q-110 0 -187 -78q-77 -77 -77 -177t36 -162t94 -101t128 -73q181 -88 268 -160q130 -108 130 -314q0 -156 -97 -253t-249 -108v-223h-70v223q-207 14 -375 175l43 53q170 -162 367 -162q145 0 225 79t80 212q0 94 -36 166t-94 116t-128 80q-70 37 -140 73
t-127 79q-132 98 -130 278q0 138 89 234t226 108v224h70v-222q100 -6 170 -46t137 -111l-47 -47q-72 74 -134 106t-172 31z" />
    <glyph glyph-name="Identity.5" unicode="%" horiz-adv-x="1802" 
d="M1153 442q-1 -190 65 -300t178 -109q112 -1 178 109t64 300q0 190 -65 297t-177 107t-178 -106q-66 -108 -65 -298zM1394 -27q-148 0 -229 122q-82 122 -82 345t83 344q84 121 230 121t229 -121t83 -344t-83 -345t-231 -122zM442 -27l834 1540h74l-832 -1540h-76z
M407 641q113 0 177 109t64 300t-65 298q-65 106 -177 106t-178 -106q-64 -106 -64 -296t66 -301q66 -110 177 -110zM719 1049q1 -223 -81 -345t-230 -122t-232 121q-82 121 -82 345t82 345t230 121t230 -122q83 -120 83 -343z" />
    <glyph glyph-name="Identity.6" unicode="&#x26;" horiz-adv-x="1271" 
d="M506 -27q-176 0 -298 111t-122 291q0 129 80 229t227 213q-100 207 -100 361t82 244q82 91 204 91q122 -1 183 -73t61 -196t-106 -234q-79 -82 -151 -138t-76 -60t-13 -9q152 -291 424 -539q156 195 244 508h74q-96 -332 -267 -553q156 -127 291 -178l-26 -68
q-152 55 -310 193q-186 -193 -401 -193zM362 1172q0 -128 89 -314q100 76 152 121t100 119q49 74 49 154t-41 138t-134 58t-154 -74t-61 -202zM512 41q178 0 344 170q-270 248 -434 549q-125 -98 -193 -186t-67 -195q0 -150 102 -244t248 -94z" />
    <glyph glyph-name="Identity.7" unicode="'" horiz-adv-x="473" 
d="M188 1563h91v-138l-13 -319h-63l-15 319v138z" />
    <glyph glyph-name="Identity.8" unicode="(" horiz-adv-x="612" 
d="M203 627q0 539 297 1020l43 -29q-273 -430 -273 -992t273 -991l-43 -26q-297 479 -297 1018z" />
    <glyph glyph-name="Identity.9" unicode=")" horiz-adv-x="612" 
d="M342 624q0 560 -274 994l45 29q297 -481 297 -1020t-297 -1018l-45 26q274 429 274 989z" />
    <glyph glyph-name="Identity.10" unicode="*" horiz-adv-x="874" 
d="M293 1073l-49 35l121 197l-201 75l20 58l207 -60l15 228h61l14 -224l207 56l19 -58l-199 -75l123 -197l-51 -35l-142 184z" />
    <glyph glyph-name="Identity.11" unicode="+" horiz-adv-x="1067" 
d="M496 252v459h-420v65h420v461h75v-461h420v-65h-420v-459h-75z" />
    <glyph glyph-name="Identity.12" unicode="," horiz-adv-x="473" 
d="M236 -14q-28 0 -51 22q-24 22 -23 62q0 40 24 62t65 22q39 0 67 -39t28 -127t-58 -180q-58 -91 -153 -148l-26 55q162 90 163 273q-8 -2 -36 -2z" />
    <glyph glyph-name="Identity.13" unicode="-" horiz-adv-x="663" 
d="M90 524v72h490v-72h-490z" />
    <glyph glyph-name="Identity.14" unicode="." horiz-adv-x="473" 
d="M237 154q35 0 59 -25t24 -66t-25 -65q-24 -24 -58 -25q-34 0 -59 25q-24 26 -24 66t24 65q25 25 59 25z" />
    <glyph glyph-name="Identity.15" unicode="/" horiz-adv-x="811" 
d="M18 -360l717 1962h70l-715 -1962h-72z" />
    <glyph glyph-name="Identity.16" unicode="0" horiz-adv-x="1067" 
d="M535 41q159 0 251 184q92 185 92 521t-92 519t-252 183t-252 -183q-94 -183 -94 -519t94 -520t253 -185zM533 -27q-201 0 -311 195t-110 578q0 384 110 576t311 192t311 -194q110 -192 110 -574t-110 -578q-110 -195 -311 -195z" />
    <glyph glyph-name="Identity.17" unicode="1" horiz-adv-x="1067" 
d="M195 0v68h342v1280h-261v53q166 27 269 86h63v-1419h320v-68h-733z" />
    <glyph glyph-name="Identity.18" unicode="2" horiz-adv-x="1067" 
d="M94 0v47q385 330 552 581t167 468q0 154 -82 252t-244 98q-195 0 -346 -191l-51 48q188 211 404 210q186 1 291 -113t106 -304q0 -234 -166 -478t-508 -561q137 10 244 11h504v-68h-871z" />
    <glyph glyph-name="Identity.19" unicode="3" horiz-adv-x="1067" 
d="M518 -27q-256 0 -450 203l47 53q172 -188 407 -188q154 0 252 95t98 257t-127 257t-389 95v72q242 0 352 94q110 93 110 235t-84 222q-83 80 -220 82q-195 -6 -336 -162l-47 53q176 172 383 175q166 -2 274 -96t109 -246q0 -154 -77 -249t-204 -137v-8q142 -29 238 -132
t96 -274t-122 -286t-310 -115z" />
    <glyph glyph-name="Identity.20" unicode="4" horiz-adv-x="1067" 
d="M995 502v-66h-221v-436h-72v436h-665v39l686 1012h51v-985h221zM702 502v612q0 125 11 232h-11q-43 -80 -116 -197l-451 -647h567z" />
    <glyph glyph-name="Identity.21" unicode="5" horiz-adv-x="1067" 
d="M519 -27q-167 -1 -270 53t-190 140l47 55q168 -180 404 -180q152 0 262 121t109 309q1 188 -99 299t-268 111q-129 0 -272 -99l-62 37l53 668h650v-68h-582l-49 -547q125 78 268 78q195 0 317 -120q121 -120 121 -352t-136 -368t-303 -137z" />
    <glyph glyph-name="Identity.22" unicode="6" horiz-adv-x="1067" 
d="M647 1446q-197 0 -319 -175t-125 -562q163 201 363 201t303 -120t103 -334t-113 -348q-114 -134 -271 -135q-217 -1 -339 189t-122 532q0 428 146 624t376 195q172 0 293 -135l-49 -51q-94 119 -246 119zM592 41q129 0 216 117q87 118 87 292t-80 285t-246 111
q-86 0 -182 -55t-182 -170q13 -266 109 -423t278 -157z" />
    <glyph glyph-name="Identity.23" unicode="7" horiz-adv-x="1067" 
d="M98 1419v68h875v-43q-252 -336 -346 -656t-113 -788h-84q18 460 118 784t324 635h-774z" />
    <glyph glyph-name="Identity.24" unicode="8" horiz-adv-x="1067" 
d="M541 41q160 0 257 88t97 215t-91 229q-34 37 -109 79t-119 60t-138 56q-272 -154 -272 -399q0 -137 107 -233q108 -95 268 -95zM852 1118q0 134 -84 228t-218 94t-216 -84t-82 -224t130 -232q67 -46 122 -72t147 -64q201 160 201 354zM973 336q0 -148 -121 -256
q-122 -108 -314 -107q-192 0 -320 113q-128 114 -128 270t87 269t206 178v8q-207 133 -207 334q0 156 106 258t272 102q167 -1 269 -109t103 -278q0 -111 -64 -211t-141 -166v-10q115 -70 183 -159q68 -88 69 -236z" />
    <glyph glyph-name="Identity.25" unicode="9" horiz-adv-x="1067" 
d="M453 41q169 0 288 177t129 562q-178 -202 -371 -202t-297 121q-104 122 -104 334t113 346t272 134q217 0 340 -177t123 -498q0 -650 -317 -819q-88 -46 -191 -46q-182 1 -307 136l47 53q106 -121 275 -121zM498 641q199 0 372 236q-6 263 -104 417t-287 154
q-129 0 -216 -117t-87 -292t80 -287t242 -111z" />
    <glyph glyph-name="Identity.26" unicode=":" horiz-adv-x="473" 
d="M237 154q35 0 59 -25t24 -66t-25 -65q-24 -24 -58 -25q-34 0 -59 25q-24 26 -24 66t24 65q25 25 59 25zM237 850q-34 0 -59 24q-24 24 -24 65q0 42 24 67q25 24 59 24q35 0 59 -24t24 -67q0 -41 -25 -65q-24 -24 -58 -24z" />
    <glyph glyph-name="Identity.27" unicode=";" horiz-adv-x="473" 
d="M236 -14q-28 0 -51 22q-24 22 -23 62q0 40 24 62t65 22q39 0 67 -39t28 -127t-58 -180q-58 -91 -153 -148l-26 55q162 90 163 273q-8 -2 -36 -2zM237 850q-34 0 -59 24q-24 24 -24 65q0 42 24 67q25 24 59 24q35 0 59 -24t24 -67q0 -41 -25 -65q-24 -24 -58 -24z" />
    <glyph glyph-name="Identity.28" unicode="&#x3c;" horiz-adv-x="1067" 
d="M991 340l-915 367v84l915 364v-76l-837 -327v-9l837 -327v-76z" />
    <glyph glyph-name="Identity.29" unicode="=" horiz-adv-x="1067" 
d="M76 485v66h915v-66h-915zM76 938v63h915v-63h-915z" />
    <glyph glyph-name="Identity.30" unicode="&#x3e;" horiz-adv-x="1067" 
d="M76 340v76l837 327v9l-837 327v76l915 -364v-84z" />
    <glyph glyph-name="Identity.31" unicode="?" horiz-adv-x="890" 
d="M412 -27q-35 0 -59 24q-23 23 -23 65t23 67q24 25 59 25q36 0 60 -25t24 -66t-24 -65t-60 -25zM698 1212q0 98 -68 178q-69 81 -200 80q-182 0 -301 -147l-47 43q154 172 352 172q158 0 249 -97t91 -246t-132 -315q-54 -69 -106 -141q-122 -169 -100 -350h-67
q-26 197 94 367q51 72 104 138t92 144q39 76 39 174z" />
    <glyph glyph-name="Identity.32" unicode="@" horiz-adv-x="1812" 
d="M807 209q117 0 254 158l72 399q-43 66 -82 90t-95 25q-147 -1 -243 -135q-97 -134 -97 -277t52 -201t139 -59zM862 -322q-330 0 -538 209t-207 568q0 424 261 693t621 269q319 0 508 -192q188 -193 189 -512q0 -264 -127 -423t-277 -159q-92 0 -149 43t-64 127h-4
q-153 -158 -269 -158t-189 79t-73 208q1 279 194 436q98 82 222 82t191 -108h4l19 90h61l-78 -416q-78 -317 139 -317q121 0 225 141q103 141 103 369q0 297 -171 471t-460 174q-156 0 -301 -65q-311 -139 -438 -462q-68 -170 -68 -366q0 -325 186 -519t494 -194
q203 0 383 111l35 -58q-195 -121 -422 -121z" />
    <glyph glyph-name="Identity.33" unicode="A" horiz-adv-x="1175" 
d="M1071 0l-184 528h-602l-187 -528h-75l530 1487h68l532 -1487h-82zM307 594h557l-102 297q-102 293 -170 518h-8q-55 -188 -172 -518z" />
    <glyph glyph-name="Identity.34" unicode="B" horiz-adv-x="1294" 
d="M301 68h313q240 0 371 89t131 271q0 332 -502 332h-313v-692zM301 827h268q451 0 451 295q0 160 -108 230t-328 69h-283v-594zM225 0v1487h389q230 0 358 -90t128 -271q0 -122 -60 -206t-176 -117v-10q152 -25 240 -117t88 -244q0 -208 -146 -320t-405 -112h-416z" />
    <glyph glyph-name="Identity.35" unicode="C" horiz-adv-x="1267" 
d="M730 -27q-265 0 -434 212q-169 213 -169 563t171 558t456 207q231 0 379 -176l-48 -51q-135 156 -331 156q-254 0 -400 -186t-147 -508q0 -322 145 -512t393 -191q215 0 385 188l48 -49q-183 -211 -448 -211z" />
    <glyph glyph-name="Identity.36" unicode="D" horiz-adv-x="1353" 
d="M301 68h248q303 0 450 184t147 496t-146 491q-148 180 -451 180h-248v-1351zM225 0v1487h334q336 0 502 -197q166 -196 166 -542t-167 -547t-499 -201h-336z" />
    <glyph glyph-name="Identity.37" unicode="E" horiz-adv-x="1150" 
d="M225 0v1487h799v-68h-723v-592h606v-67h-606v-692h746v-68h-822z" />
    <glyph glyph-name="Identity.38" unicode="F" horiz-adv-x="1060" 
d="M225 0v1487h795v-68h-719v-620h606v-66h-606v-733h-76z" />
    <glyph glyph-name="Identity.39" unicode="G" horiz-adv-x="1353" 
d="M753 -27q-282 0 -454 212q-172 213 -172 563t177 558t472 207q233 0 398 -176l-48 -51q-141 156 -350 156q-264 0 -417 -188t-153 -508t148 -510q147 -190 392 -190t364 118v487h-367v68h447v-580q-155 -166 -437 -166z" />
    <glyph glyph-name="Identity.40" unicode="H" horiz-adv-x="1429" 
d="M225 0v1487h76v-660h827v660h78v-1487h-78v760h-827v-760h-76z" />
    <glyph glyph-name="Identity.41" unicode="I" horiz-adv-x="526" 
d="M225 0v1487h76v-1487h-76z" />
    <glyph glyph-name="Identity.42" unicode="J" horiz-adv-x="1030" 
d="M453 -27q-240 0 -357 213l64 39q55 -96 126 -138t169 -42q143 0 211 87t67 271v1084h78v-1094q0 -190 -86 -305t-272 -115z" />
    <glyph glyph-name="Identity.43" unicode="K" horiz-adv-x="1243" 
d="M225 0v1487h76v-852h4l752 852h96l-477 -545l541 -942h-91l-508 883l-317 -359v-524h-76z" />
    <glyph glyph-name="Identity.44" unicode="L" horiz-adv-x="1040" 
d="M225 0v1487h76v-1419h696v-68h-772z" />
    <glyph glyph-name="Identity.45" unicode="M" horiz-adv-x="1576" 
d="M225 0v1487h121l318 -897q41 -111 122 -336h9q63 172 116 336l320 897h121v-1487h-76v1028q0 147 8 389h-8l-115 -327l-334 -924h-79l-453 1251h-8q10 -201 10 -389v-1028h-72z" />
    <glyph glyph-name="Identity.46" unicode="N" horiz-adv-x="1425" 
d="M225 0v1487h80l656 -1084l169 -292h11q-12 215 -13 419v957h74v-1487h-82l-653 1083l-170 293h-8q8 -279 8 -407v-969h-72z" />
    <glyph glyph-name="Identity.47" unicode="O" horiz-adv-x="1462" 
d="M731 45q236 0 380 193t144 510t-144 505q-144 189 -380 189t-380 -188t-144 -506q0 -317 144 -510t380 -193zM731 -27q-266 0 -435 213q-169 214 -169 562t168 557t436 209t436 -210q168 -208 168 -556t-169 -562t-435 -213z" />
    <glyph glyph-name="Identity.48" unicode="P" horiz-adv-x="1224" 
d="M301 723h264q242 0 356 84q113 84 113 273t-113 265q-114 75 -364 74h-256v-696zM225 0v1487h359q264 0 398 -95q134 -96 134 -310t-135 -320t-389 -107h-291v-655h-76z" />
    <glyph glyph-name="Identity.49" unicode="Q" horiz-adv-x="1462" 
d="M1159 -344q-174 0 -297 88t-178 231q-248 19 -402 229t-155 551q0 341 168 550t436 209t436 -210q168 -208 168 -549q-1 -341 -157 -552t-406 -228q102 -244 395 -243q85 0 148 18l18 -69q-74 -25 -174 -25zM207 747q0 -319 144 -513t380 -194t380 194t144 512t-144 507
t-380 189t-380 -188t-144 -507z" />
    <glyph glyph-name="Identity.50" unicode="R" horiz-adv-x="1206" 
d="M301 700v-700h-76v1487h412q479 0 479 -383q0 -176 -104 -278t-293 -121l420 -705h-88l-420 700h-330zM301 766h309q424 0 424 338q0 168 -106 242t-318 73h-309v-653z" />
    <glyph glyph-name="Identity.51" unicode="S" horiz-adv-x="1165" 
d="M604 -27q-301 0 -495 226l51 53q176 -207 444 -207q176 0 283 87q106 87 106 230t-84 212q-68 57 -190 114l-227 103q-222 98 -277 225q-27 61 -27 139q0 160 119 259t303 99q244 0 406 -176l-47 -51q-145 156 -359 156q-156 0 -250 -77t-94 -212t125 -219q43 -29 67 -40
t68 -32l228 -102q154 -70 234 -154t81 -248q0 -164 -128 -274q-128 -111 -337 -111z" />
    <glyph glyph-name="Identity.52" unicode="T" horiz-adv-x="1173" 
d="M547 0v1419h-479v68h1038v-68h-479v-1419h-80z" />
    <glyph glyph-name="Identity.53" unicode="U" horiz-adv-x="1421" 
d="M709 -27q-196 0 -333 118q-155 132 -155 466v930h76v-914q0 -283 115 -405t299 -123q184 0 301 123t116 405v914h74v-930q0 -448 -313 -556q-82 -28 -180 -28z" />
    <glyph glyph-name="Identity.54" unicode="V" horiz-adv-x="1089" 
d="M508 0l-494 1487h80l287 -889q109 -348 162 -502h8q29 82 164 502l284 889h78l-491 -1487h-78z" />
    <glyph glyph-name="Identity.55" unicode="W" horiz-adv-x="1724" 
d="M412 0l-344 1487h79l197 -897q20 -88 56 -254t53 -234h8q37 164 119 488l239 897h86l242 -897q23 -90 63 -256t58 -232h10q35 164 100 488l199 897h76l-340 -1487h-80l-285 1061q0 4 -82 334h-8q-12 -57 -42 -165t-44 -169l-280 -1061h-80z" />
    <glyph glyph-name="Identity.56" unicode="X" horiz-adv-x="1062" 
d="M41 0l451 770l-420 717h84l256 -455q82 -135 123 -201h8q88 160 112 201l260 455h78l-420 -721l451 -766h-82l-272 475q-43 76 -142 236h-8q-74 -135 -131 -236l-270 -475h-78z" />
    <glyph glyph-name="Identity.57" unicode="Y" horiz-adv-x="987" 
d="M455 0v610l-447 877h82l236 -477q139 -281 163 -324h9q117 215 166 324l237 477h76l-447 -877v-610h-75z" />
    <glyph glyph-name="Identity.58" unicode="Z" horiz-adv-x="1212" 
d="M117 0v45l878 1374h-800v68h897v-43l-879 -1376h889v-68h-985z" />
    <glyph glyph-name="Identity.59" unicode="[" horiz-adv-x="612" 
d="M225 -342v1939h344v-53h-286v-1835h286v-51h-344z" />
    <glyph glyph-name="Identity.60" unicode="\" horiz-adv-x="811" 
d="M721 -360l-715 1962h70l717 -1962h-72z" />
    <glyph glyph-name="Identity.61" unicode="]" horiz-adv-x="612" 
d="M43 -342v51h287v1835h-287v53h344v-1939h-344z" />
    <glyph glyph-name="Identity.62" unicode="^" horiz-adv-x="1067" 
d="M154 657l338 852h83l338 -852h-75l-299 777h-11l-299 -777h-75z" />
    <glyph glyph-name="Identity.63" unicode="_" horiz-adv-x="1126" 
d="M27 -258v74h1073v-74h-1073z" />
    <glyph glyph-name="Identity.64" unicode="`" horiz-adv-x="1200" 
d="M676 1292l-314 340l58 47l299 -346z" />
    <glyph glyph-name="Identity.65" unicode="a" horiz-adv-x="1097" 
d="M453 41q174 0 387 182v387q-342 -37 -486 -118q-143 -82 -143 -224q0 -117 68 -172t174 -55zM446 -27q-135 0 -223 74t-88 219q0 176 167 270t538 138q12 365 -262 364q-186 0 -353 -131l-37 60q190 139 394 139q332 0 331 -408v-698h-61l-10 143h-6q-210 -170 -390 -170
z" />
    <glyph glyph-name="Identity.66" unicode="b" horiz-adv-x="1214" 
d="M627 41q169 0 281 144q112 143 112 367t-87 355t-276 131q-160 0 -368 -186v-666q168 -145 338 -145zM618 -27q-160 0 -325 136h-6l-11 -109h-61v1626h74v-479l-6 -217q211 176 381 176q214 0 324 -146t110 -409q0 -262 -140 -420t-340 -158z" />
    <glyph glyph-name="Identity.67" unicode="c" horiz-adv-x="1007" 
d="M590 -27q-196 0 -333 152q-136 152 -136 413q0 260 140 414t345 154q172 0 316 -135l-48 -53q-129 121 -268 120q-172 0 -290 -141t-118 -361t112 -358q112 -137 285 -137t310 129l43 -53q-162 -144 -358 -144z" />
    <glyph glyph-name="Identity.68" unicode="d" horiz-adv-x="1218" 
d="M570 41q173 0 360 186v664q-164 147 -332 147t-284 -146t-116 -363t100 -353q99 -136 272 -135zM558 -27q-198 -1 -318 147t-119 410q0 262 140 418q140 158 343 158q92 0 167 -33t165 -102l-6 203v452h74v-1626h-62l-10 143h-4q-172 -170 -370 -170z" />
    <glyph glyph-name="Identity.69" unicode="e" horiz-adv-x="1079" 
d="M922 602q0 215 -90 326q-90 110 -244 110q-152 0 -262 -118t-127 -318h723zM121 535q0 255 138 413q137 158 327 158t299 -130t108 -368q0 -47 -4 -73h-790q0 -215 115 -355q116 -139 291 -139t310 98l33 -63q-53 -33 -89 -50q-112 -53 -245 -53q-211 0 -352 153
t-141 409z" />
    <glyph glyph-name="Identity.70" unicode="f" horiz-adv-x="571" 
d="M473 1587q-176 0 -176 -256v-252h256v-67h-256v-1012h-72v1012h-149v57l149 10v262q0 156 66 234t184 78q72 0 152 -35l-23 -64q-66 33 -131 33z" />
    <glyph glyph-name="Identity.71" unicode="g" horiz-adv-x="1085" 
d="M572 -461q179 0 296 88q117 89 117 191t-64 144q-65 42 -196 42h-246q-55 0 -131 19q-150 -100 -149 -242q0 -109 97 -175t276 -67zM541 410q121 0 208 89t87 228t-85 225t-209 86t-209 -86t-85 -225t86 -228t207 -89zM570 -526q-212 0 -330 82t-119 219q0 69 44 141
t120 125v8q-97 57 -97 173t119 198v8q-137 121 -137 291q0 171 108 279t263 108q74 0 141 -27h360v-67h-258q127 -106 127 -278q1 -172 -107 -282t-263 -110q-104 0 -183 49q-94 -74 -94 -164q0 -150 211 -149h240q178 0 262 -58t84 -193q0 -134 -139 -244
q-140 -109 -352 -109z" />
    <glyph glyph-name="Identity.72" unicode="h" horiz-adv-x="1177" 
d="M215 0v1626h74v-723q98 99 185 151t192 52q166 0 246 -101t79 -311v-694h-73v684q0 180 -62 267t-199 87q-94 0 -176 -50t-192 -163v-825h-74z" />
    <glyph glyph-name="Identity.73" unicode="i" horiz-adv-x="501" 
d="M254 1352q-34 0 -56 22t-22 57t23 57t55 22t56 -22t24 -58t-24 -56q-24 -22 -56 -22zM215 0v1079h74v-1079h-74z" />
    <glyph glyph-name="Identity.74" unicode="j" horiz-adv-x="501" 
d="M254 1352q-34 0 -56 22t-22 57t23 57t55 22t56 -22t24 -58t-24 -56q-24 -22 -56 -22zM63 -524q-74 0 -131 26l19 60q74 -23 117 -23q86 1 116 63t31 181v1296h74v-1304q1 -155 -55 -227t-171 -72z" />
    <glyph glyph-name="Identity.75" unicode="k" horiz-adv-x="1021" 
d="M215 0v1626h74v-1229h4l555 682h86l-348 -426l409 -653h-80l-372 598l-254 -301v-297h-74z" />
    <glyph glyph-name="Identity.76" unicode="l" horiz-adv-x="520" 
d="M326 -27q-111 0 -111 148v1505h74v-1517q0 -68 45 -68q16 0 39 4l14 -63q-36 -9 -61 -9z" />
    <glyph glyph-name="Identity.77" unicode="m" horiz-adv-x="1820" 
d="M215 0v1079h61l13 -172h4q174 199 342 199q240 0 297 -225q205 225 371 225q319 0 319 -412v-694h-72v684q0 354 -256 354q-150 0 -340 -213v-825h-71v684q0 354 -254 354q-156 0 -340 -213v-825h-74z" />
    <glyph glyph-name="Identity.78" unicode="n" horiz-adv-x="1187" 
d="M215 0v1079h61l13 -172h4q195 199 367 199t252 -101t79 -311v-694h-73v684q0 180 -62 267t-199 87q-94 0 -176 -50t-192 -163v-825h-74z" />
    <glyph glyph-name="Identity.79" unicode="o" horiz-adv-x="1200" 
d="M600 41q174 0 289 138q115 139 115 359t-115 360t-289 140t-288 -140t-114 -360t114 -359q114 -138 288 -138zM600 -27q-203 0 -341 153t-138 413q0 259 138 413t341 154t341 -154t138 -414t-138 -412q-138 -153 -341 -153z" />
    <glyph glyph-name="Identity.80" unicode="p" horiz-adv-x="1218" 
d="M215 -498v1577h61l13 -139h4q211 166 371 166q214 0 324 -146t110 -409q0 -262 -140 -420t-340 -158q-150 0 -329 136v-607h-74zM630 41q166 0 278 144q112 143 112 367t-87 355t-276 131q-153 0 -368 -186v-666q174 -145 341 -145z" />
    <glyph glyph-name="Identity.81" unicode="q" horiz-adv-x="1218" 
d="M570 41q173 0 360 186v664q-164 147 -332 147t-284 -146t-116 -363t100 -353q99 -136 272 -135zM930 -498v426l6 222q-184 -176 -380 -176t-316 146q-120 148 -119 410q0 262 140 418q140 158 343 158q92 0 166 -32t158 -95h4l10 100h62v-1577h-74z" />
    <glyph glyph-name="Identity.82" unicode="r" horiz-adv-x="694" 
d="M215 0v1079h61l13 -202h4q125 229 305 229q59 0 104 -23l-18 -67q-44 18 -110 18t-146 -70t-139 -219v-745h-74z" />
    <glyph glyph-name="Identity.83" unicode="s" horiz-adv-x="903" 
d="M469 -27q-215 0 -393 148l47 59q162 -139 350 -139q129 1 201 65t72 160t-74 153q-74 55 -163 87q-205 72 -236 95q-88 61 -105 89q-41 72 -41 135q0 119 90 200t254 81t295 -111l-43 -55q-133 98 -260 98t-194 -60t-67 -151t85 -143q63 -41 167 -78q103 -38 112 -42
t48 -21q38 -17 50 -25t42 -26t40 -32t28 -35q46 -52 47 -165q0 -113 -94 -200t-258 -87z" />
    <glyph glyph-name="Identity.84" unicode="t" horiz-adv-x="684" 
d="M494 -27q-141 0 -198 80q-56 80 -56 234v725h-172v57l172 10l8 316h63v-316h320v-67h-320v-736q0 -117 39 -176t150 -59q63 0 137 35l25 -62q-115 -41 -168 -41z" />
    <glyph glyph-name="Identity.85" unicode="u" horiz-adv-x="1181" 
d="M533 -27q-177 1 -257 101t-79 311v694h73v-686q0 -180 62 -266t196 -86q98 0 182 54t185 177v807h74v-1079h-64l-8 184h-4q-183 -211 -360 -211z" />
    <glyph glyph-name="Identity.86" unicode="v" horiz-adv-x="954" 
d="M436 0l-409 1079h82l253 -696q70 -197 113 -307h8q70 176 113 307l256 696h76l-404 -1079h-88z" />
    <glyph glyph-name="Identity.87" unicode="w" horiz-adv-x="1519" 
d="M379 0l-326 1079h82l207 -723q12 -47 37 -141t37 -143h10q72 252 80 284l207 723h98l207 -723q33 -121 82 -284h8q16 59 80 284l201 723h77l-315 -1079h-100l-201 698q-18 56 -46 160t-40 148h-10q-51 -201 -88 -312l-197 -694h-90z" />
    <glyph glyph-name="Identity.88" unicode="x" horiz-adv-x="888" 
d="M31 0l370 563l-338 516h82l183 -286q23 -40 64 -99t54 -80h9q92 145 114 179l179 286h77l-338 -520l371 -559h-84l-201 309q-51 90 -129 199h-10q-25 -35 -129 -199l-194 -309h-80z" />
    <glyph glyph-name="Identity.89" unicode="y" horiz-adv-x="958" 
d="M152 -500q-63 0 -105 23l19 67q41 -18 90 -18q182 0 286 303l31 100l-446 1104h82l272 -704q63 -170 121 -303h10q18 49 102 303l242 704h76l-430 -1231q-49 -148 -136 -248t-214 -100z" />
    <glyph glyph-name="Identity.90" unicode="z" horiz-adv-x="897" 
d="M59 0v39l660 973h-588v67h684v-41l-659 -970h682v-68h-779z" />
    <glyph glyph-name="Identity.91" unicode="{" horiz-adv-x="612" 
d="M569 -291v-51h-69q-129 0 -187 60q-57 60 -57 223l18 473q0 186 -192 186v55q193 0 192 181l-18 475q0 162 58 224t186 62h69v-53h-71q-102 0 -140 -57t-39 -184l15 -441q0 -102 -24 -157t-87 -74v-8q63 -21 87 -77t24 -155l-15 -440q0 -127 38 -184t141 -58h71z" />
    <glyph glyph-name="Identity.92" unicode="|" horiz-adv-x="497" 
d="M217 -563v2255h64v-2255h-64z" />
    <glyph glyph-name="Identity.93" unicode="}" horiz-adv-x="612" 
d="M111 -342h-68v51h70q102 -1 141 57t39 185l-14 440q0 98 23 155q24 56 85 77v8q-61 17 -85 73t-23 158l14 441q0 127 -39 184t-141 57h-70v53h68q129 0 187 -62t58 -224l-18 -475q0 -180 192 -181v-55q-193 0 -192 -186l18 -473q0 -163 -58 -223t-187 -60z" />
    <glyph glyph-name="Identity.94" unicode="~" horiz-adv-x="1067" 
d="M733 608q-71 0 -145 51t-142 103t-120 51q-106 0 -181 -143l-51 28q42 88 106 136t126 47q111 1 225 -103t190 -104q106 0 181 143l51 -33q-45 -86 -107 -131t-133 -45z" />
    <glyph glyph-name="Identity.95" unicode="&#xa1;" horiz-adv-x="563" 
d="M282 924q-34 0 -59 26t-25 66q0 42 26 66q24 24 58 24t58 -25t25 -65q-1 -40 -25 -66t-58 -26zM244 -432v143l8 977h59l8 -977v-143h-75z" />
    <glyph glyph-name="Identity.96" unicode="&#xa2;" horiz-adv-x="1067" 
d="M635 -59h-66v247q-193 18 -311 154t-119 360q0 222 123 358t307 157v253h66v-251q164 -4 307 -136l-43 -49q-121 115 -264 117v-897q156 2 291 127l43 -49q-158 -139 -334 -146v-245zM215 700q0 -184 96 -304t258 -138v889q-156 -20 -255 -142q-99 -121 -99 -305z" />
    <glyph glyph-name="Identity.97" unicode="&#xa3;" horiz-adv-x="1067" 
d="M272 68h674v-68h-815v45q121 67 179 187t59 262q0 70 -23 174h-225v59l149 4h60q-4 14 -21 71q-57 187 -57 292q0 174 99 274t284 100t307 -157l-53 -47q-109 137 -258 137t-227 -86t-76 -206q0 -120 52 -287q17 -58 26 -91h378v-63h-362q18 -100 18 -208
q0 -220 -168 -384v-8z" />
    <glyph glyph-name="Identity.98" unicode="&#xa4;" horiz-adv-x="1067" 
d="M211 739q1 -158 95 -259t228 -101t228 101t94 259t-95 262q-95 105 -228 105t-227 -104t-95 -263zM135 742q0 162 86 274l-149 155l47 52l149 -156q111 107 265 107t266 -107l149 156l47 -52l-151 -155q88 -115 88 -273t-86 -274l149 -154l-47 -51l-151 154
q-111 -106 -265 -106t-266 106l-147 -154l-47 51l149 154q-86 111 -86 273z" />
    <glyph glyph-name="Identity.99" unicode="&#xa5;" horiz-adv-x="1067" 
d="M496 0v379h-379v65h379v164h-379v66h350l-395 768h82l223 -451q127 -258 151 -311h11q23 43 73 149q51 106 82 162l224 451h77l-401 -768h356v-66h-383v-164h383v-65h-383v-379h-71z" />
    <glyph glyph-name="Identity.100" unicode="&#xa6;" horiz-adv-x="497" 
d="M217 -563v1063h64v-1063h-64zM217 618v1074h64v-1074h-64z" />
    <glyph glyph-name="Identity.101" unicode="&#xa7;" 
d="M1382 694q0 90 -70 153q-71 62 -160 88q-89 27 -205 61t-171 65q-113 -106 -112 -221q0 -37 8 -62q21 -67 139 -123q71 -33 241 -88t240 -100q90 90 90 227zM723 1298q0 -68 28 -112q60 -93 339 -160q365 -86 364 -307q0 -82 -33 -160t-86 -127q74 -63 74 -196
q0 -134 -112 -236t-327 -102t-323 104l49 59q102 -102 310 -102q156 0 246 78t91 185q0 107 -74 169q-75 61 -292 125t-301 136q-84 73 -84 196t137 250q-37 27 -56 76t-18 92q-1 125 103 216q104 90 301 90t340 -106l-47 -63q-48 39 -142 74t-206 35t-197 -74
q-84 -72 -84 -140z" />
    <glyph glyph-name="Identity.102" unicode="&#xa8;" horiz-adv-x="1200" 
d="M795 1356q-33 0 -54 21q-20 22 -20 53q0 30 20 52q19 22 53 22t54 -22t20 -52t-20 -52t-53 -22zM332 1430q0 30 20 52t52 22t54 -22t22 -52t-22 -52q-21 -22 -53 -22t-53 21q-20 22 -20 53z" />
    <glyph glyph-name="Identity.103" unicode="&#xa9;" horiz-adv-x="1669" 
d="M844 279q-164 1 -277 121t-113 318t118 313q118 116 274 116t278 -125l-43 -49q-113 102 -239 102t-216 -96q-89 -96 -89 -262t85 -267q85 -102 224 -102t272 119l37 -53q-75 -68 -143 -102t-168 -33zM834 33q266 -1 457 195t191 496t-190 494q-192 194 -458 194
t-457 -194t-191 -494t191 -496t457 -195zM1552 725q0 -332 -208 -542t-509 -210q-300 0 -509 210t-209 542t209 539q209 206 509 206q301 0 509 -206t208 -539z" />
    <glyph glyph-name="Identity.104" unicode="&#xaa;" horiz-adv-x="753" 
d="M330 967q115 0 235 114v242q-213 -25 -305 -76t-92 -135q0 -145 162 -145zM324 905q-108 0 -166 53q-60 53 -60 160t112 170t355 86q0 219 -159 219q-66 -1 -136 -27t-112 -59l-27 52q135 94 269 94t183 -72q50 -72 50 -205v-452h-51l-15 88h-8q-127 -107 -235 -107z" />
    <glyph glyph-name="Identity.105" unicode="&#xab;" horiz-adv-x="878" 
d="M709 166l-310 369v67l310 369l47 -43l-279 -361l279 -364zM406 166l-312 369v67l312 369l47 -43l-279 -361l279 -364z" />
    <glyph glyph-name="Identity.106" unicode="&#xac;" horiz-adv-x="1067" 
d="M915 252v459h-839v65h915v-524h-76z" />
    <glyph glyph-name="Identity.107" unicode="&#xae;" horiz-adv-x="886" 
d="M358 1176h68q121 0 121 88t-113 88h-76v-176zM295 942v469h149q170 0 170 -145q0 -43 -26 -79t-64 -46l113 -199h-76l-90 176h-113v-176h-63zM443 793q144 0 244 106q99 106 99 267t-100 271q-100 109 -242 109t-243 -110t-101 -270q0 -161 100 -267t243 -106zM444 735
q-170 0 -288 120t-119 311q0 192 119 316q120 124 288 124t287 -124t119 -316t-118 -312t-288 -119z" />
    <glyph glyph-name="Identity.108" unicode="&#xaf;" horiz-adv-x="1200" 
d="M330 1370v68h542v-68h-542z" />
    <glyph glyph-name="Identity.109" unicode="&#xb0;" horiz-adv-x="688" 
d="M344 1081q80 1 132 57t52 143t-51 144t-133 57t-133 -56q-51 -58 -51 -145t52 -143t132 -57zM344 1020q-100 0 -175 72t-75 190t75 188q75 72 175 72t175 -72t75 -190t-75 -188q-75 -72 -175 -72z" />
    <glyph glyph-name="Identity.110" unicode="&#xb1;" 
d="M262 129h1524v-74h-1524v74zM1786 1024v-74h-725v-608h-74v608h-725v74h725v608h74v-608h725z" />
    <glyph glyph-name="Identity.111" unicode="&#xb2;" horiz-adv-x="813" 
d="M131 924v45q252 237 345 355t93 222t-54 164t-146 59q-119 0 -211 -145l-45 43q39 68 111 115q73 47 151 47q123 0 195 -70t71 -215q0 -145 -170 -330q-70 -76 -144 -147t-83 -82h452v-61h-565z" />
    <glyph glyph-name="Identity.112" unicode="&#xb3;" horiz-adv-x="813" 
d="M686 1139q0 -105 -81 -173t-193 -69q-206 0 -318 166l58 41q42 -66 108 -107t148 -41t144 54t62 143q0 90 -85 139t-236 49v56q133 0 210 57t77 137t-54 129t-154 49t-194 -122l-47 43q104 139 256 139q115 -1 190 -63t75 -154q-1 -172 -177 -238q87 -14 149 -72t62 -163
z" />
    <glyph glyph-name="Identity.113" unicode="&#xb4;" horiz-adv-x="1200" 
d="M524 1292l-43 41l301 346l56 -47z" />
    <glyph glyph-name="Identity.114" unicode="&#xb5;" horiz-adv-x="1212" 
d="M215 -406v1485h74v-686q0 -352 250 -352q104 0 188 51t176 211v776h74q-4 -651 -4 -958q0 -80 63 -80q20 0 64 12l12 -61q-36 -18 -96 -18t-88 52q-28 54 -23 181h-4q-141 -233 -354 -234q-96 0 -160 31q-63 31 -108 115q0 -340 10 -525h-74z" />
    <glyph glyph-name="Identity.115" unicode="&#xb6;" 
d="M1047 -119v711h-21q-204 0 -362 120t-158 322t126 347q68 77 196 121t300 44t244 -14v-1651h-72v1596h-182v-1596h-71z" />
    <glyph glyph-name="Identity.116" unicode="&#xb7;" horiz-adv-x="1083" 
d="M528 637q-34 0 -58 25q-24 26 -24 66t25 66t59 26t58 -26t24 -67t-26 -65t-58 -25z" />
    <glyph glyph-name="Identity.117" unicode="&#xb8;" horiz-adv-x="1200" 
d="M696 -308q0 52 -41 79t-135 41l92 192h66l-68 -154q158 -37 158 -151q0 -165 -313 -188l-13 61q141 10 198 39q56 29 56 81z" />
    <glyph glyph-name="Identity.118" unicode="&#xb9;" horiz-adv-x="813" 
d="M401 924v741h-184v51q119 27 189 86h63v-878h-68z" />
    <glyph glyph-name="Identity.119" unicode="&#xba;" horiz-adv-x="808" 
d="M145 1280q-1 -139 71 -226t186 -87t184 87t70 227t-70 226t-185 86t-185 -87t-71 -226zM401 905q-139 -1 -232 101t-93 274t93 272t232 100t233 -100t93 -272q1 -172 -93 -274t-233 -101z" />
    <glyph glyph-name="Identity.120" unicode="&#xbb;" horiz-adv-x="878" 
d="M473 166l-47 37l279 364l-279 361l47 43l311 -369v-67zM168 166l-47 37l280 364l-280 361l47 43l311 -369v-67z" />
    <glyph glyph-name="Identity.121" unicode="&#xbc;" horiz-adv-x="1712" 
d="M1599 324v-60h-131v-264h-65v264h-395v37l407 578h53v-555h131zM1403 324v211l10 231h-10l-131 -188l-172 -254h303zM1231 1513h74l-834 -1540h-74zM422 608h-66v742h-186v51q119 27 190 86h62v-879z" />
    <glyph glyph-name="Identity.122" unicode="&#xbd;" horiz-adv-x="1757" 
d="M1075 0v47q256 241 348 357q93 116 93 220t-56 162q-56 59 -147 60q-117 0 -209 -146l-47 43q39 68 111 115q73 47 151 47q123 1 195 -69t71 -205q0 -86 -53 -179q-52 -94 -110 -156t-141 -144t-93 -91h452v-61h-565zM342 -27l834 1540h75l-833 -1540h-76zM356 608v742
h-186v51q119 27 190 86h62v-879h-66z" />
    <glyph glyph-name="Identity.123" unicode="&#xbe;" horiz-adv-x="1755" 
d="M1645 324v-60h-132v-264h-65v264h-395v37l407 578h53v-555h132zM1448 324v211l10 231h-10l-131 -188l-172 -254h303zM1343 1513h74l-833 -1540h-74zM387 1513q115 0 190 -62q75 -63 75 -155q-1 -172 -177 -237q87 -15 149 -73t62 -162t-82 -174q-82 -68 -192 -68t-189 47
q-80 47 -129 119l58 43q42 -68 108 -109t148 -41t145 53q61 52 61 144t-85 141t-236 49v55q133 -1 210 57t77 137t-54 128t-154 49t-194 -123l-47 43q104 139 256 139z" />
    <glyph glyph-name="Identity.124" unicode="&#xbf;" horiz-adv-x="890" 
d="M479 924q-35 0 -59 26t-23 66q0 42 25 66q24 24 58 24t59 -25t25 -65t-25 -67q-25 -25 -60 -25zM457 -459q-158 1 -249 97t-91 245t132 317q54 70 106 140q122 166 100 348h67q26 -200 -94 -365q-51 -71 -104 -138q-133 -168 -132 -293q2 -126 70 -206t199 -79
q178 0 301 149l49 -43q-157 -172 -354 -172z" />
    <glyph glyph-name="Identity.125" unicode="&#xd7;" 
d="M1669 168l-51 -51l-594 594l-594 -594l-51 51l594 594l-594 592l53 53l592 -594l594 594l51 -51l-594 -594z" />
    <glyph glyph-name="Identity.126" unicode="&#xf7;" 
d="M905 233q0 49 35 84t84 35t84 -35t35 -84t-35 -83t-84 -35q-49 1 -84 35t-35 83zM262 799h1524v-74h-1524v74zM905 1290q0 49 35 84t84 35t84 -35t35 -84t-35 -84t-84 -35t-84 35t-35 84z" />
    <glyph glyph-name="Identity.127" unicode="&#x391;" horiz-adv-x="1175" 
d="M1071 0l-184 528h-602l-187 -528h-75l530 1487h68l532 -1487h-82zM307 594h557l-102 297q-102 293 -170 518h-8q-55 -188 -172 -518z" />
    <glyph glyph-name="Identity.128" unicode="&#x392;" horiz-adv-x="1294" 
d="M301 68h313q240 0 371 89t131 271q0 332 -502 332h-313v-692zM301 827h268q451 0 451 295q0 160 -108 230t-328 69h-283v-594zM225 0v1487h389q230 0 358 -90t128 -271q0 -122 -60 -206t-176 -117v-10q152 -25 240 -117t88 -244q0 -208 -146 -320t-405 -112h-416z" />
    <glyph glyph-name="Identity.129" unicode="&#x393;" horiz-adv-x="1083" 
d="M225 0v1487h795v-68h-719v-1419h-76z" />
    <glyph glyph-name="Identity.130" unicode="&#x394;" horiz-adv-x="1234" 
d="M145 68h945l-291 813l-174 505h-11zM59 0v45l523 1442h73l521 -1442v-45h-1117z" />
    <glyph glyph-name="Identity.131" unicode="&#x395;" horiz-adv-x="1150" 
d="M225 0v1487h799v-68h-723v-592h606v-67h-606v-692h746v-68h-822z" />
    <glyph glyph-name="Identity.132" unicode="&#x396;" horiz-adv-x="1212" 
d="M117 0v45l878 1374h-800v68h897v-43l-879 -1376h889v-68h-985z" />
    <glyph glyph-name="Identity.133" unicode="&#x397;" horiz-adv-x="1429" 
d="M225 0v1487h76v-660h827v660h78v-1487h-78v760h-827v-760h-76z" />
    <glyph glyph-name="Identity.134" unicode="&#x398;" horiz-adv-x="1462" 
d="M731 45q236 0 380 193t144 510t-144 505q-144 189 -380 189t-380 -188t-144 -506q0 -317 144 -510t380 -193zM731 -27q-266 0 -435 213q-169 214 -169 562t168 557t436 209t436 -210q168 -208 168 -556t-169 -562t-435 -213zM453 760v67h557v-67h-557z" />
    <glyph glyph-name="Identity.135" unicode="&#x399;" horiz-adv-x="526" 
d="M225 0v1487h76v-1487h-76z" />
    <glyph glyph-name="Identity.136" unicode="&#x39a;" horiz-adv-x="1243" 
d="M225 0v1487h76v-852h4l752 852h96l-477 -545l541 -942h-91l-508 883l-317 -359v-524h-76z" />
    <glyph glyph-name="Identity.137" unicode="&#x39b;" horiz-adv-x="1089" 
d="M14 0l488 1487h80l495 -1487h-82l-286 889q-109 348 -162 502h-8q-53 -154 -162 -502l-287 -889h-76z" />
    <glyph glyph-name="Identity.138" unicode="&#x39c;" horiz-adv-x="1576" 
d="M225 0v1487h121l318 -897q41 -111 122 -336h9q63 172 116 336l320 897h121v-1487h-76v1028q0 147 8 389h-8l-115 -327l-334 -924h-79l-453 1251h-8q10 -201 10 -389v-1028h-72z" />
    <glyph glyph-name="Identity.139" unicode="&#x39d;" horiz-adv-x="1425" 
d="M225 0v1487h80l656 -1084l169 -292h11q-12 215 -13 419v957h74v-1487h-82l-653 1083l-170 293h-8q8 -279 8 -407v-969h-72z" />
    <glyph glyph-name="Identity.140" unicode="&#x39e;" horiz-adv-x="1134" 
d="M127 1419v68h883v-68h-883zM285 760v67h567v-67h-567zM104 0v68h928v-68h-928z" />
    <glyph glyph-name="Identity.141" unicode="&#x39f;" horiz-adv-x="1462" 
d="M731 45q236 0 380 193t144 510t-144 505q-144 189 -380 189t-380 -188t-144 -506q0 -317 144 -510t380 -193zM731 -27q-266 0 -435 213q-169 214 -169 562t168 557t436 209t436 -210q168 -208 168 -556t-169 -562t-435 -213z" />
    <glyph glyph-name="Identity.142" unicode="&#x3a0;" horiz-adv-x="1421" 
d="M225 0v1487h973v-1487h-78v1419h-819v-1419h-76z" />
    <glyph glyph-name="Identity.143" unicode="&#x3a1;" horiz-adv-x="1224" 
d="M301 723h264q242 0 356 84q113 84 113 273t-113 265q-114 75 -364 74h-256v-696zM225 0v1487h359q264 0 398 -95q134 -96 134 -310t-135 -320t-389 -107h-291v-655h-76z" />
    <glyph glyph-name="Identity.144" unicode="&#x3a3;" horiz-adv-x="1191" 
d="M109 0v45l550 713l-538 686v43h913v-68h-811l518 -661l-528 -690h893v-68h-997z" />
    <glyph glyph-name="Identity.145" unicode="&#x3a4;" horiz-adv-x="1173" 
d="M547 0v1419h-479v68h1038v-68h-479v-1419h-80z" />
    <glyph glyph-name="Identity.146" unicode="&#x3a5;" horiz-adv-x="987" 
d="M455 0v610l-447 877h82l236 -477q139 -281 163 -324h9q117 215 166 324l237 477h76l-447 -877v-610h-75z" />
    <glyph glyph-name="Identity.147" unicode="&#x3a6;" horiz-adv-x="1550" 
d="M811 1536v-223q291 -4 461 -156q170 -153 170 -409t-171 -413t-460 -159v-225h-72v225q-287 4 -459 159t-171 413q0 258 171 410t459 155v223h72zM739 242v1003q-254 -2 -402 -137q-149 -135 -149 -360q0 -224 150 -364t401 -142zM811 1245v-1003q252 2 400 142
q149 140 149 364t-148 359q-148 136 -401 138z" />
    <glyph glyph-name="Identity.148" unicode="&#x3a7;" horiz-adv-x="1062" 
d="M41 0l451 770l-420 717h84l256 -455q82 -135 123 -201h8q88 160 112 201l260 455h78l-420 -721l451 -766h-82l-272 475q-43 76 -142 236h-8q-74 -135 -131 -236l-270 -475h-78z" />
    <glyph glyph-name="Identity.149" unicode="&#x3a8;" horiz-adv-x="1482" 
d="M1243 1487h78v-365q0 -520 -543 -524v-598h-76v598q-541 6 -540 524v365h76v-365q0 -453 464 -458v823h76v-823q465 4 465 458v365z" />
    <glyph glyph-name="Identity.150" unicode="&#x3a9;" horiz-adv-x="1472" 
d="M104 0v68h330v8q-303 295 -303 704q0 318 166 526t439 208t440 -207q166 -207 165 -527q0 -416 -305 -704v-8h334v-68h-469v57q358 248 359 727q0 287 -140 472q-140 186 -383 186q-242 0 -383 -186t-141 -472q0 -479 356 -727v-57h-465z" />
    <glyph glyph-name="Identity.151" unicode="&#x3b1;" horiz-adv-x="1202" 
d="M518 41q146 0 257 123q112 123 124 291l19 217q-80 367 -330 366q-160 0 -275 -142t-115 -372t88 -356q86 -127 232 -127zM522 -27q-182 1 -292 139t-110 404t138 428q137 162 332 162q123 0 223 -82t137 -254h4l56 309h71q-131 -686 -131 -917q0 -53 32 -87t73 -34
t82 16l16 -61q-49 -23 -100 -23q-86 0 -134 67t-26 183h-6q-138 -250 -365 -250z" />
    <glyph glyph-name="Identity.152" unicode="&#x3b2;" horiz-adv-x="1212" 
d="M205 -406v1557q0 227 102 365t295 137q148 -1 250 -99t102 -274q0 -256 -241 -406v-10q186 -20 286 -137q101 -117 101 -309t-121 -319q-121 -126 -295 -126q-252 0 -410 181q4 -190 5 -560h-74zM279 1122v-886q156 -195 403 -195q145 0 243 106q97 107 97 279t-98 275
t-287 104q-70 0 -129 -14l-19 67q193 43 291 164t98 262t-77 222q-78 81 -195 81q-154 0 -240 -119t-87 -346z" />
    <glyph glyph-name="Identity.153" unicode="&#x3b3;" horiz-adv-x="1003" 
d="M469 -160q0 301 -138 666t-304 571l67 29q133 -176 253 -463t157 -545h10q102 193 165 324q62 131 124 316q61 185 76 341h75q-39 -266 -138 -508t-298 -575q18 -184 19 -402h-72q4 104 4 246z" />
    <glyph glyph-name="Identity.154" unicode="&#x3b4;" horiz-adv-x="1169" 
d="M610 1587q-146 0 -208 -45q-60 -45 -60 -102q0 -56 19 -100t75 -98t132 -110q77 -55 82 -59q4 -4 14 -10q133 -84 258 -231q125 -146 125 -362t-118 -356q-117 -140 -313 -140t-336 134t-140 346t132 355q133 143 351 195q-97 72 -139 104q-153 120 -194 206
q-26 54 -26 113q0 96 81 161t252 65t441 -90l-24 -72q-258 96 -404 96zM215 464q1 -185 115 -304t284 -119t264 122q93 122 93 297q0 174 -76 284t-215 217q-219 -49 -342 -181t-123 -316z" />
    <glyph glyph-name="Identity.155" unicode="&#x3b5;" horiz-adv-x="970" 
d="M539 -27q-193 0 -306 87t-112 229q-1 113 67 183t168 95v11q-84 34 -130 100t-46 151q0 131 104 204t272 73q167 0 325 -123l-37 -57q-148 112 -286 112t-220 -54t-82 -158t79 -163q79 -60 243 -61q68 0 122 4v-76q-63 4 -155 5q-168 1 -257 -63t-89 -180t94 -184
t254 -67q100 0 176 30t162 101l41 -57q-94 -76 -181 -109t-206 -33z" />
    <glyph glyph-name="Identity.156" unicode="&#x3b6;" horiz-adv-x="882" 
d="M809 -161q0 50 -53 80t-237 66q-183 37 -291 149t-107 358q0 139 67 305q120 293 383 575q111 119 209 193q-440 0 -592 -6v67h678v-67h-8q-144 -115 -290 -286t-258 -389t-111 -390q0 -232 106 -327t271 -124t236 -70t71 -134t-123 -249l-64 41q70 84 91 121
q22 37 22 87z" />
    <glyph glyph-name="Identity.157" unicode="&#x3b7;" horiz-adv-x="1181" 
d="M700 1038q-114 0 -204 -66t-207 -243v-729h-74v811q0 160 -10 268h71l13 -258h4q90 153 189 219q98 66 234 66q272 0 271 -412v-1100h-74q4 362 5 1090q0 180 -52 267t-166 87z" />
    <glyph glyph-name="Identity.158" unicode="&#x3b8;" horiz-adv-x="1128" 
d="M565 1653q197 0 305 -218t107 -616q0 -846 -412 -846t-411 846q0 397 107 615t304 219zM566 1587q-148 1 -240 -189t-97 -540h670q-6 350 -96 540q-89 190 -237 189zM566 41q154 -1 242 181q89 182 91 569h-670q3 -387 93 -569t244 -181z" />
    <glyph glyph-name="Identity.159" unicode="&#x3b9;" horiz-adv-x="522" 
d="M344 41q25 0 66 12l14 -61q-37 -19 -84 -19q-125 0 -125 162v944h74l-6 -958q0 -39 18 -59t43 -21z" />
    <glyph glyph-name="Identity.160" unicode="&#x3ba;" horiz-adv-x="1021" 
d="M283 0h-68v811q0 184 -18 268h73q18 -74 19 -241v-447h8q137 256 325 458t347 257l8 -74q-193 -76 -418 -352q86 -168 212 -354t255 -326l-76 -14q-104 115 -227 296t-207 341q-80 -103 -153 -225t-80 -349v-49z" />
    <glyph glyph-name="Identity.161" unicode="&#x3bb;" horiz-adv-x="1015" 
d="M190 1587q-63 0 -124 -37l-29 68q70 35 160 35q131 0 207 -112t161 -365l428 -1176h-73l-369 1028h-8l-428 -1042l-74 14l473 1118l-18 58q-74 221 -138 316t-168 95z" />
    <glyph glyph-name="Identity.162" unicode="&#x3bc;" horiz-adv-x="1212" 
d="M215 -406v1485h74v-686q0 -352 250 -352q104 0 188 51t176 211v776h74q-4 -651 -4 -958q0 -80 63 -80q20 0 64 12l12 -61q-36 -18 -96 -18t-88 52q-28 54 -23 181h-4q-141 -233 -354 -234q-96 0 -160 31q-63 31 -108 115q0 -340 10 -525h-74z" />
    <glyph glyph-name="Identity.163" unicode="&#x3bd;" horiz-adv-x="980" 
d="M455 0q-168 696 -428 1077l67 29q127 -190 239 -476t169 -554h10q307 614 344 1003h76q-68 -485 -395 -1079h-82z" />
    <glyph glyph-name="Identity.164" unicode="&#x3be;" horiz-adv-x="905" 
d="M121 402q0 186 104 312t254 165v8q-246 109 -246 345t209 333q-213 0 -356 -6v67h803v-67h-250q-131 -1 -229 -89t-98 -233t112 -241q113 -96 231 -95q76 0 131 10v-80q-49 8 -135 9q-176 0 -314 -114t-138 -304t124 -276q106 -74 273 -101q166 -31 237 -72t71 -134
t-122 -249l-63 41q70 84 91 121q22 37 22 87t-57 81t-239 65t-298 133q-116 98 -117 284z" />
    <glyph glyph-name="Identity.165" unicode="&#x3bf;" horiz-adv-x="1173" 
d="M588 41q178 0 282 134q104 135 104 361t-104 364q-106 138 -283 138t-283 -138t-105 -364q0 -226 105 -361q106 -134 284 -134zM587 -27q-206 0 -336 150t-130 416q0 267 130 417t336 150t336 -151t130 -417t-130 -415q-130 -150 -336 -150z" />
    <glyph glyph-name="Identity.166" unicode="&#x3c0;" horiz-adv-x="1234" 
d="M862 166q0 332 15 842h-490q0 -317 -68 -1012l-75 4q76 530 75 1008h-260v61l148 10h969v-71h-228q-18 -371 -18 -854q0 -113 104 -113q23 0 92 12l15 -61q-61 -19 -129 -19t-109 45t-41 148z" />
    <glyph glyph-name="Identity.167" unicode="&#x3c1;" horiz-adv-x="1204" 
d="M645 41q154 0 258 145q105 144 105 366t-89 354t-274 132q-154 0 -260 -124t-106 -365v-318q153 -190 366 -190zM205 -406v986q0 248 129 387q128 139 328 139t311 -148t111 -406q0 -259 -133 -419q-132 -160 -310 -160q-213 0 -367 181q4 -217 5 -560h-74z" />
    <glyph glyph-name="Identity.168" unicode="&#x3c3;" horiz-adv-x="1181" 
d="M582 41q164 0 270 134t106 343t-101 351q-101 143 -270 143t-279 -127t-110 -351t110 -359q110 -134 274 -134zM582 -27q-193 1 -327 149t-134 412t134 404t333 141h567v-71q-188 12 -367 12v-8q246 -139 246 -486q0 -256 -130 -404t-322 -149z" />
    <glyph glyph-name="Identity.169" unicode="&#x3c4;" horiz-adv-x="980" 
d="M522 154q0 -113 90 -113q46 0 99 16l14 -61q-49 -23 -125 -23t-111 44t-34 149v846h-396v57l148 10h717v-67h-398q-4 -289 -4 -858z" />
    <glyph glyph-name="Identity.170" unicode="&#x3c5;" horiz-adv-x="1110" 
d="M554 41q144 0 240 122q97 122 97 357q0 307 -105 561l74 25q109 -284 109 -566t-122 -424t-297 -143q-174 -1 -276 95t-102 307l8 436q0 143 -16 268h74q14 -78 14 -241l-14 -461q0 -178 86 -257t230 -79z" />
    <glyph glyph-name="Identity.171" unicode="&#x3c6;" horiz-adv-x="1433" 
d="M752 1395v-293q238 -4 400 -154t161 -406q0 -256 -166 -409q-166 -152 -395 -156v-383h-72v383q-229 4 -394 157t-165 407q0 253 165 405t394 156v293h72zM199 542q0 -218 141 -358t340 -143v997q-199 -4 -340 -141t-141 -355zM1235 542q0 222 -136 357t-347 139v-997
q201 4 342 142q141 137 141 359z" />
    <glyph glyph-name="Identity.172" unicode="&#x3c7;" horiz-adv-x="1003" 
d="M92 -432l-69 26l442 771l-428 712l72 29l389 -670h8l346 643h80l-391 -714l469 -771l-68 -26l-436 729h-8z" />
    <glyph glyph-name="Identity.173" unicode="&#x3c8;" horiz-adv-x="1443" 
d="M680 1395h74v-1354q223 8 346 145t123 392q0 140 -22 248t-81 255l72 25q59 -154 83 -270t23 -263q0 -279 -146 -435t-398 -165v-379h-74v379q-242 2 -373 133t-131 371v334q0 160 -12 268h74q10 -78 10 -241l-4 -361q0 -207 112 -321t324 -115v1354z" />
    <glyph glyph-name="Identity.174" unicode="&#x3c9;" horiz-adv-x="1499" 
d="M471 -27q-143 0 -240 129q-96 129 -96 373q-1 187 57 333t166 298l60 -43q-111 -145 -161 -277t-50 -328q0 -194 77 -306t184 -111q107 0 176 75q69 74 69 252t-11 287h91q-9 -109 -9 -287t70 -252t180 -75q110 0 183 110q71 110 71 310t-46 326t-155 280l64 39
q109 -154 162 -294t53 -362t-92 -350q-92 -127 -242 -127q-92 1 -167 49t-111 140h-9q-35 -90 -109 -140t-165 -49z" />
    <glyph glyph-name="Identity.175" unicode="&#x401;" horiz-adv-x="1150" 
d="M852 1640q-33 0 -53 20q-21 20 -21 53q0 34 20 54q20 21 53 21q31 0 53 -20t22 -55q0 -33 -20 -53t-54 -20zM492 1713q0 -33 -22 -53t-53 -20t-53 20t-22 53q0 34 22 54q22 21 54 21t52 -20q22 -20 22 -55zM225 0v1487h799v-68h-723v-592h606v-67h-606v-692h746v-68h-822
z" />
    <glyph glyph-name="Identity.176" unicode="&#x410;" horiz-adv-x="1175" 
d="M1071 0l-184 528h-602l-187 -528h-75l530 1487h68l532 -1487h-82zM307 594h557l-102 297q-102 293 -170 518h-8q-55 -188 -172 -518z" />
    <glyph glyph-name="Identity.177" unicode="&#x411;" horiz-adv-x="1271" 
d="M629 68q465 0 465 353q0 179 -118 259t-358 80h-317v-692h328zM225 0v1487h844v-68h-768v-592h346q248 0 385 -97t137 -304q0 -206 -130 -316t-384 -110h-430z" />
    <glyph glyph-name="Identity.178" unicode="&#x412;" horiz-adv-x="1294" 
d="M301 68h313q240 0 371 89t131 271q0 332 -502 332h-313v-692zM301 827h268q451 0 451 295q0 160 -108 230t-328 69h-283v-594zM225 0v1487h389q230 0 358 -90t128 -271q0 -122 -60 -206t-176 -117v-10q152 -25 240 -117t88 -244q0 -208 -146 -320t-405 -112h-416z" />
    <glyph glyph-name="Identity.179" unicode="&#x413;" horiz-adv-x="1083" 
d="M225 0v1487h795v-68h-719v-1419h-76z" />
    <glyph glyph-name="Identity.180" unicode="&#x414;" horiz-adv-x="1382" 
d="M1149 68h154v-41l-15 -451h-63v424h-1067v-424h-64l-12 451v41h68q111 51 202 548q66 367 144 871h653v-1419zM1071 1419h-514q-23 -135 -63 -396t-70 -425q-80 -428 -172 -530h819v1351z" />
    <glyph glyph-name="Identity.181" unicode="&#x415;" horiz-adv-x="1150" 
d="M225 0v1487h799v-68h-723v-592h606v-67h-606v-692h746v-68h-822z" />
    <glyph glyph-name="Identity.182" unicode="&#x416;" horiz-adv-x="1703" 
d="M889 760v-760h-74v760h-260l-442 -760h-90l471 801l-183 405q-66 141 -113 185q-48 43 -104 43q-20 0 -45 -11l-12 82q25 8 51 8q86 0 148 -55t143 -227l182 -404h254v660h74v-660h254l184 404q80 172 142 227t149 55q23 0 51 -8l-14 -82q-20 11 -61 11q-42 0 -88 -42
t-111 -186l-185 -403l471 -803h-88l-442 760h-262z" />
    <glyph glyph-name="Identity.183" unicode="&#x417;" horiz-adv-x="1232" 
d="M506 827q465 1 465 309q1 148 -99 227t-234 79q-258 0 -402 -156l-50 51q70 76 186 126t244 50q182 0 306 -99t125 -265q0 -127 -65 -220t-181 -126v-10q147 -25 237 -124t90 -259q0 -197 -143 -317t-333 -120q-190 -1 -313 53q-122 54 -230 173l51 53q111 -115 215 -161
t268 -46t287 97q123 98 123 270t-132 260t-370 88h-145v67h100z" />
    <glyph glyph-name="Identity.184" unicode="&#x418;" horiz-adv-x="1443" 
d="M225 0v1487h76v-957q0 -133 -8 -419h8l172 286l666 1090h82v-1487h-78v969q0 176 10 407h-8l-172 -286l-668 -1090h-80z" />
    <glyph glyph-name="Identity.185" unicode="&#x419;" horiz-adv-x="1443" 
d="M731 1604q-151 0 -217 83t-78 203h72q6 -100 58 -165t165 -65t166 66t57 164h72q-10 -118 -78 -202t-217 -84zM225 0v1487h76v-957q0 -133 -8 -419h8l172 286l666 1090h82v-1487h-78v969q0 176 10 407h-8l-172 -286l-668 -1090h-80z" />
    <glyph glyph-name="Identity.186" unicode="&#x41a;" horiz-adv-x="1234" 
d="M301 760v-760h-76v1487h76v-660h328l219 404q94 176 150 229t139 53q25 0 53 -8l-14 -82q-78 31 -142 -30q-43 -41 -121 -187l-221 -409l529 -797h-91l-503 760h-326z" />
    <glyph glyph-name="Identity.187" unicode="&#x41b;" horiz-adv-x="1372" 
d="M122 -27q-58 0 -104 19l23 76q83 -37 140 13q74 65 138 404q41 217 181 1002h649v-1487h-78v1419h-508q-29 -156 -83 -470t-85 -474q-69 -384 -169 -465q-46 -37 -104 -37z" />
    <glyph glyph-name="Identity.188" unicode="&#x41c;" horiz-adv-x="1576" 
d="M225 0v1487h121l318 -897q41 -111 122 -336h9q63 172 116 336l320 897h121v-1487h-76v1028q0 147 8 389h-8l-115 -327l-334 -924h-79l-453 1251h-8q10 -201 10 -389v-1028h-72z" />
    <glyph glyph-name="Identity.189" unicode="&#x41d;" horiz-adv-x="1429" 
d="M225 0v1487h76v-660h827v660h78v-1487h-78v760h-827v-760h-76z" />
    <glyph glyph-name="Identity.190" unicode="&#x41e;" horiz-adv-x="1462" 
d="M731 45q236 0 380 193t144 510t-144 505q-144 189 -380 189t-380 -188t-144 -506q0 -317 144 -510t380 -193zM731 -27q-266 0 -435 213q-169 214 -169 562t168 557t436 209t436 -210q168 -208 168 -556t-169 -562t-435 -213z" />
    <glyph glyph-name="Identity.191" unicode="&#x41f;" horiz-adv-x="1421" 
d="M225 0v1487h973v-1487h-78v1419h-819v-1419h-76z" />
    <glyph glyph-name="Identity.192" unicode="&#x420;" horiz-adv-x="1224" 
d="M301 723h264q242 0 356 84q113 84 113 273t-113 265q-114 75 -364 74h-256v-696zM225 0v1487h359q264 0 398 -95q134 -96 134 -310t-135 -320t-389 -107h-291v-655h-76z" />
    <glyph glyph-name="Identity.193" unicode="&#x421;" horiz-adv-x="1267" 
d="M730 -27q-265 0 -434 212q-169 213 -169 563t171 558t456 207q231 0 379 -176l-48 -51q-135 156 -331 156q-254 0 -400 -186t-147 -508q0 -322 145 -512t393 -191q215 0 385 188l48 -49q-183 -211 -448 -211z" />
    <glyph glyph-name="Identity.194" unicode="&#x422;" horiz-adv-x="1173" 
d="M547 0v1419h-479v68h1038v-68h-479v-1419h-80z" />
    <glyph glyph-name="Identity.195" unicode="&#x423;" horiz-adv-x="1089" 
d="M268 -27q-66 0 -114 19l24 76q32 -14 100 -14t119 36q51 37 90 123l39 104l-508 1170h80l463 -1079h8l426 1079h82l-510 -1268q-49 -123 -119 -185t-180 -61z" />
    <glyph glyph-name="Identity.196" unicode="&#x424;" horiz-adv-x="1595" 
d="M834 1513v-223q309 -2 481 -145t172 -397t-173 -400t-480 -149v-226h-72v226q-311 2 -482 148q-171 147 -171 401t171 397t482 145v223h72zM762 266v957q-279 -2 -426 -128q-148 -126 -148 -347q0 -220 149 -350t425 -132zM834 1223v-957q276 2 423 131t147 351t-145 347
q-146 126 -425 128z" />
    <glyph glyph-name="Identity.197" unicode="&#x425;" horiz-adv-x="1062" 
d="M41 0l451 770l-420 717h84l256 -455q82 -135 123 -201h8q88 160 112 201l260 455h78l-420 -721l451 -766h-82l-272 475q-43 76 -142 236h-8q-74 -135 -131 -236l-270 -475h-78z" />
    <glyph glyph-name="Identity.198" unicode="&#x426;" horiz-adv-x="1400" 
d="M1167 68h152v-41l-12 -451h-64v424h-1018v1487h76v-1419h786v1419h80v-1419z" />
    <glyph glyph-name="Identity.199" unicode="&#x427;" horiz-adv-x="1292" 
d="M991 0v715q-141 -27 -307 -27q-254 0 -388 102t-134 336v361h76v-361q0 -202 114 -284t340 -82q166 0 299 26v701h76v-1487h-76z" />
    <glyph glyph-name="Identity.200" unicode="&#x428;" horiz-adv-x="1869" 
d="M225 0v1487h76v-1419h596v1419h76v-1419h596v1419h78v-1487h-1422z" />
    <glyph glyph-name="Identity.201" unicode="&#x429;" horiz-adv-x="1880" 
d="M1647 68h153v-41l-14 -451h-64v424h-1497v1487h76v-1419h596v1419h76v-1419h596v1419h78v-1419z" />
    <glyph glyph-name="Identity.202" unicode="&#x42a;" horiz-adv-x="1605" 
d="M653 68h297q236 0 352 88t115 274q0 330 -483 330h-281v-692zM575 0v1419h-507v68h585v-660h308q250 0 391 -98t141 -303q0 -206 -132 -316t-384 -110h-402z" />
    <glyph glyph-name="Identity.203" unicode="&#x42b;" horiz-adv-x="1703" 
d="M1403 0v1487h76v-1487h-76zM580 68q462 0 462 355q0 179 -116 258q-117 79 -357 79h-268v-692h279zM596 827q524 0 524 -399q0 -208 -131 -318t-383 -110h-381v1487h76v-660h295z" />
    <glyph glyph-name="Identity.204" unicode="&#x42c;" horiz-adv-x="1271" 
d="M618 68q466 0 466 355q0 179 -117 258t-357 79h-309v-692h317zM637 827q522 0 522 -399q0 -208 -131 -318t-381 -110h-422v1487h76v-660h336z" />
    <glyph glyph-name="Identity.205" unicode="&#x42d;" horiz-adv-x="1267" 
d="M549 1513q281 -1 437 -201t157 -562q0 -362 -160 -570t-432 -207q-272 0 -461 211l47 49q176 -188 415 -188t376 187t137 528h-705v67h703q-13 291 -147 453t-367 162q-105 0 -203 -42t-164 -114l-49 51q69 74 181 125t235 51z" />
    <glyph glyph-name="Identity.206" unicode="&#x42e;" horiz-adv-x="1972" 
d="M301 827h397q18 315 174 501t405 185t410 -209t161 -556t-161 -562q-161 -213 -417 -213t-415 212t-159 563v12h-395v-760h-76v1487h76v-660zM1270 45q225 -1 360 191t135 512t-134 506q-134 188 -361 188q-226 0 -362 -188t-136 -507q0 -318 136 -510t362 -192z" />
    <glyph glyph-name="Identity.207" unicode="&#x42f;" horiz-adv-x="1251" 
d="M614 1487h412v-1487h-76v700h-352l-440 -700h-90l442 707q-172 23 -273 121t-102 276q0 383 479 383zM950 766v653h-309q-213 1 -319 -73t-107 -242q0 -338 426 -338h309z" />
    <glyph glyph-name="Identity.208" unicode="&#x430;" horiz-adv-x="1097" 
d="M453 41q174 0 387 182v387q-342 -37 -486 -118q-143 -82 -143 -224q0 -117 68 -172t174 -55zM446 -27q-135 0 -223 74t-88 219q0 176 167 270t538 138q12 365 -262 364q-186 0 -353 -131l-37 60q190 139 394 139q332 0 331 -408v-698h-61l-10 143h-6q-210 -170 -390 -170
z" />
    <glyph glyph-name="Identity.209" unicode="&#x431;" horiz-adv-x="1196" 
d="M1075 528q0 -242 -131 -399q-131 -156 -317 -156q-231 0 -360 172q-128 172 -128 492q0 496 133 687q50 69 98 111q88 77 270 118q68 15 172 32t196 62l16 -76q-63 -39 -168 -57q-269 -45 -361 -88t-125 -88q-34 -44 -62 -91q-69 -114 -91 -418q174 221 412 222
q207 -1 327 -141t119 -382zM627 41q158 0 264 140q106 139 106 347t-98 332t-276 125q-219 0 -410 -242q-2 -35 -2 -108q-1 -279 105 -437t311 -157z" />
    <glyph glyph-name="Identity.210" unicode="&#x432;" horiz-adv-x="1110" 
d="M289 66h295q352 0 352 243q0 109 -95 167t-276 59h-276v-469zM289 602h266q330 0 330 205t-310 205h-286v-410zM215 0v1079h379q369 0 369 -266q0 -180 -179 -235v-9q96 -20 162 -85t66 -177q0 -155 -106 -231t-300 -76h-391z" />
    <glyph glyph-name="Identity.211" unicode="&#x433;" horiz-adv-x="888" 
d="M215 0v1079h616v-67h-542v-1012h-74z" />
    <glyph glyph-name="Identity.212" unicode="&#x434;" horiz-adv-x="1107" 
d="M897 68h145v-41l-10 -414h-63v387h-838v-387h-63l-9 414v41h39q59 31 100 131q40 100 72 362l64 518h563v-1011zM825 68v944h-434l-53 -455q-41 -371 -135 -489h622z" />
    <glyph glyph-name="Identity.213" unicode="&#x435;" horiz-adv-x="1079" 
d="M922 602q0 215 -90 326q-90 110 -244 110q-152 0 -262 -118t-127 -318h723zM121 535q0 255 138 413q137 158 327 158t299 -130t108 -368q0 -47 -4 -73h-790q0 -215 115 -355q116 -139 291 -139t310 98l33 -63q-53 -33 -89 -50q-112 -53 -245 -53q-211 0 -352 153
t-141 409z" />
    <glyph glyph-name="Identity.214" unicode="&#x436;" horiz-adv-x="1394" 
d="M731 530v-530h-67v530h-236l-307 -530h-80l336 575l-107 275q-41 106 -80 142t-90 36q-16 0 -30 -4l-21 74q20 8 47 8q70 0 128 -51t110 -183l106 -276h224v483h67v-483h221l111 276q90 233 235 234q29 0 45 -8l-16 -74q-14 4 -48 4t-74 -36t-81 -142l-108 -272l340 -578
h-84l-303 530h-238z" />
    <glyph glyph-name="Identity.215" unicode="&#x437;" horiz-adv-x="993" 
d="M498 -27q-240 0 -400 144l43 51q141 -127 355 -127q135 0 228 70q93 69 93 185t-94 177t-266 62h-133v67h102q168 0 255 60t87 163q0 105 -76 159t-188 54t-184 -28t-148 -84l-41 53q160 127 365 127q150 0 248 -73t100 -204q0 -170 -185 -251v-11q102 -25 169 -95
t67 -194q1 -126 -113 -216t-284 -89z" />
    <glyph glyph-name="Identity.216" unicode="&#x438;" horiz-adv-x="1241" 
d="M215 0v1079h74v-569q0 -47 -10 -410h10q68 97 155 236l508 743h74v-1079h-74v567q0 121 13 412h-11l-157 -236l-508 -743h-74z" />
    <glyph glyph-name="Identity.217" unicode="&#x439;" horiz-adv-x="1241" 
d="M215 0v1079h74v-569q0 -47 -10 -410h10q68 97 155 236l508 743h74v-1079h-74v567q0 121 13 412h-11l-157 -236l-508 -743h-74zM879 1620h69q-10 -131 -84 -229t-239 -99q-88 0 -154 31q-151 71 -174 297h72q4 -115 63 -192q58 -76 190 -76t192 78t65 190z" />
    <glyph glyph-name="Identity.218" unicode="&#x43a;" horiz-adv-x="1040" 
d="M289 530v-530h-74v1079h74v-483h286l115 276q54 134 110 184t126 50q31 0 47 -8l-19 -74q-12 4 -48 4t-72 -35q-37 -35 -82 -143l-119 -283l366 -567h-79l-342 530h-289z" />
    <glyph glyph-name="Identity.219" unicode="&#x43b;" horiz-adv-x="1122" 
d="M104 -27q-39 0 -73 13l18 71q29 -8 45 -8q135 0 168 283q25 219 90 747h555v-1079h-73v1012h-424q-45 -397 -82 -693q-40 -346 -224 -346z" />
    <glyph glyph-name="Identity.220" unicode="&#x43c;" horiz-adv-x="1380" 
d="M289 0h-74v1079h86l272 -614q5 -10 49 -118t64 -163h10q90 209 115 281l268 614h88v-1079h-71v651q0 88 8 297h-8q-35 -82 -97 -217l-268 -622h-78l-272 622q-61 137 -94 217h-11l13 -297v-651z" />
    <glyph glyph-name="Identity.221" unicode="&#x43d;" horiz-adv-x="1232" 
d="M215 0v1079h74v-477h655v477h74v-1079h-74v535h-655v-535h-74z" />
    <glyph glyph-name="Identity.222" unicode="&#x43e;" horiz-adv-x="1200" 
d="M600 41q174 0 289 138q115 139 115 359t-115 360t-289 140t-288 -140t-114 -360t114 -359q114 -138 288 -138zM600 -27q-203 0 -341 153t-138 413q0 259 138 413t341 154t341 -154t138 -414t-138 -412q-138 -153 -341 -153z" />
    <glyph glyph-name="Identity.223" unicode="&#x43f;" horiz-adv-x="1210" 
d="M215 0v1079h780v-1079h-73v1012h-633v-1012h-74z" />
    <glyph glyph-name="Identity.224" unicode="&#x440;" horiz-adv-x="1218" 
d="M215 -498v1577h61l13 -139h4q211 166 371 166q214 0 324 -146t110 -409q0 -262 -140 -420t-340 -158q-150 0 -329 136v-607h-74zM630 41q166 0 278 144q112 143 112 367t-87 355t-276 131q-153 0 -368 -186v-666q174 -145 341 -145z" />
    <glyph glyph-name="Identity.225" unicode="&#x441;" horiz-adv-x="1007" 
d="M590 -27q-196 0 -333 152q-136 152 -136 413q0 260 140 414t345 154q172 0 316 -135l-48 -53q-129 121 -268 120q-172 0 -290 -141t-118 -361t112 -358q112 -137 285 -137t310 129l43 -53q-162 -144 -358 -144z" />
    <glyph glyph-name="Identity.226" unicode="&#x442;" horiz-adv-x="980" 
d="M455 0v1012h-396v67h865v-67h-398v-1012h-71z" />
    <glyph glyph-name="Identity.227" unicode="&#x443;" horiz-adv-x="958" 
d="M152 -500q-63 0 -105 23l19 67q41 -18 90 -18q182 0 286 303l31 100l-446 1104h82l272 -704q63 -170 121 -303h10q18 49 102 303l242 704h76l-430 -1231q-49 -148 -136 -248t-214 -100z" />
    <glyph glyph-name="Identity.228" unicode="&#x444;" horiz-adv-x="1576" 
d="M752 -498v566q-109 -94 -230 -95q-186 1 -294 147t-108 410t116 420q115 156 286 156q96 0 230 -92v612h71v-614q121 94 244 94q193 0 290 -146t97 -409q0 -262 -115 -420t-284 -158q-104 0 -232 95v-566h-71zM514 1038q-134 0 -224 -145q-91 -145 -91 -363t87 -354
t242 -135q118 0 224 100v799q-104 98 -238 98zM1066 41q134 0 223 143q89 144 89 368t-76 355q-77 131 -241 131q-127 0 -238 -98v-803q109 -96 243 -96z" />
    <glyph glyph-name="Identity.229" unicode="&#x445;" horiz-adv-x="888" 
d="M31 0l370 563l-338 516h82l183 -286q23 -40 64 -99t54 -80h9q92 145 114 179l179 286h77l-338 -520l371 -559h-84l-201 309q-51 90 -129 199h-10q-25 -35 -129 -199l-194 -309h-80z" />
    <glyph glyph-name="Identity.230" unicode="&#x446;" horiz-adv-x="1179" 
d="M977 68h145v-41l-10 -414h-61v387h-836v1079h74v-1011h614v1011h74v-1011z" />
    <glyph glyph-name="Identity.231" unicode="&#x447;" horiz-adv-x="1089" 
d="M803 0v479q-145 -27 -232 -26q-213 0 -315 82t-102 260v284h71v-284q0 -147 86 -211t273 -64q100 0 219 27v532h71v-1079h-71z" />
    <glyph glyph-name="Identity.232" unicode="&#x448;" horiz-adv-x="1597" 
d="M215 0v1079h74v-1011h473v1011h72v-1011h475v1011h71v-1079h-1165z" />
    <glyph glyph-name="Identity.233" unicode="&#x449;" horiz-adv-x="1583" 
d="M1380 68h146v-41l-10 -414h-64v387h-1237v1079h74v-1011h473v1011h72v-1011h475v1011h71v-1011z" />
    <glyph glyph-name="Identity.234" unicode="&#x44a;" horiz-adv-x="1294" 
d="M559 68h209q178 0 263 60t85 192t-85 192q-85 59 -263 59h-209v-503zM485 0v1012h-426v67h500v-442h232q190 0 296 -81q107 -82 107 -236t-106 -237t-297 -83h-306z" />
    <glyph glyph-name="Identity.235" unicode="&#x44b;" horiz-adv-x="1406" 
d="M1120 0v1079h72v-1079h-72zM289 68h186q178 0 263 60t85 192t-85 192q-85 59 -263 59h-186v-503zM215 0v1079h74v-442h209q190 0 296 -81q106 -82 107 -236q0 -154 -106 -237t-297 -83h-283z" />
    <glyph glyph-name="Identity.236" unicode="&#x44c;" horiz-adv-x="1060" 
d="M289 68h246q176 0 261 60t85 192t-85 192q-85 59 -261 59h-246v-503zM215 0v1079h74v-442h268q189 0 295 -81q106 -82 106 -236t-105 -237t-296 -83h-342z" />
    <glyph glyph-name="Identity.237" unicode="&#x44d;" horiz-adv-x="1007" 
d="M427 1106q198 0 328 -145t130 -421t-132 -422q-132 -144 -337 -144t-357 143l41 51q132 -127 312 -127t288 130t109 364h-553v67h551q-13 207 -119 322t-266 115t-289 -121l-47 53q143 135 341 135z" />
    <glyph glyph-name="Identity.238" unicode="&#x44e;" horiz-adv-x="1599" 
d="M289 592h293q14 240 139 377t315 137t315 -153q126 -153 126 -415t-126 -413q-126 -152 -320 -152q-193 -1 -321 147t-130 404h-291v-524h-74v1079h74v-487zM1028 41q166 0 269 137q103 138 103 360t-102 361q-104 139 -270 139t-271 -139t-105 -361t104 -360
q106 -138 272 -137z" />
    <glyph glyph-name="Identity.239" unicode="&#x44f;" horiz-adv-x="1107" 
d="M571 1079h320v-1079h-72v485h-262l-369 -485h-86l375 489q-139 17 -222 93t-83 206q0 291 399 291zM819 551v461h-223q-348 0 -348 -224q0 -117 92 -177t256 -60h223z" />
    <glyph glyph-name="Identity.240" unicode="&#x451;" horiz-adv-x="1079" 
d="M780 1356q-30 0 -52 22t-21 52q-1 30 21 52t52 22t54 -22q22 -22 22 -52t-22 -53q-23 -21 -54 -21zM391 1356q-31 0 -53 22t-21 52q0 30 22 52q23 22 53 22t52 -22t23 -52q-1 -30 -23 -52t-53 -22zM922 602q0 215 -90 326q-90 110 -244 110q-152 0 -262 -118t-127 -318
h723zM121 535q0 255 138 413q137 158 327 158t299 -130t108 -368q0 -47 -4 -73h-790q0 -215 115 -355q116 -139 291 -139t310 98l33 -63q-53 -33 -89 -50q-112 -53 -245 -53q-211 0 -352 153t-141 409z" />
    <glyph glyph-name="Identity.241" unicode="&#x2010;" 
d="M768 815h512v-74h-512v74z" />
    <glyph glyph-name="Identity.242" unicode="&#x2015;" 
d="M143 815h1762v-74h-1762v74z" />
    <glyph glyph-name="Identity.243" unicode="&#x2018;" horiz-adv-x="473" 
d="M228 1274q22 0 46 -20t23 -56q0 -78 -78 -78q-88 0 -88 135q0 211 178 336l37 -43q-76 -66 -110 -126t-35 -150q5 2 27 2z" />
    <glyph glyph-name="Identity.244" unicode="&#x2019;" horiz-adv-x="473" 
d="M244 1425q-22 -1 -44 19q-24 20 -24 55q0 78 78 78q40 0 64 -35t24 -98q0 -209 -178 -338l-37 43q76 66 110 127t35 151q-6 -2 -28 -2z" />
    <glyph glyph-name="Identity.245" unicode="&#x201c;" horiz-adv-x="765" 
d="M522 1274q22 0 44 -20q24 -20 24 -56q0 -37 -22 -57q-22 -21 -58 -21t-62 36q-24 36 -24 99q0 209 178 336l37 -43q-76 -68 -110 -128t-35 -148q6 2 28 2zM228 1274q22 0 46 -20t23 -56q0 -78 -78 -78q-88 0 -88 135q0 211 178 336l37 -43q-76 -66 -110 -126t-35 -150
q5 2 27 2z" />
    <glyph glyph-name="Identity.246" unicode="&#x201d;" horiz-adv-x="765" 
d="M538 1425q-22 -1 -46 19t-23 56q0 74 80 76q37 0 61 -34q24 -35 25 -98q0 -209 -178 -338l-37 43q76 66 109 127q34 61 36 151q-5 -2 -27 -2zM244 1425q-22 -1 -44 19q-24 20 -24 55q0 78 78 78q40 0 64 -35t24 -98q0 -209 -178 -338l-37 43q76 66 110 127t35 151
q-6 -2 -28 -2z" />
    <glyph glyph-name="Identity.247" unicode="&#x2020;" 
d="M1063 1548l-8 -516l440 4v-73l-440 4l8 -1082h-78l8 1082l-440 -4v73l440 -4l-8 516h78z" />
    <glyph glyph-name="Identity.248" unicode="&#x2021;" 
d="M1063 1548l-8 -495l440 4v-74l-440 4l2 -547l438 4v-73l-440 4l8 -490h-78l8 490l-440 -4v73l440 -4v547l-440 -4v74l440 -4l-8 495h78z" />
    <glyph glyph-name="Identity.249" unicode="&#x2025;" 
d="M1434 778q0 43 29 73q30 30 73 30t73 -30q29 -30 29 -73q0 -42 -30 -72t-72 -30t-72 30t-30 72zM410 778q0 43 29 73q30 30 73 30t73 -30q29 -30 29 -73q0 -42 -30 -72t-72 -30t-72 30t-30 72z" />
    <glyph glyph-name="Identity.250" unicode="&#x2026;" 
d="M1604 778q0 43 29 73q30 30 73 30t73 -30q29 -30 29 -73q0 -42 -30 -72t-72 -30t-72 30t-30 72zM922 778q0 43 29 73q30 30 73 30t73 -30q29 -30 29 -73q0 -42 -30 -72t-72 -30t-72 30t-30 72zM240 778q0 43 29 73q30 30 73 30t73 -30q29 -30 29 -73q0 -42 -30 -72
t-72 -30t-72 30t-30 72z" />
    <glyph glyph-name="Identity.251" unicode="&#x2030;" 
d="M1898 420q0 55 -8 112q-39 275 -186 275q-55 0 -95 -42q-39 -42 -65 -136t-26 -179q0 -283 90 -371q41 -42 98 -42q145 0 184 271q8 57 8 112zM1062 37q144 0 183 271q8 57 8 143t-27 180q-50 176 -167 176q-55 0 -95 -42t-65 -133q-42 -154 -20 -324t86 -230
q41 -41 97 -41zM1446 423q0 226 78 337q78 112 183 110t184 -112t79 -334q0 -223 -77 -336t-184 -113t-185 111t-78 337zM801 423q0 226 78 337q78 112 183 110t184 -112t79 -334q0 -223 -77 -336t-184 -113t-185 111t-78 337zM530 1063q0 55 -8 113q-23 171 -88 233
q-41 41 -97 41q-146 0 -180 -276q-7 -58 -7 -112t7 -112q20 -168 85 -229q41 -41 97 -41q144 0 183 271q8 57 8 112zM78 1066q0 226 78 337t183 109t184 -112t79 -333t-77 -336t-184 -113t-185 111t-78 337zM276 -39l777 1567h73l-776 -1567h-74z" />
    <glyph glyph-name="Identity.252" unicode="&#x2032;" horiz-adv-x="473" 
d="M184 1122l56 441l65 -4l-16 -142l-56 -299z" />
    <glyph glyph-name="Identity.253" unicode="&#x2033;" horiz-adv-x="765" 
d="M477 1122l53 441l70 -4l-18 -142l-56 -299zM184 1122l56 441l65 -4l-16 -142l-56 -299z" />
    <glyph glyph-name="Identity.254" unicode="&#x203b;" 
d="M870 195q0 63 45 108t109 45t108 -45q46 -45 46 -108t-45 -109t-109 -45q-64 0 -109 45q-45 46 -45 109zM1608 625q-63 0 -109 45q-45 45 -45 108q0 62 45 108t109 46t108 -45q45 -45 45 -109t-45 -108q-45 -45 -108 -45zM440 932q62 0 108 -45t46 -109t-45 -108
q-45 -45 -109 -45t-108 45q-45 45 -45 108q0 62 45 108t108 46zM348 1513l676 -675l676 675l59 -59l-676 -676l676 -676l-59 -59l-676 676l-678 -678l-59 59l678 678l-676 676zM1178 1362q0 -62 -45 -108t-109 -46t-109 45t-45 109t45 108q45 46 109 46t108 -46
q46 -46 46 -108z" />
    <glyph glyph-name="Identity.255" unicode="&#x2103;" 
d="M1474 -27q-265 0 -435 210q-169 210 -169 559t170 555t455 206q227 0 383 -176l-53 -55q-135 152 -328 151q-250 0 -392 -183q-142 -182 -142 -498t141 -501t385 -186q215 0 377 183l53 -56q-180 -209 -445 -209zM205 1269q0 -87 51 -141t130 -55q79 0 131 55
q52 56 52 142t-52 141t-132 55t-130 -55t-50 -142zM637 1270q0 -118 -75 -190q-75 -70 -176 -70t-176 70t-75 190t75 190t176 70t176 -71t75 -189z" />
    <glyph glyph-name="Identity.256" unicode="&#x212b;" 
d="M774 1687q0 103 70 171t175 68t178 -70q73 -68 73 -170t-54 -168t-141 -84l512 -1434h-92l-178 518h-592l-180 -518h-86l506 1434q-84 16 -138 83q-53 67 -53 170zM1202 1673q0 89 -53 143t-131 54t-130 -54t-52 -143q0 -90 51 -141t131 -51t132 51t52 141zM750 590h542
l-98 287q-117 338 -168 514h-10q-63 -229 -166 -514z" />
    <glyph glyph-name="Identity.257" unicode="&#x2190;" 
d="M1966 741h-1712q236 -178 395 -387l-61 -43q-100 131 -238 256t-278 211q139 86 277 211t239 256l61 -43q-160 -209 -395 -387h1712v-74z" />
    <glyph glyph-name="Identity.258" unicode="&#x2191;" 
d="M987 -164v1712q-178 -236 -387 -395l-43 61q131 100 256 238t211 279q86 -139 211 -277t256 -240l-43 -61q-209 160 -387 395v-1712h-74z" />
    <glyph glyph-name="Identity.259" unicode="&#x2192;" 
d="M82 741v74h1712q-236 178 -395 387l61 43q100 -131 238 -256t278 -211q-139 -86 -277 -211t-239 -256l-61 43q160 209 395 387h-1712z" />
    <glyph glyph-name="Identity.260" unicode="&#x2193;" 
d="M1061 1720v-1712q178 236 387 395l43 -61q-131 -100 -256 -238t-211 -278q-86 139 -211 277t-256 239l43 61q209 -160 387 -395v1712h74z" />
    <glyph glyph-name="Identity.261" unicode="&#x21d2;" 
d="M82 1012v73h1425q-135 147 -223 287l62 39q116 -176 294 -357t353 -292q-175 -111 -353 -292t-294 -357l-62 39q88 139 223 286h-1425v74h1495q158 158 289 250q-131 92 -289 250h-1495z" />
    <glyph glyph-name="Identity.262" unicode="&#x21d4;" 
d="M1577 1012h-1106q-158 -158 -289 -250q131 -92 289 -250h1106q158 158 289 250q-131 92 -289 250zM702 1411l62 -39q-88 -139 -223 -287h966q-135 147 -223 287l62 39q116 -176 294 -357t353 -292q-175 -111 -353 -292t-294 -357l-62 39q88 139 223 286h-966
q135 -147 223 -286l-62 -39q-117 176 -294 357q-178 181 -353 292q174 111 353 292q177 181 294 357z" />
    <glyph glyph-name="Identity.263" unicode="&#x2200;" 
d="M635 891l387 -768h4l387 768h-778zM1747 1550l65 -32l-784 -1547h-8l-784 1547l65 32l297 -585h852z" />
    <glyph glyph-name="Identity.264" unicode="&#x2202;" 
d="M557 383q0 -154 87 -250t243 -96q143 4 274 118t217 337q0 162 -114 276t-278 113q-165 1 -297 -151t-132 -347zM1487 1041q0 212 -94 329t-258 117q-115 -1 -205 -63t-144 -142l-53 41q55 84 161 156t234 71q201 0 313 -133q111 -133 111 -395t-87 -506t-243 -394
t-339 -149q-184 0 -288 119q-103 119 -103 301q0 221 152 385q153 164 337 164t294 -92t150 -229h5q57 208 57 420z" />
    <glyph glyph-name="Identity.265" unicode="&#x2203;" 
d="M412 1497h1206v-1470h-1206v73h1132v625h-1132v74h1132v624h-1132v74z" />
    <glyph glyph-name="Identity.266" unicode="&#x2207;" 
d="M1249 565l367 813h-1188l367 -813l225 -506h10zM334 1446h1376v-45l-655 -1442h-64l-657 1442v45z" />
    <glyph glyph-name="Identity.267" unicode="&#x2208;" 
d="M1786 1350h-832q-256 0 -429 -158t-187 -393h1448v-74h-1448q14 -235 187 -393t429 -158h832v-74h-832q-296 0 -494 190t-198 472q0 281 198 471t494 190h832v-73z" />
    <glyph glyph-name="Identity.268" unicode="&#x220b;" 
d="M1094 1350h-832v73h832q296 0 494 -190t198 -471t-198 -471t-494 -191h-832v74h832q256 0 429 158t187 393h-1448v74h1448q-14 235 -187 393t-429 158z" />
    <glyph glyph-name="Identity.269" unicode="&#x221a;" 
d="M2048 1802v-73h-836l-657 -1893h-59l-217 578l-146 -209l-51 35l262 370l209 -555l608 1747h887z" />
    <glyph glyph-name="Identity.270" unicode="&#x221d;" 
d="M156 762q0 -148 99 -232t232 -84q276 0 492 316q-215 315 -492 315q-133 0 -232 -84t-99 -231zM82 762q0 182 124 286t281 103q307 0 537 -326q225 326 535 326q100 0 176 -23l-27 -69q-66 18 -149 18q-277 0 -492 -315q215 -315 492 -316q84 0 149 19l27 -70
q-76 -23 -176 -22q-309 0 -535 325q-229 -326 -537 -325q-157 0 -281 103q-124 104 -124 286z" />
    <glyph glyph-name="Identity.271" unicode="&#x221e;" 
d="M1890 762q0 148 -99 231q-99 84 -232 84q-277 0 -492 -315q215 -315 492 -316q133 0 232 84t99 232zM156 762q0 -148 99 -232t232 -84q276 0 492 316q-215 315 -492 315q-133 0 -232 -84t-99 -231zM1559 1151q157 0 281 -103q124 -104 124 -286t-124 -286t-281 -103
q-309 0 -535 325q-229 -326 -537 -325q-157 0 -281 103q-124 104 -124 286t124 286t281 103q308 0 537 -326q225 326 535 326z" />
    <glyph glyph-name="Identity.272" unicode="&#x2220;" 
d="M393 125h1393v-74h-1567v8l1372 1371l51 -52l-1249 -1247v-6z" />
    <glyph glyph-name="Identity.273" unicode="&#x2225;" 
d="M915 -20l-65 32l680 1362l67 -33zM451 211l682 1362l65 -33l-680 -1362z" />
    <glyph glyph-name="Identity.274" unicode="&#x2227;" 
d="M236 16l784 1547h8l784 -1547l-65 -32l-721 1427h-4l-721 -1427z" />
    <glyph glyph-name="Identity.275" unicode="&#x2228;" 
d="M1812 1507l-784 -1546h-8l-784 1546l65 33l721 -1427h4l721 1427z" />
    <glyph glyph-name="Identity.276" unicode="&#x2229;" 
d="M362 831q0 297 190 495t472 198q281 0 471 -198t191 -495v-831h-74v831q0 267 -169 443t-419 176t-419 -176t-169 -443v-831h-74v831z" />
    <glyph glyph-name="Identity.277" unicode="&#x222a;" 
d="M1686 692q0 -296 -190 -494t-472 -198q-281 0 -471 198t-191 494v832h74v-832q0 -266 169 -442t419 -176t419 176t169 442v832h74v-832z" />
    <glyph glyph-name="Identity.278" unicode="&#x222b;" 
d="M987 293v964q0 463 334 463q33 0 57 -6l-6 -61q-20 6 -54 6t-62 -4t-66 -27q-128 -77 -129 -364v-965q0 -463 -334 -463q-33 0 -57 6l6 62q20 -6 54 -6q131 0 194 93t63 302z" />
    <glyph glyph-name="Identity.279" unicode="&#x222c;" 
d="M1376 293v964q0 463 334 463q33 0 57 -6l-6 -61q-20 6 -54 6q-33 0 -61 -4t-67 -27q-129 -76 -129 -364v-965q0 -463 -334 -463q-33 0 -57 6l6 62q20 -6 54 -6q131 0 194 93t63 302zM598 293v964q0 463 334 463q33 0 57 -6l-6 -61q-23 6 -55 6t-61 -4t-67 -27
q-128 -77 -128 -364v-965q0 -463 -334 -463q-33 0 -57 6l6 62q20 -6 54 -6q131 0 194 93t63 302z" />
    <glyph glyph-name="Identity.280" unicode="&#x2234;" 
d="M1489 256q0 49 35 84t84 35t84 -35q34 -35 34 -84t-34 -84t-84 -35q-49 0 -84 35t-35 84zM324 256q0 49 34 84q35 35 84 35t84 -35t35 -84t-35 -84t-84 -35t-84 35q-34 35 -34 84zM905 1268q0 49 35 84q35 34 84 34t84 -34t35 -84q0 -49 -35 -84t-84 -35t-84 35t-35 84z
" />
    <glyph glyph-name="Identity.281" unicode="&#x2235;" 
d="M905 256q0 49 35 84t84 35t84 -35t35 -84t-35 -84t-84 -35t-84 35t-35 84zM1489 1268q0 49 35 84q35 34 84 34t84 -34q34 -34 34 -84q0 -49 -34 -84t-84 -35q-49 0 -84 35t-35 84zM324 1268q0 49 34 84q35 34 84 34t84 -34t35 -84q0 -49 -35 -84t-84 -35t-84 35
q-34 35 -34 84z" />
    <glyph glyph-name="Identity.282" unicode="&#x223d;" 
d="M1964 762q0 -182 -124 -286t-281 -103q-100 0 -177 22l27 70q66 -18 150 -19q133 0 232 84t99 232t-99 231q-99 84 -232 84q-285 0 -510 -342q-236 -362 -562 -362q-157 0 -281 103q-124 104 -124 286t124 286t281 103q100 0 177 -23l-27 -69q-63 18 -150 18
q-133 0 -232 -84t-99 -231q0 -148 99 -232t232 -84q285 0 510 342q236 362 562 363q157 0 281 -103q124 -104 124 -286z" />
    <glyph glyph-name="Identity.283" unicode="&#x2252;" 
d="M1286 170q0 49 35 84t84 35t84 -35t35 -84t-35 -84t-84 -35t-84 35t-35 84zM262 588h1524v-74h-1524v74zM262 1010h1524v-74h-1524v74zM524 1354q0 49 35 84t84 35t84 -35t35 -84t-35 -84t-84 -35t-84 35t-35 84z" />
    <glyph glyph-name="Identity.284" unicode="&#x2260;" 
d="M1786 920h-666l-119 -330h785v-74h-811l-176 -483l-70 26l166 457h-633v74h660l120 330h-780v73h807l180 498l70 -27l-172 -471h639v-73z" />
    <glyph glyph-name="Identity.285" unicode="&#x2261;" 
d="M262 360h1524v-73h-1524v73zM262 799h1524v-74h-1524v74zM262 1237h1524v-74h-1524v74z" />
    <glyph glyph-name="Identity.286" unicode="&#x2266;" 
d="M262 -8h1524v-74h-1524v74zM262 295h1524v-74h-1524v74zM1769 1720l27 -69l-1378 -537v-8l1378 -539l-27 -67l-1550 606v8z" />
    <glyph glyph-name="Identity.287" unicode="&#x2267;" 
d="M262 -8h1524v-74h-1524v74zM262 295h1524v-74h-1524v74zM279 1720l1550 -606v-8l-1550 -606l-27 67l1378 539v8l-1378 537z" />
    <glyph glyph-name="Identity.288" unicode="&#x226a;" 
d="M1845 1550l43 -59l-1044 -725v-8l1044 -725l-43 -60l-1128 785v8zM1286 1550l41 -59l-1042 -725v-8l1042 -725l-41 -60l-1128 785v8z" />
    <glyph glyph-name="Identity.289" unicode="&#x226b;" 
d="M762 1550l1128 -784v-8l-1128 -785l-41 60l1042 725v8l-1042 725zM203 1550l1128 -784v-8l-1128 -785l-43 60l1044 725v8l-1044 725z" />
    <glyph glyph-name="Identity.290" unicode="&#x2282;" 
d="M954 100q-296 0 -494 190t-198 472q0 281 198 471t494 190h832v-73h-832q-266 0 -442 -169t-176 -419t176 -419t442 -169h832v-74h-832z" />
    <glyph glyph-name="Identity.291" unicode="&#x2283;" 
d="M1094 1423q296 0 494 -190t198 -471t-198 -471t-494 -191h-832v74h832q266 0 442 169t176 419t-176 419t-442 169h-832v73h832z" />
    <glyph glyph-name="Identity.292" unicode="&#x2286;" 
d="M262 47h1524v-74h-1524v74zM844 1477q-246 0 -377 -132q-131 -133 -131 -317t131 -316t377 -132h942v-74h-944q-274 0 -427 154t-153 368q0 215 153 369t427 153h944v-73h-942z" />
    <glyph glyph-name="Identity.293" unicode="&#x2287;" 
d="M262 47h1524v-74h-1524v74zM1206 580q244 0 375 132t131 316t-131 316t-375 133h-944v73h944q274 0 427 -154t153 -368q0 -215 -153 -369t-427 -153h-944v74h944z" />
    <glyph glyph-name="Identity.294" unicode="&#x22a5;" 
d="M1061 160h751v-74h-1576v74h751v1360h74v-1360z" />
    <glyph glyph-name="Identity.295" unicode="&#x2312;" 
d="M59 1307q428 411 965 411t965 -411l-39 -52q-400 397 -926 397t-926 -397z" />
    <glyph glyph-name="Identity.296" unicode="&#x2500;" 
d="M0 737v82h2048v-82h-2048z" />
    <glyph glyph-name="Identity.297" unicode="&#x2501;" 
d="M0 655v246h2048v-246h-2048z" />
    <glyph glyph-name="Identity.298" unicode="&#x2502;" 
d="M983 -246v2048h82v-2048h-82z" />
    <glyph glyph-name="Identity.299" unicode="&#x2503;" 
d="M901 -246v2048h246v-2048h-246z" />
    <glyph glyph-name="Identity.300" unicode="&#x250c;" 
d="M2048 737h-983v-983h-82v1065h1065v-82z" />
    <glyph glyph-name="Identity.301" unicode="&#x250f;" 
d="M2048 655h-901v-901h-246v1147h1147v-246z" />
    <glyph glyph-name="Identity.302" unicode="&#x2510;" 
d="M1065 -246h-82v983h-983v82h1065v-1065z" />
    <glyph glyph-name="Identity.303" unicode="&#x2513;" 
d="M1147 -246h-246v901h-901v246h1147v-1147z" />
    <glyph glyph-name="Identity.304" unicode="&#x2514;" 
d="M2048 737h-1065v1065h82v-983h983v-82z" />
    <glyph glyph-name="Identity.305" unicode="&#x2517;" 
d="M901 655v1147h246v-901h901v-246h-1147z" />
    <glyph glyph-name="Identity.306" unicode="&#x2518;" 
d="M1065 737h-1065v82h983v983h82v-1065z" />
    <glyph glyph-name="Identity.307" unicode="&#x251b;" 
d="M0 655v246h901v901h246v-1147h-1147z" />
    <glyph glyph-name="Identity.308" unicode="&#x251c;" 
d="M2048 737h-983v-983h-82v2048h82v-983h983v-82z" />
    <glyph glyph-name="Identity.309" unicode="&#x251d;" 
d="M2048 655h-983v-901h-82v2048h82v-901h983v-246z" />
    <glyph glyph-name="Identity.310" unicode="&#x2520;" 
d="M2048 737h-901v-983h-246v2048h246v-983h901v-82z" />
    <glyph glyph-name="Identity.311" unicode="&#x2523;" 
d="M2048 655h-901v-901h-246v2048h246v-901h901v-246z" />
    <glyph glyph-name="Identity.312" unicode="&#x2524;" 
d="M1065 -246h-82v983h-983v82h983v983h82v-2048z" />
    <glyph glyph-name="Identity.313" unicode="&#x2525;" 
d="M1065 -246h-82v901h-983v246h983v901h82v-2048z" />
    <glyph glyph-name="Identity.314" unicode="&#x2528;" 
d="M1147 -246h-246v983h-901v82h901v983h246v-2048z" />
    <glyph glyph-name="Identity.315" unicode="&#x252b;" 
d="M1147 -246h-246v901h-901v246h901v901h246v-2048z" />
    <glyph glyph-name="Identity.316" unicode="&#x252c;" 
d="M2048 737h-983v-983h-82v983h-983v82h2048v-82z" />
    <glyph glyph-name="Identity.317" unicode="&#x252f;" 
d="M2048 655h-983v-901h-82v901h-983v246h2048v-246z" />
    <glyph glyph-name="Identity.318" unicode="&#x2530;" 
d="M2048 737h-901v-983h-246v983h-901v82h2048v-82z" />
    <glyph glyph-name="Identity.319" unicode="&#x2533;" 
d="M2048 655h-901v-901h-246v901h-901v246h2048v-246z" />
    <glyph glyph-name="Identity.320" unicode="&#x2534;" 
d="M2048 737h-2048v82h983v983h82v-983h983v-82z" />
    <glyph glyph-name="Identity.321" unicode="&#x2537;" 
d="M2048 655h-2048v246h983v901h82v-901h983v-246z" />
    <glyph glyph-name="Identity.322" unicode="&#x2538;" 
d="M2048 737h-2048v82h901v983h246v-983h901v-82z" />
    <glyph glyph-name="Identity.323" unicode="&#x253b;" 
d="M2048 655h-2048v246h901v901h246v-901h901v-246z" />
    <glyph glyph-name="Identity.324" unicode="&#x253c;" 
d="M2048 737h-983v-983h-82v983h-983v82h983v983h82v-983h983v-82z" />
    <glyph glyph-name="Identity.325" unicode="&#x253f;" 
d="M2048 655h-983v-901h-82v901h-983v246h983v901h82v-901h983v-246z" />
    <glyph glyph-name="Identity.326" unicode="&#x2542;" 
d="M2048 737h-901v-983h-246v983h-901v82h901v983h246v-983h901v-82z" />
    <glyph glyph-name="Identity.327" unicode="&#x254b;" 
d="M2048 655h-901v-901h-246v901h-901v246h901v901h246v-901h901v-246z" />
    <glyph glyph-name="Identity.328" unicode="&#x25a0;" 
d="M205 1597h1638v-1638h-1638v1638z" />
    <glyph glyph-name="Identity.329" unicode="&#x25a1;" 
d="M266 1536v-1516h1516v1516h-1516zM205 1597h1638v-1638h-1638v1638z" />
    <glyph glyph-name="Identity.330" unicode="&#x25b2;" 
d="M1024 1692l963 -1667h-1926z" />
    <glyph glyph-name="Identity.331" unicode="&#x25b3;" 
d="M1024 1569l-856 -1483h1712zM1024 1692l963 -1667h-1926z" />
    <glyph glyph-name="Identity.332" unicode="&#x25bc;" 
d="M61 1532h1926l-963 -1667z" />
    <glyph glyph-name="Identity.333" unicode="&#x25bd;" 
d="M1880 1470h-1712l856 -1482zM61 1532h1926l-963 -1667z" />
    <glyph glyph-name="Identity.334" unicode="&#x25c6;" 
d="M1024 1778l999 -1000l-999 -999l-999 999z" />
    <glyph glyph-name="Identity.335" unicode="&#x25c7;" 
d="M1024 1690l-911 -912l911 -911l911 911zM1024 1778l999 -1000l-999 -999l-999 999z" />
    <glyph glyph-name="Identity.336" unicode="&#x25cb;" 
d="M164 778q0 -356 252 -608t608 -252t608 252t252 608t-252 608t-608 252t-608 -252t-252 -608zM1024 -143q-250 0 -463 123q-213 124 -336 336t-123 462t123 463t336 336t463 123t463 -123t336 -336t123 -463t-123 -463t-336 -335t-463 -123z" />
    <glyph glyph-name="Identity.337" unicode="&#x25ce;" 
d="M1583 778q0 232 -164 396t-395 164t-395 -164t-164 -396t164 -395q164 -164 395 -164t395 164t164 395zM414 778q0 254 178 432t432 178t432 -178t178 -432t-178 -432t-432 -178t-432 178t-178 432zM1884 778q0 356 -252 608t-608 252t-608 -252t-252 -608t252 -608
t608 -252t608 252t252 608zM102 778q0 250 123 463t336 336t463 123t463 -123t336 -336t123 -463t-123 -463t-336 -335t-463 -123q-250 0 -463 123q-213 124 -336 336t-123 462z" />
    <glyph glyph-name="Identity.338" unicode="&#x25cf;" 
d="M1024 -143q-250 0 -463 123q-213 124 -336 336t-123 462t123 463t336 336t463 123t463 -123t336 -336t123 -463t-123 -463t-336 -335t-463 -123z" />
    <glyph glyph-name="Identity.339" unicode="&#x25ef;" 
d="M1913 778q0 369 -260 629t-629 260t-629 -260t-260 -629q0 -368 260 -628t629 -260t629 259q260 260 260 629zM1024 1720q390 0 666 -276t276 -666t-276 -665q-276 -277 -666 -277t-666 276t-276 666q0 389 276 666q277 276 666 276z" />
    <glyph glyph-name="Identity.340" unicode="&#x2605;" 
d="M1970 991v-4l-581 -422l227 -692h-4l-588 426l-588 -426h-4l227 692l-581 422v4h719l225 690h4l225 -690h719z" />
    <glyph glyph-name="Identity.341" unicode="&#x2606;" 
d="M842 930h-447l-166 8v-4l152 -98l352 -246l-129 -383l-72 -195l5 -2l168 129l319 236l319 -236l168 -129l5 2l-72 195l-129 383l352 246l152 98v4l-168 -8h-445l-133 418l-47 168h-4l-47 -168zM1970 991v-16l-581 -410l231 -686l-12 -10l-584 430l-584 -430l-12 10
l231 686l-581 410v16h719l219 690h16l219 -690h719z" />
    <glyph glyph-name="Identity.342" unicode="&#x2640;" 
d="M1360 1270q0 139 -98 237q-98 99 -238 99t-238 -98t-98 -238t98 -238t238 -98t238 98q98 99 98 238zM614 1277q0 165 120 284t290 119t290 -120q120 -118 120 -283t-106 -283t-267 -134v-272h610v-74h-610v-637h-74v637h-610v74h610v272q-161 16 -267 134t-106 283z" />
    <glyph glyph-name="Identity.343" unicode="&#x2642;" 
d="M322 412q0 -140 98 -238t237 -98t238 98q98 98 98 238t-98 237q-97 99 -237 99t-238 -98t-98 -238zM1067 405q0 -163 -120 -283t-290 -120q-169 0 -289 120t-120 290t120 290t277 119q157 0 275 -94l690 688h-613v74h738v-737h-74v612l-690 -690q96 -106 96 -269z" />
    <glyph glyph-name="Identity.344" unicode="&#x266a;" 
d="M995 1720h52q0 -244 237 -450q264 -228 264 -456t-172 -505h-53q129 270 129 438q0 169 -106 299t-269 166v-1028q1 -154 -111 -251t-264 -97q-76 0 -133 40t-57 112q0 106 113 194t241 88q80 0 129 -26v1476z" />
    <glyph glyph-name="Identity.345" unicode="&#x266d;" 
d="M1384 706q0 96 -51 144q-51 47 -139 47t-200 -81t-195 -243v-507q77 82 197 171t196 144t134 142t58 183zM1236 989q128 1 199 -71t71 -185t-54 -209q-53 -96 -143 -169q-91 -73 -187 -135q-272 -175 -381 -310h-20v1737h78v-959q72 131 190 216q119 85 247 85z" />
    <glyph glyph-name="Identity.346" unicode="&#x266f;" 
d="M1221 612v424l-394 -55v-424zM1298 -18h-77v520l-394 -56v-530h-77v518l-279 -39v111l279 39v424l-279 -39v110l279 39v510h77v-497l394 55v508h77v-496l279 39v-111l-279 -38v-424l279 39v-111l-279 -39v-532z" />
    <glyph glyph-name="Identity.347" unicode="&#x3001;" 
d="M655 -39l-59 -49q-217 268 -465 461l51 49q223 -178 473 -461z" />
    <glyph glyph-name="Identity.348" unicode="&#x3002;" 
d="M399 -33q96 0 164 68t68 164q0 95 -68 163t-164 68q-95 0 -163 -68t-68 -164t68 -163q68 -68 163 -68zM399 492q121 0 207 -86t86 -207t-86 -207t-207 -86t-207 86t-86 207t86 207t207 86z" />
    <glyph glyph-name="Identity.349" unicode="&#x3003;" 
d="M1411 1280l100 -37l-376 -952l-48 16zM860 1280l101 -37l-377 -952l-47 16z" />
    <glyph glyph-name="Identity.350" unicode="&#x3005;" 
d="M1612 1163l43 -24q-78 -207 -210 -437t-267 -397q219 -154 333 -280l-47 -48q-119 131 -342 291t-446 271l43 43q205 -102 407 -242q123 147 245 358t198 400h-797q-207 -408 -469 -664q-18 18 -51 43q217 205 385 505t268 615l68 -18q-76 -223 -172 -420h796z" />
    <glyph glyph-name="Identity.351" unicode="&#x3006;" 
d="M1114 860l545 688l57 -39q-217 -258 -551 -686q283 -207 506 -409l-43 -52q-154 152 -502 412q-170 -219 -616 -799q-10 -12 -47 -73l-55 16q12 165 -33 547l61 6q25 -293 33 -448q240 319 608 788q-324 236 -487 324l43 49q172 -102 481 -324z" />
    <glyph glyph-name="Identity.352" unicode="&#x3007;" 
d="M1870 778q0 350 -248 598t-598 248t-598 -248t-248 -598t248 -598t598 -248t598 248t248 598zM117 778q0 377 265 642q265 266 642 266t642 -266t265 -642q0 -377 -265 -642t-642 -265t-642 265t-265 642z" />
    <glyph glyph-name="Identity.353" unicode="&#x3008;" 
d="M1335 778l611 -911l-56 -31l-630 942l630 942l56 -30z" />
    <glyph glyph-name="Identity.354" unicode="&#x3009;" 
d="M158 -164l-56 31l611 911l-611 912l56 30l630 -942z" />
    <glyph glyph-name="Identity.355" unicode="&#x300a;" 
d="M1462 778l494 -921l-51 -21l-504 942l504 942l51 -20zM1169 778l494 -921l-51 -21l-504 942l504 942l51 -20z" />
    <glyph glyph-name="Identity.356" unicode="&#x300b;" 
d="M143 -164l-51 21l494 921l-494 922l51 20l504 -942zM436 -164l-51 21l494 921l-494 922l51 20l504 -942z" />
    <glyph glyph-name="Identity.357" unicode="&#x300c;" 
d="M1352 381v1339h614v-61h-553v-1278h-61z" />
    <glyph glyph-name="Identity.358" unicode="&#x300d;" 
d="M696 1176v-1340h-614v62h553v1278h61z" />
    <glyph glyph-name="Identity.359" unicode="&#x300e;" 
d="M1921 1675h-649v-1269h215v1085h434v184zM1966 1446h-434v-1086h-305v1360h739v-274z" />
    <glyph glyph-name="Identity.360" unicode="&#x300f;" 
d="M127 -119h649v1270h-215v-1085h-434v-185zM82 111h434v1085h305v-1360h-739v275z" />
    <glyph glyph-name="Identity.361" unicode="&#x3010;" 
d="M1376 1720h590v-10q-178 -150 -292 -394t-114 -538t114 -538t292 -394v-10h-590v1884z" />
    <glyph glyph-name="Identity.362" unicode="&#x3011;" 
d="M672 1720v-1884h-590v10q178 150 292 395t114 537t-114 538q-114 245 -292 394v10h590z" />
    <glyph glyph-name="Identity.363" unicode="&#x3012;" 
d="M338 1055h1372v-113h-625v-922h-122v922h-625v113zM338 1454h1372v-113h-1372v113z" />
    <glyph glyph-name="Identity.364" unicode="&#x3013;" 
d="M1843 573v-614h-1638v614h1638zM1843 1597v-614h-1638v614h1638z" />
    <glyph glyph-name="Identity.365" unicode="&#x3014;" 
d="M1905 -186l-406 264v1401l406 264l37 -51l-379 -242v-1344l379 -241z" />
    <glyph glyph-name="Identity.366" unicode="&#x3015;" 
d="M549 78l-406 -264l-37 51l379 241v1344l-379 242l37 51l406 -264v-1401z" />
    <glyph glyph-name="Identity.367" unicode="&#x301c;" 
d="M1440 541q-123 0 -220 50q-98 51 -214 155t-202 150t-210 46q-125 0 -244 -81t-188 -218l-68 35q193 338 514 338q123 0 220 -50q98 -50 214 -154t202 -152q86 -46 210 -46q125 0 244 81t188 218l68 -34q-192 -338 -514 -338z" />
    <glyph glyph-name="Identity.368" unicode="&#x3041;" 
d="M1704 432q0 -182 -137 -316t-420 -177l-39 61q221 18 378 134t156 302q0 125 -81 215q-82 90 -226 119q-145 -365 -385 -571q29 -102 41 -140l-63 -20q-14 39 -33 115q-174 -119 -305 -119q-80 0 -129 48t-49 132q0 166 125 314t301 229q6 137 22 272l-137 -2
q-135 0 -258 12l-2 72q119 -20 237 -20t166 2q23 189 23 229h78q-4 -12 -15 -63q-20 -129 -24 -164q317 16 606 69l2 -65q-324 -51 -614 -66q-10 -80 -23 -252q172 59 309 60q31 0 84 -4q28 78 35 123l70 -17q-2 -6 -6 -20q-5 -14 -15 -44t-18 -53q168 -35 257 -145t89 -250
zM597 98q124 0 282 123q-45 211 -45 402v65q-150 -74 -255 -206t-106 -267q0 -117 124 -117zM1214 780q-158 0 -317 -63q-2 -33 -2 -148t39 -303q227 209 338 512q-18 2 -58 2z" />
    <glyph glyph-name="Identity.369" unicode="&#x3042;" 
d="M1741 535q-1 145 -99 257t-274 146q-176 -438 -469 -694q29 -109 49 -174l-63 -21q-23 74 -41 150q-199 -147 -369 -148q-94 1 -151 57t-58 158q0 188 151 370t363 275q8 145 27 344q-123 -4 -229 -4t-248 13l-2 73q128 -23 242 -23t245 5q1 29 13 132t12 140l80 -2
q-14 -29 -48 -268q434 20 732 84l2 -72q-344 -55 -740 -76q-14 -141 -24 -319q203 72 375 72q57 0 108 -6q2 10 12 42l15 48q8 34 10 59l78 -20q-2 -4 -25 -69t-26 -71q201 -41 311 -170t108 -293q0 -225 -167 -384t-492 -212l-41 62q272 29 453 168q180 139 180 371z
M473 119q168 0 354 151q-53 252 -53 449q0 82 2 123q-184 -88 -312 -252t-128 -318t137 -153zM1227 950q-182 0 -389 -80l-2 -157q0 -165 47 -396q287 252 422 629q-49 4 -78 4z" />
    <glyph glyph-name="Identity.370" unicode="&#x3043;" 
d="M1393 1087q119 -145 195 -375t95 -423l-67 -29q-14 195 -92 426t-197 379zM471 1008q0 -326 29 -518q28 -192 100 -312q72 -121 160 -121q66 -1 129 101t106 260l60 -47q-133 -381 -293 -381q-111 0 -199 121t-125 374q-28 183 -28 411t-7 253l76 -2q-8 -74 -8 -139z" />
    <glyph glyph-name="Identity.371" unicode="&#x3044;" 
d="M1489 1325q287 -401 344 -952l-64 -27q-53 563 -342 954zM731 84q80 0 157 118t130 308l55 -47q-147 -446 -344 -447q-133 0 -243 169t-148 524q-23 201 -23 427t-8 259l84 -4q-6 -33 -12 -213t18 -461q29 -289 120 -461t214 -172z" />
    <glyph glyph-name="Identity.372" unicode="&#x3045;" 
d="M743 1264q129 -27 344 -53t340 -27l-10 -66q-111 4 -333 31t-353 51zM1489 541q0 143 -96 214t-251 71t-462 -89q-37 -10 -117 -41l-26 84q57 4 96 14t128 30q267 65 421 65t264 -92q109 -92 108 -258q0 -250 -196 -408t-537 -215l-35 59q311 41 507 187t196 379z" />
    <glyph glyph-name="Identity.373" unicode="&#x3046;" 
d="M635 1550q151 -36 407 -64t406 -32l-10 -68q-453 31 -815 97zM1538 696q0 154 -112 247t-285 93q-230 0 -506 -86q-61 -18 -105 -29t-112 -40l-27 86q68 5 219 44q152 38 204 49q172 36 350 37t308 -105t130 -284q1 -338 -254 -528q-230 -171 -617 -239l-45 59
q385 53 619 229q233 176 233 467z" />
    <glyph glyph-name="Identity.374" unicode="&#x3047;" 
d="M709 1204l12 66q113 -33 323 -62t322 -34l-10 -68q-106 8 -315 38t-332 60zM1391 4q176 0 303 41l-4 -74q-154 -29 -304 -28q-182 0 -221 147q-8 25 -28 105q-19 81 -33 117t-39 61t-85 25t-115 -50q-56 -49 -190 -191t-188 -210l-67 49q25 18 89 82q63 64 367 360
q304 295 379 371q-121 -13 -405 -35t-324 -33l-6 80q81 -6 379 17q297 24 353 33t77 18l49 -49l-49 -39q-62 -46 -373 -357q20 4 41 5q131 0 172 -146q29 -111 62 -205t160 -94z" />
    <glyph glyph-name="Identity.375" unicode="&#x3048;" 
d="M985 563q139 0 189 -153q8 -25 36 -126t44 -157q16 -57 62 -85t142 -28q217 0 369 49l-4 -77q-172 -33 -323 -33q-150 0 -218 38t-94 134q-2 6 -33 118t-45 150q-45 117 -138 117t-165 -64t-236 -236q-164 -171 -225 -251l-72 49q31 23 62 55q750 750 964 955
q-84 -6 -382 -32t-375 -32q-78 -6 -142 -14l-6 80q119 -12 460 19q341 30 419 40t108 25l48 -55q-53 -39 -79 -65t-203 -194q-177 -169 -237 -233q35 6 74 6zM643 1567q151 -37 391 -72t385 -43l-12 -66q-381 37 -776 117z" />
    <glyph glyph-name="Identity.376" unicode="&#x3049;" 
d="M1376 1051l37 51q82 -45 196 -125t169 -133l-45 -53q-55 61 -163 138t-194 122zM821 580v-25q213 78 399 78t300 -84t114 -225q0 -140 -98 -238t-279 -131q-78 -16 -180 -16l-20 59q282 -10 427 119q89 80 89 206t-100 189q-99 63 -273 63t-379 -83q10 -385 10 -414
q0 -147 -122 -148q-88 0 -200 77t-112 157q0 113 116 212t247 154v43q0 152 6 314q-119 -8 -170 -8t-184 10l-2 69q118 -16 194 -16t162 6q6 154 6 211t-6 92h74q-6 -49 -7 -85t-6 -212q223 23 385 76l2 -67q-203 -47 -389 -68q-4 -217 -4 -315zM700 -8q70 0 70 90
q0 37 -4 174t-4 209q-119 -57 -209 -135t-90 -148t87 -130t150 -60z" />
    <glyph glyph-name="Identity.377" unicode="&#x304a;" 
d="M1436 1323l37 51q102 -57 232 -150t196 -155l-41 -55q-129 137 -424 309zM786 1602q-4 -70 -4 -124t-6 -270q270 31 457 90l2 -69q-213 -51 -461 -82q-6 -189 -6 -363v-67q260 100 484 100t351 -104q126 -104 126 -271t-113 -275q-184 -176 -539 -173l-22 63
q164 0 229 15q162 29 272 123q110 95 111 247q0 152 -116 233t-281 81q-233 0 -502 -105l8 -487q0 -178 -137 -178q-102 0 -236 92q-133 92 -133 200t129 222q129 115 306 192v86q0 172 6 363q-213 -23 -424 -2l-2 69q131 -18 220 -18t208 10l6 295q0 68 -10 107h77zM633 49
q80 0 80 113q0 57 -3 230t-3 233q-155 -66 -261 -165q-106 -100 -106 -184t102 -156t191 -71z" />
    <glyph glyph-name="Identity.378" unicode="&#x304b;" 
d="M1491 1300l57 31q88 -104 205 -320t180 -374l-59 -33q-55 158 -170 372t-213 324zM1061 1153q133 0 214 -63t81 -250q0 -188 -32 -392t-83 -306t-113 -134q-62 -31 -161 -31q-100 0 -228 31l-10 76q135 -45 229 -45q94 -1 141 23q48 24 83 98q109 236 108 682
q0 145 -59 197q-59 53 -157 53t-310 -19q-166 -655 -438 -1096l-70 29q143 193 264 504t178 557q-156 -12 -232 -21q-75 -8 -106 -10l-139 -16l-10 82q75 -2 145 0t357 26q57 248 59 451l80 -6q-10 -53 -40 -243t-34 -195q213 18 283 18z" />
    <glyph glyph-name="Identity.379" unicode="&#x304c;" 
d="M1747 1667l55 27q102 -137 180 -281l-59 -29q-90 177 -176 283zM1450 1278l55 33q90 -103 207 -319t180 -376l-59 -32q-55 158 -170 372t-213 322zM1020 1153q133 0 213 -63t80 -251t-31 -392t-90 -318q-42 -90 -104 -121t-161 -31t-231 31l-10 76q136 -45 230 -45
q94 -1 141 23t84 98q106 231 106 682q0 145 -59 197q-58 53 -156 53t-309 -19q-166 -657 -440 -1096l-68 29q143 193 264 504t178 557q-328 -26 -477 -47l-10 82q72 -2 144 0t358 26q57 269 59 451l80 -6q-11 -53 -41 -243t-33 -195q213 18 283 18zM1767 1339l-59 -28
q-74 154 -172 284l57 27q98 -138 174 -283z" />
    <glyph glyph-name="Identity.380" unicode="&#x304d;" 
d="M1270 932q-38 83 -152 344q-330 -35 -729 0l-6 67q395 -43 711 -8q-43 117 -105 232l78 20q39 -115 92 -244q240 31 418 97l14 -66q-156 -49 -407 -90l33 -80q49 -119 114 -262q199 32 387 102l15 -63q-158 -55 -375 -94q115 -258 194 -406l-39 -45l-348 45l6 58
q74 -10 299 -37q-88 180 -174 375q-362 -57 -921 -25l-2 68q481 -45 897 12zM981 6q254 0 442 45v-69q-209 -37 -461 -37t-394 89q-140 89 -140 255q0 94 45 233l66 -6q-49 -121 -50 -215q0 -141 119 -218t373 -77z" />
    <glyph glyph-name="Identity.381" unicode="&#x304e;" 
d="M1675 1657l54 26q86 -106 180 -288l-58 -29q-88 176 -176 291zM1468 1585l56 27q92 -125 174 -291l-58 -31q-80 170 -172 295zM1421 432q-310 40 -350 45l6 58q104 -14 301 -37q-45 88 -176 374q-362 -57 -921 -24l-2 67q483 -43 899 13q-87 183 -113 252l-39 92
q-330 -35 -731 0l-6 67q397 -43 712 -8q-10 27 -49 114t-57 118l80 20q49 -145 90 -244q233 31 391 88l14 -65q-162 -53 -380 -82l32 -80q27 -63 117 -262q190 30 387 102l14 -63q-166 -55 -376 -94q123 -266 194 -406zM397 297q0 -141 119 -218q118 -77 372 -77t441 45v-70
q-207 -37 -461 -37t-393 90q-139 89 -139 255q0 94 45 233l63 -6q-47 -117 -47 -215z" />
    <glyph glyph-name="Identity.382" unicode="&#x304f;" 
d="M1311 1599l67 -59q-12 -10 -54 -50q-156 -149 -673 -568q-104 -88 -103 -138t114 -141q176 -137 405 -338t367 -344l-56 -47q-14 18 -52 55t-50 51q-154 170 -672 590q-90 74 -114 130t6 104t96 106q65 58 300 248q364 294 419 401z" />
    <glyph glyph-name="Identity.383" unicode="&#x3050;" 
d="M1288 1599l68 -59q-14 -10 -56 -50q-147 -141 -671 -568q-103 -88 -103 -138t113 -141q176 -137 405 -338t367 -344l-55 -47q-14 18 -52 55t-51 51q-154 170 -671 590q-90 74 -114 130t6 104t96 106t301 249q363 295 417 400zM1507 1233q90 -111 189 -287l-58 -26
q-84 147 -184 284zM1276 1145q88 -131 182 -295l-57 -27q-72 133 -178 295z" />
    <glyph glyph-name="Identity.384" unicode="&#x3051;" 
d="M1528 903q0 -69 1 -135q7 -459 -197 -678q-88 -94 -224 -170l-66 51q90 33 158 92q139 107 189 232q29 72 45 126q32 108 32 420v201q-125 -8 -310 -8t-318 15v71q225 -42 626 -16q-10 305 -14 356t-16 99h88q-2 -10 -2 -24l-2 -75q-2 -33 8 -352q202 16 354 59v-71
q-154 -33 -352 -49v-144zM399 8q-96 326 -96 608t42 550q42 267 47 298t5 78l82 -8q-4 -14 -11 -49t-11 -49q-162 -737 -47 -1233q29 104 116 381l52 -29q-102 -295 -125 -401q-8 -55 -7 -82l7 -54z" />
    <glyph glyph-name="Identity.385" unicode="&#x3052;" 
d="M1798 1602l60 20q45 -80 129 -276l-64 -25q-74 195 -125 281zM1479 1391q0 -50 8 -322q215 16 383 64v-74q-166 -33 -381 -49v-313q-1 -196 -23 -285q-53 -209 -128 -303q-104 -130 -269 -224l-65 52q80 31 152 86t118 109q47 54 76 126t45 127q32 111 32 407v214
q-338 -24 -600 6v71q197 -37 598 -18q-8 295 -13 345t-17 101h88q-4 -70 -4 -120zM291 583q0 276 42 532q42 257 48 295t6 83l82 -8q-4 -14 -12 -51t-11 -45q-162 -731 -47 -1221q29 104 117 381l51 -29q-102 -295 -125 -401q-8 -55 -4 -94t4 -41l-53 -11q-98 334 -98 610z
M1786 1282l-64 -25q-53 154 -123 285l60 21q72 -136 127 -281z" />
    <glyph glyph-name="Identity.386" unicode="&#x3053;" 
d="M469 344q0 -127 140 -208t403 -81q467 0 676 78l2 -65q-90 -31 -278 -53t-400 -21q-279 0 -443 89t-163 259q0 104 43 272l67 -8q-47 -135 -47 -262zM956 1296q-192 0 -436 23v65q441 -58 1026 2v-65q-398 -25 -590 -25z" />
    <glyph glyph-name="Identity.387" unicode="&#x3054;" 
d="M440 322q0 -127 140 -208t403 -81q467 0 676 78l2 -66q-91 -31 -279 -53t-433 -21q-245 0 -409 89t-163 259q0 105 43 273l67 -8q-47 -135 -47 -262zM971 1335q272 0 547 29v-66q-398 -25 -590 -25t-436 23v66q207 -27 479 -27zM1794 1679q102 -137 180 -280l-59 -29
q-90 176 -176 283zM1585 1608q98 -137 174 -283l-59 -31q-72 154 -172 287z" />
    <glyph glyph-name="Identity.388" unicode="&#x3055;" 
d="M1489 580l-266 585q-399 -53 -871 -10l-2 70q436 -55 848 -4q-112 263 -162 348l78 14q29 -74 146 -354q229 34 432 100l12 -69q-211 -55 -420 -86q20 -43 114 -252t171 -365l-47 -43q-133 29 -379 47l10 57q162 -16 336 -38zM465 326q0 -148 124 -231t385 -83t490 54
v-72q-266 -43 -520 -43t-398 100t-145 273q1 118 56 288l67 -8q-59 -130 -59 -278z" />
    <glyph glyph-name="Identity.389" unicode="&#x3056;" 
d="M1718 1716l56 27q117 -160 178 -283l-58 -28q-84 167 -176 284zM1507 1642l58 27q102 -143 172 -283l-58 -28q-74 153 -172 284zM1495 565l-266 586q-399 -53 -871 -10l-2 69q436 -55 848 -4q-115 270 -162 348l78 15q29 -74 146 -355q229 35 432 101l12 -70
q-211 -55 -420 -86q20 -43 119 -263t166 -353l-47 -43q-133 29 -379 47l10 57q162 -16 336 -39zM471 312q0 -148 124 -231t385 -83t490 53v-71q-266 -43 -520 -43t-398 100t-144 272q0 119 55 289l67 -8q-59 -130 -59 -278z" />
    <glyph glyph-name="Identity.390" unicode="&#x3057;" 
d="M600 324q0 -170 103 -249t265 -79q307 0 498 139q92 68 154 132q61 65 125 153l45 -55q-124 -165 -296 -285q-206 -146 -515 -146q-440 0 -440 414l22 1075q0 93 -10 138h86q-8 -51 -12 -138q-25 -719 -25 -1099z" />
    <glyph glyph-name="Identity.391" unicode="&#x3058;" 
d="M514 334l22 1062q0 104 -10 150h86q-8 -51 -12 -137q-25 -719 -25 -1100q-1 -170 103 -249q104 -78 266 -78t284 36q197 57 367 235q61 65 125 153l45 -56q-122 -163 -296 -284q-206 -146 -515 -146q-440 0 -440 414zM1473 1477q111 -143 202 -322l-57 -29
q-94 186 -199 324zM1219 1380q125 -176 196 -325l-57 -29q-88 182 -195 328z" />
    <glyph glyph-name="Identity.392" unicode="&#x3059;" 
d="M1161 1305q0 238 -12 282h82q-8 -49 -8 -280h98l559 -4v-66q-137 8 -557 8h-100q0 -174 4 -362q57 -94 57 -240q0 -242 -124 -422t-435 -280l-63 57q492 123 548 518q-74 -139 -221 -139t-235 84t-88 220t93 234q93 99 211 99t195 -62l-2 293q-596 -8 -940 -41l-2 74
q911 27 940 27zM729 686q-1 -116 71 -182t180 -66t166 72t68 197q-29 246 -233 245q-102 0 -177 -74t-75 -192z" />
    <glyph glyph-name="Identity.393" unicode="&#x305a;" 
d="M1104 1288q0 240 -12 283h82q-9 -56 -9 -281h99l559 -4v-65q-137 8 -557 8h-101q0 -174 4 -363q57 -94 58 -239q0 -242 -124 -422t-435 -281l-64 58q492 123 549 518q-74 -140 -221 -140t-236 84q-88 84 -88 220t93 235q93 98 211 98t196 -61l-2 293q-596 -8 -940 -41
l-2 74q911 27 940 26zM922 422q108 0 167 72q58 72 68 196q-29 246 -233 246q-102 0 -178 -75t-74 -191q0 -116 71 -183q71 -65 179 -65zM1636 1346l-59 -31q-88 160 -162 258l58 26q75 -101 163 -253zM1860 1395l-62 -31q-82 156 -160 256l58 27q94 -131 164 -252z" />
    <glyph glyph-name="Identity.394" unicode="&#x305b;" 
d="M1454 1341q0 -154 -2 -256l414 25v-76q-27 2 -121 2t-295 -14q-10 -338 -26 -418t-48 -102q-32 -23 -114 -23t-209 27l2 65q119 -29 191 -29t91 12q48 29 54 464q-260 -18 -744 -66q0 -504 4 -606t23 -149q39 -94 196 -117q70 -10 172 -10q350 0 600 41l-2 -68
q-328 -35 -516 -35t-260 8q-125 14 -196 78q-72 64 -78 316q-2 86 -2 536q-255 -25 -463 -55l-8 78q123 0 471 37l2 356q0 66 -8 119h73q-4 -53 -4 -119l-2 -350q424 43 742 69q7 393 -7 465h76q-6 -51 -6 -205z" />
    <glyph glyph-name="Identity.395" unicode="&#x305c;" 
d="M1757 1583l60 19q72 -129 135 -289l-64 -25q-74 199 -131 295zM1354 1322q0 156 -8 196h75q-6 -53 -6 -206t-2 -255l414 24v-75q-27 2 -121 2t-295 -15q-11 -337 -27 -417t-47 -103q-66 -49 -323 4l2 66q120 -29 192 -29t90 11q48 29 54 464q-260 -18 -744 -65
q0 -504 4 -606t23 -150q39 -94 196 -117q70 -10 173 -10q350 0 600 41l-2 -68q-721 -77 -899 5q-51 24 -79 50q-68 62 -73 312q-2 86 -2 537q-375 -37 -463 -56l-8 78q134 0 279 16t192 21l2 356q0 66 -8 119h73q-4 -53 -4 -119l-2 -350q424 43 742 70q2 113 2 269z
M1753 1249l-63 -22q-53 156 -129 297l57 18q76 -146 135 -293z" />
    <glyph glyph-name="Identity.396" unicode="&#x305d;" 
d="M704 1483q78 0 330 11q250 11 310 16t96 18l47 -47q-25 -16 -57 -41q-426 -365 -730 -604q633 72 1072 71v-65q-328 12 -499 -14t-308 -158t-137 -294q0 -161 108 -239t262 -102t293 -12l-14 -66q-350 -14 -531 94q-180 109 -180 324q0 151 102 273t224 171
q-504 -45 -844 -100l-6 63q98 9 342 43q260 186 768 631q-539 -24 -643 -35l-131 -10l-5 78q53 -6 131 -6z" />
    <glyph glyph-name="Identity.397" unicode="&#x305e;" 
d="M1405 1294l55 29q117 -170 170 -281l-57 -28q-78 159 -168 280zM1612 1368l53 27q100 -131 176 -277l-57 -31q-82 162 -172 281zM642 1483q79 0 330 11t310 17t96 17l47 -47q-25 -16 -57 -41q-426 -365 -729 -604q633 72 1069 71v-65q-330 12 -499 -14t-306 -158
t-137 -294q0 -161 108 -239t262 -102t294 -12l-15 -66q-350 -13 -531 95t-182 323q0 151 104 273t224 171q-510 -47 -844 -100l-6 63q68 6 342 43q291 209 766 631q-532 -24 -641 -35l-131 -10l-4 78q51 -6 130 -6z" />
    <glyph glyph-name="Identity.398" unicode="&#x305f;" 
d="M1061 308q0 -64 13 -98t51 -69q77 -71 308 -71q230 0 400 36l-2 -71q-182 -29 -373 -29q-459 0 -459 279q0 74 27 207l66 -7q-31 -113 -31 -177zM452 1149q-116 0 -216 8l-3 68q201 -28 480 -2q39 199 48 254t5 112l84 -8q-14 -43 -34 -151t-38 -201q246 29 434 80v-70
q-240 -51 -448 -72q-77 -368 -191 -710t-188 -488l-78 25q172 301 330 903q35 135 61 264q-130 -12 -246 -12zM1478 977q196 0 328 -16l-4 -68q-296 41 -692 2v68q172 14 368 14z" />
    <glyph glyph-name="Identity.399" unicode="&#x3060;" 
d="M1683 1534l54 27q115 -152 180 -283l-57 -29q-79 156 -177 285zM999 274q-1 -64 13 -99q14 -34 52 -69q77 -71 308 -71q230 0 400 37l-3 -72q-182 -29 -372 -29q-459 0 -459 279q0 74 27 207l65 -6q-31 -113 -31 -177zM391 1114q-117 0 -217 8l-2 68q100 -14 221 -14
t258 12q39 199 48 254t6 112l83 -8q-14 -44 -34 -152t-37 -200q246 29 434 80v-70q-240 -51 -449 -71q-80 -380 -192 -717q-113 -336 -186 -482l-78 25q172 301 329 903q35 137 62 264q-129 -12 -246 -12zM1416 942q196 0 329 -16l-4 -68q-296 41 -692 2v68q171 14 367 14z
M1702 1204l-57 -28q-68 139 -172 284l55 27q100 -136 174 -283z" />
    <glyph glyph-name="Identity.400" unicode="&#x3061;" 
d="M1230 825q214 0 338 -102t124 -280q0 -177 -131 -299q-252 -233 -867 -171l-16 66q184 -27 356 -11t304 58q132 43 212 138q80 94 80 232t-108 223q-109 85 -307 85q-199 0 -367 -62t-275 -186q-37 -39 -69 -98l-62 24q137 276 240 760h-76q-123 0 -348 21l-2 69
q221 -39 438 -26q39 247 37 309l80 -6q-13 -47 -27 -135t-30 -168q485 20 827 98v-72q-395 -74 -840 -88q-92 -440 -161 -602q141 119 288 171t362 52z" />
    <glyph glyph-name="Identity.401" unicode="&#x3062;" 
d="M1698 1667l55 27q109 -145 178 -281l-57 -29q-90 177 -176 283zM1487 1595l57 27q102 -143 172 -283l-57 -28q-74 153 -172 284zM1176 803q216 -1 340 -103t122 -268q0 -284 -274 -406t-723 -75l-16 65q353 -52 659 47q133 43 213 139t80 232q0 137 -109 222
q-110 85 -308 85t-366 -62t-274 -185q-43 -47 -69 -99l-62 25q139 276 234 739h-70q-123 0 -348 21l-2 69q160 -29 348 -28h84q45 229 41 331l82 -6q-14 -46 -26 -118t-36 -205q488 20 830 98v-72q-395 -74 -844 -88q-82 -414 -156 -581q142 119 288 171t362 52z" />
    <glyph glyph-name="Identity.402" unicode="&#x3063;" 
d="M1696 605q0 -165 -73 -277q-187 -288 -808 -330l-24 68q341 12 574 121q124 59 196 161q71 102 71 246t-108 240q-109 96 -285 96q-205 0 -625 -154q-207 -76 -211 -78l-32 74q91 19 225 66q435 153 636 153q202 -1 333 -111t131 -275z" />
    <glyph glyph-name="Identity.403" unicode="&#x3064;" 
d="M1262 1221q-328 0 -1031 -281l-34 78q77 14 296 87q220 74 303 98q83 23 222 51t242 28q238 0 396 -131t156 -354q0 -185 -89 -323t-245 -220q-297 -156 -733 -180l-26 69q415 12 703 154q151 74 237 202t86 304t-131 297t-352 121z" />
    <glyph glyph-name="Identity.404" unicode="&#x3065;" 
d="M1239 1241q237 0 395 -131t158 -354q0 -184 -89 -322t-246 -221q-298 -156 -732 -180l-27 69q415 12 704 154q150 74 236 202t86 304t-131 297t-352 121q-127 0 -305 -41t-303 -84t-271 -99t-151 -57l-35 78q79 14 298 88q220 73 302 97t221 52t242 27zM1731 1638
q106 -137 180 -280l-58 -29q-86 166 -176 283zM1522 1567q109 -150 174 -285l-58 -29q-59 129 -172 287z" />
    <glyph glyph-name="Identity.405" unicode="&#x3066;" 
d="M891 627q0 -129 47 -235t122 -170q210 -182 572 -189l-22 -62q-268 0 -511 146q-120 73 -195 201t-75 294q1 244 133 446t320 296q-35 -4 -475 -49t-588 -74l-10 82q84 2 643 62t940 71v-68q-285 4 -401 -37q-158 -57 -276 -184t-171 -264t-53 -266z" />
    <glyph glyph-name="Identity.406" unicode="&#x3067;" 
d="M809 592q0 244 132 446t321 295q-35 -4 -466 -47t-597 -76l-11 82q84 2 644 63t940 70v-67q-285 4 -402 -37q-158 -57 -276 -184t-170 -265q-107 -279 -6 -500q48 -105 122 -170q206 -179 572 -190l-23 -61q-266 0 -511 145q-120 72 -194 201q-75 129 -75 295zM1700 1141
q104 -141 182 -293l-57 -29q-80 164 -178 295zM1481 1063q106 -150 176 -293l-58 -29q-80 170 -174 295z" />
    <glyph glyph-name="Identity.407" unicode="&#x3068;" 
d="M483 365q-1 -147 137 -233t400 -87q412 0 637 61v-73q-262 -49 -631 -49q-280 0 -442 94t-162 280q0 276 346 506l18 13q-102 176 -305 643l68 28q133 -367 289 -639q128 80 364 203q236 124 274 146t68 49l37 -62q-38 -23 -192 -104q-154 -80 -303 -158t-281 -168
q-322 -209 -322 -450z" />
    <glyph glyph-name="Identity.408" unicode="&#x3069;" 
d="M1708 1587l55 27q109 -145 179 -281l-58 -28q-90 176 -176 282zM1497 1516l57 26q111 -160 172 -285l-57 -28q-66 144 -172 287zM991 23q424 0 637 61v-74q-262 -49 -631 -49q-279 0 -441 94t-163 281q0 279 346 506l19 12q-98 170 -305 641l67 31q129 -362 289 -639
q183 116 557 303q71 42 100 67l37 -59q-45 -30 -313 -168t-414 -237q-322 -211 -321 -451q0 -147 137 -233t399 -86z" />
    <glyph glyph-name="Identity.409" unicode="&#x306a;" 
d="M1386 1241l33 51q109 -47 244 -128t203 -136l-39 -57q-70 63 -199 140t-242 130zM1063 -68q-156 0 -257 62t-101 186q0 125 109 195q110 69 246 69t257 -32q-15 275 -21 563h70q-8 -100 2 -304t12 -280q205 -70 420 -248l-39 -57q-195 168 -377 238l2 -138
q0 -110 -84 -182t-239 -72zM1065 383q-129 0 -213 -55t-84 -144q0 -188 293 -188q133 0 197 60t65 139l-2 151q-127 37 -256 37zM472 1229q140 0 259 12q66 219 74 363l82 -9q-8 -29 -38 -155t-50 -191q188 25 358 82l2 -69q-166 -47 -381 -78q-76 -215 -203 -453t-247 -395
l-72 39q125 139 253 368t200 435q-182 -18 -469 -9l-4 72q96 -12 236 -12z" />
    <glyph glyph-name="Identity.410" unicode="&#x306b;" 
d="M367 604q0 -199 26 -426q78 227 135 379l50 -35q-125 -322 -140 -398t-11 -103q5 -27 7 -38t2 -16l-61 -6q-70 254 -70 643q0 245 73 663q34 195 34 249l82 -9q-16 -53 -25 -90q-102 -504 -102 -813zM915 342q0 -219 398 -219q281 0 495 53l2 -72q-211 -43 -487 -43
q-469 0 -469 277q0 72 31 213l63 -8q-33 -113 -33 -201zM950 1331q150 -29 400 -27t395 27v-71q-139 -18 -395 -18t-400 18v71z" />
    <glyph glyph-name="Identity.411" unicode="&#x306c;" 
d="M1200 1286q233 0 403 -151q169 -153 169 -397t-56 -404q98 -74 217 -205l-45 -55q-100 121 -196 196q-119 -258 -381 -258q-131 0 -207 64t-76 164t84 167t209 66q178 0 342 -104q47 151 47 353t-134 352t-378 151q-29 0 -82 -4q-37 -283 -108 -476q-113 -301 -264 -485
t-326 -184q-92 0 -153 77q-60 77 -60 195q0 258 157 483q45 68 101 127q-47 128 -80 230t-59 160l67 26q35 -147 117 -368q238 227 551 270q25 180 14 291l86 -4q-3 -20 -35 -279q25 2 76 2zM414 139q172 0 338 236q-100 137 -158 263t-109 259q-37 -43 -79 -106
q-139 -221 -140 -441q0 -94 46 -152t102 -59zM788 430q90 142 156 324t107 460q-305 -49 -521 -268q66 -166 122 -284t136 -232zM1311 74q227 0 329 233q-158 104 -319 105q-113 0 -172 -50t-59 -124q0 -72 58 -118t163 -46z" />
    <glyph glyph-name="Identity.412" unicode="&#x306d;" 
d="M643 1495q0 51 -6 90l90 -4q-14 -70 -37 -330q11 5 27 9l39 -39q-47 -70 -78 -127q-12 -168 -12 -176q412 373 698 372q186 0 283 -156q96 -158 96 -380t-31 -371q102 -66 242 -209l-41 -55q-113 123 -217 196q-90 -295 -379 -295q-137 0 -228 60t-91 177q0 119 87 187
q88 68 218 68q188 0 352 -92q27 133 27 349t-95 339q-94 123 -233 123t-342 -123t-353 -281q-10 -195 -10 -429t4 -349l6 -92h-77q6 43 6 90v455q0 74 14 303q-66 -100 -409 -592l-48 59q88 111 243 328t220 324q12 166 17 252l-420 -58l-8 76q133 -8 432 45q14 205 14 256z
M1313 82q250 0 327 270q-160 98 -344 99q-94 1 -166 -53t-72 -137t72 -131q70 -48 183 -48z" />
    <glyph glyph-name="Identity.413" unicode="&#x306e;" 
d="M1753 719q0 260 -178 445t-479 192q-41 -346 -119 -615q-178 -602 -430 -602q-115 0 -213 134t-98 362q0 313 248 548q249 234 586 234t541 -204q204 -205 204 -507t-204 -497t-548 -232l-37 66q209 10 358 88q229 117 318 324q51 119 51 264zM297 637q0 -209 82 -321
t168 -112t185 135q99 134 183 419q84 270 117 596q-315 -18 -525 -238t-210 -479z" />
    <glyph glyph-name="Identity.414" unicode="&#x306f;" 
d="M1407 1153q0 378 -2 393h80q-10 -62 -13 -122t-4 -269q231 16 383 47v-65q-182 -31 -383 -43q0 -33 25 -654q181 -69 408 -268l-37 -55q-186 176 -369 254q2 -39 2 -99t-13 -105q-55 -194 -294 -194q-190 0 -289 69q-98 68 -98 182t101 193t284 79q127 0 244 -35
q-25 559 -25 629q-123 -6 -211 -6t-360 14v65q180 -16 315 -16t256 6zM1436 291q0 61 -2 102q-119 41 -255 41q-135 0 -225 -57t-90 -145t81 -143q81 -54 227 -54q146 -1 204 65q60 66 60 191zM410 25l8 -58l-62 -6q-72 274 -71 637q-1 199 25 377t54 351t29 222l80 -8
q-14 -45 -22 -90q-104 -494 -105 -850q0 -205 29 -426q59 188 139 383l45 -35q-125 -334 -138 -396t-11 -101z" />
    <glyph glyph-name="Identity.415" unicode="&#x3070;" 
d="M1769 1622l62 20q61 -111 137 -286l-67 -27q-77 201 -132 293zM1366 1133q0 378 -2 393h80q-10 -63 -13 -123t-4 -268q231 16 383 47v-66q-182 -31 -383 -43q0 -33 25 -653q180 -70 408 -268l-37 -56q-186 176 -369 254q2 -39 2 -98q0 -60 -13 -106q-54 -194 -294 -193
q-190 0 -289 69q-98 68 -98 182t101 192t284 79q127 0 244 -35q-25 559 -25 629q-123 -6 -211 -6t-360 14v66q293 -26 571 -10zM1395 270q0 61 -2 103q-119 41 -255 41t-226 -58t-89 -145q0 -88 81 -142q80 -55 226 -55t206 66t59 190zM352 1528l80 -8q-14 -45 -22 -90
q-104 -494 -105 -850q0 -205 29 -426q59 188 139 383l45 -35q-125 -334 -138 -396t-11 -102l8 -57l-62 -6q-72 274 -71 637q0 198 26 376t54 352t28 222zM1767 1292l-67 -26q-53 156 -129 297l61 20q67 -125 135 -291z" />
    <glyph glyph-name="Identity.416" unicode="&#x3071;" 
d="M1771 1683q87 0 148 -60t61 -147q0 -88 -61 -148t-148 -60t-147 60q-59 60 -59 148t59 147q60 60 147 60zM1771 1331q60 0 103 42q43 43 43 103t-43 103t-103 43q-61 0 -103 -43t-42 -103t42 -103q43 -42 103 -42zM1366 1133q0 378 -2 393h80q-10 -63 -13 -123t-4 -268
q231 16 383 47v-66q-182 -31 -383 -43q0 -33 25 -653q180 -70 408 -268l-37 -56q-186 176 -369 254q2 -39 2 -98q0 -60 -13 -106q-54 -194 -294 -193q-190 0 -289 69q-98 68 -98 182t101 192t284 79q127 0 244 -35q-25 559 -25 629q-123 -6 -211 -6t-360 14v66
q293 -26 571 -10zM1395 270q0 61 -2 103q-119 41 -255 41t-226 -58t-89 -145q0 -88 81 -142q80 -55 226 -55t206 66t59 190zM352 1528l80 -8q-14 -45 -22 -90q-104 -494 -105 -850q0 -205 29 -426q59 188 139 383l45 -35q-125 -334 -138 -396t-11 -102l8 -57l-62 -6
q-72 274 -71 637q0 198 26 376t54 352t28 222z" />
    <glyph glyph-name="Identity.417" unicode="&#x3072;" 
d="M797 1335l-514 -92l-11 82q135 0 391 47q257 47 328 76l21 -70q-10 -4 -54 -13t-59 -15q-113 -81 -269 -327q-77 -119 -130 -275t-54 -299q0 -233 121 -343t305 -110q221 0 375 157t211 445t2 655q-31 86 -55 185l68 20q39 -209 147 -434t281 -399l-54 -54
q-203 246 -323 516q41 -396 -44 -650q-50 -148 -128 -261q-78 -112 -203 -178t-279 -66q-231 0 -358 138t-127 384q0 248 127 489t285 392z" />
    <glyph glyph-name="Identity.418" unicode="&#x3073;" 
d="M1765 1604l54 26q86 -131 163 -276l-61 -29q-90 189 -156 279zM352 424q0 248 127 488t285 393q-72 -14 -224 -40q-244 -42 -290 -53l-10 82q136 0 391 48q256 48 327 75l21 -69q-10 -4 -54 -14t-59 -15q-113 -81 -269 -327q-77 -120 -130 -276t-53 -298q0 -233 121 -343
t305 -110q220 0 374 157q154 158 211 446t2 655q-30 86 -55 184l68 20q38 -209 146 -434t282 -399l-53 -53q-203 246 -324 516q42 -397 -44 -650q-50 -147 -128 -261t-203 -180t-278 -64q-231 0 -359 137q-127 137 -127 385zM1782 1270l-62 -29q-86 178 -153 285l53 22
q99 -153 162 -278z" />
    <glyph glyph-name="Identity.419" unicode="&#x3074;" 
d="M1780 1634q88 0 151 -63t63 -151t-62 -151q-64 -63 -152 -63t-150 62t-63 152q0 89 62 152q63 62 151 62zM1780 1268q63 0 107 44t44 107t-44 109t-107 45q-64 0 -108 -45q-44 -44 -44 -108t44 -108t108 -44zM352 424q0 248 127 488t285 393q-72 -14 -224 -40
q-244 -42 -290 -53l-10 82q136 0 391 48q256 48 327 75l21 -69q-10 -4 -54 -14t-59 -15q-113 -81 -269 -327q-77 -120 -130 -276t-53 -298q0 -233 121 -343t305 -110q220 0 374 157q154 158 211 446t2 655q-30 86 -55 184l68 20q38 -209 146 -434t282 -399l-53 -53
q-203 246 -324 516q42 -397 -44 -650q-50 -147 -128 -261t-203 -180t-278 -64q-231 0 -359 137q-127 137 -127 385z" />
    <glyph glyph-name="Identity.420" unicode="&#x3075;" 
d="M1145 1047l-43 47q88 53 153 110q-131 123 -460 273l41 53q119 -55 261 -140t216 -149l16 -55q-61 -51 -184 -139zM1008 47q86 0 160 47t73 158q0 70 -50 165t-100 160t-139 164l-139 146l49 45q4 -4 142 -161t219 -281q80 -124 80 -244q0 -176 -156 -234
q-70 -26 -139 -26q-170 -1 -334 32l-8 74q147 -45 342 -45zM1937 125l-57 -31q-53 150 -157 329q-103 179 -203 282l53 32q109 -121 209 -296t155 -316zM643 545l39 -47q-98 -100 -246 -216t-274 -188l-41 53q121 63 279 185t243 213z" />
    <glyph glyph-name="Identity.421" unicode="&#x3076;" 
d="M1481 1303l55 26q109 -150 174 -285l-57 -28q-59 129 -172 287zM1692 1374l53 27q106 -137 180 -281l-57 -28q-90 176 -176 282zM1083 1030l-43 47q88 53 154 111q-131 123 -461 272l41 53q119 -55 261 -140t216 -148l17 -56q-62 -51 -185 -139zM946 31q86 0 160 47
t74 158q0 70 -50 164t-101 160q-50 65 -138 165l-139 145l49 45q5 -5 143 -161t218 -280t79 -245q0 -175 -156 -233q-73 -27 -139 -27q-170 0 -334 33l-8 74q147 -45 342 -45zM1876 109l-57 -31q-53 150 -157 329q-103 179 -204 281l53 33q109 -121 209 -296t156 -316z
M582 528l39 -47q-97 -100 -245 -216t-276 -187l-41 53q121 63 280 185t243 212z" />
    <glyph glyph-name="Identity.422" unicode="&#x3077;" 
d="M1544 1206q0 -63 44 -108t108 -45t109 45q46 45 46 108q0 64 -46 110t-109 46t-108 -46q-44 -47 -44 -110zM1481 1206q0 90 62 154q63 64 153 63q90 0 153 -63q63 -64 63 -154t-62 -152q-64 -62 -154 -62t-152 62t-63 152zM1083 1030l-43 47q88 53 154 111
q-131 123 -461 272l41 53q119 -55 261 -140t216 -148l17 -56q-62 -51 -185 -139zM946 31q86 0 160 47t74 158q0 70 -50 164t-101 160q-50 65 -138 165l-139 145l49 45q5 -5 143 -161t218 -280t79 -245q0 -175 -156 -233q-73 -27 -139 -27q-170 0 -334 33l-8 74
q147 -45 342 -45zM1876 109l-57 -31q-53 150 -157 329q-103 179 -204 281l53 33q109 -121 209 -296t156 -316zM582 528l39 -47q-97 -100 -245 -216t-276 -187l-41 53q121 63 280 185t243 212z" />
    <glyph glyph-name="Identity.423" unicode="&#x3078;" 
d="M158 522q162 114 540 625q74 90 140 97t159 -85q19 -20 167 -194t231 -260q328 -362 514 -527l-47 -51q-195 186 -512 532q-72 78 -208 239t-181 210q-80 76 -118 74t-100 -80q-319 -406 -397 -492t-129 -147z" />
    <glyph glyph-name="Identity.424" unicode="&#x3079;" 
d="M137 481q99 70 249 253q73 89 172 217t120 155q74 90 140 97t159 -85q25 -28 170 -198t227 -258q346 -375 514 -525l-47 -51q-190 178 -514 532q-63 70 -201 233q-137 163 -186 214q-80 78 -118 75t-99 -81q-357 -447 -399 -493t-127 -144zM1636 1450q111 -143 203 -322
l-57 -28q-106 205 -199 323zM1382 1354q123 -180 197 -326l-59 -29q-88 186 -195 328z" />
    <glyph glyph-name="Identity.425" unicode="&#x307a;" 
d="M137 481q99 70 249 253q73 89 172 217t120 155q74 90 140 97t159 -85q25 -28 170 -198t227 -258q346 -375 514 -525l-47 -51q-190 178 -514 532q-63 70 -201 233q-137 163 -186 214q-80 78 -118 75t-99 -81q-357 -447 -399 -493t-127 -144zM1337 1188q0 96 69 165t165 69
t165 -70q68 -68 68 -164t-68 -165t-165 -69q-96 0 -165 69t-69 165zM1399 1188q0 -72 50 -122t121 -50t121 50t50 122t-50 122t-121 50t-121 -50t-50 -122z" />
    <glyph glyph-name="Identity.426" unicode="&#x307b;" 
d="M1464 219q0 -109 -80 -168t-228 -59t-245 66q-96 66 -96 172t90 180t271 73q111 0 221 -26l-21 426q-270 -12 -516 2v65q229 -16 516 -6v410q-315 -12 -483 -2v65q227 -14 474 -4t431 35v-66q-104 -12 -360 -26v-410q225 12 409 35v-66q-166 -18 -409 -30q2 -92 18 -443
q223 -70 445 -268l-39 -63q-174 182 -402 262q4 -127 4 -154zM1405 272q0 16 -4 119q-115 29 -237 29t-204 -49q-84 -49 -83 -129q0 -188 299 -189q133 -1 181 57t48 162zM412 25l8 -58l-62 -6q-72 262 -71 637q1 195 27 372t54 342t27 216l80 -8q-16 -53 -22 -90
q-104 -494 -105 -830q0 -205 29 -426q59 188 139 383l45 -35q-125 -334 -138 -396t-11 -101z" />
    <glyph glyph-name="Identity.427" unicode="&#x307c;" 
d="M1798 1602l60 22q63 -113 135 -291l-64 -24q-76 201 -131 293zM1405 190q0 -110 -81 -168q-82 -58 -230 -58t-243 64q-95 65 -95 171t90 180t268 74q119 0 223 -25q-18 289 -22 424q-272 -10 -514 2v68q229 -16 514 -7v408q-283 -10 -481 0v66q395 -33 829 22
q-39 84 -64 131l58 19q86 -164 135 -291l-63 -25q-23 61 -48 121v-18q-147 -14 -303 -23v-407q220 11 410 34v-65q-213 -23 -410 -31q2 -96 19 -444q227 -70 444 -267l-39 -63q-174 182 -401 262q4 -127 4 -154zM1346 242q0 14 -5 120q-115 29 -237 29t-204 -49
q-83 -49 -83 -129q0 -188 297 -188q132 -1 182 57t50 160zM227 569q0 255 80 717q29 168 29 211l80 -8q-16 -47 -23 -88q-106 -502 -106 -830q0 -211 30 -426q55 170 138 383l45 -34q-122 -319 -136 -391t-12 -107l8 -57l-63 -7q-70 254 -70 637z" />
    <glyph glyph-name="Identity.428" unicode="&#x307d;" 
d="M1405 190q0 -110 -81 -168q-82 -58 -230 -58t-243 64q-95 65 -95 171t90 180t268 74q119 0 223 -25q-18 289 -22 424q-272 -10 -514 2v68q229 -16 514 -7v406q-254 -10 -481 2v66q416 -35 813 20q-37 53 -37 129t60 137t146 61t148 -60q61 -62 61 -148t-61 -146t-157 -61
q-96 0 -156 82v-60q-93 -10 -273 -20v-405q219 12 410 34v-65q-213 -23 -410 -31q2 -96 19 -444q227 -70 444 -267l-39 -63q-174 182 -401 262q4 -127 4 -154zM1816 1673q-60 0 -102 -43t-43 -103q0 -61 42 -103q41 -42 103 -42t105 42t43 102t-44 104q-44 43 -104 43z
M1346 242q0 14 -5 120q-115 29 -237 29t-204 -49q-83 -49 -83 -129q0 -188 297 -188q132 -1 182 57t50 160zM227 569q0 255 80 717q29 168 29 211l80 -8q-16 -47 -23 -88q-106 -502 -106 -830q0 -211 30 -426q55 170 138 383l45 -34q-122 -319 -136 -391t-12 -107l8 -57
l-63 -7q-70 254 -70 637z" />
    <glyph glyph-name="Identity.429" unicode="&#x307e;" 
d="M1141 209q0 -104 -71 -184t-247 -80q-410 0 -409 262q0 125 117 199q118 74 323 73q106 0 215 -22q-10 334 -12 364q-41 -2 -211 -2t-443 29v70q254 -37 531 -37q80 0 123 2q-2 37 -2 94v276q-35 -2 -198 -2t-421 31v70q201 -39 510 -39q72 0 109 2v170q0 72 -4 104h73
q-6 -43 -8 -127v-147q309 14 555 53v-68q-387 -37 -555 -45v-370q293 10 588 57v-68q-289 -41 -586 -51q2 -168 15 -381q301 -79 610 -325l-39 -60q-268 238 -569 322q6 -113 6 -170zM816 418q-146 0 -244 -60t-97 -149q0 -203 348 -203q250 0 250 203l-2 184
q-109 25 -255 25z" />
    <glyph glyph-name="Identity.430" unicode="&#x307f;" 
d="M428 121q-104 0 -167 65q-62 66 -62 164q0 218 184 362t471 144q20 43 117 253q96 210 143 302q-166 -12 -491 -27q-125 -10 -136 -12l-4 80q47 -4 181 -4t306 14t201 23l46 -39q-50 -61 -98 -159q-48 -99 -110 -235t-91 -198q324 -16 665 -192q35 164 35 385l68 -7
q-12 -242 -48 -409q146 -82 273 -176l-31 -66q-106 92 -256 178q-57 -231 -186 -389t-361 -268l-55 47q426 174 547 641q-350 186 -680 197q-199 -458 -277 -568q-80 -106 -184 -106zM260 354q0 -80 46 -126t117 -46t122 62t95 149q44 88 101 218t82 184q-255 -9 -409 -139
t-154 -302z" />
    <glyph glyph-name="Identity.431" unicode="&#x3080;" 
d="M1407 1319l43 45q88 -62 201 -168t178 -192l-49 -48q-61 86 -173 193t-200 170zM643 1456q0 90 -8 129h78q-8 -57 -8 -129v-182q211 23 415 74v-70q-236 -53 -415 -66v-344q45 -68 45 -157q0 -242 -107 -351q-8 -102 -8 -174q1 -72 23 -106q45 -67 326 -67q282 -1 392 30
t156 83q47 52 47 170t-10 206l69 -25q6 -139 4 -198q-4 -139 -61 -203t-168 -88q-167 -37 -411 -37t-336 43t-93 162q0 20 7 161q-45 -20 -112 -20q-68 0 -140 68q-72 67 -72 209t82 260t209 118q49 0 96 -26v280l-102 -2q-174 0 -316 23v67q161 -28 255 -28t163 4v186z
M543 891q-90 1 -157 -91t-67 -210q-1 -118 49 -174q50 -58 118 -58t115 56q83 100 83 291q0 84 -40 135t-101 51z" />
    <glyph glyph-name="Identity.432" unicode="&#x3081;" 
d="M223 446q0 162 93 330t235 277q-45 127 -74 227t-47 139l74 23q59 -242 98 -352q252 164 547 163h31q57 201 53 312l76 -6q-6 -25 -21 -104t-49 -206q252 -29 409 -199q156 -170 156 -436q0 -268 -189 -446t-528 -221l-40 57q311 29 502 192t192 433q1 225 -141 380
t-377 181q-140 -486 -314 -735q61 -90 135 -160l-49 -45q-53 59 -123 151q-211 -291 -403 -290q-109 0 -177 87q-68 86 -69 248zM471 172q164 0 365 283q-59 87 -118 195t-145 341q-129 -102 -209 -255t-79 -287q0 -133 50 -205t136 -72zM1141 1194q-276 0 -516 -164
q88 -242 146 -348t101 -172q4 6 14 20q9 14 13 23q153 256 264 641h-22z" />
    <glyph glyph-name="Identity.433" unicode="&#x3082;" 
d="M1735 391q0 -215 -173 -331t-452 -115q-195 0 -323 102t-128 326q0 102 19 264q-270 14 -459 78l4 67q186 -70 461 -80q14 145 53 451q-256 14 -465 68l7 67q193 -61 466 -76q19 168 27 243t2 124l82 -6q-10 -41 -22 -154t-27 -209h24q246 0 426 25v-68
q-209 -18 -423 -18h-33q-39 -305 -56 -451h60q272 0 438 25v-70q-197 -20 -436 -20h-68q-16 -160 -16 -254q0 -173 96 -273t287 -100q256 0 412 102t155 287q0 111 -59 227t-176 207l78 15q219 -209 219 -453z" />
    <glyph glyph-name="Identity.434" unicode="&#x3083;" 
d="M1312 987q182 0 273 -83q90 -83 90 -215t-93 -214t-277 -82q-129 0 -248 51l6 66q119 -59 267 -59q148 1 218 71t70 167t-68 168t-244 71t-579 -187q10 -25 40 -87q111 -230 286 -754l-70 -23q-131 445 -207 613t-102 227q-222 -105 -352 -170l-41 76q47 8 87 24t279 125
q-123 249 -178 297l72 31q10 -29 40 -78t117 -225q432 190 614 190zM1147 1055l-45 -45q-96 104 -219 192l47 41q139 -106 217 -188z" />
    <glyph glyph-name="Identity.435" unicode="&#x3084;" 
d="M1821 934q1 -156 -101 -258t-327 -103q-145 0 -293 58l2 69q131 -66 295 -65q283 0 346 194q16 49 16 109q0 115 -86 194t-258 78q-242 0 -727 -223q16 -35 50 -105t50 -106q102 -227 297 -823l-73 -23q-150 528 -281 822q-20 44 -57 122t-41 87q-72 -33 -218 -105
t-202 -94l-39 78q70 18 122 38t310 138q-130 267 -221 381l72 28q23 -45 63 -110q59 -109 139 -273q514 229 758 230q186 0 295 -91t109 -247zM1196 1370l-45 -45q-147 143 -264 229l47 39q160 -119 262 -223z" />
    <glyph glyph-name="Identity.436" unicode="&#x3085;" 
d="M1239 1024q233 0 356 -122t123 -318t-124 -326q-124 -131 -377 -131q-37 0 -74 6q-88 -178 -256 -274l-60 41q168 84 254 245q-203 59 -309 277l41 51q96 -221 295 -272q72 176 72 454q0 168 -15 306q-227 -27 -390 -186t-214 -359q-18 -66 -14 -128t26 -149l-59 -10
q-53 191 -53 377t49 579q2 35 0 62l80 -8q-32 -100 -53 -336q-20 -236 -15 -340q62 223 240 376t395 179q-24 156 -47 203l72 4q19 -72 35 -201h22zM1243 965h-20q16 -152 16 -308q0 -279 -72 -467q37 -4 60 -4q207 0 319 112t113 284q-1 172 -103 278t-313 105z" />
    <glyph glyph-name="Identity.437" unicode="&#x3086;" 
d="M1245 1303q266 -1 419 -145t153 -376t-152 -391q-152 -158 -442 -158q-49 0 -93 7q-102 -217 -307 -334l-57 37q203 104 305 311q-248 66 -381 330l47 49q119 -266 359 -322q84 211 84 563q0 174 -19 363q-268 -31 -466 -220t-265 -433q-39 -128 10 -334l-55 -12
q-61 224 -61 442t27 447t29 253t1 54l76 -7q0 -19 -15 -67q-28 -152 -50 -392t-9 -366q68 276 284 470t486 224q-24 199 -59 289l71 4q24 -102 47 -286h33zM1249 1241h-30q20 -190 20 -364q0 -352 -84 -578q53 -4 80 -4q231 0 377 132q145 132 145 364q0 195 -133 323
t-375 127z" />
    <glyph glyph-name="Identity.438" unicode="&#x3087;" 
d="M1028 748q0 -82 14 -398q293 -68 537 -282l-35 -64q-205 209 -500 283q4 -127 5 -162q0 -91 -68 -153t-190 -62q-176 0 -274 60q-97 60 -97 169t105 172t300 64q80 0 154 -13q-12 262 -12 386v362q0 100 -11 131h82q-10 -35 -10 -131v-192q311 4 541 34v-61
q-248 -31 -541 -35v-108zM985 141q0 29 -4 160q-94 14 -158 14q-156 0 -250 -45t-94 -127t81 -129q82 -47 202 -47t172 48q51 48 51 126z" />
    <glyph glyph-name="Identity.439" unicode="&#x3088;" 
d="M1040 989q0 -49 17 -518q358 -90 645 -346l-39 -64q-113 113 -271 204t-331 138q4 -147 4 -192q0 -117 -84 -192t-229 -74q-209 -1 -327 67t-118 199t117 213t350 82q109 0 221 -23q-16 453 -16 506v414q0 113 -12 166h86q-12 -57 -13 -166v-262q367 4 633 41l2 -66
q-328 -35 -635 -39v-88zM369 220q0 -100 96 -156q95 -58 249 -58t222 58t68 150t-7 204q-111 25 -225 24q-193 0 -298 -61t-105 -161z" />
    <glyph glyph-name="Identity.440" unicode="&#x3089;" 
d="M1221 866q203 0 339 -108t136 -279q0 -272 -264 -410t-752 -100l-18 70q476 -51 724 78t248 366q0 141 -116 232q-117 90 -295 90q-440 0 -691 -299q-31 -37 -47 -86l-73 16q29 119 62 386q34 267 42 411l76 -8q-12 -76 -43 -326t-45 -328q297 295 717 295zM674 1489
l18 67q123 -39 375 -91t383 -64l-16 -66q-137 17 -392 69t-368 85z" />
    <glyph glyph-name="Identity.441" unicode="&#x308a;" 
d="M1141 1470q197 0 313 -184t117 -487q0 -459 -334 -680q-192 -126 -492 -180l-38 59q343 50 559 223q241 193 241 574q0 266 -93 440t-275 174q-127 0 -254 -105q-127 -104 -209 -252t-104 -284t1 -283l-67 -6q-18 166 -18 348t67 619q8 57 16 137l82 -2
q-74 -256 -106 -707q55 220 226 408t368 188z" />
    <glyph glyph-name="Identity.442" unicode="&#x308b;" 
d="M1175 901q223 0 377 -127t154 -319q0 -242 -188 -374t-478 -132q-193 1 -294 71t-101 168t73 162t189 64q175 0 277 -106t125 -261q159 47 247 151t88 262t-140 268q-142 110 -374 110t-394 -85q-163 -85 -404 -311l-53 52q96 82 334 280t368 311q131 113 246 212
t145 126q-348 -18 -584 -28t-258 -15l-2 76q35 -4 112 -4t365 11q287 11 343 17t79 15l58 -57q-68 -51 -101 -78q-34 -27 -273 -239t-320 -281q162 61 384 61zM707 199q0 -89 95 -139t224 -50t219 21q-18 145 -106 233t-234 88q-84 0 -141 -43t-57 -110z" />
    <glyph glyph-name="Identity.443" unicode="&#x308c;" 
d="M643 1501q0 45 -6 84l90 -4q-14 -70 -37 -330q10 4 27 9l39 -39q-47 -70 -78 -127q-6 -57 -14 -191q139 141 324 262q184 121 316 121q262 0 263 -246q0 -98 -42 -397t-42 -383q0 -172 131 -172q180 1 350 191l18 -68q-174 -186 -362 -186q-90 0 -144 53q-54 52 -54 162
t39 404q40 294 40 394t-47 144t-139 43q-129 0 -309 -117t-347 -297q-10 -187 -10 -417t4 -345l6 -92h-77q6 43 6 90v455q0 74 14 303q-66 -100 -409 -592l-48 59q88 111 243 328t220 324q12 166 17 252l-420 -58l-8 78q143 -8 434 43q5 111 8 164q4 53 4 98z" />
    <glyph glyph-name="Identity.444" unicode="&#x308d;" 
d="M706 1440q150 0 601 22q53 4 79 15l58 -60q-21 -14 -41 -29q-20 -16 -25 -18q-338 -274 -620 -528q198 86 416 86t370 -123t152 -319t-138 -325q-268 -249 -835 -206l-21 70q250 -29 461 16t341 161t130 284t-131 274q-131 104 -348 104q-278 0 -472 -126
q-103 -67 -174 -128t-179 -170l-51 52q230 217 622 553q393 336 424 362q-713 -29 -807 -39l-2 76q40 -4 190 -4z" />
    <glyph glyph-name="Identity.445" unicode="&#x308e;" 
d="M752 645q-4 -106 -4 -366t10 -320h-74q4 25 4 301t4 377q-215 -330 -321 -485l-47 57q190 250 374 532q2 20 19 195q-14 -2 -346 -55l-11 71l66 2q154 10 297 37q18 190 19 211t1 90l86 -2q-12 -43 -45 -284q15 2 25 6l39 -35q-57 -94 -80 -133q-8 -80 -10 -127
q135 125 279 188t270 64q178 0 305 -110t127 -290q0 -237 -160 -373t-440 -186l-29 64q256 34 413 158t156 339q0 123 -95 232t-281 108q-139 1 -285 -73t-266 -193z" />
    <glyph glyph-name="Identity.446" unicode="&#x308f;" 
d="M643 1501q0 45 -6 84l90 -4q-14 -70 -37 -330q11 5 27 9l39 -39q-47 -70 -78 -127q-6 -72 -14 -205q332 301 690 301q202 0 354 -131t154 -348q2 -283 -198 -443t-521 -219l-27 64q272 37 466 172q100 71 160 181t59 246t-100 265q-50 67 -142 109t-211 42
q-182 0 -360 -86t-329 -235q-10 -183 -10 -413t4 -345l6 -92h-77q6 43 6 90v455q0 74 14 303q-66 -100 -409 -592l-48 59q88 111 243 328t220 324q12 166 17 252l-420 -58l-8 78q143 -8 434 43q5 111 8 164q4 53 4 98z" />
    <glyph glyph-name="Identity.447" unicode="&#x3090;" 
d="M1171 1114q279 0 441 -171t162 -409t-136 -403q-68 -82 -186 -130t-268 -48q-152 -1 -238 65t-86 165t75 159t179 59q270 0 379 -309q217 131 217 422q0 227 -144 382t-403 155q-78 0 -164 -17q-84 -266 -137 -407q-125 -344 -256 -484q-78 -84 -190 -84q-78 -1 -130 57
t-53 169q0 251 210 489t511 313q76 242 99 355q-23 -2 -256 -16t-338 -27l-4 82q133 -10 532 16q61 7 94 23l62 -41q-23 -37 -31 -64l-40 -135t-52 -178q74 12 151 12zM295 287q0 -78 36 -121t85 -43q82 0 141 57q161 167 375 838q-270 -78 -454 -297t-183 -434zM924 182
q0 -76 72 -122t201 -46q128 0 239 49q-90 276 -318 277q-84 0 -139 -41t-55 -117z" />
    <glyph glyph-name="Identity.448" unicode="&#x3091;" 
d="M1614 882q0 -162 -164 -257q-164 -96 -397 -97q-104 0 -174 15q-123 -80 -277 -213q148 27 246 -44t145 -204q49 119 161 206t250 87t258 -110t202 -296l-68 -30q-74 186 -179 280t-220 94q-115 1 -212 -77t-143 -199l-16 -82h-65q-6 57 -15 80q-80 246 -282 246
q-106 -1 -214 -91t-231 -243l-63 39q139 156 321 318t322 257q-160 55 -160 182q0 85 85 137q86 52 192 52t177 -47t71 -137t-130 -158h21q201 0 348 81t147 211t-114 200t-308 71q-194 0 -347 -62t-423 -262l-47 52q299 215 940 575q-594 -16 -719 -26l-4 77l99 -6
q184 0 618 19q90 4 125 16l51 -57q-78 -31 -530 -301q133 32 293 32t296 -83q134 -83 134 -245zM702 743q0 -119 220 -145q72 25 124 68t52 94t-54 81q-54 29 -136 29t-144 -33t-62 -94z" />
    <glyph glyph-name="Identity.449" unicode="&#x3092;" 
d="M678 229q0 -164 189 -201q95 -20 300 -20t480 41l-2 -69q-274 -33 -478 -33q-205 0 -305 19t-173 84t-73 175q0 153 131 263t326 214l10 7v12q-2 80 -58 126t-151 46q-205 0 -382 -158q-18 -16 -183 -200l-61 45q328 328 485 680v2q-49 -2 -163 -2t-304 10v71
q168 -18 302 -18t190 2q57 152 65 270l68 -6q-35 -164 -68 -262q387 14 664 64v-68q-295 -49 -686 -59l-6 -15q-78 -207 -242 -405q150 111 332 110q109 0 183 -58t79 -157q96 47 303 137t276 128l31 -70q-31 -8 -233 -89t-377 -169q0 -209 4 -418h-72q6 141 6 385
q-182 -91 -294 -194q-113 -103 -113 -220z" />
    <glyph glyph-name="Identity.450" unicode="&#x3093;" 
d="M1369 23q160 0 271 117t169 268q26 63 42 122l54 -41q-90 -252 -218 -390t-323 -138q-240 0 -250 234q-4 63 -4 204t-3 216t-49 119t-128 44q-131 0 -260 -106t-201 -238q-51 -88 -115 -242t-82 -227l-67 25q143 401 745 1472q33 63 49 109l76 -31q-39 -55 -65 -102
q-205 -348 -430 -781q168 182 364 183q94 0 160 -60t67 -170q1 -74 3 -214t4 -212t55 -117q53 -44 136 -44z" />
    <glyph glyph-name="Identity.451" unicode="&#x309b;" 
d="M338 1696q88 -123 201 -320l-58 -26q-123 231 -196 323zM88 1602q80 -111 201 -322l-58 -27q-104 205 -196 326z" />
    <glyph glyph-name="Identity.452" unicode="&#x309c;" 
d="M272 1614q-66 0 -117 -50t-51 -114t52 -116t116 -52q66 0 117 50t51 116t-51 116t-117 50zM47 1448q0 94 66 161q65 67 159 67t160 -66t66 -161t-66 -161t-160 -66t-160 66t-65 160z" />
    <glyph glyph-name="Identity.453" unicode="&#x309d;" 
d="M1460 424q-129 -43 -590 -227l-30 57q68 27 288 113t271 106q-94 139 -294 358t-384 390l53 41q190 -174 390 -400t317 -387z" />
    <glyph glyph-name="Identity.454" unicode="&#x309e;" 
d="M1378 385q-129 -43 -590 -227l-30 57q68 27 289 113t270 106q-94 138 -294 358t-384 390l53 41q190 -173 390 -399t317 -388zM1421 1483q94 -131 193 -303l-64 -31q-113 211 -188 307zM1165 1399q86 -119 193 -305l-64 -31q-96 186 -188 309z" />
    <glyph glyph-name="Identity.455" unicode="&#x30a1;" 
d="M557 1077h1075q29 0 56 6l36 -34l-12 -18q-8 -11 -10 -15q-197 -326 -424 -471l-61 43q117 61 231 189t180 237l-1071 2q-96 0 -170 -6v77q82 -10 170 -10zM1051 840q-1 -387 -95 -599t-372 -366l-70 55q61 18 115 52q230 152 298 359q56 169 56 361q0 82 -6 138h74z" />
    <glyph glyph-name="Identity.456" unicode="&#x30a2;" 
d="M494 1356q-88 0 -215 -8v84q111 -14 215 -15h1249q35 0 76 8l41 -43q-29 -35 -33 -41q-68 -121 -209 -283t-318 -284l-59 47q149 82 301 245t217 290h-1265zM1057 1118q0 -244 -22 -406t-82 -310t-175 -252t-295 -187l-61 51q70 23 151 70q269 152 350 414q66 214 66 468
q0 112 -4 152h72z" />
    <glyph glyph-name="Identity.457" unicode="&#x30a3;" 
d="M1071 -2q0 -100 6 -135h-73q6 68 6 135v725l-29 -16q-322 -178 -680 -287l-39 65q344 76 699 283q152 86 301 204t227 212l51 -47q-76 -81 -206 -187t-263 -190v-762z" />
    <glyph glyph-name="Identity.458" unicode="&#x30a4;" 
d="M1157 133q0 -111 8 -168h-78q8 57 9 168v879q-352 -211 -834 -361l-41 68q235 59 479 165t412 210t316 226t233 226l53 -51q-98 -102 -250 -226t-307 -220v-916z" />
    <glyph glyph-name="Identity.459" unicode="&#x30a5;" 
d="M498 897v-342q0 -51 6 -76h-74q6 49 6 76v285q0 74 -6 123q78 -4 150 -5h397v183q0 47 -6 94h76q-6 -31 -7 -94v-183h482q51 1 88 7l41 -25q-6 -18 -17 -70q-43 -315 -153 -508q-197 -346 -695 -479l-57 56q55 8 137 32q188 68 325 160q238 161 334 507q40 144 48 259
h-1075z" />
    <glyph glyph-name="Identity.460" unicode="&#x30a6;" 
d="M397 1202v-432q0 -57 6 -92h-73q6 31 6 90v365q0 98 -6 139q98 -8 174 -8h469v225q0 59 -6 119h75q-8 -51 -8 -119v-225h561q78 0 111 12l45 -31q-10 -25 -25 -124q-14 -99 -68 -286t-138 -323q-238 -391 -785 -545l-53 60q55 8 133 32q189 53 369 183t271 282
q91 150 147 344t67 334h-1272z" />
    <glyph glyph-name="Identity.461" unicode="&#x30a7;" 
d="M1051 94h544q59 0 119 6v-73q-78 4 -119 4h-1134q-35 0 -125 -4v73q66 -6 125 -6h528v846h-436q-80 0 -121 -4v72q63 -6 119 -7h950q25 0 129 7v-72q-37 4 -129 4h-450v-846z" />
    <glyph glyph-name="Identity.462" unicode="&#x30a8;" 
d="M1049 190h659q45 0 147 9v-76q-51 6 -147 6h-1356q-74 0 -159 -6v76q74 -8 159 -9h633v1049h-524q-76 0 -150 -6v76q72 -8 150 -9h1134q78 0 160 9v-76q-66 6 -160 6h-546v-1049z" />
    <glyph glyph-name="Identity.463" unicode="&#x30a9;" 
d="M1634 915q74 0 107 7v-74q-68 6 -109 6h-348q10 -810 10 -850t-30 -66t-88 -26q-56 0 -265 12l-4 68q131 -23 267 -23q57 0 57 58q0 225 -8 749q-103 -164 -319 -358t-445 -316l-49 50q236 118 464 322t332 380h-657q-57 0 -119 -6v74q47 -6 119 -7h672l-4 209
q0 49 -11 107h82q-6 -37 -6 -107l2 -209h350z" />
    <glyph glyph-name="Identity.464" unicode="&#x30aa;" 
d="M1683 1182q72 0 138 8v-76q-98 6 -140 6h-387q10 -795 11 -1024q-1 -123 -137 -123t-308 13l-4 71q147 -27 305 -26q47 0 65 18q17 18 17 62q0 293 -8 931q-131 -202 -398 -446t-558 -397l-48 53q303 152 578 403q274 252 408 465h-795q-66 0 -152 -6v76q82 -8 152 -8
h811l-4 250q-4 92 -15 133h86q-10 -78 -10 -133l2 -250h391z" />
    <glyph glyph-name="Identity.465" unicode="&#x30ab;" 
d="M1404 8q-128 0 -317 10l-8 68q178 -18 322 -18q92 0 123 61q63 121 92 437t29 562h-687q-55 -470 -223 -738q-84 -134 -178 -229t-219 -179l-59 49q57 29 149 102q399 322 475 995h-418q-143 0 -202 -6v76q115 -8 200 -8h426q22 269 0 389h80q-4 -39 -7 -139t-15 -250
h592q43 0 104 6l55 -29q-6 -41 -10 -92q-29 -786 -127 -975q-49 -92 -177 -92z" />
    <glyph glyph-name="Identity.466" unicode="&#x30ac;" 
d="M1663 1616l53 26q113 -150 178 -278l-57 -29q-86 168 -174 281zM1454 1544l55 27q106 -147 172 -281l-57 -28q-68 141 -170 282zM1518 1165q43 0 104 6l55 -28q-6 -41 -10 -92q-29 -786 -127 -975q-49 -92 -177 -92t-316 10l-9 67q178 -18 322 -18q92 0 123 61
q63 122 92 438t29 562h-686q-55 -471 -224 -738q-84 -134 -178 -230t-219 -179l-59 49q57 29 149 103q399 322 475 995h-418q-143 0 -202 -6v76q115 -8 200 -9h426q22 271 0 389h80q-4 -39 -7 -139t-15 -250h592z" />
    <glyph glyph-name="Identity.467" unicode="&#x30ad;" 
d="M1081 643q662 111 717 129l14 -74q-57 -10 -718 -114q20 -96 52 -245t42 -208q33 -135 49 -172l-80 -18q-19 121 -123 632q-426 -70 -564 -92t-206 -43l-16 84q160 9 774 111q-58 304 -98 493q-547 -86 -645 -106l-17 84q183 8 647 84q-55 283 -84 371l76 16
q0 -43 68 -377q534 84 645 117l16 -76q-37 -4 -104 -16l-545 -86z" />
    <glyph glyph-name="Identity.468" unicode="&#x30ae;" 
d="M1671 1686l53 26q113 -150 179 -278l-58 -29q-86 168 -174 281zM924 1163q534 84 645 117l16 -76q-37 -4 -104 -16l-545 -86l100 -494q665 112 717 129l14 -73q-174 -29 -718 -115q20 -96 44 -209t46 -229t53 -187l-80 -18q-19 120 -123 633q-426 -69 -564 -93t-206 -43
l-16 84q160 9 774 111q-52 273 -98 494q-526 -82 -646 -107l-16 84q183 8 647 84q-55 283 -84 371l76 16q0 -51 68 -377zM1690 1360l-58 -29q-68 141 -170 283l56 26q106 -147 172 -280z" />
    <glyph glyph-name="Identity.469" unicode="&#x30af;" 
d="M1577 1309q61 0 90 14l62 -35q-12 -23 -27 -71q-43 -176 -140 -372t-229 -356q-295 -358 -805 -536l-55 53q494 139 811 520q129 156 225 353t138 368h-807q-207 -309 -523 -514l-55 41q162 94 303 236q249 250 346 489q25 55 35 111l78 -27l-30 -61q-20 -40 -48 -94
q-26 -54 -67 -119h698z" />
    <glyph glyph-name="Identity.470" unicode="&#x30b0;" 
d="M1692 1645l53 26q113 -150 178 -278l-57 -29q-86 168 -174 281zM1483 1573l55 26q106 -147 172 -280l-57 -29q-68 142 -170 283zM1475 1255q61 0 90 15l61 -35q-12 -23 -27 -72q-43 -175 -140 -371t-228 -356q-295 -358 -805 -536l-55 53q706 199 1036 872
q96 197 137 369h-807q-207 -309 -522 -514l-55 41q162 94 303 235q248 248 346 490q25 55 35 110l78 -26l-31 -62q-63 -130 -115 -213h699z" />
    <glyph glyph-name="Identity.471" unicode="&#x30b1;" 
d="M1686 1178q119 0 169 8v-74q-102 4 -169 4h-406q-20 -462 -193 -741q-84 -137 -184 -237t-233 -185l-72 51q66 23 139 78q457 334 482 1034h-617q-62 -119 -164 -250t-186 -196l-66 39q100 70 208 209q267 344 296 659l80 -14l-37 -121q-55 -170 -100 -264h1053z" />
    <glyph glyph-name="Identity.472" unicode="&#x30b2;" 
d="M1688 1624l53 27q113 -150 178 -279l-57 -29q-86 168 -174 281zM1645 1143q119 0 170 8v-74q-102 4 -170 4h-406q-20 -458 -192 -741q-85 -138 -185 -238t-233 -184l-72 51q66 23 139 78q457 334 482 1034h-617q-63 -119 -165 -250t-185 -196l-66 39q100 70 208 209
q267 344 296 659l80 -14l-37 -121q-55 -170 -100 -264h1053zM1706 1298l-57 -28q-68 141 -170 282l55 27q106 -148 172 -281z" />
    <glyph glyph-name="Identity.473" unicode="&#x30b3;" 
d="M1622 131h-1065q-115 0 -201 -4v78q86 -10 199 -10h1067v1087h-1042q-80 0 -197 -6v78q98 -10 195 -11h985q78 0 125 3q-4 -86 -5 -127v-1055l7 -154h-72q4 59 4 121z" />
    <glyph glyph-name="Identity.474" unicode="&#x30b4;" 
d="M1665 1696l55 24q88 -119 172 -268l-57 -27q-111 197 -170 271zM1653 1161v-1055l6 -153h-72q4 59 4 121h-1065q-115 0 -200 -4v77q86 -10 198 -10h1067v1088h-1042q-80 0 -197 -6v77q98 -10 195 -10h985q78 0 125 2q-4 -86 -4 -127zM1649 1399l-58 -29q-76 152 -168 275
l56 24q86 -120 170 -270z" />
    <glyph glyph-name="Identity.475" unicode="&#x30b5;" 
d="M1417 1114h299l150 8v-75q-76 6 -150 6h-299v-76q0 -446 -114 -668q-115 -221 -439 -368l-55 53q115 49 191 96t150 122q73 75 115 172q91 210 91 577v92h-680v-385l6 -156h-76q8 92 8 156v385h-268l-188 -6v75q117 -8 188 -8h268v322l-6 112h74q-6 -51 -6 -110v-324h680
v297l-8 145h77q-8 -68 -8 -145v-297z" />
    <glyph glyph-name="Identity.476" unicode="&#x30b6;" 
d="M1726 1573l60 18q74 -133 135 -286l-63 -23q-75 195 -132 291zM1376 1073h299l150 8v-75q-76 6 -150 6h-299v-76q0 -446 -114 -668q-115 -221 -439 -368l-55 53q116 49 192 96t149 122t115 172q91 210 91 577v92h-680v-385l6 -156h-76q8 92 8 156v385h-268l-188 -6v75
q117 -8 188 -8h268v322l-6 112h74q-6 -51 -6 -110v-324h680v297l-8 146h77q-8 -68 -8 -146v-297zM1722 1243l-61 -22q-57 162 -129 292l57 19q76 -142 133 -289z" />
    <glyph glyph-name="Identity.477" unicode="&#x30b7;" 
d="M299 1071q84 -47 231 -137t199 -127l-37 -57q-68 51 -208 139t-220 129zM365 51q369 66 677 246q492 289 754 733l41 -59q-127 -203 -327 -394t-456 -345t-653 -244zM600 1526q74 -44 218 -142t206 -145l-41 -53q-59 51 -197 145t-221 144z" />
    <glyph glyph-name="Identity.478" unicode="&#x30b8;" 
d="M276 1051q84 -47 232 -137t199 -128l-37 -57q-68 51 -208 139t-220 129zM342 31q369 66 678 245q492 289 754 734l41 -60q-127 -203 -327 -394t-456 -345t-653 -244zM578 1505q74 -43 218 -141t205 -145l-40 -54q-59 51 -197 145t-221 144zM1692 1581q106 -139 200 -319
l-57 -29q-94 188 -197 321zM1440 1485q119 -168 194 -322l-57 -28q-86 180 -193 323z" />
    <glyph glyph-name="Identity.479" unicode="&#x30b9;" 
d="M1434 1378q63 0 94 8l41 -34q-20 -25 -29 -52q-56 -154 -158 -332t-211 -306q162 -136 333 -314t292 -323l-51 -45q-119 147 -289 327t-323 311q-406 -434 -830 -622l-49 53q446 180 848 629q113 127 223 312q111 185 152 327h-902l-172 -6v78q106 -10 172 -11h859z" />
    <glyph glyph-name="Identity.480" unicode="&#x30ba;" 
d="M1679 1675l54 27q113 -150 178 -279l-58 -28q-86 167 -174 280zM535 1356h858q63 0 94 8l41 -35q-20 -25 -29 -51q-57 -154 -159 -333t-210 -306q162 -137 333 -314t292 -323l-51 -45q-119 147 -289 327t-323 312q-406 -434 -830 -623l-49 54q446 180 848 628
q113 127 223 313t152 326h-901l-173 -6v78q106 -10 173 -10zM1698 1350l-58 -29q-68 141 -170 283l56 26q106 -147 172 -280z" />
    <glyph glyph-name="Identity.481" unicode="&#x30bb;" 
d="M735 268q0 -116 69 -158t265 -42q350 0 631 53l-4 -74q-281 -41 -652 -41q-214 0 -292 60t-78 188v680q-365 -74 -512 -105l-15 74q104 12 527 94v410q0 84 -10 141h81q-10 -72 -10 -141v-397q616 119 912 184q49 10 71 25l45 -35q-6 -6 -34 -54q-238 -405 -416 -593
l-60 36q119 109 233 274t171 286q-496 -100 -922 -187v-678z" />
    <glyph glyph-name="Identity.482" unicode="&#x30bc;" 
d="M1692 1630l53 27q113 -150 178 -279l-57 -28q-86 167 -174 280zM711 1374v-397q616 119 788 157t195 52l45 -35q-6 -6 -35 -53q-238 -406 -416 -594l-59 37q119 109 233 273t170 286q-496 -100 -921 -187v-677q1 -117 69 -159t264 -42q350 0 631 53l-4 -74
q-281 -41 -651 -41q-213 1 -292 61t-79 187v680q-365 -74 -512 -104l-14 73q104 12 526 95v409q0 84 -10 142h82q-10 -72 -10 -142zM1710 1305l-57 -29q-68 141 -170 283l55 26q106 -147 172 -280z" />
    <glyph glyph-name="Identity.483" unicode="&#x30bd;" 
d="M315 1382l58 29q109 -160 336 -561l-58 -33q-53 105 -165 293t-171 272zM584 29q463 184 745 618q201 307 268 717q8 57 9 88l75 -10q-14 -45 -20 -84q-80 -438 -277 -744q-285 -434 -741 -634z" />
    <glyph glyph-name="Identity.484" unicode="&#x30be;" 
d="M1720 1720q88 -119 172 -268l-57 -27q-111 197 -170 271zM1479 1669q86 -121 170 -270l-58 -29q-76 152 -168 275zM283 1343l57 29q109 -160 336 -561l-58 -33q-52 104 -164 292t-171 273zM553 -10q205 86 371 214t268 255t180 277t114 264t58 231q12 86 12 88l76 -14
q-6 -11 -32 -117q-114 -472 -370 -786q-103 -126 -262 -248t-356 -213z" />
    <glyph glyph-name="Identity.485" unicode="&#x30bf;" 
d="M1671 1352l62 -35q-12 -23 -27 -72q-92 -356 -320 -659q137 -88 203 -135l-41 -54q-70 55 -198 138l-15 -17q-307 -375 -835 -565l-56 51q244 72 467 222t375 329l10 14q-293 184 -514 303l39 46q197 -98 514 -300q229 305 316 658h-807q-219 -326 -543 -545l-55 41
q238 145 414 357t249 387q29 61 37 110l76 -27l-30 -61q-20 -41 -40 -81t-69 -120h698q61 1 90 15z" />
    <glyph glyph-name="Identity.486" unicode="&#x30c0;" 
d="M1692 1665l53 27q113 -150 178 -279l-57 -29q-86 168 -174 281zM1483 1593l55 27q106 -147 172 -281l-57 -28q-68 141 -170 282zM1499 1290q61 0 90 15l62 -35q-12 -23 -27 -72q-92 -356 -319 -659q137 -88 202 -136l-41 -53q-70 55 -198 137l-15 -16
q-307 -375 -835 -565l-56 51q244 71 467 221t375 330l10 14q-293 184 -514 303l39 45q197 -98 514 -299q229 305 316 658h-807q-219 -326 -543 -545l-55 41q238 145 415 357t248 386q29 61 37 111l76 -27l-30 -61q-20 -41 -40 -81t-69 -120h698z" />
    <glyph glyph-name="Identity.487" unicode="&#x30c1;" 
d="M1092 885h614q78 0 139 6v-74q-51 6 -137 6h-616q-6 -323 -128 -523t-395 -349l-59 47q256 124 384 316t136 509h-653q-106 0 -174 -6v76q70 -8 170 -8h657v456q-250 -29 -645 -32l-16 67q272 -18 678 31q133 16 301 50t237 63l47 -60q-32 -8 -71 -20q-266 -63 -469 -90
v-465z" />
    <glyph glyph-name="Identity.488" unicode="&#x30c2;" 
d="M1655 1323l53 27q96 -127 174 -275l-57 -28q-80 157 -170 276zM1673 1001l-57 -28q-74 154 -166 278l55 27q105 -148 168 -277zM1032 858h615q78 0 139 6v-73q-51 6 -137 6h-617q-6 -322 -128 -523t-394 -350l-59 47q256 123 384 316t136 510h-654q-106 0 -174 -6v75
q70 -8 170 -8h658v457q-250 -29 -645 -33l-17 68q272 -18 678 30q133 16 301 50t238 63l47 -59q-8 -2 -33 -10q-203 -61 -508 -101v-465z" />
    <glyph glyph-name="Identity.489" unicode="&#x30c3;" 
d="M469 1044q86 -197 182 -456l-59 -23q-23 76 -89 243q-67 167 -91 210zM1673 1061q-16 -40 -16 -51q-92 -406 -299 -662q-252 -311 -651 -463l-56 56q395 123 654 440q240 292 303 700zM946 1143q117 -293 154 -434l-60 -25q-12 61 -68 217t-85 219z" />
    <glyph glyph-name="Identity.490" unicode="&#x30c4;" 
d="M326 1364q96 -209 223 -549l-64 -22q-25 89 -107 289t-114 257zM1710 1407l74 -23q-10 -31 -21 -71q-111 -467 -340 -766q-153 -201 -367 -356t-433 -226l-52 53q227 68 437 216t349 329q284 368 353 844zM897 1483q31 -70 101 -261t92 -266l-62 -20q-23 84 -90 273
q-68 189 -98 253z" />
    <glyph glyph-name="Identity.491" unicode="&#x30c5;" 
d="M1747 1720q88 -119 172 -268l-57 -27q-111 197 -170 271zM1505 1669q86 -121 170 -270l-57 -29q-76 152 -168 275zM285 1323q96 -209 223 -549l-64 -22q-26 88 -108 288t-113 258zM1651 1280l73 -23q-10 -31 -20 -71q-115 -412 -322 -680q-154 -202 -368 -356t-432 -226
l-52 53q226 69 436 217t363 345q259 333 322 741zM856 1442q32 -70 102 -261t91 -266l-62 -20q-23 84 -90 273q-68 189 -98 253z" />
    <glyph glyph-name="Identity.492" unicode="&#x30c6;" 
d="M377 948h1339q66 0 133 6v-71q-78 4 -133 4h-618q-4 -399 -113 -596q-59 -97 -165 -193t-230 -159l-62 49q281 123 402 334q66 110 86 240t22 325h-661q-104 0 -160 -4v71q78 -6 160 -6zM1454 1391h-831q-90 0 -156 -7v76q102 -8 151 -8h836q96 0 162 8v-76q-76 7 -162 7
z" />
    <glyph glyph-name="Identity.493" unicode="&#x30c7;" 
d="M1753 1686l53 26q113 -150 179 -278l-58 -29q-86 168 -174 281zM358 936h1340q66 0 133 6v-72q-78 4 -133 4h-619q-4 -399 -112 -595q-59 -97 -165 -193t-231 -160l-61 49q281 123 401 334q66 109 86 240t23 325h-662q-104 0 -159 -4v72q75 -6 159 -6zM1348 1378h-744
q-90 0 -155 -6v76q102 -8 151 -8h748q96 0 161 8v-76q-75 6 -161 6zM1772 1360l-58 -29q-68 141 -170 283l55 26q107 -147 173 -280z" />
    <glyph glyph-name="Identity.494" unicode="&#x30c8;" 
d="M737 166v1204q0 111 -10 180h82q-10 -88 -10 -180v-369q201 -61 454 -161t439 -193l-27 -63q-164 92 -423 194t-443 156l2 -768q0 -150 6 -201h-76q6 51 6 201z" />
    <glyph glyph-name="Identity.495" unicode="&#x30c9;" 
d="M1464 1491l54 27q104 -137 192 -306l-57 -28q-89 178 -189 307zM731 1346v-369q201 -61 454 -161t439 -193l-27 -64q-165 93 -423 195t-443 155l2 -768q0 -150 6 -200h-75q6 51 6 200v1205q0 111 -11 180h82q-10 -88 -10 -180zM1479 1116l-58 -29q-82 170 -184 310l55 26
q117 -164 187 -307z" />
    <glyph glyph-name="Identity.496" unicode="&#x30ca;" 
d="M1110 1057h629q90 0 131 4v-68q-20 2 -133 2h-627v-71q0 -340 -137 -576t-414 -387l-63 47q553 270 553 916v71h-674q-133 0 -154 -2v70q61 -6 152 -6h676v325q0 113 -13 168h84q-10 -92 -10 -168v-325z" />
    <glyph glyph-name="Identity.497" unicode="&#x30cb;" 
d="M1452 1270q96 0 176 6v-72q-53 4 -176 4h-907q-51 0 -162 -4v72l162 -6h907zM375 242h1278q82 0 147 8v-80q-74 6 -147 6h-1278l-172 -6v80q119 -8 172 -8z" />
    <glyph glyph-name="Identity.498" unicode="&#x30cc;" 
d="M580 1313q-66 0 -172 -4v73q106 -8 172 -8h911q49 0 74 10l43 -36q-25 -39 -39 -88q-45 -182 -147 -384t-208 -337q232 -170 422 -340l-47 -54q-176 166 -413 347q-162 -186 -368 -326t-421 -219l-59 55q213 60 426 204t370 324q-322 236 -594 377l39 47
q270 -141 596 -379q123 150 217 348t138 390h-940z" />
    <glyph glyph-name="Identity.499" unicode="&#x30cd;" 
d="M1298 631l45 45q248 -131 496 -297l-45 -53q-297 205 -496 305zM561 1217q-143 0 -233 -7v78q88 -10 233 -10h449v160q0 119 -11 170h82q-10 -51 -10 -170v-160h430q68 0 88 8l45 -43q-49 -49 -102 -113q-52 -64 -182 -186q-130 -121 -269 -215l-14 -10l-2 -584
q0 -66 8 -192h-80q13 138 13 737q-287 -178 -756 -322l-41 62q683 178 1108 575q137 129 205 222h-961z" />
    <glyph glyph-name="Identity.500" unicode="&#x30ce;" 
d="M1577 1448l-43 -131q-162 -473 -365 -737q-139 -180 -345 -331t-421 -241l-55 58q219 76 425 223t344 327q139 180 241 406t147 446z" />
    <glyph glyph-name="Identity.501" unicode="&#x30cf;" 
d="M1776 51q-62 223 -243 665t-304 644l59 22q314 -576 549 -1312zM518 623q66 145 126 363t83 378l68 -12q-21 -63 -41 -156q-88 -395 -200 -644t-286 -501l-61 27q176 234 311 545z" />
    <glyph glyph-name="Identity.502" unicode="&#x30d0;" 
d="M1755 23q-62 223 -243 665t-304 643l60 23q160 -293 295 -625q145 -346 254 -688zM498 594q66 145 126 363t83 378l67 -12q-16 -50 -55 -216q-77 -333 -168 -544q-129 -289 -303 -540l-62 26q177 234 312 545zM1745 1630q113 -150 178 -278l-57 -29q-86 168 -174 281z
M1538 1559q106 -147 172 -281l-57 -29q-68 141 -170 283z" />
    <glyph glyph-name="Identity.503" unicode="&#x30d1;" 
d="M1755 23q-62 223 -243 665t-304 643l60 23q160 -293 295 -625q145 -346 254 -688zM498 594q66 145 126 363t83 378l67 -12q-16 -50 -55 -216q-77 -333 -168 -544q-129 -289 -303 -540l-62 26q177 234 312 545zM1503 1383q1 89 63 151t151 63q89 0 151 -63q62 -64 63 -152
q0 -88 -62 -150q-63 -62 -153 -62t-152 62t-61 151zM1565 1382q0 -63 44 -107t107 -44t109 44q45 44 45 107q0 62 -45 108t-109 46t-107 -46q-44 -46 -44 -108z" />
    <glyph glyph-name="Identity.504" unicode="&#x30d2;" 
d="M590 289q0 -86 34 -121q70 -72 425 -74q453 0 688 62v-76q-283 -43 -594 -43t-414 18q-103 19 -151 67t-50 159v1138q0 76 -10 119h80q-8 -70 -8 -119v-538q196 43 454 125t433 159q94 45 137 76l35 -70q-12 -6 -41 -18q-29 -13 -57 -25t-52 -20q-327 -141 -909 -297
v-522z" />
    <glyph glyph-name="Identity.505" unicode="&#x30d3;" 
d="M1624 1595l53 27q113 -150 178 -279l-57 -28q-86 167 -174 280zM508 254q0 -86 34 -121q70 -72 425 -74q453 0 688 62v-76q-283 -43 -594 -43t-414 18t-151 66t-50 160v1138q0 76 -10 119h80q-8 -70 -8 -119v-538q500 115 850 270q94 45 137 76l35 -70q-12 -6 -41 -18
t-57 -24t-52 -21q-315 -136 -872 -283v-522zM1642 1270l-57 -29q-68 141 -170 283l55 26q106 -147 172 -280z" />
    <glyph glyph-name="Identity.506" unicode="&#x30d4;" 
d="M1676 1618q90 0 152 -64t62 -151q0 -89 -62 -151t-152 -62t-152 62t-62 152t62 152t152 62zM1675 1251q63 0 109 44q45 43 45 107t-45 109q-44 45 -108 45t-108 -45t-44 -108t44 -107t107 -45zM508 254q0 -86 34 -121q70 -72 425 -74q453 0 688 62v-76q-283 -43 -594 -43
t-414 18t-151 66t-50 160v1138q0 76 -10 119h80q-8 -70 -8 -119v-538q500 115 850 270q94 45 137 76l35 -70q-12 -6 -41 -18t-57 -24t-52 -21q-315 -136 -872 -283v-522z" />
    <glyph glyph-name="Identity.507" unicode="&#x30d5;" 
d="M492 1325q-61 0 -164 -4v74q86 -10 166 -11h1105q37 1 60 7l47 -31q-10 -20 -16 -64q-35 -198 -116 -414t-188 -350q-154 -190 -334 -318t-454 -212l-55 61q510 139 778 485q125 162 207 382t104 395h-1140z" />
    <glyph glyph-name="Identity.508" unicode="&#x30d6;" 
d="M1485 1655l55 24q86 -121 170 -270l-57 -29q-76 152 -168 275zM1726 1706l56 25q88 -119 172 -269l-58 -26q-111 196 -170 270zM483 1292q-61 0 -164 -4v74q86 -10 166 -10h1106q37 0 60 6l47 -31q-10 -20 -17 -63q-35 -197 -115 -414t-188 -350q-154 -190 -335 -318
t-453 -213l-55 62q279 75 465 199t312 286t208 381t104 395h-1141z" />
    <glyph glyph-name="Identity.509" unicode="&#x30d7;" 
d="M485 1352h1125q-18 41 -19 88q1 90 63 152t150 62t152 -62q64 -64 63 -152q0 -88 -62 -150q-61 -62 -141 -63q-80 0 -135 39v-2q-35 -197 -115 -414t-188 -350q-154 -190 -335 -318t-453 -213l-55 62q279 75 465 199t312 286t208 381t104 395h-1141q-61 0 -164 -4v74
q86 -10 166 -10zM1804 1288q63 0 109 44q45 44 45 108t-45 108q-45 45 -109 45t-107 -45q-44 -45 -44 -108q0 -64 44 -108t107 -44z" />
    <glyph glyph-name="Identity.510" unicode="&#x30d8;" 
d="M166 537q46 39 114 107t236 274t186 229q74 86 129 92t155 -72q100 -79 434 -437q333 -358 481 -533l-48 -52q-130 167 -298 348q-169 181 -187 201q-300 328 -398 408t-130 76t-82 -62t-210 -252q-160 -195 -198 -239q-40 -43 -78 -89t-47 -57z" />
    <glyph glyph-name="Identity.511" unicode="&#x30d9;" 
d="M145 496q45 39 113 107q68 69 238 275q168 206 186 228q74 86 129 92t155 -72t434 -436q333 -358 480 -534l-47 -52q-130 167 -298 348q-169 181 -187 201q-300 327 -398 407t-131 76t-82 -60q-49 -58 -209 -253t-200 -239t-76 -90q-37 -46 -47 -56zM1630 1454
q106 -139 201 -319l-57 -29q-94 188 -197 321zM1378 1358q119 -168 195 -322l-57 -28q-86 180 -193 323z" />
    <glyph glyph-name="Identity.512" unicode="&#x30da;" 
d="M145 496q45 39 113 107q68 69 238 275q168 206 186 228q74 86 129 92t155 -72t434 -436q333 -358 480 -534l-47 -52q-130 167 -298 348q-169 181 -187 201q-300 327 -398 407t-131 76t-82 -60q-49 -58 -209 -253t-200 -239t-76 -90q-37 -46 -47 -56zM1343 1204
q0 94 68 163t164 69t164 -69q67 -69 67 -163t-68 -163t-163 -69q-96 0 -164 70q-68 68 -68 162zM1405 1204q0 -70 49 -120t121 -50t121 50t49 120t-49 120t-121 50t-121 -50t-49 -120z" />
    <glyph glyph-name="Identity.513" unicode="&#x30db;" 
d="M1454 791l55 28q81 -90 185 -249t174 -283l-62 -35q-61 121 -166 284q-104 163 -186 255zM1698 1139h-608v-1033q0 -74 -31 -104t-131 -29q-100 0 -226 13l-4 71q139 -25 246 -24q84 0 84 84v1022h-618q-74 0 -152 -6v75q72 -8 150 -8h620v258q0 63 -12 113h80
q-6 -43 -6 -113v-258h606q70 0 133 8v-71q-45 2 -131 2zM285 246l-60 41q98 88 218 253t180 287l55 -28q-55 -119 -174 -283t-219 -270z" />
    <glyph glyph-name="Identity.514" unicode="&#x30dc;" 
d="M1675 1612l54 26q113 -150 178 -278l-58 -29q-86 168 -174 281zM1397 760l55 28q80 -90 184 -248t174 -284l-61 -35q-61 121 -166 284q-104 163 -186 255zM1640 1108h-608v-1032q0 -74 -31 -104t-130 -30t-226 13l-4 72q137 -25 246 -25q84 0 84 84v1022h-619
q-74 0 -151 -6v76q72 -8 149 -9h621v258q0 63 -13 113h80q-6 -43 -6 -113v-258h606q70 0 134 9v-72q-46 2 -132 2zM227 215l-59 41q98 88 218 253t179 288l56 -29q-55 -119 -175 -283t-219 -270zM1683 1300l-57 -28q-68 141 -170 282l55 27q106 -148 172 -281z" />
    <glyph glyph-name="Identity.515" unicode="&#x30dd;" 
d="M1397 760l55 28q80 -90 184 -248t174 -284l-61 -35q-61 121 -166 284q-104 163 -186 255zM1640 1108h-608v-1032q0 -74 -31 -104t-130 -30t-226 13l-4 72q137 -25 246 -25q84 0 84 84v1022h-619q-74 0 -151 -6v76q72 -8 149 -9h621v258q0 63 -13 113h80q-6 -43 -6 -113
v-258h606q70 0 134 9v-72q-46 2 -132 2zM227 215l-59 41q98 88 218 253t179 288l56 -29q-55 -119 -175 -283t-219 -270zM1653 1280q-88 0 -150 61q-61 61 -61 149t61 151t149 63t151 -62t63 -151q0 -87 -62 -149t-151 -62zM1653 1642q-63 0 -107 -44t-43 -107q0 -63 43 -107
q42 -44 106 -43q64 0 108 43q44 42 44 106t-44 108t-107 44z" />
    <glyph glyph-name="Identity.516" unicode="&#x30de;" 
d="M420 1278q-70 0 -180 -6v78q96 -10 180 -11h1306q54 1 72 9l55 -41q-16 -16 -32 -41q-324 -520 -791 -860l23 -23q256 -260 358 -387l-57 -45q-88 123 -350 393q-90 90 -250 225t-236 189l49 39q55 -39 187 -148t231 -203q254 184 461 421t301 411h-1327z" />
    <glyph glyph-name="Identity.517" unicode="&#x30df;" 
d="M383 362q279 -47 629 -136t544 -173l-28 -59q-184 86 -536 176t-634 135zM500 967q680 -119 995 -242l-29 -59q-172 68 -471 140t-522 101zM594 1497q209 -29 527 -99t503 -134l-27 -62q-182 68 -493 136t-535 100z" />
    <glyph glyph-name="Identity.518" unicode="&#x30e0;" 
d="M1872 -16l-66 -31q-39 111 -131 293q-784 -102 -1089 -128t-396 -40l-14 78q102 -3 305 16q70 160 213 591q212 639 226 765l84 -19q-53 -143 -56 -151q-49 -168 -190 -595t-205 -585q653 57 1094 123q-162 305 -287 467l55 31q109 -154 255 -413t202 -402z" />
    <glyph glyph-name="Identity.519" unicode="&#x30e1;" 
d="M1520 1501l69 -24q-12 -23 -47 -115q-139 -385 -342 -647q340 -287 522 -490l-47 -47q-190 215 -514 490q-375 -463 -842 -691l-53 48q479 225 848 684q-317 262 -602 436l39 49q352 -233 602 -438q207 272 332 630q25 70 35 115z" />
    <glyph glyph-name="Identity.520" unicode="&#x30e2;" 
d="M1702 758h-762v-508q0 -78 69 -128t218 -50q309 0 547 28l-2 -65q-315 -25 -518 -25q-375 0 -375 217v531h-461q-86 0 -162 -6v75q72 -8 162 -8h461v516h-318q-72 0 -170 -4v72q74 -6 170 -6h961q88 0 153 6v-72q-90 4 -153 4h-582v-516h762q84 0 141 6v-71q-78 4 -141 4
z" />
    <glyph glyph-name="Identity.521" unicode="&#x30e3;" 
d="M758 1206q9 -54 100 -387q734 137 780 149t62 21l41 -28q-61 -121 -197 -291t-241 -267l-62 33q109 90 223 226t178 249l-768 -149q215 -783 259 -897l-74 -23q-2 49 -26 129t-218 779l-450 -88l-19 67q53 4 152 23l303 55q-100 349 -119 379z" />
    <glyph glyph-name="Identity.522" unicode="&#x30e4;" 
d="M788 1057q266 -963 310 -1086l-76 -20q-14 91 -293 1093q-469 -92 -545 -110l-20 74q90 8 178 22l373 70q-87 314 -105 370t-37 89l78 20q2 -16 29 -131l94 -336q866 162 929 176t81 25l43 -29q-72 -143 -233 -343t-287 -312l-68 35q127 98 275 276t221 301
q-238 -43 -947 -184z" />
    <glyph glyph-name="Identity.523" unicode="&#x30e5;" 
d="M1618 133q57 0 123 4v-67q-33 2 -117 2h-1165q-49 0 -140 -4v71q68 -6 140 -6h821q25 131 66 424t43 373h-746q-39 0 -125 -4v73q86 -8 123 -8h719q39 0 51 6l53 -24q-8 -25 -26 -211t-95 -629h275z" />
    <glyph glyph-name="Identity.524" unicode="&#x30e6;" 
d="M1735 227q47 0 149 9v-76q-51 6 -149 6h-1399q-72 0 -158 -6v76q74 -8 158 -9h999q33 182 87 554t57 476h-906q-78 0 -159 -6v76q92 -10 157 -10h865q33 0 63 10l60 -24q-6 -14 -11 -41q-34 -337 -149 -1035h336z" />
    <glyph glyph-name="Identity.525" unicode="&#x30e7;" 
d="M1450 1085q24 0 56 1t40 1q-2 -16 -2 -69v-1014q0 -33 4 -82h-67q2 16 2 80v6h-871l-161 -4v76q66 -8 159 -8h873v456h-826q-78 0 -143 -4v74q106 -8 141 -8h828v434h-840l-166 -4v72q37 -6 166 -7h807z" />
    <glyph glyph-name="Identity.526" unicode="&#x30e8;" 
d="M1597 63v17h-1062q-84 0 -201 -6v76q78 -8 198 -9h1065v572h-1005q-94 0 -180 -4v75q86 -10 176 -10h1009v543h-1028q-119 0 -204 -6v75q57 -8 204 -8h981q53 0 111 4q-2 -23 -2 -79v-1235q0 -34 4 -95h-68q2 20 2 90z" />
    <glyph glyph-name="Identity.527" unicode="&#x30e9;" 
d="M1468 1470q92 0 150 9v-74q-43 4 -152 4h-823q-52 0 -154 -4v74q68 -8 154 -9h825zM473 954q-70 0 -162 -6v78q102 -10 162 -10h1145q56 0 76 10l51 -31q-14 -31 -16 -37q-80 -365 -295 -596q-154 -166 -332 -259t-402 -152l-49 59q449 88 731 391q100 109 173 259
t104 294h-1186z" />
    <glyph glyph-name="Identity.528" unicode="&#x30ea;" 
d="M1528 1368v-258q0 -391 -39 -554t-152 -306q-85 -114 -205 -182t-272 -121l-53 55q322 92 485 289q109 133 142 297t32 520v260q0 64 -8 150h76q-6 -66 -6 -150zM575 690q0 -96 7 -135h-76q8 53 8 135v676q0 76 -8 137h76q-6 -45 -7 -137v-676z" />
    <glyph glyph-name="Identity.529" unicode="&#x30eb;" 
d="M1126 121v1259q0 47 -6 127h74q-4 -27 -4 -127v-1292q182 86 375 240t313 336l39 -54q-131 -182 -317 -330t-386 -245q-28 -15 -53 -33l-45 39q10 41 10 80zM614 1386q0 61 -8 109h76q-6 -57 -6 -109q0 -629 -66 -860q-45 -156 -140 -297t-222 -239l-60 41
q266 193 365 516q61 201 61 839z" />
    <glyph glyph-name="Identity.530" unicode="&#x30ec;" 
d="M522 117v1231q0 86 -10 141h82q-10 -55 -10 -139v-1260q348 80 679 276t511 443l38 -53q-190 -248 -499 -435t-709 -290q-22 -7 -51 -17l-43 35q12 29 12 68z" />
    <glyph glyph-name="Identity.531" unicode="&#x30ed;" 
d="M403 131q0 -98 5 -123h-70q4 86 4 209v1018q0 78 -2 119q78 -4 149 -4h1072q109 0 157 4q-4 -39 -4 -119v-1016q0 -137 4 -211h-69q2 27 2 123h-1248zM1651 1288h-1248v-1098h1248v1098z" />
    <glyph glyph-name="Identity.532" unicode="&#x30ee;" 
d="M422 621v352q0 33 -4 90q37 -4 157 -4h957q35 0 53 8l45 -33q-8 -14 -12 -43q-55 -455 -207 -665q-229 -319 -625 -445l-55 56q383 98 619 411q158 215 202 651h-1069v-378l2 -78h-67q4 29 4 78z" />
    <glyph glyph-name="Identity.533" unicode="&#x30ef;" 
d="M383 1323v-479q0 -20 4 -94h-70q4 37 5 94v442q0 49 -7 103q45 -4 187 -5h1124q41 1 64 9l51 -33q-10 -16 -17 -53q-25 -181 -42 -281t-62 -244t-109 -245q-123 -195 -325 -345t-447 -223l-51 49q506 143 770 549q164 250 203 756h-1278z" />
    <glyph glyph-name="Identity.534" unicode="&#x30f0;" 
d="M1389 465h325q45 0 148 8v-74q-51 6 -148 7h-325v-244q0 -106 6 -195h-76q8 90 8 191v248h-967q-70 0 -159 -7v74q76 -8 159 -8h304v680h-228q-45 0 -160 -4v71q84 -6 160 -6h891v195q0 70 -8 129h76q-6 -74 -6 -129v-195h270q74 0 149 6v-71q-51 4 -149 4h-270v-680z
M725 465h602v680h-602v-680z" />
    <glyph glyph-name="Identity.535" unicode="&#x30f1;" 
d="M1020 182h709q47 0 153 8v-75q-53 6 -153 6h-1381q-74 0 -164 -6v75q76 -8 164 -8h610v834q0 29 -4 90h72q-6 -45 -6 -90v-834zM496 1352h1167q57 0 84 10l47 -37q-39 -51 -41 -53q-76 -125 -197 -260t-256 -240l-61 45q129 82 253 214t198 259h-1194l-195 -6v76
q119 -8 195 -8z" />
    <glyph glyph-name="Identity.536" unicode="&#x30f2;" 
d="M584 834q-12 0 -166 -7v76q102 -8 166 -8h997q63 221 90 455h-1118q-72 0 -188 -7v80q98 -12 188 -12h1077q41 0 64 6l57 -37q-14 -35 -18 -57q-84 -555 -234 -776t-349 -365q-200 -143 -476 -231l-53 59q530 127 829 572q57 88 113 252h-979z" />
    <glyph glyph-name="Identity.537" unicode="&#x30f3;" 
d="M342 63q455 72 852 332q201 135 368 332t253 381l38 -64q-243 -448 -629 -702t-841 -344zM436 1444q106 -70 268 -200t246 -212l-47 -47q-88 86 -245 216t-263 200z" />
    <glyph glyph-name="Identity.538" unicode="&#x30f4;" 
d="M1663 1671l53 27q113 -150 178 -279l-57 -28q-86 167 -174 280zM991 1241h561q78 0 111 12l45 -30q-10 -25 -25 -124t-69 -287t-137 -323q-238 -391 -785 -544l-53 59q55 8 133 33q188 53 369 183q180 130 271 280t148 346q56 195 66 334h-1272v-432q0 -59 6 -93h-73
q6 31 6 90v365q0 98 -6 139q98 -8 174 -8h469v225q0 61 -6 119h75q-8 -51 -8 -119v-225zM1669 1366l-57 -29q-68 141 -170 283l55 27q106 -148 172 -281z" />
    <glyph glyph-name="Identity.539" unicode="&#x30f5;" 
d="M979 1125q0 -78 -14 -216h516q29 0 84 6l43 -28q-4 -29 -9 -78q-12 -315 -42 -523t-64 -276q-45 -82 -157 -82t-267 13l-6 65q119 -18 280 -18q72 0 99 51q49 96 72 357q24 261 24 452h-580q-40 -362 -160 -576t-343 -366l-60 51q39 18 125 78q324 240 383 813h-352
q-113 0 -160 -4v74q90 -8 158 -9h358q8 88 8 175t-8 139h74q-2 -20 -2 -98z" />
    <glyph glyph-name="Identity.540" unicode="&#x30f6;" 
d="M1589 885q96 0 140 6v-72q-86 4 -140 4h-350q-37 -672 -514 -956l-70 47q63 20 138 80q362 279 385 829h-514q-56 -100 -140 -201t-151 -155l-62 37q154 106 310 366q74 125 97 224t25 131l78 -19q-23 -57 -30 -94q-46 -137 -93 -227h891z" />
    <glyph glyph-name="Identity.541" unicode="&#x30fb;" 
d="M850 778q0 72 51 123t123 51t123 -51t51 -123t-51 -123t-123 -51t-123 51t-51 123z" />
    <glyph glyph-name="Identity.542" unicode="&#x30fc;" 
d="M471 817h1145q127 0 201 8v-77q-104 6 -199 6h-1147q-164 0 -242 -6v77q98 -8 242 -8z" />
    <glyph glyph-name="Identity.543" unicode="&#x30fd;" 
d="M717 1137q176 -158 390 -397t355 -431l-57 -43q-131 198 -344 434t-399 396z" />
    <glyph glyph-name="Identity.544" unicode="&#x30fe;" 
d="M666 1133q176 -158 390 -397t355 -431l-57 -43q-131 198 -344 434t-400 396zM1415 1473q94 -131 193 -304l-64 -30q-113 211 -188 307zM1159 1389q86 -119 193 -306l-64 -30q-96 186 -188 309z" />
    <glyph glyph-name="Identity.545" unicode="&#x4e00;" 
d="M102 834h1854v-68h-1854v68z" />
    <glyph glyph-name="Identity.546" unicode="&#x4e01;" 
d="M1909 1481v-60h-795v-1413q0 -57 -22 -83t-73 -36q-52 -10 -454 -10q-10 31 -28 62q331 -10 409 -4t93 19t16 50v1415h-918v60h1772z" />
    <glyph glyph-name="Identity.547" unicode="&#x4e03;" 
d="M975 -4h643q98 0 129 62t43 268q23 -18 61 -31q-14 -215 -57 -287t-186 -71h-623q-152 0 -207 43t-55 172v743l-594 -100l-12 55l606 104v719h59v-708l1133 192l12 -57l-1145 -195v-758q0 -87 38 -119t155 -32z" />
    <glyph glyph-name="Identity.548" unicode="&#x4e07;" 
d="M1915 1473h-1092q-8 -315 -30 -506h913v-41q-28 -520 -62 -740t-92 -276q-44 -47 -162 -50t-337 15q-4 37 -21 62q164 -16 371 -17q74 -2 96 23q53 47 85 259t61 705h-861q-109 -786 -641 -1063q-4 4 -45 39q126 63 228 157t170 193q68 97 116 231q91 252 117 489
q25 237 33 520h-629v59h1782v-59z" />
    <glyph glyph-name="Identity.549" unicode="&#x4e08;" 
d="M1907 1212h-631q-12 -334 -68 -561t-196 -391q334 -274 934 -354q-20 -23 -35 -53q-602 82 -940 364q-244 -248 -770 -356q-8 23 -35 53q516 102 758 346q-309 285 -437 811l56 16q123 -508 422 -784q133 156 186 373t63 536h-1069v60h1072q4 127 4 401h61
q0 -274 -4 -401h629v-60z" />
    <glyph glyph-name="Identity.550" unicode="&#x4e09;" 
d="M139 90h1772v-59h-1772v59zM381 819h1257v-59h-1257v59zM260 1499h1536v-59h-1536v59z" />
    <glyph glyph-name="Identity.551" unicode="&#x4e0a;" 
d="M983 10h946v-59h-1808v59h803v1655h59v-676h809v-59h-809v-920z" />
    <glyph glyph-name="Identity.552" unicode="&#x4e0b;" 
d="M1929 1487h-913v-410l14 17q193 -92 412 -220t352 -221l-35 -53q-309 225 -743 442v-1185h-60v1630h-835v61h1808v-61z" />
    <glyph glyph-name="Identity.553" unicode="&#x4e0d;" 
d="M1169 1040l39 39q199 -115 406 -265t321 -265l-39 -45q-118 115 -326 268t-401 268zM1896 1489h-673q-66 -119 -172 -262v-1370h-60v1292q-358 -436 -837 -694q-4 4 -12 14q-7 10 -14 18t-13 15q324 172 599 434t439 553h-1001v59h1744v-59z" />
    <glyph glyph-name="Identity.554" unicode="&#x4e0e;" 
d="M1931 489v-59h-385q-68 -434 -172 -530q-49 -43 -151 -45q-174 0 -387 16q-4 37 -21 59q197 -18 397 -18q84 0 111 25q96 84 164 493h-1364v59h1372q25 166 49 379h-1001l-35 -123l-59 11q117 385 229 950l61 -8q-39 -182 -71 -322h1058v-59h-1073q-10 -47 -94 -387h1051
q-9 -136 -54 -441h375z" />
    <glyph glyph-name="Identity.555" unicode="&#x4e11;" 
d="M1931 762h-407q-35 -504 -64 -780h445v-60h-1762v60h406q55 297 119 780h-545v59h553q51 385 80 666h-471v61h1288q-29 -510 -45 -727h403v-59zM1509 1487h-694q-37 -332 -82 -666h735q25 347 41 666zM610 -18h787q35 313 67 780h-739q-68 -510 -115 -780z" />
    <glyph glyph-name="Identity.556" unicode="&#x4e14;" 
d="M1599 8h330v-59h-1808v59h338v1563h1140v-1563zM1540 526v471h-1022v-471h1022zM1540 1511h-1022v-454h1022v454zM518 467v-459h1022v459h-1022z" />
    <glyph glyph-name="Identity.557" unicode="&#x4e16;" 
d="M1604 414h-60v100h-497v-117h-62v711h-485v-1020h1370v-59h-1370v-174h-60v1253h-321v61h321v484h60v-484h485v529h62v-529h497v502h60v-502h331v-61h-331v-694zM1047 573h497v535h-497v-535z" />
    <glyph glyph-name="Identity.558" unicode="&#x4e18;" 
d="M1384 10h545v-59h-1808v59h340v1428l57 -21q772 119 1069 240l60 -47q-350 -135 -1127 -244v-426h1317v-61h-453v-869zM520 879v-869h805v869h-805z" />
    <glyph glyph-name="Identity.559" unicode="&#x4e19;" 
d="M1042 1487v-375h766v-1137q0 -49 -15 -71t-60 -33q-45 -10 -340 -10q-2 14 -27 65q355 -9 374 12q9 9 9 35v1080h-711q-6 -115 -28 -213q166 -129 339 -286t267 -269l-47 -39q-203 240 -576 540q-121 -356 -549 -575q-14 23 -41 47q342 165 462 391q105 197 116 404h-678
v-1198h-59v1257h739v375h-833v59h1753v-59h-861z" />
    <glyph glyph-name="Identity.560" unicode="&#x4e1e;" 
d="M1057 274q1 -45 -15 -65q-16 -19 -61 -31t-348 -12q-4 14 -27 61q358 -9 379 12q10 9 10 33v969h62v-12q248 127 452 311h-1132v59h1194l12 5l45 -31q-205 -205 -534 -383q76 -170 192 -328q283 186 490 393l51 -38q-223 -211 -510 -394q276 -348 633 -483
q-25 -18 -43 -47q-264 111 -492 340q-227 229 -358 516v-875zM176 -49v59h1692v-59h-1692zM147 1090v61h592l15 4l6 -4h4v-2l22 -14q-82 -283 -255 -498t-392 -346q-10 23 -41 47q203 110 368 306t245 446h-564z" />
    <glyph glyph-name="Identity.561" unicode="&#x4e21;" 
d="M1915 1487h-879v-348h768v-1176q0 -47 -13 -69t-54 -32q-41 -9 -318 -9q-16 41 -28 65q233 -6 285 -3t60 12q9 9 9 36v1114h-709v-762h357v541h61v-741h-61v141h-758v-152h-62v752h62v-541h340v762h-664v-1224h-59v1286h723v348h-840v61h1780v-61z" />
    <glyph glyph-name="Identity.562" unicode="&#x4e26;" 
d="M1477 252l-50 20q147 307 261 697l61 -23q-155 -465 -272 -694zM299 926l55 16q84 -156 149 -344t81 -328l-58 -12q-18 140 -82 326t-145 342zM1262 18h667v-59h-1808v59h649v1166h-584v61h1684v-61h-608v-1166zM829 1184v-1166h371v1166h-371zM750 1325l-56 -29
q-66 178 -227 377l49 25q164 -199 234 -373zM1522 1698l55 -27q-121 -231 -236 -389l-49 29q128 168 230 387z" />
    <glyph glyph-name="Identity.563" unicode="&#x4e2d;" 
d="M1049 1323h774v-899h-60v131h-714v-696h-60v696h-715v-141h-59v909h774v377h60v-377zM274 614h715v650h-715v-650zM1049 614h714v650h-714v-650z" />
    <glyph glyph-name="Identity.564" unicode="&#x4e32;" 
d="M1049 733h763v-602h-59v86h-704v-356h-60v356h-688v-92h-59v608h747v217h-670v502h670v250h60v-250h669v-502h-669v-217zM1659 1393h-610v-383h610v383zM379 1010h610v383h-610v-383zM301 276h688v398h-688v-398zM1049 276h704v398h-704v-398z" />
    <glyph glyph-name="Identity.565" unicode="&#x4e38;" 
d="M1591 -49h254q29 0 44 13q31 27 38 131q6 104 8 229q25 -18 60 -31q-6 -248 -32 -326t-116 -78h-256q-87 0 -115 28t-28 114v1159h-586q-20 -334 -92 -567q252 -174 389 -310l-49 -47q-131 137 -360 297q-168 -496 -623 -713q-14 20 -51 44q453 209 620 706
q-203 141 -422 254l45 39q188 -96 396 -234q68 223 88 531h-619v61h623q8 152 8 443h59q0 -291 -8 -443h641v-1222q1 -47 17 -63t67 -15z" />
    <glyph glyph-name="Identity.566" unicode="&#x4e39;" 
d="M1929 786v-59h-299v-750q0 -53 -17 -77t-67 -35q-50 -10 -379 -10q-16 41 -28 63q392 -9 419 14q13 12 13 43v752h-1084q-37 -582 -354 -883q-14 25 -43 45q307 287 338 838h-307v59h309q2 39 2 117v670h1198v-787h299zM1571 786v727h-1079v-610q-1 -78 -3 -117h1082z
M770 1319l47 37q287 -205 451 -393l-51 -45q-68 82 -196 196t-251 205z" />
    <glyph glyph-name="Identity.567" unicode="&#x4e3b;" 
d="M1053 -10h880v-60h-1806v60h866v612h-684v60h684v546h-764v60h1598v-60h-774v-546h702v-60h-702v-612zM1233 1331l-47 -33q-127 168 -361 353l45 30q232 -176 363 -350z" />
    <glyph glyph-name="Identity.568" unicode="&#x4e43;" 
d="M678 1481v-172q0 -152 -7 -270q-7 -117 -38 -285t-85 -306t-156 -298q-102 -158 -245 -293q-27 27 -49 39q138 134 240 288t155 289q52 135 81 298q30 163 37 276t7 260v174h-419v61h1210q-46 -395 -66 -538h531q-2 -31 -2 -41q-33 -535 -68 -761t-94 -286
q-43 -47 -137 -49q-188 0 -361 14q-8 39 -22 62q166 -16 371 -17q72 -2 98 25q53 49 87 269t62 724h-473q-14 -96 -24 -156l-60 7q47 262 90 686h-663z" />
    <glyph glyph-name="Identity.569" unicode="&#x4e45;" 
d="M1296 1350l37 -21q-61 -266 -178 -502q113 -313 327 -563t474 -358q-29 -25 -45 -51q-254 117 -462 359t-327 546q-326 -612 -962 -916q-25 37 -45 52q407 182 711 532t431 858h-632q-209 -399 -484 -641q-14 18 -51 41q207 176 373 439t270 573l62 -12
q-72 -199 -142 -340h629z" />
    <glyph glyph-name="Identity.570" unicode="&#x4e4b;" 
d="M1427 -47h527q-25 -33 -29 -62h-498q-403 -1 -640 91t-365 350q-135 -266 -279 -473l-57 26q106 139 214 336t171 361l55 -27q-23 -59 -69 -156q53 -131 153 -227q295 170 608 467q312 297 496 569h-1505v62h780v426h62v-426h706l15 4l43 -29q-184 -291 -513 -607
t-647 -507q129 -100 317 -139t455 -39z" />
    <glyph glyph-name="Identity.571" unicode="&#x4e4d;" 
d="M1911 1272h-983v-379h876v-59h-876v-396h897v-59h-897v-524h-60v1417h-336q-174 -276 -376 -463q-10 10 -54 41q176 152 332 379t260 481l58 -16q-76 -186 -181 -363h1340v-59z" />
    <glyph glyph-name="Identity.572" unicode="&#x4e4e;" 
d="M1438 842l-47 26q152 242 256 510l61 -28q-159 -338 -270 -508zM383 1331l57 17q164 -279 217 -484l-57 -20q-61 217 -217 487zM1923 719v-60h-856v-690q0 -53 -19 -78q-18 -25 -64 -35t-400 -10q-12 33 -27 62q254 -8 389 -2q35 4 48 16t14 45v692h-881v60h881v770
q-352 -33 -723 -43q0 14 -15 53q1016 39 1407 152l39 -52q-225 -63 -649 -104v-776h856z" />
    <glyph glyph-name="Identity.573" unicode="&#x4e4f;" 
d="M1368 -51h596q-20 -27 -29 -62h-563q-389 0 -605 78t-339 299q-119 -215 -250 -391l-55 31q90 110 184 268t154 291l53 -29q-18 -43 -53 -108q47 -100 119 -172q288 131 586 364t474 457h-1394v61h739v443q-379 -35 -741 -47q-2 20 -17 53q1051 45 1493 155l54 -51
q-260 -59 -727 -104v-449h641l14 4l45 -28q-181 -246 -495 -498t-627 -399q119 -94 297 -130t446 -36z" />
    <glyph glyph-name="Identity.574" unicode="&#x4e57;" 
d="M1862 444h-732q146 -150 370 -278t448 -195q-18 -12 -41 -49q-229 76 -468 219t-382 303h-6v-594h-62v594h-2q-143 -154 -380 -290t-464 -211q-16 27 -43 49q212 63 438 187t371 265h-702v60h336v315h-422v60h422v307h-322v61h768v252q-342 -29 -713 -43q0 29 -14 53
q995 43 1409 146l49 -51q-240 -57 -669 -99v-258h798v-61h-338v-307h418v-60h-418v-315h351v-60zM1452 504v315h-401v-315h401zM1452 1186h-401v-307h401v307zM602 1186v-307h387v307h-387zM602 819v-315h387v315h-387z" />
    <glyph glyph-name="Identity.575" unicode="&#x4e59;" 
d="M535 -10h1085q119 0 156 79t47 337q20 -12 63 -23q-16 -281 -64 -367t-198 -86h-1073q-352 0 -352 205q1 59 31 119t145 196q223 263 1091 1004h-1271v59h1353l15 7l43 -27q-4 -4 -19 -12q-910 -777 -1138 -1039q-121 -137 -155 -196t-34 -109q0 -71 77 -109t198 -38z
" />
    <glyph glyph-name="Identity.576" unicode="&#x4e5d;" 
d="M1552 -51h283q49 0 63 51t19 231q25 -18 59 -30q-4 -190 -30 -252q-27 -61 -111 -62h-281q-88 0 -120 27t-31 109v1069h-569q-27 -409 -172 -732t-519 -503q-14 18 -51 45q364 168 517 494q75 161 112 325t53 371h-596v61h600q10 174 10 530h62q0 -324 -12 -530h626
v-1133q0 -43 16 -57t72 -14z" />
    <glyph glyph-name="Identity.577" unicode="&#x4e5e;" 
d="M606 -113q-291 0 -291 162q0 45 25 90t118 141q190 195 908 674h-983v60h1069v-4l6 4h10l15 4l45 -27q-4 -6 -21 -14q-855 -577 -1038 -771q-63 -66 -77 -96t-15 -59q0 -104 217 -104l1075 -2q94 0 124 59t38 262q27 -16 61 -24q-14 -226 -55 -290t-168 -65h-1063z
M1884 1362h-1392q-156 -242 -345 -404q-31 25 -55 41q158 127 293 311t219 394l60 -16q-51 -129 -136 -267h1356v-59z" />
    <glyph glyph-name="Identity.578" unicode="&#x4e5f;" 
d="M793 -43h823q145 0 191 78t65 325q31 -18 61 -28q-19 -262 -79 -348t-252 -86h-797q-190 0 -259 50t-69 202v741l-381 -115l-18 51l399 121v615h60v-596l534 161v570h59v-551l572 174l24 20l43 -20l-6 -16q-10 -602 -73 -766q-47 -123 -160 -127q-160 0 -227 4
q-4 29 -21 59q86 -6 236 -6q44 0 72 20t50 82q55 147 62 691l-572 -172v-820h-59v801l-534 -160v-768q0 -109 52 -147t204 -39z" />
    <glyph glyph-name="Identity.579" unicode="&#x4e71;" 
d="M1456 -51h322q66 0 85 74t27 317q27 -20 56 -27q-8 -256 -38 -337t-132 -80h-316q-106 0 -140 32t-34 142v1611h60v-1615q0 -72 20 -94t90 -23zM664 1118h495v-59h-495v-416h385v-747h-60v106h-706v-113h-60v754h381v416h-504v59h504v385q-156 -29 -442 -61q-4 14 -23 51
q659 78 901 178l58 -47q-139 -58 -434 -111v-395zM989 61v523h-706v-523h706z" />
    <glyph glyph-name="Identity.580" unicode="&#x4e73;" 
d="M1395 -47h374q76 0 97 72q20 72 30 319q25 -20 58 -29q-10 -253 -42 -335t-145 -82h-368q-113 0 -152 36t-39 146v1591h62v-1595q0 -78 23 -101q24 -22 102 -22zM635 -41q0 -41 -11 -60t-44 -27t-263 -9q-2 12 -26 59q199 -4 235 -1t41 10q6 7 6 26v481
q-285 -29 -473 -47l-10 72q178 14 483 41v215h48q180 104 315 237h-756v60h813l17 4l47 -31q-164 -178 -422 -321v-158q211 18 500 47v-65q-315 -31 -500 -48v-485zM319 1110l-61 -18q-18 141 -96 297l55 16q79 -141 102 -295zM633 1155l-62 -10q-4 139 -53 309l55 10
q54 -168 60 -309zM834 1047l-48 24q131 172 238 399l57 -30q-132 -246 -247 -393zM1010 1692l43 -52q-293 -109 -940 -157q-2 18 -21 55q668 62 918 154z" />
    <glyph glyph-name="Identity.581" unicode="&#x4e7e;" 
d="M1268 -51h530q57 0 74 55q16 55 20 264q31 -16 64 -24q-6 -164 -22 -238t-44 -98q-29 -24 -92 -23h-524q-199 0 -199 127q0 50 24 106t162 249t404 512h-563v61h627l16 2l43 -16q-8 -12 -150 -184t-287 -370q-146 -198 -176 -256t-30 -100q0 -67 123 -67zM602 537v-230
h424v-59h-424v-391h-59v391h-441v59h441v230h-328v630h328v228h-416v61h416v246h59v-246h402v-61h-402v-228h338v-630h-338zM274 1106v-223h605v223h-605zM274 823v-227h605v227h-605zM1952 1321h-731q-98 -211 -199 -336q-12 12 -55 37q209 248 321 680l64 -12
q-51 -174 -107 -310h707v-59z" />
    <glyph glyph-name="Identity.582" unicode="&#x4e80;" 
d="M1204 -72h549q71 0 93 43t30 187q27 -20 61 -27q-10 -158 -45 -211t-145 -53h-537q-133 0 -180 35t-47 139v63h-651v-122h-62v686h713v125h-627v497q-90 -68 -209 -131q-20 20 -45 35q192 100 342 238t234 270l67 -12q-41 -59 -86 -115h549l13 4l6 -4h4v-2l33 -21
q-49 -98 -142 -209h568v-550h-646v-125h754v-564h-754v-65q0 -67 31 -89t129 -22zM1630 854v186h-586v-186h586zM1630 1100v182h-586v-182h586zM983 1100v182h-567v-182h567zM1169 1516h-561q-88 -96 -182 -173h616q76 81 127 173zM416 854h567v186h-567v-186zM1044 166h695
v192h-695v-192zM1739 608h-695v-190h695v190zM983 608h-651v-190h651v190zM332 166h651v192h-651v-192z" />
    <glyph glyph-name="Identity.583" unicode="&#x4e86;" 
d="M1049 -33q1 -51 -17 -73t-64 -30q-46 -9 -401 -9q-2 12 -26 59q315 -6 369 -2t66 15q11 11 11 40v1039h62v-2q165 88 335 214t283 246h-1470v60h1523l15 4l45 -31q-129 -149 -331 -301t-400 -254v-975z" />
    <glyph glyph-name="Identity.584" unicode="&#x4e88;" 
d="M1065 893v-920q0 -45 -15 -65q-14 -20 -58 -30t-337 -11q-2 12 -24 59q343 -9 364 12q10 9 11 33v922h-883v59h1161q-336 199 -700 369l39 41q207 -94 413 -205q301 160 533 377h-1260v59h1319l14 4l48 -32q-221 -223 -592 -439q182 -96 266 -147l-18 -27h520l16 4
l43 -24q-268 -354 -403 -467l-45 33q164 139 344 395h-756z" />
    <glyph glyph-name="Identity.585" unicode="&#x4e89;" 
d="M1952 795v-60h-228v-514h-59v129h-625v-383q0 -49 -17 -71t-65 -31q-48 -10 -346 -10q-10 27 -30 61q227 -8 346 -2q31 4 41 14t10 37v385h-698v60h698v325h-873v60h873v307h-610v61h610q139 123 258 307h-592q-201 -238 -432 -389q-23 27 -49 43q188 117 338 276
t235 308l72 -12q-49 -80 -117 -166h584l12 4l45 -31q-106 -182 -278 -340h669v-368h228zM1040 1102v-307h625v307h-625zM1665 410v325h-625v-325h625z" />
    <glyph glyph-name="Identity.586" unicode="&#x4e8b;" 
d="M1937 512v-59h-213v-369h-59v96h-616v-213q1 -51 -17 -73t-61 -34q-43 -11 -318 -12q-4 23 -26 66q328 -9 351 12q11 10 11 39v215h-706v60h706v213h-868v59h868v201h-684v59h684v199h-618v315h618v162h-837v59h837v195h60v-195h856v-59h-856v-162h647v-315h-647v-199
h675v-260h213zM1636 1227h-587v-197h587v197zM430 1030h559v197h-559v-197zM1049 713v-201h616v201h-616zM1665 240v213h-616v-213h616z" />
    <glyph glyph-name="Identity.587" unicode="&#x4e8c;" 
d="M121 154h1808v-60h-1808v60zM297 1397h1456v-60h-1456v60z" />
    <glyph glyph-name="Identity.588" unicode="&#x4e91;" 
d="M1921 827h-1034q-199 -498 -355 -780q424 12 1172 39q-184 258 -385 463l51 26q156 -155 308 -351t227 -339l-52 -35q-37 70 -112 183q-1085 -45 -1610 -62l-8 66q246 4 346 8q190 344 348 782h-686v60h1790v-60zM1708 1522v-60h-1364v60h1364z" />
    <glyph glyph-name="Identity.589" unicode="&#x4e92;" 
d="M193 1487v61h1673v-61h-1135q-12 -68 -69 -369h872q-76 -744 -135 -1106h530v-59h-1808v59h1216q25 147 60 426h-881l-29 -114l-59 10q121 463 244 1153h-479zM530 498h875q37 291 63 561h-819q-56 -276 -119 -561z" />
    <glyph glyph-name="Identity.590" unicode="&#x4e94;" 
d="M1571 43h358v-61h-1808v61h481q84 342 170 780h-418v60h428q49 248 103 547h-623v59h1510v-59h-826q-76 -412 -102 -547h727v-840zM1509 823h-678q-102 -514 -163 -780h841v780z" />
    <glyph glyph-name="Identity.591" unicode="&#x4e95;" 
d="M1907 608v-59h-480v-692h-59v692h-702q-20 -147 -68 -267t-145 -238q-98 -118 -248 -210q-12 20 -41 43q379 238 440 672h-459v59h467q12 106 13 273v303h-408v59h408v447h59v-447h684v447h59v-447h437v-59h-437v-576h480zM1368 608v576h-684v-303q0 -167 -12 -273h696z
" />
    <glyph glyph-name="Identity.592" unicode="&#x4e98;" 
d="M438 1239h1186v-956h-1186v956zM498 1178v-385h1067v385h-1067zM498 733v-389h1067v389h-1067zM121 4h1808v-59h-1808v59zM180 1550h1692v-61h-1692v61z" />
    <glyph glyph-name="Identity.593" unicode="&#x4e99;" 
d="M823 883l43 41q252 -113 400 -252l-45 -45q-61 59 -174 132t-224 124zM709 502l41 43q135 -59 272 -141t211 -148l-43 -49q-76 70 -212 154t-269 141zM1929 12v-59h-1808v59h1206q88 469 162 1067h-793q-150 -602 -217 -827l-61 6q152 494 313 1225h-538v61h1673v-61
h-1075q-10 -41 -37 -158t-43 -184h848q-84 -652 -170 -1129h540z" />
    <glyph glyph-name="Identity.594" unicode="&#x4e9b;" 
d="M135 -86v59h1780v-59h-1780zM262 1460h60v-719l247 33v926h60v-393h381v-60h-381v-465l391 54l2 -58q-516 -71 -905 -129l-8 64l153 20v727zM358 379v59h1364v-59h-1364zM1763 711h-417q-117 -1 -157 27t-40 114v848h59v-455q385 137 543 252l61 -43q-209 -129 -604 -266
v-338q0 -48 25 -64t106 -16h424q72 0 92 52t29 243q25 -18 60 -29q-10 -201 -42 -263t-139 -62z" />
    <glyph glyph-name="Identity.595" unicode="&#x4e9c;" 
d="M1282 10h647v-59h-1808v59h616v447h-405v-95h-62v773h467v354h-553v61h1684v-61h-586v-354h485v-766h-61v88h-424v-447zM1706 1073h-424v-553h424v553zM1223 520v553h-426v-553h426zM797 1489v-354h426v354h-426zM332 520h405v553h-405v-553zM797 457v-447h426v447h-426z
" />
    <glyph glyph-name="Identity.596" unicode="&#x4ea1;" 
d="M1931 1219h-1493v-1029q0 -102 58 -148t194 -46h897q188 0 273 14q8 -45 14 -61q-51 -12 -283 -12h-893q-168 0 -244 59t-77 197v1026h-262v59h878v424h62v-424h876v-59z" />
    <glyph glyph-name="Identity.597" unicode="&#x4ea4;" 
d="M1374 883l62 -19q-123 -336 -363 -559q346 -299 885 -391q-18 -18 -43 -57q-541 102 -889 405q-317 -272 -885 -416q-8 23 -41 60q563 127 881 399q-236 229 -356 545l55 20q115 -305 348 -524q227 213 346 537zM696 1233l60 -21q-205 -289 -578 -520q-20 31 -43 53
q163 91 315 221t246 267zM1311 1190l49 37q158 -101 318 -235t245 -236l-49 -45q-86 103 -246 239t-317 240zM1915 1403v-60h-1780v60h854v299h62v-299h864z" />
    <glyph glyph-name="Identity.598" unicode="&#x4ea5;" 
d="M1055 1399h868v-60h-911l16 -10q-197 -227 -461 -444q182 -133 277 -232q344 219 534 494l54 -29q-186 -262 -506 -478t-699 -337q-29 41 -41 51q324 98 607 269q-188 193 -484 374l39 35q90 -55 174 -114q240 195 432 421h-821v60h860v305h62v-305zM1681 862l52 -31
q-182 -276 -492 -501q172 -100 351 -224t286 -212l-47 -41q-236 201 -639 444q-438 -303 -1034 -449q-16 33 -37 54q527 124 931 374t629 586z" />
    <glyph glyph-name="Identity.599" unicode="&#x4ea6;" 
d="M1536 971l49 20q119 -145 224 -326t149 -311l-55 -24q-41 129 -146 310q-104 181 -221 331zM1915 1253h-574v-1286q0 -49 -16 -71t-61 -31q-45 -10 -328 -10q-16 41 -29 63q247 -6 301 -3t63 12t9 38v1288h-446v-274q0 -127 -8 -227t-40 -232q-31 -132 -85 -238
q-54 -108 -154 -225t-240 -215q-8 12 -43 41q135 94 233 209q97 115 149 218q52 104 82 232t37 221t7 216v274h-637v60h856v387h62v-387h862v-60zM467 997l59 -14q-137 -375 -397 -618l-23 16q-23 14 -32 18q258 223 393 598z" />
    <glyph glyph-name="Identity.600" unicode="&#x4ea8;" 
d="M1053 1485h860v-60h-1780v60h858v219h62v-219zM438 1255h1194v-411h-1194v411zM1573 903v291h-1075v-291h1075zM1067 -55q0 -41 -14 -59q-13 -18 -61 -30q-48 -11 -376 -8q-6 20 -26 54q301 -6 349 -2t57 12t10 33v448h45q346 80 573 205h-1409v61h1501l17 5l51 -39
q-131 -88 -326 -164t-391 -121v-395z" />
    <glyph glyph-name="Identity.601" unicode="&#x4eab;" 
d="M1931 336v-62h-878v-329q1 -39 -13 -57t-51 -28q-37 -9 -334 -10q-4 16 -24 54q331 -9 352 9q8 7 8 30v331h-868v62h868v156h53q307 70 525 172h-1262v59h1360l14 4l52 -37q-250 -158 -680 -250v-104h878zM1645 889h-1231v377h1231v-377zM473 1204v-254h1110v254h-1110z
M1913 1495v-59h-1780v59h858v209h62v-209h860z" />
    <glyph glyph-name="Identity.602" unicode="&#x4eac;" 
d="M1051 1423h858v-59h-1762v59h842v281h62v-281zM1442 383l51 27q260 -246 410 -449l-54 -35q-153 215 -407 457zM1655 573h-604v-616q-1 -43 -15 -62t-61 -31t-350 -7q-14 33 -27 55q360 -9 382 10q9 8 9 33v618h-571v557h1237v-557zM477 1069v-434h1116v434h-1116z
M532 416l62 -21q-70 -121 -184 -247t-234 -211q-16 25 -45 36q119 86 231 208t170 235z" />
    <glyph glyph-name="Identity.603" unicode="&#x4ead;" 
d="M1053 1501h862v-59h-1780v59h856v211h62v-211zM424 1282h1212v-381h-1212v381zM1575 963v260h-1092v-260h1092zM184 354v379h1692v-379h-59v318h-1571v-318h-62zM385 412v59h1303v-59h-637v-461q-1 -43 -15 -61t-55 -28q-41 -9 -367 -9q-4 18 -26 55q291 -6 337 -2t55 12
t9 31v463h-604z" />
    <glyph glyph-name="Identity.604" unicode="&#x4eae;" 
d="M1401 -84h358q61 0 80 48q18 48 25 226q20 -20 55 -24q-8 -188 -37 -246t-119 -57h-360q-106 1 -142 23t-36 94v530h59v-530q0 -40 22 -52t95 -12zM709 516h63q-31 -299 -167 -447t-466 -219q-8 20 -35 48q319 61 448 200q128 139 157 418zM426 1276h1212v-393h-1212v393
zM1577 944v273h-1092v-273h1092zM1876 377h-59v278h-1571v-278h-62v338h1692v-338zM1915 1501v-59h-1780v59h856v211h62v-211h862z" />
    <glyph glyph-name="Identity.605" unicode="&#x4eba;" 
d="M983 1624h61l-4 -68q42 -504 237 -918q73 -155 164 -281q91 -125 228 -243t301 -192q-23 -16 -47 -49q-311 143 -501 405t-279 525q-90 264 -125 489q-37 -309 -149 -598q-67 -172 -159 -315t-240 -279t-335 -225q-12 18 -43 43q834 389 891 1690v16z" />
    <glyph glyph-name="Identity.606" unicode="&#x4ec0;" 
d="M1944 963v-60h-603v-1048h-59v1048h-623v60h623v727h59v-727h603zM496 -141h-60v1271q-141 -209 -295 -366q-16 25 -45 49q170 159 321 393t247 488l59 -17q-90 -227 -227 -452v-1366z" />
    <glyph glyph-name="Identity.607" unicode="&#x4ec1;" 
d="M643 90h1276v-59h-1276v59zM479 -139h-59v1243q-127 -193 -264 -334q-14 20 -47 49q164 159 309 391t241 488l60 -15q-104 -266 -240 -485v-1337zM1819 1333v-59h-1051v59h1051z" />
    <glyph glyph-name="Identity.608" unicode="&#x4ec7;" 
d="M1694 -63h92q44 0 66 13q22 14 30 72t8 240q27 -23 56 -29q0 -197 -14 -257t-48 -78q-35 -18 -92 -19h-100q-57 0 -95 23q-20 14 -27 49t-7 139v1047h-457q-40 -723 -283 -1053q-100 -137 -243 -231q-18 18 -52 34q282 184 390 507t131 743h-418v59h420q8 166 8 506h59
q0 -285 -8 -506h512v-1135q0 -104 20 -114t52 -10zM444 -147h-59v1259q-109 -180 -240 -328q-31 37 -45 50q150 160 282 388t216 476l59 -17q-94 -258 -213 -464v-1364z" />
    <glyph glyph-name="Identity.609" unicode="&#x4eca;" 
d="M979 1698h57q156 -218 416 -450t506 -378q-23 -16 -43 -49q-248 152 -502 380t-399 433q-125 -201 -370 -434t-511 -399q-10 18 -39 47q270 164 515 400t370 450zM567 1034h922v-61h-922v61zM319 592v61h1293l12 6l45 -18q-203 -436 -395 -795l-57 19q166 303 362 727
h-1260z" />
    <glyph glyph-name="Identity.610" unicode="&#x4ecb;" 
d="M612 1001h60v-319q0 -127 -14 -223t-60 -210q-90 -227 -391 -396q-10 16 -41 43q330 183 406 459q40 140 40 327v319zM1368 1008h59v-1147h-59v1147zM1016 1634q-125 -217 -366 -447t-507 -386q-10 18 -39 47q272 154 513 386t364 464h57q152 -238 408 -466t506 -362
q-14 -12 -41 -49q-252 141 -500 363t-395 450z" />
    <glyph glyph-name="Identity.611" unicode="&#x4ecf;" 
d="M1995 -121l-56 -24q-35 111 -96 251q-1167 -111 -1249 -118l-14 65l221 17q106 306 228 756t200 812l59 -14q-209 -905 -428 -1548q348 29 961 84q-139 315 -305 596l51 18q129 -217 251 -472t177 -423zM479 -139h-59v1267q-147 -213 -316 -370q-23 27 -45 47
q179 159 339 393t264 488l55 -15q-94 -229 -238 -454v-1356z" />
    <glyph glyph-name="Identity.612" unicode="&#x4ed4;" 
d="M1962 799v-60h-653v-768q-1 -49 -17 -71t-64 -31q-48 -10 -360 -10q-14 37 -28 61q375 -9 398 12q11 10 11 37v770h-680v60h680v317h45q279 166 467 377h-995v61h1051l14 5l45 -29q-102 -123 -259 -249t-308 -214v-268h653zM479 -139h-59v1269q-147 -213 -318 -372
q-23 27 -45 47q178 159 338 393t264 488l56 -15q-100 -240 -236 -452v-1358z" />
    <glyph glyph-name="Identity.613" unicode="&#x4ed5;" 
d="M1964 961h-659v-955h628v-59h-1267v59h579v955h-627v59h627v653h60v-653h659v-59zM479 -141h-59v1276q-147 -213 -316 -371q-18 29 -45 47q178 159 338 393t262 488l58 -17q-102 -238 -238 -450v-1366z" />
    <glyph glyph-name="Identity.614" unicode="&#x4ed6;" 
d="M1077 -63h639q96 0 127 59t43 254q35 -23 62 -29q-14 -207 -56 -275t-184 -67h-621q-151 0 -205 41t-55 166v770l-245 -96l-23 57l268 105v598h60v-576l407 158v598h60v-576l432 166l10 10l12 15l43 -23l-4 -14q0 -698 -32 -819q-29 -105 -126 -109t-190 0q-6 29 -22 60
q35 -2 188 -2q37 0 57 14t33 61q33 104 33 744l-434 -168v-776h-60v753l-407 -157v-795q-1 -86 37 -116t153 -31zM428 -141h-59v1271q-129 -199 -277 -350q-18 29 -45 47q163 157 309 387t240 478l57 -17q-102 -252 -225 -450v-1366z" />
    <glyph glyph-name="Identity.615" unicode="&#x4ed8;" 
d="M1245 365l-53 -37q-125 233 -332 532l49 27q217 -309 336 -522zM1925 1231v-60h-291v-1194q0 -57 -20 -81t-76 -37q-56 -12 -391 -9q-8 25 -29 64q252 -8 395 -2q35 4 49 16q13 12 13 47v1196h-881v60h881v444h59v-444h291zM479 -141h-59v1237q-135 -201 -273 -340
q-27 31 -47 49q168 160 316 392q147 232 243 486l60 -14q-104 -264 -240 -479v-1331z" />
    <glyph glyph-name="Identity.616" unicode="&#x4ed9;" 
d="M1802 1130h62v-1239h-62v172h-1018v-190h-59v1257h59v-1007h469v1517h60v-1517h489v1007zM444 -139h-61v1276q-135 -201 -283 -349q-37 43 -45 52q164 156 313 382q148 226 244 472l60 -17q-94 -231 -228 -446v-1370z" />
    <glyph glyph-name="Identity.617" unicode="&#x4edd;" 
d="M979 1704h59q156 -242 422 -495t518 -408q-18 -16 -45 -51q-256 166 -514 412t-403 474q-127 -223 -376 -476t-521 -429q0 2 -41 47q276 176 526 433t375 493zM1055 672v-695h768v-61h-1606v61h776v695h-606v61h1282v-61h-614z" />
    <glyph glyph-name="Identity.618" unicode="&#x4ee3;" 
d="M1933 1079l-655 -75q141 -1061 524 -1086q97 -4 137 385q25 -16 54 -24q-27 -231 -71 -331t-120 -95q-438 23 -579 1142l-584 -67l-8 55l583 70q-31 289 -49 620h60q14 -315 47 -612l651 76zM506 -143h-60v1267q-150 -205 -337 -370q-20 31 -43 47q190 158 358 388
t274 484l58 -16q-106 -242 -250 -449v-1351zM1886 1298l-43 -36q-145 160 -383 333l39 33q233 -164 387 -330z" />
    <glyph glyph-name="Identity.619" unicode="&#x4ee4;" 
d="M981 1700h57q158 -209 418 -422t504 -340q-27 -27 -41 -51q-248 137 -501 346t-402 405q-129 -194 -373 -408t-508 -362q-25 31 -39 45q270 147 514 365t371 422zM588 1081h878v-59h-878v59zM1696 702v-604q0 -64 -50 -78t-300 -14q-4 16 -27 57q229 -4 265 -1
q36 4 44 10t8 26v545h-698v-788h-61v788h-605v59h1424z" />
    <glyph glyph-name="Identity.620" unicode="&#x4ee5;" 
d="M1640 1608l62 -9q-88 -733 -293 -1095q362 -344 561 -600l-53 -39q-84 113 -237 279t-300 311q-248 -399 -784 -607q-23 27 -49 48q438 154 684 446q221 262 329 751q47 218 80 515zM94 127l289 127l-25 1350l58 2l26 -1325q50 23 228 103t276 126l12 -57
q-555 -256 -839 -383zM1155 944l-55 -29q-41 103 -132 243t-192 251l49 25q103 -110 195 -248t135 -242z" />
    <glyph glyph-name="Identity.621" unicode="&#x4eee;" 
d="M883 971v-31q0 -737 -246 -1090q-23 20 -53 31q100 143 157 346t70 359q12 156 12 354v651h1100v-59h-1040v-500h942l14 4l37 -20q-113 -459 -408 -766q225 -236 508 -340q-20 -18 -43 -49q-279 111 -506 348q-225 -221 -542 -354q-27 37 -43 49q317 125 544 348
q-262 299 -399 719h-104zM1798 971h-751q129 -395 380 -678q267 283 371 678zM444 -139h-61v1276q-135 -201 -283 -349q-37 43 -45 52q164 156 313 382q148 226 244 472l60 -17q-94 -231 -228 -446v-1370z" />
    <glyph glyph-name="Identity.622" unicode="&#x4ef0;" 
d="M1896 1497v-1167q0 -44 -13 -64t-54 -31t-303 -12q-8 35 -27 62q308 -9 329 10q9 8 9 33v1110h-477v-1583h-62v1642h598zM608 242l135 34v1160l52 -19q239 133 370 262l66 -39q-172 -137 -428 -276v-1071q365 106 418 121l8 -54q-47 -14 -596 -182zM430 -139h-59v1278
q-137 -201 -285 -351q-37 43 -45 52q166 156 314 382q149 226 243 472l59 -17q-94 -231 -227 -446v-1370z" />
    <glyph glyph-name="Identity.623" unicode="&#x4ef2;" 
d="M1313 1266h590v-856h-60v127h-530v-678h-60v678h-514v-136h-59v865h573v415h60v-415zM739 596h514v610h-514v-610zM1313 596h530v610h-530v-610zM440 -143h-59v1269q-113 -193 -242 -338q-31 37 -45 50q147 158 277 386q129 228 215 478l57 -14q-80 -229 -203 -457v-1374
z" />
    <glyph glyph-name="Identity.624" unicode="&#x4ef6;" 
d="M1923 647v-59h-592v-735h-59v735h-623v59h623v551h-400q-76 -219 -167 -358q-29 23 -52 37q180 250 260 731l60 -11q-37 -193 -82 -340h381v420h59v-420h510v-59h-510v-551h592zM451 -141h-60v1263q-113 -186 -252 -342q-12 20 -45 47q152 159 286 389t222 478l57 -17
q-84 -236 -208 -452v-1366z" />
    <glyph glyph-name="Identity.625" unicode="&#x4efb;" 
d="M1958 743h-647v-739h604v-59h-1249v59h585v739h-659v60h659v633q-252 -47 -563 -86q-4 18 -20 49q807 113 1124 229l49 -51q-213 -72 -530 -129v-645h647v-60zM481 -145h-61v1294q-152 -219 -316 -373q-16 25 -45 49q180 163 339 395t261 486l58 -16q-111 -256 -236 -449
v-1386z" />
    <glyph glyph-name="Identity.626" unicode="&#x4f01;" 
d="M981 1702h57q154 -233 411 -470t505 -380q-29 -25 -43 -49q-250 152 -500 383t-395 452q-123 -212 -366 -452t-507 -404q-12 18 -39 45q270 164 512 406t365 469zM1067 590v-613h834v-59h-1743v59h297v807h59v-807h492v1192h61v-518h635v-61h-635z" />
    <glyph glyph-name="Identity.627" unicode="&#x4f0a;" 
d="M1948 1053v-60h-176v-618h-60v119h-557q-96 -430 -551 -639q-14 25 -37 51q436 188 525 588h-412v59h424q20 119 20 309v131h-567v60h567v436h-407v59h1055v-495h176zM1184 1489v-436h528v436h-528zM1712 553v440h-528v-129q0 -193 -21 -311h549zM444 -145h-59v1282
q-135 -201 -283 -349q-33 39 -47 50q166 156 315 383q148 227 242 473l60 -17q-90 -221 -228 -448v-1374z" />
    <glyph glyph-name="Identity.628" unicode="&#x4f0d;" 
d="M1737 12h223v-59h-1376v59h331q68 299 158 813h-383v60h393q51 297 95 579h-490v60h1194v-60h-643q-43 -283 -94 -579h592v-873zM1675 825h-540q-80 -457 -154 -813h694v813zM449 -143h-62v1284q-137 -221 -295 -385q-16 25 -43 47q162 160 305 393q144 233 236 487
l59 -14q-86 -221 -200 -426v-1386z" />
    <glyph glyph-name="Identity.629" unicode="&#x4f0e;" 
d="M637 840v59h606v391h-639v62h639v350h60v-350h649v-62h-649v-391h485l14 4l37 -24q-150 -399 -508 -672q279 -219 643 -311q-25 -18 -43 -52q-367 98 -647 328q-293 -205 -696 -317q-25 37 -39 49q395 106 688 307q-281 250 -422 598l53 20q141 -346 418 -583
q328 246 469 594h-1118zM446 -139h-61v1296q-133 -205 -293 -369q-37 43 -45 52q164 156 309 382q146 226 240 472l59 -17q-96 -233 -209 -420v-1396z" />
    <glyph glyph-name="Identity.630" unicode="&#x4f0f;" 
d="M1935 1001h-626q156 -856 645 -1095q-29 -25 -45 -51q-473 256 -639 1044q-88 -662 -627 -1040q-18 23 -49 43q332 227 476 537q121 255 151 562h-590v60h594q6 104 6 203v434h59v-434q0 -98 -6 -203h651v-60zM463 -141h-60v1286q-139 -211 -288 -365q-23 33 -45 49
q164 155 310 385t241 480l57 -17q-84 -215 -215 -436v-1382zM1821 1255l-49 -36q-102 174 -271 366l45 27q173 -187 275 -357z" />
    <glyph glyph-name="Identity.631" unicode="&#x4f10;" 
d="M1769 -147q-264 0 -446 483q-270 -240 -653 -408q-10 16 -47 49q389 156 677 416q-92 260 -147 668l-578 -62l-8 60l580 59q-29 276 -35 559h62q4 -305 32 -553l686 70l9 -57l-689 -72q43 -352 136 -629q244 236 391 529l57 -21q-162 -319 -428 -567q80 -221 185 -343
t221 -122q51 2 75 81q25 79 35 279q27 -20 55 -26q-12 -225 -47 -309t-123 -84zM479 -141h-59v1245q-135 -197 -273 -334q-23 33 -45 49q168 158 315 386q146 228 242 478l60 -16q-106 -258 -240 -471v-1337zM1767 1343l-36 -43q-143 135 -379 310l37 32q214 -152 378 -299z
" />
    <glyph glyph-name="Identity.632" unicode="&#x4f11;" 
d="M1939 1094h-581q110 -272 284 -528t345 -384q-33 -25 -50 -47q-174 145 -352 413t-287 546h-10v-1241h-59v1241h-4q-105 -295 -277 -559t-354 -412q-14 20 -51 47q176 129 347 385t275 539h-571v59h635v524h59v-524h651v-59zM479 -141h-59v1269q-160 -215 -318 -356
q-16 25 -43 51q184 155 342 381t256 482l60 -17q-98 -242 -238 -452v-1358z" />
    <glyph glyph-name="Identity.633" unicode="&#x4f1a;" 
d="M975 1700h57q158 -223 419 -432t513 -326q-14 -16 -41 -51q-256 125 -509 330t-404 417q-125 -200 -367 -406t-510 -345q-14 25 -37 47q270 137 513 347t366 419zM520 1049h996v-62h-996v62zM184 596v61h1692v-61h-1010q-195 -414 -299 -584q514 16 1045 41
q-162 190 -342 346l45 29q147 -125 289 -280t213 -269l-50 -33q-45 72 -110 152q-788 -37 -1440 -59l-8 63q201 4 287 8q164 260 299 586h-611z" />
    <glyph glyph-name="Identity.634" unicode="&#x4f1d;" 
d="M610 840v59h1348v-59h-784q-152 -516 -273 -805q309 18 897 61q-125 213 -276 393l49 27q125 -144 239 -324t164 -309l-53 -30q-29 80 -92 188q-1186 -88 -1231 -90l-14 63l254 17q145 330 266 809h-494zM444 -139h-61v1276q-135 -201 -283 -349q-37 43 -45 52
q164 156 313 382q148 226 244 472l60 -17q-94 -231 -228 -446v-1370zM1841 1522v-60h-1069v60h1069z" />
    <glyph glyph-name="Identity.635" unicode="&#x4f2f;" 
d="M1761 1319v-1448h-59v80h-901v-94h-60v1462h349q70 170 120 381l64 -19q-66 -217 -123 -362h610zM1702 1260h-901v-582h901v582zM801 10h901v608h-901v-608zM440 -152h-59v1201q-102 -170 -244 -320q-23 35 -43 49q162 164 297 404t221 510l60 -15q-96 -289 -232 -526
v-1303z" />
    <glyph glyph-name="Identity.636" unicode="&#x4f34;" 
d="M1950 530v-61h-674v-612h-59v612h-644v61h644v445h-555v61h555v643h59v-643h588v-61h-588v-445h674zM444 -139h-61v1276q-135 -201 -283 -349q-37 43 -45 52q164 156 313 382q148 226 244 472l60 -17q-94 -231 -228 -446v-1370zM983 1159l-55 -33q-63 211 -207 443l51 22
q66 -100 126 -224t85 -208zM1735 1610l57 -29q-145 -301 -250 -461l-47 25q127 193 240 465z" />
    <glyph glyph-name="Identity.637" unicode="&#x4f36;" 
d="M1206 1688h62q125 -182 324 -362q200 -179 395 -292q-23 -23 -39 -51q-199 123 -394 299t-313 344q-103 -168 -291 -348t-395 -309q-18 27 -39 45q210 124 400 310t290 364zM866 1102h797v-60h-797v60zM1798 745v-567q0 -39 -12 -58q-12 -18 -51 -28t-326 -10
q-2 10 -27 59q256 -6 298 -2q42 3 51 11q8 8 8 28v506h-586v-834h-61v834h-486v61h1192zM444 -139h-61v1276q-135 -201 -283 -349q-37 43 -45 52q164 156 313 382q148 226 244 472l60 -17q-94 -231 -228 -446v-1370z" />
    <glyph glyph-name="Identity.638" unicode="&#x4f38;" 
d="M1307 1376h594v-1050h-60v100h-534v-569h-60v569h-518v-111h-59v1061h577v314h60v-314zM1841 1317h-534v-381h534v381zM1247 1317h-518v-381h518v381zM729 485h518v389h-518v-389zM1307 485h534v389h-534v-389zM428 -139h-59v1267q-127 -193 -279 -348q-23 35 -43 49
q163 157 309 387t240 478l59 -17q-96 -240 -227 -454v-1362z" />
    <glyph glyph-name="Identity.639" unicode="&#x4f3a;" 
d="M1860 1583v-1608q0 -51 -18 -75t-63 -35q-46 -10 -358 -10q-4 20 -26 63q262 -6 350 -2q31 4 43 15t12 42v1551h-1106v59h1166zM1462 289h-616v-148h-60v787h676v-639zM1403 868h-557v-520h557v520zM1622 1255v-59h-948v59h948zM428 -141h-59v1267q-127 -193 -277 -346
q-18 29 -45 47q163 157 309 387t242 480l57 -17q-88 -225 -227 -454v-1364z" />
    <glyph glyph-name="Identity.640" unicode="&#x4f3c;" 
d="M1993 -100l-45 -43q-160 240 -383 503q-113 -176 -291 -301t-445 -215q-14 25 -45 56q393 118 598 330q106 112 177 240q180 330 217 1150l67 -4q-25 -434 -80 -719t-168 -485q238 -274 398 -512zM1311 498l10 -52q-344 -133 -735 -278l-31 63q25 8 223 76l-12 1276h59
l15 -1255q86 32 257 94t214 76zM428 -139h-59v1267q-127 -193 -279 -348q-23 35 -43 49q163 157 309 387t240 478l59 -17q-96 -240 -227 -454v-1362zM1436 946l-54 -35q-96 225 -315 490l49 29q96 -112 188 -250t132 -234z" />
    <glyph glyph-name="Identity.641" unicode="&#x4f3d;" 
d="M1352 1450h493v-1505h-59v168h-375v-185h-59v1522zM1411 172h375v1219h-375v-1219zM1233 1243v-45q-23 -657 -49 -913t-78 -318q-33 -45 -106 -49t-179 6q0 33 -16 60q82 -6 186 -7q45 -2 64 29q41 49 67 310q27 261 49 868h-264q-14 -479 -87 -804t-255 -525
q-20 18 -59 32q182 186 255 507t87 790h-254v59h256q4 147 4 453h59q0 -158 -4 -453h324zM416 -145h-60v1278q-100 -205 -223 -365q-18 29 -43 49q266 332 424 881l59 -15q-66 -213 -157 -423v-1405z" />
    <glyph glyph-name="Identity.642" unicode="&#x4f43;" 
d="M743 1581h1110v-1710h-59v104h-991v-122h-60v1728zM1794 821v701h-475v-701h475zM1257 1522h-454v-701h454v701zM803 762v-727h454v727h-454zM1319 35h475v727h-475v-727zM428 -141h-59v1265q-129 -193 -277 -344q-18 29 -45 47q163 157 309 387t240 480l59 -17
q-96 -240 -227 -454v-1364z" />
    <glyph glyph-name="Identity.643" unicode="&#x4f46;" 
d="M610 10h1356v-59h-1356v59zM455 -141h-60v1265q-135 -201 -276 -344q-23 33 -45 49q164 155 310 385t241 478l57 -15q-84 -221 -227 -454v-1364zM1765 1538v-1198h-952v1198h952zM1706 399v514h-834v-514h834zM1706 973v506h-834v-506h834z" />
    <glyph glyph-name="Identity.644" unicode="&#x4f4d;" 
d="M1958 20v-59h-1376v59h745q80 195 170 492t143 535l64 -15q-177 -658 -318 -1012h572zM444 -139h-61v1276q-135 -201 -283 -349q-37 43 -45 52q164 156 313 382q148 226 244 472l60 -17q-94 -231 -228 -446v-1370zM1077 164l-59 -14q-16 162 -68 410t-112 456l53 8
q149 -495 186 -860zM641 1266h584v413h59v-413h612v-62h-1255v62z" />
    <glyph glyph-name="Identity.645" unicode="&#x4f4e;" 
d="M1946 897h-525q55 -411 170 -651t248 -238q39 0 58 65t28 224q23 -18 55 -29q-10 -182 -40 -252t-103 -69q-164 0 -289 257t-184 693h-551v-659q401 82 580 120l4 -55q-737 -160 -768 -166l-21 62l146 28v1239l49 -16q659 74 973 176l57 -49q-180 -55 -453 -100
q2 -262 33 -519h533v-61zM813 958h543q-31 236 -37 508q-246 -43 -506 -71v-437zM659 -78v60h922v-60h-922zM428 -139h-59v1267q-127 -193 -279 -348q-23 35 -43 49q163 157 309 387t240 478l59 -17q-96 -240 -227 -454v-1362z" />
    <glyph glyph-name="Identity.646" unicode="&#x4f4f;" 
d="M1325 -8h625v-60h-1329v60h645v624h-514v60h514v545h-586v59h1239v-59h-594v-545h530v-60h-530v-624zM444 -139h-61v1276q-135 -201 -283 -349q-37 43 -45 52q164 156 313 382q148 226 244 472l60 -17q-94 -231 -228 -446v-1370zM1475 1384l-41 -49q-164 164 -445 330
l41 41q289 -172 445 -322z" />
    <glyph glyph-name="Identity.647" unicode="&#x4f50;" 
d="M1956 1262v-62h-869q-180 -752 -538 -1139q-5 5 -53 41q352 358 530 1098h-446v62h460q47 195 82 430l62 -9q-41 -241 -82 -421h854zM1425 678v-696h521v-60h-1160v60h580v696h-414v61h959v-61h-486zM444 -139h-61v1276q-135 -201 -283 -349q-37 43 -45 52
q164 156 313 382q148 226 244 472l60 -17q-94 -231 -228 -446v-1370z" />
    <glyph glyph-name="Identity.648" unicode="&#x4f51;" 
d="M1952 1231h-809q-86 -279 -199 -490h899v-864h-59v123h-805v-141h-59v841q-147 -262 -367 -444q-20 25 -41 45q379 309 569 930h-487v59h506q49 172 92 410l61 -12q-39 -211 -94 -398h793v-59zM1784 682h-805v-623h805v623zM444 -143h-59v1290q-131 -201 -283 -350
l-47 49q166 156 315 383q148 227 242 473l60 -16q-94 -231 -228 -447v-1382z" />
    <glyph glyph-name="Identity.649" unicode="&#x4f53;" 
d="M1937 1178h-585q98 -285 264 -536t346 -374l-49 -49q-184 135 -352 397t-271 562h-12v-846h385v-60h-385v-409h-59v409h-406v60h406v846h-9q-104 -293 -277 -557t-358 -408q-14 27 -45 45q178 129 349 383q170 254 272 537h-569v59h637v459h59v-459h659v-59zM428 -141
h-59v1243q-100 -172 -226 -322q-18 27 -45 47q143 159 268 387t207 478l58 -13q-82 -244 -203 -471v-1349z" />
    <glyph glyph-name="Identity.650" unicode="&#x4f55;" 
d="M1954 1479v-60h-176v-1431q0 -55 -20 -80t-73 -36q-54 -11 -399 -11q-4 16 -26 67q420 -14 447 14q11 12 11 44v1433h-1046v60h1282zM1368 391h-541v-153h-59v823h600v-670zM1309 1001h-482v-550h482v550zM444 -145h-59v1265q-115 -190 -238 -332q-25 37 -43 48
q143 156 271 383q127 227 211 475l57 -15q-78 -229 -199 -450v-1374z" />
    <glyph glyph-name="Identity.651" unicode="&#x4f59;" 
d="M981 1694h57q160 -199 416 -390t500 -305q-27 -27 -41 -51q-246 119 -496 307t-401 379q-131 -182 -371 -378t-502 -328q-20 29 -39 47q268 133 510 329t367 390zM1376 401l45 37q311 -238 486 -452l-45 -43q-78 98 -215 228q-138 130 -271 230zM1884 610h-833v-649
q0 -78 -66 -94q-49 -12 -313 -8q-4 27 -25 57q311 -9 333 10q9 8 9 33v651h-813v60h813v336h-508v61h1078v-61h-508v-336h833v-60zM588 430l59 -20q-195 -262 -477 -459q-25 25 -53 39q131 84 258 202t213 238z" />
    <glyph glyph-name="Identity.652" unicode="&#x4f5c;" 
d="M1946 1288h-686v-379h647v-59h-647v-391h673v-60h-673v-542h-60v1431h-207q-139 -270 -313 -463q-27 23 -51 39q141 144 263 358t206 447l57 -14q-53 -154 -131 -307h922v-60zM485 -141h-61v1265q-129 -193 -277 -344q-18 29 -45 47q164 157 310 387t239 480l60 -17
q-94 -238 -226 -452v-1366z" />
    <glyph glyph-name="Identity.653" unicode="&#x4f73;" 
d="M1311 4h637v-59h-1356v59h659v442h-524v60h524v291h60v-291h528v-60h-528v-442zM451 -145h-60v1245q-96 -164 -227 -320q-16 25 -45 49q145 155 272 385t209 480l59 -15q-82 -238 -208 -475v-1349zM1903 956v-59h-1237v59h585v375h-481v60h481v311h60v-311h497v-60h-497
v-375h592z" />
    <glyph glyph-name="Identity.654" unicode="&#x4f75;" 
d="M1956 696v-59h-387v-780h-62v780h-471q-21 -394 -216 -619q-85 -98 -206 -176q-14 27 -41 45q235 145 320 360q68 170 82 390h-385v59h387v508h-322v62h1256v-62h-342v-508h387zM1038 696h469v508h-469v-508zM444 -139h-61v1276q-135 -201 -283 -349q-37 43 -45 52
q164 156 313 382q148 226 244 472l60 -17q-94 -231 -228 -446v-1370zM1085 1329l-53 -31q-49 170 -190 369l51 23q66 -88 120 -190t72 -171zM1663 1706l59 -25q-133 -264 -223 -385l-47 23q119 170 211 387z" />
    <glyph glyph-name="Identity.655" unicode="&#x4f7c;" 
d="M1548 866l64 -16q-92 -346 -297 -576q272 -272 657 -374q-25 -18 -43 -52q-383 113 -655 383q-254 -256 -688 -381q-18 33 -33 50q428 121 678 374q-215 236 -326 549l56 19q109 -303 311 -525q198 225 276 549zM449 -143h-62v1284q-137 -221 -295 -385q-16 25 -43 47
q162 160 305 393q144 233 236 487l59 -14q-86 -221 -200 -426v-1386zM977 1233l59 -16q-147 -276 -405 -482q-18 25 -49 41q117 86 222 207t173 250zM1489 1198l49 31q117 -100 234 -222t176 -210l-54 -35q-60 92 -176 217t-229 219zM606 1389h637v313h60v-313h651v-60
h-1348v60z" />
    <glyph glyph-name="Identity.656" unicode="&#x4f7f;" 
d="M1874 598h-567q-25 -262 -156 -432q326 -197 811 -262q-25 -25 -39 -58q-477 70 -811 277q-170 -180 -508 -281l-33 49q322 90 492 263q-229 156 -344 358l53 25q111 -195 328 -338q127 158 147 399h-536v530h544v258h-620v60h620v252h60v-252h639v-60h-639v-258h559
v-530zM1815 1069h-500v-250q0 -109 -4 -162h504v412zM770 657h481q4 53 4 162v250h-485v-412zM444 -158h-59v1301q-137 -201 -281 -344q-27 31 -47 49q166 156 315 382q148 226 242 472l58 -14q-90 -229 -228 -451v-1395z" />
    <glyph glyph-name="Identity.657" unicode="&#x4f83;" 
d="M1724 -80h82q44 0 60 12t26 66q4 49 9 254q20 -20 55 -31q-4 -223 -15 -273t-43 -65q-27 -16 -86 -16h-90q-61 0 -88 22q-18 12 -24 41t-6 117v707h59v-731q0 -82 16 -95q16 -8 45 -8zM1204 -53v786h60v-786h-60zM813 545v200h59v-200q0 -202 -38 -328
q-38 -127 -100 -215t-159 -162q-18 27 -45 43q184 140 240 330q43 147 43 332zM428 -141h-59v1271q-135 -203 -275 -342q-33 39 -47 50q164 156 309 382q146 226 240 474l59 -17q-96 -238 -227 -450v-1368zM1776 1585v-706h-1055v706h1055zM1716 938v588h-936v-588h936z" />
    <glyph glyph-name="Identity.658" unicode="&#x4f8b;" 
d="M1817 1675h59v-1710q0 -84 -66 -98q-45 -12 -292 -12q-25 59 -27 61q295 -9 315 11q10 9 11 36v1712zM1413 309v1166h62v-1166h-62zM616 1522v59h760v-59h-452q-31 -193 -76 -361h387l12 4l37 -16q-121 -938 -637 -1303q-14 23 -49 45q297 207 467 617q-147 145 -352 278
q-74 -143 -154 -237q-23 23 -45 39q252 299 344 934h-242zM1214 1100h-385q-45 -154 -94 -262q211 -133 352 -271q88 240 127 533zM416 -145h-60v1300q-123 -221 -262 -387l-45 47q143 161 268 391t207 482l58 -15q-63 -195 -166 -403v-1415z" />
    </font>
</defs>
</svg>
