<?xml version="1.0" standalone="no"?>
<!DOCTYPE svg PUBLIC "-//W3C//DTD SVG 1.1//EN" "http://www.w3.org/Graphics/SVG/1.1/DTD/svg11.dtd" >
<svg xmlns="http://www.w3.org/2000/svg">
<metadata>
Created by FontPrep 20130207 at Sat Nov 14 17:22:23 2015
 By quqjp
</metadata>
<defs>
<font id="7f54f2ea0a6b4c32a421a6c20a54d3bd" horiz-adv-x='1024' >
  <font-face 
    font-family="NotoSansCJKJPBold"
    font-weight="700"
    font-stretch="normal"
    units-per-em="2048"
    panose-1="2 0 8 3 0 0 0 0 0 0"
    ascent="1638"
    descent="-410"
    x-height="1147"
    cap-height="1516"
    bbox="-111 -580 2081 2003"
    underline-thickness="102"
    underline-position="-205"
    unicode-range="U+0020-FFE5"
  />
<missing-glyph 
 />
    <glyph glyph-name=".notdef" 
 />
    <glyph glyph-name=".null" horiz-adv-x="0" 
 />
    <glyph glyph-name="nonmarkingreturn" horiz-adv-x="681" 
 />
    <glyph glyph-name="Identity.1" unicode=" " horiz-adv-x="464" 
 />
    <glyph glyph-name="Identity.2" unicode="!" horiz-adv-x="757" 
d="M379 -29q-80 1 -133 57t-53 140t53 140t133 56t134 -56t54 -140t-54 -140t-134 -57zM281 516l-43 756l-11 284h303l-10 -284l-43 -756h-196z" />
    <glyph glyph-name="Identity.3" unicode="#" horiz-adv-x="1206" 
d="M457 639h258l35 281h-258zM80 444v195h199l34 281h-186v196h211l51 393h174l-47 -393h258l51 393h174l-45 -393h183v-196h-207l-35 -281h195v-195h-218l-53 -444h-180l53 444h-256l-55 -444h-178l53 444h-176z" />
    <glyph glyph-name="Identity.4" unicode="$" horiz-adv-x="1206" 
d="M633 1262q-188 0 -189 -170q0 -70 65 -122t156 -94t182 -94t155 -144q64 -93 65 -220q0 -170 -93 -286t-267 -148v-238h-203v229q-240 29 -406 179l133 202q178 -139 338 -139q209 0 209 180q0 76 -64 134q-65 57 -156 103t-182 97t-156 139t-64 207q0 166 93 277
t255 141v238h203v-234q186 -26 340 -186l-152 -172q-131 121 -262 121z" />
    <glyph glyph-name="Identity.5" unicode="%" horiz-adv-x="1970" 
d="M1536 143q72 0 115 76t43 235q0 158 -43 234t-115 76t-115 -76t-43 -234t43 -235q43 -76 115 -76zM1536 -29q-164 0 -266 130q-102 131 -102 355t100 351q102 127 268 127t268 -128t102 -351t-102 -353q-104 -130 -268 -131zM485 -29l824 1573h178l-825 -1573h-177z
M435 754q71 0 114 76t43 236t-43 234t-115 74q-156 0 -155 -307q1 -161 43 -237t113 -76zM434 584q-166 0 -267 129t-101 353t101 351t267 127t268 -127t102 -351t-102 -353t-268 -129z" />
    <glyph glyph-name="Identity.6" unicode="&#x26;" horiz-adv-x="1513" 
d="M574 -29q-246 0 -379 123t-134 307q0 145 76 245t209 185q-96 180 -96 335t109 267q110 111 280 111t265 -90t95 -237t-97 -250t-228 -191q135 -168 327 -315q127 170 187 385h272q-86 -291 -256 -520q156 -89 269 -109l-74 -246q-190 43 -377 160q-202 -160 -448 -160z
M651 1343q-67 0 -109 -50t-42 -136t55 -201q103 60 157 120t54 136q0 131 -115 131zM348 424q0 -100 69 -160t176 -61q107 0 222 76q-197 162 -342 354q-125 -109 -125 -209z" />
    <glyph glyph-name="Identity.7" unicode="'" horiz-adv-x="665" 
d="M248 872l-60 441l-10 284h307l-10 -284l-59 -441h-168z" />
    <glyph glyph-name="Identity.8" unicode="(" horiz-adv-x="774" 
d="M174 648q0 558 305 1058l189 -80q-250 -434 -250 -980t250 -980l-189 -80q-305 504 -305 1062z" />
    <glyph glyph-name="Identity.9" unicode=")" horiz-adv-x="774" 
d="M356 646q0 546 -250 980l187 80q307 -498 307 -1058t-307 -1062l-187 80q250 434 250 980z" />
    <glyph glyph-name="Identity.10" unicode="*" horiz-adv-x="1036" 
d="M338 856l-129 94l135 234l-244 108l50 152l262 -60l26 271h162l25 -271l262 60l49 -152l-246 -108l137 -234l-129 -94l-180 205z" />
    <glyph glyph-name="Identity.11" unicode="+" horiz-adv-x="1206" 
d="M492 223v436h-414v213h414v437h223v-437h413v-213h-413v-436h-223z" />
    <glyph glyph-name="Identity.12" unicode="," horiz-adv-x="665" 
d="M354 8h-18q-78 0 -133 48t-55 129t56 130t149 49t149 -77q56 -79 57 -239q0 -160 -101 -292q-102 -131 -286 -192l-63 164q119 46 182 118t63 162z" />
    <glyph glyph-name="Identity.13" unicode="-" horiz-adv-x="757" 
d="M100 479v215h559v-215h-559z" />
    <glyph glyph-name="Identity.14" unicode="." horiz-adv-x="665" 
d="M520 168q0 -84 -53 -140t-134 -57q-81 1 -134 57t-54 140t53 140t135 56t134 -56t53 -140z" />
    <glyph glyph-name="Identity.15" unicode="/" horiz-adv-x="794" 
d="M29 -373l508 2022h200l-508 -2022h-200z" />
    <glyph glyph-name="Identity.16" unicode="0" horiz-adv-x="1206" 
d="M603 207q228 0 228 552t-228 552t-228 -552t228 -552zM603 -29q-237 0 -375 205t-138 588t137 582q137 198 376 198t376 -198t137 -582q0 -383 -138 -588t-375 -205z" />
    <glyph glyph-name="Identity.17" unicode="1" horiz-adv-x="1206" 
d="M168 0v244h326v958h-275v187q211 41 352 127h224v-1272h284v-244h-911z" />
    <glyph glyph-name="Identity.18" unicode="2" horiz-adv-x="1206" 
d="M88 0v174q330 295 493 508t162 379q0 115 -60 181t-167 65q-137 0 -278 -156l-164 164q110 117 222 173t259 56q215 0 346 -128t131 -339q0 -346 -504 -839q152 16 246 16h330v-254h-1016z" />
    <glyph glyph-name="Identity.19" unicode="3" horiz-adv-x="1206" 
d="M561 -29q-322 0 -508 211l142 191q160 -156 337 -156q117 0 188 55t71 166q-1 111 -93 171t-325 61v217q369 0 368 231q0 90 -53 139t-149 52q-141 -2 -287 -135l-154 184q214 186 446 186t366 -105t134 -298q0 -246 -253 -346v-11q135 -37 219 -133t84 -239
q0 -203 -154 -322t-379 -119z" />
    <glyph glyph-name="Identity.20" unicode="4" horiz-adv-x="1206" 
d="M1149 623v-230h-180v-393h-281v393h-645v205l565 918h361v-893h180zM688 623v309q0 49 12 313h-8q-59 -129 -121 -246l-235 -376h352z" />
    <glyph glyph-name="Identity.21" unicode="5" horiz-adv-x="1206" 
d="M565 -29q-305 0 -512 207l140 193q158 -154 333 -154q121 0 195 74t74 205q0 130 -70 202t-186 72q-66 0 -112 -17t-116 -63l-137 90l41 736h811v-252h-551l-29 -322q90 43 183 43q203 0 335 -123q132 -122 132 -362t-155 -384t-376 -145z" />
    <glyph glyph-name="Identity.22" unicode="6" horiz-adv-x="1206" 
d="M707 1303q-141 0 -231 -121t-99 -389q59 73 147 117t164 44q199 0 317 -120q117 -120 117 -352t-137 -371t-338 -140q-233 0 -389 194q-156 195 -156 583t168 592t415 204t415 -172l-160 -180q-42 47 -106 79t-127 32zM641 199q88 1 146 73q59 72 59 204t-58 199t-157 66
q-143 0 -248 -159q39 -383 258 -383z" />
    <glyph glyph-name="Identity.23" unicode="7" horiz-adv-x="1206" 
d="M102 1264v252h1008v-183q-131 -160 -211 -302t-124 -308t-61 -320t-28 -403h-305q20 410 106 690t297 574h-682z" />
    <glyph glyph-name="Identity.24" unicode="8" horiz-adv-x="1206" 
d="M604 184q104 0 166 54t61 156q0 102 -79 163q-80 61 -256 133q-139 -111 -140 -280q0 -100 72 -163t176 -63zM807 1120q0 94 -53 152q-52 58 -140 59q-88 0 -140 -50t-52 -143t70 -155t206 -117q109 115 109 254zM1112 377q0 -174 -142 -290t-363 -116q-222 0 -366 115
t-145 291q0 256 260 395v10q-201 143 -200 361q0 180 128 290q128 109 328 109t321 -110q120 -110 120 -293q1 -103 -55 -195t-140 -151v-11q254 -137 254 -405z" />
    <glyph glyph-name="Identity.25" unicode="9" horiz-adv-x="1206" 
d="M504 217q139 0 227 121t96 389q-57 -76 -144 -121t-167 -45q-198 0 -316 122t-118 352q0 229 138 369t339 140q233 0 389 -189t156 -579t-168 -597q-168 -208 -415 -208t-415 172l158 181q43 -47 109 -77t131 -30zM573 776q147 0 250 162q-37 379 -260 379
q-88 0 -146 -73q-59 -73 -59 -205q0 -131 58 -197t157 -66z" />
    <glyph glyph-name="Identity.26" unicode=":" horiz-adv-x="665" 
d="M520 168q0 -84 -53 -140t-134 -57q-81 1 -134 57t-54 140t53 140t135 56t134 -56t53 -140zM333 750q-81 0 -134 55t-54 139t53 140t135 56t134 -56t53 -140t-53 -139t-134 -55z" />
    <glyph glyph-name="Identity.27" unicode=";" horiz-adv-x="665" 
d="M354 8h-18q-78 0 -133 48t-55 129t56 130t149 49t149 -77q56 -79 57 -239q0 -160 -101 -292q-102 -131 -286 -192l-63 164q119 46 182 118t63 162zM333 750q-81 0 -134 55t-54 139t53 140t135 56t134 -56t53 -140t-53 -139t-134 -55z" />
    <glyph glyph-name="Identity.28" unicode="&#x3c;" horiz-adv-x="1206" 
d="M1128 258l-1050 406v213l1050 405v-248l-430 -147l-313 -111v-10l313 -111l430 -147v-250z" />
    <glyph glyph-name="Identity.29" unicode="=" horiz-adv-x="1206" 
d="M78 393v215h1050v-215h-1050zM78 924v215h1050v-215h-1050z" />
    <glyph glyph-name="Identity.30" unicode="&#x3e;" horiz-adv-x="1206" 
d="M78 258v250l432 147l313 111v10l-313 111l-432 147v248l1050 -405v-213z" />
    <glyph glyph-name="Identity.31" unicode="?" horiz-adv-x="1052" 
d="M682 168q0 -84 -53 -140t-134 -57q-81 1 -135 57t-53 140q0 84 53 140q52 56 134 56t135 -56t53 -140zM487 1341q-117 0 -227 -114l-166 151q180 205 430 205q193 0 310 -99t116 -290q0 -142 -124 -283l-100 -114q-118 -134 -101 -281h-263q-16 113 27 214
q43 100 105 164q167 172 168 280q0 78 -48 122t-127 45z" />
    <glyph glyph-name="Identity.32" unicode="@" horiz-adv-x="2062" 
d="M819 477q-1 -170 143 -170q70 0 162 115l60 328q-45 76 -121 75q-104 -1 -174 -113t-70 -235zM979 -389q-364 0 -605 213q-120 104 -190 272t-70 392t83 424q82 200 222 337t327 214t395 77q367 0 587 -225t220 -586q0 -151 -46 -275t-122 -200q-158 -158 -344 -158
q-100 0 -172 46t-88 130h-5q-51 -70 -130 -112t-150 -43q-133 0 -216 93t-83 251q0 213 135 387t328 174q123 0 178 -115h4l33 97h186l-100 -500q-53 -219 110 -219q113 0 200 122t87 312q0 279 -160 457t-477 178q-152 0 -294 -62q-307 -135 -435 -450q-68 -166 -68 -359
q0 -328 195 -507t490 -179q190 0 358 94l68 -167q-201 -113 -451 -113z" />
    <glyph glyph-name="Identity.33" unicode="A" horiz-adv-x="1312" 
d="M1004 0l-107 389h-491l-107 -389h-307l485 1516h357l487 -1516h-317zM471 625h360l-45 166q-27 90 -72 267q-46 177 -61 228h-8q-57 -246 -129 -495z" />
    <glyph glyph-name="Identity.34" unicode="B" horiz-adv-x="1394" 
d="M489 233h211q319 0 320 232q0 209 -320 209h-211v-441zM489 899h177q276 0 276 199q0 98 -66 142q-67 44 -206 44h-181v-385zM186 0v1516h502q549 0 549 -373q0 -109 -56 -202t-151 -126v-10q129 -31 207 -121t78 -238q0 -218 -162 -332t-426 -114h-541z" />
    <glyph glyph-name="Identity.35" unicode="C" horiz-adv-x="1345" 
d="M801 -29q-295 0 -493 207q-198 208 -198 572t203 579t502 215q258 0 445 -194l-160 -193q-131 127 -293 127t-275 -141q-112 -141 -112 -384t108 -384t284 -141q177 0 316 149l160 -188q-192 -224 -487 -224z" />
    <glyph glyph-name="Identity.36" unicode="D" horiz-adv-x="1462" 
d="M489 244h95q458 0 458 515t-458 515h-95v-1030zM186 0v1516h416q356 0 553 -188t197 -564t-196 -570t-538 -194h-432z" />
    <glyph glyph-name="Identity.37" unicode="E" horiz-adv-x="1259" 
d="M186 0v1516h930v-252h-627v-351h533v-254h-533v-405h650v-254h-953z" />
    <glyph glyph-name="Identity.38" unicode="F" horiz-adv-x="1198" 
d="M186 0v1516h934v-252h-631v-396h539v-254h-539v-614h-303z" />
    <glyph glyph-name="Identity.39" unicode="G" horiz-adv-x="1468" 
d="M838 -29q-322 0 -525 206t-203 573q0 366 208 580q206 214 502 214t487 -194l-162 -193q-131 127 -311 127t-296 -140q-118 -140 -118 -387t115 -385t333 -139q123 0 191 58v299h-268v248h538v-684q-83 -80 -211 -132t-280 -51z" />
    <glyph glyph-name="Identity.40" unicode="H" horiz-adv-x="1550" 
d="M186 0v1516h303v-596h574v596h301v-1516h-301v655h-574v-655h-303z" />
    <glyph glyph-name="Identity.41" unicode="I" horiz-adv-x="675" 
d="M186 0v1516h303v-1516h-303z" />
    <glyph glyph-name="Identity.42" unicode="J" horiz-adv-x="1163" 
d="M516 -29q-315 0 -471 267l209 153q84 -158 225 -158q102 0 153 65q50 65 50 216v1002h303v-1027q0 -227 -118 -373t-351 -145z" />
    <glyph glyph-name="Identity.43" unicode="K" horiz-adv-x="1404" 
d="M186 0v1516h303v-658h7l501 658h334l-463 -596l545 -920h-334l-391 680l-199 -254v-426h-303z" />
    <glyph glyph-name="Identity.44" unicode="L" horiz-adv-x="1181" 
d="M186 0v1516h303v-1262h615v-254h-918z" />
    <glyph glyph-name="Identity.45" unicode="M" horiz-adv-x="1748" 
d="M186 0v1516h336l258 -709q6 -18 92 -293h11q14 45 44 143t48 150l252 709h336v-1516h-277v633q0 129 37 497h-8l-123 -356l-234 -637h-174l-235 637l-121 356h-8q39 -389 39 -497v-633h-273z" />
    <glyph glyph-name="Identity.46" unicode="N" horiz-adv-x="1533" 
d="M186 0v1516h310l440 -807l151 -328h11q-39 375 -39 530v605h287v-1516h-308l-438 811l-154 326h-10q37 -422 37 -529v-608h-287z" />
    <glyph glyph-name="Identity.47" unicode="O" horiz-adv-x="1576" 
d="M788 233q168 -1 268 143t101 388q0 244 -99 382q-100 138 -270 138t-269 -138t-99 -382t100 -388t268 -143zM788 -29q-305 0 -491 214t-186 579q0 364 186 572t491 208q306 0 492 -209t186 -573t-186 -577q-186 -214 -492 -214z" />
    <glyph glyph-name="Identity.48" unicode="P" horiz-adv-x="1366" 
d="M489 778h183q309 0 309 262q0 128 -79 182t-240 54h-173v-498zM186 0v1516h498q594 0 594 -476q0 -248 -163 -374t-423 -127h-203v-539h-303z" />
    <glyph glyph-name="Identity.49" unicode="Q" horiz-adv-x="1576" 
d="M1278 -412q-223 0 -385 108t-244 288q-246 47 -392 254t-146 526q0 364 186 572t491 208q306 0 492 -209t186 -571q0 -305 -134 -508t-363 -262q98 -162 344 -162q92 0 166 25l53 -224q-94 -45 -254 -45zM420 759q0 -249 99 -394t269 -145t270 144q100 146 99 395
q0 249 -99 387q-100 138 -270 138t-269 -138t-99 -387z" />
    <glyph glyph-name="Identity.50" unicode="R" horiz-adv-x="1396" 
d="M489 573v-573h-303v1516h529q569 0 569 -459q0 -324 -289 -436l355 -621h-338l-312 573h-211zM489 1276v-463h197q301 0 301 244q0 119 -75 169t-226 50h-197z" />
    <glyph glyph-name="Identity.51" unicode="S" horiz-adv-x="1277" 
d="M639 -29q-322 0 -553 222l174 208q182 -168 385 -168q117 1 179 47t63 128q1 42 -13 70t-54 54t-66 38q-26 11 -95 42l-202 86q-307 127 -307 408q0 188 147 313t377 125q133 0 258 -51t217 -143l-154 -191q-152 125 -321 125q-100 0 -160 -43t-59 -110q0 -67 38 -103
t89 -58q52 -22 110 -44l199 -84q147 -60 226 -158t79 -254q0 -193 -152 -326t-405 -133z" />
    <glyph glyph-name="Identity.52" unicode="T" horiz-adv-x="1280" 
d="M487 0v1264h-426v252h1160v-252h-430v-1264h-304z" />
    <glyph glyph-name="Identity.53" unicode="U" horiz-adv-x="1531" 
d="M1354 682q0 -711 -588 -711t-588 711v834h303v-861q0 -227 73 -324t215 -97t218 98t76 323v861h291v-834z" />
    <glyph glyph-name="Identity.54" unicode="V" horiz-adv-x="1265" 
d="M453 0l-463 1516h317l201 -738q24 -78 62 -238t65 -251h10q23 83 64 243t65 246l197 738h307l-465 -1516h-360z" />
    <glyph glyph-name="Identity.55" unicode="W" horiz-adv-x="1873" 
d="M330 0l-293 1516h309l121 -740q10 -72 34 -234t36 -249h8q45 233 96 483l176 740h258l176 -740q51 -261 97 -483h10q37 272 67 483l119 740h289l-281 -1516h-376l-170 750q-41 201 -66 350h-8q-43 -244 -66 -350l-166 -750h-370z" />
    <glyph glyph-name="Identity.56" unicode="X" horiz-adv-x="1284" 
d="M29 0l426 782l-400 734h336l152 -312q18 -38 54 -116t58 -123h11q55 139 100 239l143 312h320l-400 -748l426 -768h-335l-170 336q-58 120 -119 250h-8q-63 -152 -111 -250l-162 -336h-321z" />
    <glyph glyph-name="Identity.57" unicode="Y" horiz-adv-x="1189" 
d="M442 0v555l-454 961h321l152 -369q78 -205 131 -336h8q129 319 135 336l152 369h315l-457 -961v-555h-303z" />
    <glyph glyph-name="Identity.58" unicode="Z" horiz-adv-x="1255" 
d="M88 0v182l707 1082h-639v252h1009v-181l-704 -1081h713v-254h-1086z" />
    <glyph glyph-name="Identity.59" unicode="[" horiz-adv-x="774" 
d="M207 -354v1999h469v-160h-244v-1675h244v-164h-469z" />
    <glyph glyph-name="Identity.60" unicode="\" horiz-adv-x="794" 
d="M565 -373l-508 2022h199l510 -2022h-201z" />
    <glyph glyph-name="Identity.61" unicode="]" horiz-adv-x="774" 
d="M98 -354v164h244v1675h-244v160h469v-1999h-469z" />
    <glyph glyph-name="Identity.62" unicode="^" horiz-adv-x="1206" 
d="M123 641l356 915h248l358 -915h-249l-121 330l-107 313h-10l-106 -313l-119 -330h-250z" />
    <glyph glyph-name="Identity.63" unicode="_" horiz-adv-x="1161" 
d="M29 -317v176h1106v-176h-1106z" />
    <glyph glyph-name="Identity.64" unicode="`" horiz-adv-x="1282" 
d="M633 1331l-408 361l207 200l350 -415z" />
    <glyph glyph-name="Identity.65" unicode="a" horiz-adv-x="1210" 
d="M543 207q109 0 221 112v232q-373 -49 -373 -215q0 -129 152 -129zM453 -29q-161 1 -255 97t-94 243q0 183 157 285t503 139q-8 199 -195 199q-127 0 -315 -109l-109 199q245 152 471 152q450 0 449 -506v-670h-246l-22 123h-6q-177 -152 -338 -152z" />
    <glyph glyph-name="Identity.66" unicode="b" horiz-adv-x="1318" 
d="M669 219q111 0 179 94t67 275q0 340 -227 340q-109 0 -227 -119v-504q96 -86 208 -86zM737 -29q-162 0 -307 150h-6l-27 -121h-235v1634h299v-411l-6 -185q152 137 317 138q211 0 332 -159t121 -433q-1 -274 -145 -444q-144 -169 -343 -169z" />
    <glyph glyph-name="Identity.67" unicode="c" horiz-adv-x="1079" 
d="M636 -29q-230 0 -388 162t-158 438q0 277 171 441t415 164q184 0 334 -127l-144 -195q-88 76 -176 76q-131 0 -212 -98t-81 -260q0 -161 80 -258t199 -97t229 92l119 -198q-158 -140 -388 -140z" />
    <glyph glyph-name="Identity.68" unicode="d" horiz-adv-x="1318" 
d="M643 219q123 0 213 119v504q-94 86 -204 86t-179 -93q-68 -93 -67 -260q-1 -356 237 -356zM565 -29q-215 0 -342 161t-127 435q0 273 144 441t338 168q156 0 290 -125l-12 180v403h301v-1634h-244l-24 119h-6q-152 -148 -318 -148z" />
    <glyph glyph-name="Identity.69" unicode="e" horiz-adv-x="1189" 
d="M846 688q0 121 -54 188q-54 66 -156 66t-171 -66q-70 -66 -86 -188h467zM644 -29q-232 0 -392 162q-162 162 -162 434q0 273 160 441t382 168t347 -152t125 -397q0 -90 -14 -138h-707q18 -139 102 -213t215 -74t258 81l103 -185q-185 -127 -417 -127z" />
    <glyph glyph-name="Identity.70" unicode="f" horiz-adv-x="761" 
d="M514 1245v-98h215v-238h-215v-909h-301v909h-154v224l154 12v94q0 193 97 309t302 115q115 0 217 -41l-55 -221q-68 25 -121 24q-139 0 -139 -180z" />
    <glyph glyph-name="Identity.71" unicode="g" horiz-adv-x="1222" 
d="M610 -307q127 0 209 48q82 49 82 113t-46 86t-144 21h-140q-94 0 -159 16q-76 -61 -76 -133t74 -112t200 -39zM584 549q78 0 128 56q50 57 50 155t-49 154t-129 56t-130 -56t-50 -154t50 -154q52 -56 130 -57zM387 291q0 -96 180 -94h195q426 0 426 -287
q0 -176 -170 -292t-453 -116q-213 0 -346 75t-133 220t164 238v10q-104 68 -104 192t126 216v8q-63 47 -107 126t-44 173q0 196 135 306t328 110q90 0 172 -29h413v-221h-196q53 -68 53 -174q0 -186 -125 -288t-317 -102q-68 0 -148 27q-49 -41 -49 -98z" />
    <glyph glyph-name="Identity.72" unicode="h" horiz-adv-x="1310" 
d="M162 0v1634h299v-411l-12 -215q180 168 360 168q354 0 354 -461v-715h-301v678q0 131 -38 185q-38 55 -114 55t-126 -30t-123 -100v-788h-299z" />
    <glyph glyph-name="Identity.73" unicode="i" horiz-adv-x="622" 
d="M313 1331q-78 0 -129 46t-51 119t50 118t129 45t129 -45q51 -45 51 -117t-50 -119t-129 -47zM162 0v1147h299v-1147h-299z" />
    <glyph glyph-name="Identity.74" unicode="j" horiz-adv-x="624" 
d="M315 1331q-78 0 -129 46t-51 119t50 118t129 45t130 -45q52 -45 52 -117t-52 -119t-129 -47zM82 -469q-109 0 -193 31l54 223q49 -16 107 -16q114 0 114 194v1184h301v-1176q0 -440 -383 -440z" />
    <glyph glyph-name="Identity.75" unicode="k" horiz-adv-x="1239" 
d="M162 0v1634h293v-983h8l397 496h328l-397 -469l434 -678h-326l-278 475l-166 -188v-287h-293z" />
    <glyph glyph-name="Identity.76" unicode="l" horiz-adv-x="645" 
d="M444 -29q-283 0 -282 351v1312h299v-1327q0 -90 61 -90q20 0 41 4l37 -223q-66 -27 -156 -27z" />
    <glyph glyph-name="Identity.77" unicode="m" horiz-adv-x="1974" 
d="M162 0v1147h246l20 -154h8q174 182 352 183q227 0 316 -201q90 96 176 148t188 53q178 0 268 -120t89 -341v-715h-301v678q0 129 -38 184q-38 56 -129 56t-214 -130v-788h-301v678q0 129 -38 184q-38 56 -129 56t-214 -130v-788h-299z" />
    <glyph glyph-name="Identity.78" unicode="n" horiz-adv-x="1312" 
d="M162 0v1147h246l20 -152h8q184 180 373 181q354 0 354 -461v-715h-301v678q0 131 -38 185q-38 55 -114 55t-126 -30t-123 -100v-788h-299z" />
    <glyph glyph-name="Identity.79" unicode="o" horiz-adv-x="1282" 
d="M641 217q115 0 179 95t65 260q0 166 -65 262q-66 96 -180 96t-178 -96t-65 -262q1 -166 65 -260q64 -95 179 -95zM641 -29q-225 0 -388 164t-163 438q0 275 162 439t389 164t389 -164t162 -438t-163 -439q-163 -164 -388 -164z" />
    <glyph glyph-name="Identity.80" unicode="p" horiz-adv-x="1318" 
d="M671 219q109 0 177 94t67 275q0 340 -227 340q-109 0 -227 -119v-504q100 -86 210 -86zM162 -440v1587h246l20 -119h8q174 147 338 148q211 0 331 -159t120 -433q-1 -274 -145 -444q-144 -169 -343 -169q-147 0 -284 125l8 -188v-348h-299z" />
    <glyph glyph-name="Identity.81" unicode="q" horiz-adv-x="1318" 
d="M643 219q123 0 213 119v504q-94 86 -204 86t-179 -93q-68 -93 -67 -260q-1 -356 237 -356zM856 -440v364l12 185q-133 -137 -303 -138q-215 0 -342 161t-127 435q0 273 144 441t328 168q186 0 321 -142h8l25 113h235v-1587h-301z" />
    <glyph glyph-name="Identity.82" unicode="r" horiz-adv-x="892" 
d="M162 0v1147h246l20 -203h8q60 111 148 171q88 61 171 61t142 -25l-53 -260q-57 18 -126 18q-68 0 -140 -54t-117 -171v-684h-299z" />
    <glyph glyph-name="Identity.83" unicode="s" horiz-adv-x="1013" 
d="M489 -29q-113 0 -231 45t-205 117l137 189q160 -125 317 -125t157 120q0 60 -67 97q-40 22 -135 60q-159 63 -256 137t-96 221t117 245q117 99 314 99t387 -142l-135 -182q-141 98 -248 98q-74 0 -113 -30t-39 -71q1 -42 13 -55q12 -12 20 -22t24 -19t29 -15
q12 -6 34 -16q22 -9 35 -13q13 -5 40 -15t97 -36t156 -92q107 -82 106 -236t-121 -256t-337 -103z" />
    <glyph glyph-name="Identity.84" unicode="t" horiz-adv-x="860" 
d="M582 -29q-377 0 -377 430v508h-162v224l176 14l35 307h252v-307h282v-238h-282v-508q0 -193 156 -192q51 0 112 24l49 -219q-128 -43 -241 -43z" />
    <glyph glyph-name="Identity.85" unicode="u" horiz-adv-x="1304" 
d="M502 -29q-352 0 -352 459v717h301v-678q-1 -131 37 -185t115 -54t129 32q52 33 112 111v774h301v-1147h-246l-22 164h-9q-161 -193 -366 -193z" />
    <glyph glyph-name="Identity.86" unicode="v" horiz-adv-x="1179" 
d="M420 0l-391 1147h303l168 -572q16 -65 50 -191t42 -157h10q25 102 92 348l168 572h289l-383 -1147h-348z" />
    <glyph glyph-name="Identity.87" unicode="w" horiz-adv-x="1767" 
d="M352 0l-297 1147h301l125 -567q13 -62 31 -178t27 -156h8q51 258 71 334l138 567h268l143 -567q16 -66 41 -186t31 -148h10q9 40 27 156t31 178l125 567h278l-283 -1147h-354l-121 500q-18 82 -65 334h-10q-57 -305 -64 -334l-117 -500h-344z" />
    <glyph glyph-name="Identity.88" unicode="x" horiz-adv-x="1150" 
d="M33 0l358 598l-336 549h324l115 -205q51 -98 102 -192h8q14 30 42 96t42 96l96 205h312l-336 -584l358 -563h-323l-127 209q-12 23 -35 65t-41 75q-18 34 -35 63h-10q-14 -29 -96 -203l-107 -209h-311z" />
    <glyph glyph-name="Identity.89" unicode="y" horiz-adv-x="1175" 
d="M262 -461q-86 0 -158 23l56 231q47 -14 80 -14q158 0 215 174l20 67l-446 1127h303l182 -533q2 -8 96 -323h11q32 139 81 323l158 533h289l-408 -1182q-81 -217 -189 -321t-290 -105z" />
    <glyph glyph-name="Identity.90" unicode="z" horiz-adv-x="1046" 
d="M84 0v162l512 747h-455v238h832v-162l-514 -747h530v-238h-905z" />
    <glyph glyph-name="Identity.91" unicode="{" horiz-adv-x="774" 
d="M676 -190v-164h-133q-156 0 -224 72t-67 253q0 84 10 210t10 200t-46 124t-152 52v178q106 2 152 51t46 123t-10 200t-10 210q0 182 67 254q68 72 224 72h133v-160h-47q-78 0 -106 -38t-27 -140l10 -389q0 -126 -39 -186t-125 -81v-10q86 -19 125 -81t39 -185l-10 -389
q0 -102 26 -140q27 -37 107 -36h47z" />
    <glyph glyph-name="Identity.92" unicode="|" horiz-adv-x="606" 
d="M205 -580v2323h196v-2323h-196z" />
    <glyph glyph-name="Identity.93" unicode="}" horiz-adv-x="774" 
d="M145 1485h-47v160h133q156 0 224 -72t67 -254q0 -84 -11 -210t-11 -199t47 -123t151 -52v-178q-104 -2 -151 -52t-47 -124t11 -200t11 -210q0 -182 -68 -254t-223 -71h-133v164h47q78 0 106 36t28 140l-11 389q0 123 39 184t125 82v10q-86 21 -125 81t-39 186l11 389
q0 102 -28 140t-106 38z" />
    <glyph glyph-name="Identity.94" unicode="~" horiz-adv-x="1206" 
d="M803 569q-82 0 -155 45q-73 44 -135 90t-114 46q-96 0 -170 -136l-157 119q147 231 334 232q80 0 154 -45q74 -44 134 -90q61 -46 113 -46q96 0 170 134l158 -119q-146 -230 -332 -230z" />
    <glyph glyph-name="Identity.95" unicode="&#xa1;" horiz-adv-x="757" 
d="M379 782q-80 0 -133 56t-53 141q0 84 53 140q53 57 133 57t134 -56t54 -141t-54 -141t-134 -56zM227 -410l11 283l43 756h196l43 -756l10 -283h-303z" />
    <glyph glyph-name="Identity.96" unicode="&#xa2;" horiz-adv-x="1206" 
d="M801 -90h-170v227q-225 31 -358 181q-132 151 -132 393q0 243 135 393t355 186v232h170v-224q172 -14 293 -131l-140 -186q-72 66 -153 72v-678q86 12 188 90l123 -189q-133 -117 -311 -141v-225zM432 714q0 -118 52 -202t147 -117v637q-95 -35 -147 -118
q-52 -82 -52 -200z" />
    <glyph glyph-name="Identity.97" unicode="&#xa3;" horiz-adv-x="1206" 
d="M512 254h614v-254h-1011v184q111 52 179 152t68 221q0 47 -8 82h-231v178l156 10h22q-45 147 -45 215q0 211 134 337t356 126t380 -186l-165 -164q-87 107 -193 107t-164 -60t-59 -158q0 -96 33 -217h354v-188h-314q6 -41 7 -84q0 -168 -113 -293v-8z" />
    <glyph glyph-name="Identity.98" unicode="&#xa4;" horiz-adv-x="1206" 
d="M604 516q94 0 158 69q63 69 63 181t-63 180q-64 70 -158 70t-158 -70t-63 -182q-1 -112 63 -180t158 -68zM115 765q0 155 78 261l-142 145l150 152l161 -160q115 66 241 66t241 -66l162 160l151 -152l-145 -145q82 -106 82 -254t-82 -268l145 -146l-151 -153l-162 164
q-109 -63 -241 -63t-241 63l-161 -164l-150 153l144 146q-80 106 -80 261z" />
    <glyph glyph-name="Identity.99" unicode="&#xa5;" horiz-adv-x="1206" 
d="M453 0v348h-361v150h361v133h-361v149h293l-350 697h311l135 -332q78 -205 121 -307h10q61 158 123 307l135 332h301l-352 -697h297v-149h-364v-133h364v-150h-364v-348h-299z" />
    <glyph glyph-name="Identity.100" unicode="&#xa6;" horiz-adv-x="606" 
d="M205 -580v1059h196v-1059h-196zM205 711v1032h196v-1032h-196z" />
    <glyph glyph-name="Identity.101" unicode="&#xa7;" 
d="M737 815q0 -59 50 -104t231 -107t219 -82q72 44 72 130t-78 136q-77 50 -221 97q-144 46 -187 69q-86 -55 -86 -139zM1071 1411q-101 0 -161 -38t-60 -96t63 -96t239 -89q176 -52 284 -140t108 -254t-151 -276q96 -78 96 -213q0 -179 -151 -275t-349 -96q-266 0 -418 103
l64 190q162 -98 352 -98q106 0 169 40q62 40 62 104q0 65 -60 107t-244 100t-299 142q-114 86 -113 236q0 78 46 154t132 126q-39 32 -65 90t-25 117q0 164 136 260q136 97 349 97t369 -78l-53 -191q-135 74 -320 74z" />
    <glyph glyph-name="Identity.102" unicode="&#xa8;" horiz-adv-x="1282" 
d="M733 1486q0 64 43 108t110 44q68 0 110 -44t42 -108t-42 -108t-110 -45q-67 0 -110 44t-43 109zM549 1486q0 -64 -43 -108t-110 -45q-68 0 -110 44t-42 109q0 64 43 108t109 44t110 -44q43 -44 43 -108z" />
    <glyph glyph-name="Identity.103" unicode="&#xa9;" horiz-adv-x="1738" 
d="M878 295q-178 0 -302 124t-123 327q0 204 131 328t305 124t311 -137l-117 -129q-85 84 -183 84t-162 -75t-64 -195t62 -196q62 -75 160 -75t208 84l98 -141q-146 -123 -324 -123zM869 106q263 0 441 180t177 467q0 287 -177 463q-178 176 -442 176t-440 -176
q-176 -178 -176 -464t177 -466t440 -180zM868 -20q-204 0 -376 92t-278 271q-105 179 -105 411q0 348 221 558t539 210q317 0 539 -211t222 -558t-222 -560t-540 -213z" />
    <glyph glyph-name="Identity.104" unicode="&#xaa;" horiz-adv-x="825" 
d="M377 1030q63 0 137 68v147q-236 -25 -235 -133q0 -82 98 -82zM314 866q-112 0 -177 65q-63 65 -63 175t104 178q104 66 336 88q-6 121 -121 121q-92 0 -217 -72l-78 142q168 100 322 100q308 0 309 -336v-442h-172l-20 80h-9q-102 -99 -214 -99z" />
    <glyph glyph-name="Identity.105" unicode="&#xab;" horiz-adv-x="1083" 
d="M844 137l-316 342v215l316 340l114 -94l-262 -354l262 -359zM426 137l-315 342v215l315 340l113 -94l-260 -354l260 -359z" />
    <glyph glyph-name="Identity.106" unicode="&#xac;" horiz-adv-x="1206" 
d="M903 223v436h-825v213h1050v-649h-225z" />
    <glyph glyph-name="Identity.107" unicode="&#xae;" horiz-adv-x="1048" 
d="M465 1200h49q80 0 80 67t-78 66h-51v-133zM340 967v460h201q82 1 133 -37t51 -121t-82 -120l98 -182h-129l-73 147h-74v-147h-125zM523 1554q-149 0 -243 -99t-94 -261t94 -261t242 -99t244 99q94 99 94 261t-94 261t-243 99zM524 729q-190 0 -322 132t-132 333t132 334
t322 133t322 -132t131 -334q1 -202 -131 -334t-322 -132z" />
    <glyph glyph-name="Identity.108" unicode="&#xaf;" horiz-adv-x="1282" 
d="M307 1380v195h668v-195h-668z" />
    <glyph glyph-name="Identity.109" unicode="&#xb0;" horiz-adv-x="827" 
d="M415 1094q71 0 115 48t45 126q0 78 -45 127q-44 49 -116 49t-116 -49t-44 -127t45 -126t116 -48zM737 1268q0 -140 -93 -232t-229 -92t-230 91q-93 91 -93 233t93 233q93 92 229 92t230 -92q93 -92 93 -233z" />
    <glyph glyph-name="Identity.110" unicode="&#xb1;" 
d="M297 227h1470v-209h-1470v209zM1751 1145v-207h-623v-518h-208v518h-623v207h623v518h208v-518h623z" />
    <glyph glyph-name="Identity.111" unicode="&#xb2;" horiz-adv-x="868" 
d="M514 1474q0 160 -152 160q-76 0 -163 -114l-129 114q135 182 336 183q150 0 238 -79t87 -222q0 -72 -41 -153t-87 -136t-138 -156h303v-186h-659v121q217 184 311 287t94 181z" />
    <glyph glyph-name="Identity.112" unicode="&#xb3;" horiz-adv-x="868" 
d="M428 856q-238 0 -358 182l137 107q80 -119 201 -119q61 0 102 34t41 91q0 131 -234 131v129q94 0 148 33q53 33 53 89t-34 85t-93 29q-82 0 -158 -97l-127 115q139 152 322 152q129 0 219 -68t90 -180q0 -137 -139 -213q78 -29 126 -85t48 -136q0 -123 -100 -201
t-244 -78z" />
    <glyph glyph-name="Identity.113" unicode="&#xb4;" horiz-adv-x="1282" 
d="M649 1331l-149 146l350 415l205 -200z" />
    <glyph glyph-name="Identity.114" unicode="&#xb5;" horiz-adv-x="1359" 
d="M1227 217q35 0 71 12l35 -221q-78 -37 -182 -37q-225 0 -272 201h-7q-96 -190 -266 -190q-111 0 -164 69q2 -231 23 -463h-303v1559h299v-678q0 -127 38 -183t114 -56q77 0 129 37q52 38 104 132v748h303q-20 -724 -21 -836q0 -94 99 -94z" />
    <glyph glyph-name="Identity.115" unicode="&#xb6;" 
d="M905 -115v729h-14q-120 0 -253 104q-65 50 -109 139t-46 183q-3 94 15 166q41 166 184 264q168 114 467 115q201 0 307 -22v-1678h-192v1510h-166v-1510h-193z" />
    <glyph glyph-name="Identity.116" unicode="&#xb7;" horiz-adv-x="1212" 
d="M602 565q-80 1 -134 57t-54 139t54 140t134 57t133 -57t53 -140t-53 -139t-133 -57z" />
    <glyph glyph-name="Identity.117" unicode="&#xb8;" horiz-adv-x="1282" 
d="M639 -321q0 45 -39 69t-139 39l108 221h181l-66 -151q88 -21 131 -61t43 -109q0 -218 -438 -236l-23 127q137 8 190 32q52 24 52 69z" />
    <glyph glyph-name="Identity.118" unicode="&#xb9;" horiz-adv-x="868" 
d="M387 885v669h-203v138q139 23 250 98h178v-905h-225z" />
    <glyph glyph-name="Identity.119" unicode="&#xba;" horiz-adv-x="860" 
d="M430 1036q74 0 113 62t39 166q0 106 -39 168t-113 61q-74 0 -113 -61q-39 -60 -39 -166t40 -168q38 -62 112 -62zM430 866q-154 0 -262 109t-109 290q0 181 109 289q108 108 262 109q154 0 262 -109q108 -110 109 -290q-1 -180 -109 -289t-262 -109z" />
    <glyph glyph-name="Identity.120" unicode="&#xbb;" horiz-adv-x="1083" 
d="M657 137l-112 90l260 359l-260 354l112 94l316 -340v-215zM240 137l-115 90l262 359l-262 354l115 94l313 -340v-215z" />
    <glyph glyph-name="Identity.121" unicode="&#xbc;" horiz-adv-x="1861" 
d="M1827 360v-147h-135v-213h-197v213h-416v111l342 581h271v-545h135zM1495 360v115l12 266h-10l-207 -381h205zM1251 1544h181l-824 -1573h-180zM545 610h-223v670h-203v139q137 20 250 97h176v-906z" />
    <glyph glyph-name="Identity.122" unicode="&#xbd;" horiz-adv-x="1941" 
d="M1180 0v121q217 183 312 287t95 182t-39 119t-104 41q-90 0 -174 -117l-127 117q133 184 334 184q149 0 237 -80t88 -223q0 -72 -41 -153t-87 -136t-138 -154h303v-188h-659zM389 -29l823 1573h179l-824 -1573h-178zM322 610v670h-203v139q137 20 250 97h176v-906h-223z
" />
    <glyph glyph-name="Identity.123" unicode="&#xbe;" horiz-adv-x="1886" 
d="M1851 360v-147h-135v-213h-198v213h-414v111l340 581h272v-545h135zM1518 360v115l14 266h-10l-211 -381h207zM1315 1544h176l-823 -1573h-179zM731 1296q0 -137 -139 -213q78 -29 125 -86t47 -137q0 -120 -100 -198t-242 -78q-242 0 -361 180l138 108q86 -119 200 -118
q63 0 106 32q42 33 42 91q0 131 -236 131v131q94 0 148 32q53 33 53 89t-35 85q-35 30 -92 29q-82 0 -158 -96l-129 113q139 154 324 153q129 0 219 -68t90 -180z" />
    <glyph glyph-name="Identity.124" unicode="&#xbf;" horiz-adv-x="1052" 
d="M557 782q-80 0 -133 56t-53 141q0 84 53 140q53 57 133 57t134 -56t54 -141t-54 -141t-134 -56zM528 -438q-192 0 -310 100t-118 291q0 139 124 283q50 57 101 113q116 130 101 280h264q23 -172 -85 -318q-46 -61 -94 -115q-120 -135 -120 -218t46 -128t128 -45
q115 0 226 115l167 -151q-182 -207 -430 -207z" />
    <glyph glyph-name="Identity.125" unicode="&#xd7;" 
d="M1700 252l-148 -148l-526 527l-526 -527l-148 148l527 526l-527 527l148 147l526 -526l526 526l148 -147l-526 -527z" />
    <glyph glyph-name="Identity.126" unicode="&#xf7;" 
d="M846 261q0 73 52 125t126 52t126 -52t52 -125t-52 -126t-126 -53t-126 53t-52 126zM297 881h1454v-209h-1454v209zM846 1291q0 73 52 126t126 53t126 -53t52 -126t-52 -125t-126 -52t-126 52t-52 125z" />
    <glyph glyph-name="Identity.127" unicode="&#x391;" horiz-adv-x="1312" 
d="M1004 0l-107 389h-491l-107 -389h-307l485 1516h357l487 -1516h-317zM471 625h360l-45 166q-27 90 -72 267q-46 177 -61 228h-8q-57 -246 -129 -495z" />
    <glyph glyph-name="Identity.128" unicode="&#x392;" horiz-adv-x="1394" 
d="M489 233h211q319 0 320 232q0 209 -320 209h-211v-441zM489 899h177q276 0 276 199q0 98 -66 142q-67 44 -206 44h-181v-385zM186 0v1516h502q549 0 549 -373q0 -109 -56 -202t-151 -126v-10q129 -31 207 -121t78 -238q0 -218 -162 -332t-426 -114h-541z" />
    <glyph glyph-name="Identity.129" unicode="&#x393;" horiz-adv-x="1196" 
d="M186 0v1516h934v-252h-631v-1264h-303z" />
    <glyph glyph-name="Identity.130" unicode="&#x394;" horiz-adv-x="1454" 
d="M401 254h646l-183 563l-139 461h-8l-137 -461zM76 0v182l471 1334h360l471 -1334v-182h-1302z" />
    <glyph glyph-name="Identity.131" unicode="&#x395;" horiz-adv-x="1259" 
d="M186 0v1516h930v-252h-627v-351h533v-254h-533v-405h650v-254h-953z" />
    <glyph glyph-name="Identity.132" unicode="&#x396;" horiz-adv-x="1255" 
d="M88 0v182l707 1082h-639v252h1009v-181l-704 -1081h713v-254h-1086z" />
    <glyph glyph-name="Identity.133" unicode="&#x397;" horiz-adv-x="1550" 
d="M186 0v1516h303v-596h574v596h301v-1516h-301v655h-574v-655h-303z" />
    <glyph glyph-name="Identity.134" unicode="&#x398;" horiz-adv-x="1576" 
d="M788 233q168 -1 268 143t101 388q0 244 -99 382q-100 138 -270 138t-269 -138t-99 -382t100 -388t268 -143zM788 -29q-305 0 -491 214t-186 579q0 364 186 572t491 208q306 0 492 -209t186 -573t-186 -577q-186 -214 -492 -214zM553 655v265h473v-265h-473z" />
    <glyph glyph-name="Identity.135" unicode="&#x399;" horiz-adv-x="675" 
d="M186 0v1516h303v-1516h-303z" />
    <glyph glyph-name="Identity.136" unicode="&#x39a;" horiz-adv-x="1404" 
d="M186 0v1516h303v-658h7l501 658h334l-463 -596l545 -920h-334l-391 680l-199 -254v-426h-303z" />
    <glyph glyph-name="Identity.137" unicode="&#x39b;" horiz-adv-x="1265" 
d="M-10 0l461 1516h362l465 -1516h-320l-198 739q-25 86 -65 246t-64 244h-10q-29 -96 -70 -262t-57 -228l-197 -739h-307z" />
    <glyph glyph-name="Identity.138" unicode="&#x39c;" horiz-adv-x="1748" 
d="M186 0v1516h336l258 -709q6 -18 92 -293h11q14 45 44 143t48 150l252 709h336v-1516h-277v633q0 129 37 497h-8l-123 -356l-234 -637h-174l-235 637l-121 356h-8q39 -389 39 -497v-633h-273z" />
    <glyph glyph-name="Identity.139" unicode="&#x39d;" horiz-adv-x="1533" 
d="M186 0v1516h310l440 -807l151 -328h11q-39 375 -39 530v605h287v-1516h-308l-438 811l-154 326h-10q37 -422 37 -529v-608h-287z" />
    <glyph glyph-name="Identity.140" unicode="&#x39e;" horiz-adv-x="1302" 
d="M143 1264v252h1016v-252h-1016zM283 659v254h737v-254h-737zM121 0v254h1063v-254h-1063z" />
    <glyph glyph-name="Identity.141" unicode="&#x39f;" horiz-adv-x="1576" 
d="M788 233q168 -1 268 143t101 388q0 244 -99 382q-100 138 -270 138t-269 -138t-99 -382t100 -388t268 -143zM788 -29q-305 0 -491 214t-186 579q0 364 186 572t491 208q306 0 492 -209t186 -573t-186 -577q-186 -214 -492 -214z" />
    <glyph glyph-name="Identity.142" unicode="&#x3a0;" horiz-adv-x="1527" 
d="M186 0v1516h1155v-1516h-301v1264h-551v-1264h-303z" />
    <glyph glyph-name="Identity.143" unicode="&#x3a1;" horiz-adv-x="1366" 
d="M489 778h183q309 0 309 262q0 128 -79 182t-240 54h-173v-498zM186 0v1516h498q594 0 594 -476q0 -248 -163 -374t-423 -127h-203v-539h-303z" />
    <glyph glyph-name="Identity.144" unicode="&#x3a3;" horiz-adv-x="1269" 
d="M92 0v182l483 586l-475 567v181h1022v-252h-645l402 -490l-410 -520h719v-254h-1096z" />
    <glyph glyph-name="Identity.145" unicode="&#x3a4;" horiz-adv-x="1280" 
d="M487 0v1264h-426v252h1160v-252h-430v-1264h-304z" />
    <glyph glyph-name="Identity.146" unicode="&#x3a5;" horiz-adv-x="1189" 
d="M442 0v555l-454 961h321l152 -369q78 -205 131 -336h8q129 319 135 336l152 369h315l-457 -961v-555h-303z" />
    <glyph glyph-name="Identity.147" unicode="&#x3a6;" horiz-adv-x="1740" 
d="M1006 1569v-203q290 -22 456 -178t166 -424t-168 -428t-454 -180v-207h-269v205q-287 22 -457 182t-169 428q0 268 169 425t457 177v203h269zM397 763q0 -157 92 -259t248 -121v754q-158 -17 -249 -117t-91 -257zM1341 764q1 158 -89 256t-246 117v-754q154 19 244 121
t91 260z" />
    <glyph glyph-name="Identity.148" unicode="&#x3a7;" horiz-adv-x="1284" 
d="M29 0l426 782l-400 734h336l152 -312q18 -38 54 -116t58 -123h11q55 139 100 239l143 312h320l-400 -748l426 -768h-335l-170 336q-58 120 -119 250h-8q-63 -152 -111 -250l-162 -336h-321z" />
    <glyph glyph-name="Identity.149" unicode="&#x3a8;" horiz-adv-x="1714" 
d="M1288 1516h297v-373q0 -578 -588 -617v-526h-282v526q-588 39 -588 617v373h295v-355q0 -199 73 -291t220 -106v752h282v-752q147 14 220 106q72 92 71 291v355z" />
    <glyph glyph-name="Identity.150" unicode="&#x3a9;" horiz-adv-x="1632" 
d="M104 0v244h269v8q-98 100 -167 246t-69 329q1 317 187 517t491 200t493 -199q187 -200 187 -518q0 -182 -69 -328t-166 -247v-8h268v-244h-598v219q254 221 254 580q0 215 -100 350t-269 135q-170 0 -269 -135t-100 -350q0 -356 256 -580v-219h-598z" />
    <glyph glyph-name="Identity.151" unicode="&#x3b1;" horiz-adv-x="1359" 
d="M397 568q-1 -174 57 -261q58 -88 152 -88t166 82t80 195l14 202q-72 229 -227 230q-98 0 -170 -93t-72 -267zM546 -29q-208 0 -332 158q-124 157 -124 435t148 445t366 167q217 0 318 -248h8l41 219h295q-8 -41 -37 -168t-42 -194t-41 -208t-28 -253q0 -106 113 -107
q39 0 76 14l36 -223q-70 -37 -186 -37q-236 0 -276 203h-9q-118 -203 -326 -203z" />
    <glyph glyph-name="Identity.152" unicode="&#x3b2;" horiz-adv-x="1372" 
d="M743 219q104 0 176 69q71 68 71 184t-63 184q-62 68 -179 69q-47 0 -101 -14l-39 221q262 45 262 287q0 98 -56 152t-136 54q-109 0 -166 -91t-61 -259q-10 -295 -11 -706q117 -150 303 -150zM160 -412v1510q0 254 130 410t386 155q203 0 343 -108q140 -109 140 -323
t-203 -343v-10q144 -27 236 -142t92 -278q0 -231 -136 -359t-321 -129q-236 0 -387 162q13 -235 23 -545h-303z" />
    <glyph glyph-name="Identity.153" unicode="&#x3b3;" horiz-adv-x="1206" 
d="M748 -412h-312q14 116 14 330t-134 576t-314 612l305 70q86 -130 177 -360t149 -474h10q197 387 223 805h299q-51 -309 -144 -550t-302 -572q29 -180 29 -437z" />
    <glyph glyph-name="Identity.154" unicode="&#x3b4;" horiz-adv-x="1261" 
d="M623 1438q-127 0 -127 -76q0 -70 134 -168q30 -23 94 -68t99 -69q172 -125 257 -245t85 -296q0 -246 -143 -396q-144 -150 -378 -149q-234 -1 -389 143t-155 384q0 176 104 301t271 192q-260 188 -260 398q-1 117 105 195t318 79q212 0 488 -92l-67 -225q-264 92 -436 92
zM642 217q108 0 170 76t62 223q0 178 -198 334q-135 -35 -212 -123t-77 -222t73 -211q74 -77 182 -77z" />
    <glyph glyph-name="Identity.155" unicode="&#x3b5;" horiz-adv-x="1081" 
d="M616 -29q-232 -1 -378 93q-147 94 -148 260q0 215 227 274v10q-84 29 -130 98t-46 146q-1 158 137 241t344 83t386 -121l-113 -195q-119 82 -262 82q-89 0 -143 -35t-54 -96q0 -123 189 -123q23 0 155 10v-219q-164 10 -192 10q-203 0 -203 -137q0 -70 67 -110
q66 -40 202 -39q136 0 259 96l121 -190q-186 -138 -418 -138z" />
    <glyph glyph-name="Identity.156" unicode="&#x3b6;" horiz-adv-x="1054" 
d="M100 526q0 211 163 457t409 432q-31 -2 -218 -6t-282 -12v237h832v-237h-13q-227 -141 -405 -403t-178 -451q0 -154 66 -225q66 -72 234 -104q166 -32 240 -95t74 -189q0 -66 -34 -164t-103 -198l-236 80q43 57 75 103t33 97t-44 77q-45 25 -161 51t-186 59
q-266 127 -266 491z" />
    <glyph glyph-name="Identity.157" unicode="&#x3b7;" horiz-adv-x="1292" 
d="M860 678q0 133 -33 186q-33 54 -109 54t-131 -44q-56 -44 -126 -147v-727h-299v805q0 188 -23 342h269l20 -211h8q174 240 377 240q330 0 330 -461v-1127h-303q20 725 20 1090z" />
    <glyph glyph-name="Identity.158" unicode="&#x3b8;" horiz-adv-x="1259" 
d="M629 1663q237 0 373 -214t136 -631t-134 -632q-135 -215 -374 -215t-375 215t-136 632t136 631t374 214zM846 926q-15 495 -217 493q-201 1 -217 -493h434zM629 217q97 -1 153 113t64 393h-434q16 -506 217 -506z" />
    <glyph glyph-name="Identity.159" unicode="&#x3b9;" horiz-adv-x="673" 
d="M537 217q33 0 69 12l37 -221q-82 -37 -184 -37q-162 0 -230 91t-67 264v821h303q-20 -724 -21 -836q0 -94 93 -94z" />
    <glyph glyph-name="Identity.160" unicode="&#x3ba;" horiz-adv-x="1234" 
d="M444 66v-66h-282v805q0 203 -25 342h295q23 -88 23 -281v-252h8q313 502 657 562l23 -283q-166 -39 -355 -213q88 -172 215 -362t244 -318l-338 -25q-154 193 -313 506l-41 -47q-111 -119 -111 -368z" />
    <glyph glyph-name="Identity.161" unicode="&#x3bb;" horiz-adv-x="1245" 
d="M295 1411q-78 0 -162 -39l-67 244q115 47 262 47q188 0 303 -116t190 -369l414 -1178h-322l-247 821h-11l-299 -846l-323 25l493 1157l-8 35q-27 106 -86 162t-137 57z" />
    <glyph glyph-name="Identity.162" unicode="&#x3bc;" horiz-adv-x="1359" 
d="M1227 217q35 0 71 12l35 -221q-78 -37 -182 -37q-225 0 -272 201h-7q-96 -190 -266 -190q-111 0 -164 69q2 -231 23 -463h-303v1559h299v-678q0 -127 38 -183t114 -56q77 0 129 37q52 38 104 132v748h303q-20 -724 -21 -836q0 -94 99 -94z" />
    <glyph glyph-name="Identity.163" unicode="&#x3bd;" horiz-adv-x="1183" 
d="M430 0q-104 614 -428 1106l305 70q94 -156 183 -409t131 -460h10q176 397 213 840h299q-53 -313 -149 -577t-277 -570h-287z" />
    <glyph glyph-name="Identity.164" unicode="&#x3be;" horiz-adv-x="1067" 
d="M768 -140q0 38 -47 66q-47 27 -184 56q-205 41 -320 143t-115 305q0 147 94 265t232 163v8q-102 41 -161 124q-58 83 -58 192q0 156 123 233q-164 -6 -285 -18v237h965v-237h-271q-100 -1 -166 -61q-65 -60 -65 -158t67 -167t159 -69t165 21v-240q-75 18 -193 18
q-118 1 -207 -73t-89 -196t72 -172t246 -84q175 -34 240 -95t64 -191q0 -62 -36 -162t-103 -200l-236 80q43 57 76 104q33 46 33 108z" />
    <glyph glyph-name="Identity.165" unicode="&#x3bf;" horiz-adv-x="1273" 
d="M637 217q117 0 177 94t60 261q0 166 -60 262t-177 96t-178 -95t-61 -263t60 -261q62 -94 179 -94zM637 -29q-227 0 -387 163t-160 438q0 276 160 440t387 164t387 -164t160 -440t-160 -438q-160 -163 -387 -163z" />
    <glyph glyph-name="Identity.166" unicode="&#x3c0;" horiz-adv-x="1443" 
d="M578 907q0 -334 -60 -923l-303 16q82 465 82 907h-254v226l170 14h1178v-240h-222q-14 -217 -14 -585q0 -57 25 -81q24 -24 60 -24t106 8l36 -221q-85 -33 -194 -33q-315 0 -316 365l11 571h-305z" />
    <glyph glyph-name="Identity.167" unicode="&#x3c1;" horiz-adv-x="1308" 
d="M670 219q102 0 169 95t66 274q0 340 -227 340q-106 0 -174 -94t-68 -254v-252q97 -109 234 -109zM152 -412v971q0 303 148 460t392 157t382 -155t138 -433t-141 -448q-141 -169 -331 -169t-306 140q18 -403 21 -523h-303z" />
    <glyph glyph-name="Identity.168" unicode="&#x3c3;" horiz-adv-x="1314" 
d="M628 217q105 0 168 87q62 87 62 239t-61 255t-169 103t-169 -84t-61 -251t62 -258q63 -91 168 -91zM625 -29q-229 0 -382 157q-153 158 -153 436t160 430t389 153h649v-250q-168 18 -338 25v-11q92 -51 144 -154t51 -243q1 -250 -145 -396t-375 -147z" />
    <glyph glyph-name="Identity.169" unicode="&#x3c4;" horiz-adv-x="1122" 
d="M709 -29q-160 -1 -229 93t-68 272v573h-351v224l168 14h834v-238h-358q-10 -268 -11 -587q0 -104 90 -105q59 0 125 16l39 -225q-118 -37 -239 -37z" />
    <glyph glyph-name="Identity.170" unicode="&#x3c5;" horiz-adv-x="1220" 
d="M598 217q215 0 215 363q0 252 -82 528l291 68q92 -305 92 -591t-135 -450t-376 -164t-359 127t-119 355l8 352q0 205 -24 342h290q23 -98 23 -281l-14 -438q0 -104 53 -158t137 -53z" />
    <glyph glyph-name="Identity.171" unicode="&#x3c6;" horiz-adv-x="1677" 
d="M977 1454v-289q254 -12 432 -170t178 -422q0 -265 -179 -423t-431 -170v-392h-277v394q-254 12 -432 170t-178 422t178 421q178 158 432 170v289h277zM397 574q0 -168 84 -264q84 -97 219 -103v733q-135 -6 -219 -102t-84 -264zM1280 575q0 167 -82 263t-221 102v-733
q135 6 219 103t84 265z" />
    <glyph glyph-name="Identity.172" unicode="&#x3c7;" horiz-adv-x="1193" 
d="M330 -438l-310 26l441 795l-441 723l297 70l289 -529h8l228 500h313l-397 -758l465 -762l-297 -65l-312 579h-8z" />
    <glyph glyph-name="Identity.173" unicode="&#x3c8;" horiz-adv-x="1705" 
d="M711 1454h276v-1245q154 4 230 103q75 100 75 320t-80 476l291 68q90 -276 90 -533q1 -319 -155 -492t-451 -180v-383h-276v383q-297 6 -437 162q-139 156 -139 408v264q0 205 -22 342h290q20 -100 21 -281l-4 -348q0 -137 70 -222t221 -87v1245z" />
    <glyph glyph-name="Identity.174" unicode="&#x3c9;" horiz-adv-x="1705" 
d="M546 -29q-212 0 -329 156t-117 444q0 147 52 309t135 296l280 -111q-182 -291 -182 -551q0 -139 43 -218t121 -79q166 0 166 232q0 119 -27 307h320q-25 -225 -25 -307q0 -231 156 -232q75 0 119 89t44 247q0 159 -33 269q-34 110 -122 249l274 105q183 -289 183 -589
t-111 -458t-313 -158q-242 0 -326 215h-8q-88 -215 -300 -215z" />
    <glyph glyph-name="Identity.175" unicode="&#x401;" horiz-adv-x="1259" 
d="M920 1636q-64 0 -106 42t-42 106t42 107q42 42 106 42t107 -42q42 -43 42 -107t-42 -106q-43 -42 -107 -42zM414 1636q-64 0 -106 42t-42 106t42 107q42 42 106 42t108 -42q43 -43 43 -107t-43 -106q-44 -42 -108 -42zM186 0v1516h930v-252h-627v-351h533v-254h-533v-405
h650v-254h-953z" />
    <glyph glyph-name="Identity.176" unicode="&#x410;" horiz-adv-x="1312" 
d="M1004 0l-107 389h-491l-107 -389h-307l485 1516h357l487 -1516h-317zM471 625h360l-45 166q-27 90 -72 267q-46 177 -61 228h-8q-57 -246 -129 -495z" />
    <glyph glyph-name="Identity.177" unicode="&#x411;" horiz-adv-x="1382" 
d="M489 233h205q305 0 305 238q0 115 -76 166q-77 51 -231 51h-203v-455zM186 0v1516h1010v-252h-707v-351h232q260 0 417 -104q156 -104 156 -340q0 -237 -154 -353t-411 -116h-543z" />
    <glyph glyph-name="Identity.178" unicode="&#x412;" horiz-adv-x="1394" 
d="M489 233h211q319 0 320 232q0 209 -320 209h-211v-441zM489 899h177q276 0 276 199q0 98 -66 142q-67 44 -206 44h-181v-385zM186 0v1516h502q549 0 549 -373q0 -109 -56 -202t-151 -126v-10q129 -31 207 -121t78 -238q0 -218 -162 -332t-426 -114h-541z" />
    <glyph glyph-name="Identity.179" unicode="&#x413;" horiz-adv-x="1196" 
d="M186 0v1516h934v-252h-631v-1264h-303z" />
    <glyph glyph-name="Identity.180" unicode="&#x414;" horiz-adv-x="1536" 
d="M1317 254h180v-188l-27 -502h-268v436h-868v-436h-268l-27 502v188h70q121 45 215 530q43 231 129 732h864v-1262zM1016 1264h-332q-12 -74 -28 -171t-30 -179q-75 -468 -194 -660h584v1010z" />
    <glyph glyph-name="Identity.181" unicode="&#x415;" horiz-adv-x="1259" 
d="M186 0v1516h930v-252h-627v-351h533v-254h-533v-405h650v-254h-953z" />
    <glyph glyph-name="Identity.182" unicode="&#x416;" horiz-adv-x="1976" 
d="M1130 666v-666h-286v666h-172l-338 -666h-328l447 803l-140 307q-43 88 -82 120t-83 32t-74 -11l-49 275q39 18 112 18q129 0 219 -60t166 -214l168 -361h154v607h286v-607h154l170 361q76 154 166 214t219 60q74 0 113 -18l-49 -275q-93 32 -159 -21q-40 -32 -81 -120
l-139 -307l446 -803h-325l-340 666h-175z" />
    <glyph glyph-name="Identity.183" unicode="&#x417;" horiz-adv-x="1304" 
d="M641 -29q-334 0 -555 213l160 207q170 -158 391 -158q129 1 210 61t81 169q0 211 -314 211h-192v225h147q285 0 285 197q0 94 -64 141q-65 47 -174 47q-170 0 -323 -125l-154 201q203 184 469 184t404 -106q137 -106 137 -295q0 -115 -52 -202t-149 -130v-10
q123 -29 200 -125t77 -234q0 -221 -164 -346t-420 -125z" />
    <glyph glyph-name="Identity.184" unicode="&#x418;" horiz-adv-x="1558" 
d="M186 0v1516h299v-605q0 -102 -39 -530h11l153 326l443 809h319v-1516h-299v608q0 139 39 529h-10l-154 -324l-442 -813h-320z" />
    <glyph glyph-name="Identity.185" unicode="&#x419;" horiz-adv-x="1558" 
d="M786 1642q-379 0 -393 316h254q10 -164 143 -164t140 164h254q-19 -316 -398 -316zM186 0v1516h299v-605q0 -102 -39 -530h11l153 326l443 809h319v-1516h-299v608q0 139 39 529h-10l-154 -324l-442 -813h-320z" />
    <glyph glyph-name="Identity.186" unicode="&#x41a;" horiz-adv-x="1419" 
d="M489 666v-666h-303v1516h303v-607h193l201 361q88 154 175 214t212 60q74 0 112 -18l-51 -275q-90 31 -151 -20q-37 -31 -88 -121l-172 -303l499 -807h-317l-420 666h-193z" />
    <glyph glyph-name="Identity.187" unicode="&#x41b;" horiz-adv-x="1509" 
d="M147 -29q-102 0 -163 23l55 272q35 -10 65 -10q66 0 110 71t81 248t178 941h850v-1516h-301v1264h-315q-63 -360 -127 -694t-160 -467q-97 -132 -273 -132z" />
    <glyph glyph-name="Identity.188" unicode="&#x41c;" horiz-adv-x="1748" 
d="M186 0v1516h336l258 -709q6 -18 92 -293h11q14 45 44 143t48 150l252 709h336v-1516h-277v633q0 129 37 497h-8l-123 -356l-234 -637h-174l-235 637l-121 356h-8q39 -389 39 -497v-633h-273z" />
    <glyph glyph-name="Identity.189" unicode="&#x41d;" horiz-adv-x="1550" 
d="M186 0v1516h303v-596h574v596h301v-1516h-301v655h-574v-655h-303z" />
    <glyph glyph-name="Identity.190" unicode="&#x41e;" horiz-adv-x="1576" 
d="M788 233q168 -1 268 143t101 388q0 244 -99 382q-100 138 -270 138t-269 -138t-99 -382t100 -388t268 -143zM788 -29q-305 0 -491 214t-186 579q0 364 186 572t491 208q306 0 492 -209t186 -573t-186 -577q-186 -214 -492 -214z" />
    <glyph glyph-name="Identity.191" unicode="&#x41f;" horiz-adv-x="1527" 
d="M186 0v1516h1155v-1516h-301v1264h-551v-1264h-303z" />
    <glyph glyph-name="Identity.192" unicode="&#x420;" horiz-adv-x="1366" 
d="M489 778h183q309 0 309 262q0 128 -79 182t-240 54h-173v-498zM186 0v1516h498q594 0 594 -476q0 -248 -163 -374t-423 -127h-203v-539h-303z" />
    <glyph glyph-name="Identity.193" unicode="&#x421;" horiz-adv-x="1345" 
d="M801 -29q-295 0 -493 207q-198 208 -198 572t203 579t502 215q258 0 445 -194l-160 -193q-131 127 -293 127t-275 -141q-112 -141 -112 -384t108 -384t284 -141q177 0 316 149l160 -188q-192 -224 -487 -224z" />
    <glyph glyph-name="Identity.194" unicode="&#x422;" horiz-adv-x="1280" 
d="M487 0v1264h-426v252h1160v-252h-430v-1264h-304z" />
    <glyph glyph-name="Identity.195" unicode="&#x423;" horiz-adv-x="1261" 
d="M352 -29q-102 0 -182 29l57 262q53 -16 109 -16q113 0 160 84l24 57l-514 1129h318l206 -504l123 -346h11l116 346l189 504h303l-477 -1190q-70 -174 -175 -265q-106 -90 -268 -90z" />
    <glyph glyph-name="Identity.196" unicode="&#x424;" horiz-adv-x="1753" 
d="M1008 1544v-205q305 -14 473 -159q168 -146 168 -416t-169 -418t-472 -166v-209h-263v209q-303 16 -471 164t-168 420q0 270 168 416t471 159v205h263zM389 764q0 -166 93 -257t263 -101v710q-170 -10 -263 -98t-93 -254zM1366 764q0 166 -93 254t-265 98v-710
q170 10 264 101t94 257z" />
    <glyph glyph-name="Identity.197" unicode="&#x425;" horiz-adv-x="1284" 
d="M29 0l426 782l-400 734h336l152 -312q18 -38 54 -116t58 -123h11q55 139 100 239l143 312h320l-400 -748l426 -768h-335l-170 336q-58 120 -119 250h-8q-63 -152 -111 -250l-162 -336h-321z" />
    <glyph glyph-name="Identity.198" unicode="&#x426;" horiz-adv-x="1538" 
d="M1319 254h180v-188l-26 -502h-269v436h-1018v1516h303v-1262h529v1262h301v-1262z" />
    <glyph glyph-name="Identity.199" unicode="&#x427;" horiz-adv-x="1441" 
d="M954 0v633q-104 -18 -241 -19q-279 0 -423 126t-145 411v365h295v-365q0 -163 73 -229t206 -66t235 16v644h301v-1516h-301z" />
    <glyph glyph-name="Identity.200" unicode="&#x428;" horiz-adv-x="2086" 
d="M186 0v1516h295v-1262h418v1262h289v-1262h416v1262h294v-1516h-1712z" />
    <glyph glyph-name="Identity.201" unicode="&#x429;" horiz-adv-x="2117" 
d="M1898 254h183v-188l-27 -502h-270v436h-1598v1516h295v-1262h418v1262h289v-1262h416v1262h294v-1262z" />
    <glyph glyph-name="Identity.202" unicode="&#x42a;" horiz-adv-x="1689" 
d="M819 240h178q307 0 308 243q0 221 -320 222h-166v-465zM516 0v1264h-455v252h758v-570h187q260 0 427 -116t167 -356t-158 -356q-158 -118 -424 -118h-502z" />
    <glyph glyph-name="Identity.203" unicode="&#x42b;" horiz-adv-x="1945" 
d="M1458 0v1516h301v-1516h-301zM489 240h148q313 0 313 243q0 221 -317 222h-144v-465zM186 0v1516h303v-570h173q270 0 428 -112t158 -356q0 -242 -160 -360q-158 -118 -431 -118h-471z" />
    <glyph glyph-name="Identity.204" unicode="&#x42c;" horiz-adv-x="1382" 
d="M489 240h193q315 0 315 243q0 221 -317 222h-191v-465zM186 0v1516h303v-570h218q270 0 428 -112q157 -112 157 -356q0 -242 -158 -360t-432 -118h-516z" />
    <glyph glyph-name="Identity.205" unicode="&#x42d;" horiz-adv-x="1345" 
d="M563 1544q301 0 487 -204t185 -586q0 -382 -189 -583q-188 -200 -486 -200t-503 224l160 188q150 -150 336 -150q340 0 379 426h-559v254h553q-51 371 -379 371q-160 0 -303 -127l-160 193q88 84 214 139t265 55z" />
    <glyph glyph-name="Identity.206" unicode="&#x42e;" horiz-adv-x="2181" 
d="M489 920h285q37 296 205 460t434 164q301 0 478 -208t177 -574t-178 -578q-178 -213 -464 -213q-286 1 -458 183q-171 182 -198 501h-281v-655h-303v1516h303v-596zM1413 233q164 1 255 143t91 388t-90 383t-256 137t-257 -137t-91 -383t92 -388t256 -143z" />
    <glyph glyph-name="Identity.207" unicode="&#x42f;" horiz-adv-x="1409" 
d="M696 1516h529v-1516h-303v573h-199l-344 -573h-346l399 614q-305 111 -305 443q0 459 569 459zM922 813v463h-197q-153 0 -227 -50t-74 -169q0 -244 301 -244h197z" />
    <glyph glyph-name="Identity.208" unicode="&#x430;" horiz-adv-x="1210" 
d="M543 207q109 0 221 112v232q-373 -49 -373 -215q0 -129 152 -129zM453 -29q-161 1 -255 97t-94 243q0 183 157 285t503 139q-8 199 -195 199q-127 0 -315 -109l-109 199q245 152 471 152q450 0 449 -506v-670h-246l-22 123h-6q-177 -152 -338 -152z" />
    <glyph glyph-name="Identity.209" unicode="&#x431;" horiz-adv-x="1292" 
d="M738 1094q204 0 330 -142t126 -398q0 -257 -151 -420t-377 -163q-268 0 -415 194t-147 568q-2 559 284 751q96 64 198 94q100 30 254 52t252 66l57 -262q-72 -57 -278 -86t-242 -45q-35 -15 -71 -31t-52 -36q-58 -71 -76 -135q-17 -64 -29 -165q133 158 337 158zM391 641
q0 -209 70 -317q69 -108 187 -107q118 0 177 92t60 252q0 309 -226 309q-155 1 -268 -161v-68z" />
    <glyph glyph-name="Identity.210" unicode="&#x432;" horiz-adv-x="1214" 
d="M455 203h188q197 0 197 145q0 62 -52 102t-151 39h-182v-286zM455 688h157q186 0 187 127q0 129 -183 129h-161v-256zM162 0v1147h475q451 0 450 -299q0 -84 -49 -149t-143 -91v-10q238 -55 238 -268q-1 -166 -131 -248t-340 -82h-500z" />
    <glyph glyph-name="Identity.211" unicode="&#x433;" horiz-adv-x="989" 
d="M162 0v1147h768v-238h-469v-909h-299z" />
    <glyph glyph-name="Identity.212" unicode="&#x434;" horiz-adv-x="1325" 
d="M1112 238h178v-197l-28 -440h-258v399h-685v-399h-258l-30 440v197h67q49 28 81 116t61 322l55 471h817v-909zM811 238v671h-279l-32 -299q-27 -233 -103 -372h414z" />
    <glyph glyph-name="Identity.213" unicode="&#x435;" horiz-adv-x="1189" 
d="M846 688q0 121 -54 188q-54 66 -156 66t-171 -66q-70 -66 -86 -188h467zM644 -29q-232 0 -392 162q-162 162 -162 434q0 273 160 441t382 168t347 -152t125 -397q0 -90 -14 -138h-707q18 -139 102 -213t215 -74t258 81l103 -185q-185 -127 -417 -127z" />
    <glyph glyph-name="Identity.214" unicode="&#x436;" horiz-adv-x="1718" 
d="M991 473v-473h-266v473h-129l-254 -473h-322l363 594l-72 168q-53 127 -133 127q-30 0 -59 -8l-49 278q43 16 86 17q120 0 202 -54t144 -190l100 -221h123v436h266v-436h121l105 221q61 135 142 189t202 55q47 0 86 -17l-48 -278q-29 8 -59 8q-79 0 -133 -127l-72 -166
l363 -596h-322l-254 473h-131z" />
    <glyph glyph-name="Identity.215" unicode="&#x437;" horiz-adv-x="1093" 
d="M512 -29q-256 0 -442 140l118 190q135 -98 295 -98q100 0 167 41t67 108q0 137 -209 137h-176v199h153q190 0 191 131q0 123 -187 123q-158 0 -282 -82l-115 193q180 123 396 123t347 -83q132 -83 132 -241q0 -78 -47 -146t-138 -98v-10q229 -57 230 -274
q0 -162 -148 -258t-352 -95z" />
    <glyph glyph-name="Identity.216" unicode="&#x438;" horiz-adv-x="1341" 
d="M162 0v1147h291v-363q0 -43 -27 -409h8q131 227 137 239l336 533h275v-1147h-291v360q0 100 27 412h-9q-102 -178 -137 -242l-336 -530h-274z" />
    <glyph glyph-name="Identity.217" unicode="&#x439;" horiz-adv-x="1341" 
d="M684 1331q-192 1 -290 101t-103 272h235q4 -104 39 -158t117 -53q82 0 116 53t38 158h235q-4 -172 -100 -272q-95 -100 -287 -101zM162 0v1147h291v-363q0 -43 -27 -409h8q131 227 137 239l336 533h275v-1147h-291v360q0 100 27 412h-9q-102 -178 -137 -242l-336 -530
h-274z" />
    <glyph glyph-name="Identity.218" unicode="&#x43a;" horiz-adv-x="1239" 
d="M461 473v-473h-299v1147h299v-436h145l105 221q63 141 143 192t203 52q47 0 86 -17l-49 -278q-26 8 -58 8q-80 0 -135 -127l-70 -158l388 -604h-328l-279 473h-151z" />
    <glyph glyph-name="Identity.219" unicode="&#x43b;" horiz-adv-x="1304" 
d="M143 -29q-70 0 -127 25l52 270q41 -10 55 -10q106 0 133 193q2 25 80 698h809v-1147h-301v909h-271q-43 -377 -67 -542q-54 -396 -363 -396z" />
    <glyph glyph-name="Identity.220" unicode="&#x43c;" horiz-adv-x="1515" 
d="M162 0v1147h342l168 -432q10 -31 41 -122t45 -140h10q76 223 88 262l158 432h342v-1147h-269v354q0 129 33 467h-10q-18 -55 -58 -161t-53 -146l-155 -412h-170l-160 412q-16 48 -55 154t-56 153h-10q33 -406 33 -467v-354h-264z" />
    <glyph glyph-name="Identity.221" unicode="&#x43d;" horiz-adv-x="1339" 
d="M162 0v1147h299v-428h418v428h301v-1147h-301v457h-418v-457h-299z" />
    <glyph glyph-name="Identity.222" unicode="&#x43e;" horiz-adv-x="1282" 
d="M641 217q115 0 179 95t65 260q0 166 -65 262q-66 96 -180 96t-178 -96t-65 -262q1 -166 65 -260q64 -95 179 -95zM641 -29q-225 0 -388 164t-163 438q0 275 162 439t389 164t389 -164t162 -438t-163 -439q-163 -164 -388 -164z" />
    <glyph glyph-name="Identity.223" unicode="&#x43f;" horiz-adv-x="1320" 
d="M162 0v1147h997v-1147h-301v909h-397v-909h-299z" />
    <glyph glyph-name="Identity.224" unicode="&#x440;" horiz-adv-x="1318" 
d="M671 219q109 0 177 94t67 275q0 340 -227 340q-109 0 -227 -119v-504q100 -86 210 -86zM162 -440v1587h246l20 -119h8q174 147 338 148q211 0 331 -159t120 -433q-1 -274 -145 -444q-144 -169 -343 -169q-147 0 -284 125l8 -188v-348h-299z" />
    <glyph glyph-name="Identity.225" unicode="&#x441;" horiz-adv-x="1079" 
d="M636 -29q-230 0 -388 162t-158 438q0 277 171 441t415 164q184 0 334 -127l-144 -195q-88 76 -176 76q-131 0 -212 -98t-81 -260q0 -161 80 -258t199 -97t229 92l119 -198q-158 -140 -388 -140z" />
    <glyph glyph-name="Identity.226" unicode="&#x442;" horiz-adv-x="1122" 
d="M412 0v909h-351v238h1002v-238h-352v-909h-299z" />
    <glyph glyph-name="Identity.227" unicode="&#x443;" horiz-adv-x="1175" 
d="M262 -461q-86 0 -158 23l56 231q47 -14 80 -14q158 0 215 174l20 67l-446 1127h303l182 -533q2 -8 96 -323h11q32 139 81 323l158 533h289l-408 -1182q-81 -217 -189 -321t-290 -105z" />
    <glyph glyph-name="Identity.228" unicode="&#x444;" horiz-adv-x="1779" 
d="M1176 219q87 0 144 94q56 94 56 275q0 340 -196 340q-80 0 -154 -58v-598q63 -53 150 -53zM610 219q84 0 144 60v595q-62 54 -150 54t-143 -93t-55 -260q-1 -356 204 -356zM743 -440v313l11 172q-117 -74 -219 -74q-201 0 -320 161t-119 435q0 273 130 441t309 168
q113 0 219 -70l-11 168v360h293v-360l-10 -176q127 78 240 78q196 0 308 -159t112 -433t-132 -444q-132 -169 -315 -169q-109 0 -213 70l10 -168v-313h-293z" />
    <glyph glyph-name="Identity.229" unicode="&#x445;" horiz-adv-x="1150" 
d="M33 0l358 598l-336 549h324l115 -205q51 -98 102 -192h8q14 30 42 96t42 96l96 205h312l-336 -584l358 -563h-323l-127 209q-12 23 -35 65t-41 75q-18 34 -35 63h-10q-14 -29 -96 -203l-107 -209h-311z" />
    <glyph glyph-name="Identity.230" unicode="&#x446;" horiz-adv-x="1355" 
d="M1147 238h178v-197l-29 -440h-258v399h-876v1147h299v-909h385v909h301v-909z" />
    <glyph glyph-name="Identity.231" unicode="&#x447;" horiz-adv-x="1253" 
d="M420 819q0 -194 204 -194q96 0 167 18v504h301v-1147h-301v408q-98 -18 -207 -19q-465 0 -465 430v328h301v-328z" />
    <glyph glyph-name="Identity.232" unicode="&#x448;" horiz-adv-x="1832" 
d="M162 0v1147h297v-909h313v909h287v-909h313v909h299v-1147h-1509z" />
    <glyph glyph-name="Identity.233" unicode="&#x449;" horiz-adv-x="1880" 
d="M1671 238h176v-197l-26 -440h-258v399h-1401v1147h297v-909h313v909h287v-909h313v909h299v-909z" />
    <glyph glyph-name="Identity.234" unicode="&#x44a;" horiz-adv-x="1431" 
d="M721 229h125q209 0 209 160q0 154 -209 154h-125v-314zM422 0v909h-361v238h660v-383h141q223 0 352 -90t129 -287q0 -387 -481 -387h-440z" />
    <glyph glyph-name="Identity.235" unicode="&#x44b;" horiz-adv-x="1677" 
d="M1214 0v1147h302v-1147h-302zM461 229h88q211 0 211 160q0 154 -211 154h-88v-314zM162 0v1147h299v-383h106q221 0 351 -90t131 -290q0 -200 -130 -292t-352 -92h-405z" />
    <glyph glyph-name="Identity.236" unicode="&#x44c;" horiz-adv-x="1183" 
d="M461 229h137q209 0 209 160q0 154 -209 154h-137v-314zM162 0v1147h299v-383h153q222 0 352 -90t130 -287q0 -387 -482 -387h-452z" />
    <glyph glyph-name="Identity.237" unicode="&#x44d;" horiz-adv-x="1079" 
d="M438 -29q-242 0 -387 140l113 178q100 -86 235 -86q268 0 303 286h-428v199h424q-43 254 -284 254q-117 0 -213 -76l-131 174q142 136 374 136t389 -156t157 -448t-156 -446q-154 -154 -396 -155z" />
    <glyph glyph-name="Identity.238" unicode="&#x44e;" horiz-adv-x="1777" 
d="M461 715h198q37 215 177 338t349 123q210 0 357 -163q148 -163 148 -441t-148 -439q-148 -162 -360 -162q-213 0 -354 129q-140 129 -173 353h-194v-453h-299v1147h299v-432zM1380 572q0 166 -57 262t-165 96t-168 -97q-62 -97 -62 -261t62 -259q62 -96 168 -96
q108 0 165 95t57 260z" />
    <glyph glyph-name="Identity.239" unicode="&#x44f;" horiz-adv-x="1245" 
d="M618 1147h467v-1147h-301v393h-153l-250 -393h-336l317 451q-215 100 -215 325q0 371 471 371zM784 602v322h-127q-213 0 -213 -156q0 -78 56 -122t157 -44h127z" />
    <glyph glyph-name="Identity.240" unicode="&#x451;" horiz-adv-x="1189" 
d="M1022 1486q0 -64 -43 -108t-110 -45q-67 0 -109 44t-43 109q0 64 43 108q44 44 110 44t109 -44t43 -108zM379 1333q-66 0 -110 44t-44 109q0 64 44 108t110 44q67 0 109 -44t42 -108t-42 -108t-109 -45zM846 688q0 121 -54 188q-54 66 -156 66t-171 -66q-70 -66 -86 -188
h467zM644 -29q-232 0 -392 162q-162 162 -162 434q0 273 160 441t382 168t347 -152t125 -397q0 -90 -14 -138h-707q18 -139 102 -213t215 -74t258 81l103 -185q-185 -127 -417 -127z" />
    <glyph glyph-name="Identity.241" unicode="&#x2010;" 
d="M768 825h512v-94h-512v94z" />
    <glyph glyph-name="Identity.242" unicode="&#x2015;" 
d="M152 825h1744v-94h-1744v94z" />
    <glyph glyph-name="Identity.243" unicode="&#x2018;" horiz-adv-x="665" 
d="M316 844q-84 0 -136 71q-51 72 -51 205q0 315 307 475l70 -133q-199 -109 -201 -291q8 2 23 3q68 0 116 -44t48 -118t-46 -121t-130 -47z" />
    <glyph glyph-name="Identity.244" unicode="&#x2019;" horiz-adv-x="665" 
d="M338 1290q-68 0 -116 43t-48 118t45 122t130 47t136 -73t52 -206q-1 -317 -310 -473l-67 131q100 57 148 126t50 167q-6 -2 -20 -2z" />
    <glyph glyph-name="Identity.245" unicode="&#x201c;" horiz-adv-x="1177" 
d="M828 844q-84 0 -136 71q-51 72 -51 205q0 315 307 475l70 -133q-199 -109 -201 -291q8 2 23 3q68 0 116 -44t48 -118t-46 -121t-130 -47zM316 844q-84 0 -136 71q-51 72 -51 205q0 315 307 475l70 -133q-199 -109 -201 -291q8 2 23 3q68 0 116 -44t48 -118t-46 -121
t-130 -47z" />
    <glyph glyph-name="Identity.246" unicode="&#x201d;" horiz-adv-x="1177" 
d="M850 1290q-68 0 -116 43t-48 118t45 122t130 47t136 -73t52 -206q-1 -317 -310 -473l-67 131q100 57 148 126t50 167q-6 -2 -20 -2zM338 1290q-68 0 -116 43t-48 118t45 122t130 47t136 -73t52 -206q-1 -317 -310 -473l-67 131q100 57 148 126t50 167q-6 -2 -20 -2z" />
    <glyph glyph-name="Identity.247" unicode="&#x2020;" 
d="M1161 1581l-22 -477l393 20v-239l-393 20l22 -1022h-274l22 1022l-393 -20v239l393 -20l-22 477h274z" />
    <glyph glyph-name="Identity.248" unicode="&#x2021;" 
d="M1161 1581l-22 -444l393 18v-240l-393 21l2 -401l391 20v-240l-393 21l22 -453h-274l22 453l-393 -21v240l393 -20v401l-393 -21v240l393 -18l-22 444h274z" />
    <glyph glyph-name="Identity.249" unicode="&#x2025;" 
d="M1370 778q0 70 48 118t118 48t118 -48t48 -118t-48 -118t-118 -48t-118 48t-48 118zM346 778q0 70 48 118t118 48t118 -48t48 -118t-48 -118t-118 -48t-118 48t-48 118z" />
    <glyph glyph-name="Identity.250" unicode="&#x2026;" 
d="M1540 778q0 70 48 118t118 48t118 -48t48 -118t-48 -118t-118 -48t-118 48t-48 118zM858 778q0 70 48 118t118 48t118 -48t48 -118t-48 -118t-118 -48t-118 48t-48 118zM176 778q0 70 48 118t118 48t118 -48t48 -118t-48 -118t-118 -48t-118 48t-48 118z" />
    <glyph glyph-name="Identity.251" unicode="&#x2030;" 
d="M1817 449q-1 157 -21 243t-78 84q-96 0 -96 -323q0 -160 22 -243t78 -83t75 83q20 83 20 239zM1186 449q0 157 -20 243t-79 84q-96 0 -96 -324t101 -325q55 0 74 83q20 83 20 239zM1452 446q0 201 74 336t200 133q94 0 155 -73q106 -131 106 -373q0 -243 -77 -363
q-78 -120 -178 -118q-100 0 -164 70q-116 124 -116 388zM821 446q0 201 74 336t201 133q94 1 154 -73q106 -130 106 -373t-77 -363t-177 -118q-100 0 -165 70q-116 124 -116 388zM426 1074q0 157 -20 244t-78 85q-96 0 -96 -325t100 -324q54 0 74 82t20 238zM61 1073
q0 199 74 335t201 134q94 0 154 -74q106 -131 106 -373q0 -243 -77 -362t-178 -119t-165 70q-115 128 -115 389zM238 -29l802 1575h138l-803 -1575h-137z" />
    <glyph glyph-name="Identity.252" unicode="&#x2032;" horiz-adv-x="665" 
d="M190 942l48 655l299 -2l-50 -270l-100 -385z" />
    <glyph glyph-name="Identity.253" unicode="&#x2033;" horiz-adv-x="1177" 
d="M702 942l46 655l301 -2l-50 -270l-100 -385zM190 942l48 655l299 -2l-50 -270l-100 -385z" />
    <glyph glyph-name="Identity.254" unicode="&#x203b;" 
d="M870 195q0 63 45 108t109 45t108 -45q46 -45 46 -108t-45 -109t-109 -45q-64 0 -109 45q-45 46 -45 109zM1608 625q-63 0 -109 45q-45 45 -45 108q0 62 45 108t109 46t108 -45q45 -45 45 -109t-45 -108q-45 -45 -108 -45zM440 932q62 0 108 -45t46 -109t-45 -108
q-45 -45 -109 -45t-108 45q-45 45 -45 108q0 62 45 108t108 46zM348 1513l676 -675l676 675l59 -59l-676 -676l676 -676l-59 -59l-676 676l-678 -678l-59 59l678 678l-676 676zM1178 1362q0 -62 -45 -108t-109 -46t-109 45t-45 109t45 108q45 46 109 46t108 -46
q46 -46 46 -108z" />
    <glyph glyph-name="Identity.255" unicode="&#x2103;" 
d="M1517 -29q-298 0 -496 207t-198 574q0 368 204 582t507 214q256 0 442 -194l-168 -189q-120 119 -284 119t-277 -140t-113 -383t108 -384t283 -141t308 143l170 -184q-188 -224 -486 -224zM383 1096q72 0 117 49t45 127t-45 127t-117 49t-117 -49t-45 -127t45 -127
t117 -49zM382 946q-136 0 -230 92t-94 234t94 233q94 92 230 92t230 -92t94 -233q0 -142 -94 -234t-230 -92z" />
    <glyph glyph-name="Identity.256" unicode="&#x212b;" 
d="M682 1712q0 131 93 211t243 80t243 -80t93 -211q0 -162 -135 -244l473 -1468h-322l-106 389h-490l-106 -389h-312l469 1462q-143 82 -143 250zM1017 1536q67 0 109 43t43 115q0 72 -44 116q-45 44 -109 43q-64 0 -107 -44q-43 -45 -43 -117t42 -114t109 -42zM840 625h360
l-45 168q-27 88 -72 262t-61 231h-10q-78 -326 -127 -493z" />
    <glyph glyph-name="Identity.257" unicode="&#x2190;" 
d="M1966 674h-1448q143 -104 273 -281l-185 -102q-104 133 -248 264t-286 223q141 92 285 223t249 265l185 -103q-129 -176 -273 -280h1448v-209z" />
    <glyph glyph-name="Identity.258" unicode="&#x2191;" 
d="M920 -164v1448q-104 -143 -281 -272l-102 184q133 104 264 248t223 287q92 -141 223 -285t264 -250l-102 -184q-176 129 -281 272v-1448h-208z" />
    <glyph glyph-name="Identity.259" unicode="&#x2192;" 
d="M82 674v209h1448q-143 104 -273 280l185 103q104 -132 248 -264t286 -224q-141 -92 -285 -223t-249 -264l-185 102q129 176 273 281h-1448z" />
    <glyph glyph-name="Identity.260" unicode="&#x2193;" 
d="M1128 1720v-1448q104 143 281 273l102 -185q-133 -104 -264 -248t-223 -286q-92 142 -223 286t-264 248l102 185q176 -129 281 -273v1448h208z" />
    <glyph glyph-name="Identity.261" unicode="&#x21d2;" 
d="M82 956v207h1206q-90 109 -153 219l178 103q123 -201 312 -395t378 -314q-188 -121 -378 -314q-189 -194 -312 -394l-178 102q63 111 153 219h-1206v207h1384q100 111 197 180q-96 70 -197 180h-1384z" />
    <glyph glyph-name="Identity.262" unicode="&#x21d4;" 
d="M1520 956h-992q-90 -113 -174 -180q84 -68 174 -180h992q90 113 174 180q-84 67 -174 180zM643 1485l180 -103q-59 -117 -139 -219h680q-80 102 -139 219l180 103q109 -201 273 -395t325 -314q-162 -120 -326 -314t-272 -394l-180 102q59 117 139 219h-680
q80 -102 139 -219l-180 -102q-109 200 -273 394t-325 314q161 120 325 314t273 395z" />
    <glyph glyph-name="Identity.263" unicode="&#x2200;" 
d="M766 897l254 -489h8l254 489h-516zM1638 1581l185 -96l-795 -1518h-8l-795 1518l185 96l247 -475h734z" />
    <glyph glyph-name="Identity.264" unicode="&#x2202;" 
d="M647 490q0 -136 74 -210t190 -75q274 0 385 327q-37 133 -128 203q-92 70 -210 70t-215 -89q-96 -90 -96 -226zM1405 977q0 181 -85 283t-235 102q-180 0 -323 -152l-148 176q229 188 504 189q231 0 387 -161t156 -438t-113 -531q-59 -132 -144 -235t-214 -168t-283 -65
q-242 1 -375 137t-133 362t165 382q165 154 378 154q276 0 438 -226h4q21 97 21 191z" />
    <glyph glyph-name="Identity.265" unicode="&#x2203;" 
d="M387 1530h1268v-1507h-1268v206h1059v445h-1059v209h1059v440h-1059v207z" />
    <glyph glyph-name="Identity.266" unicode="&#x2207;" 
d="M1192 672l225 563h-794l219 -563l170 -461h10zM287 1489h1474v-182l-551 -1334h-372l-551 1334v182z" />
    <glyph glyph-name="Identity.267" unicode="&#x2208;" 
d="M1784 1227h-854q-172 -1 -298 -97t-161 -249h1313v-209h-1313q35 -154 161 -250t298 -96h854v-207h-854q-289 0 -486 188t-196 469q0 281 196 469q197 188 486 189h854v-207z" />
    <glyph glyph-name="Identity.268" unicode="&#x220b;" 
d="M1118 1227h-854v207h854q289 0 486 -188q196 -188 196 -470q0 -281 -196 -469t-486 -188h-854v207h854q172 0 298 96t161 250h-1313v209h1313q-35 154 -161 250t-298 96z" />
    <glyph glyph-name="Identity.269" unicode="&#x221a;" 
d="M2048 1802v-96h-846l-659 -1894h-66l-223 569l-139 -195l-58 43l297 416l199 -508l580 1665h915z" />
    <glyph glyph-name="Identity.270" unicode="&#x221d;" 
d="M266 776q0 -98 62 -160t155 -61q217 0 406 221q-188 221 -406 221q-93 1 -155 -61t-62 -160zM1565 555q61 0 114 18l78 -192q-86 -33 -196 -33q-295 0 -537 268q-240 -268 -537 -268q-168 0 -299 114t-131 314t131 316q131 115 299 114q295 0 537 -270q244 270 537 270
q104 0 196 -35l-78 -192q-51 18 -114 18q-220 0 -404 -221q184 -221 404 -221z" />
    <glyph glyph-name="Identity.271" unicode="&#x221e;" 
d="M1565 555q92 0 154 61q63 62 63 160t-62 160t-155 61q-220 0 -404 -221q184 -221 404 -221zM266 776q0 -98 62 -160t155 -61q217 0 406 221q-188 221 -406 221q-93 1 -155 -61t-62 -160zM1561 1206q168 0 298 -114t130 -316q0 -200 -130 -314t-298 -114q-295 0 -537 268
q-240 -268 -537 -268q-168 0 -299 114t-131 314t131 316q131 115 299 114q295 0 537 -270q244 270 537 270z" />
    <glyph glyph-name="Identity.272" unicode="&#x2220;" 
d="M688 266h1129v-207h-1620v9l1343 1349l148 -147l-1000 -998v-6z" />
    <glyph glyph-name="Identity.273" unicode="&#x2225;" 
d="M1006 -27l-185 95l649 1298l189 -92zM389 281l653 1302l185 -94l-649 -1301z" />
    <glyph glyph-name="Identity.274" unicode="&#x2227;" 
d="M225 78l795 1515h8l795 -1515l-185 -98l-610 1173h-8l-610 -1173z" />
    <glyph glyph-name="Identity.275" unicode="&#x2228;" 
d="M1823 1475l-795 -1516h-8l-795 1516l185 98l610 -1174h8l610 1174z" />
    <glyph glyph-name="Identity.276" unicode="&#x2229;" 
d="M367 870q0 289 188 486q188 196 469 196t469 -196t188 -486v-854h-206v854q0 203 -129 339q-129 137 -322 137t-322 -136t-129 -340v-854h-206v854z" />
    <glyph glyph-name="Identity.277" unicode="&#x222a;" 
d="M1681 682q0 -290 -188 -486t-469 -196t-469 197t-188 485v854h206v-854q0 -201 129 -337t322 -136t322 136t129 337v854h206v-854z" />
    <glyph glyph-name="Identity.278" unicode="&#x222b;" 
d="M897 385v834q0 526 395 526q59 0 131 -14l-22 -236q-41 8 -84 8q-88 -1 -127 -71t-39 -261v-833q0 -526 -395 -526q-59 0 -131 14l22 235q41 -8 84 -8q88 0 127 71t39 261z" />
    <glyph glyph-name="Identity.279" unicode="&#x222c;" 
d="M1300 385v834q0 526 398 526q59 0 131 -14l-23 -236q-41 8 -86 8q-86 -1 -125 -71t-39 -261v-833q0 -526 -395 -526q-59 0 -131 14l23 235q41 -8 84 -8q87 -1 125 69t38 263zM492 385v834q0 526 395 526q59 0 131 -14l-23 -236q-41 8 -84 8q-88 1 -126 -69t-37 -263v-833
q0 -526 -398 -526q-59 0 -131 14l23 235q41 -8 86 -8q86 0 125 71t39 261z" />
    <glyph glyph-name="Identity.280" unicode="&#x2234;" 
d="M1348 314q0 73 52 126q52 54 125 54t125 -54t52 -126q0 -73 -52 -125t-125 -52t-125 52t-52 125zM346 314q0 73 52 126q52 54 125 54t126 -54t53 -126q0 -73 -53 -125t-126 -52t-125 52t-52 125zM846 1238q0 73 52 125t126 52t126 -52t52 -125t-52 -126t-126 -53t-126 53
t-52 126z" />
    <glyph glyph-name="Identity.281" unicode="&#x2235;" 
d="M846 314q0 73 52 126q52 54 126 54t126 -54t52 -126q0 -73 -52 -125t-126 -52t-126 52t-52 125zM1348 1238q0 73 52 125t125 52t125 -52t52 -125t-52 -126t-125 -53t-125 53t-52 126zM346 1238q0 73 52 125t125 52t126 -52t53 -125t-53 -126t-126 -53t-125 53t-52 126z
" />
    <glyph glyph-name="Identity.282" unicode="&#x223d;" 
d="M1550 1206q180 0 309 -114q130 -114 130 -317t-131 -315t-306 -112q-113 0 -196 33l78 192q50 -18 136 -18t149 59q63 60 63 160t-62 162t-155 61q-145 0 -251 -76q-105 -77 -226 -231q-120 -154 -264 -248t-324 -94t-312 114q-131 114 -131 316t132 315q132 114 307 113
q104 0 196 -35l-78 -192q-54 18 -138 18t-146 -59q-62 -60 -64 -160q0 -100 62 -162t155 -61q145 0 251 77q105 76 226 230q122 154 266 249t324 95z" />
    <glyph glyph-name="Identity.283" unicode="&#x2252;" 
d="M1387 -4q-73 0 -125 52t-52 125t52 125t126 52q72 0 124 -52t52 -125t-52 -125t-125 -52zM297 666h1454v-177h-1454v177zM297 1063h1454v-176h-1454v176zM483 1379q1 73 53 125t125 52t125 -52t52 -125t-52 -125t-126 -52q-72 0 -124 52t-53 125z" />
    <glyph glyph-name="Identity.284" unicode="&#x2260;" 
d="M1751 907h-569l-97 -264h666v-209h-741l-136 -377l-196 72l113 305h-494v209h567l97 264h-664v207h739l138 381l196 -72l-113 -309h494v-207z" />
    <glyph glyph-name="Identity.285" unicode="&#x2261;" 
d="M297 424h1454v-193h-1454v193zM297 872h1454v-192h-1454v192zM297 1321h1454v-193h-1454v193z" />
    <glyph glyph-name="Identity.286" unicode="&#x2266;" 
d="M264 86h1520v-192h-1520v192zM264 469h1520v-193h-1520v193zM1747 1745l72 -197l-1020 -385v-6l1020 -387l-72 -195l-1540 582v6z" />
    <glyph glyph-name="Identity.287" unicode="&#x2267;" 
d="M264 86h1520v-192h-1520v192zM264 469h1520v-193h-1520v193zM301 1745l1540 -582v-6l-1540 -582l-72 195l1020 387v6l-1020 385z" />
    <glyph glyph-name="Identity.288" unicode="&#x226a;" 
d="M1880 1575l100 -145l-931 -650v-8l931 -649l-100 -146l-1137 795v8zM1202 1575l101 -145l-934 -650v-8l934 -649l-101 -146l-1136 795v8z" />
    <glyph glyph-name="Identity.289" unicode="&#x226b;" 
d="M846 1575l1136 -795v-8l-1136 -795l-101 146l934 649v8l-934 650zM168 1575l1137 -795v-8l-1137 -795l-100 146l931 649v8l-931 650z" />
    <glyph glyph-name="Identity.290" unicode="&#x2282;" 
d="M930 119q-289 0 -486 188t-196 469q0 281 196 469q197 188 486 189h854v-207h-854q-201 0 -337 -129t-136 -322q0 -194 136 -322t337 -128h854v-207h-854z" />
    <glyph glyph-name="Identity.291" unicode="&#x2283;" 
d="M1118 1434q289 0 486 -188q196 -188 196 -470q0 -281 -196 -469t-486 -188h-854v207h854q203 0 339 129t136 321t-136 322q-136 129 -339 129h-854v207h854z" />
    <glyph glyph-name="Identity.292" unicode="&#x2286;" 
d="M264 186h1520v-209h-1520v209zM834 1366q-168 0 -272 -100t-105 -246q0 -146 105 -248t272 -102h950v-207h-953q-251 0 -417 162t-166 394t166 394t417 162h953v-209h-950z" />
    <glyph glyph-name="Identity.293" unicode="&#x2287;" 
d="M264 186h1520v-209h-1520v209zM1217 670q166 0 271 101t105 247t-105 248q-105 100 -271 100h-953v209h953q251 0 417 -162t166 -394t-166 -394t-417 -162h-953v207h953z" />
    <glyph glyph-name="Identity.294" unicode="&#x22a5;" 
d="M1128 270h725v-209h-1658v209h725v1239h208v-1239z" />
    <glyph glyph-name="Identity.295" unicode="&#x2312;" 
d="M41 1339q399 403 983 403t983 -403l-86 -196q-393 369 -897 369t-897 -369z" />
    <glyph glyph-name="Identity.296" unicode="&#x2500;" 
d="M0 737v82h2048v-82h-2048z" />
    <glyph glyph-name="Identity.297" unicode="&#x2501;" 
d="M0 655v246h2048v-246h-2048z" />
    <glyph glyph-name="Identity.298" unicode="&#x2502;" 
d="M983 -246v2048h82v-2048h-82z" />
    <glyph glyph-name="Identity.299" unicode="&#x2503;" 
d="M901 -246v2048h246v-2048h-246z" />
    <glyph glyph-name="Identity.300" unicode="&#x250c;" 
d="M2048 737h-983v-983h-82v1065h1065v-82z" />
    <glyph glyph-name="Identity.301" unicode="&#x250f;" 
d="M2048 655h-901v-901h-246v1147h1147v-246z" />
    <glyph glyph-name="Identity.302" unicode="&#x2510;" 
d="M1065 -246h-82v983h-983v82h1065v-1065z" />
    <glyph glyph-name="Identity.303" unicode="&#x2513;" 
d="M1147 -246h-246v901h-901v246h1147v-1147z" />
    <glyph glyph-name="Identity.304" unicode="&#x2514;" 
d="M2048 737h-1065v1065h82v-983h983v-82z" />
    <glyph glyph-name="Identity.305" unicode="&#x2517;" 
d="M901 655v1147h246v-901h901v-246h-1147z" />
    <glyph glyph-name="Identity.306" unicode="&#x2518;" 
d="M1065 737h-1065v82h983v983h82v-1065z" />
    <glyph glyph-name="Identity.307" unicode="&#x251b;" 
d="M0 655v246h901v901h246v-1147h-1147z" />
    <glyph glyph-name="Identity.308" unicode="&#x251c;" 
d="M2048 737h-983v-983h-82v2048h82v-983h983v-82z" />
    <glyph glyph-name="Identity.309" unicode="&#x251d;" 
d="M2048 655h-983v-901h-82v2048h82v-901h983v-246z" />
    <glyph glyph-name="Identity.310" unicode="&#x2520;" 
d="M2048 737h-901v-983h-246v2048h246v-983h901v-82z" />
    <glyph glyph-name="Identity.311" unicode="&#x2523;" 
d="M2048 655h-901v-901h-246v2048h246v-901h901v-246z" />
    <glyph glyph-name="Identity.312" unicode="&#x2524;" 
d="M1065 -246h-82v983h-983v82h983v983h82v-2048z" />
    <glyph glyph-name="Identity.313" unicode="&#x2525;" 
d="M1065 -246h-82v901h-983v246h983v901h82v-2048z" />
    <glyph glyph-name="Identity.314" unicode="&#x2528;" 
d="M1147 -246h-246v983h-901v82h901v983h246v-2048z" />
    <glyph glyph-name="Identity.315" unicode="&#x252b;" 
d="M1147 -246h-246v901h-901v246h901v901h246v-2048z" />
    <glyph glyph-name="Identity.316" unicode="&#x252c;" 
d="M2048 737h-983v-983h-82v983h-983v82h2048v-82z" />
    <glyph glyph-name="Identity.317" unicode="&#x252f;" 
d="M2048 655h-983v-901h-82v901h-983v246h2048v-246z" />
    <glyph glyph-name="Identity.318" unicode="&#x2530;" 
d="M2048 737h-901v-983h-246v983h-901v82h2048v-82z" />
    <glyph glyph-name="Identity.319" unicode="&#x2533;" 
d="M2048 655h-901v-901h-246v901h-901v246h2048v-246z" />
    <glyph glyph-name="Identity.320" unicode="&#x2534;" 
d="M2048 737h-2048v82h983v983h82v-983h983v-82z" />
    <glyph glyph-name="Identity.321" unicode="&#x2537;" 
d="M2048 655h-2048v246h983v901h82v-901h983v-246z" />
    <glyph glyph-name="Identity.322" unicode="&#x2538;" 
d="M2048 737h-2048v82h901v983h246v-983h901v-82z" />
    <glyph glyph-name="Identity.323" unicode="&#x253b;" 
d="M2048 655h-2048v246h901v901h246v-901h901v-246z" />
    <glyph glyph-name="Identity.324" unicode="&#x253c;" 
d="M2048 737h-983v-983h-82v983h-983v82h983v983h82v-983h983v-82z" />
    <glyph glyph-name="Identity.325" unicode="&#x253f;" 
d="M2048 655h-983v-901h-82v901h-983v246h983v901h82v-901h983v-246z" />
    <glyph glyph-name="Identity.326" unicode="&#x2542;" 
d="M2048 737h-901v-983h-246v983h-901v82h901v983h246v-983h901v-82z" />
    <glyph glyph-name="Identity.327" unicode="&#x254b;" 
d="M2048 655h-901v-901h-246v901h-901v246h901v901h246v-901h901v-246z" />
    <glyph glyph-name="Identity.328" unicode="&#x25a0;" 
d="M205 1597h1638v-1638h-1638v1638z" />
    <glyph glyph-name="Identity.329" unicode="&#x25a1;" 
d="M295 1507v-1458h1458v1458h-1458zM205 1597h1638v-1638h-1638v1638z" />
    <glyph glyph-name="Identity.330" unicode="&#x25b2;" 
d="M1024 1692l963 -1667h-1926z" />
    <glyph glyph-name="Identity.331" unicode="&#x25b3;" 
d="M1024 1511l-807 -1396h1614zM1024 1692l963 -1667h-1926z" />
    <glyph glyph-name="Identity.332" unicode="&#x25bc;" 
d="M61 1532h1926l-963 -1667z" />
    <glyph glyph-name="Identity.333" unicode="&#x25bd;" 
d="M1831 1442h-1614l807 -1397zM61 1532h1926l-963 -1667z" />
    <glyph glyph-name="Identity.334" unicode="&#x25c6;" 
d="M1024 1778l999 -1000l-999 -999l-999 999z" />
    <glyph glyph-name="Identity.335" unicode="&#x25c7;" 
d="M1024 1651l-870 -873l870 -872l872 872zM1024 1778l999 -1000l-999 -999l-999 999z" />
    <glyph glyph-name="Identity.336" unicode="&#x25cb;" 
d="M193 778q-1 -344 243 -588t588 -244t588 244t243 588q0 344 -243 588q-244 244 -588 244t-588 -244t-243 -588zM1024 -143q-250 0 -463 123q-213 124 -336 336t-123 462t123 463t336 336t463 123t463 -123t336 -336t123 -463t-123 -463t-336 -335t-463 -123z" />
    <glyph glyph-name="Identity.337" unicode="&#x25ce;" 
d="M1550 778q0 217 -154 372q-155 155 -372 155t-372 -155q-154 -155 -154 -372q0 -218 154 -372t372 -154t372 154t154 372zM422 778q0 250 176 426t426 176t426 -176t176 -426t-176 -426t-426 -176t-426 176t-176 426zM1855 778q0 344 -243 588q-244 244 -588 244
t-588 -244t-244 -588t244 -588t588 -244t588 244q243 244 243 588zM102 778q0 250 123 463t336 336t463 123t463 -123t336 -336t123 -463t-123 -463t-336 -335t-463 -123q-250 0 -463 123q-213 124 -336 336t-123 462z" />
    <glyph glyph-name="Identity.338" unicode="&#x25cf;" 
d="M1024 -143q-250 0 -463 123q-213 124 -336 336t-123 462t123 463t336 336t463 123t463 -123t336 -336t123 -463t-123 -463t-336 -335t-463 -123z" />
    <glyph glyph-name="Identity.339" unicode="&#x25ef;" 
d="M1915 778q0 369 -261 630t-630 261t-630 -261t-261 -630t261 -630t630 -261t630 261t261 630zM1024 1745q399 0 683 -284t284 -683t-284 -683q-284 -283 -683 -283t-683 284t-284 682q0 399 284 683t683 284z" />
    <glyph glyph-name="Identity.340" unicode="&#x2605;" 
d="M1970 995v-12l-577 -420l227 -690l-8 -4l-588 426l-588 -426l-8 4l227 690l-577 420v12h715l225 686h12l225 -686h715z" />
    <glyph glyph-name="Identity.341" unicode="&#x2606;" 
d="M858 905h-321l-240 15v-5l203 -131l262 -186l-103 -299l-94 -238l4 -4l203 166l252 185l252 -185l203 -166l4 4l-94 238l-103 299l262 186l203 131v5l-240 -15h-321l-105 316l-59 229h-4l-61 -229zM793 995l221 686h20l221 -686h713l6 -20l-581 -412l231 -686l-14 -12
l-586 430l-586 -430l-14 12l231 686l-581 412l6 20h713z" />
    <glyph glyph-name="Identity.342" unicode="&#x2640;" 
d="M758 1205q0 -109 79 -187t189 -78t186 78q78 78 78 187q0 110 -78 188q-78 77 -188 77t-188 -78t-78 -187zM551 1220q0 182 138 321q138 138 335 138t335 -138q138 -139 138 -321t-103 -311t-266 -164v-167h560v-209h-560v-492h-208v492h-560v209h560v167
q-162 35 -266 164q-103 129 -103 311z" />
    <glyph glyph-name="Identity.343" unicode="&#x2642;" 
d="M969 456q0 110 -79 188t-189 79q-109 -1 -187 -79t-78 -188t78 -188t188 -78t188 78q79 78 79 188zM1176 457q0 -197 -138 -335t-336 -138q-196 0 -334 138t-139 335q1 197 139 335t334 138q135 0 248 -72l488 488h-441v206h801v-800h-207v454l-493 -491q78 -121 78 -258
z" />
    <glyph glyph-name="Identity.344" unicode="&#x266a;" 
d="M995 1720h52q0 -244 237 -450q264 -228 264 -456t-172 -505h-53q129 270 129 438q0 169 -106 299t-269 166v-1028q1 -154 -111 -251t-264 -97q-76 0 -133 40t-57 112q0 106 113 194t241 88q80 0 129 -26v1476z" />
    <glyph glyph-name="Identity.345" unicode="&#x266d;" 
d="M1243 643q0 172 -143 172q-74 -1 -157 -65t-157 -187v-559q52 58 148 150t155 150q58 58 106 150t48 189zM1226 954q134 0 219 -78t85 -193q0 -222 -205 -375q-95 -71 -195 -133q-296 -183 -407 -314h-18v1837h81v-1028q74 128 190 206t250 78z" />
    <glyph glyph-name="Identity.346" unicode="&#x266f;" 
d="M1180 602v414l-324 -47v-416zM1260 -84h-80v453l-324 -47v-467h-82v454l-278 -41v232l278 41v415l-278 -43v232l278 43v448h82v-436l324 47v449h80v-436l278 43v-234l-278 -41v-414l278 41v-231l-278 -43v-465z" />
    <glyph glyph-name="Identity.347" unicode="&#x3001;" 
d="M741 47l-219 -188q-203 248 -440 452l213 185q104 -86 234 -218t212 -231z" />
    <glyph glyph-name="Identity.348" unicode="&#x3002;" 
d="M397 -6q76 0 129 53q54 53 54 130t-54 130t-130 53q-75 0 -129 -54t-54 -130t54 -129t130 -53zM66 176q0 136 97 234t233 98t234 -97t97 -235q0 -138 -97 -234q-98 -98 -234 -98t-233 98t-97 234z" />
    <glyph glyph-name="Identity.349" unicode="&#x3003;" 
d="M1366 1268l285 -125l-465 -912l-156 70zM733 1268l283 -125l-465 -912l-156 70z" />
    <glyph glyph-name="Identity.350" unicode="&#x3005;" 
d="M1593 1253l189 -100q-137 -391 -414 -786q162 -106 244 -189l-170 -233q-111 119 -332 262t-440 244l151 204q152 -66 320 -153q162 225 278 497h-585q-201 -389 -431 -608q-109 80 -235 137q215 193 382 498t251 610l272 -61q-63 -184 -127 -332h602z" />
    <glyph glyph-name="Identity.351" unicode="&#x3006;" 
d="M545 289q12 17 405 526q-238 174 -440 279l188 223q246 -150 428 -275q387 496 471 605l238 -152q-188 -213 -489 -606q264 -190 452 -346l-203 -250q-135 139 -430 362q-186 -244 -428 -567q-72 -98 -184 -268l-246 80q12 90 12 133q-4 303 -45 534l250 37
q6 -63 12 -176t9 -139z" />
    <glyph glyph-name="Identity.352" unicode="&#x3007;" 
d="M1712 778q0 285 -202 487q-202 201 -486 201t-486 -202t-202 -486t202 -486t486 -202t486 202t202 486zM84 778q0 388 275 664t665 276t664 -275q276 -275 276 -665t-275 -664q-275 -276 -665 -276t-664 276q-276 276 -276 664z" />
    <glyph glyph-name="Identity.353" unicode="&#x3008;" 
d="M1403 778l534 -878l-202 -88l-588 966l588 967l202 -88z" />
    <glyph glyph-name="Identity.354" unicode="&#x3009;" 
d="M313 -188l-202 88l534 878l-534 879l202 88l588 -967z" />
    <glyph glyph-name="Identity.355" unicode="&#x300a;" 
d="M1604 778l389 -913l-172 -53l-406 966l406 967l172 -53zM1251 778l387 -913l-170 -53l-407 966l407 967l170 -53z" />
    <glyph glyph-name="Identity.356" unicode="&#x300b;" 
d="M227 -188l-172 53l389 913l-389 914l172 53l406 -967zM580 -188l-170 53l387 913l-387 914l170 53l407 -967z" />
    <glyph glyph-name="Identity.357" unicode="&#x300c;" 
d="M1313 436v1309h678v-221h-437v-1088h-241z" />
    <glyph glyph-name="Identity.358" unicode="&#x300d;" 
d="M737 1120v-1308h-680v221h437v1087h243z" />
    <glyph glyph-name="Identity.359" unicode="&#x300e;" 
d="M1901 1655h-582v-1174h215v989h367v185zM1991 1380h-369v-989h-393v1354h762v-365z" />
    <glyph glyph-name="Identity.360" unicode="&#x300f;" 
d="M147 -98h582v1173h-215v-989h-367v-184zM57 176h369v989h393v-1353h-762v364z" />
    <glyph glyph-name="Identity.361" unicode="&#x3010;" 
d="M1352 1745h639v-10q-178 -154 -292 -405t-114 -552t114 -552t292 -404v-10h-639v1933z" />
    <glyph glyph-name="Identity.362" unicode="&#x3011;" 
d="M696 1745v-1933h-639v10q178 154 292 404t114 552q0 301 -114 552t-292 405v10h639z" />
    <glyph glyph-name="Identity.363" unicode="&#x3012;" 
d="M338 1030h1372v-217h-569v-793h-234v793h-569v217zM338 1487h1372v-217h-1372v217z" />
    <glyph glyph-name="Identity.364" unicode="&#x3013;" 
d="M1843 573v-614h-1638v614h1638zM1843 1597v-614h-1638v614h1638z" />
    <glyph glyph-name="Identity.365" unicode="&#x3014;" 
d="M1898 -213l-479 307v1368l479 307l99 -161l-352 -226v-1208l352 -225z" />
    <glyph glyph-name="Identity.366" unicode="&#x3015;" 
d="M629 94l-479 -307l-99 162l352 225v1208l-352 226l99 161l479 -307v-1368z" />
    <glyph glyph-name="Identity.367" unicode="&#x301c;" 
d="M1415 465q-276 0 -483 225q-74 78 -140 113t-163 35q-99 0 -183 -67t-145 -179l-225 123q100 186 244 281t313 96q276 0 483 -226q72 -78 138 -112t165 -35q98 0 183 66q84 67 145 180l225 -123q-100 -186 -244 -282t-313 -95z" />
    <glyph glyph-name="Identity.368" unicode="&#x3041;" 
d="M1763 434q0 -190 -134 -336t-425 -198l-123 192q229 27 341 126t112 247t-164 213q-125 -319 -348 -502q12 -45 37 -127l-211 -61q-12 41 -21 63q-131 -63 -243 -63t-178 58t-66 207t117 301t293 237q2 78 14 202h-49q-121 0 -297 15l-6 206q172 -25 303 -24h69l11 92
q8 57 4 102l248 -4q-16 -54 -41 -184q315 16 565 74l2 -209q-252 -43 -594 -60q-12 -84 -12 -135q123 27 237 27h29q12 53 16 92l211 -51q-6 -14 -26 -76q154 -49 242 -162t87 -262zM627 201q70 0 155 49q-29 156 -34 325q-86 -61 -142 -142t-55 -157q0 -76 76 -75zM975 408
q125 129 199 301q-109 -2 -216 -35q1 -139 17 -266z" />
    <glyph glyph-name="Identity.369" unicode="&#x3042;" 
d="M1884 520q0 -223 -153 -404t-514 -235l-136 213q276 31 414 154q137 123 137 284q0 94 -54 170t-155 115q-160 -393 -428 -614q14 -53 47 -152l-233 -69q-23 68 -27 81q-164 -81 -299 -81t-212 74t-76 223q0 190 141 377t356 288q12 172 21 254h-66q-76 0 -358 12l-8 236
q186 -27 374 -27h78l12 109q8 78 7 121l266 -7q-25 -74 -49 -217q381 12 688 86l2 -233q-281 -51 -721 -74q-12 -119 -14 -182q158 37 303 37h35q14 76 18 121l250 -58q-12 -29 -37 -104q179 -58 285 -190t106 -308zM528 229q88 0 203 66q-37 211 -43 405
q-114 -76 -184 -181t-70 -191q0 -99 94 -99zM915 803q0 -178 23 -336q166 166 256 385q-146 -2 -279 -45v-4z" />
    <glyph glyph-name="Identity.370" unicode="&#x3043;" 
d="M1477 1147q127 -152 215 -415t104 -466l-250 -96q-25 242 -98 499q-74 257 -207 400zM621 884q0 -204 16 -344t59 -234q43 -95 103 -95q53 0 99 106t73 236l190 -219q-80 -220 -164 -316q-85 -96 -215 -96t-239 138t-146 458q-23 184 -23 398t-14 272l279 -2
q-18 -98 -18 -302z" />
    <glyph glyph-name="Identity.371" unicode="&#x3044;" 
d="M1550 1415q140 -170 246 -480t125 -556l-268 -103q-27 289 -118 585t-243 468zM735 -35q-178 0 -305 179q-192 271 -190 1020q0 226 -15 298l312 -4q-49 -243 -13 -676q47 -492 217 -491q66 0 122 122t93 275l205 -246q-98 -258 -199 -368t-227 -109z" />
    <glyph glyph-name="Identity.372" unicode="&#x3045;" 
d="M700 1341q342 -66 775 -77l-37 -224q-152 8 -397 34t-375 50zM1362 520q0 88 -64 144t-178 55q-180 0 -444 -86q-78 -25 -154 -60l-69 261q78 2 168 22q379 80 526 80q215 0 342 -111t127 -307q0 -258 -210 -431t-603 -232l-129 229q688 80 688 436z" />
    <glyph glyph-name="Identity.373" unicode="&#x3046;" 
d="M602 1649q168 -37 455 -65t456 -28l-40 -249q-598 41 -912 96zM1534 1030q150 -133 149 -366q0 -314 -263 -518t-701 -265l-148 254q826 95 826 539q0 104 -78 174t-215 67q-214 0 -435 -69q-91 -29 -94 -29l-196 -69l-76 288q106 10 278 49q349 78 575 78
q228 0 378 -133z" />
    <glyph glyph-name="Identity.374" unicode="&#x3047;" 
d="M1395 -119q-125 0 -188 36q-62 36 -89 106q-12 27 -27 86t-22 73q-29 94 -90 94q-37 0 -111 -73q-127 -131 -288 -338l-222 153q35 27 97 84q477 461 587 588q-110 -9 -260 -19t-274 -32l-21 254q70 -8 164 -4q559 27 613 34t90 19l129 -145q-10 -8 -50 -37t-55 -41
q-178 -154 -270 -254q37 -4 70 -23q61 -20 92 -120q8 -20 23 -72t22 -74q27 -66 115 -65q170 0 321 34l-14 -241q-121 -23 -342 -23zM721 1337q207 -51 706 -88l-32 -217q-434 39 -709 90z" />
    <glyph glyph-name="Identity.375" unicode="&#x3048;" 
d="M1479 170q223 0 397 35l-16 -266q-147 -29 -398 -29q-150 0 -230 39t-116 135q-8 20 -59 205q-33 98 -109 98q-53 0 -131 -82q-180 -180 -362 -414l-242 168q74 57 122 105t295 298q247 249 429 437q-160 -5 -373 -25t-303 -36l-25 280q72 -6 180 -6t367 14
q261 14 351 26t137 28l149 -170q-14 -10 -133 -103q-242 -209 -330 -305q43 0 76 -16q82 -27 125 -137q8 -25 26 -92t29 -93q27 -94 144 -94zM643 1655q383 -72 827 -99l-32 -239q-469 41 -834 102z" />
    <glyph glyph-name="Identity.376" unicode="&#x3049;" 
d="M1311 985l108 193q260 -127 418 -242l-121 -199q-51 47 -184 126t-221 122zM1452 328q0 176 -262 176q-138 0 -277 -41q8 -279 9 -338q0 -258 -195 -258q-133 0 -274 97t-141 218t108 230q109 109 272 182v227q-31 -2 -116 -2t-218 12l-2 236q139 -18 222 -18t116 2v100
q0 92 -10 154h256q-12 -82 -16 -154l-4 -82q184 24 303 57l2 -227q-150 -35 -312 -55q-2 -61 -2 -176q166 39 312 39q209 1 341 -105t132 -273t-102 -280t-316 -155q-27 -6 -191 -21l-77 238q124 0 212 14t159 66q71 53 71 137zM651 109q51 -1 51 69t-6 199
q-160 -90 -159 -176q-1 -31 39 -61t75 -31z" />
    <glyph glyph-name="Identity.377" unicode="&#x304a;" 
d="M1360 1239l113 199q121 -58 271 -144t226 -141l-123 -209q-66 58 -221 150t-266 145zM874 225q0 -178 -57 -248t-166 -69q-163 0 -321 117t-158 257t129 267t326 213q-2 47 -2 141v170q-77 -4 -179 -4t-213 10l-4 246q135 -16 225 -16t173 4q2 72 2 165t-15 179h279
q-10 -89 -23 -322q211 29 373 76l6 -254q-145 -33 -387 -63q-2 -62 -2 -183v-71q209 53 389 53q240 0 399 -121t158 -323q0 -389 -446 -500q-115 -25 -266 -33l-95 260q165 0 273 18t190 86q82 67 82 169t-82 160q-82 59 -240 59t-358 -56q10 -305 10 -387zM571 182
q66 0 66 89t-6 249q-95 -47 -151 -106q-56 -60 -56 -108t52 -86t95 -38z" />
    <glyph glyph-name="Identity.378" unicode="&#x304b;" 
d="M1401 1319l246 102q87 -123 195 -359t159 -394l-256 -121q-43 185 -143 415t-201 357zM1038 1243q367 0 367 -387q0 -755 -246 -884q-82 -42 -204 -42t-240 29l-45 268q150 -43 254 -43t145 88q84 166 84 555q0 113 -46 149t-153 36q-25 0 -139 -8q-180 -713 -412 -1084
l-266 107q244 328 410 948q-115 -12 -174 -23q-104 -10 -226 -30l-22 274q125 -9 477 16q45 250 43 430l301 -30q-25 -106 -36 -165t-24 -122t-18 -90q135 8 170 8z" />
    <glyph glyph-name="Identity.379" unicode="&#x304c;" 
d="M1763 1401l-104 -45q84 -133 182 -347t148 -360l-258 -121q-43 184 -141 410t-201 354l188 80q-94 178 -139 242l161 67q62 -90 164 -280zM1024 1229q367 0 367 -387q0 -757 -245 -884q-81 -42 -204 -42t-242 29l-45 268q151 -43 255 -43t147 88q82 166 82 555
q0 113 -46 149t-151 35q-25 0 -139 -8q-186 -721 -414 -1083l-264 106q250 338 407 949q-115 -12 -174 -23q-104 -10 -225 -31l-22 275q125 -9 477 16q45 250 43 430l301 -31q-10 -39 -31 -149t-47 -227q135 8 170 8zM2007 1495l-162 -72q-94 186 -166 283l162 68
q96 -136 166 -279z" />
    <glyph glyph-name="Identity.380" unicode="&#x304d;" 
d="M1731 1163l49 -229q-106 -39 -314 -82q98 -207 168 -338l-121 -154q-229 41 -442 68l23 195q47 -5 125 -13t90 -10l-92 211q-418 -47 -891 -12l-11 233q451 -43 809 -4l-84 195q-338 -29 -698 8l-12 231q352 -37 614 -22v2q-43 88 -98 174l289 55q20 -86 63 -203
q215 35 389 95l43 -228q-184 -53 -348 -82l86 -190q211 41 363 100zM594 356q0 -213 354 -213q311 0 537 45l-8 -260q-238 -39 -527 -39q-288 1 -448 103t-160 307q0 110 49 276l252 -22q-49 -113 -49 -197z" />
    <glyph glyph-name="Identity.381" unicode="&#x304e;" 
d="M1659 1698l149 67q98 -135 172 -270l-153 -74q-78 156 -168 277zM1432 1610l151 63q94 -137 162 -276l-154 -70q-79 170 -159 283zM1651 1145l47 -230q-106 -39 -314 -81q98 -207 168 -338l-120 -154q-236 43 -443 68l23 192q176 -17 217 -20q-37 82 -92 211
q-420 -47 -893 -13l-11 234q453 -43 809 -4l-32 77q-43 100 -52 117q-336 -29 -696 8l-14 232q350 -37 614 -23v2q-53 106 -98 174l291 56q20 -86 63 -203q172 27 314 76l43 -228q-125 -39 -273 -63l84 -191q207 42 365 101zM514 338q0 -213 352 -213q315 0 537 45l-8 -260
q-238 -39 -526 -39q-289 0 -449 102t-160 308q0 118 51 276l250 -22q-47 -117 -47 -197z" />
    <glyph glyph-name="Identity.382" unicode="&#x304f;" 
d="M1262 1681l237 -211q-74 -55 -353 -276q-280 -221 -361 -291q-81 -69 -79 -103t85 -106q39 -35 293 -241t450 -392l-236 -217q-115 129 -178 189q-123 129 -606 538q-147 129 -141 225t159 226q453 370 570 484t160 175z" />
    <glyph glyph-name="Identity.383" unicode="&#x3050;" 
d="M1229 1681l239 -211q-107 -74 -147 -108q-41 -35 -263 -212t-303 -247q-81 -69 -80 -103t83 -106q495 -396 743 -633l-235 -217q-43 49 -100 109q-58 59 -76 80q-111 115 -607 538q-151 129 -145 225t162 226q426 344 560 475t169 184zM1589 1282q45 -63 174 -303
l-166 -70q-133 244 -176 303zM1341 1184q49 -70 172 -303l-167 -72q-129 250 -168 309z" />
    <glyph glyph-name="Identity.384" unicode="&#x3051;" 
d="M1325 1210q-7 332 -33 412h297q-12 -58 -12 -397q184 12 305 37l-2 -265q-119 -14 -301 -24v-84q0 -162 -7 -268q-18 -275 -104 -430q-105 -189 -329 -332l-236 184q154 70 238 162q113 117 150 265q38 148 38 419v74q-152 -5 -220 -5t-321 11v258q142 -21 262 -21t275 4
zM537 102q0 -26 6 -104l-228 -23q-43 121 -79 305t-37 353q0 393 67 809q13 70 13 176l301 -31q-37 -111 -48 -164q-131 -600 -67 -901q12 27 44 111t50 123l129 -80q-86 -252 -137 -496q-14 -52 -14 -78z" />
    <glyph glyph-name="Identity.385" unicode="&#x3052;" 
d="M1769 1663l140 43q66 -133 112 -285l-139 -45q-72 203 -113 287zM1522 852q0 -162 -8 -268q-19 -272 -105 -428q-103 -189 -330 -334l-233 184q154 70 237 162q111 116 150 266t39 420v51q-140 -4 -228 -4t-292 12v258q158 -23 265 -23t251 5q-7 322 -33 412h295
q-6 -49 -10 -140v-258q211 18 325 39l-2 -266q-123 -14 -321 -25v-63zM502 50q0 -32 4 -89l-225 -22q-43 115 -80 301t-37 356q0 367 67 788q9 50 13 175l301 -29q-29 -80 -49 -166q-129 -590 -68 -879q17 45 96 234l127 -80q-85 -253 -117 -405t-32 -184zM1806 1354
l-141 -47q-63 203 -106 290l139 43q71 -153 108 -286z" />
    <glyph glyph-name="Identity.386" unicode="&#x3053;" 
d="M588 420q0 -102 102 -162t314 -61q420 0 712 79l2 -284q-286 -70 -668 -70q-733 0 -735 434q0 105 41 293l267 -24q-35 -139 -35 -205zM998 1460q320 0 593 29v-272q-341 -25 -589 -25t-551 22v271q227 -25 547 -25z" />
    <glyph glyph-name="Identity.387" unicode="&#x3054;" 
d="M1686 1706l161 66q92 -125 166 -279l-162 -70q-89 179 -165 283zM958 1171q-248 0 -550 23v270q223 -24 529 -24t595 26q-51 95 -88 148l162 65q82 -121 163 -280l-165 -72q-24 42 -58 113v-244q-340 -25 -588 -25zM545 399q0 -102 101 -162t312 -61q420 0 713 80l2 -287
q-291 -67 -671 -67t-555 111q-175 112 -175 323q0 109 39 293l267 -25q-33 -131 -33 -205z" />
    <glyph glyph-name="Identity.388" unicode="&#x3055;" 
d="M1335 713l-178 370q-371 -39 -854 0l-8 260q418 -53 758 -20q-23 45 -57 125t-87 166l287 55q41 -125 119 -309q207 39 397 102l47 -256q-164 -45 -344 -82q137 -287 262 -518l-143 -153q-211 43 -461 73l23 209q81 -13 239 -22zM596 388q0 -108 80 -171t304 -63t377 28
q44 8 154 31l-6 -268q-270 -49 -561 -49q-292 0 -452 112t-160 324q0 129 57 334l262 -23q-55 -147 -55 -255z" />
    <glyph glyph-name="Identity.389" unicode="&#x3056;" 
d="M1681 1718l162 68q92 -133 166 -279l-162 -71q-90 178 -166 282zM1303 698l-177 369q-375 -39 -856 0l-8 260q418 -53 758 -20l-43 96q-55 123 -100 194l288 56q37 -123 117 -310q147 29 283 68q-72 141 -127 219l161 68q90 -133 162 -281l-69 -31l37 -196
q-168 -47 -345 -82q125 -268 261 -518l-144 -152q-182 37 -461 72l23 209q209 -18 240 -21zM912 -121q-291 0 -452 112t-161 324q0 129 57 334l265 -20q-124 -314 22 -427q81 -62 273 -62t248 6q56 8 98 13q41 5 81 12t77 11t59 15l-6 -269q-270 -49 -561 -49z" />
    <glyph glyph-name="Identity.390" unicode="&#x3057;" 
d="M991 154q422 0 695 413l184 -227q-114 -170 -314 -302q-109 -73 -256 -117t-311 -44q-260 0 -403 120t-144 372l21 979q0 159 -27 274l328 -4q-23 -139 -27 -270q-25 -520 -24 -924q0 -270 278 -270z" />
    <glyph glyph-name="Identity.391" unicode="&#x3058;" 
d="M680 414q0 -272 278 -273q422 0 695 414l184 -225q-112 -167 -313 -303q-236 -160 -568 -160q-260 0 -403 120t-143 371l20 979q0 158 -27 273l328 -2q-23 -139 -26 -271q-25 -526 -25 -923zM1532 1559q131 -180 199 -320l-179 -86q-96 190 -196 326zM1257 1448
q123 -184 193 -330l-184 -80q-88 195 -187 334z" />
    <glyph glyph-name="Identity.392" unicode="&#x3059;" 
d="M1395 598q0 -213 -140 -415q-73 -103 -203 -189t-309 -135l-215 217q348 74 496 231q-47 -10 -92 -10q-133 0 -242 100q-108 101 -108 271t117 275q118 105 288 106q43 0 80 -7l-2 136q-436 -6 -870 -31l-7 246l873 14q0 162 -21 238h295q-6 -27 -14 -175l-2 -61h588
l-2 -240q-205 10 -588 11q2 -102 2 -301q76 -113 76 -281zM981 834q-63 0 -109 -42t-47 -114q0 -72 46 -114t114 -42t108 58t21 182q-41 72 -133 72z" />
    <glyph glyph-name="Identity.393" unicode="&#x305a;" 
d="M522 638q0 171 118 276t288 106q43 0 82 -6l-2 135q-438 -6 -873 -31l-6 246l875 14l-3 62q-14 147 -20 176h295q-6 -27 -14 -174l-2 -62h247q-76 147 -133 232l168 69q78 -110 144 -239l-142 -62h303l-2 -241q-246 12 -588 12q2 -102 3 -301q76 -113 75 -281
q0 -217 -138 -415q-71 -102 -203 -188t-308 -136l-217 217q352 74 496 232q-47 -10 -93 -11q-130 0 -240 100t-110 270zM922 805q-60 0 -108 -42t-48 -114q0 -73 47 -115t114 -42t107 59t21 184q-43 70 -133 70zM1962 1501l-172 -71q-70 141 -143 241l170 70
q92 -138 145 -240z" />
    <glyph glyph-name="Identity.394" unicode="&#x305b;" 
d="M1312 432q-104 0 -284 31l6 223q198 -39 233 -15q13 9 20 59t11 222q-281 -23 -550 -51q-4 -373 -1 -458t11 -124t42 -71t96 -41q62 -8 179 -8q326 0 606 53l-10 -279q-274 -33 -525 -33t-367 21t-179 81t-82 138q-18 78 -21 192t-3 502l-138 -14q-25 -4 -243 -37
l-27 260q100 0 254 13l154 14v205q0 111 -17 225h287q-12 -102 -12 -214t-2 -191q324 31 553 51v229q-1 98 -15 184h275q-6 -37 -19 -393q332 23 348 25v-250q-71 5 -352 -10q-12 -309 -28 -397t-57 -114q-39 -28 -143 -28z" />
    <glyph glyph-name="Identity.395" unicode="&#x305c;" 
d="M1759 1593l139 43q63 -131 111 -278l-139 -45q-68 196 -111 280zM1278 397q-98 0 -289 33l6 223q196 -39 233 -16q13 9 20 61t12 222q-201 -16 -551 -54q-4 -370 -1 -456t11 -125t42 -71t95 -40t180 -8q315 0 606 51l-10 -278q-312 -33 -544 -33t-348 20t-179 80t-82 139
q-18 78 -21 194t-3 501l-138 -15q-109 -14 -243 -34l-27 260q100 0 254 12l154 14v205q0 113 -17 223h287q-12 -98 -12 -211t-2 -192q322 31 553 51v227q-1 97 -15 187h275q-6 -37 -19 -393q324 22 348 24v-250l-196 -2q-119 -6 -156 -8q-13 -310 -29 -398t-56 -116
t-138 -27zM1794 1286l-141 -47q-70 211 -105 283l140 45q73 -164 106 -281z" />
    <glyph glyph-name="Identity.396" unicode="&#x305d;" 
d="M1804 971v-240q-332 20 -520 -4q-142 -19 -242 -111t-100 -209t80 -173t230 -73t307 -5l-54 -267q-395 -16 -609 103t-214 368q0 88 43 176t104 144q-272 -20 -614 -80l-25 246q31 2 355 41q217 141 571 461q-25 -2 -220 -14t-275 -21q-79 -8 -101 -10l-12 260
q157 -15 426 0q270 14 354 23t144 26l159 -187q-143 -99 -188 -135t-216 -176t-237 -192q467 49 854 49z" />
    <glyph glyph-name="Identity.397" unicode="&#x305e;" 
d="M881 407q0 -117 80 -173q81 -56 231 -73t305 -5l-53 -267q-395 -16 -609 103t-214 368q0 88 43 176t104 144q-272 -20 -614 -80l-25 246q31 2 354 41q217 141 572 461q-25 -2 -220 -14t-274 -20q-80 -9 -102 -11l-13 260q157 -15 427 0q270 14 354 23t143 26l160 -187
q-142 -99 -188 -135t-217 -176t-236 -192q467 49 852 49l2 -240q-332 20 -520 -4q-143 -19 -243 -111t-99 -209zM1747 1405q94 -129 147 -240l-151 -69q-78 152 -146 239zM1522 1313q70 -104 139 -244l-156 -68q-66 143 -135 246z" />
    <glyph glyph-name="Identity.398" unicode="&#x305f;" 
d="M1474 182q176 0 398 41l-10 -260q-229 -29 -414 -29q-254 0 -385 84t-131 240q0 100 35 270l243 -22q-28 -100 -28 -172t58 -112t234 -40zM420 1079q-70 0 -215 8l-6 254q139 -16 241 -16t195 6q36 206 27 322l309 -25q-23 -95 -31 -135q-8 -41 -12 -55l-17 -78
q178 28 340 67v-256q-180 -39 -393 -65q-34 -154 -76 -320t-134 -436q-92 -272 -173 -442l-285 94q86 144 188 414t139 411q38 141 67 256q-94 -4 -164 -4zM1488 1036q171 0 349 -18l-6 -244q-201 25 -383 25t-356 -23v240q225 20 396 20z" />
    <glyph glyph-name="Identity.399" unicode="&#x3060;" 
d="M1645 1579l161 66q96 -135 166 -279l-162 -70q-89 179 -165 283zM1120 309q0 -71 58 -111t225 -40q166 0 407 41l-10 -260q-229 -29 -414 -29q-254 0 -385 84t-131 239q0 105 35 271l244 -21q-29 -104 -29 -174zM358 1057q-70 0 -215 8l-6 252q121 -14 233 -14t203 6
q37 205 27 321l309 -24q-8 -35 -24 -112t-19 -81l-16 -76q166 25 340 66v-254q-172 -41 -393 -68q-77 -360 -190 -692q-113 -331 -193 -506l-285 94q86 147 187 417q102 270 152 456t54 211q-94 -4 -164 -4zM1390 777q-162 0 -360 -23v237q394 42 746 4l-7 -245
q-217 27 -379 27zM1726 1272l-163 -72q-92 190 -160 285l162 67q89 -133 161 -280z" />
    <glyph glyph-name="Identity.400" unicode="&#x3061;" 
d="M1216 899q260 0 408 -120q150 -120 150 -314q0 -332 -292 -468t-802 -83l-72 262q172 -29 328 -29q353 0 489 129q76 72 76 174t-81 166q-82 64 -240 64t-306 -62t-237 -178q-18 -20 -57 -88l-240 86q129 250 231 680q-172 2 -350 21v252q211 -35 397 -39q2 12 7 40l6 42
q12 113 10 204l287 -12q-10 -31 -47 -207l-13 -61q408 22 750 96l4 -246q-426 -66 -805 -86q-45 -211 -92 -350q231 127 491 127z" />
    <glyph glyph-name="Identity.401" unicode="&#x3062;" 
d="M1675 1706l162 66q84 -121 166 -279l-162 -70q-90 179 -166 283zM1432 1614l163 65q74 -109 162 -280l-164 -70q-116 222 -161 285zM1140 877q260 0 410 -120t150 -315q0 -332 -293 -468t-803 -83l-72 263q172 -29 328 -29q352 0 490 129q76 72 76 174t-80 166
q-80 63 -240 63t-307 -62q-199 -84 -295 -265l-240 86q123 238 225 659q-170 2 -344 21v252q211 -37 394 -39q34 155 24 307l289 -12q-10 -31 -47 -207l-17 -82q397 18 725 90l5 -244q-385 -63 -781 -82q-47 -207 -88 -329q231 127 491 127z" />
    <glyph glyph-name="Identity.402" unicode="&#x3063;" 
d="M1243 1081q242 0 388 -134t147 -363q0 -281 -246 -455t-721 -203l-106 252q496 12 697 184q108 92 108 216t-80 196t-211 72q-242 0 -813 -242l-105 266q115 20 170 38t127 40t115 35q190 53 302 75q113 23 228 23z" />
    <glyph glyph-name="Identity.403" unicode="&#x3064;" 
d="M1235 1376q285 0 470 -156t185 -429q0 -344 -307 -553t-846 -238l-116 270q595 13 845 236q133 120 133 278t-98 252t-276 94q-330 0 -989 -294l-115 286q102 16 181 41t187 59t339 94t407 60z" />
    <glyph glyph-name="Identity.404" unicode="&#x3065;" 
d="M1853 760q0 -344 -307 -553t-846 -236l-116 271q417 8 694 133q135 61 210 161t75 239q-1 139 -99 233t-276 94q-307 0 -989 -295l-115 285q131 22 266 66q136 46 174 56t201 58q240 70 473 74q285 0 470 -156t185 -430zM1819 1739q84 -121 166 -279l-164 -69
q-82 166 -164 282zM1575 1647q78 -111 164 -283l-164 -70q-104 205 -162 285z" />
    <glyph glyph-name="Identity.405" unicode="&#x3066;" 
d="M985 672q0 -241 201 -355q176 -99 454 -116l-94 -281q-331 20 -572 194q-256 185 -256 523q0 180 91 347q90 167 209 257q-604 -63 -838 -115l-24 279q129 4 192 10t881 78q283 23 573 35l2 -262q-274 0 -391 -27q-180 -49 -304 -217t-124 -350z" />
    <glyph glyph-name="Identity.406" unicode="&#x3067;" 
d="M981 680q0 -172 95 -278q96 -106 236 -152q140 -45 324 -53l-94 -281q-332 20 -572 193q-256 183 -256 525q0 181 91 348q90 167 209 255q-598 -63 -838 -115l-26 279q156 5 347 23q855 81 1301 100l2 -262q-274 0 -391 -27q-180 -49 -304 -216t-124 -339zM1745 1159
q102 -143 172 -272l-154 -74q-74 145 -168 277zM1516 1065q111 -164 163 -279l-155 -69q-76 166 -160 284z" />
    <glyph glyph-name="Identity.407" unicode="&#x3068;" 
d="M610 414q0 -223 422 -224q340 0 664 74l-4 -293q-295 -49 -652 -49q-709 0 -708 461q0 287 336 535q-123 229 -285 604l256 104q96 -262 254 -561q98 57 265 147t239 132t121 83l141 -235q-83 -48 -361 -188t-405 -222q-283 -184 -283 -368z" />
    <glyph glyph-name="Identity.408" unicode="&#x3069;" 
d="M1667 1659l164 67q94 -139 164 -280l-162 -70q-90 179 -166 283zM1425 1567l162 65q76 -109 164 -280l-166 -70q-88 183 -160 285zM573 383q0 -223 422 -223q338 0 662 73l-4 -290q-287 -51 -652 -52q-709 0 -708 463q0 285 336 533q-119 221 -283 604l256 104
q96 -262 254 -561q82 49 215 121t215 118t144 97l126 -237q-104 -62 -322 -170t-380 -211q-281 -184 -281 -369z" />
    <glyph glyph-name="Identity.409" unicode="&#x306a;" 
d="M1464 215q0 -154 -93 -245t-295 -91t-328 87t-125 245q0 158 120 257q121 99 328 99q51 0 137 -8q1 11 -22 453h256q-11 -168 12 -516q225 -84 420 -260l-135 -218q-156 143 -275 215v-18zM1219 301v39q-88 20 -170 20t-135 -33q-52 -34 -52 -89q0 -54 46 -90t128 -35
q183 0 183 188zM424 1096q-96 0 -227 6l-19 237q123 -14 242 -14t211 6q49 195 55 340l281 -29q-59 -240 -70 -276q143 25 272 64l7 -236q-166 -45 -353 -70q-73 -216 -193 -456t-241 -412l-248 125q115 141 228 340t186 377q-35 -2 -131 -2zM1933 1118l-143 -215
q-84 68 -231 155t-256 134l131 201q111 -49 267 -135t232 -140z" />
    <glyph glyph-name="Identity.410" unicode="&#x306b;" 
d="M297 -78q-80 276 -80 610t68 747q37 240 37 308l284 -24q-54 -137 -100 -463q-47 -325 -47 -430t8 -162q36 98 90 205l127 -99q-154 -456 -158 -591q4 -24 4 -84zM1325 248q268 0 522 53l6 -274q-219 -41 -501 -41q-540 0 -539 333q0 105 35 265l233 -23
q-25 -98 -24 -170q0 -143 268 -143zM918 1430q200 -25 448 -23t424 23v-263q-432 -39 -870 0z" />
    <glyph glyph-name="Identity.411" unicode="&#x306c;" 
d="M117 342q0 359 245 635q-18 49 -63 182t-72 197l242 100q25 -139 80 -305q195 143 422 188q16 149 4 289l282 -8q-8 -40 -17 -108t-9 -74l-8 -78q270 -12 443 -185t173 -452q0 -182 -37 -336q109 -82 201 -190l-152 -193q-72 88 -141 160q-137 -217 -387 -217
q-160 0 -255 78t-95 210t97 228q98 96 236 96t261 -43q18 94 18 201q0 199 -105 309t-288 117q-122 -734 -498 -1044q-138 -113 -271 -113q-132 0 -219 94t-87 262zM938 1108q-170 -51 -305 -176q69 -170 151 -307q95 186 154 483zM438 252q82 0 197 141q-104 156 -174 330
q-111 -182 -111 -336q0 -55 24 -95t64 -40zM1313 174q117 0 192 143q-95 47 -167 47t-108 -27q-36 -28 -36 -70q0 -41 31 -67t88 -26z" />
    <glyph glyph-name="Identity.412" unicode="&#x306d;" 
d="M561 1536q0 68 -8 117l297 -8q-20 -92 -45 -289l76 -96q-29 -37 -105 -154l-2 -21q334 293 590 293q215 0 338 -166t123 -444q0 -190 -23 -324q98 -72 209 -188l-131 -211q-70 86 -149 156q-117 -246 -402 -246q-178 0 -289 83q-110 82 -110 234t109 241q110 89 292 89
q127 0 234 -37q10 113 10 221q0 164 -70 262t-186 99q-238 0 -565 -365q-6 -102 -6 -315t12 -404q0 -57 14 -155h-278q6 66 8 264t6 332q-152 -227 -256 -375l-160 225q240 291 434 580l9 141l-369 -47l-25 260q160 -7 410 29q8 151 8 219zM1315 184q135 0 201 164
q-109 49 -191 49q-82 1 -128 -27t-46 -75q0 -111 164 -111z" />
    <glyph glyph-name="Identity.413" unicode="&#x306e;" 
d="M1614 731q0 213 -112 357t-312 180q-55 -336 -121 -551q-92 -315 -224 -487t-298 -173q-166 0 -288 169t-122 421q0 172 73 332q73 159 197 277t298 189t366 71q369 0 594 -226t225 -560q0 -333 -198 -545t-576 -269l-151 240q109 14 188 32q205 50 333 190t128 353z
M559 369q127 0 248 401q68 217 108 492q-237 -48 -375 -226t-139 -362q-1 -143 47 -224t111 -81z" />
    <glyph glyph-name="Identity.414" unicode="&#x306f;" 
d="M1181 -84q-204 0 -326 87t-122 244t123 253t328 96q78 0 133 -8q-12 240 -14 416q-231 -9 -500 10v241q176 -18 313 -18t184 2l-4 225q0 51 -12 133h291q-16 -110 -19 -342q193 20 314 48v-252q-160 -23 -316 -35q4 -182 23 -496q196 -80 391 -262l-137 -213
q-127 119 -246 203q-10 -154 -105 -243t-299 -89zM1327 340v35q-84 23 -167 23t-136 -34q-53 -32 -53 -90t52 -89q52 -29 139 -29t126 46t39 138zM201 526q0 342 84 875q18 128 18 198l283 -24q-55 -140 -100 -482q-46 -343 -46 -451t9 -163q18 47 90 207l125 -100
q-163 -467 -156 -578q0 -55 2 -84l-229 -16q-80 276 -80 618z" />
    <glyph glyph-name="Identity.415" unicode="&#x3070;" 
d="M678 223q0 158 122 254t328 96q76 0 132 -8q-12 242 -15 414l-143 -2q-176 0 -354 12l-3 244q286 -30 498 -16l-2 223q0 66 -14 133h291q-19 -131 -19 -340q161 14 313 47v-254q-125 -18 -315 -33q4 -182 23 -495q193 -80 393 -262l-137 -216q-131 123 -248 203
q-10 -155 -106 -243t-299 -88q-205 0 -325 86q-120 87 -120 245zM1270 317v35q-84 23 -166 23t-136 -34t-54 -91t52 -87t140 -30t126 45t38 139zM383 618q0 -106 8 -163q16 43 50 119t40 90l127 -101q-115 -336 -136 -433t-21 -149t2 -81l-228 -15q-82 266 -82 645
q0 266 84 846q19 127 21 199l280 -23q-54 -132 -99 -479q-46 -349 -46 -455zM1798 1382l-143 -49q-66 209 -105 285l140 43q59 -121 108 -279zM2013 1448l-141 -45q-68 197 -111 280l140 43q57 -118 112 -278z" />
    <glyph glyph-name="Identity.416" unicode="&#x3071;" 
d="M1796 1761q92 -1 157 -65t65 -156t-65 -156q-65 -63 -157 -63t-157 63q-65 64 -65 156t65 157q65 64 157 64zM1795 1442q42 0 72 28q29 28 29 71q0 42 -29 71q-30 28 -72 28t-71 -30q-28 -30 -28 -70q0 -41 28 -70q29 -28 71 -28zM678 223q0 158 122 254t328 96
q76 0 132 -8q-12 242 -15 414l-143 -2q-176 0 -354 12l-3 244q286 -30 498 -16l-2 223q0 66 -14 133h291q-19 -131 -19 -340q161 14 313 47v-254q-125 -18 -315 -33q4 -182 23 -495q193 -80 393 -262l-137 -216q-131 123 -248 203q-10 -155 -106 -243t-299 -88
q-205 0 -325 86q-120 87 -120 245zM1270 317v35q-84 23 -166 23t-136 -34t-54 -91t52 -87t140 -30t126 45t38 139zM383 618q0 -106 8 -163q16 43 50 119t40 90l127 -101q-115 -336 -136 -433t-21 -149t2 -81l-228 -15q-82 266 -82 645q0 266 84 846q19 127 21 199l280 -23
q-54 -132 -99 -479q-46 -349 -46 -455z" />
    <glyph glyph-name="Identity.417" unicode="&#x3072;" 
d="M856 -119q-256 0 -413 154t-156 411q0 214 93 430t226 367q-188 -25 -273 -45t-108 -24l-35 264q173 0 438 45t363 78l76 -226q-90 -39 -100 -45q-135 -104 -277 -342t-143 -467q0 -161 90 -243t231 -82q303 0 439 333q135 334 14 877q-29 78 -43 119l246 76
q110 -512 436 -840l-188 -203q-100 129 -185 275q12 -370 -160 -630q-86 -130 -233 -206t-338 -76z" />
    <glyph glyph-name="Identity.418" unicode="&#x3073;" 
d="M500 451q0 -162 90 -245t231 -83q303 0 439 334q135 334 14 876q-29 78 -43 119l246 76q111 -510 436 -840l-191 -201q-94 121 -182 271q12 -370 -160 -629q-86 -129 -233 -205t-338 -76q-256 0 -413 154t-156 412q0 215 93 430t226 366q-210 -28 -381 -69l-37 264
q177 0 442 45t361 80l76 -227q-68 -25 -100 -46q-136 -104 -278 -342t-142 -464zM1786 1352l-154 -52q-68 201 -119 299l154 48q82 -184 119 -295zM2013 1430l-153 -52q-68 193 -121 295l147 51q61 -118 127 -294z" />
    <glyph glyph-name="Identity.419" unicode="&#x3074;" 
d="M1786 1716q98 0 168 -68t70 -167q0 -98 -70 -168t-168 -70t-168 70t-70 168q0 99 70 167t168 68zM1786 1368q47 0 80 33q32 33 32 79t-32 79q-33 33 -79 33t-79 -32t-33 -79t32 -80t79 -33zM500 451q0 -162 90 -245t231 -83q303 0 439 334q135 334 14 876q-29 78 -43 119
l246 76q111 -510 436 -840l-189 -201q-104 135 -184 273q12 -295 -97 -522q-118 -246 -353 -339q-127 -50 -281 -51q-256 0 -413 154t-156 412q0 215 93 430t226 366q-210 -28 -381 -69l-37 264q177 0 442 45t361 80l76 -227q-68 -25 -100 -46q-136 -104 -278 -342
t-142 -464z" />
    <glyph glyph-name="Identity.420" unicode="&#x3075;" 
d="M737 442q-225 -242 -514 -417l-155 219q131 70 277 184t239 213zM1985 188l-246 -131q-41 160 -132 353t-190 315l221 117q92 -115 196 -311t151 -343zM928 166q174 0 174 131q0 84 -74 199q-120 186 -344 358l199 166q35 -35 92 -91t74 -73q170 -172 253 -311t82 -277
q0 -188 -112 -270t-289 -82q-176 0 -330 29l-39 268q172 -47 314 -47zM1124 999l-163 148q106 80 124 94q-160 109 -403 197l149 190q346 -131 523 -244l61 -159q-207 -169 -291 -226z" />
    <glyph glyph-name="Identity.421" unicode="&#x3076;" 
d="M709 426q-229 -242 -516 -418l-154 221q129 68 276 183t240 215zM1954 174l-246 -131q-37 157 -129 349t-190 319l221 116q92 -113 194 -311t150 -342zM899 150q174 0 174 133q0 85 -75 199t-156 196q-98 94 -189 160l201 168q31 -31 85 -84q238 -234 327 -383
q88 -150 88 -285q0 -188 -113 -270t-289 -82t-327 28l-39 269q166 -49 313 -49zM1096 983l-166 150q47 31 127 94q-162 109 -406 196l152 189q322 -117 522 -242l61 -160q-190 -155 -290 -227zM1841 1485q84 -121 166 -279l-164 -69q-76 158 -164 282zM1597 1393
q74 -104 164 -281l-164 -72q-104 205 -161 287z" />
    <glyph glyph-name="Identity.422" unicode="&#x3077;" 
d="M709 426q-229 -242 -516 -418l-154 221q129 68 276 183t240 215zM1954 174l-246 -131q-37 157 -129 349t-190 319l221 116q92 -113 194 -311t150 -342zM899 150q174 0 174 133q0 85 -75 199t-156 196q-98 94 -189 160l201 168q31 -31 85 -84q238 -234 327 -383
q88 -150 88 -285q0 -188 -113 -270t-289 -82t-327 28l-39 269q166 -49 313 -49zM1096 983l-166 150q47 31 127 94q-162 109 -406 196l152 189q322 -117 522 -242l61 -160q-190 -155 -290 -227zM1507 1260q0 100 72 173t174 73t174 -74q72 -72 72 -172t-72 -172t-174 -72
t-174 72t-72 172zM1634 1261q0 -48 35 -83t84 -35t84 35t35 83t-35 84q-35 35 -84 35t-84 -36t-35 -83z" />
    <glyph glyph-name="Identity.423" unicode="&#x3078;" 
d="M86 614q90 74 156 144t208 244q140 173 183 223q209 240 422 32q77 -78 229 -255t191 -220q270 -297 495 -497l-209 -240q-188 178 -448 483q-57 68 -190 230q-132 162 -183 219q-55 57 -88 54t-80 -61t-186 -247t-190 -265q-50 -77 -64 -98z" />
    <glyph glyph-name="Identity.424" unicode="&#x3079;" 
d="M70 580q86 66 156 139t209 247q140 174 181 224q209 238 422 31q129 -129 420 -476q287 -307 496 -495l-211 -240q-180 168 -625 710q-137 167 -192 226t-90 56t-77 -57t-317 -419q-28 -38 -70 -108t-59 -92zM1726 1524q111 -147 201 -320l-178 -86q-98 188 -199 324z
M1452 1411q123 -184 195 -328l-185 -79q-100 209 -188 333z" />
    <glyph glyph-name="Identity.425" unicode="&#x307a;" 
d="M70 580q86 66 156 139t209 247q140 174 181 224q209 238 422 31q129 -129 420 -476q287 -307 496 -495l-211 -240q-180 168 -625 710q-137 167 -192 226t-90 56t-77 -57t-317 -419q-28 -38 -70 -108t-59 -92zM1335 1234q0 112 77 190t189 77q111 0 189 -78
q78 -77 78 -189t-78 -188t-190 -77q-112 1 -188 77q-77 76 -77 188zM1470 1235q0 -53 38 -92t92 -39t93 39q38 39 38 92t-38 91t-92 38q-55 0 -93 -38t-38 -91z" />
    <glyph glyph-name="Identity.426" unicode="&#x307b;" 
d="M1548 227q0 -141 -92 -221t-280 -80t-309 82q-119 82 -119 230t109 239q110 90 308 90q76 0 133 -8q-8 152 -10 240q-225 -6 -461 6v235q238 -18 459 -12v254q-248 -4 -428 6v225q498 -39 965 27v-225q-129 -14 -301 -25v-252q137 6 344 31v-235q-131 -16 -342 -27
q2 -123 14 -303q217 -78 416 -256l-133 -221q-131 133 -273 221v-21zM1307 309v47q-74 20 -154 20t-127 -29q-47 -30 -47 -83t43 -83t119 -29q166 -1 166 157zM508 8q0 -55 2 -84l-231 -16q-82 268 -82 599t82 896q18 125 18 199l283 -25q-61 -188 -102 -507
q-40 -320 -40 -431t8 -166q16 41 51 116q34 75 42 97l127 -100q-158 -453 -158 -578z" />
    <glyph glyph-name="Identity.427" unicode="&#x307c;" 
d="M1495 199q0 -141 -93 -221q-94 -80 -282 -80t-307 82t-119 230t109 238t307 91q76 0 133 -9q-8 152 -10 240q-270 -4 -459 6l-2 236q238 -18 459 -13v252q-207 -4 -428 9v225q422 -31 807 8q-33 86 -51 123l139 43q72 -152 108 -281l-118 -39v-59q-100 -12 -220 -18v-252
q137 5 344 30v-235q-135 -16 -342 -27q2 -119 15 -305q217 -76 416 -254l-134 -221q-139 139 -272 221v-20zM1251 281v47q-73 20 -153 20t-127 -30t-47 -82t43 -83q43 -30 118 -30q166 0 166 158zM453 -20q0 -27 4 -84l-234 -17q-80 262 -80 603t80 892q19 123 21 199
l282 -25q-58 -149 -100 -487q-41 -339 -41 -457t8 -160q2 4 90 213l127 -100q-157 -451 -157 -577zM2021 1446l-139 -47q-63 186 -110 280l139 45q63 -131 110 -278z" />
    <glyph glyph-name="Identity.428" unicode="&#x307d;" 
d="M1495 199q0 -141 -93 -221q-94 -80 -282 -80t-307 82t-119 230t109 238t307 91q76 0 133 -9q-8 152 -10 240q-270 -4 -459 6l-2 236q238 -18 459 -13v252q-203 -4 -428 9v225q432 -35 799 8q-10 35 -11 68q0 93 65 157q66 64 156 64t156 -66t66 -156t-66 -156
q-66 -65 -148 -65t-141 43v-104q-104 -12 -211 -18v-250q137 6 344 30v-235q-135 -16 -342 -27q2 -119 15 -305q217 -76 416 -254l-134 -221q-139 139 -272 221v-20zM1251 281v47q-73 20 -153 20t-127 -30t-47 -82t43 -83q43 -30 118 -30q166 0 166 158zM1913 1560
q0 42 -30 72t-72 29q-43 0 -71 -30q-28 -29 -28 -71t29 -71t71 -29t71 29q30 29 30 71zM453 -20q0 -27 4 -84l-234 -17q-80 262 -80 603t80 892q19 123 21 199l282 -25q-58 -149 -100 -487q-41 -339 -41 -457t8 -160q2 4 90 213l127 -100q-157 -451 -157 -577z" />
    <glyph glyph-name="Identity.429" unicode="&#x307e;" 
d="M1235 199q0 -137 -102 -223q-103 -86 -321 -85t-345 89t-127 246t135 255q135 96 367 97q63 0 125 -7q-4 57 -9 185h-104q-268 0 -487 26l2 240q190 -37 489 -37h96v211h-96q-246 0 -440 31l-2 231q201 -39 440 -39h100v92q0 90 -10 140h277q-12 -78 -15 -144l-2 -80
q213 8 484 50l6 -234q-330 -31 -492 -39l-2 -211q236 10 541 47v-239q-299 -33 -537 -41q10 -172 15 -236q307 -88 567 -307l-146 -227q-193 182 -409 280q2 -27 2 -71zM799 119q178 -1 178 133q0 66 -2 102q-236 35 -329 -20q-58 -35 -58 -91t54 -90t157 -34z" />
    <glyph glyph-name="Identity.430" unicode="&#x307f;" 
d="M424 49q-137 0 -224 88t-87 240q-1 235 193 397t499 176q139 319 162 365q-358 -10 -512 -33l-11 262q72 -8 239 -8q380 0 493 47l161 -127q-47 -51 -67 -86q-55 -88 -199 -434q213 -33 436 -131q16 198 4 291l267 -31q-14 -240 -39 -377q76 -43 217 -135l-117 -281
q-90 80 -174 142q-70 -176 -192 -311q-123 -134 -322 -238l-217 176q391 166 516 510q-240 131 -475 164q-162 -371 -236 -488q-117 -178 -315 -178zM352 418q0 -43 23 -70t53 -26q58 -1 108 72t164 323q-162 -25 -255 -112t-93 -187z" />
    <glyph glyph-name="Identity.431" unicode="&#x3080;" 
d="M1331 1294l172 170q90 -57 223 -178t207 -209l-184 -188q-84 102 -208 223t-210 182zM506 188v43q-10 -2 -33 -2q-123 -1 -211 91t-88 273t106 301t269 120h8v135h-41q-131 0 -332 18l-14 240q197 -29 328 -29h59v17q0 172 -20 256h284q-18 -106 -18 -254q193 27 360 71
v-245q-160 -37 -360 -58v-262q59 -82 59 -205q0 -217 -108 -346v-80q0 -72 47 -102t223 -29q176 0 313 42q137 43 137 191t-14 259l281 -86q0 -195 -2 -238q-11 -147 -73 -232t-212 -132t-435 -47q-284 0 -398 60q-49 26 -77 69t-33 75t-5 86zM629 667q0 144 -106 144
q-52 1 -94 -55t-42 -132t33 -113q34 -38 90 -38t88 59t31 135z" />
    <glyph glyph-name="Identity.432" unicode="&#x3081;" 
d="M1894 633q0 -311 -199 -501q-200 -189 -532 -238l-155 233q315 27 468 170t152 350q0 168 -87 287t-241 160q-123 -418 -274 -645q61 -72 111 -121l-203 -162q-49 53 -70 80q-106 -115 -198 -166t-213 -51q-121 1 -216 109t-95 289t80 353q81 172 218 295q-34 94 -60 182
t-75 193l266 82q27 -154 82 -318q213 111 459 121q41 157 35 291l280 -27q-9 -33 -27 -115t-20 -89l-18 -78q242 -55 387 -237t145 -447zM1051 1106q-172 -20 -324 -113q74 -203 143 -321q101 180 181 434zM496 293q98 0 221 153q-94 147 -189 390q-147 -176 -147 -381
q0 -76 30 -119t85 -43z" />
    <glyph glyph-name="Identity.433" unicode="&#x3082;" 
d="M852 788q180 0 408 25l-7 -242q-207 -18 -358 -18h-82q-8 -119 -8 -147q0 -125 77 -192t226 -67q207 0 323 83t115 214q0 195 -209 394l285 61q197 -250 197 -485q0 -236 -196 -382t-523 -147q-252 0 -399 117q-146 117 -146 360q0 57 14 205q-229 23 -389 68l15 246
q170 -57 399 -80l35 276q-227 23 -404 72l15 235q164 -55 415 -75q30 192 21 342l285 -17q-36 -162 -58 -334q229 4 373 25l-8 -242q-182 -18 -396 -18q-20 -150 -34 -277h14z" />
    <glyph glyph-name="Identity.434" unicode="&#x3083;" 
d="M1753 725q1 -193 -109 -301t-331 -107q-135 0 -254 52l6 233q117 -53 224 -53t161 47q53 46 53 114t-49 108t-137 40q-150 0 -473 -141q146 -311 303 -826l-256 -61q-87 363 -268 784l-308 -151l-114 246q123 33 174 53t149 61q-84 177 -168 273l254 96q37 -68 62 -119
l78 -155q402 168 592 168t300 -107q110 -106 111 -254zM1208 1159l-184 -133q-104 113 -219 195l178 131q121 -80 225 -193z" />
    <glyph glyph-name="Identity.435" unicode="&#x3084;" 
d="M1396 1370q232 0 369 -122t138 -304q-1 -213 -137 -338t-369 -125q-160 0 -312 58l7 254q156 -68 276 -68t194 60q72 61 72 155t-64 147q-65 53 -177 54q-197 0 -596 -185l57 -125q174 -410 320 -882l-281 -72q-125 502 -272 842l-54 125l-360 -180l-119 260
q133 31 201 65q59 23 182 76q-111 224 -209 350l262 101q66 -132 102 -198t74 -153q464 205 696 205zM1243 1466l-192 -139q-176 176 -265 242l187 131q147 -111 270 -234z" />
    <glyph glyph-name="Identity.436" unicode="&#x3085;" 
d="M1069 643q0 139 -6 227q-180 -47 -298 -182q-146 -167 -151 -364q8 -129 21 -177l-219 -28q-62 195 -62 437t41 542q6 49 2 102l262 -20q-18 -51 -30 -107q-49 -201 -51 -328q78 129 200 214q123 85 264 118q-8 88 -47 211l250 4q16 -94 27 -194q236 -12 370 -144
t134 -350q0 -216 -144 -370t-411 -154q-27 0 -39 2q-86 -160 -226 -262l-221 127q129 80 209 203q-152 84 -227 239l129 186q82 -154 188 -210q35 139 35 278zM1536 618q0 231 -244 267q28 -333 -24 -563q268 27 268 296z" />
    <glyph glyph-name="Identity.437" unicode="&#x3086;" 
d="M1884 792q0 -258 -170 -427q-170 -170 -485 -170q-25 0 -37 2q-98 -211 -279 -342l-245 143q166 92 266 266q-197 96 -291 289l145 184q96 -186 234 -252q45 168 45 394q0 92 -8 264q-223 -57 -367 -235q-186 -231 -186 -462q0 -84 24 -198l-231 -31q-72 240 -72 563
q0 169 21 350t30 248q8 68 5 121l276 -22q-23 -70 -39 -123q-59 -250 -53 -424q197 346 571 432q-28 201 -57 278l266 7q23 -133 37 -261q272 -12 436 -174t164 -420zM1628 798q0 148 -81 246t-242 117q10 -154 10 -338t-39 -377q168 14 260 110q92 94 92 242z" />
    <glyph glyph-name="Identity.438" unicode="&#x3087;" 
d="M1176 135q0 -127 -83 -207t-275 -80t-318 82t-127 232q0 150 122 238q122 87 341 87q27 0 79 -4q-10 287 -10 326v287q0 127 -16 200h274q-16 -78 -16 -198v-94q276 8 467 28l6 -225q-170 -16 -473 -25q0 -51 14 -348q275 -90 494 -293l-139 -219q-174 174 -340 264v-51z
M926 217v59q-66 10 -121 11q-199 0 -199 -109q0 -45 50 -75t135 -29q135 0 135 143z" />
    <glyph glyph-name="Identity.439" unicode="&#x3088;" 
d="M885 1069q0 463 -25 567h305q-10 -72 -18 -237v-148q373 10 565 31l10 -242q-201 -18 -575 -28q6 -201 22 -432q363 -109 617 -349l-156 -241q-209 209 -448 317q2 -27 2 -69q0 -154 -98 -252t-336 -98q-236 0 -380 87q-144 88 -145 283q1 166 143 272t410 107
q61 0 121 -6q-14 369 -14 438zM909 326q0 43 -2 69q-247 38 -353 -22q-67 -37 -67 -103q0 -137 244 -137q96 -1 137 45t41 148z" />
    <glyph glyph-name="Identity.440" unicode="&#x3089;" 
d="M1784 489q0 -295 -250 -456q-129 -84 -354 -118t-533 -7l-78 266q442 -63 686 29t244 293q0 98 -85 162q-86 64 -238 65q-152 0 -298 -61t-241 -177q-55 -68 -76 -118l-235 59q78 401 100 846l274 -37q-37 -156 -75 -473q266 193 596 192q259 0 411 -136t152 -329z
M623 1397l65 245q133 -41 396 -91t415 -66l-61 -250q-144 19 -414 73t-401 89z" />
    <glyph glyph-name="Identity.441" unicode="&#x308a;" 
d="M1163 1546q217 0 360 -197q142 -198 142 -526q0 -782 -889 -946l-153 236q460 73 626 267q140 167 140 420q0 254 -73 382t-200 127q-170 0 -310 -207t-149 -420q-4 -106 11 -215l-252 -16q-25 185 -25 391t58 596q12 86 16 213l278 -13q-59 -205 -81 -419
q84 135 214 231t287 96z" />
    <glyph glyph-name="Identity.442" unicode="&#x308b;" 
d="M641 1544q637 0 811 41l131 -180q-74 -45 -123 -79t-467 -372q82 23 191 23q260 0 433 -144t173 -381t-190 -398t-543 -160q-215 0 -356 91q-140 91 -140 229q-1 138 103 232t273 94t283 -96q114 -98 138 -249q166 88 166 276q0 135 -120 220t-318 85t-365 -102
q-166 -102 -348 -309l-185 190q74 59 262 217t371 307q182 149 299 250q-492 -11 -655 -39l-8 264q96 -10 184 -10zM801 240q-1 -48 57 -82q58 -35 134 -35t132 6q-10 97 -63 157t-121 60t-104 -29q-35 -29 -35 -77z" />
    <glyph glyph-name="Identity.443" unicode="&#x308c;" 
d="M561 1536q0 68 -8 117l297 -8q-20 -92 -45 -289l76 -96q-29 -37 -105 -154q0 -14 -4 -43q346 301 590 301q156 0 238 -83t81 -203q1 -120 -33 -373q-34 -255 -34 -351t78 -96q121 0 260 143l35 -284q-160 -154 -381 -154q-115 0 -185 82q-69 82 -69 211t36 379t35 338
q0 150 -135 149q-104 0 -250 -108t-286 -260q-4 -116 -4 -308t12 -383q0 -57 14 -155h-278q6 66 8 264t6 332q-252 -371 -256 -375l-160 225q240 291 434 580l9 141l-369 -47l-25 260q160 -7 410 29q8 151 8 219z" />
    <glyph glyph-name="Identity.444" unicode="&#x308d;" 
d="M797 1532q491 0 622 37l135 -178q-41 -23 -112 -68q-301 -217 -465 -358q92 29 205 28q264 0 433 -138t169 -351q0 -311 -267 -478t-796 -124l-74 264q406 -53 632 38t226 300q0 120 -104 196t-252 76q-147 0 -257 -35q-172 -55 -367 -240q-62 -60 -154 -163l-189 201
q138 127 484 424t409 356q-376 -12 -594 -41l-10 264q86 -10 326 -10z" />
    <glyph glyph-name="Identity.445" unicode="&#x308e;" 
d="M1320 1026q220 0 353 -129t133 -328q0 -528 -635 -641l-112 222q510 70 510 425q0 96 -74 167t-203 71q-215 0 -444 -195q-2 -41 -2 -256t26 -454h-249q7 114 12 510q-209 -319 -219 -334l-140 195q66 71 183 225t188 262l6 90q-207 -29 -317 -53l-21 213q155 0 353 35
q7 125 11 173q3 48 -7 119l256 -6q-16 -76 -41 -272l55 -64q-33 -45 -74 -100l-4 -39q236 164 456 164z" />
    <glyph glyph-name="Identity.446" unicode="&#x308f;" 
d="M561 1536q0 68 -8 117l297 -8q-20 -92 -45 -289l76 -96q-29 -37 -105 -154q-2 -10 -2 -30t-2 -29q281 211 596 210q238 -1 398 -153t161 -393q0 -604 -760 -756l-120 246q610 94 610 516q0 123 -91 212t-239 89q-295 0 -575 -260q-4 -116 -4 -310t12 -385q0 -57 14 -155
h-278q6 66 8 264t6 332q-152 -227 -256 -375l-160 225q240 291 434 580l9 141l-369 -47l-25 260q160 -7 410 29q8 151 8 219z" />
    <glyph glyph-name="Identity.447" unicode="&#x3090;" 
d="M1155 1180q311 0 506 -180t195 -459q0 -278 -153 -461q-153 -182 -443 -182q-166 0 -271 79q-104 79 -104 213t93 222t232 88q238 0 340 -193q51 102 52 234q0 190 -122 307t-327 117q-25 0 -78 -4l-88 -265q-156 -446 -307 -618q-98 -111 -272 -111q-104 0 -182 81
q-77 81 -76 220q0 293 211 543q212 250 532 334q35 113 61 219q-162 -2 -528 -35l-14 250q76 -8 145 -8q419 -11 563 39l154 -117q-68 -115 -127 -313h8zM379 338q0 -41 18 -65t45 -23q55 0 97 53q117 152 260 553l10 33q-195 -94 -313 -262t-117 -289zM1210 315
q-49 1 -83 -25q-33 -26 -33 -71t40 -75t112 -29q72 0 138 28q-39 172 -174 172z" />
    <glyph glyph-name="Identity.448" unicode="&#x3091;" 
d="M1700 898q0 -148 -93 -250q-174 -190 -554 -189q-68 0 -140 10q-66 -49 -149 -115q158 4 250 -161q72 100 176 157t217 58q174 0 307 -117t215 -309l-260 -99q-98 307 -285 307q-76 0 -137 -54t-89 -126t-28 -108l-262 2q-8 66 -14 92q-51 182 -199 182q-88 0 -165 -77
t-168 -218l-222 127q354 369 570 549q-90 68 -90 172t99 171t238 67q139 -1 223 -59t85 -146q0 -41 -21 -86q108 25 174 80t66 138t-95 143t-235 61q-208 0 -370 -78t-382 -268l-153 188q350 225 774 465q-459 -25 -498 -29l-10 211q104 -6 352 -6q249 0 363 10t190 33
l138 -178q-84 -23 -218 -81t-239 -118q61 10 145 11q218 -2 356 -108t138 -254zM899 827q-47 0 -82 -19t-35 -52q0 -72 156 -88q70 41 70 92q0 31 -31 49t-78 18z" />
    <glyph glyph-name="Identity.449" unicode="&#x3092;" 
d="M1276 295h-244q4 55 8 242q-231 -127 -231 -263q0 -82 70 -112t225 -31q289 0 575 59l-8 -264q-270 -33 -573 -32q-557 0 -557 337q0 187 153 325q123 111 324 216q-45 70 -134 70t-176 -40q-86 -40 -146 -98t-191 -225l-217 162q311 289 446 557h-25q-186 0 -342 14v238
q141 -23 357 -23h98q37 141 41 232l266 -23q-25 -121 -49 -200q354 18 574 59l-2 -238q-258 -39 -662 -53q-53 -119 -117 -205q82 41 230 41q203 0 270 -157q9 5 161 71t337 154l102 -236q-84 -20 -242 -86q-195 -76 -329 -137q8 -264 8 -354z" />
    <glyph glyph-name="Identity.450" unicode="&#x3093;" 
d="M1001 901q119 0 185 -70t71 -196q0 -278 11 -338q8 -111 129 -111t208 134t134 346l219 -179q-172 -580 -606 -579q-158 0 -244 82t-92 200q-4 56 -7 188t-5 169q-10 113 -114 113t-186 -86q-84 -85 -144 -219t-152 -451l-287 96q98 268 333 753t324 651t127 253
l289 -117q-4 -6 -70 -101t-350 -599q109 61 227 61z" />
    <glyph glyph-name="Identity.451" unicode="&#x309b;" 
d="M465 1745q82 -117 201 -338l-181 -76q-129 248 -198 338zM197 1638q68 -92 198 -338l-182 -75q-143 272 -193 344z" />
    <glyph glyph-name="Identity.452" unicode="&#x309c;" 
d="M180 1450q0 -49 36 -86t85 -37t85 37t36 86t-36 84t-85 35t-85 -35t-36 -84zM59 1450q0 100 71 172t171 72t172 -72t72 -172t-72 -172t-172 -72t-171 72t-71 172z" />
    <glyph glyph-name="Identity.453" unicode="&#x309d;" 
d="M1526 326q-184 -63 -656 -254l-129 252q76 30 278 108t218 84q-74 115 -274 329q-201 214 -355 349l228 166q186 -170 422 -427t335 -396z" />
    <glyph glyph-name="Identity.454" unicode="&#x309e;" 
d="M1448 283q-215 -74 -655 -252l-129 252q74 27 282 109t213 83q-76 115 -276 330q-201 215 -353 346l226 168q188 -172 424 -429t336 -396zM1499 1561q98 -143 187 -314l-177 -73q-123 231 -186 315zM1221 1473q59 -84 186 -314l-178 -74q-150 272 -180 318z" />
    <glyph glyph-name="Identity.455" unicode="&#x30a1;" 
d="M553 909q-98 0 -213 -12v264q102 -16 213 -16h950q121 0 166 14l152 -137q-37 -39 -85 -116q-48 -76 -166 -226q-120 -150 -218 -225l-205 143q84 58 170 150t125 161h-889zM850 662q0 69 -14 145h282q-10 -317 -43 -453q-74 -315 -366 -504q-39 -25 -82 -49l-217 174
q88 35 165 88q162 111 219 248q56 137 56 351z" />
    <glyph glyph-name="Identity.456" unicode="&#x30a2;" 
d="M481 1270q-82 0 -250 -15v285q129 -20 250 -20h1104q152 0 207 18l164 -152q-55 -66 -80 -106q-86 -143 -220 -303t-274 -258l-211 170q115 71 225 185t152 196h-1067zM1120 1110q0 -346 -16 -442t-36 -178t-50 -140q-83 -164 -189 -268t-278 -197l-238 195
q115 39 215 113q184 127 246 293t64 440q-1 92 -15 184h297z" />
    <glyph glyph-name="Identity.457" unicode="&#x30a3;" 
d="M1206 41q0 -174 15 -221h-303q10 68 10 221v526q-319 -154 -578 -223l-137 238q186 38 388 118q203 80 349 166t291 203t221 215l205 -190q-158 -174 -461 -371v-682z" />
    <glyph glyph-name="Identity.458" unicode="&#x30a4;" 
d="M1270 178q0 -203 18 -268h-323q14 86 14 268v672q-367 -186 -705 -279l-147 250q510 111 932 371q158 98 303 224t231 239l219 -199q-253 -254 -542 -440v-838z" />
    <glyph glyph-name="Identity.459" unicode="&#x30a5;" 
d="M598 813v-240q0 -74 6 -122h-260q8 82 8 137v311q0 39 -12 162q92 -10 197 -10h350v108q0 70 -15 152h287q-10 -86 -10 -152v-108h285q102 0 143 14l178 -94q-17 -51 -33 -153t-64 -249t-108 -254q-98 -180 -288 -312t-428 -189l-203 231q141 23 250 66q262 96 394 283
t152 419h-829z" />
    <glyph glyph-name="Identity.460" unicode="&#x30a6;" 
d="M502 1085v-299q0 -90 6 -151h-283q10 86 11 172v354q0 115 -11 176q90 -10 209 -10h438v158q0 88 -16 188h315q-14 -123 -14 -188v-158h356q107 0 170 23l179 -109q-18 -49 -41 -164q-59 -336 -185 -570t-346 -393q-219 -159 -495 -231l-213 246q154 27 288 80
q301 113 465 350q137 197 183 526h-1016z" />
    <glyph glyph-name="Identity.461" unicode="&#x30a7;" 
d="M1153 201h444q33 0 156 12v-268q-53 10 -156 10h-1130q-98 0 -168 -10v268q106 -12 168 -12h418v659h-320q-72 0 -162 -8v258q57 -10 162 -10h938q78 0 160 10v-258q-102 8 -160 8h-350v-659z" />
    <glyph glyph-name="Identity.462" unicode="&#x30a8;" 
d="M1161 322h543q88 0 190 16v-297q-72 10 -190 10h-1350q-117 0 -200 -10v297q84 -16 200 -16h520v835h-395q-92 0 -194 -8v281q80 -12 194 -13h1114q74 0 193 13v-281q-123 8 -193 8h-432v-835z" />
    <glyph glyph-name="Identity.463" unicode="&#x30a9;" 
d="M1135 979q0 141 -21 295h264q-8 -66 -8 -170l2 -125h242q61 0 166 12v-248q-94 4 -156 5h-246q12 -465 15 -732q3 -80 -53 -130t-146 -50q-164 0 -317 10l-17 234q127 -18 236 -19q53 0 53 64q0 94 -4 405q-109 -140 -296 -292t-366 -246l-178 205q211 99 409 251
t308 300h-438q-74 0 -193 -9v252q98 -12 187 -12h557z" />
    <glyph glyph-name="Identity.464" unicode="&#x30aa;" 
d="M1647 1286q115 0 213 17v-273q-197 6 -199 6h-264q16 -844 18 -930t-56 -140t-173 -54q-182 0 -357 12l-22 266q139 -25 272 -24q72 0 72 86q0 342 -4 553q-139 -181 -369 -373t-467 -319l-188 213q287 134 529 330t372 380h-559q-90 0 -234 -8v272q104 -14 228 -14h678
q-5 202 -27 354h291q-12 -94 -12 -206l2 -148h256z" />
    <glyph glyph-name="Identity.465" unicode="&#x30ab;" 
d="M506 1030q-182 0 -270 -8v268q152 -14 270 -14h293q4 116 4 198t-15 168h302q-6 -53 -12 -179t-9 -187h385q66 0 156 14l176 -86q-14 -82 -14 -108q-29 -784 -121 -1002q-68 -158 -265 -157q-139 0 -339 16l-31 274q156 -29 287 -28q85 -1 121 79t59 317t22 435h-461
q-54 -399 -206 -661t-430 -461l-238 192q156 86 268 201q270 268 338 729h-270z" />
    <glyph glyph-name="Identity.466" unicode="&#x30ac;" 
d="M1655 1665l162 68q92 -133 165 -279l-163 -72q-76 158 -164 283zM1413 1255q84 0 156 15l176 -88q-14 -76 -14 -107q-29 -786 -121 -1003q-68 -156 -264 -156q-139 0 -340 16l-31 273q176 -29 287 -29q84 0 116 74q41 88 64 324t22 436h-460q-55 -400 -207 -662
t-430 -461l-238 193q160 88 268 199q270 268 338 731h-270q-160 0 -270 -11v271q121 -14 270 -15h293q4 115 4 198t-14 169h301q-5 -56 -11 -180t-10 -187h385zM1737 1358l-164 -70q-88 182 -160 285l162 65q68 -98 162 -280z" />
    <glyph glyph-name="Identity.467" unicode="&#x30ad;" 
d="M1206 496q65 -348 127 -570l-295 -53q-24 187 -32 235t-66 345q-541 -90 -694 -127l-58 274q101 4 705 100l-62 328l-401 -65q-109 -23 -188 -43l-56 282q177 7 596 74q-51 251 -77 342l288 47q0 -3 8 -67t48 -281q473 76 596 110l49 -268q-12 -2 -189 -24l-409 -66
l63 -326q532 89 653 125l54 -270z" />
    <glyph glyph-name="Identity.468" unicode="&#x30ae;" 
d="M1176 459q63 -345 127 -570l-295 -51q-27 197 -35 243t-64 335q-596 -99 -692 -125l-59 272q103 4 704 101l-61 327l-402 -65q-109 -23 -188 -43l-55 282q230 15 596 74q-33 160 -42 206t-36 136l289 47q0 -79 57 -348q377 63 401 68l117 24q-82 162 -141 248l162 68
q82 -123 163 -281l-102 -45l43 -240q-12 -2 -188 -24l-410 -66l63 -325q392 66 474 82t180 42l53 -270q-73 -7 -659 -102zM1966 1501l-162 -71q-90 178 -166 282l162 68q82 -115 166 -279z" />
    <glyph glyph-name="Identity.469" unicode="&#x30af;" 
d="M1454 1378q98 0 178 25l209 -129q-45 -78 -67 -148q-117 -387 -357 -684q-151 -184 -349 -324t-478 -253l-242 217q292 88 484 212t342 294q100 114 182 276t108 283h-575q-231 -301 -516 -496l-230 170q397 242 639 660q63 104 92 215l300 -99q-53 -78 -125 -208l-7 -11
h412z" />
    <glyph glyph-name="Identity.470" unicode="&#x30b0;" 
d="M1675 1704l162 65q84 -121 166 -278l-164 -70q-82 170 -164 283zM1391 1331q100 0 178 25l14 -8q-88 174 -149 264l161 65q68 -98 162 -280l-151 -64l174 -106q-45 -78 -68 -146q-117 -389 -358 -684q-301 -371 -826 -579l-241 217q293 88 483 212q350 228 524 570
q82 162 109 283h-578q-227 -301 -516 -496l-229 172q403 242 639 658q59 94 92 215l301 -99q-63 -92 -127 -209l-6 -10h412z" />
    <glyph glyph-name="Identity.471" unicode="&#x30b1;" 
d="M1677 1288q133 0 213 15v-281q-76 8 -213 8h-286q-53 -786 -621 -1143l-276 185q121 49 194 114q375 287 418 844h-432q-152 -274 -330 -430l-258 156q182 135 354 422q63 104 119 278q37 102 43 211l316 -63q-18 -38 -68 -172t-55 -144h882z" />
    <glyph glyph-name="Identity.472" unicode="&#x30b2;" 
d="M1659 1241q135 0 213 14v-280q-100 8 -213 8h-287q-53 -786 -620 -1143l-277 185q115 47 195 114q375 287 417 844h-432q-150 -272 -331 -430l-256 154q180 137 354 421q68 117 119 281q37 102 43 209l315 -62q-27 -58 -69 -172t-54 -143h883zM1743 1374l-164 -69
q-100 197 -162 284l164 66q68 -99 162 -281zM1987 1470l-162 -71q-88 176 -164 282l162 68q98 -144 164 -279z" />
    <glyph glyph-name="Identity.473" unicode="&#x30b3;" 
d="M1493 61h-934q-129 0 -264 -12v293q143 -12 256 -12h944v848h-920q-139 0 -253 -9v285q115 -12 253 -12h1031q111 0 180 4q-6 -141 -6 -189v-1060q0 -119 8 -242h-297q2 33 2 106z" />
    <glyph glyph-name="Identity.474" unicode="&#x30b4;" 
d="M1636 1706l170 70q78 -113 164 -271l-170 -73q-107 196 -164 274zM1731 1192v-1061q0 -139 10 -242h-297q2 33 2 107h-936q-127 0 -262 -12v292q139 -12 254 -12h946v848h-922q-139 0 -254 -8v285q117 -12 254 -13h987q-70 147 -151 264l168 70q88 -127 160 -274
l-142 -60h11q109 0 178 4q-6 -141 -6 -188z" />
    <glyph glyph-name="Identity.475" unicode="&#x30b5;" 
d="M1532 1225h151q147 0 226 14v-272q-68 6 -226 6h-151v-68q0 -201 -28 -347q-62 -325 -284 -508q-122 -99 -305 -179l-219 207q209 72 327 163q241 186 243 654v78h-486v-279q0 -51 8 -215h-286q12 82 12 215v279h-174q-131 0 -221 -8v278q111 -18 221 -18h174v202
q0 68 -12 185h291q-12 -78 -13 -187v-200h486v215q0 109 -13 190h291q-12 -123 -12 -190v-215z" />
    <glyph glyph-name="Identity.476" unicode="&#x30b6;" 
d="M1497 1192h152q137 0 225 16v-272q-68 6 -223 6h-154v-68q0 -403 -130 -641t-486 -395l-219 207q311 109 440 282t129 537v78h-486v-278q0 -51 9 -215h-287q12 82 12 215v278h-174q-131 0 -221 -8v278q123 -20 221 -20h174v205q0 68 -12 184h291q-12 -117 -13 -186v-203
h486v217q0 111 -12 188h292q-14 -96 -14 -188v-217zM1782 1313l-142 -45q-68 203 -104 280l137 45q72 -151 109 -280zM1997 1380l-142 -45q-59 184 -110 279l139 45q62 -132 113 -279z" />
    <glyph glyph-name="Identity.477" unicode="&#x30b7;" 
d="M317 1155q242 -131 467 -289l-149 -229q-297 203 -467 291zM252 168q399 68 698 229q258 143 465 345t332 423l158 -278q-295 -436 -815 -735q-152 -86 -347 -157t-337 -97zM633 1622q231 -129 467 -293l-154 -227q-260 182 -463 295z" />
    <glyph glyph-name="Identity.478" unicode="&#x30b8;" 
d="M289 1145q240 -127 469 -289l-150 -229q-256 178 -467 293zM225 158q403 68 680 222t484 355t329 422l158 -278q-285 -428 -813 -738q-151 -85 -347 -155t-337 -97zM604 1612q207 -113 467 -293l-151 -225q-246 172 -463 292zM1776 1671q88 -113 192 -305l-174 -78
q-82 164 -192 311zM1493 1573q109 -156 188 -318l-178 -75q-88 190 -180 321z" />
    <glyph glyph-name="Identity.479" unicode="&#x30b9;" 
d="M606 1225q-82 1 -155 -7q-74 -8 -86 -8v291q96 -14 241 -14h721q137 -1 213 26l168 -124q-39 -53 -72 -127q-137 -317 -321 -564q143 -125 308 -295t263 -290l-233 -203q-193 266 -516 579q-360 -381 -770 -575l-211 221q233 88 458 251t381 337q102 117 188 255
q85 138 117 247h-694z" />
    <glyph glyph-name="Identity.480" unicode="&#x30ba;" 
d="M565 1438h723q141 0 211 24l25 -18q-61 117 -113 192l162 68q88 -127 164 -281l-117 -49l47 -35q-45 -70 -72 -129q-135 -311 -321 -561q143 -125 308 -295t263 -291l-233 -204q-201 276 -516 579q-369 -385 -770 -573l-211 221q233 86 457 249t382 339q102 117 188 255
q85 138 118 247h-695l-241 -15v291q96 -14 241 -14zM1997 1497l-162 -70q-92 178 -166 281l162 68q82 -115 166 -279z" />
    <glyph glyph-name="Identity.481" unicode="&#x30bb;" 
d="M848 344q0 -100 49 -136t211 -36q295 0 647 68l-8 -277q-311 -45 -560 -45t-355 20q-192 37 -236 176q-18 60 -18 158v559q-342 -70 -431 -90l-49 269q133 16 480 80v292q0 135 -17 234h305q-18 -111 -18 -234v-241q416 76 678 135q98 25 145 49l197 -154
q-56 -85 -100 -169t-167 -260t-225 -277l-225 133q94 84 187 205t141 209l-631 -125v-543z" />
    <glyph glyph-name="Identity.482" unicode="&#x30bc;" 
d="M819 305q0 -100 49 -136t211 -36q295 0 647 68l-8 -277q-311 -45 -560 -45q-249 1 -355 21q-193 37 -236 175q-18 60 -18 158v560q-342 -70 -430 -91l-49 269q133 16 479 80v290q0 137 -17 236h306q-19 -111 -19 -236v-239q418 78 676 135q100 25 145 49l197 -153
q-45 -72 -93 -163q-48 -92 -171 -268t-225 -276l-226 133q94 84 186 204q91 120 140 210l-629 -125v-543zM1747 1395l-164 -72q-104 205 -162 285l164 67q74 -108 162 -280zM1991 1489l-162 -72q-88 176 -164 283l162 67q98 -143 164 -278z" />
    <glyph glyph-name="Identity.483" unicode="&#x30bd;" 
d="M195 1397l262 135q143 -201 354 -600l-270 -154q-172 373 -346 619zM500 121q442 182 700 555q168 244 242 618q31 141 26 248l332 -47q-16 -55 -61 -238q-212 -965 -996 -1347z" />
    <glyph glyph-name="Identity.484" unicode="&#x30be;" 
d="M1653 1706l170 70q78 -113 164 -271l-170 -73q-107 196 -164 274zM1706 1436l-162 -68l197 -39q-29 -92 -62 -223t-73 -245t-116 -260q-77 -146 -175 -267t-254 -249t-350 -228l-246 211q199 84 357 202t251 225q92 109 162 241t98 221q29 89 59 221t25 215l117 -23
q-72 154 -158 270l170 70q88 -127 160 -274zM776 879l-270 -154q-172 373 -346 618l264 136q149 -217 352 -600z" />
    <glyph glyph-name="Identity.485" unicode="&#x30bf;" 
d="M1454 1413q106 0 178 23l209 -129q-41 -70 -67 -146q-100 -295 -283 -561q106 -66 197 -131l-187 -240q-68 59 -190 146q-311 -340 -756 -510l-238 207q451 137 764 458q-201 129 -383 234l174 194q170 -86 385 -215q164 236 213 437h-587q-246 -328 -541 -529l-221 170
q406 250 653 680q63 100 92 215l297 -92q-45 -66 -127 -209l-2 -2h420z" />
    <glyph glyph-name="Identity.486" unicode="&#x30c0;" 
d="M1675 1708l162 66q92 -131 166 -279l-164 -70q-82 170 -164 283zM1407 1364q92 0 162 18q-76 145 -135 234l161 65q68 -98 162 -280l-115 -49l150 -92q-41 -76 -68 -148q-92 -287 -282 -559q147 -96 196 -131l-184 -242q-51 45 -190 146q-317 -342 -756 -510l-238 207
q453 137 762 458q-190 125 -381 234l172 194q170 -86 385 -215q164 236 213 436h-587q-246 -326 -539 -528l-221 170q399 246 651 680q61 98 92 215l297 -92q-53 -78 -125 -209l-2 -2h420z" />
    <glyph glyph-name="Identity.487" unicode="&#x30c1;" 
d="M1194 969h516q51 0 186 12v-264q-111 8 -180 8h-530q-49 -559 -524 -842l-261 176q455 209 514 666h-563q-86 0 -192 -8v264q111 -12 188 -12h578v291q-190 -16 -549 -27l-64 237q401 -10 729 36t486 120l168 -225q-296 -76 -502 -107v-325z" />
    <glyph glyph-name="Identity.488" unicode="&#x30c2;" 
d="M1145 944h516q70 0 186 10v-262q-84 6 -180 6h-530q-53 -559 -525 -841l-260 176q453 211 512 665h-563q-111 0 -190 -6v264q111 -12 188 -12h575v291q-193 -16 -546 -27l-66 238q416 -10 740 37t477 119l168 -226q-285 -73 -502 -106v-326zM1454 1243l152 64
q84 -121 145 -250l-154 -68q-82 168 -143 254zM1987 1151l-152 -72q-76 145 -152 248l150 70q78 -111 154 -246z" />
    <glyph glyph-name="Identity.489" unicode="&#x30c3;" 
d="M559 1110q88 -178 191 -467l-250 -94q-29 94 -90 252t-97 221zM1501 1161l289 -92q-20 -57 -49 -149q-92 -358 -279 -601q-137 -176 -317 -306t-369 -201l-215 219q179 47 369 162t302 255t183 329q70 189 86 384zM1034 1219q100 -229 168 -449l-246 -86q-18 76 -72 226
t-93 229z" />
    <glyph glyph-name="Identity.490" unicode="&#x30c4;" 
d="M399 1468q49 -98 126 -284t112 -289l-264 -96q-31 102 -112 300t-124 279zM1597 1520l306 -88q-27 -68 -52 -160q-125 -483 -344 -770q-157 -207 -367 -361t-438 -239l-229 229q223 63 441 201t354 310q136 171 220 413t109 465zM969 1595q39 -78 113 -264t102 -284
l-258 -91q-31 100 -100 282t-113 273z" />
    <glyph glyph-name="Identity.491" unicode="&#x30c5;" 
d="M1835 1778q84 -121 164 -273l-170 -71q-106 197 -164 274zM1559 1712q80 -117 159 -274l-170 -72q-80 166 -159 276zM367 1409q156 -334 237 -573l-264 -97q-35 109 -115 305t-121 273zM1544 1333l299 -69q-2 -2 -51 -160q-115 -391 -317 -662q-156 -208 -368 -362
t-437 -238l-230 230q224 63 442 201t367 327q219 276 295 733zM936 1536q39 -76 112 -262t103 -287l-258 -90q-31 99 -99 281t-114 274z" />
    <glyph glyph-name="Identity.492" unicode="&#x30c6;" 
d="M371 1034h1341q102 0 186 13v-267q-78 6 -186 6h-493q-18 -305 -132 -526q-55 -110 -167 -218t-244 -175l-240 174q106 41 207 121q100 80 164 172q113 172 127 452h-563q-82 0 -197 -8v269q123 -13 197 -13zM1454 1315h-821q-96 0 -219 -8v264q92 -14 217 -15h823
q123 0 221 15v-264q-143 8 -221 8z" />
    <glyph glyph-name="Identity.493" unicode="&#x30c7;" 
d="M344 1010h1342q106 0 186 12v-266q-78 6 -186 6h-494q-18 -305 -131 -526q-55 -109 -167 -218t-245 -176l-239 174q108 41 208 121t162 172q113 172 127 453h-563q-82 0 -197 -8v268q93 -12 197 -12zM1274 1288h-670q-127 0 -219 -6v264q104 -16 219 -16h670
q111 0 221 16v-264q-104 6 -221 6zM1780 1407l-164 -72q-100 197 -162 285l164 68q74 -109 162 -281zM2023 1501l-161 -71q-88 176 -164 282l162 68q97 -144 163 -279z" />
    <glyph glyph-name="Identity.494" unicode="&#x30c8;" 
d="M924 197q0 -100 18 -285h-319q20 133 20 285v1175q0 145 -20 248h319q-18 -162 -18 -248v-301q207 -59 461 -153t395 -164l-117 -283q-285 150 -739 305v-579z" />
    <glyph glyph-name="Identity.495" unicode="&#x30c9;" 
d="M860 1343v-299q209 -63 463 -157t393 -162l-114 -285q-297 158 -742 305v-579q0 -117 21 -285h-322q20 133 21 285v1177q0 143 -21 248h320q-19 -162 -19 -248zM1583 1214l-178 -79q-84 182 -180 315l172 74q120 -183 186 -310zM1858 1333l-172 -84q-80 160 -191 307
l170 80q127 -176 193 -303z" />
    <glyph glyph-name="Identity.496" unicode="&#x30ca;" 
d="M1221 1155h460q94 0 224 12v-278q-172 8 -226 8h-460q-11 -334 -141 -579t-443 -433l-254 189q285 129 414 337t141 486h-522q-78 0 -236 -10v282q143 -14 228 -14h532v225q0 147 -27 240h326q-16 -84 -16 -242v-223z" />
    <glyph glyph-name="Identity.497" unicode="&#x30cb;" 
d="M590 1102q-103 0 -242 -8v297q111 -12 240 -13h848q113 0 227 13v-297l-227 8h-846zM432 375h1176q104 0 225 14v-313q-109 12 -225 12h-1176q-104 0 -256 -12v313q186 -14 256 -14z" />
    <glyph glyph-name="Identity.498" unicode="&#x30cc;" 
d="M616 1227q-27 0 -264 -8v276q139 -14 264 -14h777q77 -1 153 30l195 -145q-35 -57 -64 -137q-139 -403 -321 -666q240 -176 385 -307l-191 -227q-150 143 -372 315q-152 -156 -348 -281t-396 -198l-225 229q438 139 735 420q-293 209 -506 326l168 200q242 -129 520 -317
q172 248 238 504h-748z" />
    <glyph glyph-name="Identity.499" unicode="&#x30cd;" 
d="M1294 549l170 196q285 -154 492 -296l-172 -226q-230 183 -490 326zM899 145v351q-264 -139 -629 -252l-157 241q461 102 835 342q240 156 344 308h-741q-160 0 -266 -11v269q90 -14 262 -15h354v107q0 113 -12 188h293q-12 -98 -13 -188v-107h246q100 1 170 21l168 -166
q-72 -72 -158 -170q-199 -225 -430 -401l-2 -517q0 -115 15 -262h-295q16 115 16 262z" />
    <glyph glyph-name="Identity.500" unicode="&#x30ce;" 
d="M1708 1499q-16 -33 -90 -229q-182 -498 -385 -752q-143 -178 -348 -341t-428 -253l-234 240q233 80 435 221t343 311q139 170 241 410q101 240 147 475z" />
    <glyph glyph-name="Identity.501" unicode="&#x30cf;" 
d="M1645 -4q-195 822 -510 1397l272 88q152 -287 294 -653t247 -734zM420 676q158 391 194 778l299 -63q-33 -119 -49 -203q-140 -720 -475 -1202l-287 120q199 265 318 570z" />
    <glyph glyph-name="Identity.502" unicode="&#x30d0;" 
d="M1618 -43q-196 828 -510 1397l272 88q158 -297 301 -672q127 -319 240 -715zM393 637q158 393 195 778l299 -61q-29 -92 -49 -205q-61 -309 -179 -628t-299 -574l-286 121q200 260 319 569zM1839 1726q92 -133 166 -278l-164 -72q-76 158 -164 283zM1597 1634
q74 -109 162 -280l-164 -72q-111 215 -159 285z" />
    <glyph glyph-name="Identity.503" unicode="&#x30d1;" 
d="M1618 -43q-196 828 -510 1397l272 88q164 -311 301 -672q127 -319 240 -715zM393 637q158 393 195 778l299 -61q-29 -92 -49 -205q-61 -309 -179 -628t-299 -574l-286 121q200 260 319 569zM1513 1473q0 100 73 173q73 72 173 72t173 -72t73 -173t-73 -173t-173 -72
t-173 73q-73 72 -73 172zM1759 1591q-49 -1 -84 -35t-35 -82t35 -83t84 -35t84 35t35 83t-35 82t-84 35z" />
    <glyph glyph-name="Identity.504" unicode="&#x30d2;" 
d="M694 367q0 -63 30 -89t101 -40q231 -30 622 7q210 19 329 52v-299q-289 -43 -729 -43q-205 0 -345 22q-281 51 -280 308v1116q0 111 -16 213h303q-14 -88 -15 -213v-387q628 158 938 340l111 -258l-240 -99q-352 -135 -809 -252v-378z" />
    <glyph glyph-name="Identity.505" unicode="&#x30d3;" 
d="M1591 1686l162 65q76 -104 166 -278l-162 -70q-90 179 -166 283zM612 324q0 -64 30 -90t112 -38q209 -32 612 6q211 19 330 52v-299q-289 -43 -729 -43q-193 0 -344 25q-281 49 -281 305v1116q0 111 -16 213h303q-16 -102 -17 -213v-387q416 102 709 227q119 45 223 111
l111 -260q-197 -80 -240 -97q-348 -137 -803 -250v-378zM1675 1378l-166 -69q-90 184 -159 282l161 68q82 -123 164 -281z" />
    <glyph glyph-name="Identity.506" unicode="&#x30d4;" 
d="M612 1358v-387q416 102 709 227q100 37 197 94q-60 70 -60 167t72 169t172 72t173 -72t73 -174t-73 -174t-160 -72t-144 39l84 -198q-197 -80 -240 -97q-348 -137 -803 -250v-378q0 -64 30 -90t112 -38q209 -32 612 6q211 19 330 52v-299q-289 -43 -729 -43
q-193 0 -344 25q-281 49 -281 305v1116q0 111 -16 213h303q-17 -102 -17 -213zM1703 1335q48 0 83 35t35 84t-35 84t-83 35t-83 -35t-35 -84t35 -84t83 -35z" />
    <glyph glyph-name="Identity.507" unicode="&#x30d5;" 
d="M510 1212q-137 0 -244 -8v289q164 -16 246 -16h946q99 0 162 16l201 -129q-25 -55 -45 -143q-115 -487 -308 -746q-301 -399 -823 -565l-223 246q514 119 803 479q186 236 239 577h-954z" />
    <glyph glyph-name="Identity.508" unicode="&#x30d6;" 
d="M1671 1708l170 70q78 -113 164 -271l-170 -73q-107 196 -164 274zM457 1190q-137 0 -244 -8v288q119 -16 244 -16h948q59 0 96 4q-57 111 -115 199l168 69q84 -123 158 -270l-76 -33l129 -84q-12 -25 -45 -141q-115 -492 -307 -745q-299 -397 -823 -566l-223 244
q287 69 476 189q471 300 568 870h-954z" />
    <glyph glyph-name="Identity.509" unicode="&#x30d7;" 
d="M457 1454h948q57 0 117 8q-4 25 -4 39q0 100 72 173q73 73 173 73t172 -73t72 -173t-72 -172t-172 -72q-18 0 -26 3l-17 -62q-115 -492 -307 -745q-299 -397 -823 -566l-223 244q287 69 476 189q471 300 568 870h-954q-137 0 -244 -8v288q119 -16 244 -16zM1762 1384
q48 0 83 35t35 83t-35 83t-83 35t-83 -35t-35 -83t36 -83q34 -35 82 -35z" />
    <glyph glyph-name="Identity.510" unicode="&#x30d8;" 
d="M334 365l-246 253q61 49 168 156q61 63 393 463q95 109 185 115t226 -108t464 -466t448 -491l-219 -240q-141 182 -425 515t-388 421q-53 47 -88 45t-80 -59t-162 -217t-145 -197z" />
    <glyph glyph-name="Identity.511" unicode="&#x30d9;" 
d="M74 582q74 62 148 136t413 482q94 111 184 117t217 -98q156 -133 418 -416q440 -479 504 -553l-219 -238q-215 274 -453 556t-362 386q-53 47 -87 45t-74 -52t-154 -205t-166 -224q-52 -68 -128 -184zM1726 1532q121 -166 199 -320l-178 -86q-96 190 -197 326zM1452 1419
q127 -190 193 -327l-185 -80q-94 203 -186 334z" />
    <glyph glyph-name="Identity.512" unicode="&#x30da;" 
d="M74 582q74 62 148 136t413 482q94 111 184 117t217 -98q156 -133 418 -416q440 -479 504 -553l-219 -238q-215 274 -453 556t-362 386q-53 47 -87 45t-74 -52t-154 -205t-166 -224q-52 -68 -128 -184zM1346 1253q0 111 76 189q77 78 188 78q110 0 188 -78t78 -189
t-78 -187t-188 -77q-110 1 -188 77q-76 76 -76 187zM1481 1253q0 -53 38 -91t91 -38t92 38t39 91t-39 93t-92 38q-53 0 -91 -39t-38 -92z" />
    <glyph glyph-name="Identity.513" unicode="&#x30db;" 
d="M1380 754l224 120q76 -94 180 -257t170 -281l-240 -131q-172 340 -334 549zM1665 1051h-477v-953q0 -92 -54 -142t-161 -50q-178 0 -332 18l-25 252q119 -22 193 -22t90 16q17 16 19 74t2 805v2h-521q-121 0 -196 -9v271q143 -14 196 -15h521v164q0 86 -17 178h303
q-18 -86 -18 -180v-162h475q106 0 203 15v-269q-97 7 -201 7zM492 868l233 -108q-69 -133 -189 -305t-206 -267l-224 152q102 96 212 246t174 282z" />
    <glyph glyph-name="Identity.514" unicode="&#x30dc;" 
d="M1356 729l223 121q76 -94 180 -257t170 -282l-241 -131q-174 348 -332 549zM1640 1026h-479v-952q0 -193 -213 -193q-178 0 -334 19l-24 254q130 -25 198 -25t85 16t19 75t3 804v2h-520q-123 0 -199 -8v272q123 -16 199 -16h520v164q0 100 -18 178h303q-18 -129 -19 -178
v-164h477q106 0 201 14v-268q-95 6 -199 6zM467 844l231 -109q-70 -133 -190 -306t-205 -265l-221 151q102 98 212 249t173 280zM1722 1389l-163 -70q-92 182 -154 270l162 68q89 -133 155 -268zM1993 1450l-162 -72q-84 166 -160 271l162 65q80 -110 160 -264z" />
    <glyph glyph-name="Identity.515" unicode="&#x30dd;" 
d="M1356 729l223 121q76 -94 180 -257t170 -282l-241 -131q-174 348 -332 549zM1640 1026h-479v-952q0 -193 -213 -193q-178 0 -334 19l-24 254q130 -25 198 -25t85 16t19 75t3 804v2h-520q-123 0 -199 -8v272q123 -16 199 -16h520v164q0 100 -18 178h303q-18 -129 -19 -178
v-164h477q106 0 201 14v-268q-95 6 -199 6zM467 844l231 -109q-70 -133 -190 -306t-205 -265l-221 151q102 98 212 249t173 280zM1700 1298q-98 0 -168 70t-70 168t70 167t168 69t167 -69t69 -167t-70 -168q-68 -70 -166 -70zM1699 1647q-46 0 -79 -32t-33 -79t33 -80
t79 -33t79 33q32 33 32 79t-32 79q-33 33 -79 33z" />
    <glyph glyph-name="Identity.516" unicode="&#x30de;" 
d="M420 1182q-84 0 -236 -15v287q119 -18 236 -18h1136q123 -1 191 22l205 -168q-61 -70 -70 -86q-121 -197 -308 -417t-390 -384q178 -178 317 -346l-239 -190q-129 172 -392 442q-92 92 -226 211t-224 182l217 175q141 -106 346 -285q164 131 303 292t217 298h-1083z" />
    <glyph glyph-name="Identity.517" unicode="&#x30df;" 
d="M385 467q275 -41 667 -135t595 -172l-113 -256q-193 80 -583 172t-668 133zM489 1053q250 -43 572 -116t500 -134l-101 -256q-168 63 -492 141t-573 117zM584 1604q217 -27 575 -103t541 -139l-105 -256q-174 66 -530 146t-578 110z" />
    <glyph glyph-name="Identity.518" unicode="&#x30e0;" 
d="M1579 150l-1405 -156l-47 299q158 0 225 2l56 2q82 207 191 547q110 340 155 502t57 264l326 -66q-39 -84 -88 -227q-264 -807 -334 -995q338 33 747 81q-121 250 -215 375l256 105q105 -162 241 -419t208 -433l-277 -123q-51 135 -96 242z" />
    <glyph glyph-name="Identity.519" unicode="&#x30e1;" 
d="M1417 1614l314 -111q-37 -63 -84 -182q-117 -313 -277 -557q272 -223 488 -451l-211 -235q-195 227 -453 450q-330 -397 -762 -632l-235 210q467 227 778 605q-309 244 -549 387l176 211q274 -172 541 -369q125 197 225 485q29 78 49 189z" />
    <glyph glyph-name="Identity.520" unicode="&#x30e2;" 
d="M1055 659v-313q0 -84 54 -119t179 -34q242 0 529 28l-19 -276q-266 -17 -544 -17t-380 84q-100 84 -100 252v395h-334q-70 0 -223 -10v269q143 -10 223 -11h334v348h-223q-109 0 -199 -6v256q147 -10 199 -10h985q106 0 184 10v-256q-160 6 -184 6h-481v-348h618
q92 0 199 8l2 -262q-57 6 -195 6h-624z" />
    <glyph glyph-name="Identity.521" unicode="&#x30e3;" 
d="M969 727q225 -817 252 -870l-279 -68q-10 81 -44 203t-181 684l-383 -82l-64 246q161 14 385 59q-31 119 -52 192t-58 144l274 65q8 -49 33 -155l55 -199q520 98 627 123q59 10 104 33l164 -117q-66 -137 -198 -331t-238 -310l-225 113q78 69 169 181t132 187
q-11 -4 -473 -98z" />
    <glyph glyph-name="Identity.522" unicode="&#x30e4;" 
d="M909 1001q260 -954 308 -1062l-306 -70q-27 145 -44 203q-43 148 -234 872q-279 -57 -463 -98l-72 276q119 12 232 27q111 20 237 43q-18 64 -61 212t-74 200l301 67q16 -102 43 -197t66 -231q692 135 774 154q59 8 121 37l188 -136q-71 -152 -227 -379t-287 -374
l-264 125q104 88 214 223t167 233q-98 -16 -619 -125z" />
    <glyph glyph-name="Identity.523" unicode="&#x30e5;" 
d="M1565 223q129 0 200 8v-264q-123 6 -194 6h-1079q-86 0 -203 -6v266q92 -10 203 -10h663q72 440 80 580h-553q-55 0 -205 -10v270q106 -12 203 -12h524q113 0 154 22l196 -96q-6 -18 -20 -86q-30 -228 -100 -668h131z" />
    <glyph glyph-name="Identity.524" unicode="&#x30e6;" 
d="M1714 354q49 0 191 17v-297q-72 10 -191 10h-1366q-115 0 -203 -10v297q104 -16 203 -17h846q111 629 115 791h-707q-133 0 -231 -8v288q131 -16 229 -16h647q125 0 191 27l213 -107q-16 -55 -21 -92q-43 -332 -137 -883h221z" />
    <glyph glyph-name="Identity.525" unicode="&#x30e7;" 
d="M1366 -72h-776q-72 0 -176 -6v252q70 -8 178 -8h774v272h-653q-129 0 -224 -4v242q80 -6 224 -6h653v248h-676q-156 0 -254 -9v248q88 -10 254 -10h774q92 0 158 4q-2 -26 -2 -137v-1028l2 -140h-258q2 18 2 82z" />
    <glyph glyph-name="Identity.526" unicode="&#x30e8;" 
d="M1458 -76q0 63 2 103h-956q-123 0 -209 -9v273q82 -8 211 -8h954v362h-801q-156 0 -270 -4v262q113 -10 270 -10h801v334h-829q-119 0 -309 -6v266q113 -10 309 -10h932q96 0 178 4q-2 -33 -2 -166v-1237l2 -154h-283z" />
    <glyph glyph-name="Identity.527" unicode="&#x30e9;" 
d="M670 1561h788q150 0 221 10v-264q-82 6 -225 6h-784q-125 0 -213 -6v264q72 -10 213 -10zM506 825q-129 0 -238 -10v266q129 -12 238 -12h1014q102 1 149 21l182 -113q-23 -43 -39 -86q-109 -352 -303 -567q-287 -317 -731 -443l-205 232q453 92 711 358q143 147 211 354
h-989z" />
    <glyph glyph-name="Identity.528" unicode="&#x30ea;" 
d="M1636 979q0 -311 -57 -485q-145 -442 -678 -609l-215 226q332 76 502 258q100 111 133 243t33 383v389q-1 119 -13 205h304q-8 -115 -9 -205v-405zM694 1415v-692q0 -109 6 -178h-303l11 180v690q-1 97 -9 156h301q-6 -68 -6 -156z" />
    <glyph glyph-name="Identity.529" unicode="&#x30eb;" 
d="M1047 1391q0 127 -17 176h305q-14 -43 -14 -178v-1072q129 55 267 172t239 261l158 -226q-123 -158 -318 -312t-377 -247q-33 -16 -90 -61l-170 141q16 78 17 152v1194zM489 1376q0 113 -18 187h301q-14 -57 -14 -185q0 -651 -62 -880q-92 -346 -364 -588l-250 166
q244 172 348 489q59 182 59 811z" />
    <glyph glyph-name="Identity.530" unicode="&#x30ec;" 
d="M426 215v1110q0 127 -23 231h322q-20 -129 -20 -231v-1063q266 76 565 261t487 415l146 -231q-399 -479 -1188 -738q-80 -28 -123 -55l-193 168q27 55 27 133z" />
    <glyph glyph-name="Identity.531" unicode="&#x30ed;" 
d="M262 252v1001q0 141 -4 199q168 -4 217 -4h1127q129 0 202 4q-4 -62 -4 -199v-1003l4 -285h-282l2 113h-987l2 -113h-283q6 31 6 287zM1526 1188h-989v-850h989v850z" />
    <glyph glyph-name="Identity.532" unicode="&#x30ee;" 
d="M625 895v-256q0 -66 6 -150h-281q10 88 10 150v354q0 59 -8 146q80 -6 211 -6h846q109 0 162 14l184 -117q-27 -41 -39 -119q-90 -485 -241 -673q-229 -297 -631 -447l-213 217q387 100 592 352q166 199 200 535h-798z" />
    <glyph glyph-name="Identity.533" unicode="&#x30ef;" 
d="M518 1229v-342q0 -102 8 -168h-301q10 106 11 168v432q0 80 -11 172q131 -8 250 -8h979q121 0 195 14l198 -125q-16 -41 -37 -137q-29 -162 -46 -248t-70 -242t-127 -270q-258 -406 -776 -588l-230 234q225 55 432 183t322 310q152 246 186 615h-983z" />
    <glyph glyph-name="Identity.534" unicode="&#x30f0;" 
d="M1479 563h227q66 0 190 15v-273q-57 8 -190 8h-227v-227q0 -78 8 -195h-281q8 113 8 191v231h-845q-133 0 -201 -8v273q92 -14 201 -15h198v504h-125q-133 0 -202 -8v266q76 -14 202 -14h772v147q0 35 -8 160h279q-6 -127 -6 -160v-147h180q98 0 190 14v-266
q-59 8 -190 8h-180v-504zM825 563h389v504h-389v-504z" />
    <glyph glyph-name="Identity.535" unicode="&#x30f1;" 
d="M1133 309h585q68 0 197 15v-299q-102 10 -197 10h-1358q-88 0 -206 -10v299q94 -14 206 -15h490v510q0 166 -10 236h305q-12 -100 -12 -238v-508zM487 1450h1092q86 0 158 23l170 -117q-41 -61 -54 -86q-61 -129 -182 -292t-231 -263l-226 149q193 154 297 332h-1003
l-244 -10v278q121 -14 223 -14z" />
    <glyph glyph-name="Identity.536" unicode="&#x30f2;" 
d="M561 717q-111 0 -209 -8v258q102 -10 199 -11h899q33 115 61 295h-976q-125 0 -236 -12v281q166 -18 233 -19h928q121 1 187 21l204 -129q-23 -49 -32 -93q-111 -537 -248 -759q-145 -225 -353 -388t-526 -276l-213 225q263 64 481 200t345 321q27 43 53 94h-797z" />
    <glyph glyph-name="Identity.537" unicode="&#x30f3;" 
d="M238 193q440 61 784 268q252 151 448 365t297 431l160 -288q-119 -211 -317 -412t-441 -346q-367 -221 -759 -289zM494 1556q114 -76 278 -210t250 -222l-209 -215q-82 89 -242 227t-270 216z" />
    <glyph glyph-name="Identity.538" unicode="&#x30f4;" 
d="M1653 1704l162 68q98 -143 163 -279l-161 -70q-96 189 -164 281zM1110 1303h358q109 0 170 20l177 -109q-14 -45 -39 -161q-66 -349 -189 -577t-343 -387t-496 -232l-213 245q158 29 290 82q299 113 465 348q137 203 180 529h-1015v-301q0 -96 8 -152h-283q8 68 8 172
v357q0 125 -8 174q92 -8 209 -8h436v155q0 86 -14 189h315q-16 -117 -16 -189v-155zM1718 1415l-164 -69q-106 207 -159 284l161 66q68 -99 162 -281z" />
    <glyph glyph-name="Identity.539" unicode="&#x30f5;" 
d="M1315 -131q-41 0 -287 12l-27 250q164 -25 238 -25t100 56q33 72 52 251q18 179 18 347h-371q-45 -316 -170 -532t-366 -384l-219 174q115 55 217 150q240 223 293 592h-232q-113 0 -217 -6v247q117 -10 215 -10h256q2 45 2 139t-10 160h272q-6 -43 -10 -136t-8 -163h321
q59 0 125 10l160 -75q-12 -57 -12 -88q-14 -635 -107 -844q-55 -125 -233 -125z" />
    <glyph glyph-name="Identity.540" unicode="&#x30f6;" 
d="M1587 973q113 0 180 10v-250q-82 8 -180 8h-250q-51 -649 -526 -942l-254 170q102 45 184 109q295 242 338 663h-358q-143 -233 -283 -356l-239 139q168 127 299 329t155 431l287 -59q-47 -119 -63 -161t-39 -91h749z" />
    <glyph glyph-name="Identity.541" unicode="&#x30fb;" 
d="M762 778q0 106 78 184t184 78t184 -78t78 -184t-78 -184t-184 -78t-184 78t-78 184z" />
    <glyph glyph-name="Identity.542" unicode="&#x30fc;" 
d="M518 637q-203 0 -330 -10v321q147 -12 330 -12h1100q80 0 240 12v-321l-240 10h-1100z" />
    <glyph glyph-name="Identity.543" unicode="&#x30fd;" 
d="M770 1241q180 -152 434 -422t385 -454l-250 -199q-131 203 -367 465q-237 262 -437 428z" />
    <glyph glyph-name="Identity.544" unicode="&#x30fe;" 
d="M719 1229q180 -154 434 -424t385 -455l-250 -198q-132 204 -368 466t-437 426zM1501 1505q90 -129 187 -313l-177 -74q-119 223 -186 314zM1223 1415q74 -102 186 -313l-178 -74q-135 252 -180 318z" />
    <glyph glyph-name="Identity.545" unicode="&#x4e00;" 
d="M84 930h1884v-264h-1884v264z" />
    <glyph glyph-name="Identity.546" unicode="&#x4e01;" 
d="M1935 1579v-254h-704v-1157q0 -125 -34 -188t-118 -97q-131 -49 -501 -49q-27 131 -119 287q425 -22 465 6q16 12 16 45v1153h-825v254h1820z" />
    <glyph glyph-name="Identity.547" unicode="&#x4e03;" 
d="M1087 129h410q100 0 132 78t50 346q113 -84 250 -117q-25 -313 -109 -432t-304 -119h-449q-231 0 -316 84t-85 320v499l-535 -79l-41 245l576 88v650h268v-611l1003 156l41 -252l-1044 -156v-542q0 -102 26 -130t127 -28z" />
    <glyph glyph-name="Identity.548" unicode="&#x4e07;" 
d="M1925 1356h-1065q-8 -223 -18 -332h919q-2 -78 -6 -109q-23 -477 -55 -688t-90 -278q-74 -86 -219 -103q-104 -14 -357 -2q-10 127 -86 240q141 -12 342 -12q66 0 96 26q78 74 109 690h-682q-53 -317 -189 -560t-403 -402q-63 113 -176 197q159 87 282 229
q89 101 162 284q92 222 107 652q2 57 6 168h-477v239h1800v-239z" />
    <glyph glyph-name="Identity.549" unicode="&#x4e08;" 
d="M1929 1128h-565q-18 -272 -74 -473t-176 -354q311 -188 838 -244q-80 -80 -148 -233q-553 72 -878 295q-248 -182 -674 -279q-18 50 -59 114t-82 103q397 82 616 234q-246 262 -379 717l232 55q100 -375 327 -602q164 217 191 667h-977v238h985q0 217 2 334h268
q0 -121 -4 -334h557v-238z" />
    <glyph glyph-name="Identity.550" unicode="&#x4e09;" 
d="M133 195h1778v-250h-1778v250zM389 885h1249v-248h-1249v248zM248 1538h1552v-246h-1552v246z" />
    <glyph glyph-name="Identity.551" unicode="&#x4e0a;" 
d="M1090 168h866v-246h-1862v246h733v1542h263v-586h722v-247h-722v-709z" />
    <glyph glyph-name="Identity.552" unicode="&#x4e0b;" 
d="M1937 1339h-823v-321l41 47q494 -248 698 -414l-180 -223q-170 150 -559 373v-973h-262v1511h-739v246h1824v-246z" />
    <glyph glyph-name="Identity.553" unicode="&#x4e0d;" 
d="M1157 -174h-266v999q-305 -326 -651 -503q-72 123 -168 221q268 125 500 342t382 463h-817v249h1776v-249h-637q-47 -86 -119 -189v-213l152 127q512 -369 682 -555l-207 -186q-172 207 -627 555v-1061z" />
    <glyph glyph-name="Identity.554" unicode="&#x4e0e;" 
d="M1950 578v-234h-400q-49 -326 -130 -414q-80 -88 -202 -100t-366 -2q-8 127 -86 244q164 -14 338 -15q68 0 100 29q55 47 94 258h-1194v234h1227q10 78 21 217h-709l-20 -86l-258 20q119 442 200 1008l254 -23q-8 -47 -41 -237h948v-234h-991q-29 -152 -45 -223h928
q-7 -127 -39 -442h371z" />
    <glyph glyph-name="Identity.555" unicode="&#x4e11;" 
d="M1954 672h-371q-33 -459 -41 -555h391v-234h-1818v234h370q49 279 86 555h-477v241h508q35 274 51 469h-374v238h1353q-12 -328 -35 -707h357v-241zM1370 1382h-467q-18 -178 -53 -469h498q10 143 22 469zM737 117h549q25 250 47 555h-516q-47 -356 -80 -555z" />
    <glyph glyph-name="Identity.556" unicode="&#x4e14;" 
d="M1675 143h273v-237h-1842v237h308v1483h1261v-1483zM1419 645v262h-764v-262h764zM1419 1391h-764v-258h764v258zM655 410v-267h764v267h-764z" />
    <glyph glyph-name="Identity.557" unicode="&#x4e16;" 
d="M1669 377h-246v82h-274v-84h-246v633h-278v-822h1278v-235h-1278v-129h-252v1186h-291v235h291v430h252v-430h278v475h246v-475h274v455h246v-455h303v-235h-303v-631zM1149 686h274v322h-274v-322z" />
    <glyph glyph-name="Identity.558" unicode="&#x4e18;" 
d="M1487 137h475v-237h-1874v237h311v1434l224 -45q578 78 911 194l184 -211q-432 -129 -1069 -204v-271h1200v-237h-362v-660zM649 797v-660h588v660h-588z" />
    <glyph glyph-name="Identity.559" unicode="&#x4e19;" 
d="M1911 1374h-760v-244h713v-1021q0 -99 -27 -153t-94 -81q-92 -41 -402 -41q-18 123 -79 240q80 -4 303 -4q29 0 40 9t11 36v786h-477q-10 -61 -25 -115q365 -250 490 -383l-166 -192q-125 147 -412 358q-131 -240 -422 -401q-63 94 -168 176v-518h-243v1304h692v244h-754
v240h1780v-240zM436 901v-536q375 182 434 536h-434z" />
    <glyph glyph-name="Identity.560" unicode="&#x4e1e;" 
d="M1149 422q0 -90 -24 -137t-83 -74q-96 -37 -370 -37q-12 102 -74 217q280 -9 294 2q15 12 15 35v862h144q90 70 178 158h-856v213h1063l51 12l162 -125q-182 -199 -385 -350q47 -104 118 -213q207 158 334 303l219 -160q-250 -193 -428 -307q221 -244 498 -354
q-96 -86 -172 -213q-428 211 -684 713v-545zM141 -104v215h1766v-215h-1766zM127 981v213h508l43 10l153 -69q-78 -305 -233 -531q-156 -225 -358 -350q-29 39 -87 92t-100 80q158 86 284 229t198 326h-408z" />
    <glyph glyph-name="Identity.561" unicode="&#x4e21;" 
d="M1620 70v870h-487v-506h149v395h215v-706h-215v100h-530v-143h-203v749h203v-395h143v506h-469v-1122h-238v1347h707v195h-789v235h1840v-235h-813v-195h727v-1099q0 -88 -23 -136t-80 -73q-92 -41 -348 -37q-16 102 -80 213q186 -11 230 -7q43 3 52 12t9 32z" />
    <glyph glyph-name="Identity.562" unicode="&#x4e26;" 
d="M1618 297l-221 57q123 293 190 639l264 -59q-137 -432 -233 -637zM227 922l219 57q143 -322 181 -625l-236 -59q-8 127 -55 302q-48 175 -109 325zM1364 150h582v-252h-1840v252h578v983h-539v239h416q-63 156 -147 277l217 84q127 -172 182 -328l-78 -33h500
q113 170 186 365l273 -72q-113 -193 -185 -293h394v-239h-539v-983zM924 1133v-983h196v983h-196z" />
    <glyph glyph-name="Identity.563" unicode="&#x4e2d;" 
d="M1149 1380h719v-1022h-256v103h-463v-639h-258v639h-461v-113h-246v1032h707v355h258v-355zM430 700h461v441h-461v-441zM1149 700h463v441h-463v-441z" />
    <glyph glyph-name="Identity.564" unicode="&#x4e32;" 
d="M1151 774h719v-717h-266v80h-453v-315h-264v315h-441v-82h-253v719h694v123h-611v608h611v228h264v-228h629v-608h-629v-123zM1513 1294h-362v-184h362v184zM528 1110h359v184h-359v-184zM446 354h441v199h-441v-199zM1151 354h453v199h-453v-199z" />
    <glyph glyph-name="Identity.565" unicode="&#x4e38;" 
d="M1624 90h111q33 0 44 69t15 300q94 -74 229 -111q-16 -280 -71 -388t-195 -107h-178q-145 0 -200 70q-54 71 -54 267v877h-362q-23 -250 -80 -442q201 -141 313 -254l-184 -199q-92 100 -226 203q-180 -358 -557 -555q-66 113 -178 196q369 180 524 519
q-180 127 -333 221l166 170q141 -82 249 -152q31 125 48 293h-537v242h551q4 137 4 420h262q-4 -350 -8 -420h600v-1119q0 -66 8 -83t39 -17z" />
    <glyph glyph-name="Identity.566" unicode="&#x4e39;" 
d="M1948 862v-233h-254v-525q0 -104 -28 -159t-97 -84q-94 -41 -443 -41q-16 111 -84 237q111 -8 344 -8q35 2 49 14q13 12 13 46v520h-838q-61 -545 -368 -807q-29 37 -87 91t-98 79q254 219 308 637h-263v233h279v787h1313v-787h254zM627 862h821v561h-821v-561zM756 1235
l172 135q238 -178 362 -319l-184 -154q-86 115 -350 338z" />
    <glyph glyph-name="Identity.567" unicode="&#x4e3b;" 
d="M1159 125h787v-240h-1833v240h778v395h-584v236h584v354h-692v238h819q-104 102 -307 249l200 140q266 -172 394 -310l-109 -79h649v-238h-686v-354h588v-236h-588v-395z" />
    <glyph glyph-name="Identity.568" unicode="&#x4e43;" 
d="M1440 80q72 0 100 29q88 76 129 743h-270q-23 -141 -23 -145l-256 18q51 291 80 651h-403v-100q0 -1008 -555 -1460q-31 48 -88 112t-99 95q131 102 226 238q94 136 144 261q120 300 120 758v96h-379v240h1317q-24 -285 -53 -529h509q-2 -80 -4 -114q-29 -496 -65 -722
t-109 -308q-72 -82 -223 -99q-106 -14 -362 -2q-12 135 -93 252q150 -14 357 -14z" />
    <glyph glyph-name="Identity.569" unicode="&#x4e45;" 
d="M1286 1438l178 -82q-72 -287 -196 -545q106 -258 294 -460t435 -304q-98 -84 -178 -219q-438 211 -701 723q-330 -496 -854 -731q-94 147 -190 219q375 149 650 439t413 702h-430q-188 -356 -437 -576q-92 96 -219 182q201 152 355 400t239 547l268 -60
q-35 -115 -92 -248h418z" />
    <glyph glyph-name="Identity.570" unicode="&#x4e4b;" 
d="M1440 -141q-340 -1 -566 73t-376 271q-117 -236 -211 -379l-240 149q109 125 212 319t163 372l246 -91q-31 -74 -58 -131q35 -68 86 -125q219 156 431 373t358 428h-1288v238h698v377h250v-377h508l49 12l184 -115q-170 -287 -434 -577t-545 -502q195 -78 549 -78
q178 -4 529 2q-55 -84 -84 -239h-461z" />
    <glyph glyph-name="Identity.571" unicode="&#x4e4d;" 
d="M1944 1167h-918v-225h791v-233h-791v-230h832v-237h-832v-420h-258v1345h-172q-158 -270 -303 -428q-68 63 -225 154q152 145 288 371t222 471l256 -66q-43 -117 -113 -262h1223v-240z" />
    <glyph glyph-name="Identity.572" unicode="&#x4e4e;" 
d="M1567 821l-203 74q119 219 188 459l265 -84q-174 -338 -250 -449zM295 1233l209 76q141 -238 182 -410l-223 -86q-35 168 -168 420zM1952 784v-252h-774v-407q0 -113 -31 -170t-105 -86q-117 -45 -456 -45q-31 135 -105 254q150 -8 367 -8q37 2 51 14t14 43v405h-815v252
h815v590q-319 -25 -639 -31q-6 102 -59 222q932 33 1460 157l119 -223q-238 -57 -616 -98v-617h774z" />
    <glyph glyph-name="Identity.573" unicode="&#x4e4f;" 
d="M1378 -145q-336 0 -549 62t-354 233q-92 -166 -194 -306l-213 144q94 94 187 246t153 292l227 -77l-43 -87q33 -55 72 -94q204 113 400 270t335 316h-1151v231h647v299q-317 -27 -657 -32q-14 111 -60 217q954 27 1481 153l186 -202q-293 -70 -702 -113v-322h446l45 13
l183 -119q-160 -227 -407 -451t-517 -391q178 -55 500 -55q326 -6 602 6q-55 -86 -82 -233h-535z" />
    <glyph glyph-name="Identity.574" unicode="&#x4e57;" 
d="M1864 383h-557q274 -221 673 -322q-102 -92 -178 -223q-373 125 -663 393v-405h-244v405q-281 -258 -657 -391q-68 113 -166 207q182 49 360 139t305 197h-538v207h258v147h-342v211h342v144h-226v206h664v111q-293 -20 -621 -27q-6 102 -55 207q918 27 1417 135
l158 -198q-289 -61 -655 -96v-132h686v-206h-240v-144h350v-211h-350v-147h279v-207zM1346 590v147h-207v-147h207zM1346 1092h-207v-144h207v144zM694 1092v-144h201v144h-201zM694 737v-147h201v147h-201z" />
    <glyph glyph-name="Identity.575" unicode="&#x4e59;" 
d="M686 164h823q102 0 144 84q41 84 51 348q111 -59 248 -92q-25 -352 -127 -473t-348 -121h-768q-268 0 -403 96q-134 96 -134 270q0 62 12 108t63 129q138 229 867 816h-913v254h1278l59 14l172 -129q-14 -14 -43 -30q-820 -626 -1052 -866q-113 -118 -145 -171t-32 -102
q0 -135 248 -135z" />
    <glyph glyph-name="Identity.576" unicode="&#x4e5d;" 
d="M1583 88h139q37 0 48 57t18 254q88 -70 229 -106q-16 -252 -74 -346t-198 -94h-207q-152 -1 -208 69t-56 266v801h-371q-20 -199 -60 -359q-93 -370 -317 -590q-125 -124 -299 -218q-27 47 -77 104q-51 57 -99 92q304 154 439 411q121 228 153 560h-489v246h503
q4 150 5 473h266q0 -270 -8 -473h608v-1047q0 -66 9 -83t46 -17z" />
    <glyph glyph-name="Identity.577" unicode="&#x4e5e;" 
d="M741 115h811q84 0 117 51t41 219q94 -55 236 -86q-25 -258 -113 -343t-305 -85h-764q-233 0 -350 80t-117 223q0 59 16 102q15 43 77 116q114 136 573 409h-525v233h973l53 8l178 -129q-18 -18 -47 -34q-930 -483 -1022 -630q-14 -24 -14 -50q0 -84 182 -84zM1917 1245
h-1321q-156 -219 -320 -364q-113 113 -210 178q154 117 291 298q138 181 223 378l256 -80q-39 -84 -88 -170h1169v-240z" />
    <glyph glyph-name="Identity.578" unicode="&#x4e5f;" 
d="M872 82h621q135 0 178 58t66 263q106 -66 227 -92q-31 -262 -121 -355t-334 -93h-639q-272 0 -369 81t-98 314v539l-286 -90l-64 219l350 110v555h240v-479l315 98v521h242v-443l371 115l76 51l172 -74l-11 -45q-10 -600 -59 -744t-164 -175t-262 -23q-8 127 -55 223
q57 -6 172 -6q35 0 55 18t39 70q27 90 33 467l-367 -116v-768h-242v692l-315 -101v-618q-1 -112 39 -142t190 -30z" />
    <glyph glyph-name="Identity.579" unicode="&#x4e71;" 
d="M1522 68h164q43 0 57 72t22 302q111 -80 222 -102q-19 -280 -77 -390t-204 -110h-223q-156 0 -213 75t-58 280v1505h242v-1507q0 -80 12 -103q13 -22 56 -22zM737 1169h414v-217h-414v-270h355v-795h-238v45h-469v-65h-227v815h342v270h-434v217h434v242
q-168 -25 -338 -37q-18 92 -70 193q559 59 856 162l176 -191q-129 -41 -387 -90v-279zM854 147v322h-469v-322h469z" />
    <glyph glyph-name="Identity.580" unicode="&#x4e73;" 
d="M1503 68h176q47 0 61 76t25 323q111 -84 228 -113q-19 -292 -77 -406t-214 -114h-240q-166 0 -225 78t-59 287v1493h254v-1495q0 -81 13 -105t58 -24zM477 713h66q47 41 112 114h-501v215h673l-104 43q112 172 182 365l221 -84q-135 -238 -198 -328l129 -112
q-190 -188 -338 -308v-36l383 28v-221q-244 -25 -383 -35v-293q-1 -86 -21 -133q-20 -46 -90 -78t-301 -32q-16 104 -78 221q86 -2 211 -2q37 2 37 31v268q-186 -16 -389 -31l-25 232q369 23 414 26v150zM367 1104l-193 -55q-16 123 -88 288l184 49q64 -128 97 -282z
M682 1130l-205 -32q-4 129 -47 293l195 26q49 -148 57 -287zM950 1729l146 -201q-371 -94 -967 -121q-10 96 -59 199q558 37 880 123z" />
    <glyph glyph-name="Identity.581" unicode="&#x4e7e;" 
d="M1411 80h295q45 0 62 48t22 222q88 -49 207 -76q-16 -258 -81 -344t-216 -86h-291q-342 0 -342 254q0 62 17 118q16 56 106 198t264 366h-319v164l-15 -16q-41 45 -133 121v-557h-311v-119h352v-217h-352v-334h-236v334h-364v217h364v119h-295v725h295v114h-340v213h340
v191h236v-191h338v-213h-338v-114h311v-54q164 211 244 570l242 -47q-31 -125 -74 -246h567v-226h-661q-61 -125 -129 -217h491l53 4l158 -63q-14 -33 -25 -45q-444 -524 -512 -663q-27 -54 -26 -95q0 -55 96 -55zM762 666v106h-402v-106h402zM762 936v104h-402v-104h402z
" />
    <glyph glyph-name="Identity.582" unicode="&#x4e80;" 
d="M1810 717v-512q82 -43 170 -64q-18 -179 -84 -245t-239 -66h-414q-197 0 -271 56t-81 208h-412v-108h-233v731h645v67h-557v396q-6 -4 -70 -41q-31 43 -82 95t-92 77q354 168 514 432l258 -49q-33 -49 -49 -72h373l33 8l157 -100q-33 -59 -110 -164h440v-582h-576v-67
h680zM1464 922v88h-334v-88h334zM1464 1141v86h-334v-86h334zM891 1141v86h-328v-86h328zM1063 1450h-393q-57 -57 -86 -84h420q32 39 59 84zM563 922h328v88h-328v-88zM1573 563h-443v-90h443v90zM1573 334h-443v-86h443v86zM891 563h-412v-90h412v90zM479 334v-86h412v86
h-412zM1270 2h366q53 0 80 20t41 72h-624q2 -55 29 -74q28 -18 108 -18z" />
    <glyph glyph-name="Identity.583" unicode="&#x4e86;" 
d="M1165 106q1 -106 -29 -161t-126 -89t-424 -34q-20 109 -97 250q374 -21 406 3q12 9 12 36v927h137q184 131 355 314h-1188v239h1397l59 17l191 -142q-142 -176 -328 -349t-365 -283v-728z" />
    <glyph glyph-name="Identity.584" unicode="&#x4e88;" 
d="M1163 725v-637q1 -98 -27 -149t-114 -82t-389 -31q-20 117 -88 233q121 -4 313 -4q29 3 40 11t11 30v629h-809v231h932q-227 96 -448 179l121 184q303 -109 321 -115q141 88 260 193h-989v223h1225l55 14l174 -137q-211 -211 -473 -389q150 -59 176 -72l-49 -80h324
l45 17l198 -86q-160 -334 -327 -535l-209 121q84 115 159 252h-432z" />
    <glyph glyph-name="Identity.585" unicode="&#x4e89;" 
d="M1978 854v-221h-221v-461h-246v88h-374v-174q0 -98 -26 -148t-91 -77q-98 -41 -387 -41q-18 102 -88 233q121 -6 293 -6q29 2 40 11t11 32v170h-584v221h584v152h-815v221h815v143h-506v95q-53 -41 -119 -84q-29 41 -82 91t-96 79q193 111 336 258t225 299l262 -49
q-43 -72 -78 -119h443l41 10l174 -121q-76 -109 -207 -246h475v-356h221zM1110 1358h-442q-57 -68 -144 -148h459q61 62 127 148zM1137 997v-143h374v143h-374zM1511 481v152h-374v-152h374z" />
    <glyph glyph-name="Identity.586" unicode="&#x4e8b;" 
d="M1970 578v-187h-213v-356h-248v84h-368v-64q0 -90 -24 -134t-85 -71q-88 -35 -362 -34q-20 92 -80 192q98 -4 252 -4q29 2 40 13t11 38v64h-623v176h623v96h-811v187h811v88h-606v163h606v91h-555v405h555v84h-764v193h764v133h248v-133h782v-193h-782v-84h581v-405h-581
v-91h616v-251h213zM1473 1171h-332v-98h332v98zM571 1073h322v98h-322v-98zM1141 666v-88h368v88h-368zM1509 295v96h-368v-96h368z" />
    <glyph glyph-name="Identity.587" unicode="&#x4e8c;" 
d="M115 272h1818v-280h-1818v280zM285 1454h1478v-268h-1478v268z" />
    <glyph glyph-name="Identity.588" unicode="&#x4e91;" 
d="M104 758v254h1844v-254h-955q-121 -301 -260 -568q625 23 752 27q-115 168 -223 297l235 115q139 -155 267 -341t196 -331l-252 -137q-37 90 -82 166q-569 -33 -1458 -72l-16 258q59 0 299 8q129 262 225 578h-572zM1735 1604v-252h-1401v252h1401z" />
    <glyph glyph-name="Identity.589" unicode="&#x4e92;" 
d="M1958 133v-227h-1860v227h1112q20 117 43 268h-608l-24 -96l-269 19q147 508 242 1075h-432v227h1741v-227h-1043q-14 -76 -47 -232h793q-66 -635 -129 -1034h481zM696 621h588q12 96 39 329h-555q-33 -167 -72 -329z" />
    <glyph glyph-name="Identity.590" unicode="&#x4e94;" 
d="M1622 160h320v-242h-1827v242h436q55 219 121 553h-371v239h416q31 162 61 357h-545v239h1575v-239h-757q-14 -82 -66 -357h637v-792zM1368 713h-428q-57 -289 -117 -553h545v553z" />
    <glyph glyph-name="Identity.591" unicode="&#x4e95;" 
d="M1946 709v-248h-426v-641h-260v641h-492q-86 -426 -418 -658q-36 43 -102 97t-117 82q279 184 363 479h-388v248h435q8 106 8 241v150h-383v246h383v380h258v-380h453v385h260v-385h372v-246h-372v-391h426zM1260 709v391h-453v-152q0 -120 -6 -239h459z" />
    <glyph glyph-name="Identity.592" unicode="&#x4e98;" 
d="M414 1257h1245v-993h-1245v993zM655 1042v-180h750v180h-750zM655 664v-185h750v185h-750zM109 115h1839v-224h-1839v224zM170 1622h1731v-225h-1731v225z" />
    <glyph glyph-name="Identity.593" unicode="&#x4e99;" 
d="M1278 760l-145 -182q-102 102 -336 217l135 163q217 -92 346 -198zM1217 375l-156 -189q-106 109 -359 250l144 170q246 -118 371 -231zM1952 131v-223h-1854v223h1149q63 379 111 877h-584q-92 -444 -166 -721l-272 14q137 469 252 1096h-434v225h1747v-225h-1049
l-35 -178h815q-49 -535 -129 -1088h449z" />
    <glyph glyph-name="Identity.594" unicode="&#x4e9b;" 
d="M100 -137v243h1848v-243h-1848zM184 1526h226v-664l116 12v859h242v-308h254v-217h-254v-311l270 29l6 -221q-102 -12 -948 -115l-24 241l112 11v684zM336 299v233h1393v-233h-1393zM1675 655h-274q-176 0 -237 67q-60 67 -60 251v760h244v-357q209 74 370 160l183 -193
q-231 -100 -553 -188v-182q0 -59 14 -75t72 -15h219q49 0 65 44t25 199q80 -59 219 -94q-20 -217 -81 -297t-206 -80z" />
    <glyph glyph-name="Identity.595" unicode="&#x4e9c;" 
d="M1350 115h616v-219h-1882v219h580v288h-205v-53h-234v834h439v221h-527v221h1778v-221h-565v-221h460v-832h-243v51h-217v-288zM1567 971h-217v-353h217v353zM1114 618v353h-215v-353h215zM899 1405v-221h215v221h-215zM459 618h205v353h-205v-353zM899 403v-288h215v288
h-215z" />
    <glyph glyph-name="Identity.596" unicode="&#x4ea1;" 
d="M1956 1102h-1385v-791q0 -102 43 -143t164 -41h731q205 0 349 25q8 -131 30 -246q-86 -18 -387 -19h-694q-266 -1 -378 93t-112 342v780h-223v246h797v385h250v-385h815v-246z" />
    <glyph glyph-name="Identity.597" unicode="&#x4ea4;" 
d="M1985 53q-102 -107 -158 -231q-496 94 -807 346q-317 -231 -799 -350q-47 104 -153 229q479 92 772 295q-166 193 -283 471l234 70q88 -219 235 -379q158 168 240 391l262 -76q-119 -283 -314 -479q301 -213 771 -287zM610 1245l252 -98q-104 -137 -259 -273t-306 -229
q-102 113 -205 189q150 74 291 185t227 226zM121 1262v237h774v238h250v-238h784v-237h-504q373 -254 531 -431l-217 -167q-137 175 -520 456l194 142h-1292z" />
    <glyph glyph-name="Identity.598" unicode="&#x4ea5;" 
d="M1143 1509h794v-229h-874l55 -25q-199 -199 -383 -346q84 -53 156 -112q293 176 452 399l224 -117q-418 -549 -1305 -805q-59 123 -149 220q279 68 520 172q-174 141 -416 286l186 162q72 -39 144 -84q133 119 244 250h-680v229h778v226h254v-226zM1593 862l232 -131
q-166 -227 -398 -401q328 -186 508 -324l-241 -182q-160 137 -504 350q-395 -225 -961 -352q-47 119 -143 235q1101 213 1507 805z" />
    <glyph glyph-name="Identity.599" unicode="&#x4ea6;" 
d="M1452 913l223 97q250 -391 320 -668l-246 -113q-57 283 -297 684zM1931 1174h-522v-1065q0 -101 -24 -157t-87 -85q-96 -45 -374 -45q-12 111 -78 254q104 -6 262 -6q45 2 45 41v1063h-197v-205q0 -374 -88 -606q-88 -231 -228 -388q-87 -96 -200 -176q-29 43 -85 99
t-101 86q119 82 206 185t134 199t75 213q29 117 35 203t7 189v201h-594v241h786v320h252v-320h776v-241zM358 995l256 -55q-121 -420 -354 -674q-86 76 -221 148q106 98 191 252t128 329z" />
    <glyph glyph-name="Identity.600" unicode="&#x4ea8;" 
d="M1143 1565h792v-209h-1822v209h776v170h254v-170zM1665 1268v-449h-1266v449h1266zM1407 979v129h-762v-129h762zM1157 61q0 -94 -31 -142t-125 -76t-428 -23q-20 98 -86 219q369 -18 402 4q12 8 12 29v356h191q117 45 196 86h-1095v205h1419l55 10l168 -147
q-309 -199 -678 -332v-189z" />
    <glyph glyph-name="Identity.601" unicode="&#x4eab;" 
d="M1944 399v-206h-795v-150q0 -90 -30 -133q-29 -43 -113 -68t-398 -24q-25 98 -84 200q119 -6 314 -6q31 2 42 10t11 31v140h-787v206h787v86h115q109 37 200 78h-901v191h1231l55 10l152 -133q-225 -135 -486 -232h687zM1694 836h-1325v450h1325v-450zM612 1120v-116h824
v116h-824zM1913 1583v-205h-1780v205h756v152h254v-152h770z" />
    <glyph glyph-name="Identity.602" unicode="&#x4eac;" 
d="M1370 324l223 106q260 -260 371 -432l-240 -121q-108 185 -354 447zM1708 510h-561v-432q0 -96 -24 -146q-25 -50 -105 -80t-359 -30q-18 113 -77 233q283 -11 303 4q8 6 8 27v424h-539v653h1354v-653zM598 954v-235h852v235h-852zM410 430l249 -80q-80 -127 -186 -251
t-211 -203q-92 78 -199 141q102 73 199 183t148 210zM1925 1538v-231h-1804v231h768v197h258v-197h778z" />
    <glyph glyph-name="Identity.603" unicode="&#x4ead;" 
d="M1143 1579h794v-201h-1822v201h774v158h254v-158zM389 1298h1278v-440h-1278v440zM1407 1018v121h-774v-121h774zM117 352v430h1810v-430h-227v246h-1366v-246h-217zM422 301v197h1202v-197h-453v-233q0 -96 -30 -145q-31 -48 -109 -73q-104 -29 -432 -28q-18 96 -84 221
q346 -16 380 5q11 7 11 30v223h-485z" />
    <glyph glyph-name="Identity.604" unicode="&#x4eae;" 
d="M1462 47h191q47 0 61 38t21 173q76 -57 225 -94q-18 -194 -78 -264t-203 -70h-260q-180 0 -241 60t-62 225v409h264v-407q0 -47 14 -59t68 -11zM618 530h254q-10 -162 -38 -264t-98 -197q-71 -95 -204 -155t-342 -98q-14 47 -52 109t-72 102q180 27 288 65t163 107
q56 68 75 137q18 69 26 194zM389 1296h1278v-444h-1278v444zM1407 1014v123h-774v-123h774zM1925 348h-225v236h-1366v-236h-217v420h1808v-420zM1937 1579v-201h-1822v201h774v158h254v-158h794z" />
    <glyph glyph-name="Identity.605" unicode="&#x4eba;" 
d="M854 1688h279q-2 -39 -7 -117q25 -468 221 -861q69 -138 155 -254t218 -226q131 -110 289 -183q-119 -90 -188 -207q-582 289 -807 1028q-207 -692 -758 -1028q-66 98 -205 195q221 122 395 318q124 139 237 379q63 133 108 340t54 407q9 199 9 209z" />
    <glyph glyph-name="Identity.606" unicode="&#x4ec0;" 
d="M1964 1059v-240h-504v-997h-254v997h-526v240h526v645h254v-645h504zM580 -174h-240v1057q-88 -117 -154 -185q-18 47 -60 128t-71 124q143 142 269 350t202 429l232 -74q-94 -240 -178 -391v-1438z" />
    <glyph glyph-name="Identity.607" unicode="&#x4ec1;" 
d="M711 205h1267v-260h-1267v260zM590 -174h-246v1040q-80 -104 -162 -186q-55 129 -143 258q152 139 288 350t220 438l244 -77q-86 -217 -201 -416v-1407zM1898 1409v-260h-1075v260h1075z" />
    <glyph glyph-name="Identity.608" unicode="&#x4ec7;" 
d="M1698 78h47q23 0 35 10t18 64q6 117 6 243q86 -72 193 -104q-5 -195 -27 -281q-42 -159 -213 -157h-131q-98 0 -156 55q-33 33 -46 84t-13 170v885h-233q-25 -435 -124 -737t-329 -498q-29 49 -81 104t-97 82q201 168 284 421q84 253 103 628h-291v237h299q2 139 2 445
h246q0 -303 -4 -445h473v-1116q0 -72 8 -81t31 -9zM537 -176h-242v1030q-45 -63 -119 -143q-68 158 -133 250q137 141 259 346t196 422l229 -72q-84 -223 -190 -424v-1409z" />
    <glyph glyph-name="Identity.609" unicode="&#x4eca;" 
d="M1454 887h-868v164q-174 -150 -379 -273q-51 96 -154 195q249 137 479 355t351 419h243q164 -235 400 -437t475 -315q-76 -76 -160 -213q-199 117 -387 275v-170zM655 1112h734q-240 211 -373 397q-140 -200 -361 -397zM307 461v231h1174l43 10l194 -57
q-139 -348 -375 -829l-258 71q150 293 273 574h-1051z" />
    <glyph glyph-name="Identity.610" unicode="&#x4ecb;" 
d="M539 979h252v-254q0 -453 -207 -700q-94 -113 -236 -203q-31 39 -92 91t-111 83q257 154 332 363q37 103 49 185t13 187v248zM1243 989h254v-1165h-254v1165zM1016 1491q-119 -197 -339 -393t-474 -330q-61 121 -150 201q258 123 483 340q224 217 338 430h261
q156 -254 386 -449t482 -293q-70 -72 -160 -223q-248 128 -476 324t-351 393z" />
    <glyph glyph-name="Identity.611" unicode="&#x4ecf;" 
d="M2015 -76l-254 -104q-14 92 -47 215q-319 -35 -1034 -109l-51 252l182 15q100 323 190 729t136 749l280 -43q-137 -745 -354 -1415q64 6 582 51q-86 260 -199 516l227 86q268 -565 342 -942zM586 -174h-242v1046q-92 -117 -174 -194q-63 154 -141 256q156 143 294 353
t224 437l241 -77q-84 -211 -202 -418v-1403z" />
    <glyph glyph-name="Identity.612" unicode="&#x4ed4;" 
d="M1995 866v-235h-531v-527q0 -104 -26 -158t-95 -81q-96 -45 -409 -45q-16 117 -82 248q86 -4 313 -5q29 -1 41 9t13 34v525h-551v235h551v281h110q117 98 221 219h-735v227h922l47 13l164 -115q-205 -289 -484 -512v-113h531zM586 -174h-242v1046q-92 -117 -174 -194
q-63 154 -141 256q156 145 295 355t223 435l241 -77q-82 -205 -202 -416v-1405z" />
    <glyph glyph-name="Identity.613" unicode="&#x4ed5;" 
d="M1982 879h-518v-746h484v-233h-1225v233h491v746h-542v237h542v578h250v-578h518v-237zM586 -176h-242v1050q-68 -86 -164 -182q-57 139 -141 250q156 144 295 354t225 435l238 -76q-82 -207 -211 -428v-1403z" />
    <glyph glyph-name="Identity.614" unicode="&#x4ed6;" 
d="M1196 72h416q88 0 117 52t43 228q94 -61 221 -94q-25 -233 -99 -319t-264 -86h-452q-219 1 -297 75t-78 285v559l-154 -59l-94 215l248 96v483h241v-387l199 76v530h227v-440l207 78l31 25l45 30l166 -63l-8 -37q-4 -582 -19 -692q-14 -141 -114 -185q-74 -33 -232 -28
q-8 139 -53 223q90 -4 128 -4t49 49t13 438l-213 -84v-729h-227v639l-199 -78v-655q0 -93 27 -117t125 -24zM535 -174h-242v1042q-63 -86 -129 -153q-59 145 -131 246q139 139 265 345t202 423l225 -74q-80 -207 -190 -412v-1417z" />
    <glyph glyph-name="Identity.615" unicode="&#x4ed8;" 
d="M1309 428l-234 -119q-59 147 -264 492l217 100q234 -379 281 -473zM1499 119v930h-780v245h780v418h254v-418h225v-245h-225v-930q0 -117 -31 -173t-104 -85q-115 -45 -479 -41q-25 123 -95 241q299 -11 386 -4q39 -1 54 13t15 49zM594 -174h-250v1026q-66 -82 -143 -164
q-66 147 -144 254q147 141 278 349q130 208 212 433l241 -77q-92 -227 -194 -414v-1407z" />
    <glyph glyph-name="Identity.616" unicode="&#x4ed9;" 
d="M1663 1202h235v-1313h-235v148h-715v-152h-227v1317h227v-938h232v1403h239v-1403h244v938zM559 -172h-231v1081q-76 -98 -170 -192q-61 156 -127 248q145 139 278 344t215 422l226 -74q-88 -215 -191 -395v-1434z" />
    <glyph glyph-name="Identity.617" unicode="&#x4edd;" 
d="M1153 573v-440h670v-250h-1606v250h668v440h-451v246q-115 -86 -209 -143q-57 111 -166 215q250 141 472 375t333 452h271q156 -260 382 -474t468 -329q-74 -76 -173 -235q-233 141 -455 354t-345 412q-201 -334 -574 -623h1157v-250h-442z" />
    <glyph glyph-name="Identity.618" unicode="&#x4ee3;" 
d="M1972 983l-594 -82q94 -750 330 -778q45 -4 69 138q11 71 19 188q49 -57 199 -140q-63 -496 -277 -483q-250 25 -387 288t-194 754l-404 -55l-35 236l414 55q-25 317 -33 600h248q6 -324 27 -567l583 75zM627 -174h-254v1075q-115 -143 -213 -229q-53 133 -135 248
q168 143 317 356q150 213 242 442l233 -76q-84 -195 -190 -376v-1440zM1942 1391l-197 -127q-76 143 -281 344l183 112q207 -188 295 -329z" />
    <glyph glyph-name="Identity.619" unicode="&#x4ee4;" 
d="M1450 913h-852v152q-180 -150 -391 -272q-70 119 -158 196q251 131 481 341t351 405h247q166 -229 400 -423t477 -300q-74 -76 -164 -217q-201 115 -391 268v-150zM678 1133h688q-225 195 -350 362q-127 -176 -338 -362zM1741 735v-524q0 -88 -25 -139t-86 -80
q-98 -39 -356 -39q-20 115 -86 235q51 -2 168 -2t126 6t9 25v299h-492v-694h-258v694h-479v219h1479z" />
    <glyph glyph-name="Identity.620" unicode="&#x4ee5;" 
d="M2003 27l-209 -203q-94 166 -383 493q-225 -319 -623 -497q-27 40 -88 108t-106 107q376 144 581 412q205 267 290 706q40 203 65 465l268 -25q-68 -659 -250 -1040q340 -352 455 -526zM891 639l55 -240q-365 -164 -805 -346l-82 260q150 51 273 101l-41 1196l254 10
l37 -1108q164 70 309 127zM1266 1001l-240 -127q-39 104 -125 248t-180 260l221 111q98 -111 188 -247t136 -245z" />
    <glyph glyph-name="Identity.621" unicode="&#x4eee;" 
d="M819 1036v596h1116v-231h-874v-299h668l40 6l150 -55q-86 -473 -307 -791q174 -156 397 -235q-92 -82 -164 -209q-223 94 -393 254q-158 -158 -367 -256q-27 47 -75 108q-49 61 -86 88q209 86 368 240q-141 188 -243 455q-47 -588 -267 -891q-33 35 -94 85t-100 68
q153 213 197 534q34 236 34 533zM1642 877h-417q80 -246 225 -437q124 183 192 437zM559 -174h-231v1085q-84 -106 -168 -192q-57 150 -129 254q147 135 279 338t214 420l228 -76q-82 -203 -193 -395v-1434z" />
    <glyph glyph-name="Identity.622" unicode="&#x4ef0;" 
d="M1935 1516v-1104q0 -166 -82 -215q-70 -43 -272 -43q-10 117 -59 233q63 -2 151 -2q29 0 29 33v885h-236v-1481h-229v1694h698zM952 1331v-909q225 66 240 70l37 -220q-324 -102 -553 -168l-92 220q78 18 143 36v1143l94 -26q184 127 289 256l225 -134
q-164 -141 -383 -268zM530 -172h-229v1073q-55 -76 -154 -182q-16 47 -56 127t-68 119q139 137 266 342t209 424l221 -70q-72 -193 -189 -404v-1429z" />
    <glyph glyph-name="Identity.623" unicode="&#x4ef2;" 
d="M1413 1325h512v-960h-242v106h-270v-649h-244v649h-264v-121h-229v975h493v383h244v-383zM905 696h264v402h-264v-402zM1413 696h270v402h-270v-402zM528 -178h-231v1032q-39 -51 -121 -145q-53 139 -133 254q137 139 259 344t196 422l229 -72q-84 -221 -199 -440v-1395z
" />
    <glyph glyph-name="Identity.624" unicode="&#x4ef6;" 
d="M1972 748v-238h-524v-688h-246v688h-553v238h553v352h-250q-55 -150 -127 -264q-80 57 -211 116q158 229 242 670l236 -49q-20 -104 -60 -236h170v371h246v-371h428v-237h-428v-352h524zM530 -176h-231v1030q-82 -102 -123 -147q-47 127 -131 254q135 139 257 343
t198 422l231 -73q-88 -231 -201 -436v-1393z" />
    <glyph glyph-name="Identity.625" unicode="&#x4efb;" 
d="M1970 649h-512v-524h492v-234h-1213v234h473v524h-555v236h555v454q-164 -29 -426 -59q-14 84 -69 203q-53 -119 -127 -246v-1413h-244v1048q-96 -121 -166 -188q-51 125 -143 256q154 141 291 352t221 437l241 -76q-39 -98 -71 -164q659 84 1026 217l178 -205
q-203 -68 -463 -117v-499h512v-236z" />
    <glyph glyph-name="Identity.626" unicode="&#x4f01;" 
d="M1163 508v-410h733v-221h-1742v221h223v711h239v-711h291v1063h256v-438h549v-215h-549zM879 1743h249q164 -241 401 -439t484 -305q-78 -80 -164 -219q-240 133 -472 334t-363 389q-127 -190 -348 -387t-471 -338q-57 104 -154 197q257 131 487 347t351 421z" />
    <glyph glyph-name="Identity.627" unicode="&#x4f0a;" 
d="M1974 1141v-226h-125v-563h-235v99h-330q-104 -432 -502 -637q-66 100 -166 184q319 141 420 453h-293v225h334q6 86 6 168v71h-444v226h444v237h-321v226h1087v-463h125zM1325 1378v-237h289v237h-289zM1614 676v239h-289v-73q0 -80 -6 -166h295zM559 -174h-231v1083
q-96 -123 -170 -192q-55 141 -129 248q147 137 279 342t216 422l226 -72q-82 -203 -191 -397v-1434z" />
    <glyph glyph-name="Identity.628" unicode="&#x4f0d;" 
d="M1810 123h183v-225h-1329v225h243q49 266 101 596h-258v225h290q35 233 54 414h-344v227h1142v-227h-549q-55 -406 -57 -414h524v-821zM1565 719h-312q-57 -385 -98 -596h410v596zM561 -178h-237v1089q-86 -119 -177 -213q-14 43 -54 125t-68 127q139 142 266 350
t207 429l223 -72q-72 -188 -160 -357v-1478z" />
    <glyph glyph-name="Identity.629" unicode="&#x4f0e;" 
d="M705 748v221h493v254h-518v225h518v276h246v-276h532v-225h-532v-254h262l41 8l162 -78q-119 -381 -396 -657q221 -139 502 -203q-90 -88 -160 -221q-309 84 -540 260q-238 -166 -553 -260q-23 44 -69 110t-83 101q293 72 523 215q-174 184 -295 452l172 52h-305z
M1589 748h-526q96 -205 262 -359q170 156 264 359zM559 -176h-235v1089q-76 -100 -172 -200q-51 135 -125 245q145 142 274 348t211 425l223 -72q-78 -199 -176 -377v-1458z" />
    <glyph glyph-name="Identity.630" unicode="&#x4f0f;" 
d="M1946 926h-535q168 -641 574 -887q-102 -82 -183 -213q-319 225 -504 725q-125 -438 -475 -733q-70 78 -200 162q428 356 497 946h-469v241h484v564h247v-564h564v-241zM555 -178h-244v1032q-63 -82 -131 -156q-47 129 -133 258q141 142 266 350t201 429l234 -72
q-90 -238 -193 -424v-1417zM1896 1343l-200 -116q-49 121 -213 362l184 105q168 -218 229 -351z" />
    <glyph glyph-name="Identity.631" unicode="&#x4f10;" 
d="M1696 70q70 0 86 368q90 -90 213 -135q-29 -285 -98 -384t-220 -99q-238 0 -395 356q-225 -168 -489 -280q-70 121 -160 210q303 109 563 308q-66 242 -104 565l-422 -43l-23 231l422 39q-18 223 -22 506h256q-4 -256 14 -481l602 59l20 -227l-600 -62q23 -176 68 -395
q168 181 258 371l236 -84q-154 -299 -418 -547q100 -276 213 -276zM592 -174h-248v1053q-78 -98 -154 -179q-18 47 -63 127t-76 121q150 144 283 354t213 433l235 -74q-84 -213 -190 -406v-1429zM1862 1454l-168 -149q-78 86 -316 286l160 133q16 -14 140 -112t184 -158z
" />
    <glyph glyph-name="Identity.632" unicode="&#x4f11;" 
d="M1956 1001h-428q197 -487 489 -741q-106 -78 -182 -194q-233 229 -414 651v-895h-241v854q-186 -389 -437 -621q-68 94 -165 181v-410h-240v1040q-96 -119 -168 -184q-59 141 -141 256q156 141 294 350t224 436l241 -77q-92 -229 -210 -433v-954q147 121 280 319t225 422
h-424v238h521v463h241v-463h535v-238z" />
    <glyph glyph-name="Identity.633" unicode="&#x4f1a;" 
d="M184 502v225h1694v-225h-917q-63 -131 -189 -363q207 6 617 23q-104 121 -201 209l215 112q137 -121 267 -266t202 -260l-227 -137q-27 51 -82 127q-78 -4 -1336 -64l-32 238l309 10q90 188 155 371h-475zM547 897v150q-162 -115 -346 -205q-53 113 -144 205
q252 111 480 303q227 193 348 383h254q160 -221 389 -391t477 -259q-63 -66 -158 -223q-178 84 -344 199v-162h-956zM647 1120h768q-254 190 -393 379q-137 -195 -375 -379z" />
    <glyph glyph-name="Identity.634" unicode="&#x4f1d;" 
d="M662 756v235h1325v-235h-672q-106 -328 -215 -586q188 14 520 41q-78 156 -162 285l215 90q113 -164 208 -346t130 -314l-237 -104q-16 76 -54 166q-758 -72 -1030 -92l-43 243q80 6 199 13q106 258 188 604h-372zM559 -172h-231v1081q-76 -98 -170 -192
q-61 156 -127 248q145 139 278 344t215 422l226 -74q-88 -215 -191 -395v-1434zM1882 1595v-233h-1071v233h1071z" />
    <glyph glyph-name="Identity.635" unicode="&#x4f2f;" 
d="M1845 1372v-1532h-254v84h-590v-98h-243v1546h319q68 199 99 363l288 -45q-61 -164 -129 -318h510zM1591 1141h-590v-365h590v365zM1001 168h590v369h-590v-369zM567 -180h-241v966q-61 -80 -129 -147q-74 133 -148 223q158 145 282 375q123 230 193 492l232 -54
q-76 -262 -189 -495v-1360z" />
    <glyph glyph-name="Identity.636" unicode="&#x4f34;" 
d="M1985 590v-225h-547v-543h-246v543h-539v225h539v276h-457v226h457v616h246v-616h465v-226h-465v-276h547zM559 -172h-231v1081q-76 -98 -170 -192q-61 156 -127 248q145 139 278 344t215 422l226 -74q-88 -215 -191 -395v-1434zM1104 1208l-219 -88q-33 188 -158 436
l205 76q131 -234 172 -424zM1694 1649l248 -86q-135 -285 -220 -435l-198 80q113 224 170 441z" />
    <glyph glyph-name="Identity.637" unicode="&#x4f36;" 
d="M1657 938h-733v125q-106 -98 -230 -176q-57 123 -133 205q176 106 341 284t253 344h231q123 -190 293 -356t338 -252q-61 -74 -141 -221q-115 76 -219 168v-121zM1018 1153h538q-166 162 -274 328q-102 -162 -264 -328zM1868 764v-522q0 -88 -22 -138t-79 -73
q-82 -39 -329 -39q-16 104 -76 225q237 -9 257 5q7 5 7 24v297h-348v-719h-242v719h-344v221h1176zM559 -172h-231v1081q-76 -98 -170 -192q-61 156 -127 248q145 139 278 344t215 422l226 -74q-88 -215 -191 -395v-1434z" />
    <glyph glyph-name="Identity.638" unicode="&#x4f38;" 
d="M1415 1413h527v-1106h-238v82h-289v-565h-239v565h-281v-102h-227v1126h508v313h239v-313zM1704 1192h-289v-184h289v184zM1176 1192h-281v-184h281v184zM895 610h281v187h-281v-187zM1415 610h289v187h-289v-187zM524 -174h-231v1046q-68 -88 -139 -163
q-57 152 -129 252q139 139 263 344q123 205 201 424l232 -74q-78 -207 -197 -422v-1407z" />
    <glyph glyph-name="Identity.639" unicode="&#x4f3a;" 
d="M1917 1632v-1519q0 -103 -25 -159t-86 -87q-94 -45 -387 -45q-18 127 -80 250q86 -6 283 -6q29 2 40 12t11 37v1298h-954v219h1198zM1473 229h-508v-139h-224v828h732v-689zM1247 713h-282v-279h282v279zM1561 1272v-211h-871v211h871zM522 -174h-235v1034
q-55 -72 -127 -153q-16 47 -57 129q-40 82 -70 125q137 141 260 346q122 205 196 422l222 -74q-78 -211 -189 -420v-1409z" />
    <glyph glyph-name="Identity.640" unicode="&#x4f3c;" 
d="M2013 -6l-194 -174q-80 145 -273 391q-207 -256 -590 -404q-18 37 -67 104t-88 107q347 110 529 319q92 109 154 233q115 233 152 651q16 182 23 428l248 -7q-13 -418 -65 -710t-161 -508q271 -324 332 -430zM1286 641l45 -213q-287 -127 -655 -276l-98 239q74 23 206 70
l-12 1155l238 2l10 -1075q207 77 266 98zM524 -174h-231v1046q-68 -88 -139 -163q-57 152 -129 252q139 139 263 344q123 205 201 424l232 -74q-78 -207 -197 -422v-1407zM1516 1004l-222 -97q-49 203 -202 488l202 84q167 -276 222 -475z" />
    <glyph glyph-name="Identity.641" unicode="&#x4f3d;" 
d="M1352 1503h581v-1614h-215v170h-159v-186h-207v1630zM1559 274h159v1016h-159v-1016zM1292 1331q0 -75 -6 -445t-19 -619t-55 -310q-43 -78 -135 -98q-51 -12 -203 -9q-4 109 -57 220q59 -6 144 -7q41 0 61 37q25 41 35 254t18 762h-131q-12 -469 -72 -782t-208 -522
q-27 41 -77 90t-89 73q127 179 176 451t57 690h-151v215h153q2 121 2 385h215q0 -262 -2 -385h344zM492 -176h-220v1048q-66 -98 -122 -170q-35 121 -111 244q119 146 223 356t170 435l207 -64q-70 -217 -147 -391v-1458z" />
    <glyph glyph-name="Identity.642" unicode="&#x4f43;" 
d="M717 1614h1179v-1774h-243v109h-705v-125h-231v1790zM1653 905v473h-238v-473h238zM1178 1378h-230v-473h230v473zM948 670v-486h230v486h-230zM1415 184h238v486h-238v-486zM512 -174h-233v1030q-41 -53 -123 -143q-45 125 -129 248q139 139 265 343t202 422l223 -71
q-76 -213 -205 -443v-1386z" />
    <glyph glyph-name="Identity.643" unicode="&#x4f46;" 
d="M653 117h1334v-228h-1334v228zM553 -176h-240v1038q-76 -94 -141 -164q-55 152 -133 267q143 137 271 341t208 420l236 -75q-84 -219 -201 -424v-1403zM1839 1604v-1287h-1042v1287h1042zM1573 543v311h-524v-311h524zM1573 1079v299h-524v-299h524z" />
    <glyph glyph-name="Identity.644" unicode="&#x4f4d;" 
d="M1989 137v-229h-1323v229h671q143 449 197 918l266 -43q-96 -482 -227 -875h416zM559 -172h-231v1083q-84 -106 -168 -192q-57 150 -129 254q147 135 279 338t214 420l228 -76q-82 -203 -193 -395v-1432zM1212 254l-241 -51q-4 150 -39 378t-84 423l219 38
q120 -448 145 -788zM707 1366h481v342h246v-342h512v-231h-1239v231z" />
    <glyph glyph-name="Identity.645" unicode="&#x4f4e;" 
d="M1978 1047v-220h-407q35 -303 92 -501t115 -199q47 0 53 276q84 -84 190 -127q-25 -227 -83 -306t-183 -79q-166 0 -271 256t-153 680h-352v-399q217 33 369 55l12 -217q-311 -53 -703 -112l-47 225q23 2 131 16v1159l158 -51q528 70 817 172l180 -186q-168 -53 -358 -90
q0 -180 12 -352h428zM979 1047h332q-8 98 -17 307q-152 -23 -315 -43v-264zM684 -137v215h819v-215h-819zM524 -174h-231v1046q-68 -88 -139 -163q-57 152 -129 252q139 139 263 344q123 205 201 424l232 -74q-78 -207 -197 -422v-1407z" />
    <glyph glyph-name="Identity.646" unicode="&#x4f4f;" 
d="M1458 117h529v-230h-1321v230h544v407h-432v230h432v356h-497v229h581q-152 117 -342 226l162 174q121 -61 255 -147t208 -150l-90 -103h469v-229h-498v-356h443v-230h-443v-407zM559 -172h-231v1081q-76 -98 -170 -192q-61 156 -127 248q145 139 278 344t215 422
l226 -74q-88 -215 -191 -395v-1434z" />
    <glyph glyph-name="Identity.647" unicode="&#x4f50;" 
d="M1982 1108h-774q-35 -156 -84 -309h813v-226h-354v-458h399v-228h-1089v228h448v458h-274v60q-145 -385 -354 -623q-45 61 -154 158v-340h-231v1081q-76 -98 -170 -192q-61 156 -127 248q145 139 278 344t215 422l226 -74q-88 -215 -191 -395v-1016q256 293 397 862h-311
v229h361q31 154 59 375l250 -26q-27 -199 -58 -349h725v-229z" />
    <glyph glyph-name="Identity.648" unicode="&#x4f51;" 
d="M1989 1108h-711q-61 -190 -127 -328h760v-930h-246v97h-481v-113h-234v608q-106 -139 -219 -229q-74 111 -158 195q287 227 449 700h-377v233h440q43 170 72 383l256 -36q-37 -207 -72 -347h648v-233zM1665 555h-481v-383h481v383zM559 -172h-231v1083
q-94 -119 -170 -194q-53 139 -129 250q147 139 280 343t215 421l226 -74q-82 -205 -191 -395v-1434z" />
    <glyph glyph-name="Identity.649" unicode="&#x4f53;" 
d="M1962 1139h-444q86 -242 219 -463t280 -359q-115 -90 -182 -188q-74 80 -164 217v-180h-274v-330h-238v330h-268v188q-98 -147 -182 -231q-84 117 -174 184q151 135 287 359t222 473h-403v231h518v354h238v-354h565v-231zM1159 383v520q-105 -291 -250 -520h250z
M1397 383h252q-143 236 -252 535v-535zM524 -174h-231v1040q-66 -88 -125 -159q-55 143 -135 254q129 139 241 343t183 422l231 -69q-68 -197 -164 -395v-1436z" />
    <glyph glyph-name="Identity.650" unicode="&#x4f55;" 
d="M1982 1559v-234h-122v-1214q0 -105 -27 -161t-92 -85q-104 -45 -416 -45q-12 106 -82 250q133 -6 318 -7q31 -1 42 11t11 41v1210h-893v234h1261zM1427 362h-454v-133h-228v875h682v-742zM1200 893h-227v-320h227v320zM571 -172h-243v1071q-61 -84 -144 -172
q-55 145 -131 254q137 137 260 339t197 417l229 -74q-74 -195 -168 -375v-1460z" />
    <glyph glyph-name="Identity.651" unicode="&#x4f59;" 
d="M1288 301l199 125q324 -238 459 -395l-215 -144q-117 154 -443 414zM1853 485h-708v-399q0 -94 -24 -144t-87 -79q-98 -43 -344 -43q-23 113 -98 235q102 -4 250 -4q27 2 36 10t9 29v395h-668v230h668v186h-400v139q-139 -92 -284 -163q-74 125 -148 198q248 113 475 296
t353 360h245q164 -209 396 -376t477 -257q-74 -74 -160 -217q-156 74 -303 174v-154h-393v-186h708v-230zM604 1120h838q-279 201 -426 383q-152 -193 -412 -383zM496 412l227 -82q-88 -123 -219 -245t-258 -202q-104 109 -185 168q125 63 242 161t193 200z" />
    <glyph glyph-name="Identity.652" unicode="&#x4f5c;" 
d="M1985 1169h-582v-215h530v-221h-530v-231h557v-226h-557v-454h-250v1347h-78q-125 -233 -268 -397q-72 82 -186 170q133 137 248 343q116 206 186 429l235 -59q-45 -133 -100 -254h795v-232zM557 -176h-246v1024q-86 -102 -127 -148q-55 145 -135 261q139 139 265 343
t202 422l238 -73q-80 -213 -197 -426v-1403z" />
    <glyph glyph-name="Identity.653" unicode="&#x4f73;" 
d="M1430 121h550v-234h-1362v234h564v246h-451v231h451v180h248v-180h462v-231h-462v-246zM539 -178h-242v1032q-45 -63 -119 -143q-55 139 -131 250q135 139 256 343t195 422l229 -71q-80 -219 -188 -420v-1413zM1182 1067v213h-410v227h410v228h248v-228h421v-227h-421
v-213h514v-229h-1266v229h504z" />
    <glyph glyph-name="Identity.654" unicode="&#x4f75;" 
d="M1991 760v-234h-295v-702h-242v702h-280q-53 -481 -381 -721q-72 98 -168 175q264 172 311 546h-295v234h305v319h-254v232h299q-55 168 -155 336l208 84q135 -199 177 -351l-166 -69h518l-146 59q100 164 170 369l258 -88q-186 -299 -217 -340h308v-232h-250v-319h295z
M1186 760h268v319h-268v-319zM559 -172h-231v1081q-76 -98 -170 -192q-61 156 -127 248q145 139 278 344t215 422l226 -74q-88 -215 -191 -395v-1434z" />
    <glyph glyph-name="Identity.655" unicode="&#x4f7c;" 
d="M2003 819l-203 -129q-27 45 -74 107q-92 -281 -249 -486q221 -199 532 -286q-96 -88 -162 -218q-309 106 -538 326q-236 -215 -588 -321q-41 94 -125 200q342 92 559 295q-147 203 -248 471q-55 -55 -127 -112q-84 90 -190 163q109 68 210 177t163 221l235 -74
q-98 -178 -266 -350l186 51q70 -195 195 -365q115 168 168 381l229 -51q-129 162 -283 305l189 115q283 -252 387 -420zM559 -178h-235v1089q-86 -119 -177 -213q-14 43 -54 125t-68 127q139 142 266 350t207 429l223 -72q-68 -178 -162 -361v-1474zM680 1477h516v258h246
v-258h540v-226h-1302v226z" />
    <glyph glyph-name="Identity.656" unicode="&#x4f7f;" 
d="M1925 571h-500q-27 -205 -112 -356q283 -135 700 -172q-82 -84 -145 -217q-414 51 -701 215q-154 -141 -419 -219q-66 113 -152 203q238 53 373 157q-139 117 -252 305l198 62q70 -113 191 -211q57 102 76 233h-457v598h471v144h-514v188q-61 -129 -123 -235v-1448h-231
v1100q-94 -119 -168 -193q-53 139 -129 250q147 139 280 344t215 420l226 -74q-37 -86 -56 -131h500v186h242v-186h542v-221h-542v-144h487v-598zM1692 971h-254v-203h254v203zM944 768h252v203h-252v-203z" />
    <glyph glyph-name="Identity.657" unicode="&#x4f83;" 
d="M1772 27h24q14 0 20 7t17 56q2 47 6 201q61 -55 162 -90q-9 -191 -27 -251q-36 -118 -174 -118h-98q-140 0 -171 124q-11 44 -11 146v633h227v-635q1 -51 7 -62t18 -11zM1159 -100v829h221v-829h-221zM803 510v225h225v-231q0 -351 -147 -548q-66 -87 -164 -157
q-23 39 -72 91t-90 83q150 105 199 239t49 298zM535 -176h-232v1050q-63 -88 -131 -161q-59 145 -131 245q135 142 253 348t193 425l228 -70q-78 -213 -180 -410v-1427zM1819 1636v-802h-1067v802h1067zM1573 1057v358h-590v-358h590z" />
    <glyph glyph-name="Identity.658" unicode="&#x4f8b;" 
d="M1694 1696h225v-1598q0 -98 -22 -150t-76 -81q-90 -47 -351 -47q-14 119 -73 239q267 -13 286 8q10 9 11 33v1596zM1565 307h-215v1125h-344q-37 -184 -45 -222h182l39 9l141 -43q-55 -492 -210 -836t-392 -518q-23 43 -71 101t-81 85q221 152 359 453q-63 76 -178 168
q-53 -98 -119 -172q-53 82 -135 164v-797h-224v1026q-63 -96 -127 -168q-49 152 -116 262q256 295 405 789l225 -68l-6 -20h711v-146h201v-1192zM1081 999h-176q-37 -109 -63 -178q113 -80 170 -135q40 137 69 313zM639 1432v174q-57 -165 -143 -355v-616q199 252 278 797
h-135z" />
    <glyph glyph-name="Identity.659" unicode="&#x4f8d;" 
d="M1987 881h-269v-162h250v-221h-250v-418q0 -94 -22 -143t-86 -74q-90 -41 -361 -41q-16 104 -73 229q267 -9 284 5q8 7 8 28v414h-817v221h817v162h-839v221h551v178h-430v221h430v223h250v-223h456v-221h-456v-178h557v-221zM770 381l209 106q190 -215 246 -348
l-226 -119q-55 152 -229 361zM526 -174h-231v1032q-53 -70 -129 -151q-16 47 -58 129t-73 125q139 139 264 343t201 422l231 -73q-84 -223 -205 -439v-1388z" />
    <glyph glyph-name="Identity.660" unicode="&#x4f9b;" 
d="M1696 694h282v-237h-1329v237h275v408h-224v233h224v383h237v-383h297v385h238v-385h266v-233h-266v-408zM1161 1102v-408h297v408h-297zM1425 266l195 109q217 -211 348 -422l-205 -129q-49 92 -145 218q-97 126 -193 224zM979 373l227 -70q-74 -127 -184 -255
t-223 -220q-94 94 -191 154q236 160 371 391zM535 -176h-240v1038q-53 -70 -129 -151q-18 49 -60 130q-41 81 -71 124q139 139 265 344t202 422l227 -72q-76 -203 -194 -426v-1409z" />
    </font>
</defs>
</svg>
